<?xml version="1.0" encoding="utf-8"?>
<!-- Generator: Adobe Illustrator 16.0.0, SVG Export Plug-In . SVG Version: 6.00 Build 0)  -->
<!DOCTYPE svg PUBLIC "-//W3C//DTD SVG 1.1//EN" "http://www.w3.org/Graphics/SVG/1.1/DTD/svg11.dtd">
<svg version="1.1" id="Layer_1" xmlns="http://www.w3.org/2000/svg" xmlns:xlink="http://www.w3.org/1999/xlink" x="0px" y="0px"
	 width="128px" height="128px" viewBox="0 0 128 128" enable-background="new 0 0 128 128" xml:space="preserve">
<rect x="-2" y="-2.495" display="none" fill="#0A0A0A" width="133.5" height="133.167"/>
<path display="none" fill="none" stroke="#C0C0C1" stroke-width="5" stroke-linecap="round" d="M74.132,104.035H64.15
	c-4.313,0-7.874-3.377-8.103-7.687c-0.246-4.643,3.454-8.543,8.103-8.543h26.647"/>
<path display="none" fill="none" stroke="#C0C0C1" stroke-width="5" stroke-linecap="round" d="M50.399,119.391L27.403,96.875
	c-3.145-3.153-3.341-8.194-0.452-11.584c2.996-3.515,8.243-4.017,11.85-1.131l18.927,16.646"/>
<path display="none" fill="none" stroke="#C0C0C1" stroke-width="5" stroke-linecap="round" d="M50.573,119.391h37.349l5.875,5.05
	l16.654-16.378L90.798,87.805"/>
<path display="none" fill="none" stroke="#C0C0C1" stroke-width="5" stroke-linecap="round" d="M34.986,47.695
	c-0.584-20.118,14.811-32.967,32.941-32.967c18.193,0,32.941,14.749,32.941,32.94c0,18.193-14.748,32.942-32.941,32.942
	c-6.294,0-12.179-1.768-17.182-4.831"/>
<path display="none" fill="none" stroke="#C0C0C1" stroke-width="5" stroke-linecap="round" d="M22.312,47.522
	c0.926-25.126,20.731-44.38,45.322-44.38c24.653,0,43.958,21.817,43.958,46.343"/>
<path display="none" fill="none" stroke="#C0C0C1" stroke-width="5" stroke-linecap="round" d="M22.301,47.669H16.41
	c-2.783,0-4.224,3.324-2.32,5.355l13.273,14.17c1.257,1.342,3.386,1.342,4.643,0l13.274-14.17c1.903-2.031,0.463-5.355-2.321-5.355
	h-8.04"/>
<path fill="#F48121" d="M112.956,61.753c0,2.259-1.831,4.089-4.091,4.089c-2.258,0-4.088-1.831-4.088-4.089
	c0-2.257,1.83-4.088,4.088-4.088C111.125,57.666,112.956,59.497,112.956,61.753z"/>
<path fill="#F48121" d="M107.73,71.978c0,1.632-1.321,2.953-2.953,2.953s-2.953-1.321-2.953-2.953s1.321-2.953,2.953-2.953
	S107.73,70.346,107.73,71.978z"/>
<path fill="#F48121" d="M66.436,70.849v-46.36h2.97v46.36H66.436z M76.432,38.396c-0.218-1.836-1.1-3.259-2.646-4.273
	c-1.543-1.016-3.438-1.521-5.684-1.521c-1.643,0-3.079,0.265-4.312,0.795c-1.219,0.532-2.172,1.262-2.86,2.192
	c-0.676,0.93-1.014,1.986-1.014,3.169c0,0.99,0.236,1.84,0.705,2.553c0.485,0.701,1.099,1.286,1.848,1.757
	c0.748,0.459,1.532,0.838,2.354,1.141c0.821,0.29,1.577,0.526,2.265,0.706l3.768,1.014c0.966,0.253,2.041,0.604,3.223,1.052
	c1.194,0.446,2.336,1.055,3.424,1.828c1.1,0.759,2.001,1.737,2.717,2.932c0.71,1.197,1.066,2.662,1.066,4.402
	c0,2.004-0.525,3.814-1.576,5.433c-1.039,1.618-2.559,2.904-4.563,3.856c-1.993,0.956-4.411,1.433-7.261,1.433
	c-2.656,0-4.957-0.43-6.899-1.287c-1.933-0.857-3.453-2.052-4.564-3.585c-1.098-1.533-1.72-3.313-1.865-5.343h4.636
	c0.12,1.401,0.592,2.56,1.412,3.477c0.834,0.906,1.884,1.582,3.151,2.029c1.279,0.434,2.656,0.652,4.129,0.652
	c1.714,0,3.255-0.278,4.619-0.833c1.364-0.569,2.444-1.354,3.24-2.354c0.798-1.015,1.195-2.198,1.195-3.55
	c0-1.232-0.343-2.233-1.031-3.006c-0.691-0.774-1.594-1.4-2.718-1.884c-1.123-0.483-2.335-0.907-3.64-1.268l-4.563-1.304
	c-2.896-0.833-5.19-2.021-6.882-3.567c-1.69-1.545-2.535-3.567-2.535-6.067c0-2.076,0.562-3.888,1.684-5.432
	c1.135-1.557,2.657-2.764,4.565-3.622c1.918-0.869,4.062-1.304,6.427-1.304c2.391,0,4.517,0.43,6.376,1.287
	c1.856,0.846,3.332,2.003,4.419,3.477c1.099,1.472,1.678,3.145,1.737,5.016H76.432z"/>
</svg>
