<?xml version="1.0" encoding="utf-8"?>
<!-- Generator: Adobe Illustrator 16.0.0, SVG Export Plug-In . SVG Version: 6.00 Build 0)  -->
<!DOCTYPE svg PUBLIC "-//W3C//DTD SVG 1.1//EN" "http://www.w3.org/Graphics/SVG/1.1/DTD/svg11.dtd">
<svg version="1.1" id="Layer_1" xmlns="http://www.w3.org/2000/svg" xmlns:xlink="http://www.w3.org/1999/xlink" x="0px" y="0px"
	 width="128px" height="128px" viewBox="0 0 128 128" enable-background="new 0 0 128 128" xml:space="preserve">
<rect x="-2" y="-2.495" display="none" fill="#0A0A0A" width="133.5" height="133.167"/>
<path fill="none" stroke="#C0C0C1" stroke-width="4" d="M47.623,5.97H22.718c-5.811,0-10.523,3.758-10.523,8.396v99.059
	c0,4.637,4.712,8.395,10.523,8.395h85.938c5.813,0,10.522-3.758,10.522-8.395v-66.04"/>
<path fill="none" stroke="#C0C0C1" stroke-width="4" d="M106.684,33.393h-7.157c-4.649,0-8.421-3.759-8.421-8.395V19.96"/>
<path fill="none" stroke="#C0C0C1" stroke-width="4" d="M58.748,5.97h23.026c5.156,0,9.332,3.758,9.332,8.396v5.596"/>
<path fill="none" stroke="#C0C0C1" stroke-width="4" d="M105.42,33.393h5.274c4.616,0,8.373,3.708,8.419,8.311l0.057,5.68"/>
<line fill="none" stroke="#C0C0C1" stroke-width="4" stroke-linecap="round" x1="98.516" y1="52.142" x2="106.07" y2="52.142"/>
<line fill="none" stroke="#C0C0C1" stroke-width="4" stroke-linecap="round" x1="98.516" y1="65.574" x2="106.07" y2="65.574"/>
<line fill="none" stroke="#C0C0C1" stroke-width="4" stroke-linecap="round" x1="98.516" y1="79.844" x2="106.07" y2="79.844"/>
<line fill="none" stroke="#C0C0C1" stroke-width="4" stroke-linecap="round" x1="27.407" y1="100.115" x2="69.939" y2="100.115"/>
<line fill="none" stroke="#C0C0C1" stroke-width="4" stroke-linecap="round" x1="27.407" y1="108.23" x2="69.939" y2="108.23"/>
<line fill="none" stroke="#C0C0C1" stroke-width="4" stroke-linecap="round" x1="27.407" y1="19.718" x2="70.885" y2="19.718"/>
<line fill="none" stroke="#C0C0C1" stroke-width="4" stroke-linecap="round" x1="27.407" y1="28.393" x2="70.885" y2="28.393"/>
<line display="none" fill="none" stroke="#F48121" stroke-width="4" stroke-linecap="round" x1="57.317" y1="75.815" x2="57.317" y2="54.039"/>
<line display="none" fill="none" stroke="#F48121" stroke-width="4" stroke-linecap="round" x1="46.067" y1="64.564" x2="67.843" y2="64.564"/>
<path display="none" fill="none" stroke="#F48121" stroke-width="4" stroke-linecap="round" d="M70.591,87.616
	c-4.017,2.308-8.67,3.629-13.637,3.629c-15.132,0-27.4-12.271-27.4-27.402c0-15.133,12.268-27.401,27.4-27.401
	c15.135,0,27.4,12.268,27.4,27.401c0,5.258-1.479,10.167-4.046,14.336"/>
<line display="none" fill="none" stroke="#F48121" stroke-width="4" stroke-linecap="round" x1="79.244" y1="86.306" x2="103.954" y2="109.625"/>
<path fill="none" stroke="#C0C0C1" stroke-width="4" d="M45.748,5.97h23.026"/>
</svg>
