<?xml version="1.0" encoding="utf-8"?>
<!-- Generator: Adobe Illustrator 16.0.0, SVG Export Plug-In . SVG Version: 6.00 Build 0)  -->
<!DOCTYPE svg PUBLIC "-//W3C//DTD SVG 1.1//EN" "http://www.w3.org/Graphics/SVG/1.1/DTD/svg11.dtd">
<svg version="1.1" id="Layer_1" xmlns="http://www.w3.org/2000/svg" xmlns:xlink="http://www.w3.org/1999/xlink" x="0px" y="0px"
	 width="256px" height="191.837px" viewBox="0 0 256 191.837" enable-background="new 0 0 256 191.837" xml:space="preserve">
<path display="none" fill="#F48220" d="M149.991,84.587c18.321,26.663,31.548,26.98,31.548,26.98s0.299,0.729,0.299,1.043
	c0,29.827,0,75.39,0,75.39s-66.394,0-88.845,0c-49.067,0-88.845-39.777-88.845-88.845c0-49.069,39.778-88.846,88.845-88.846
	c22.204,0,42.505,8.145,58.08,21.61c0.115,0.1,0.396,0.158,0.341,0.297C142.519,55.017,142.574,73.792,149.991,84.587z"/>
<path display="none" fill="#522A11" d="M182.101,99.14c0,26.616,0,88.844,0,88.844s-66.394,0-88.845,0
	c-49.067,0-88.846-39.777-88.846-88.844c0-49.069,39.778-88.846,88.846-88.846C142.322,10.294,182.101,50.071,182.101,99.14z"/>
<circle display="none" fill="none" stroke="#F48220" stroke-width="10" cx="195.07" cy="61.349" r="52.929"/>
<g display="none">
	<path display="inline" fill="#F28121" d="M186.162,91.053c-3.12-1.681-5.561-3.973-7.32-6.881c-1.76-2.906-2.64-6.172-2.64-9.8
		c0-1.172,0.346-2.16,1.04-2.96c0.692-0.8,1.572-1.2,2.64-1.2c1.066,0,1.946,0.4,2.64,1.2c0.692,0.8,1.04,1.788,1.04,2.96
		c0,2.188,0.561,4.2,1.681,6.04c1.119,1.84,2.652,3.308,4.6,4.4c1.946,1.094,4.093,1.64,6.44,1.64c3.572,0,6.426-0.986,8.56-2.96
		c2.133-1.973,3.2-4.692,3.2-8.16c0-2.186-0.48-4.2-1.44-6.04c-0.96-1.84-2.28-3.28-3.96-4.32s-3.533-1.56-5.56-1.56
		c-1.174,0-2.147-0.4-2.92-1.2c-0.774-0.8-1.16-1.787-1.16-2.96c0-1.173,0.386-2.146,1.16-2.92c0.772-0.772,1.746-1.16,2.92-1.16
		c1.492,0,2.946-0.386,4.359-1.16c1.413-0.772,2.561-1.826,3.44-3.16c0.88-1.333,1.32-2.8,1.32-4.4c0-2.346-0.854-4.32-2.561-5.92
		c-1.707-1.6-3.894-2.4-6.56-2.4c-2.027,0-3.88,0.4-5.561,1.2c-1.68,0.8-3.014,1.868-4,3.2c-0.987,1.334-1.479,2.828-1.479,4.48
		c0,1.228-0.348,2.254-1.04,3.08c-0.694,0.828-1.574,1.24-2.641,1.24c-1.067,0-1.947-0.386-2.64-1.16
		c-0.693-0.772-1.04-1.747-1.04-2.92c0-3.04,0.8-5.8,2.4-8.28c1.6-2.48,3.786-4.426,6.56-5.84c2.772-1.413,5.866-2.12,9.28-2.12
		c3.093,0,5.92,0.68,8.479,2.04c2.561,1.36,4.573,3.214,6.04,5.56c1.467,2.348,2.2,4.96,2.2,7.84s-0.907,5.374-2.72,7.48
		c-1.813,2.107-4.08,3.774-6.8,5c4.052,1.388,7.066,3.508,9.04,6.36c1.972,2.854,2.96,6.227,2.96,10.12
		c0,3.414-0.88,6.508-2.641,9.28c-1.76,2.773-4.12,4.947-7.08,6.52c-2.96,1.574-6.174,2.36-9.64,2.36
		C192.814,93.572,189.282,92.732,186.162,91.053z"/>
</g>
<g display="none">
	<path display="inline" fill="#F28121" d="M178.402,92.372c-0.774-0.8-1.16-1.76-1.16-2.88c0-1.173,0.372-2.133,1.12-2.88
		l22.72-26.56c3.36-3.84,5.04-7.172,5.04-10c0-3.466-0.894-6.24-2.68-8.32c-1.788-2.08-4.228-3.12-7.32-3.12
		c-1.974,0-3.787,0.52-5.44,1.56s-2.947,2.44-3.88,4.2c-0.934,1.76-1.399,3.654-1.399,5.68c0,1.067-0.388,2-1.16,2.8
		c-0.774,0.8-1.748,1.2-2.92,1.2c-1.12,0-2.08-0.4-2.88-1.2c-0.801-0.8-1.2-1.732-1.2-2.8c0-3.572,0.826-6.8,2.479-9.68
		c1.652-2.88,3.906-5.146,6.761-6.8c2.853-1.652,6.065-2.48,9.64-2.48c3.572,0,6.706,0.774,9.4,2.32
		c2.692,1.548,4.772,3.748,6.239,6.6c1.467,2.854,2.2,6.2,2.2,10.04c0,2.348-0.68,4.788-2.04,7.32
		c-1.36,2.534-3.054,4.948-5.08,7.24l-18.319,20.8h22.399c1.173,0,2.16,0.4,2.96,1.2s1.2,1.76,1.2,2.88s-0.4,2.08-1.2,2.88
		s-1.787,1.2-2.96,1.2h-29.6C180.148,93.572,179.175,93.172,178.402,92.372z"/>
</g>
<g display="none">
	<path display="inline" fill="#F28121" d="M196.522,92.372c-0.801-0.8-1.2-1.76-1.2-2.88v-48.8l-5.84,2.48
		c-0.908,0.374-1.761,0.56-2.561,0.56c-1.174,0-2.147-0.373-2.92-1.12c-0.773-0.746-1.16-1.706-1.16-2.88
		c0-0.906,0.213-1.693,0.641-2.36c0.426-0.666,1.092-1.16,2-1.48l12.479-4.48c0.64-0.212,1.146-0.32,1.521-0.32
		c1.172,0,2.132,0.388,2.88,1.16c0.746,0.773,1.12,1.773,1.12,3v54.24c0,1.12-0.4,2.08-1.2,2.88s-1.788,1.2-2.96,1.2
		C198.255,93.572,197.322,93.172,196.522,92.372z"/>
</g>
<g id="foto_x5F_lampada" display="none">
	<path display="inline" fill="none" stroke="#FFFFFF" stroke-width="4" d="M81.564,130.553c0-2.2,0.534-8.192-1.521-9.255
		c-8.162-4.199-13.746-12.709-13.746-22.518c0-13.978,11.33-25.308,25.308-25.308s25.308,11.33,25.308,25.308
		c0,9.808-5.583,18.318-13.745,22.518c-1.935,0.993-1.797,4.853-1.797,9.255"/>
	
		<line display="inline" fill="none" stroke="#FFFFFF" stroke-width="4" stroke-linecap="round" x1="90.642" y1="47.92" x2="90.642" y2="59.336"/>
	
		<line display="inline" fill="none" stroke="#FFFFFF" stroke-width="4" stroke-linecap="round" x1="77.988" y1="131.377" x2="105.222" y2="131.377"/>
	
		<line display="inline" fill="none" stroke="#FFFFFF" stroke-width="4" stroke-linecap="round" x1="87.479" y1="150.359" x2="95.73" y2="150.359"/>
	
		<line display="inline" fill="none" stroke="#FFFFFF" stroke-width="4" stroke-linecap="round" x1="77.988" y1="140.869" x2="105.222" y2="140.869"/>
	
		<line display="inline" fill="none" stroke="#FFFFFF" stroke-width="4" stroke-linecap="round" x1="54.908" y1="60.552" x2="63.301" y2="68.942"/>
	
		<line display="inline" fill="none" stroke="#FFFFFF" stroke-width="4" stroke-linecap="round" x1="122.361" y1="123.62" x2="130.749" y2="132.01"/>
	
		<line display="inline" fill="none" stroke="#FFFFFF" stroke-width="4" stroke-linecap="round" x1="42.614" y1="96.58" x2="54.029" y2="96.58"/>
	
		<line display="inline" fill="none" stroke="#FFFFFF" stroke-width="4" stroke-linecap="round" x1="129.317" y1="96.58" x2="143.897" y2="96.58"/>
	
		<line display="inline" fill="none" stroke="#FFFFFF" stroke-width="4" stroke-linecap="round" x1="53.667" y1="132.01" x2="62.059" y2="123.621"/>
	
		<line display="inline" fill="none" stroke="#FFFFFF" stroke-width="4" stroke-linecap="round" x1="117.38" y1="68.944" x2="125.77" y2="60.552"/>
</g>
<g id="foto_x5F_enqudramento" display="none">
	<path display="inline" fill="none" stroke="#FFFFFF" stroke-width="4" stroke-linecap="round" d="M45.341,104.184V69.073
		c0-8.484,6.877-15.361,15.361-15.361h32.291"/>
	<path display="inline" fill="none" stroke="#FFFFFF" stroke-width="4" stroke-linecap="round" d="M141.896,104.184v30.723
		c0,8.486-6.874,15.36-15.36,15.36H93.64"/>
	<path display="inline" fill="#FFFFFF" d="M85.231,83.517l-5.533,5.225H69.27l-5.533-5.225H85.231z M85.231,118.35H63.737
		l5.533-5.176h10.429L85.231,118.35z M62.673,97.997V84.513l5.534,5.175v7.016l-3.458,3.283L62.673,97.997z M86.242,103.87v13.482
		l-5.534-5.17v-7.018l3.459-3.233L86.242,103.87z M80.39,98.346l2.767,2.588l-2.767,2.585H68.578l-2.767-2.585l2.767-2.588H80.39z"
		/>
	<path display="inline" fill="#FFFFFF" d="M91.865,118.35v-5.176h5.534v5.176H91.865z"/>
	<path display="inline" fill="#FFFFFF" d="M125.525,83.517l-5.534,5.225H109.56l-5.533-5.225H125.525z M125.525,118.35h-21.499
		l5.533-5.176h10.431L125.525,118.35z M108.494,105.164v7.018l-5.527,5.17V103.87l2.075-1.939L108.494,105.164z M102.966,97.997
		V84.513l5.527,5.175v7.016l-3.452,3.283L102.966,97.997z M126.535,103.87v13.482l-5.534-5.17v-7.018l3.457-3.233L126.535,103.87z
		 M121.001,96.704v-7.016l5.534-5.175v13.483l-2.077,1.991L121.001,96.704z M120.684,98.346l2.767,2.588l-2.767,2.585h-11.816
		l-2.766-2.585l2.766-2.588H120.684z"/>
</g>
<g id="foto_x5F_toque" display="none">
	<path display="inline" fill="none" stroke="#FFFFFF" stroke-width="4" stroke-linecap="round" d="M90.667,113.611V79.472
		c0-3.545-2.872-6.416-6.417-6.416l0,0c-3.545,0-6.416,2.871-6.416,6.416v36.361"/>
	<path display="inline" fill="none" stroke="#FFFFFF" stroke-width="4" stroke-linecap="round" d="M103.5,110.887v-5.749
		c0-3.542-2.875-6.416-6.417-6.416l0,0c-3.542,0-6.416,2.874-6.416,6.416v6.417"/>
	<path display="inline" fill="none" stroke="#FFFFFF" stroke-width="4" stroke-linecap="round" d="M114.194,109.417v-5.347
		c0-2.954-2.393-5.347-5.347-5.347l0,0c-2.954,0-5.347,2.394-5.347,5.347v5.154"/>
	<path display="inline" fill="none" stroke="#FFFFFF" stroke-width="4" stroke-linecap="round" d="M77.132,113.41
		c-1.26-4.583-4.341-8.788-9.667-10.854c-7.187-2.786-9.804,4.437-5.531,10.854l0,0c4.879,7.323,5.427,25.988,22.795,37.288
		c5.187,3.376,12.288,3.735,16.348,3.618c2.127-0.067,4.194-0.61,6.179-1.375l0,0c10.623-4.072,17.633-14.274,17.633-25.65v-23.143
		c0-2.998-2.432-5.426-5.427-5.426l0,0c-2.996,0-5.427,2.429-5.427,5.426v4.742"/>
	<path display="inline" fill="none" stroke="#FFFFFF" stroke-width="4" stroke-linecap="round" d="M67.964,90.167
		C66.086,87.152,65,83.581,65,79.752c0-10.786,8.619-19.53,19.25-19.53s19.25,8.744,19.25,19.53c0,3.829-1.086,7.4-2.967,10.414"/>
	<path display="inline" fill="none" stroke="#FFFFFF" stroke-width="4" stroke-linecap="round" d="M112.055,79.564
		c0-15.406-12.449-27.897-27.805-27.897c-15.356,0-27.805,12.491-27.805,27.897c0,5.471,1.568,10.573,4.28,14.88"/>
</g>
<g id="autom_x5F_blue">
	<g>
		<path fill="none" stroke="#FFFFFF" stroke-width="4" d="M71.84,51.503h40.95c3.273,0,5.928,2.653,5.928,5.927v91.839
			c0,3.275-2.654,5.927-5.928,5.927H71.84c-3.275,0-5.928-2.651-5.928-5.927V57.431C65.913,54.157,68.565,51.503,71.84,51.503z"/>
		<circle fill="#FFFFFF" cx="93.574" cy="142.389" r="5.928"/>
	</g>
	<path fill="none" stroke="#FFFFFF" stroke-width="4" stroke-linecap="round" d="M80.635,90.148l20.031,16.692l-10.34,9.462V79.578
		l10.34,10.571L80.635,106.84"/>
</g>
</svg>
