<svg width="150" height="165" viewBox="0 0 150 165" fill="none" xmlns="http://www.w3.org/2000/svg">
<path d="M43.5 102H24V105H43.5V102Z" fill="#37474F"/>
<path d="M18 54H7.5V57H18V54Z" fill="#37474F"/>
<path d="M18 66H7.5V69H18V66Z" fill="#37474F"/>
<path d="M18 78H7.5V81H18V78Z" fill="#37474F"/>
<path d="M18 90H7.5V93H18V90Z" fill="#37474F"/>
<path d="M18 114H7.5V117H18V114Z" fill="#37474F"/>
<path d="M18 102H7.5V105H18V102Z" fill="#37474F"/>
<path d="M31.656 42H19.344L21.144 24H29.859L31.656 42ZM22.659 39H28.344L27.144 27H23.859L22.659 39ZM46.5 135H4.5C2.019 135 0 132.981 0 130.5C0 128.019 2.019 126 4.5 126H46.5C48.981 126 51 128.019 51 130.5C51 132.981 48.981 135 46.5 135ZM4.5 129C3.672 129 3 129.672 3 130.5C3 131.328 3.672 132 4.5 132H46.5C47.328 132 48 131.328 48 130.5C48 129.672 47.328 129 46.5 129H4.5Z" fill="#37474F"/>
<path d="M36 159H15V132H36V159ZM18 156H33V135H18V156Z" fill="#37474F"/>
<path d="M40.5 165H10.5C8.019 165 6 162.981 6 160.5C6 158.019 8.019 156 10.5 156H40.5C42.981 156 45 158.019 45 160.5C45 162.981 42.981 165 40.5 165ZM10.5 159C9.672 159 9 159.672 9 160.5C9 161.328 9.672 162 10.5 162H40.5C41.328 162 42 161.328 42 160.5C42 159.672 41.328 159 40.5 159H10.5Z" fill="#37474F"/>
<path d="M27 0H24V25.5H27V0Z" fill="#37474F"/>
<path d="M118.5 165H70.5C64.71 165 60 160.29 60 154.5V85.5C60 78.561 65.259 72.831 72 72.084V63H117V72.084C123.741 72.834 129 78.564 129 85.5V154.5C129 160.29 124.29 165 118.5 165ZM73.5 75C67.71 75 63 79.71 63 85.5V154.5C63 158.634 66.366 162 70.5 162H118.5C122.634 162 126 158.634 126 154.5V85.5C126 79.71 121.29 75 115.5 75H114V66H75V75H73.5Z" fill="#37474F"/>
<path d="M118.5 66H70.5C66.366 66 63 62.634 63 58.5V52.5C63 48.366 66.366 45 70.5 45H118.5C122.634 45 126 48.366 126 52.5V58.5C126 62.634 122.634 66 118.5 66ZM70.5 48C68.019 48 66 50.019 66 52.5V58.5C66 60.981 68.019 63 70.5 63H118.5C120.981 63 123 60.981 123 58.5V52.5C123 50.019 120.981 48 118.5 48H70.5ZM129 147H60V93H129V147ZM63 144H126V96H63V144Z" fill="#37474F"/>
<path d="M150 162H147V165H150V162Z" fill="#37474F"/>
<path d="M144 162H30V165H144V162Z" fill="#37474F"/>
<path d="M45 129H6V42.297L21 39L30.324 39.036L45 42.297V129ZM9 126H42V44.703L29.835 42H21.162L9 44.703V126ZM96 136.5C86.901 136.5 79.5 129.099 79.5 120C79.5 110.901 86.901 103.5 96 103.5C98.988 103.5 101.916 104.307 104.466 105.837L102.924 108.408C100.839 107.16 98.445 106.5 96 106.5C88.557 106.5 82.5 112.557 82.5 120C82.5 127.443 88.557 133.5 96 133.5C103.443 133.5 109.5 127.443 109.5 120C109.5 118.611 109.29 117.243 108.879 115.938L111.738 115.035C112.245 116.631 112.5 118.305 112.5 120C112.5 129.099 105.099 136.5 96 136.5Z" fill="#37474F"/>
<path d="M95.7954 126.504L88.6494 118.179L90.9264 116.223L95.7594 121.857L107.996 107.142L110.303 109.062L95.7954 126.504Z" fill="#37474F"/>
</svg>
