<svg width="50" height="48" viewBox="0 0 50 48" fill="none" xmlns="http://www.w3.org/2000/svg">
<path d="M48.9201 19.6374V38.0003C48.9201 42.9709 44.8906 47.0003 39.9201 47.0003H10C5.02944 47.0003 1 42.9709 1 38.0003V20.8288C1 16.6089 4.42086 13.1881 8.6407 13.1881H10.6596C13.2036 13.1881 15.5137 11.7037 16.5708 9.3897C17.3026 7.78784 18.9017 6.76025 20.6628 6.76025H31.72C33.2192 6.76025 34.5288 7.77376 34.905 9.22505C35.5097 11.5585 37.6155 13.1881 40.026 13.1881H42.4707C46.0326 13.1881 48.9201 16.0756 48.9201 19.6374Z" stroke="#F48121" stroke-width="2"/>
<circle cx="42.2394" cy="20.16" r="2.88" fill="#F48121"/>
<line x1="6.75977" y1="8.60034" x2="10.5198" y2="8.60034" stroke="#F48121" stroke-width="2" stroke-linecap="round"/>
<line x1="5.37711" y1="5.31304" x2="4.35153" y2="3.26189" stroke="#F48121" stroke-width="2" stroke-linecap="round"/>
<line x1="8.59961" y1="3.80005" x2="8.59961" y2="1.00004" stroke="#F48121" stroke-width="2" stroke-linecap="round"/>
<line x1="12.0333" y1="5.37833" x2="13.0588" y2="3.32718" stroke="#F48121" stroke-width="2" stroke-linecap="round"/>
<circle cx="25.4405" cy="28.3201" r="11.96" stroke="#F48121" stroke-width="2"/>
<path d="M18.2402 28.3201C18.2402 24.3437 21.4638 21.1201 25.4402 21.1201" stroke="#F48121" stroke-width="2" stroke-linecap="round"/>
</svg>
