<?xml version="1.0" encoding="utf-8"?>
<!-- Generator: Adobe Illustrator 16.0.0, SVG Export Plug-In . SVG Version: 6.00 Build 0)  -->
<!DOCTYPE svg PUBLIC "-//W3C//DTD SVG 1.1//EN" "http://www.w3.org/Graphics/SVG/1.1/DTD/svg11.dtd">
<svg version="1.1" id="Layer_1" xmlns="http://www.w3.org/2000/svg" xmlns:xlink="http://www.w3.org/1999/xlink" x="0px" y="0px"
	 width="128px" height="128px" viewBox="0 0 128 128" enable-background="new 0 0 128 128" xml:space="preserve">
<rect x="-2" y="-2.495" display="none" fill="#0A0A0A" width="133.5" height="133.167"/>
<path fill="none" stroke="#B9B9BA" stroke-width="4" stroke-linecap="round" d="M99.162,26.757v-14.5
	c0-4.781-3.875-8.657-8.656-8.657H32.069c-4.781,0-8.657,3.875-8.657,8.657v103.878c0,4.782,3.876,8.658,8.657,8.658h58.437
	c4.781,0,8.656-3.876,8.656-8.658V98.39"/>
<line display="none" fill="none" stroke="#F28121" stroke-width="4" stroke-linecap="round" x1="54.145" y1="107.048" x2="68.863" y2="107.048"/>
<circle display="none" fill="none" stroke="#F28121" stroke-width="4" cx="80.767" cy="61.384" r="8.007"/>
<path display="none" fill="none" stroke="#F28121" stroke-width="4" d="M74.658,33.033h11.545c1.006,0,1.88,0.694,2.107,1.673
	l0.429,1.842c0.799,3.433,4.19,5.603,7.643,4.887l4.322-0.897c0.901-0.187,1.822,0.216,2.295,1.006l5.388,8.979
	c0.446,0.743,0.406,1.682-0.103,2.383l-2.708,3.735c-1.683,2.322-1.644,5.47,0.095,7.749l2.636,3.454
	c0.514,0.672,0.588,1.583,0.188,2.331l-5.602,10.487c-0.453,0.848-1.41,1.294-2.351,1.098l-3.767-0.783
	c-3.014-0.629-6.052,0.945-7.279,3.766l-1.792,4.124c-0.345,0.788-1.124,1.301-1.984,1.301H74.538c-0.922,0-1.741-0.583-2.044-1.453
	l-1.349-3.878c-0.974-2.8-3.72-4.584-6.673-4.338l-4.434,0.369c-0.803,0.068-1.577-0.317-2.007-0.996l-5.638-8.879
	c-0.485-0.766-0.443-1.752,0.106-2.472l3.05-4.003c1.805-2.37,1.767-5.664-0.095-7.991l-3.002-3.753
	c-0.549-0.686-0.629-1.633-0.204-2.4l4.968-8.97c0.429-0.773,1.285-1.208,2.162-1.099l5.61,0.702
	c3.128,0.391,6.085-1.521,7.013-4.533l0.589-1.913C72.869,33.653,73.709,33.033,74.658,33.033z"/>
</svg>
