<?xml version="1.0" encoding="utf-8"?>
<!-- Generator: Adobe Illustrator 16.0.0, SVG Export Plug-In . SVG Version: 6.00 Build 0)  -->
<!DOCTYPE svg PUBLIC "-//W3C//DTD SVG 1.1//EN" "http://www.w3.org/Graphics/SVG/1.1/DTD/svg11.dtd">
<svg version="1.1" id="Layer_1" xmlns="http://www.w3.org/2000/svg" xmlns:xlink="http://www.w3.org/1999/xlink" x="0px" y="0px"
	 width="128px" height="128px" viewBox="0 0 128 128" enable-background="new 0 0 128 128" xml:space="preserve">
<rect x="-2" y="-2.495" display="none" fill="#0A0A0A" width="133.5" height="133.167"/>
<path display="none" fill="none" stroke="#C0C0C1" stroke-width="4" d="M117.664,64.299v28.119c0,15.595,0,23.394-4.844,28.236
	c-4.842,4.846-12.641,4.846-28.238,4.846H27.31c-0.426,0-0.64,0-0.819-0.003c-8.854-0.194-15.983-7.324-16.177-16.177
	c-0.003-0.181-0.003-0.393-0.003-0.819l0,0c0-0.427,0-0.641,0.003-0.821c0.194-8.851,7.324-15.985,16.177-16.179
	c0.179,0,0.393,0,0.819,0h36.708h20.564c15.598,0,23.396,0,28.238-4.846c4.844-4.847,4.844-12.645,4.844-28.237V36.18
	c0-15.594,0-23.391-4.844-28.237c-4.842-4.844-12.641-4.844-28.238-4.844h-41.19c-15.594,0-23.393,0-28.237,4.844
	C10.31,12.789,10.31,20.586,10.31,36.18v72.321"/>
<path fill="none" stroke="#F48121" stroke-width="4" stroke-linecap="round" d="M40.738,26.238L40.738,26.238
	c-4.142,0.517-7.275,4.002-7.271,8.177c0.002,1.75,0.017,3.618,0.052,5.358c0.088,4.243,0,6.317,0,10.828
	c0,3.679,0.762,5.901,2.708,9.024c1.705,2.741,4.354,3.925,7.218,5.415c3.009,1.563,3.829,1.915,7.219,1.806
	c3.247-0.11,3.354-0.475,6.316-1.806c3.214-1.443,6.231-3.343,8.118-6.318c1.882-2.973,2.694-4.526,2.694-8.121
	c0-2.707-0.09-6.585,0-10.828c0.042-2.04,0.052-4.256,0.052-6.253c-0.007-3.676-2.717-6.761-6.353-7.281l0,0"/>
<path fill="none" stroke="#F48121" stroke-width="4" stroke-linecap="round" d="M49.763,66.845c0,0,3.319,4.067,6.315,6.313
	c3.608,2.707,7.733,2.581,10.817,1.809c3.591-0.905,5.334-2.165,7.185-5.415c3.594-6.318,2.699-13.741,2.699-24.364
	c-0.004-4.512,1.801-9.024,6.311-9.024c5.414-0.001,6.857,5.243,6.857,5.243"/>
<circle fill="none" stroke="#F48121" stroke-width="4" cx="92.111" cy="47.893" r="4.662"/>
<circle fill="#F48121" stroke="#F48121" stroke-width="4" cx="41.266" cy="26.236" r="2.858"/>
<path fill="#F48121" stroke="#F48121" stroke-width="4" d="M62.493,26.236c0,1.578-1.279,2.858-2.857,2.858s-2.857-1.28-2.857-2.858
	c0-1.578,1.279-2.857,2.857-2.857S62.493,24.658,62.493,26.236z"/>
</svg>
