<svg width="51" height="63" viewBox="0 0 51 63" fill="none" xmlns="http://www.w3.org/2000/svg">
<path d="M48.0806 5.54661H37.8656V2.36864C37.8656 1.30932 37.0591 0.25 35.7151 0.25H14.2097C13.4032 0.25 12.5968 1.30932 12.5968 2.36864V5.54661H2.38172C1.30645 5.54661 0.5 6.60593 0.5 7.66525V60.6314C0.5 61.6907 1.30645 62.75 2.65054 62.75H48.3495C49.4247 62.75 50.5 61.9555 50.5 60.6314V7.66525C50.2312 6.60593 49.1559 5.54661 48.0806 5.54661ZM16.629 7.66525V4.48729H34.1022V11.1081H16.629V7.66525ZM17.9731 28.8517C17.7043 28.8517 17.4355 28.5869 17.4355 28.5869V24.6144C17.4355 24.3496 17.7043 24.3496 17.7043 24.3496H22.8118V19.3178C22.8118 19.053 23.0806 19.053 23.0806 19.053H26.8441C27.1129 19.053 27.1129 19.3178 27.1129 19.3178V24.3496H32.2204C32.4893 24.3496 32.4893 24.6144 32.4893 24.6144V28.322C32.4893 28.5869 32.2204 28.5869 32.2204 28.5869H27.1129V33.6186C27.1129 33.8835 26.8441 33.8835 26.8441 33.8835H23.0806C22.8118 33.8835 22.8118 33.6186 22.8118 33.6186V28.8517H17.9731ZM11.7903 39.9746H38.672C39.7473 39.9746 40.8226 40.7691 40.8226 42.0932C40.8226 43.4174 40.0161 44.2119 38.672 44.2119H11.7903C10.7151 44.2119 9.63979 43.4174 9.63979 42.0932C9.63979 40.7691 10.7151 39.9746 11.7903 39.9746ZM38.9409 54.8051H12.0591C10.9839 54.8051 9.9086 54.0106 9.9086 52.6864C9.9086 51.3623 10.7151 50.5678 12.0591 50.5678H38.9409C40.0161 50.5678 41.0914 51.3623 41.0914 52.6864C41.0914 54.0106 40.0161 54.8051 38.9409 54.8051Z" fill="#FF98DF"/>
</svg>
