<svg width="16" height="20" viewBox="0 0 16 20" fill="none" xmlns="http://www.w3.org/2000/svg">
<g id="Group">
<g id="Group_2">
<path id="Vector" d="M8.00012 6.92004V10" stroke="black" stroke-width="1.5" stroke-linecap="round" stroke-linejoin="round"/>
<path id="Vector_2" d="M9.54008 8.46008H6.46008" stroke="black" stroke-width="1.5" stroke-linecap="round" stroke-linejoin="round"/>
</g>
<path id="Vector_3" d="M12.11 2.29004H13.14C14.28 2.29004 15.2 3.21004 15.2 4.35004V17.2C15.2 18.34 14.28 19.26 13.14 19.26H2.86005C1.72005 19.26 0.800049 18.34 0.800049 17.2V4.35004C0.800049 3.21004 1.72005 2.29004 2.86005 2.29004H4.92004" stroke="black" stroke-width="1.5" stroke-linecap="round" stroke-linejoin="round"/>
<path id="Vector_4" d="M10.06 3.82999H5.95004C5.38004 3.82999 4.92004 3.36999 4.92004 2.79999V1.76999C4.92004 1.19999 5.38004 0.73999 5.95004 0.73999H10.06C10.63 0.73999 11.09 1.19999 11.09 1.76999V2.79999C11.08 3.36999 10.62 3.82999 10.06 3.82999Z" stroke="black" stroke-width="1.5" stroke-linecap="round" stroke-linejoin="round"/>
<g id="Group_3">
<path id="Vector_5" d="M3.89001 13.08H12.11" stroke="black" stroke-width="1.5" stroke-linecap="round" stroke-linejoin="round"/>
<path id="Vector_6" d="M3.89001 16.1699H12.11" stroke="black" stroke-width="1.5" stroke-linecap="round" stroke-linejoin="round"/>
</g>
</g>
</svg>
