<svg width="29" height="28" viewBox="0 0 29 28" fill="none" xmlns="http://www.w3.org/2000/svg">
<path d="M10.4518 9.95166L18.5485 18.0483L13.4852 23.1117C12.3768 24.22 10.9068 24.78 9.43683 24.7917C7.96683 24.78 6.49683 24.22 5.3885 23.1117C3.1485 20.8717 3.1485 17.255 5.3885 15.015L10.4518 9.95166Z" stroke="white" stroke-width="1.5" stroke-linecap="round" stroke-linejoin="round"/>
<path d="M23.6117 4.88837C25.8517 7.12837 25.8517 10.745 23.6117 12.985L18.5483 18.0484L10.4517 9.95171L15.515 4.88837C16.6233 3.78004 18.0933 3.22004 19.5633 3.20837C21.0333 3.22004 22.5033 3.78004 23.6117 4.88837Z" stroke="white" stroke-width="1.5" stroke-linecap="round" stroke-linejoin="round"/>
<path d="M18.2666 6.8756L18.2535 6.86105L18.2393 6.84758C18.1146 6.72911 18.0449 6.56135 18.0449 6.37008C18.0449 6.17226 18.1115 6.00891 18.2485 5.87197C18.4965 5.6239 18.985 5.6239 19.233 5.87197C19.3789 6.01784 19.4483 6.18469 19.4483 6.37008C19.4483 6.54848 19.3759 6.72062 19.2422 6.84758L19.2329 6.85641L19.2241 6.8657C19.0971 6.99934 18.925 7.07175 18.7466 7.07175C18.5457 7.07175 18.3716 6.99226 18.2666 6.8756Z" fill="white" stroke="white"/>
<path d="M15.3521 9.765L16.1921 8.91333" stroke="white" stroke-width="1.5" stroke-linecap="round" stroke-linejoin="round"/>
</svg>
