<?xml version="1.0" encoding="utf-8"?>
<!-- Generator: Adobe Illustrator 16.0.0, SVG Export Plug-In . SVG Version: 6.00 Build 0)  -->
<!DOCTYPE svg PUBLIC "-//W3C//DTD SVG 1.1//EN" "http://www.w3.org/Graphics/SVG/1.1/DTD/svg11.dtd">
<svg version="1.1" id="Layer_1" xmlns="http://www.w3.org/2000/svg" xmlns:xlink="http://www.w3.org/1999/xlink" x="0px" y="0px"
	 width="512px" height="512px" viewBox="0 0 512 512" enable-background="new 0 0 512 512" xml:space="preserve">
<path fill="#F47A20" d="M164.748,299.863c4.954,0,8.969,4.002,8.969,8.945c0,4.937-4.016,8.938-8.969,8.938
	c-4.955,0-8.971-4.003-8.971-8.938C155.777,303.865,159.793,299.863,164.748,299.863z"/>
<g display="none">
	<path display="inline" fill="#F3F3F3" d="M425.79,28.411c67.089,34.78,88.013,127.531,46.729,207.167
		c-62.665,120.875-153.891,28.607-221.464,47.591c-65.184,18.315-30.212,58.28-104.09,77.87
		c-79.223,21-227.208-78.227-77.028-180.798c48.212-21.19,148.478,12.157,189.763-67.48C300.985,33.126,358.703-6.368,425.79,28.411
		z"/>
	<g display="inline">
		<path fill="none" stroke="#C1C1C0" stroke-width="3" stroke-dasharray="10.0506,10.0506" d="M435.732,75.434
			c67.089,34.78,88.013,127.531,46.729,207.167c-62.665,120.875-153.891,28.605-221.465,47.59
			c-65.184,18.316-30.213,58.281-104.09,77.871c-79.223,21.001-227.208-78.227-77.028-180.797
			c48.212-21.19,148.478,12.157,189.763-67.48C310.928,80.149,368.646,40.655,435.732,75.434z"/>
	</g>
	<path display="inline" fill="#FAB8A4" d="M161.552,233.191c0,0-1.517-4.404-2.195-7.307c-1.268-5.424-1.376-8.608-1.609-14.173
		c-0.275-6.619-0.033-10.369,0.731-16.954c0.583-5.003,1.239-7.764,2.196-12.711c1.121-5.792,1.826-9.026,3.219-14.757
		c2.184-8.991,4.158-13.833,6.439-22.797c2.294-9.018,3.299-14.14,5.267-23.235c1.418-6.552,1.876-10.304,3.512-16.805
		c1.085-4.311,0.823-7.125,3.073-10.959c1.174-1.999,1.538-3.735,3.658-4.675c1.829-0.811,3.188-0.512,5.122,0
		c2.133,0.563,3.206,1.432,4.829,2.921c2.879,2.643,4.537,8.914,4.537,8.914v164.25l3.658,4.529l5.268,3.215l12.146,1.896h9.073
		h6.73l-77.848,211.012c0,0-33.56-3.073-53.847-9.792c-19.698-6.521-47.705-23.377-47.705-23.377L161.552,233.191z"/>
	<path display="inline" fill="#F6967D" d="M163.502,231.834c0,0,3.902,6.442,6.635,10.382c4.491,6.474,7.043,10.164,12.442,15.726
		c4.043,4.168,11.06,9.771,11.06,9.771s-5.848-2.623-9.402-4.732c-5.143-3.053-8.037-4.926-12.442-9.158
		c-5.083-4.892-11.474-14.659-11.474-14.659L163.502,231.834z"/>
	<path display="inline" fill="#F6967D" d="M215.816,277.875c0,0,5.452,4.037,9.579,4.918c3.306,0.702,8.361,0,8.361,0l-2.888,7.895
		c0,0-4.129-2.438-6.538-4.318C220.62,283.473,215.816,277.875,215.816,277.875z"/>
	<path display="inline" fill="#FFFFFF" d="M212.781,44.135h84.997c6.706,0,12.143,5.437,12.143,12.143v203.385
		c0,6.705-5.437,12.142-12.143,12.142h-84.997c-6.706,0-12.142-5.437-12.142-12.142V56.277
		C200.639,49.572,206.075,44.135,212.781,44.135z"/>
	<path display="inline" fill="#3C3C3B" d="M147.894,282.188l46.128,19.313c8.716,3.651,12.821,13.676,9.172,22.392l0,0
		c-3.65,8.715-13.674,12.82-22.389,9.172l-46.127-19.313c-8.716-3.651-12.823-13.675-9.174-22.392l0,0
		C129.154,282.645,139.179,278.539,147.894,282.188z"/>
	<path display="inline" fill="#6B6C6C" d="M170.121,291.838l46.128,19.314c8.714,3.648,12.821,13.672,9.173,22.388l0,0
		c-3.65,8.716-13.674,12.825-22.39,9.174L156.904,323.4c-8.715-3.648-12.821-13.676-9.172-22.392l0,0
		C151.381,292.294,161.406,288.188,170.121,291.838z"/>
	<path display="inline" fill="#3D3D3D" d="M173.002,292.971l46.128,19.315c8.715,3.649,12.821,13.672,9.172,22.387l0,0
		c-3.65,8.716-13.674,12.825-22.39,9.173l-46.126-19.313c-8.715-3.648-12.822-13.676-9.173-22.391l0,0
		C154.263,293.427,164.287,289.32,173.002,292.971z"/>
	<circle display="inline" fill="#B4B4B4" cx="139.821" cy="298.469" r="2.564"/>
	<path display="inline" fill="#B4B4B4" d="M134.693,293.341c1.416,0,2.563,1.147,2.563,2.563c0,1.412-1.147,2.561-2.563,2.561
		c-1.415,0-2.562-1.146-2.562-2.561C132.131,294.488,133.278,293.341,134.693,293.341z"/>
	<path display="inline" fill="#FAB8A4" d="M341.048,459.394c-1.926-4.892-2.585-7.841-5.104-12.45
		c-2.443-4.466-7.44-10.692-7.44-10.692s-13.388-16.851-21.735-27.831c-5.354-7.046-9-10.574-13.564-18.163
		c-4.187-6.967-6.558-11.003-9.041-18.747c-1.24-3.869-1.81-6.101-2.479-10.107c-0.924-5.545-0.111-8.793-0.877-14.356
		c-0.281-2.065-0.451-3.228-0.871-5.272c-1.168-5.649-4.257-8.303-4.523-14.063c-0.047-1.026-0.09-1.608,0-2.636
		c0.122-1.396,0.265-2.193,0.729-3.514c1.334-3.782,6.856-7.617,6.856-7.617s-4.479-18.659-7.876-30.469
		c-2.203-7.648-3.971-11.78-5.982-19.482c-1.879-7.198-3.125-11.224-4.082-18.602c-0.563-4.325-1.525-6.821-0.875-11.134
		c0.389-2.595,0.342-4.332,1.896-6.444c0.909-1.237,1.569-1.901,2.916-2.636c1.35-0.736,2.26-1.002,3.79-1.026
		c1.84-0.03,2.931,0.397,4.525,1.316c2.313,1.34,2.862,3.065,4.375,5.277c1.956,2.869,4.086,7.909,4.086,7.909
		s3.918,8.976,6.27,14.795c3.524,8.722,4.752,13.912,8.461,22.557c4.123,9.608,11.813,24.021,11.813,24.021s-2.045-6.271-1.896-10.4
		c0.073-2.02,0.204-3.174,0.733-5.125c0.517-1.909,0.783-3.057,1.893-4.689c1.252-1.838,2.229-2.846,4.232-3.807
		c2.078-0.996,3.533-0.729,5.835-0.881c1.818-0.115,2.875-0.352,4.665,0c1.558,0.313,2.473,0.581,3.796,1.468
		c1.815,1.222,2.223,2.609,3.497,4.394c2.085,2.918,4.672,7.91,4.672,7.91s-0.189-1.537,0-2.489c0.214-1.104,0.499-1.729,1.162-2.64
		c1.026-1.388,2.063-1.813,3.646-2.488c0.931-0.394,1.507-0.479,2.481-0.73c1.354-0.352,2.119-0.531,3.502-0.734
		c1.356-0.196,2.15-0.531,3.503-0.291c1.5,0.267,2.235,0.89,3.498,1.758c1.197,0.82,2.771,2.488,2.771,2.488
		s1.241-0.451,2.038-0.729c2.437-0.854,3.733-1.631,6.276-2.052c2.751-0.456,4.388-0.43,7.146,0c2.652,0.412,4.27,0.658,6.563,2.052
		c2.655,1.612,3.468,3.418,5.397,5.856c3.648,4.619,4.931,7.778,7.585,13.039c4.5,8.916,6.623,14.217,9.19,23.875
		c1.73,6.527,2.192,10.316,3.208,16.991c1.471,9.658,1.688,15.16,2.478,24.902c1.535,18.948,2.188,48.627,2.188,48.627l3.795,9.381
		l29.758,64.889c0,0-25.104,14.188-42.885,17.138c-17.955,2.98-46.533-2.491-46.533-2.491S347.973,476.974,341.048,459.394z"/>
	<circle display="inline" fill="#ECECEC" cx="227.958" cy="150.38" r="9.106"/>
	<circle display="inline" fill="#D1D2D2" cx="227.958" cy="150.38" r="9.106"/>
	<circle display="inline" fill="#ECECEC" cx="255.279" cy="150.38" r="9.106"/>
	<circle display="inline" fill="#D1D2D2" cx="255.279" cy="150.38" r="9.106"/>
	<path display="inline" fill="#ECECEC" d="M282.6,141.273c5.026,0,9.106,4.078,9.106,9.106c0,5.029-4.08,9.107-9.106,9.107
		c-5.027,0-9.105-4.078-9.105-9.107C273.493,145.352,277.57,141.273,282.6,141.273z"/>
	<path display="inline" fill="#D1D2D2" d="M282.6,141.273c5.026,0,9.106,4.078,9.106,9.106c0,5.029-4.08,9.107-9.106,9.107
		c-5.027,0-9.105-4.078-9.105-9.107C273.493,145.352,277.57,141.273,282.6,141.273z"/>
	<circle display="inline" fill="#ECECEC" cx="227.958" cy="180.736" r="9.107"/>
	<circle display="inline" fill="#D1D2D2" cx="227.958" cy="180.736" r="9.107"/>
	<circle display="inline" fill="#ECECEC" cx="255.279" cy="180.736" r="9.107"/>
	<circle display="inline" fill="#D1D2D2" cx="255.279" cy="180.736" r="9.107"/>
	<path display="inline" fill="#ECECEC" d="M282.6,171.629c5.026,0,9.106,4.079,9.106,9.106c0,5.027-4.08,9.107-9.106,9.107
		c-5.027,0-9.105-4.079-9.105-9.107C273.494,175.707,277.57,171.629,282.6,171.629z"/>
	<path display="inline" fill="#D1D2D2" d="M282.6,171.629c5.026,0,9.106,4.079,9.106,9.106c0,5.027-4.08,9.107-9.106,9.107
		c-5.027,0-9.105-4.079-9.105-9.107C273.494,175.707,277.57,171.629,282.6,171.629z"/>
	<circle display="inline" fill="#ECECEC" cx="227.958" cy="208.056" r="9.107"/>
	<circle display="inline" fill="#D1D2D2" cx="227.958" cy="208.056" r="9.107"/>
	<circle display="inline" fill="#ECECEC" cx="255.279" cy="208.056" r="9.107"/>
	<circle display="inline" fill="#D1D2D2" cx="255.279" cy="208.056" r="9.107"/>
	<path display="inline" fill="#ECECEC" d="M282.6,198.949c5.026,0,9.106,4.079,9.106,9.107c0,5.028-4.08,9.107-9.106,9.107
		c-5.027,0-9.105-4.079-9.105-9.107C273.494,203.028,277.57,198.949,282.6,198.949z"/>
	<path display="inline" fill="#D1D2D2" d="M282.6,198.949c5.026,0,9.106,4.079,9.106,9.107c0,5.028-4.08,9.107-9.106,9.107
		c-5.027,0-9.105-4.079-9.105-9.107C273.494,203.028,277.57,198.949,282.6,198.949z"/>
	<path display="inline" fill="#D1D2D2" d="M251.492,94.222c0-1.235,0.121-2.369,0.363-3.401c0.243-1.052,0.597-1.953,1.063-2.701
		c0.466-0.77,1.023-1.357,1.67-1.76c0.667-0.425,1.407-0.639,2.217-0.639c0.83,0,1.567,0.214,2.217,0.639
		c0.646,0.403,1.203,0.99,1.668,1.76c0.466,0.748,0.819,1.649,1.063,2.701c0.243,1.032,0.364,2.166,0.364,3.401
		c0,1.235-0.121,2.378-0.364,3.43c-0.243,1.032-0.598,1.933-1.063,2.703c-0.465,0.749-1.021,1.335-1.668,1.759
		c-0.648,0.407-1.387,0.608-2.217,0.608c-0.81,0-1.55-0.202-2.217-0.608c-0.647-0.423-1.204-1.01-1.67-1.759
		c-0.465-0.77-0.819-1.67-1.063-2.703C251.613,96.6,251.492,95.457,251.492,94.222z M248.911,94.222
		c0,2.124,0.334,4.006,1.002,5.646c0.667,1.64,1.589,2.934,2.761,3.885c1.194,0.935,2.57,1.396,4.129,1.396s2.926-0.461,4.1-1.396
		c1.193-0.951,2.125-2.245,2.791-3.885c0.668-1.639,1.004-3.522,1.004-5.646c0-2.125-0.336-4.008-1.004-5.647
		c-0.666-1.638-1.598-2.923-2.791-3.854c-1.174-0.951-2.541-1.427-4.1-1.427s-2.935,0.476-4.129,1.427
		c-1.172,0.931-2.095,2.216-2.761,3.854C249.245,90.214,248.911,92.097,248.911,94.222z"/>
	
		<line display="inline" fill="none" stroke="#D1D2D2" stroke-width="3" stroke-linecap="round" x1="220.37" y1="112.435" x2="290.188" y2="112.435"/>
</g>
<path fill="none" stroke="#F47A20" stroke-width="8" stroke-linecap="round" d="M267.167,271.805h-54.386
	c-6.706,0-12.143-5.437-12.143-12.142V56.277c0.001-6.705,5.437-12.142,12.143-12.142h84.996c6.706,0,12.143,5.437,12.143,12.143
	v203.385c0,5.061-3.096,9.397-7.498,11.222"/>
</svg>
