<?xml version="1.0" encoding="utf-8"?>
<!-- Generator: Adobe Illustrator 16.0.0, SVG Export Plug-In . SVG Version: 6.00 Build 0)  -->
<!DOCTYPE svg PUBLIC "-//W3C//DTD SVG 1.1//EN" "http://www.w3.org/Graphics/SVG/1.1/DTD/svg11.dtd">
<svg version="1.1" id="Layer_1" xmlns="http://www.w3.org/2000/svg" xmlns:xlink="http://www.w3.org/1999/xlink" x="0px" y="0px"
	 width="128px" height="128px" viewBox="0 0 128 128" enable-background="new 0 0 128 128" xml:space="preserve">
<rect x="-2" y="-2.495" display="none" fill="#0A0A0A" width="133.5" height="133.167"/>
<path fill="none" stroke="#C0C0C1" stroke-width="5" d="M114.534,23.121c0.65,7.565,1.768,32.035-7.479,58.858
	c-10.224,29.662-38.809,40.493-43.216,42.005c-0.281,0.097-0.538,0.108-0.819,0.033c-4.359-1.094-32.225-9.283-43.893-42.044
	C8.49,52.107,12.293,29.434,13.825,22.811c0.194-0.845,1.006-1.393,1.931-1.292c2.572,0.277,7.228,0.67,12.294,0.564
	c5.052-0.104,10.576-0.708,14.848-2.459c3.78-1.549,7.682-4.451,11.061-7.434c3.389-2.992,6.292-6.103,8.078-8.12
	c0.77-0.871,2.156-0.904,2.964-0.073c1.943,2.008,5.148,5.154,8.865,8.175c3.707,3.015,7.968,5.937,12.02,7.457
	c4.196,1.574,9.54,2.161,14.462,2.301c4.935,0.141,9.502-0.167,12.178-0.41C113.565,21.427,114.45,22.143,114.534,23.121z"/>
<path display="none" fill="#F48121" d="M59.184,89.169l0.708-19.435L43.463,80.161l-4.239-7.422l17.311-9.008l-17.311-9.013
	l4.239-7.417l16.429,10.423l-0.708-19.433h8.479l-0.706,19.433l16.429-10.423l4.238,7.417l-17.309,9.013l17.309,9.008l-4.238,7.422
	L66.957,69.734l0.706,19.435H59.184z"/>
</svg>
