<?xml version="1.0" encoding="utf-8"?>
<!-- Generator: Adobe Illustrator 16.0.0, SVG Export Plug-In . SVG Version: 6.00 Build 0)  -->
<!DOCTYPE svg PUBLIC "-//W3C//DTD SVG 1.1//EN" "http://www.w3.org/Graphics/SVG/1.1/DTD/svg11.dtd">
<svg version="1.1" id="Layer_1" xmlns="http://www.w3.org/2000/svg" xmlns:xlink="http://www.w3.org/1999/xlink" x="0px" y="0px"
	 width="512px" height="512px" viewBox="0 0 512 512" enable-background="new 0 0 512 512" xml:space="preserve">
<path fill="#F48220" d="M482.388,391.757L482.388,391.757c3.141,4.146,2.326,10.055-1.819,13.195l-123.11,93.26
	c-4.146,3.141-10.052,2.326-13.191-1.818l0,0c-3.142-4.146-2.327-10.055,1.819-13.196l123.107-93.259
	C473.34,386.798,479.248,387.61,482.388,391.757z"/>
<path fill="none" stroke="#F48220" stroke-width="10" stroke-linecap="round" d="M81.603,11.21l69.876,87.217"/>
<path fill="#F48220" d="M426.521,289.94l17.062,22.52c3.14,4.146,2.325,10.053-1.821,13.195L291.629,439.387
	c-4.146,3.14-10.053,2.326-13.191-1.818l-17.063-22.522c-3.139-4.145-2.324-10.053,1.822-13.192l150.132-113.731
	C417.476,284.979,423.383,285.795,426.521,289.94z"/>
<path fill="none" stroke="#F48220" stroke-width="8" stroke-linecap="round" d="M356.812,241.101l-79.982-106.108
	c-6.448-8.554-18.575-10.236-27.092-3.755l-92.482,70.407c-8.513,6.479-10.186,18.668-3.736,27.223L266.783,379.12l123.309-93.874
	l-33.278-44.148"/>
<path fill="#F48220" d="M196.182,110.643c8.292-6.281,20.104-4.651,26.385,3.64l17.06,22.52l-76.567,58.002l-17.058-22.519
	c-6.284-8.292-4.654-20.106,3.638-26.388L196.182,110.643z"/>
<path fill="#F48220" d="M155.736,82.208c4.146-3.141,10.053-2.326,13.194,1.82l22.746,30.027l-37.534,28.433l-22.745-30.026
	c-3.142-4.146-2.325-10.053,1.821-13.194L155.736,82.208z"/>
<rect x="352.52" y="369.608" transform="matrix(-0.6038 -0.7971 0.7971 -0.6038 295.1259 968.7689)" fill="#F48220" width="71.572" height="82.872"/>
<path fill="#F48220" d="M112.68,128.299c0,22.191-18.13,40.181-40.495,40.181c-22.365,0-40.495-17.99-40.495-40.181
	c0-22.191,40.495-65.293,40.495-65.293S112.68,106.108,112.68,128.299z"/>
<path fill="#F48220" d="M211.947,160.596c0,0,36.45-36.801,48.705-36.06c16.229,0.979,53.432,60.607,53.432,60.607l-51.343,41.4
	L211.947,160.596z"/>
<path fill="#F48220" d="M193.986,276.951c0,0-46.024-52.215-45.318-64.241c0.935-15.923,47.09-38.185,47.09-38.185l48.927,65.691
	L193.986,276.951z"/>
<rect x="299.691" y="214.396" transform="matrix(-0.7971 0.6038 -0.6038 -0.7971 756.4559 274.9468)" fill="#F48220" width="64.688" height="100.333"/>
<rect x="230.541" y="266.533" transform="matrix(-0.7971 0.6038 -0.6038 -0.7971 663.947 411.243)" fill="#F48220" width="64.688" height="101.262"/>
<path fill="#F48220" d="M273.644,278.434c0,0,8.813,5.018,15.06,1.128c7.822-4.878,2.987-14.8,2.987-14.8l59.518,48.239
	l-51.563,39.063L273.644,278.434z"/>
<path fill="#F48220" d="M246.655,205.312c0,0-7.268-6.25-15.055-1.126c-8.363,5.501-2.991,14.798-2.991,14.798l-59.973-47.658
	l51.563-39.061L246.655,205.312z"/>
<path fill="#F48220" d="M294.586,229.988c0,0,8.881-8.185,3.39-15.695c-5.896-8.065-15.948-3.528-15.948-3.528l22.028-40.315
	l39.06,51.563L294.586,229.988z"/>
<path fill="#F48220" d="M225.582,253.96c0,0-8.88,8.183-3.388,15.693c5.894,8.065,15.947,3.528,15.947,3.528l-22.029,40.315
	l-39.059-51.563L225.582,253.96z"/>
</svg>
