<?xml version="1.0" encoding="utf-8"?>
<!-- Generator: Adobe Illustrator 16.0.0, SVG Export Plug-In . SVG Version: 6.00 Build 0)  -->
<!DOCTYPE svg PUBLIC "-//W3C//DTD SVG 1.1//EN" "http://www.w3.org/Graphics/SVG/1.1/DTD/svg11.dtd">
<svg version="1.1" id="Layer_1" xmlns="http://www.w3.org/2000/svg" xmlns:xlink="http://www.w3.org/1999/xlink" x="0px" y="0px"
	 width="512px" height="512px" viewBox="0 0 512 512" enable-background="new 0 0 512 512" xml:space="preserve">
<path display="none" fill="#F0F4FB" d="M508.056,255.348c0,72.442-112.771,131.17-251.883,131.17
	c-139.112,0-251.884-58.728-251.884-131.17c0-72.443-0.001-25.699-0.001-25.699h503.768
	C508.056,229.648,508.056,227.053,508.056,255.348z"/>
<ellipse display="none" fill="#FDFEFF" cx="256.172" cy="232.732" rx="251.883" ry="131.17"/>
<path display="none" fill="#ECECEC" d="M187.837,286.955c2.696-1.663,5.995-2.033,8.992-1.011l43.888,14.96
	c8.51,2.9,9.781,14.407,2.111,19.097l-32.356,19.782c-2.731,1.668-6.07,2.018-9.087,0.945l-43.07-15.3
	c-8.395-2.981-9.6-14.355-2.017-19.029L187.837,286.955z"/>
<path display="none" fill="#ECECEC" d="M151.245,296.797l96.556-2.997v17.321l-96.556,4.775V296.797z"/>
<path display="none" fill="#FBFEFF" d="M187.837,268.651c2.696-1.663,5.995-2.033,8.992-1.011l43.888,14.962
	c8.51,2.899,9.781,14.405,2.111,19.095l-32.356,19.783c-2.731,1.67-6.07,2.017-9.087,0.944l-43.07-15.3
	c-8.395-2.981-9.6-14.354-2.017-19.029L187.837,268.651z"/>
<path display="none" fill="#AFAFB3" d="M248.517,325.375l10.636-0.268l0.425,4.224l-10.373,2.906L248.517,325.375z"/>
<path display="none" fill="#AFAFB3" d="M233.155,326.382l-10.664,0.002l-0.423-4.224l10.399-2.642L233.155,326.382z"/>
<path display="none" fill="#AFAFB3" d="M233.575,317.274l26.003,12.057l-11.084,9.109l-26.002-12.057L233.575,317.274z"/>
<path display="none" fill="#FCFDFD" d="M233.152,313.051l26.001,12.057l-11.083,9.108l-26.002-12.056L233.152,313.051z"/>
<path display="none" fill="#ECECEC" d="M213.316,307.142c0,2.785-4.75,5.04-10.61,5.04s-10.611-2.255-10.611-5.04
	c0-2.784,0-2.917,0-2.917h21.222C213.316,304.225,213.316,305.701,213.316,307.142z"/>
<ellipse fill="#F48220" cx="202.706" cy="303.959" rx="10.61" ry="5.04"/>
<path display="none" fill="#ECECEC" d="M234.538,292.817c0,2.785-4.75,5.04-10.61,5.04c-5.861,0-10.611-2.255-10.611-5.04
	c0-2.784,0-2.917,0-2.917h21.221C234.538,289.9,234.538,291.377,234.538,292.817z"/>
<ellipse fill="#F48220" cx="223.927" cy="289.635" rx="10.61" ry="5.039"/>
<path display="none" fill="#352E30" d="M158.688,297.445c-1.999-0.824-2.224-3.566-0.385-4.705l34.332-21.287
	c0.667-0.414,1.483-0.51,2.228-0.265l18.707,6.169c2.079,0.686,2.48,3.451,0.682,4.699l-33.437,23.201
	c-0.74,0.513-1.69,0.617-2.522,0.272L158.688,297.445z"/>
<ellipse transform="matrix(-0.5631 -0.8264 0.8264 -0.5631 387.2856 514.8326)" display="none" fill="#FFFFFF" cx="329.742" cy="155.035" rx="5.168" ry="4.929"/>
<path display="none" fill="#FDFBFA" d="M187.32,116.417l7.162-13.529l90.985-37.402l76.131,79.58v29.975l-84.884,42.891
	l-89.395-47.136V116.417z"/>
<path display="none" fill="#D0D1D1" d="M194.482,103.153l82.232,84.885v29.444l-88.864-45.891v-55.706L194.482,103.153z"/>
<polygon fill="#F48220" points="337.882,139.619 280.197,165.739 222.05,107.591 282.489,83.72 "/>
<path display="none" fill="#F3F3F4" d="M276.979,188.038l84.619-42.177v30.506l-84.884,41.115L276.979,188.038z"/>
<g display="none">
	<path fill="#800000018000000180000001" d="M219.683,107.1l63.132-24.934l58.093,58.624l-61.01,26.526L219.683,107.1z"/>
	<path display="inline" fill="none" stroke="#3C3638" stroke-width="5" d="M280.197,165.739l-58.147-58.147l60.439-23.872
		l56.112,56.626L280.197,165.739z"/>
</g>
<path display="none" fill="none" stroke="#010101" stroke-width="20" d="M69.954,187.833c0,0-17.717,13.214-17.656,25.245
	c0.04,7.872,2.349,12.859,7.708,18.625c6.353,6.836,13.841,4.77,22.05,9.206c12.342,6.669,15.688,16.346,28.688,21.623
	c15.08,6.12,25.731,7.326,41.532,3.426c12.675-3.129,17.451-10.622,29.328-16.041c8.747-3.989,13.301-9.34,22.908-9.007
	c8.834,0.306,12.139,7.08,20.766,9.007c9.992,2.233,26.218,0,26.218,0"/>
<ellipse transform="matrix(0.1225 -0.9925 0.9925 0.1225 -5.5759 503.5014)" display="none" fill="#3B3C3F" cx="281.958" cy="254.904" rx="29.758" ry="40.888"/>
<ellipse transform="matrix(0.1226 -0.9925 0.9925 0.1226 -4.1149 505.8236)" display="none" fill="#484B51" cx="284.01" cy="255.239" rx="28.137" ry="38.665"/>
<ellipse transform="matrix(0.4927 -0.8702 0.8702 0.4927 -67.6866 386.9353)" display="none" fill="#5C5F67" cx="298.006" cy="251.518" rx="18.203" ry="25.013"/>
<path display="none" fill="#FBFCFC" d="M136.689,119.179c3.414-2.023,7.672-1.97,11.036,0.136l62.813,39.32
	c6.583,4.12,6.654,13.684,0.134,17.901l-68.18,44.117c-3.197,2.068-7.255,2.267-10.637,0.519L59.5,183.768
	c-7.405-3.829-7.708-14.308-0.535-18.555L136.689,119.179z"/>
<path display="none" fill="#DBDADA" d="M90.114,177.195c-7.126-4.322-6.716-14.796,0.727-18.547l58.003-29.234
	c3.227-1.626,7.06-1.498,10.171,0.339L206.842,158c7.002,4.136,6.94,14.288-0.112,18.338l-55.196,31.696
	c-3.351,1.924-7.483,1.874-10.787-0.13L90.114,177.195z"/>
<path display="none" fill="#F1F0F1" d="M134.434,201.708c0.472-3.349,2.51-6.272,5.489-7.871l64.42-34.577
	c3.969-2.13,8.883-1.53,11.655,2.021c2.77,3.549,5.863,8.454,6.959,13.691c1.002,4.789,1.276,10.704,0,15.628
	c-0.969,3.737-3.92,6.488-5.286,7.597c-0.461,0.374-0.979,0.663-1.519,0.91l-69.331,31.791c-7.624,3.495-16.099-2.818-14.93-11.124
	L134.434,201.708z"/>
<path display="none" fill="#9F9FA0" d="M51.848,170.878c3.279-5.326,10.254-6.987,15.581-3.708l62.977,38.763
	c1.103,0.678,2.547,0.105,2.884-1.145l0,0c0.376-1.397,2.092-1.905,3.163-0.929c2.88,2.626,7.614,6.97,9.436,8.791l0,0
	c4.073,4.072,4.69,10.487,1.671,15.391l0,0c-3.691,5.998-11.577,7.92-17.573,4.229l-74.43-45.812
	C50.229,183.18,48.569,176.204,51.848,170.878L51.848,170.878z"/>
<path display="none" fill="#F1F0F1" d="M91.005,175.176c-6.762-4.494-6.177-14.607,1.058-18.292l58.878-29.988
	c3.25-1.656,7.123-1.526,10.254,0.344l48.172,28.753c6.905,4.121,6.895,14.125-0.019,18.232l-57.512,34.163
	c-3.507,2.084-7.896,1.972-11.292-0.286L91.005,175.176z"/>
<path display="none" fill="#5D5D5D" d="M366.394,174.033c3.183,14.058-3.204,60.479-11.409,60.479
	c-8.203,0-24.402-28.383-20.689-62.337c2.653-34.749,35.547-32.096,34.221-28.117C367.189,148.036,363.21,159.974,366.394,174.033z"
	/>
<path display="none" fill="#010101" d="M448.096,174.297c-1.326,3.184-7.162,8.224-14.061,11.407
	c-6.342,2.928-8.488,3.183-16.711,5.04c-0.264,0-0.528-0.002-0.796-0.007c0-1.162-1.117-5.829-9.285-17.766
	c-5.228-7.642-12.563-16.724-24.403-24.139c-19.991-12.52-33.84-2.61-33.868-2.918c-0.058-0.618-0.086-1.237-0.086-1.856
	c14.059-8.224,33.424-19.896,35.811-19.896C409.632,120.979,433.506,141.936,448.096,174.297z"/>
<path display="none" fill="none" stroke="#797979" stroke-width="4" d="M417.857,191.805c-1.061-11.937-32.628-50.135-57.828-48.809
	c-36.343,1.913-24.406,58.094-24.406,58.094c3.349,17.443,12.206,33.688,20.427,33.688"/>
<path display="none" fill="none" stroke="#797979" stroke-width="34" stroke-linecap="round" d="M353.926,188.623
	c0,0-2.403,32.269,19.279,51.519c24.779,21.998,39.933,19.25,39.933,19.25"/>
<path display="none" fill="none" stroke="#5D5D5D" stroke-width="33" stroke-linecap="round" d="M356.578,190.479
	c0,0-0.796,29.445,19.896,48.014c23.646,21.221,37.4,19.364,37.4,19.364"/>
<path display="none" fill="#FBFCFC" d="M400.916,206.427c-0.024-2.917,1.152-5.713,3.255-7.735l2.658-2.556
	c0.629-0.604,1.327-1.128,2.083-1.561l38.579-22.082c0.402-0.23,0.787-0.489,1.201-0.696c1.655-0.83,6.762-2.496,15.318,2.472
	c6.786,3.941,6.526,11.854,6.229,14.501c-0.067,0.595-0.137,1.187-0.152,1.785l-1.439,51.1c-0.082,2.877-1.326,5.598-3.452,7.537
	l-2.086,1.906c-0.459,0.418-0.954,0.796-1.479,1.128l-34.249,21.684c-1.211,0.766-2.563,1.279-3.976,1.509l-6.829,1.106
	c-0.561,0.092-1.129,0.137-1.698,0.137h-1.556c-3.621,0-6.994-1.847-8.942-4.897l-1.328-2.079c-1.074-1.68-1.652-3.63-1.669-5.625
	L400.916,206.427z"/>
<path fill="#F48220" d="M418.494,203.208l36.581-21.449c6.491-3.808,14.633,1.044,14.373,8.567l-1.796,52.071
	c-0.107,3.145-1.76,6.034-4.413,7.725l-35.68,22.736c-6.416,4.088-14.808-0.605-14.679-8.214l0.895-53.358
	C413.831,207.953,415.619,204.893,418.494,203.208z"/>
<path display="none" fill="none" stroke="#D0D1D1" stroke-width="4" d="M418.494,203.208l36.581-21.449
	c6.491-3.808,14.633,1.044,14.373,8.567l-1.796,52.071c-0.107,3.145-1.76,6.034-4.413,7.725l-35.68,22.736
	c-6.416,4.088-14.808-0.605-14.679-8.214l0.895-53.358C413.831,207.953,415.619,204.893,418.494,203.208z"/>
<ellipse display="none" fill="#E3E3E9" cx="404.591" cy="224.937" rx="5.836" ry="7.958"/>
<ellipse display="none" fill="#B0B0B0" cx="403.265" cy="225.202" rx="4.509" ry="6.101"/>
<path display="none" fill="#E3E3E9" d="M404.591,235.043L404.591,235.043c2.639,0,4.775,2.138,4.775,4.775v15.916
	c0,2.637-2.137,4.775-4.775,4.775l0,0c-2.637,0-4.773-2.138-4.773-4.775v-15.916C399.817,237.181,401.954,235.043,404.591,235.043z"
	/>
<path display="none" fill="#B0B0B0" d="M403.265,237.696L403.265,237.696c1.905,0,3.448,1.544,3.448,3.449v13.793
	c0,1.905-1.543,3.449-3.448,3.449l0,0c-1.904,0-3.447-1.544-3.447-3.449v-13.793C399.817,239.24,401.36,237.696,403.265,237.696z"/>
<path display="none" fill="#010101" d="M415.613,180.235l30.108-10.94c0,0,1.376,4.479,4.153,3.955
	c3.313-0.625,6.017,2.189,6.017,2.189l-44.516,23.686c0,0-0.597-4.762,2.164-7.213C417.601,188.305,415.613,180.235,415.613,180.235
	z"/>
<ellipse transform="matrix(-0.1934 -0.9811 0.9811 -0.1934 236.9894 576.1217)" display="none" fill="#9A9999" cx="355.313" cy="190.645" rx="2.585" ry="4.23"/>
<ellipse transform="matrix(-0.193 -0.9812 0.9812 -0.193 228.3113 592.4218)" display="none" fill="#9A9999" cx="357.78" cy="202.321" rx="2.586" ry="4.231"/>
<ellipse transform="matrix(-0.1934 -0.9811 0.9811 -0.1934 221.4577 610.0502)" display="none" fill="#3A3A39" cx="361.494" cy="213.993" rx="2.585" ry="4.23"/>
<path display="none" fill="#FFFFFF" d="M257.805,103.268c-0.957,0.705-1.6,1.726-1.78,2.832c-0.162,0.998-0.02,1.99,0.436,3.022
	c0.118,0.267,0.555,1.005,0.744,1.256c0.733,0.97,1.683,1.785,2.702,2.321c0.614,0.322,1.418,0.637,2.262,0.884
	c0.45,0.133,1.656,0.412,2.188,0.506c1.742,0.31,3.838,0.512,5.671,0.543c0.578,0.01,0.619,0.009,0.644-0.005
	c0.024-0.016,0.341-0.577,0.593-1.054c1.331-2.519,2.141-4.971,2.409-7.291c0.242-2.109,0.013-3.999-0.679-5.567
	c-0.119-0.271-0.559-1.011-0.74-1.249c-0.902-1.171-2.11-1.815-3.5-1.861c-0.449-0.015-1.167,0.083-1.694,0.231
	c-0.539,0.15-0.867,0.293-1.326,0.577c-0.524,0.324-0.85,0.62-1.192,1.083c-0.38,0.51-0.627,1.071-0.796,1.799
	c-0.138,0.594-0.186,1.107-0.159,1.68c0.005,0.126,0.008,0.231,0.006,0.233c-0.003,0.001-0.069-0.029-0.147-0.068
	c-0.413-0.205-0.948-0.391-1.513-0.525c-0.662-0.157-1.243-0.209-1.833-0.165c-0.669,0.05-1.198,0.198-1.771,0.492
	C258.081,103.07,258.037,103.099,257.805,103.268z M266.802,98.845c0.079-0.037,0.151-0.065,0.162-0.063
	c0.014,0.004,0.244,0.597,0.24,0.619c-0.001,0.005-0.074,0.042-0.163,0.084c-0.205,0.096-0.666,0.402-0.826,0.547
	c-0.79,0.715-1.015,1.617-0.654,2.604c0.042,0.115,0.053,0.161,0.034,0.172c-0.05,0.032-0.571,0.237-0.591,0.232
	c-0.031-0.005-0.127-0.276-0.193-0.557c-0.121-0.502-0.125-0.914-0.016-1.384c0.098-0.426,0.253-0.75,0.525-1.103
	C265.676,99.534,266.205,99.123,266.802,98.845z M258.979,103.889c0.03,0.052,0.275,0.54,0.271,0.542
	c-0.407,0.251-0.646,0.435-0.88,0.677c-0.363,0.375-0.578,0.758-0.686,1.213c-0.114,0.493-0.073,0.958,0.134,1.499
	c0.055,0.146,0.241,0.535,0.3,0.63c0.011,0.017-0.241,0.175-0.44,0.277l-0.139,0.072l-0.104-0.188
	c-0.271-0.5-0.424-0.98-0.475-1.484c-0.09-0.91,0.225-1.764,0.915-2.484c0.264-0.274,0.496-0.463,0.845-0.685l0.218-0.138
	L258.979,103.889z"/>
<path display="none" fill="none" stroke="#FFFFFF" stroke-width="3" d="M287.268,142.514c0,0-0.209-4.483,3.98-7.162
	c4.189-2.681,8.222-0.531,8.222-0.531"/>
<path display="none" fill="none" stroke="#FFFFFF" stroke-width="3" d="M278.248,141.188c0,0-2.122-9.55,7.693-14.324
	c9.815-4.775,15.65,0,15.65,0"/>
<path display="none" fill="none" stroke="#FFFFFF" stroke-width="3" d="M268.168,140.392c0,0-1.591-12.998,11.408-20.69
	c12.998-7.693,25.198,0,25.198,0"/>
<path display="none" fill="#FFFFFF" d="M458.056,206.028c-1.08,0.354-2.561,1.221-3.614,2.118c-2.267,1.929-3.273,4.179-3.3,7.376
	c-0.019,2.218,0.561,3.508,1.679,3.733c0.729,0.147,2.431-0.47,3.745-1.356c3.075-2.079,4.48-4.665,4.487-8.268
	C461.059,206.639,460.018,205.386,458.056,206.028z M458.45,208.756c0.69,1.147,0.543,3.745-0.314,5.501
	c-0.399,0.824-0.713,1.196-1.473,1.763c-2.36,1.755-3.502,0.979-3.334-2.268c0.124-2.385,1.017-3.995,2.782-5.018
	C457.248,208.076,458.045,208.084,458.45,208.756z M446.414,213.05c-1.08,0.354-2.561,1.222-3.614,2.118
	c-2.267,1.929-3.273,4.178-3.3,7.377c-0.02,2.218,0.561,3.507,1.679,3.733c0.729,0.147,2.433-0.47,3.744-1.356
	c3.076-2.078,4.481-4.664,4.488-8.267C449.417,213.661,448.376,212.408,446.414,213.05z M446.81,215.778
	c0.691,1.148,0.542,3.745-0.313,5.501c-0.403,0.824-0.716,1.198-1.476,1.762c-2.36,1.756-3.502,0.98-3.333-2.266
	c0.123-2.385,1.016-3.996,2.781-5.018C445.606,215.098,446.405,215.106,446.81,215.778z M461.015,222.23
	c-1.316,0.758-1.577,0.973-1.577,1.305c0,0.219,0.032,0.398,0.068,0.398c0.037,0,0.62-0.331,1.298-0.735
	c0.678-0.404,1.302-0.734,1.389-0.734c0.085,0,0.155,0.218,0.155,0.484c0,0.421-0.152,0.59-1.16,1.266
	c-1.444,0.97-1.785,1.558-1.717,2.962l0.049,0.988l1.979-1.177c1.601-0.951,1.981-1.247,1.981-1.544
	c0-0.202-0.044-0.367-0.096-0.367c-0.055,0-0.72,0.369-1.479,0.821c-0.759,0.451-1.414,0.787-1.453,0.747
	c-0.041-0.042-0.026-0.299,0.034-0.574c0.108-0.498,0.354-0.742,1.653-1.654c0.846-0.591,1.183-1.098,1.296-1.945
	c0.094-0.708-0.131-1.152-0.58-1.149C462.709,221.322,461.881,221.731,461.015,222.23z M428.627,223.494l-3.385,2.01l-0.048,0.929
	c-0.026,0.51-0.017,0.929,0.023,0.929c0.037,0,1.188-0.672,2.553-1.492c3.672-2.206,3.858-2.25,3.858-0.91
	c0,1.013-0.382,1.438-2.461,2.737c-2.645,1.656-3.487,2.656-3.847,4.573c-0.168,0.891-0.223,4.235-0.072,4.235
	c0.137,0,8.373-4.915,8.613-5.139c0.134-0.127,0.192-0.499,0.161-1.04l-0.051-0.84l-3.152,1.876
	c-1.733,1.031-3.209,1.876-3.273,1.876c-0.261,0.002-0.108-1.556,0.217-2.238c0.288-0.598,0.58-0.852,1.9-1.644
	c2.064-1.239,3.588-2.749,3.992-3.961c0.389-1.169,0.4-2.901,0.024-3.483c-0.23-0.354-0.403-0.431-0.975-0.431
	C432.108,221.483,431.537,221.765,428.627,223.494z M436.6,223.724l-0.767,0.427v0.967v0.965l0.605-0.365
	c0.978-0.588,1.033-0.68,0.98-1.588l-0.05-0.834L436.6,223.724z M456.164,225.169c-1.316,0.757-1.576,0.972-1.576,1.305
	c0,0.219,0.031,0.398,0.067,0.398c0.037,0,0.62-0.332,1.298-0.735c0.678-0.405,1.302-0.735,1.389-0.735
	c0.085,0,0.157,0.218,0.157,0.485c0,0.421-0.155,0.588-1.162,1.266c-1.444,0.969-1.785,1.558-1.716,2.962l0.048,0.988l1.979-1.177
	c1.601-0.951,1.981-1.248,1.981-1.544c0-0.203-0.044-0.368-0.097-0.368c-0.054,0-0.719,0.369-1.479,0.821
	c-0.759,0.451-1.414,0.788-1.453,0.747c-0.041-0.042-0.027-0.299,0.034-0.574c0.108-0.498,0.354-0.742,1.653-1.654
	c0.846-0.59,1.183-1.098,1.295-1.945c0.095-0.708-0.13-1.151-0.579-1.148C457.858,224.262,457.031,224.671,456.164,225.169z
	 M422.049,227.313l-0.929,0.576v5.532v5.532l1.01-0.625l1.011-0.623l0.042-5.499c0.024-3.023-0.014-5.491-0.081-5.483
	C423.033,226.731,422.562,226.996,422.049,227.313z M436.6,227.877c-0.761,0.489-0.767,0.5-0.767,1.376
	c0,0.487,0.033,0.886,0.074,0.886s0.405-0.203,0.808-0.45l0.733-0.447v-0.94c0-0.517-0.017-0.936-0.039-0.928
	C437.387,227.379,437.023,227.606,436.6,227.877z M451.727,227.7c-1.866,0.935-2.951,3.419-2.241,5.138
	c0.197,0.473,0.317,0.566,0.734,0.566c0.983,0,2.585-1.176,3.181-2.335c0.148-0.287,0.305-1.054,0.344-1.703
	C453.87,227.436,453.261,226.935,451.727,227.7z M452.642,228.658c0.261,0.491,0.197,1.828-0.116,2.457
	c-0.306,0.617-1.197,1.309-1.684,1.309c-0.886,0-0.777-2.407,0.15-3.346C451.738,228.323,452.379,228.16,452.642,228.658z
	 M446.14,231.211c-1.315,0.759-1.576,0.973-1.576,1.305c0,0.22,0.031,0.397,0.067,0.397c0.038,0,0.621-0.331,1.299-0.734
	c0.675-0.403,1.302-0.735,1.388-0.735c0.085,0,0.155,0.219,0.155,0.485c0,0.421-0.152,0.589-1.16,1.266
	c-1.445,0.97-1.785,1.559-1.716,2.963l0.048,0.987l1.979-1.177c1.601-0.951,1.981-1.247,1.981-1.544
	c0-0.201-0.043-0.368-0.096-0.368c-0.055,0-0.72,0.369-1.479,0.821c-0.76,0.451-1.414,0.788-1.456,0.746
	c-0.039-0.04-0.024-0.299,0.036-0.573c0.108-0.498,0.352-0.742,1.653-1.654c0.846-0.591,1.183-1.098,1.296-1.945
	c0.094-0.708-0.131-1.152-0.58-1.149C447.834,230.304,447.008,230.713,446.14,231.211z M437.733,237.509l-1.092,0.669v1.777
	c0,0.978,0.055,1.777,0.124,1.777c0.071,0,0.288-0.114,0.486-0.253c0.326-0.23,0.358-0.391,0.358-1.711
	c0-1.447,0.005-1.458,0.478-1.706c0.771-0.403,0.816-0.345,0.816,1.054v1.303l0.41-0.188c0.401-0.185,0.409-0.218,0.364-1.751
	c-0.046-1.536-0.055-1.565-0.45-1.602C438.988,236.854,438.381,237.11,437.733,237.509z M441.128,238.373
	c-0.346,0.257-0.365,0.687-0.046,1.011c0.209,0.211,0.25,0.191,0.338-0.159c0.054-0.219,0.074-0.548,0.045-0.73
	C441.419,238.208,441.372,238.191,441.128,238.373z M433.451,240.143c-0.92,0.543-1.173,0.773-1.174,1.073l-0.002,0.38l0.607-0.371
	c0.332-0.204,0.765-0.474,0.962-0.599c0.372-0.239,0.694-0.155,0.694,0.177c0,0.107-0.346,0.391-0.768,0.63
	c-1.231,0.699-1.96,1.717-1.736,2.429c0.167,0.529,0.513,0.465,1.919-0.358l1.393-0.817v-1.521c0-1.236-0.048-1.539-0.256-1.62
	C434.712,239.398,434.713,239.398,433.451,240.143z M430.537,240.462c-0.341,0.165-0.365,0.281-0.372,1.826
	c-0.014,2.224-0.176,2.645-1.325,3.416c-0.698,0.47-0.931,0.722-0.931,1.015c0,0.388,0.004,0.388,0.972-0.194
	c1.287-0.776,1.865-1.469,2.085-2.501c0.201-0.943,0.243-3.767,0.056-3.75C430.957,240.28,430.737,240.364,430.537,240.462z
	 M434.539,242.101c0,0.261-0.209,0.497-0.722,0.81c-0.704,0.43-1.026,0.384-0.837-0.117c0.086-0.223,1.191-1.032,1.438-1.052
	C434.485,241.736,434.539,241.898,434.539,242.101z M424.313,244.176l-0.443,0.25l-0.001,2.491c0,1.369,0.065,2.49,0.144,2.49
	c0.08,0,0.3-0.128,0.49-0.286c0.331-0.272,0.346-0.399,0.302-2.742l-0.046-2.456L424.313,244.176z M420.846,246.318
	c-1.868,0.933-2.951,3.417-2.24,5.137c0.194,0.473,0.316,0.566,0.733,0.566c0.983,0,2.585-1.177,3.181-2.335
	c0.147-0.287,0.303-1.054,0.345-1.703C422.987,246.052,422.38,245.551,420.846,246.318z M421.761,247.274
	c0.26,0.491,0.195,1.828-0.115,2.457c-0.308,0.617-1.2,1.309-1.686,1.309c-0.887,0-0.777-2.407,0.151-3.346
	C420.855,246.939,421.496,246.776,421.761,247.274z"/>
<ellipse display="none" fill="#FFFFFF" cx="296.485" cy="141.809" rx="3.401" ry="3.138"/>
</svg>
