<?xml version="1.0" encoding="utf-8"?>
<!-- Generator: Adobe Illustrator 16.0.0, SVG Export Plug-In . SVG Version: 6.00 Build 0)  -->
<!DOCTYPE svg PUBLIC "-//W3C//DTD SVG 1.1//EN" "http://www.w3.org/Graphics/SVG/1.1/DTD/svg11.dtd">
<svg version="1.1" id="Layer_1" xmlns="http://www.w3.org/2000/svg" xmlns:xlink="http://www.w3.org/1999/xlink" x="0px" y="0px"
	 width="512px" height="512px" viewBox="0 0 512 512" enable-background="new 0 0 512 512" xml:space="preserve">
<path fill="#F7F7F7" d="M8.989,337.135c6.66,85.424,65.045,105.676,192.948,102.943c216.08,41.059,266.001-17.52,259.341-102.943
	c-4.795-110.911-142.635-78.343-226.922-128.697C64.604,107.023,2.329,251.71,8.989,337.135z"/>
<ellipse fill="#D6D6D6" cx="270.511" cy="487.818" rx="234.587" ry="12.967"/>
<circle fill="#343434" cx="220.799" cy="95.268" r="5.894"/>
<circle fill="#343434" cx="226.693" cy="94.09" r="5.894"/>
<circle fill="#343434" cx="233.766" cy="94.09" r="5.894"/>
<circle fill="#343434" cx="239.66" cy="102.342" r="5.894"/>
<circle fill="#343434" cx="230.229" cy="101.162" r="5.894"/>
<circle fill="#343434" cx="221.978" cy="102.342" r="5.894"/>
<circle fill="#343434" cx="218.441" cy="109.414" r="5.894"/>
<circle fill="#343434" cx="218.441" cy="117.666" r="5.894"/>
<path fill="#B47F5F" d="M215.048,471.92l9.457,0.002l-0.026,11.789l-9.431-0.02V471.92z"/>
<path fill="#B47F5F" d="M256.871,470.137l10.61,0.588l3.535,10.021c0,0-2.365,3.445-4.714,4.125c-2.474,0.717-6.484-1.18-6.484-1.18
	L256.871,470.137z"/>
<path fill="#B47F5F" d="M178.479,136.527c0,0,12.248-6.276,20.629-8.841c6.087-1.863,15.915-3.536,15.915-3.536
	s2.222-5.541,4.126-8.841c1.816-3.153,2.633-5.191,5.304-7.663c2.202-2.038,3.534-3.566,6.484-4.126
	c2.751-0.522,4.517,0.034,7.073,1.179c2.393,1.073,5.305,4.126,5.305,4.126s-5.907,1.839-8.252,4.715
	c-3.112,3.813,0.102,8.117-2.358,12.377c-2.201,3.809-4.07,6.306-8.252,7.663c-3.066,0.994-8.251,0-8.251,0
	s-5.892,2.995-9.431,5.305c-6.837,4.461-15.915,13.556-15.915,13.556L178.479,136.527z"/>
<path fill="#A5775C" d="M231.527,139.475h15.325c0,0,0.928,11.576,2.357,18.861c0.772,3.944,4.008,8.252,4.008,8.252
	s-7.998,7.485-13.557,7.662c-5.981,0.191-15.207-5.895-15.207-5.895s0.875-9.454,2.358-15.325
	C228.182,147.596,231.527,139.475,231.527,139.475z"/>
<path fill="#B47F5F" d="M265.206,125.365c2.462,9.787,2.436,18.229-6.405,20.452c-8.838,2.223-17.999-3.908-20.46-13.695
	c-2.462-9.786,2.708-19.521,11.548-21.745C258.727,108.154,262.744,115.579,265.206,125.365z"/>
<path fill="#343434" d="M227.401,109.415c3.947-3.711,8.305-1.611,13.557-2.947c2.542-0.648,4.918,0.339,6.484-1.769
	c1.508-2.033,2.374-3.055,3.536-5.304c1.522-2.947-0.559-5.305,2.947-5.305c4.125,0,5.589,2.418,7.662,4.126
	c2.137,1.764,3.82,2.681,4.716,5.305c0.74,2.179,0.772,3.727,0,5.895c-0.561,1.563-1.137,2.414-2.358,3.536
	c-1.826,1.677-3.475,1.828-5.895,2.358c-3.149,0.688-5.21-1.061-8.251,0c-2.051,0.713-3.281,1.317-4.715,2.947
	c-1.499,1.702-1.969,3.072-2.358,5.305c-0.655,3.739,1.248,5.799,2.358,9.431c1,3.272,0.891,5.514,2.947,8.251
	c0.977,1.301,1.354,2.612,2.947,2.947c1.147,0.242,1.851-0.17,2.947-0.589c2.285-0.873,2.645-2.821,4.715-4.125
	c1.306-0.823,2.063-1.301,3.536-1.769c1.333-0.424,2.19-0.978,3.537-0.589c1.104,0.319,1.63,0.875,2.357,1.769
	c1.338,1.646,0.884,3.203,1.179,5.304c0.509,3.647,0.999,5.886,0,9.431c-0.477,1.687-0.609,2.812-1.768,4.126
	c-2.457,2.783-5.721,1.253-9.432,1.179c-3.973-0.08-7.042,0.861-10.019-1.769c-1.629-1.438-1.935-2.795-2.947-4.715
	c-2.483-4.698-2.33-7.966-4.126-12.967c-1.085-3.018-0.278-5.886-2.947-7.663c-1.214-0.807-2.089-1.326-3.537-1.179
	c-1.653,0.167-2.01,1.707-3.536,2.358c-0.67,0.285-1.052,0.469-1.769,0.589c-4.368,0.728-4.561-5.656-5.305-10.02
	C222.907,117.947,223.251,113.314,227.401,109.415z"/>
<path fill="#BE8968" d="M240.838,134.544c0.958,3.788,1.529,8.732-1.541,9.507c-3.07,0.775-8.62-2.914-9.576-6.701
	c-0.958-3.787,0.756-7.485,3.827-8.261C236.617,128.314,239.882,130.756,240.838,134.544z"/>
<path fill="#A5775C" d="M291.646,137.116c0,0,1.894,0.525,2.947,1.179c1.381,0.858,2.092,1.563,2.947,2.947
	c1.35,2.19-0.061,4.228,1.179,6.483c0.553,1.01,0.651,2.071,1.769,2.358c1.425,0.368,1.886-1.333,2.946-2.358
	c2.385-2.308,2.618-4.498,4.716-7.073c2.259-2.777,3.63-4.317,6.483-6.483c2.546-1.934,3.933-3.518,7.073-4.126
	c1.806-0.35,4.715,0,4.715,0s-2.563,11.015-5.305,17.682c-3.097,7.527-10.02,18.272-10.02,18.272s4.514,10.23,6.483,17.093
	c1.94,6.769,3.536,17.682,3.536,17.682h-17.683c0,0,0.142-10.812-0.59-17.682c-0.595-5.569-2.356-14.146-2.356-14.146
	s-4.443-4.955-5.895-8.841c-1.619-4.333-0.585-7.2-1.179-11.788C292.844,143.925,291.646,137.116,291.646,137.116z"/>
<path fill="#A4A2A2" d="M231.527,288.008h27.701c0,0-0.538,41.316,0,67.781c0.563,27.641-0.092,43.25,2.947,70.73
	c1.47,13.305,4.686,32.023,6.222,40.67c0.522,2.939-0.916,5.305-0.916,5.305l-8.253,1.768h-4.125l-2.357-5.305
	c0,0-10.289-36.721-14.735-60.709c-4.695-25.322-7.239-39.693-8.252-65.426C228.915,321.422,231.527,288.008,231.527,288.008z"/>
<path fill="#BAB9B9" d="M205.172,288.008h27.703c0,0,0.42,37.723-1.348,65.424c-1.762,27.59-4.126,94.307-5.895,119.063
	c-0.094,1.314-2.357,2.357-2.357,2.357h-7.663l-1.768-1.768l-1.179-3.537c0,0-5.452-37.002-7.66-61.299
	c-2.947-32.418-2.951-40.264-2.951-66.016C202.056,321.604,205.172,288.008,205.172,288.008z"/>
<path d="M213.328,482.361c0.299-0.969,1.2-1.615,2.214-1.615h8.466c0.979,0,1.854,0.6,2.188,1.52
	c0.671,1.838,1.773,4.977,2.384,7.32c0.527,2.033,1.02,4.75,1.349,6.746c0.235,1.416-0.865,2.686-2.299,2.686h-14.381
	c-1.299,0-2.352-1.053-2.315-2.354c0.056-2.014,0.197-4.922,0.553-7.078C211.866,487.281,212.756,484.211,213.328,482.361z"/>
<path d="M260.41,478.977h10.02c0,0,9.817,3.197,17.681,7.074c5.634,2.777,17.095,9.43,17.095,9.43l0.59,3.537l-44.206-1.18
	c0,0-2.075-0.748-2.947-1.768c-0.673-0.781-1.179-2.357-1.179-2.357s-0.002-11.199,0.59-12.967
	C258.642,478.977,260.41,478.977,260.41,478.977z"/>
<path display="none" fill="#F48121" d="M198.519,167.766c5.807-2.001,9.277-2.463,15.326-3.536
	c9.787-1.738,11.199-1.769,11.199-1.769s-0.556,9.116,11.199,10.021c15.325,1.179,15.325-8.252,15.325-8.252
	s8.099,0.208,12.967,1.768c6.992,2.24,9.906,2.578,15.205,7.663c5.255,5.038,5.306,10.609,6.603,17.683
	c1.338,7.301,5.186,17.093,5.186,17.093s3.566,6.483,6.014,6.483c2.446,0,2.932-2.579,4.125-4.715
	c1.827-3.272,1.769-9.431,1.769-9.431h18.272c0,0,0.911,8.609,1.179,14.146c0.265,5.537,1.958,12.11,0,19.451
	c-1.754,6.566-2.947,11.077-8.252,15.325c-3.706,2.966-6.493,4.103-11.199,4.715c-6.868,0.892-10.927-1.567-17.093-4.715
	c-6.982-3.564-15.325-12.967-15.325-12.967s-8.259,19.65-10.02,33.006c-1.416,10.725,0,27.703,0,27.703s-18.626,3.154-30.649,2.947
	c-10.193-0.178-25.935-2.947-25.935-2.947s-0.049-22.717-1.769-37.133c-1.833-15.375-7.662-38.902-7.662-38.902
	s-10.984-1.802-17.683-4.126c-10.119-3.511-16.102-5.919-24.166-12.967c-5.039-4.403-8.565-6.816-11.199-12.967
	c-2.552-5.96-3.11-10.163-1.768-16.504c1.456-6.875,4.885-9.966,9.43-15.325c4.538-5.351,8.077-7.406,13.557-11.788
	c5.789-4.63,15.325-11.199,15.325-11.199s6.617,3.011,9.431,6.483c2.397,2.96,4.126,8.841,4.126,8.841s-7.548,5.716-11.788,10.02
	c-2.174,2.206-4.369,2.943-5.305,5.894c-0.984,3.103-1.359,6.213,1.179,8.252c2.958,2.378,5.825-1.168,9.431-2.357
	C190.834,171.918,193.259,169.577,198.519,167.766z"/>
<circle fill="none" stroke="#FFDE2E" stroke-width="11" cx="405.875" cy="104.699" r="59.531"/>
<path fill="#FFDE2E" d="M393.809,74.889c-0.487-6.823,4.917-12.628,11.76-12.628h1.073c6.889,0,12.31,5.881,11.749,12.747
	l-2.96,36.249c-0.404,4.953-4.541,8.767-9.511,8.767l0,0c-5.008,0-9.163-3.869-9.52-8.863L393.809,74.889z"/>
<circle fill="#FFDE2E" cx="406.465" cy="135.938" r="8.841"/>
<linearGradient id="SVGID_1_" gradientUnits="userSpaceOnUse" x1="185.9189" y1="60.5811" x2="180.3995" y2="-11.117" gradientTransform="matrix(1 0 0 -1 -41.6602 348.04)">
	<stop  offset="0" style="stop-color:#D4EA5A"/>
	<stop  offset="1" style="stop-color:#4DABB7"/>
</linearGradient>
<path fill="url(#SVGID_1_)" d="M128.843,299.557c1.387-7.529,8.292-12.646,15.927-12.059l0,0l0,0
	c7.046,0.543,12.621,6.188,12.84,13.25c0.223,7.188,0.32,16.191-0.199,23.195c-0.534,7.199-2.021,16.326-3.365,23.615
	c-1.335,7.238-7.969,12.162-15.307,11.598l0,0c-7.338-0.564-13.14-6.447-13.352-13.805c-0.212-7.408-0.284-16.654,0.29-23.852
	C126.209,314.828,127.574,306.445,128.843,299.557z"/>
<linearGradient id="SVGID_2_" gradientUnits="userSpaceOnUse" x1="231.126" y1="-31.1011" x2="191.8145" y2="-56.1745" gradientTransform="matrix(1 0 0 -1 -41.6602 348.04)">
	<stop  offset="0" style="stop-color:#D4EA5A"/>
	<stop  offset="1" style="stop-color:#4DABB7"/>
</linearGradient>
<path fill="url(#SVGID_2_)" d="M181.579,376.977c1.184-0.037,2.361,0,3.532,0.176c2.318,0.346,6.326,1.23,8.256,3.328
	c2.571,2.795,3.822,5.648,1.77,8.842c-5.307,8.252-17.093,2.945-19.451,10.609c-2.575,8.365-9.375,9.703-14.066,9.547
	c-3.151-0.105-5.805-2.08-7.67-4.625l0,0c-2.31-3.146-3.318-7.123-2.045-10.813c1.451-4.207,4.064-9.596,8.456-12.381
	C166.388,377.84,177.318,377.113,181.579,376.977z"/>
<linearGradient id="SVGID_3_" gradientUnits="userSpaceOnUse" x1="132.8618" y1="-30.1738" x2="177.0672" y2="-60.8225" gradientTransform="matrix(1 0 0 -1 -41.6602 348.04)">
	<stop  offset="0" style="stop-color:#D2E95B"/>
	<stop  offset="1" style="stop-color:#50ACB5"/>
</linearGradient>
<path fill="url(#SVGID_3_)" d="M136.309,412.043c-5.799,7.016-19.184,5.525-29.897-3.33c-10.713-8.854-23.758-23.574-17.959-30.59
	c5.798-7.014,28.244-3.67,38.957,5.188C138.123,392.162,142.107,405.029,136.309,412.043z"/>
<linearGradient id="SVGID_4_" gradientUnits="userSpaceOnUse" x1="216.0405" y1="4.1909" x2="191.8067" y2="-27.722" gradientTransform="matrix(1 0 0 -1 -41.6602 348.04)">
	<stop  offset="0" style="stop-color:#D2E95B"/>
	<stop  offset="1" style="stop-color:#50ADB5"/>
</linearGradient>
<path fill="url(#SVGID_4_)" d="M175.685,359.262c-12.967,5.895-24.753,17.096-24.753,17.096s2.355-26.168,10.018-31.242
	c3.149-4.146,9.447-4.293,13.336-1.34C178.173,346.727,178.835,355.113,175.685,359.262z"/>
<linearGradient id="SVGID_5_" gradientUnits="userSpaceOnUse" x1="203.7959" y1="-26.9756" x2="191.4582" y2="-32.2304" gradientTransform="matrix(1 0 0 -1 -41.6602 348.04)">
	<stop  offset="0" style="stop-color:#D3E95B"/>
	<stop  offset="1" style="stop-color:#4FACB5"/>
</linearGradient>
<path fill="url(#SVGID_5_)" d="M159.958,379.713c-4.747-0.438-10.031,0.861-10.031,0.861s5.026-7.215,8.096-7.418
	c1.603-0.682,3.457,0.32,4.097,1.824C162.762,376.484,161.562,379.031,159.958,379.713z"/>
<path fill="none" stroke="#8F8F8F" stroke-linecap="round" d="M141.498,312.08c0,0-1.146,35.611,0,58.379
	c1.149,22.865,5.894,58.324,5.894,58.324"/>
<path fill="none" stroke="#8F8F8F" stroke-linecap="round" d="M161.54,356.904c0,0-12.86,17.682-14.47,34.775
	c-1.362,14.467,0,36.965,0,36.965"/>
<path fill="none" stroke="#8F8F8F" stroke-linecap="round" d="M172.966,386.24c0,0-15.137,4.594-19.089,14.869
	c-5.895,15.326-5.895,27.703-5.895,27.703"/>
<path fill="none" stroke="#8F8F8F" stroke-linecap="round" d="M106.376,384.076c0,0,16.179,10.191,23.924,19.391
	c7.125,8.467,14.205,24.516,14.205,24.516"/>
<path fill="#455A65" d="M126.169,435.24c-0.314-3.451,2.405-6.428,5.87-6.428h29.352c3.529,0,6.268,3.084,5.853,6.588l-5.654,47.844
	c-0.702,5.936-5.731,10.404-11.707,10.404h-7.639c-6.097,0-11.188-4.648-11.74-10.721L126.169,435.24z"/>
<path fill="none" stroke="#687B85" stroke-width="3" stroke-linecap="round" d="M130.3,450.529c0,0,2.503-0.398,4.943-0.486
	c13.348-0.471,3.042,12.248,13.918,14.135c9.443,1.641,11.788-1.865,11.788-1.865"/>
<path fill="none" stroke="#687B85" stroke-width="3" stroke-linecap="round" d="M131.479,464.621c0,0,2.311-0.354,4.563-0.432
	c8.404-0.285,2.808,10.891,12.847,12.568c8.718,1.457,10.882-1.66,10.882-1.66"/>
<circle fill="#343434" cx="264.415" cy="102.342" r="5.894"/>
<circle fill="#343434" cx="238.481" cy="87.017" r="5.894"/>
<circle fill="#343434" cx="240.839" cy="95.268" r="5.894"/>
<circle fill="#343434" cx="249.091" cy="95.268" r="5.894"/>
<circle fill="#343434" cx="246.733" cy="101.162" r="5.894"/>
<circle fill="#343434" cx="246.733" cy="90.553" r="5.894"/>
<circle fill="#343434" cx="254.984" cy="92.911" r="5.894"/>
<circle fill="#343434" cx="262.058" cy="94.09" r="5.894"/>
</svg>
