<?xml version="1.0" encoding="utf-8"?>
<!-- Generator: Adobe Illustrator 16.0.0, SVG Export Plug-In . SVG Version: 6.00 Build 0)  -->
<!DOCTYPE svg PUBLIC "-//W3C//DTD SVG 1.1//EN" "http://www.w3.org/Graphics/SVG/1.1/DTD/svg11.dtd">
<svg version="1.1" id="Layer_1" xmlns="http://www.w3.org/2000/svg" xmlns:xlink="http://www.w3.org/1999/xlink" x="0px" y="0px"
	 width="1024px" height="1024px" viewBox="0 0 1024 1024" enable-background="new 0 0 1024 1024" xml:space="preserve">
<path fill="#0091EA" d="M883.778,210.414c-24.573,3.038-47.816,12.621-65.988,27.205c-23.79,19.097-39.676,45.377-45.789,75.78
	c-2.49,12.361-2.49,35.106,0,47.467c4.542,22.584,15.028,43.943,29.714,60.544c5.794,6.543,5.854,6.748,4.633,14.438
	c-2.499,15.626-3.851,29.283-3.054,30.774c1.063,1.986,0.152,2.255,22.234-6.587l18.072-7.234l6.606,2.638
	c16.015,6.391,27.496,8.468,46.86,8.476c12.771,0.004,16.546-0.268,23.729-1.715c51.895-10.44,90.895-49.444,101.336-101.333
	c2.49-12.361,2.49-35.106,0-47.467c-6.196-30.809-22.462-57.32-47.232-76.992c-14.124-11.216-34.497-20.412-53.686-24.233
	C913.241,210.586,890.887,209.536,883.778,210.414z M918.253,236.11c30.229,6.871,55.622,26.078,69.86,52.844
	c4.321,8.123,6.857,11.996,9.416,22.135c1.854,7.344,3.447,11.889,3.447,25.818c0,13.93-1.594,16.075-3.447,23.418
	c-2.559,10.14-5.095,16.861-9.416,24.985c-12.423,23.355-34.11,41.643-58.94,49.703c-12.211,3.964-16.919,4.633-32.485,4.62
	c-15.787-0.013-21.004-0.845-33.791-5.389c-12.143-4.313-13.054-4.523-15.393-3.559c-19.758,8.154-21.429,8.745-23.274,8.282
	c-2.437-0.611-2.437-0.908-0.022-12.829c2.414-11.896,2.111-13.342-4.268-20.666c-11.61-13.324-18.832-27.296-23.335-45.148
	c-1.853-7.344-3.311-9.489-3.311-23.418c0-13.929,1.458-15.625,3.311-22.969c5.058-20.051,13.562-35.296,27.549-49.393
	c14.739-14.859,35.174-25.682,54.31-28.765c3.129-0.505,6.204-1.041,6.834-1.191C897.325,232.876,913.469,235.023,918.253,236.11z"
	/>
<path fill="#0091EA" d="M884.416,287.549h25.818c4.193,0,7.594,3.4,7.594,7.594v88.844c0,4.194-3.4,7.594-7.594,7.594h-25.818
	c-4.193,0-7.594-3.399-7.594-7.594v-88.844C876.822,290.949,880.223,287.549,884.416,287.549z"/>
<path fill="#0091EA" d="M845.31,352.474v-25.818c0-4.194,3.399-7.594,7.594-7.594h88.844c4.193,0,7.594,3.399,7.594,7.594v25.818
	c0,4.194-3.4,7.593-7.594,7.593h-88.844C848.709,360.067,845.31,356.668,845.31,352.474z"/>
<path fill="#0091EA" d="M11.43,578.382c-2.124,0-3.928-0.729-5.415-2.188c-1.38-1.568-2.07-3.477-2.07-5.719V454.919
	c0-2.354,0.69-4.262,2.07-5.719c1.486-1.458,3.291-2.187,5.415-2.187c2.973,0,5.202,1.401,6.688,4.205L69.629,533.2h-5.695
	l50.372-81.981c1.592-2.804,3.822-4.205,6.688-4.205c2.123,0,3.875,0.729,5.255,2.187c1.486,1.457,2.229,3.364,2.229,5.719v115.557
	c0,2.242-0.744,4.15-2.229,5.719c-1.486,1.458-3.238,2.188-5.255,2.188c-2.123,0-3.928-0.729-5.414-2.188
	c-1.381-1.568-2.071-3.477-2.071-5.719v-88.911h1.681l-39.866,66.823c-1.593,2.69-4.556,6.454-8.733,6.454
	c-4.176,0-8.112-3.201-9.492-6.454l-41.005-66.823h2.819v88.911c0,2.242-0.743,4.15-2.229,5.719
	C15.305,577.652,13.553,578.382,11.43,578.382z"/>
<path fill="#0091EA" d="M179.837,578.382c-2.248,0-4.158-0.73-5.731-2.191c-1.461-1.574-2.191-3.484-2.191-5.731V454.646
	c0-2.359,0.73-4.271,2.191-5.731c1.574-1.461,3.484-2.191,5.731-2.191h77.377c2.248,0,4.102,0.73,5.563,2.191
	c1.461,1.349,2.191,3.147,2.191,5.395c0,2.023-0.73,3.765-2.191,5.226c-1.461,1.349-3.315,2.023-5.563,2.023h-69.454v43.156h50.067
	c2.36,0,4.214,0.729,5.563,2.19c1.461,1.35,2.191,3.091,2.191,5.227s-0.73,3.933-2.191,5.394c-1.349,1.349-3.203,2.023-5.563,2.023
	h-50.067v43.998h69.454c2.248,0,4.102,0.73,5.563,2.191c1.461,1.349,2.191,3.035,2.191,5.058c0,2.247-0.73,4.103-2.191,5.563
	c-1.461,1.348-3.315,2.022-5.563,2.022H179.837z M219.959,432.395c-2.135,0-3.99-0.73-5.563-2.192
	c-1.46-1.572-2.191-3.427-2.191-5.562c0-2.136,0.618-3.878,1.854-5.227l17.532-17.531c1.46-1.461,3.259-2.192,5.394-2.192
	c2.36,0,4.271,0.787,5.731,2.36c1.461,1.461,2.192,3.315,2.192,5.563c0,1.011-0.169,1.967-0.506,2.866
	c-0.337,0.898-0.899,1.741-1.686,2.527l-17.363,17.364C224.004,431.72,222.207,432.395,219.959,432.395z"/>
<path fill="#0091EA" d="M310.446,578.382c-2.248,0-4.158-0.73-5.731-2.191c-1.461-1.574-2.191-3.484-2.191-5.731V454.646
	c0-2.359,0.73-4.271,2.191-5.731c1.573-1.461,3.484-2.191,5.731-2.191h30.513c9.665,0,18.431,1.629,26.298,4.889
	c7.979,3.146,14.891,7.698,20.735,13.654c5.844,5.845,10.339,12.756,13.486,20.735c3.259,7.979,4.889,16.801,4.889,26.466
	c0,9.666-1.63,18.544-4.889,26.636c-3.146,7.979-7.642,14.946-13.486,20.903c-5.844,5.845-12.756,10.396-20.735,13.654
	c-7.867,3.147-16.633,4.721-26.298,4.721H310.446z M318.369,564.222h22.59c9.777,0,18.375-2.192,25.792-6.575
	c7.53-4.495,13.43-10.62,17.7-18.374c4.383-7.868,6.575-16.802,6.575-26.805c0-10.114-2.191-19.049-6.575-26.803
	c-4.271-7.755-10.17-13.823-17.7-18.206c-7.417-4.383-16.015-6.575-25.792-6.575h-22.59V564.222z"/>
<path fill="#0091EA" d="M9.584,732.531c-1.833,0-3.344-0.597-4.536-1.787c-1.191-1.283-1.787-2.841-1.787-4.674v-94.422
	c0-1.926,0.595-3.484,1.787-4.674c1.191-1.192,2.703-1.787,4.536-1.787c2.016,0,3.711,0.779,5.085,2.336l62.124,82.329v-78.204
	c0-1.926,0.596-3.484,1.787-4.674c1.283-1.192,2.841-1.787,4.673-1.787c1.832,0,3.344,0.595,4.536,1.787
	c1.191,1.189,1.787,2.748,1.787,4.674v94.422c0,1.833-0.595,3.391-1.787,4.674c-1.191,1.19-2.704,1.787-4.536,1.787
	c-0.917,0-1.833-0.185-2.749-0.551s-1.649-0.916-2.199-1.648l-62.262-82.329v78.067c0,1.833-0.596,3.391-1.787,4.674
	C13.066,731.935,11.508,732.531,9.584,732.531z"/>
<path fill="#0091EA" d="M131.96,732.531c-2.382,0-4.169-1.009-5.36-3.024c-1.191-2.016-1.283-4.123-0.275-6.322l39.309-93.6
	c1.191-2.932,3.207-4.397,6.047-4.397c3.024,0,5.085,1.466,6.185,4.397l39.446,93.874c0.917,2.199,0.733,4.261-0.55,6.186
	c-1.191,1.924-2.978,2.887-5.36,2.887c-1.191,0-2.336-0.322-3.436-0.963c-1.1-0.734-1.924-1.741-2.474-3.023l-35.598-87.414h3.986
	l-35.873,87.414c-0.55,1.374-1.375,2.382-2.474,3.023C134.434,732.209,133.243,732.531,131.96,732.531z M139.932,708.203
	l5.085-10.857h54.565l4.948,10.857H139.932z"/>
<path fill="#0091EA" d="M302.073,732.531c-1.832,0-3.39-0.597-4.673-1.787c-1.191-1.283-1.787-2.841-1.787-4.674v-94.422
	c0-1.926,0.595-3.484,1.787-4.674c1.283-1.192,2.841-1.787,4.673-1.787c1.924,0,3.482,0.595,4.673,1.787
	c1.191,1.189,1.787,2.748,1.787,4.674v40.819h65.01v-40.819c0-1.926,0.596-3.484,1.787-4.674c1.282-1.192,2.841-1.787,4.673-1.787
	c1.924,0,3.482,0.595,4.672,1.787c1.192,1.189,1.788,2.748,1.788,4.674v94.422c0,1.833-0.596,3.391-1.788,4.674
	c-1.19,1.19-2.749,1.787-4.672,1.787c-1.833,0-3.391-0.597-4.673-1.787c-1.191-1.283-1.787-2.841-1.787-4.674v-42.194h-65.01v42.194
	c0,1.833-0.596,3.391-1.787,4.674C305.555,731.935,303.997,732.531,302.073,732.531z"/>
<path fill="#0091EA" d="M463.689,733.904c-8.063,0-15.439-1.329-22.128-3.985c-6.689-2.748-12.462-6.597-17.318-11.544
	c-4.765-4.949-8.521-10.768-11.27-17.456c-2.658-6.689-3.986-14.064-3.986-22.129c0-7.972,1.328-15.301,3.986-21.991
	c2.749-6.688,6.505-12.507,11.27-17.455c4.856-4.947,10.629-8.75,17.318-11.408c6.689-2.748,14.065-4.123,22.128-4.123
	c7.972,0,15.301,1.375,21.991,4.123c6.688,2.658,12.46,6.461,17.317,11.408c4.855,4.948,8.613,10.767,11.271,17.455
	c2.749,6.69,4.123,14.02,4.123,21.991c0,8.064-1.374,15.439-4.123,22.129c-2.657,6.688-6.415,12.507-11.271,17.456
	c-4.857,4.947-10.629,8.796-17.317,11.544C478.991,732.575,471.661,733.904,463.689,733.904z M463.689,722.086
	c6.139,0,11.774-1.101,16.905-3.299c5.131-2.199,9.576-5.224,13.332-9.072c3.849-3.94,6.781-8.521,8.796-13.744
	c2.107-5.313,3.161-11.04,3.161-17.181c0-6.14-1.054-11.82-3.161-17.042c-2.016-5.224-4.948-9.805-8.796-13.745
	c-3.756-3.939-8.201-6.964-13.332-9.071c-5.131-2.199-10.767-3.298-16.905-3.298c-6.139,0-11.775,1.099-16.906,3.298
	c-5.131,2.107-9.575,5.132-13.332,9.071c-3.757,3.94-6.69,8.521-8.796,13.745c-2.108,5.222-3.162,10.902-3.162,17.042
	c0,6.141,1.053,11.867,3.162,17.181c2.106,5.224,5.04,9.804,8.796,13.744c3.756,3.849,8.201,6.873,13.332,9.072
	C451.915,720.985,457.55,722.086,463.689,722.086z"/>
<path fill="#0091EA" d="M559.494,732.531c-1.832,0-3.391-0.597-4.673-1.787c-1.192-1.283-1.787-2.841-1.787-4.674v-94.422
	c0-1.926,0.595-3.484,1.787-4.674c1.282-1.192,2.841-1.787,4.673-1.787h25.151c6.781,0,12.783,1.42,18.006,4.262
	c5.314,2.84,9.438,6.779,12.37,11.82c3.023,5.038,4.535,10.857,4.535,17.454c0,6.23-1.512,11.773-4.535,16.631
	c-2.933,4.855-7.056,8.659-12.37,11.407c-5.223,2.749-11.225,4.123-18.006,4.123h-18.691v35.186c0,1.833-0.596,3.391-1.787,4.674
	C562.976,731.935,561.418,732.531,559.494,732.531z M616.671,732.531c-1.192,0-2.245-0.23-3.161-0.688
	c-0.917-0.549-1.742-1.373-2.475-2.474l-25.29-40.684l12.646-3.572l23.365,37.521c1.558,2.475,1.787,4.766,0.687,6.873
	C621.343,731.522,619.42,732.531,616.671,732.531z M565.954,678.79h18.691c4.399,0,8.247-0.824,11.546-2.474
	c3.391-1.741,6.048-4.123,7.972-7.146c1.924-3.116,2.887-6.598,2.887-10.446c0-4.215-0.963-7.926-2.887-11.134
	c-1.924-3.298-4.581-5.818-7.972-7.558c-3.299-1.833-7.146-2.75-11.546-2.75h-18.691V678.79z"/>
<path fill="#0091EA" d="M666.545,732.531c-2.382,0-4.169-1.009-5.359-3.024c-1.191-2.016-1.283-4.123-0.275-6.322l39.309-93.6
	c1.191-2.932,3.207-4.397,6.047-4.397c3.024,0,5.086,1.466,6.186,4.397l39.446,93.874c0.917,2.199,0.733,4.261-0.55,6.186
	c-1.191,1.924-2.979,2.887-5.36,2.887c-1.191,0-2.336-0.322-3.437-0.963c-1.099-0.734-1.923-1.741-2.474-3.023l-35.598-87.414h3.986
	l-35.873,87.414c-0.55,1.374-1.374,2.382-2.474,3.023C669.02,732.209,667.828,732.531,666.545,732.531z M674.518,708.203
	l5.085-10.857h54.564l4.948,10.857H674.518z"/>
<path fill="#0091EA" d="M457.001,578.382c-2.248,0-4.158-0.73-5.731-2.191c-1.461-1.574-2.191-3.484-2.191-5.731V454.646
	c0-2.359,0.73-4.271,2.191-5.731c1.574-1.461,3.484-2.191,5.731-2.191c2.36,0,4.271,0.73,5.731,2.191
	c1.462,1.461,2.192,3.372,2.192,5.731v115.813c0,2.247-0.73,4.157-2.192,5.731C461.272,577.651,459.362,578.382,457.001,578.382z"/>
<path fill="#0091EA" d="M567.311,580.067c-9.104,0-17.645-1.686-25.624-5.058c-7.867-3.484-14.778-8.316-20.735-14.498
	c-5.844-6.18-10.452-13.373-13.823-21.577c-3.371-8.203-5.057-17.026-5.057-26.467c0-9.327,1.629-18.037,4.888-26.129
	c3.372-8.203,8.036-15.396,13.992-21.577c5.957-6.182,12.868-11.014,20.735-14.498c7.866-3.483,16.407-5.226,25.624-5.226
	c8.428,0,15.846,1.18,22.252,3.539c6.405,2.248,12.755,5.957,19.049,11.127c0.898,0.674,1.518,1.461,1.854,2.36
	c0.449,0.786,0.618,1.629,0.506,2.528c0,0.786-0.169,1.573-0.506,2.359c-0.112,1.686-0.843,3.035-2.192,4.047
	c-1.235,1.012-2.753,1.573-4.551,1.685c-1.686,0-3.371-0.617-5.057-1.854c-4.271-3.708-8.767-6.519-13.487-8.429
	c-4.72-1.911-10.676-2.866-17.868-2.866c-6.855,0-13.318,1.405-19.387,4.215c-5.956,2.81-11.238,6.631-15.847,11.463
	c-4.607,4.833-8.203,10.452-10.788,16.858c-2.586,6.405-3.877,13.204-3.877,20.396c0,7.418,1.291,14.33,3.877,20.736
	c2.585,6.292,6.181,11.912,10.788,16.856c4.608,4.834,9.891,8.598,15.847,11.296c6.068,2.696,12.531,4.046,19.387,4.046
	c5.956,0,11.574-0.955,16.856-2.867c5.282-2.023,10.283-4.832,15.004-8.429c1.798-1.348,3.597-1.91,5.395-1.685
	c1.798,0.111,3.315,0.843,4.552,2.19c1.236,1.237,1.854,2.979,1.854,5.227c0,1.012-0.169,2.023-0.506,3.034
	c-0.337,0.899-0.956,1.741-1.854,2.529c-5.844,5.057-12.307,8.765-19.387,11.124C582.257,578.888,574.952,580.067,567.311,580.067z"
	/>
<path fill="#0091EA" d="M703.57,580.067c-9.89,0-18.937-1.629-27.142-4.889c-8.204-3.371-15.284-8.092-21.24-14.161
	c-5.845-6.068-10.451-13.204-13.823-21.408c-3.26-8.205-4.889-17.252-4.889-27.142c0-9.776,1.629-18.767,4.889-26.972
	c3.372-8.204,7.979-15.341,13.823-21.409c5.956-6.068,13.036-10.733,21.24-13.992c8.205-3.371,17.252-5.057,27.142-5.057
	c9.777,0,18.768,1.686,26.973,5.057c8.203,3.259,15.283,7.924,21.24,13.992c5.956,6.068,10.563,13.205,13.824,21.409
	c3.371,8.205,5.058,17.195,5.058,26.972c0,9.89-1.687,18.937-5.058,27.142c-3.261,8.204-7.868,15.34-13.824,21.408
	c-5.957,6.069-13.037,10.79-21.24,14.161C722.338,578.438,713.348,580.067,703.57,580.067z M703.57,565.569
	c7.529,0,14.441-1.348,20.734-4.046c6.294-2.696,11.744-6.405,16.352-11.125c4.721-4.833,8.316-10.452,10.789-16.858
	c2.585-6.518,3.878-13.542,3.878-21.072c0-7.529-1.293-14.497-3.878-20.902c-2.473-6.405-6.068-12.025-10.789-16.858
	c-4.607-4.832-10.058-8.541-16.352-11.126c-6.293-2.697-13.205-4.046-20.734-4.046c-7.53,0-14.441,1.349-20.735,4.046
	c-6.293,2.585-11.744,6.294-16.352,11.126c-4.608,4.833-8.204,10.453-10.789,16.858s-3.877,13.373-3.877,20.902
	c0,7.53,1.292,14.555,3.877,21.072c2.585,6.406,6.181,12.025,10.789,16.858c4.607,4.72,10.059,8.429,16.352,11.125
	C689.129,564.222,696.04,565.569,703.57,565.569z"/>
</svg>
