<?xml version="1.0" encoding="utf-8"?>
<!-- Generator: Adobe Illustrator 16.0.0, SVG Export Plug-In . SVG Version: 6.00 Build 0)  -->
<!DOCTYPE svg PUBLIC "-//W3C//DTD SVG 1.1//EN" "http://www.w3.org/Graphics/SVG/1.1/DTD/svg11.dtd">
<svg version="1.1" id="Layer_1" xmlns="http://www.w3.org/2000/svg" xmlns:xlink="http://www.w3.org/1999/xlink" x="0px" y="0px"
	 width="512px" height="128px" viewBox="0 0 512 128" enable-background="new 0 0 512 128" xml:space="preserve">
<path fill="#0091EA" d="M390.025,5.223c-11.188,1.382-21.771,5.745-30.044,12.386c-10.835,8.696-18.066,20.663-20.851,34.504
	c-1.134,5.627-1.134,15.986,0,21.612c2.068,10.284,6.842,20.01,13.529,27.568c2.64,2.98,2.665,3.073,2.107,6.575
	c-1.135,7.114-1.751,13.333-1.389,14.013c0.485,0.903,0.07,1.025,10.122-2.999l8.234-3.294l3.004,1.201
	c7.294,2.908,12.521,3.855,21.337,3.858c5.817,0.002,7.533-0.123,10.807-0.78c23.629-4.755,41.388-22.514,46.141-46.143
	c1.133-5.626,1.133-15.985,0-21.612c-2.82-14.027-10.227-26.098-21.507-35.056c-6.431-5.107-15.706-9.294-24.443-11.033
	C403.44,5.3,393.264,4.823,390.025,5.223z M405.724,16.923c13.766,3.13,25.326,11.874,31.811,24.061
	c1.966,3.697,3.119,5.463,4.285,10.08c0.847,3.343,1.572,5.412,1.572,11.755s-0.726,7.319-1.572,10.663
	c-1.166,4.617-2.319,7.679-4.285,11.377c-5.659,10.635-15.533,18.961-26.839,22.632c-5.559,1.805-7.702,2.11-14.79,2.103
	c-7.188-0.006-9.564-0.385-15.39-2.452c-5.524-1.965-5.94-2.061-7.005-1.621c-8.999,3.714-9.76,3.98-10.597,3.771
	c-1.111-0.278-1.111-0.413-0.011-5.842c1.1-5.417,0.959-6.074-1.944-9.408c-5.287-6.067-8.576-12.432-10.623-20.56
	c-0.847-3.344-1.51-4.319-1.51-10.663s0.663-7.115,1.51-10.457c2.299-9.13,6.172-16.073,12.541-22.492
	c6.71-6.765,16.018-11.692,24.729-13.097c1.428-0.229,2.825-0.474,3.112-0.542C396.192,15.45,403.544,16.428,405.724,16.923z"/>
<path fill="#0091EA" d="M390.317,40.346h11.756c1.908,0,3.456,1.546,3.456,3.456v40.455c0,1.908-1.548,3.456-3.456,3.456h-11.756
	c-1.91,0-3.458-1.548-3.458-3.456V43.801C386.859,41.892,388.407,40.346,390.317,40.346z"/>
<path fill="#0091EA" d="M372.513,69.906V58.149c0-1.909,1.547-3.456,3.455-3.456h40.452c1.912,0,3.461,1.547,3.461,3.456v11.757
	c0,1.909-1.549,3.458-3.461,3.458h-40.452C374.06,73.364,372.513,71.815,372.513,69.906z"/>
<path fill="#0091EA" d="M60.646,66.966c-0.74,0-1.37-0.253-1.888-0.763c-0.481-0.548-0.722-1.215-0.722-1.996V23.895
	c0-0.82,0.241-1.486,0.722-1.994c0.519-0.509,1.148-0.763,1.888-0.763c1.037,0,1.814,0.489,2.333,1.467l17.97,28.599h-1.986
	l17.571-28.599c0.555-0.978,1.333-1.467,2.333-1.467c0.74,0,1.352,0.254,1.833,0.763c0.52,0.508,0.779,1.174,0.779,1.994v40.312
	c0,0.781-0.259,1.448-0.779,1.996c-0.518,0.51-1.129,0.763-1.833,0.763c-0.741,0-1.37-0.253-1.888-0.763
	c-0.482-0.548-0.723-1.215-0.723-1.996V33.19h0.586L82.936,56.502c-0.555,0.939-1.589,2.252-3.046,2.252
	c-1.457,0-2.83-1.119-3.311-2.252L62.274,33.19h0.983v31.017c0,0.781-0.259,1.448-0.777,1.996
	C61.998,66.713,61.388,66.966,60.646,66.966z"/>
<path fill="#0091EA" d="M119.396,66.966c-0.784,0-1.45-0.255-1.999-0.765c-0.509-0.549-0.765-1.216-0.765-2V23.8
	c0-0.823,0.255-1.489,0.765-1.998c0.549-0.509,1.215-0.765,1.999-0.765h26.992c0.784,0,1.432,0.255,1.94,0.765
	c0.511,0.469,0.766,1.099,0.766,1.881c0,0.707-0.255,1.314-0.766,1.823c-0.509,0.471-1.156,0.706-1.94,0.706h-24.229v15.054h17.466
	c0.824,0,1.471,0.255,1.94,0.765c0.511,0.473,0.766,1.08,0.766,1.823c0,0.746-0.255,1.373-0.766,1.882
	c-0.47,0.471-1.116,0.707-1.94,0.707h-17.466V61.79h24.229c0.784,0,1.432,0.254,1.94,0.765c0.511,0.471,0.766,1.058,0.766,1.764
	c0,0.784-0.255,1.431-0.766,1.941c-0.509,0.473-1.156,0.706-1.94,0.706H119.396z M133.392,16.039c-0.746,0-1.392-0.254-1.94-0.765
	c-0.51-0.55-0.765-1.196-0.765-1.94c0-0.745,0.215-1.352,0.647-1.823l6.116-6.117c0.511-0.508,1.137-0.764,1.881-0.764
	c0.824,0,1.49,0.274,2.001,0.824c0.509,0.509,0.765,1.157,0.765,1.939c0,0.354-0.06,0.686-0.178,1
	c-0.118,0.314-0.313,0.608-0.587,0.882l-6.058,6.057C134.802,15.803,134.175,16.039,133.392,16.039z"/>
<path fill="#0091EA" d="M164.958,66.966c-0.784,0-1.451-0.255-2.001-0.765c-0.509-0.549-0.763-1.216-0.763-2V23.8
	c0-0.823,0.254-1.489,0.763-1.998c0.55-0.509,1.217-0.765,2.001-0.765h10.644c3.372,0,6.43,0.569,9.174,1.706
	c2.783,1.098,5.194,2.685,7.234,4.763c2.038,2.039,3.605,4.451,4.703,7.233c1.137,2.783,1.707,5.861,1.707,9.231
	c0,3.372-0.57,6.47-1.707,9.294c-1.098,2.782-2.665,5.214-4.703,7.29c-2.04,2.039-4.451,3.628-7.234,4.765
	c-2.744,1.096-5.802,1.646-9.174,1.646H164.958z M167.722,62.025h7.88c3.411,0,6.41-0.763,8.998-2.292
	c2.626-1.569,4.685-3.706,6.174-6.411c1.53-2.745,2.295-5.859,2.295-9.352c0-3.527-0.765-6.644-2.295-9.35
	c-1.489-2.704-3.548-4.822-6.174-6.351c-2.588-1.529-5.587-2.293-8.998-2.293h-7.88V62.025z"/>
<path fill="#0091EA" d="M60.002,120.738c-0.638,0-1.166-0.206-1.582-0.622c-0.416-0.448-0.624-0.991-0.624-1.628V85.547
	c0-0.672,0.208-1.213,0.624-1.631c0.416-0.415,0.943-0.622,1.582-0.622c0.704,0,1.295,0.271,1.775,0.813l21.672,28.723V85.547
	c0-0.672,0.207-1.213,0.623-1.631c0.447-0.415,0.992-0.622,1.63-0.622c0.639,0,1.166,0.207,1.583,0.622
	c0.416,0.418,0.623,0.959,0.623,1.631v32.941c0,0.637-0.207,1.18-0.623,1.628c-0.417,0.416-0.943,0.622-1.583,0.622
	c-0.32,0-0.639-0.063-0.959-0.192c-0.319-0.126-0.575-0.317-0.766-0.573l-21.72-28.721v27.236c0,0.637-0.208,1.18-0.624,1.628
	C61.217,120.532,60.674,120.738,60.002,120.738z"/>
<path fill="#0091EA" d="M102.693,120.738c-0.831,0-1.453-0.35-1.869-1.054c-0.416-0.701-0.448-1.438-0.096-2.206l13.713-32.649
	c0.415-1.024,1.118-1.535,2.109-1.535c1.055,0,1.773,0.511,2.158,1.535l13.76,32.745c0.32,0.768,0.256,1.485-0.192,2.158
	c-0.416,0.672-1.04,1.006-1.869,1.006c-0.416,0-0.816-0.109-1.199-0.334c-0.384-0.257-0.671-0.606-0.863-1.055l-12.418-30.495h1.39
	l-12.514,30.495c-0.191,0.479-0.479,0.831-0.862,1.055C103.556,120.629,103.141,120.738,102.693,120.738z M105.475,112.254
	l1.773-3.789h19.036l1.725,3.789H105.475z"/>
<path fill="#0091EA" d="M162.037,120.738c-0.64,0-1.183-0.206-1.63-0.622c-0.417-0.448-0.624-0.991-0.624-1.628V85.547
	c0-0.672,0.207-1.213,0.624-1.631c0.447-0.415,0.99-0.622,1.63-0.622c0.671,0,1.215,0.207,1.629,0.622
	c0.417,0.418,0.625,0.959,0.625,1.631v14.24h22.678v-14.24c0-0.672,0.207-1.213,0.624-1.631c0.447-0.415,0.99-0.622,1.631-0.622
	c0.67,0,1.213,0.207,1.628,0.622c0.417,0.418,0.624,0.959,0.624,1.631v32.941c0,0.637-0.207,1.18-0.624,1.628
	c-0.415,0.416-0.958,0.622-1.628,0.622c-0.641,0-1.184-0.206-1.631-0.622c-0.417-0.448-0.624-0.991-0.624-1.628v-14.723h-22.678
	v14.723c0,0.637-0.208,1.18-0.625,1.628C163.252,120.532,162.708,120.738,162.037,120.738z"/>
<path fill="#0091EA" d="M218.416,121.219c-2.813,0-5.386-0.464-7.72-1.391c-2.333-0.959-4.348-2.302-6.04-4.027
	c-1.663-1.726-2.974-3.756-3.932-6.089c-0.928-2.332-1.392-4.905-1.392-7.72c0-2.78,0.464-5.337,1.392-7.672
	c0.958-2.333,2.269-4.364,3.932-6.087c1.692-1.727,3.707-3.056,6.04-3.981c2.334-0.958,4.907-1.438,7.72-1.438
	c2.782,0,5.338,0.48,7.672,1.438c2.333,0.926,4.348,2.255,6.04,3.981c1.694,1.723,3.006,3.754,3.933,6.087
	c0.959,2.335,1.438,4.892,1.438,7.672c0,2.814-0.479,5.388-1.438,7.72c-0.927,2.333-2.238,4.363-3.933,6.089
	c-1.692,1.726-3.707,3.068-6.04,4.027C223.754,120.755,221.198,121.219,218.416,121.219z M218.416,117.098
	c2.142,0,4.106-0.385,5.898-1.153c1.789-0.767,3.34-1.82,4.651-3.163c1.342-1.376,2.364-2.975,3.066-4.794
	c0.734-1.855,1.104-3.853,1.104-5.995c0-2.14-0.369-4.123-1.104-5.944c-0.702-1.823-1.725-3.422-3.066-4.796
	c-1.312-1.373-2.862-2.429-4.651-3.162c-1.792-0.771-3.757-1.153-5.898-1.153s-4.106,0.383-5.896,1.153
	c-1.79,0.733-3.342,1.789-4.65,3.162c-1.312,1.374-2.335,2.973-3.068,4.796c-0.738,1.821-1.104,3.805-1.104,5.944
	c0,2.143,0.365,4.14,1.104,5.995c0.733,1.819,1.757,3.418,3.068,4.794c1.309,1.343,2.86,2.396,4.65,3.163
	C214.31,116.713,216.274,117.098,218.416,117.098z"/>
<path fill="#0091EA" d="M251.837,120.738c-0.639,0-1.184-0.206-1.63-0.622c-0.415-0.448-0.622-0.991-0.622-1.628V85.547
	c0-0.672,0.207-1.213,0.622-1.631c0.446-0.415,0.991-0.622,1.63-0.622h8.774c2.365,0,4.46,0.494,6.282,1.485
	c1.852,0.991,3.29,2.366,4.313,4.125c1.056,1.756,1.584,3.787,1.584,6.088c0,2.174-0.528,4.108-1.584,5.802
	c-1.023,1.693-2.462,3.021-4.313,3.979c-1.822,0.959-3.917,1.439-6.282,1.439h-6.521v12.275c0,0.637-0.208,1.18-0.622,1.628
	C253.053,120.532,252.51,120.738,251.837,120.738z M271.783,120.738c-0.416,0-0.782-0.08-1.104-0.239
	c-0.318-0.19-0.606-0.478-0.861-0.861l-8.823-14.193l4.411-1.246l8.15,13.09c0.545,0.862,0.624,1.662,0.24,2.396
	C273.412,120.389,272.743,120.738,271.783,120.738z M254.091,101.992h6.521c1.533,0,2.877-0.286,4.028-0.862
	c1.184-0.606,2.11-1.439,2.781-2.492c0.671-1.088,1.007-2.302,1.007-3.646c0-1.47-0.336-2.765-1.007-3.882
	c-0.671-1.154-1.598-2.031-2.781-2.641c-1.151-0.637-2.495-0.956-4.028-0.956h-6.521V101.992z"/>
<path fill="#0091EA" d="M289.181,120.738c-0.829,0-1.453-0.35-1.868-1.054c-0.415-0.701-0.448-1.438-0.098-2.206l13.715-32.649
	c0.415-1.024,1.117-1.535,2.109-1.535c1.055,0,1.772,0.511,2.155,1.535l13.763,32.745c0.32,0.768,0.255,1.485-0.193,2.158
	c-0.414,0.672-1.039,1.006-1.868,1.006c-0.415,0-0.816-0.109-1.199-0.334c-0.384-0.257-0.672-0.606-0.861-1.055l-12.421-30.495
	h1.391l-12.514,30.495c-0.19,0.479-0.479,0.831-0.863,1.055C290.045,120.629,289.629,120.738,289.181,120.738z M291.963,112.254
	l1.772-3.789h19.036l1.726,3.789H291.963z"/>
<path fill="#0091EA" d="M216.083,66.966c-0.783,0-1.45-0.255-2-0.765c-0.508-0.549-0.764-1.216-0.764-2V23.8
	c0-0.823,0.256-1.489,0.764-1.998c0.55-0.509,1.217-0.765,2-0.765c0.824,0,1.489,0.255,2,0.765s0.765,1.175,0.765,1.998v40.401
	c0,0.784-0.254,1.451-0.765,2C217.572,66.711,216.907,66.966,216.083,66.966z"/>
<path fill="#0091EA" d="M254.564,67.553c-3.176,0-6.154-0.587-8.938-1.764c-2.745-1.213-5.157-2.9-7.233-5.058
	c-2.039-2.156-3.648-4.665-4.822-7.527c-1.179-2.86-1.766-5.939-1.766-9.233c0-3.252,0.569-6.292,1.705-9.115
	c1.178-2.861,2.805-5.371,4.883-7.527c2.076-2.155,4.488-3.842,7.233-5.058c2.743-1.214,5.723-1.821,8.938-1.821
	c2.94,0,5.526,0.411,7.761,1.234c2.235,0.784,4.451,2.078,6.646,3.881c0.313,0.235,0.532,0.509,0.648,0.823
	c0.156,0.276,0.216,0.568,0.176,0.884c0,0.273-0.06,0.548-0.176,0.822c-0.04,0.588-0.295,1.06-0.765,1.412
	c-0.432,0.352-0.961,0.548-1.588,0.588c-0.59,0-1.177-0.216-1.764-0.646c-1.49-1.294-3.059-2.276-4.707-2.942
	c-1.646-0.667-3.723-1-6.231-1c-2.393,0-4.646,0.49-6.763,1.47c-2.078,0.981-3.921,2.313-5.528,4
	c-1.608,1.686-2.862,3.645-3.764,5.88s-1.353,4.606-1.353,7.115c0,2.59,0.451,5,1.353,7.233c0.901,2.196,2.155,4.157,3.764,5.884
	c1.607,1.684,3.45,2.999,5.528,3.938c2.116,0.94,4.37,1.409,6.763,1.409c2.079,0,4.037-0.331,5.88-0.999
	c1.843-0.705,3.587-1.685,5.233-2.94c0.627-0.47,1.257-0.665,1.884-0.587c0.625,0.039,1.155,0.295,1.589,0.763
	c0.429,0.434,0.645,1.042,0.645,1.826c0,0.352-0.06,0.705-0.176,1.057c-0.116,0.314-0.335,0.61-0.648,0.881
	c-2.036,1.766-4.291,3.059-6.762,3.882C259.777,67.142,257.23,67.553,254.564,67.553z"/>
<path fill="#0091EA" d="M302.098,67.553c-3.45,0-6.605-0.567-9.468-1.705c-2.861-1.175-5.332-2.822-7.41-4.94
	c-2.038-2.117-3.646-4.604-4.822-7.468c-1.136-2.861-1.706-6.019-1.706-9.469c0-3.41,0.57-6.544,1.706-9.407
	c1.177-2.862,2.784-5.353,4.822-7.47c2.078-2.116,4.549-3.744,7.41-4.881c2.862-1.176,6.018-1.763,9.468-1.763
	c3.41,0,6.547,0.587,9.409,1.763c2.863,1.137,5.333,2.765,7.409,4.881c2.079,2.117,3.687,4.607,4.824,7.47
	c1.176,2.863,1.763,5.998,1.763,9.407c0,3.45-0.587,6.607-1.763,9.469c-1.138,2.864-2.745,5.352-4.824,7.468
	c-2.076,2.118-4.546,3.765-7.409,4.94C308.645,66.985,305.508,67.553,302.098,67.553z M302.098,62.496
	c2.626,0,5.037-0.471,7.232-1.411c2.197-0.942,4.099-2.235,5.705-3.88c1.646-1.688,2.903-3.648,3.765-5.884
	c0.899-2.272,1.353-4.723,1.353-7.351c0-2.625-0.453-5.055-1.353-7.291c-0.861-2.234-2.118-4.194-3.765-5.881
	c-1.606-1.685-3.508-2.979-5.705-3.881c-2.195-0.941-4.606-1.412-7.232-1.412c-2.627,0-5.038,0.471-7.233,1.412
	c-2.194,0.902-4.096,2.197-5.705,3.881c-1.606,1.687-2.86,3.647-3.763,5.881c-0.903,2.236-1.353,4.666-1.353,7.291
	c0,2.627,0.449,5.079,1.353,7.351c0.902,2.236,2.156,4.196,3.763,5.884c1.609,1.645,3.511,2.938,5.705,3.88
	C297.06,62.025,299.471,62.496,302.098,62.496z"/>
</svg>
