<?xml version="1.0" encoding="utf-8"?>
<!-- Generator: Adobe Illustrator 16.0.0, SVG Export Plug-In . SVG Version: 6.00 Build 0)  -->
<!DOCTYPE svg PUBLIC "-//W3C//DTD SVG 1.1//EN" "http://www.w3.org/Graphics/SVG/1.1/DTD/svg11.dtd">
<svg version="1.1" id="Layer_1" xmlns="http://www.w3.org/2000/svg" xmlns:xlink="http://www.w3.org/1999/xlink" x="0px" y="0px"
	 width="512px" height="512px" viewBox="0 0 512 512" enable-background="new 0 0 512 512" xml:space="preserve">
<path fill="#FFFFFF" d="M441.381,129.835c-12.204,1.509-23.747,6.268-32.772,13.51c-11.814,9.484-19.703,22.535-22.739,37.634
	c-1.237,6.138-1.237,17.435,0,23.574c2.256,11.215,7.463,21.822,14.757,30.067c2.876,3.249,2.907,3.351,2.302,7.17
	c-1.242,7.759-1.913,14.542-1.518,15.283c0.528,0.986,0.076,1.12,11.042-3.271l8.975-3.592l3.282,1.31
	c7.952,3.174,13.654,4.205,23.271,4.209c6.343,0.001,8.218-0.133,11.784-0.853c25.772-5.184,45.142-24.555,50.326-50.323
	c1.236-6.139,1.236-17.436,0-23.574c-3.078-15.3-11.154-28.465-23.457-38.235c-7.014-5.57-17.133-10.137-26.661-12.034
	C456.012,129.92,444.91,129.399,441.381,129.835z M458.501,142.596c15.013,3.412,27.623,12.95,34.694,26.243
	c2.146,4.034,3.404,5.957,4.676,10.993c0.921,3.647,1.712,5.903,1.712,12.821s-0.791,7.984-1.712,11.63
	c-1.271,5.036-2.53,8.374-4.676,12.408c-6.169,11.6-16.941,20.681-29.271,24.684c-6.064,1.968-8.402,2.3-16.133,2.293
	c-7.841-0.006-10.432-0.419-16.78-2.676c-6.031-2.142-6.483-2.246-7.646-1.767c-9.812,4.049-10.643,4.343-11.558,4.113
	c-1.211-0.304-1.211-0.451-0.013-6.371c1.2-5.908,1.049-6.626-2.118-10.263c-5.766-6.618-9.353-13.556-11.589-22.421
	c-0.921-3.646-1.645-4.712-1.645-11.63s0.724-7.76,1.645-11.407c2.512-9.958,6.735-17.529,13.682-24.53
	c7.319-7.379,17.468-12.753,26.972-14.284c1.554-0.252,3.079-0.518,3.394-0.592C448.107,140.99,456.124,142.056,458.501,142.596z"/>
<path fill="#FFFFFF" d="M441.696,168.142h12.823c2.081,0,3.77,1.688,3.77,3.771v44.122c0,2.083-1.688,3.771-3.77,3.771h-12.823
	c-2.081,0-3.771-1.688-3.771-3.771v-44.122C437.926,169.83,439.615,168.142,441.696,168.142z"/>
<path fill="#FFFFFF" d="M422.275,200.384v-12.821c0-2.083,1.689-3.771,3.772-3.771h44.12c2.083,0,3.771,1.688,3.771,3.771v12.821
	c0,2.083-1.688,3.771-3.771,3.771h-44.12C423.965,204.155,422.275,202.467,422.275,200.384z"/>
<path fill="#FFFFFF" d="M8.156,312.574c-1.054,0-1.95-0.362-2.688-1.086c-0.686-0.78-1.028-1.727-1.028-2.84V251.26
	c0-1.168,0.343-2.115,1.028-2.84c0.738-0.723,1.634-1.086,2.688-1.086c1.477,0,2.584,0.696,3.322,2.089l25.582,40.713h-2.829
	l25.016-40.713c0.791-1.393,1.898-2.089,3.322-2.089c1.054,0,1.924,0.363,2.61,1.086c0.738,0.725,1.107,1.672,1.107,2.84v57.389
	c0,1.113-0.37,2.06-1.107,2.84c-0.738,0.724-1.608,1.086-2.61,1.086c-1.055,0-1.951-0.362-2.689-1.086
	c-0.686-0.78-1.028-1.727-1.028-2.84v-44.155h0.834l-19.798,33.186c-0.791,1.337-2.263,3.204-4.337,3.204
	c-2.074,0-4.028-1.589-4.714-3.204l-20.364-33.186h1.4v44.155c0,1.113-0.369,2.06-1.107,2.84
	C10.081,312.212,9.211,312.574,8.156,312.574z"/>
<path fill="#FFFFFF" d="M91.791,312.574c-1.116,0-2.065-0.363-2.847-1.088c-0.726-0.782-1.088-1.73-1.088-2.847v-57.515
	c0-1.172,0.363-2.121,1.088-2.847c0.782-0.725,1.73-1.088,2.847-1.088h38.426c1.117,0,2.038,0.363,2.763,1.088
	c0.726,0.671,1.089,1.563,1.089,2.679c0,1.005-0.363,1.87-1.089,2.596c-0.725,0.67-1.646,1.004-2.763,1.004H95.725v21.433h24.864
	c1.172,0,2.093,0.363,2.763,1.089c0.726,0.67,1.088,1.535,1.088,2.596s-0.363,1.952-1.088,2.678c-0.67,0.67-1.591,1.006-2.763,1.006
	H95.725v21.85h34.492c1.117,0,2.038,0.363,2.763,1.088c0.726,0.67,1.089,1.508,1.089,2.512c0,1.115-0.363,2.037-1.089,2.763
	c-0.725,0.669-1.646,1.005-2.763,1.005H91.791z M111.716,240.075c-1.061,0-1.982-0.363-2.763-1.089
	c-0.725-0.782-1.088-1.702-1.088-2.762s0.307-1.926,0.92-2.595l8.707-8.707c0.725-0.726,1.618-1.089,2.679-1.089
	c1.172,0,2.121,0.391,2.846,1.172c0.726,0.726,1.089,1.647,1.089,2.764c0,0.5-0.083,0.976-0.251,1.423
	c-0.168,0.446-0.447,0.864-0.838,1.254l-8.622,8.623C113.725,239.739,112.832,240.075,111.716,240.075z"/>
<path fill="#FFFFFF" d="M156.653,312.574c-1.116,0-2.065-0.363-2.847-1.088c-0.726-0.782-1.088-1.73-1.088-2.847v-57.515
	c0-1.172,0.362-2.121,1.088-2.847c0.782-0.725,1.73-1.088,2.847-1.088h15.153c4.799,0,9.152,0.81,13.06,2.429
	c3.962,1.563,7.395,3.822,10.297,6.78c2.903,2.902,5.135,6.334,6.698,10.297c1.618,3.962,2.428,8.344,2.428,13.145
	c0,4.8-0.81,9.209-2.428,13.228c-1.563,3.963-3.795,7.423-6.698,10.381c-2.902,2.902-6.334,5.162-10.297,6.781
	c-3.908,1.563-8.261,2.344-13.06,2.344H156.653z M160.588,305.542h11.219c4.855,0,9.125-1.089,12.808-3.265
	c3.74-2.232,6.669-5.275,8.791-9.126c2.177-3.906,3.266-8.344,3.266-13.311c0-5.022-1.089-9.461-3.266-13.312
	c-2.121-3.852-5.051-6.865-8.791-9.042c-3.683-2.177-7.953-3.265-12.808-3.265h-11.219V305.542z"/>
<path fill="#FFFFFF" d="M7.24,389.127c-0.91,0-1.661-0.296-2.253-0.888c-0.591-0.637-0.887-1.409-0.887-2.32v-46.893
	c0-0.956,0.296-1.729,0.887-2.32c0.592-0.592,1.343-0.887,2.253-0.887c1,0,1.843,0.386,2.525,1.16l30.852,40.886v-38.839
	c0-0.956,0.296-1.729,0.888-2.32c0.637-0.592,1.411-0.887,2.32-0.887c0.911,0,1.661,0.295,2.253,0.887
	c0.591,0.592,0.887,1.364,0.887,2.32v46.893c0,0.911-0.296,1.684-0.887,2.32c-0.592,0.592-1.342,0.888-2.253,0.888
	c-0.455,0-0.91-0.092-1.365-0.273c-0.455-0.182-0.818-0.455-1.092-0.818l-30.92-40.886v38.77c0,0.911-0.296,1.684-0.888,2.32
	C8.969,388.831,8.195,389.127,7.24,389.127z"/>
<path fill="#FFFFFF" d="M68.014,389.127c-1.183,0-2.07-0.501-2.662-1.501c-0.592-1.002-0.637-2.049-0.137-3.14l19.521-46.483
	c0.591-1.457,1.593-2.184,3.003-2.184c1.501,0,2.525,0.727,3.072,2.184l19.589,46.619c0.456,1.092,0.364,2.115-0.272,3.071
	c-0.592,0.956-1.479,1.434-2.663,1.434c-0.591,0-1.16-0.159-1.706-0.478c-0.546-0.364-0.956-0.865-1.229-1.502l-17.678-43.411h1.979
	l-17.815,43.411c-0.273,0.683-0.682,1.184-1.229,1.502S68.651,389.127,68.014,389.127z M71.973,377.046l2.525-5.393h27.097
	l2.458,5.393H71.973z"/>
<path fill="#FFFFFF" d="M152.495,389.127c-0.91,0-1.684-0.296-2.321-0.888c-0.592-0.637-0.888-1.409-0.888-2.32v-46.893
	c0-0.956,0.296-1.729,0.888-2.32c0.637-0.592,1.411-0.887,2.321-0.887c0.955,0,1.729,0.295,2.32,0.887
	c0.592,0.592,0.888,1.364,0.888,2.32v20.272h32.285v-20.272c0-0.956,0.296-1.729,0.887-2.32c0.637-0.592,1.411-0.887,2.321-0.887
	c0.955,0,1.729,0.295,2.32,0.887c0.592,0.592,0.888,1.364,0.888,2.32v46.893c0,0.911-0.296,1.684-0.888,2.32
	c-0.591,0.592-1.365,0.888-2.32,0.888c-0.91,0-1.684-0.296-2.321-0.888c-0.591-0.637-0.887-1.409-0.887-2.32v-20.955h-32.285v20.955
	c0,0.911-0.296,1.684-0.888,2.32C154.224,388.831,153.45,389.127,152.495,389.127z"/>
<path fill="#FFFFFF" d="M232.757,389.81c-4.004,0-7.667-0.659-10.99-1.979c-3.322-1.364-6.189-3.276-8.6-5.733
	c-2.366-2.457-4.232-5.346-5.597-8.668c-1.32-3.322-1.979-6.986-1.979-10.99c0-3.959,0.66-7.598,1.979-10.92
	c1.365-3.322,3.231-6.212,5.597-8.669c2.411-2.458,5.278-4.346,8.6-5.666c3.322-1.364,6.985-2.048,10.99-2.048
	c3.958,0,7.598,0.684,10.92,2.048c3.322,1.32,6.188,3.208,8.601,5.666c2.412,2.457,4.278,5.347,5.597,8.669
	c1.365,3.322,2.048,6.961,2.048,10.92c0,4.004-0.683,7.668-2.048,10.99c-1.319,3.322-3.186,6.211-5.597,8.668
	c-2.412,2.457-5.278,4.369-8.601,5.733C240.355,389.15,236.715,389.81,232.757,389.81z M232.757,383.939
	c3.048,0,5.847-0.546,8.395-1.638c2.548-1.093,4.756-2.595,6.621-4.505c1.911-1.957,3.367-4.231,4.369-6.826
	c1.046-2.64,1.57-5.482,1.57-8.532c0-3.049-0.523-5.869-1.57-8.463c-1.001-2.594-2.458-4.87-4.369-6.826
	c-1.865-1.956-4.073-3.459-6.621-4.506c-2.548-1.091-5.347-1.638-8.395-1.638c-3.049,0-5.848,0.547-8.396,1.638
	c-2.548,1.047-4.754,2.55-6.62,4.506c-1.866,1.956-3.322,4.232-4.369,6.826c-1.047,2.594-1.57,5.414-1.57,8.463
	c0,3.05,0.522,5.893,1.57,8.532c1.046,2.595,2.502,4.869,4.369,6.826c1.866,1.91,4.072,3.412,6.62,4.505
	C226.909,383.394,229.708,383.939,232.757,383.939z"/>
<path fill="#FFFFFF" d="M280.335,389.127c-0.91,0-1.684-0.296-2.321-0.888c-0.591-0.637-0.887-1.409-0.887-2.32v-46.893
	c0-0.956,0.296-1.729,0.887-2.32c0.638-0.592,1.411-0.887,2.321-0.887h12.49c3.368,0,6.349,0.704,8.942,2.116
	c2.64,1.409,4.687,3.366,6.143,5.87c1.502,2.502,2.252,5.392,2.252,8.667c0,3.095-0.75,5.847-2.252,8.26
	c-1.456,2.411-3.503,4.301-6.143,5.666c-2.594,1.364-5.574,2.047-8.942,2.047h-9.282v17.474c0,0.911-0.296,1.684-0.888,2.32
	C282.064,388.831,281.29,389.127,280.335,389.127z M308.729,389.127c-0.592,0-1.114-0.113-1.569-0.341
	c-0.456-0.273-0.865-0.683-1.229-1.229l-12.56-20.203l6.279-1.774l11.604,18.634c0.774,1.228,0.888,2.366,0.342,3.413
	C311.05,388.626,310.095,389.127,308.729,389.127z M283.543,362.438h9.282c2.185,0,4.096-0.409,5.733-1.229
	c1.685-0.865,3.004-2.048,3.96-3.55c0.955-1.547,1.434-3.276,1.434-5.188c0-2.093-0.479-3.936-1.434-5.527
	c-0.956-1.639-2.275-2.891-3.96-3.755c-1.638-0.911-3.549-1.365-5.733-1.365h-9.282V362.438z"/>
<path fill="#FFFFFF" d="M333.498,389.127c-1.183,0-2.07-0.501-2.661-1.501c-0.592-1.002-0.638-2.049-0.137-3.14l19.521-46.483
	c0.592-1.457,1.593-2.184,3.003-2.184c1.503,0,2.526,0.727,3.072,2.184l19.59,46.619c0.456,1.092,0.364,2.115-0.272,3.071
	c-0.593,0.956-1.479,1.434-2.663,1.434c-0.591,0-1.16-0.159-1.707-0.478c-0.544-0.364-0.954-0.865-1.228-1.502l-17.679-43.411h1.979
	l-17.814,43.411c-0.272,0.683-0.683,1.184-1.229,1.502C334.727,388.968,334.135,389.127,333.498,389.127z M337.457,377.046
	l2.526-5.393h27.097l2.459,5.393H337.457z"/>
<path fill="#FFFFFF" d="M229.435,312.574c-1.116,0-2.065-0.363-2.846-1.088c-0.726-0.782-1.088-1.73-1.088-2.847v-57.515
	c0-1.172,0.363-2.121,1.088-2.847c0.781-0.725,1.73-1.088,2.846-1.088c1.172,0,2.121,0.363,2.847,1.088
	c0.726,0.726,1.088,1.675,1.088,2.847v57.515c0,1.116-0.363,2.064-1.088,2.847C231.556,312.211,230.607,312.574,229.435,312.574z"/>
<path fill="#FFFFFF" d="M284.217,313.41c-4.521,0-8.763-0.836-12.726-2.51c-3.907-1.73-7.339-4.131-10.297-7.201
	c-2.903-3.068-5.191-6.641-6.865-10.715c-1.675-4.074-2.512-8.455-2.512-13.144c0-4.634,0.809-8.958,2.428-12.978
	c1.674-4.073,3.991-7.646,6.949-10.715c2.958-3.07,6.39-5.469,10.297-7.199c3.906-1.73,8.148-2.596,12.726-2.596
	c4.186,0,7.869,0.586,11.051,1.758c3.181,1.116,6.334,2.957,9.46,5.525c0.446,0.335,0.753,0.725,0.921,1.172
	c0.224,0.391,0.307,0.809,0.251,1.256c0,0.391-0.084,0.781-0.251,1.172c-0.056,0.838-0.419,1.507-1.089,2.009
	c-0.614,0.503-1.367,0.782-2.261,0.837c-0.837,0-1.674-0.307-2.511-0.92c-2.121-1.842-4.354-3.238-6.698-4.186
	c-2.344-0.949-5.301-1.424-8.873-1.424c-3.405,0-6.614,0.697-9.628,2.094c-2.958,1.395-5.581,3.292-7.87,5.691
	c-2.288,2.4-4.074,5.191-5.357,8.373c-1.284,3.182-1.926,6.557-1.926,10.13c0,3.683,0.642,7.116,1.926,10.296
	c1.283,3.126,3.069,5.918,5.357,8.373c2.289,2.4,4.912,4.27,7.87,5.609c3.014,1.339,6.223,2.008,9.628,2.008
	c2.958,0,5.748-0.474,8.371-1.422c2.623-1.006,5.106-2.4,7.451-4.186c0.893-0.67,1.786-0.949,2.68-0.838
	c0.892,0.056,1.646,0.418,2.26,1.088c0.614,0.615,0.921,1.479,0.921,2.596c0,0.502-0.084,1.005-0.251,1.508
	c-0.168,0.445-0.475,0.865-0.921,1.254c-2.902,2.513-6.111,4.354-9.628,5.525C291.639,312.826,288.012,313.41,284.217,313.41z"/>
<path fill="#FFFFFF" d="M351.885,313.41c-4.91,0-9.404-0.809-13.478-2.426c-4.074-1.676-7.591-4.02-10.549-7.033
	c-2.902-3.014-5.19-6.558-6.865-10.633c-1.618-4.073-2.427-8.567-2.427-13.478c0-4.855,0.809-9.32,2.427-13.396
	c1.675-4.074,3.963-7.617,6.865-10.633c2.958-3.014,6.475-5.329,10.549-6.947c4.073-1.675,8.567-2.512,13.478-2.512
	c4.855,0,9.32,0.837,13.396,2.512c4.073,1.618,7.59,3.934,10.547,6.947c2.959,3.016,5.246,6.559,6.867,10.633
	c1.674,4.075,2.511,8.54,2.511,13.396c0,4.91-0.837,9.404-2.511,13.478c-1.621,4.075-3.908,7.619-6.867,10.633
	c-2.957,3.014-6.474,5.357-10.547,7.033C361.205,312.602,356.74,313.41,351.885,313.41z M351.885,306.212
	c3.74,0,7.172-0.67,10.298-2.011c3.127-1.339,5.833-3.18,8.12-5.524c2.344-2.399,4.13-5.19,5.359-8.371
	c1.283-3.237,1.924-6.726,1.924-10.465c0-3.74-0.641-7.2-1.924-10.382c-1.229-3.181-3.016-5.972-5.359-8.371
	c-2.287-2.4-4.993-4.242-8.12-5.525c-3.126-1.34-6.558-2.01-10.298-2.01c-3.738,0-7.171,0.67-10.296,2.01
	c-3.126,1.283-5.832,3.125-8.121,5.525c-2.289,2.399-4.074,5.19-5.358,8.371c-1.284,3.182-1.926,6.642-1.926,10.382
	c0,3.739,0.642,7.228,1.926,10.465c1.284,3.181,3.069,5.972,5.358,8.371c2.289,2.345,4.995,4.186,8.121,5.524
	C344.714,305.542,348.146,306.212,351.885,306.212z"/>
</svg>
