<?xml version="1.0" encoding="utf-8"?>
<!-- Generator: Adobe Illustrator 16.0.0, SVG Export Plug-In . SVG Version: 6.00 Build 0)  -->
<!DOCTYPE svg PUBLIC "-//W3C//DTD SVG 1.1//EN" "http://www.w3.org/Graphics/SVG/1.1/DTD/svg11.dtd">
<svg version="1.1" id="Layer_1" xmlns="http://www.w3.org/2000/svg" xmlns:xlink="http://www.w3.org/1999/xlink" x="0px" y="0px"
	 width="128px" height="128px" viewBox="0 0 128 128" enable-background="new 0 0 128 128" xml:space="preserve">
<rect x="-2" y="-2.495" display="none" fill="#0A0A0A" width="133.5" height="133.167"/>
<path display="none" fill="none" stroke="#C0C0C1" stroke-width="4" stroke-linecap="round" d="M108.914,79.301v23.779
	c0,10.944-8.871,19.815-19.817,19.815H60.124c-5.465,0-10.605-2.569-13.883-6.938l0,0c-0.491-0.659-1.032-1.278-1.612-1.862
	L27.667,97.136L13.797,83.264l0,0c-2.538-2.539-3.963-5.979-3.963-9.567v-49.88C9.833,12.873,18.707,4,29.65,4h27.741"/>
<path display="none" fill="none" stroke="#C0C0C1" stroke-width="4" stroke-linecap="round" d="M56.316,120.906L55.798,95.15
	c-0.217-10.942-9.268-19.634-20.208-19.419l-24.615,0.496"/>
<line fill="none" stroke="#F48121" stroke-width="4" stroke-linecap="round" x1="33.613" y1="23.816" x2="57.391" y2="23.816"/>
<line fill="none" stroke="#F48121" stroke-width="4" stroke-linecap="round" x1="33.613" y1="39.669" x2="57.391" y2="39.669"/>
<line fill="none" stroke="#F48121" stroke-width="4" stroke-linecap="round" x1="33.613" y1="55.521" x2="57.391" y2="55.521"/>
<line fill="none" stroke="#F48121" stroke-width="4" stroke-linecap="round" x1="85.134" y1="31.743" x2="108.914" y2="31.743"/>
<line fill="none" stroke="#F48121" stroke-width="4" stroke-linecap="round" x1="97.023" y1="43.631" x2="97.023" y2="19.853"/>
<circle display="none" fill="none" stroke="#C0C0C1" stroke-width="4" cx="97.023" cy="31.742" r="27.742"/>
</svg>
