<?xml version="1.0" encoding="utf-8"?>
<!-- Generator: Adobe Illustrator 16.0.0, SVG Export Plug-In . SVG Version: 6.00 Build 0)  -->
<!DOCTYPE svg PUBLIC "-//W3C//DTD SVG 1.1//EN" "http://www.w3.org/Graphics/SVG/1.1/DTD/svg11.dtd">
<svg version="1.1" id="Layer_1" xmlns="http://www.w3.org/2000/svg" xmlns:xlink="http://www.w3.org/1999/xlink" x="0px" y="0px"
	 width="128px" height="128px" viewBox="0 0 128 128" enable-background="new 0 0 128 128" xml:space="preserve">
<path display="none" fill="none" stroke="#F48121" stroke-width="4" d="M60.639,115.185c-2.861,2.86-6.814,4.628-11.179,4.628
	H21.847c-8.731,0-15.808-7.072-15.808-15.807v-70.54c0-8.729,7.077-15.808,15.808-15.808h27.613c8.73,0,15.81,7.079,15.81,15.808
	V68.3"/>
<path fill="none" stroke="#F48121" stroke-width="4" stroke-linecap="round" d="M70.325,25.81v-3.303
	c0-5.471-4.435-9.905-9.907-9.905l0,0"/>
<path fill="none" stroke="#F48121" stroke-width="4" stroke-linecap="round" d="M78.729,26.888l0.475-3.267
	c1.303-9.026-4.954-17.399-13.983-18.703l0,0"/>
<circle display="none" fill="#F48121" cx="35.652" cy="106.712" r="4.954"/>
<path fill="none" stroke="#F48121" stroke-width="4" stroke-linecap="round" d="M20.793,50.927l26.418,24.017L33.575,88.548V35.716
	l13.636,15.21L20.793,74.943"/>
<line display="none" fill="none" stroke="#F48121" stroke-width="4" stroke-linecap="round" x1="73.557" y1="58.95" x2="73.557" y2="73.588"/>
<line display="none" fill="none" stroke="#F48121" stroke-width="4" stroke-linecap="round" x1="87.677" y1="58.95" x2="87.677" y2="73.588"/>
<line display="none" fill="none" stroke="#F48121" stroke-width="4" stroke-linecap="round" x1="101.797" y1="58.95" x2="101.797" y2="73.588"/>
<path display="none" fill="none" stroke="#F48121" stroke-width="4" stroke-linecap="round" d="M120.204,94.504V82.823
	c0-9.698-7.863-17.564-17.564-17.564H75.248c-9.698,0-17.563,7.866-17.563,17.564v23.357c0,9.701,7.865,17.563,17.563,17.563h13.698
	"/>
<path display="none" fill="#F48121" d="M71.8,81.396c2.23,0,4.035,1.804,4.035,4.03c0,2.229-1.805,4.034-4.035,4.034
	c-2.226,0-4.033-1.805-4.033-4.034C67.767,83.2,69.574,81.396,71.8,81.396z"/>
<circle fill="#F48121" cx="83.903" cy="85.429" r="4.032"/>
<path fill="#F48121" d="M96.007,81.396c2.226,0,4.033,1.804,4.033,4.03c0,2.229-1.808,4.034-4.033,4.034
	c-2.231,0-4.036-1.805-4.036-4.034C91.971,83.2,93.775,81.396,96.007,81.396z"/>
<path fill="#F48121" d="M108.105,81.396c2.226,0,4.029,1.804,4.029,4.03c0,2.229-1.804,4.034-4.029,4.034
	c-2.228,0-4.036-1.805-4.036-4.034C104.069,83.2,105.878,81.396,108.105,81.396z"/>
<path fill="#F48121" d="M71.8,93.495c2.23,0,4.035,1.804,4.035,4.034c0,2.227-1.805,4.033-4.035,4.033
	c-2.226,0-4.033-1.807-4.033-4.033C67.767,95.299,69.574,93.495,71.8,93.495z"/>
<circle fill="#F48121" cx="83.903" cy="97.529" r="4.034"/>
<path fill="#F48121" d="M71.8,105.598c2.23,0,4.035,1.804,4.035,4.034c0,2.227-1.805,4.034-4.035,4.034
	c-2.226,0-4.033-1.808-4.033-4.034C67.767,107.401,69.574,105.598,71.8,105.598z"/>
<circle fill="#F48121" cx="83.903" cy="109.632" r="4.034"/>
<circle display="none" fill="none" stroke="#F48121" stroke-width="4" cx="106.088" cy="109.63" r="12.362"/>
<line fill="none" stroke="#F48121" stroke-width="4" stroke-linecap="round" x1="105.83" y1="104.723" x2="105.83" y2="111.297"/>
<line fill="none" stroke="#F48121" stroke-width="4" stroke-linecap="round" x1="110.386" y1="111.388" x2="105.83" y2="111.388"/>
</svg>
