<?xml version="1.0" encoding="utf-8"?>
<!-- Generator: Adobe Illustrator 16.0.0, SVG Export Plug-In . SVG Version: 6.00 Build 0)  -->
<!DOCTYPE svg PUBLIC "-//W3C//DTD SVG 1.1//EN" "http://www.w3.org/Graphics/SVG/1.1/DTD/svg11.dtd">
<svg version="1.1" id="Layer_1" xmlns="http://www.w3.org/2000/svg" xmlns:xlink="http://www.w3.org/1999/xlink" x="0px" y="0px"
	 width="128px" height="128px" viewBox="0 0 128 128" enable-background="new 0 0 128 128" xml:space="preserve">
<rect x="-2" y="-2.495" display="none" fill="#0A0A0A" width="133.5" height="133.167"/>
<path display="none" fill="none" stroke="#F48121" stroke-width="4" d="M42.506,17.051h30.68c8.472,0,15.339,6.867,15.339,15.339
	v74.993c0,8.473-6.867,15.34-15.339,15.34h-30.68c-8.471,0-15.339-6.867-15.339-15.34V32.39
	C27.167,23.918,34.035,17.051,42.506,17.051z"/>
<path fill="none" stroke="#F48121" stroke-width="4" stroke-linecap="round" d="M93.637,25.573v-3.409
	c0-5.647-4.58-10.226-10.226-10.226l0,0"/>
<path fill="none" stroke="#F48121" stroke-width="4" stroke-linecap="round" d="M102.313,26.687l0.486-3.374
	c1.349-9.315-5.113-17.959-14.427-19.306l0,0"/>
<circle display="none" fill="#F48121" cx="57.846" cy="109.087" r="5.113"/>
<path fill="none" stroke="#F48121" stroke-width="4" stroke-linecap="round" d="M42.506,51.5l27.271,24.792L55.702,90.339v-54.54
	L69.776,51.5L42.506,76.292"/>
</svg>
