<?xml version="1.0" encoding="utf-8"?>
<!-- Generator: Adobe Illustrator 16.0.0, SVG Export Plug-In . SVG Version: 6.00 Build 0)  -->
<!DOCTYPE svg PUBLIC "-//W3C//DTD SVG 1.1//EN" "http://www.w3.org/Graphics/SVG/1.1/DTD/svg11.dtd">
<svg version="1.1" id="Layer_1" xmlns="http://www.w3.org/2000/svg" xmlns:xlink="http://www.w3.org/1999/xlink" x="0px" y="0px"
	 width="1024px" height="1024px" viewBox="0 0 1024 1024" enable-background="new 0 0 1024 1024" xml:space="preserve">
<g transform="translate(-510 -315)">
	<path fill="#DF3594" d="M1281.111,679.693c-0.889,2.386-1.188,60.564-0.889,129.481c0.889,115.758,1.183,125.904,6.5,136.344
		c6.499,13.427,23.345,25.957,34.867,25.957h8.279v-60.862c0-78.168,3.541-89.803,30.73-103.824
		c21.568-11.338,46.389-3.283,59.395,18.796c5.317,9.248,5.909,16.408,6.797,77.868l0.885,68.022h7.682
		c10.937,0,26.009-10.438,33.982-23.271c6.503-10.443,6.8-13.727,6.8-70.707c0-59.372,0-59.671-8.274-76.676
		c-13.887-28.938-38.416-43.856-71.512-44.156c-23.642,0-36.935,4.178-53.191,16.41l-13.292,10.44v-33.712
		c0-29.835-0.889-35.502-6.804-47.138c-7.091-13.128-17.727-21.482-32.207-25.063
		C1284.95,676.113,1282.294,676.709,1281.111,679.693z"/>
	<path fill="#DF3594" d="M636.322,762.335c-26.891,10.144-49.646,31.326-60.579,56.387c-7.683,17.604-10.342,56.985-5.318,78.466
		c11.229,47.438,48.166,76.973,100.175,79.657c34.572,1.791,73.284-8.354,93.378-24.467c5.911-4.771,5.911-4.771-3.547-13.719
		c-13.002-11.937-21.867-13.728-44.916-8.949c-45.804,9.242-74.17,1.488-89.833-24.467c-4.727-7.758-7.683-15.217-6.501-17.006
		c1.184-2.092,25.414-3.283,72.104-3.283c67.669,0,70.624-0.297,78.604-6.563c7.683-5.969,7.977-7.159,6.795-27.448
		c-1.773-27.746-11.228-48.929-28.959-65.634c-22.458-21.185-35.46-26.555-67.964-27.746
		C657.303,756.666,648.734,757.563,636.322,762.335z M700.446,805c8.865,4.475,15.662,11.038,19.799,18.796
		c12.705,22.673,13.591,22.375-46.1,22.375c-29.254,0-53.78-1.196-54.667-2.388c-0.888-1.493,1.182-8.055,4.431-14.617
		C637.504,801.419,672.078,790.679,700.446,805z"/>
	<path fill="#DF3594" d="M1082.53,760.844c-58.51,18.795-86.877,87.711-62.353,153.048c8.862,23.869,33.394,48.332,56.439,56.988
		c31.62,12.23,76.238,5.965,93.678-12.83c9.453-10.146,11.82-9.252,11.82,2.986c0,9.242,0.885,10.438,7.682,10.438
		c11.817,0,27.188-11.041,33.687-24.166c5.32-10.442,5.912-17.6,5.912-80.553c0-68.322,0-69.516-7.389-81.748
		c-6.8-11.934-19.204-20.585-32.504-22.972c-5.027-0.599-6.206,0.895-6.797,10.143c-0.591,6.266-1.479,11.336-2.366,11.336
		c-0.885,0-6.5-3.877-12.407-8.65C1145.473,757.264,1111.489,751.894,1082.53,760.844z M1152.563,810.667
		c6.503,3.879,15.369,12.233,19.803,18.796c7.384,11.037,8.271,14.918,8.271,37.592c0,22.672-0.889,26.554-8.271,37.592
		c-21.571,32.222-65.31,36.398-92.495,8.949c-24.526-24.463-25.708-63.547-2.657-90.397
		C1095.532,801.419,1127.152,796.347,1152.563,810.667z"/>
	<path fill="#DF3594" d="M787.619,762.634c-1.182,1.79,65.306,160.51,83.331,199.297c4.729,9.847,4.729,9.847,23.937,8.949
		l19.208-0.895l43.732-102.636c24.229-56.386,43.145-103.524,42.554-104.717c-1.771-2.984-29.55,4.176-36.348,9.249
		c-24.524,18.796-29.844,27.447-51.417,84.431c-7.979,21.48-15.662,40.275-16.843,41.47c-1.477,1.492-5.615-5.07-9.16-14.916
		c-30.436-82.045-38.417-96.663-59.692-109.493C813.329,765.319,789.983,758.755,787.619,762.634z"/>
</g>
</svg>
