<?xml version="1.0" encoding="utf-8"?>
<!-- Generator: Adobe Illustrator 16.0.0, SVG Export Plug-In . SVG Version: 6.00 Build 0)  -->
<!DOCTYPE svg PUBLIC "-//W3C//DTD SVG 1.1//EN" "http://www.w3.org/Graphics/SVG/1.1/DTD/svg11.dtd">
<svg version="1.1" id="Layer_1" xmlns="http://www.w3.org/2000/svg" xmlns:xlink="http://www.w3.org/1999/xlink" x="0px" y="0px"
	 width="512px" height="512px" viewBox="0 0 512 512" enable-background="new 0 0 512 512" xml:space="preserve">
<g transform="translate(-510 -315)">
	<path fill="#FFFFFF" d="M911.795,488.493c-0.497,1.336-0.666,33.922-0.497,72.522c0.497,64.836,0.662,70.52,3.641,76.368
		c3.64,7.52,13.075,14.537,19.529,14.537h4.637v-34.088c0-43.783,1.984-50.299,17.213-58.152
		c12.081-6.351,25.982-1.839,33.268,10.527c2.979,5.179,3.309,9.189,3.807,43.613l0.495,38.1h4.303
		c6.125,0,14.567-5.848,19.034-13.033c3.642-5.848,3.809-7.689,3.809-39.604c0-33.254,0-33.421-4.636-42.946
		c-7.777-16.209-21.517-24.564-40.054-24.731c-13.241,0-20.687,2.339-29.793,9.19l-7.445,5.85v-18.884
		c0-16.711-0.497-19.885-3.811-26.402c-3.972-7.353-9.929-12.032-18.039-14.037C913.945,486.488,912.457,486.821,911.795,488.493z"
		/>
	<path fill="#FFFFFF" d="M550.645,534.781c-15.062,5.681-27.806,17.546-33.931,31.582c-4.303,9.86-5.792,31.918-2.979,43.95
		c6.289,26.568,26.978,43.111,56.109,44.615c19.365,1.004,41.047-4.68,52.302-13.703c3.311-2.672,3.311-2.672-1.986-7.684
		c-7.283-6.686-12.248-7.689-25.158-5.014c-25.655,5.178-41.543,0.834-50.316-13.703c-2.647-4.344-4.303-8.523-3.641-9.525
		c0.663-1.172,14.234-1.838,40.385-1.838c37.903,0,39.558-0.168,44.027-3.676c4.303-3.344,4.469-4.012,3.806-15.375
		c-0.993-15.541-6.289-27.406-16.22-36.762c-12.579-11.864-19.862-14.872-38.067-15.54
		C562.396,531.606,557.597,532.108,550.645,534.781z M586.562,558.677c4.965,2.507,8.772,6.182,11.089,10.527
		c7.116,12.7,7.613,12.534-25.82,12.534c-16.386,0-30.123-0.67-30.619-1.338c-0.498-0.836,0.662-4.512,2.482-8.188
		C551.307,556.672,570.672,550.656,586.562,558.677z"/>
	<path fill="#FFFFFF" d="M800.568,533.945c-32.771,10.527-48.66,49.127-34.923,85.723c4.964,13.371,18.704,27.07,31.612,31.92
		c17.711,6.85,42.702,3.34,52.47-7.188c5.295-5.682,6.621-5.182,6.621,1.672c0,5.178,0.495,5.848,4.302,5.848
		c6.619,0,15.228-6.184,18.868-13.535c2.98-5.848,3.312-9.857,3.312-45.117c0-38.268,0-38.936-4.139-45.788
		c-3.809-6.684-10.756-11.53-18.205-12.866c-2.816-0.334-3.479,0.502-3.808,5.682c-0.33,3.509-0.828,6.351-1.325,6.351
		c-0.495,0-3.641-2.174-6.95-4.847C835.823,531.939,816.789,528.931,800.568,533.945z M839.794,561.851
		c3.643,2.172,8.608,6.853,11.092,10.528c4.136,6.182,4.633,8.355,4.633,21.055s-0.497,14.873-4.633,21.057
		c-12.082,18.047-36.58,20.385-51.808,5.014c-13.737-13.703-14.398-35.594-1.488-50.634
		C807.852,556.672,825.562,553.831,839.794,561.851z"/>
	<path fill="#FFFFFF" d="M635.387,534.947c-0.662,1.003,36.578,89.903,46.675,111.627c2.648,5.514,2.648,5.514,13.406,5.014
		l10.759-0.502l24.496-57.486c13.571-31.582,24.165-57.983,23.834-58.653c-0.993-1.67-16.551,2.341-20.359,5.182
		c-13.736,10.527-16.716,15.372-28.799,47.29c-4.469,12.031-8.772,22.561-9.434,23.227c-0.828,0.838-3.145-2.84-5.131-8.354
		c-17.047-45.954-21.517-54.141-33.434-61.329C649.787,536.451,636.711,532.776,635.387,534.947z"/>
</g>
</svg>
