<?xml version="1.0" encoding="utf-8"?>
<!-- Generator: Adobe Illustrator 16.0.0, SVG Export Plug-In . SVG Version: 6.00 Build 0)  -->
<!DOCTYPE svg PUBLIC "-//W3C//DTD SVG 1.1//EN" "http://www.w3.org/Graphics/SVG/1.1/DTD/svg11.dtd">
<svg version="1.1" id="Layer_1" xmlns="http://www.w3.org/2000/svg" xmlns:xlink="http://www.w3.org/1999/xlink" x="0px" y="0px"
	 width="512px" height="128px" viewBox="0 0 512 128" enable-background="new 0 0 512 128" xml:space="preserve">
<g transform="translate(-510 -315)">
	<path fill="#DF3894" d="M873.441,318.329c-0.369,0.99-0.494,25.114-0.369,53.69c0.369,47.999,0.49,52.205,2.695,56.534
		c2.693,5.567,9.678,10.764,14.457,10.764h3.434V414.08c0-32.413,1.467-37.237,12.74-43.051c8.943-4.701,19.236-1.361,24.629,7.793
		c2.205,3.834,2.449,6.803,2.818,32.288l0.365,28.206h3.188c4.533,0,10.783-4.328,14.09-9.649c2.697-4.332,2.818-5.692,2.818-29.318
		c0-24.618,0-24.742-3.43-31.793c-5.758-11.999-15.93-18.185-29.652-18.31c-9.805,0-15.314,1.732-22.055,6.805l-5.512,4.328v-13.978
		c0-12.372-0.369-14.721-2.82-19.546c-2.941-5.444-7.352-8.908-13.355-10.393C875.033,316.846,873.93,317.092,873.441,318.329z"/>
	<path fill="#DF3894" d="M606.081,352.597c-11.15,4.206-20.586,12.989-25.119,23.38c-3.186,7.3-4.288,23.628-2.205,32.537
		c4.656,19.669,19.972,31.916,41.537,33.029c14.335,0.741,30.387-3.464,38.719-10.146c2.451-1.979,2.451-1.979-1.47-5.688
		c-5.392-4.95-9.067-5.691-18.625-3.71c-18.993,3.83-30.754,0.616-37.249-10.146c-1.96-3.218-3.187-6.31-2.696-7.052
		c0.491-0.868,10.538-1.36,29.897-1.36c28.059,0,29.284-0.124,32.593-2.722c3.186-2.475,3.308-2.969,2.817-11.382
		c-0.735-11.504-4.655-20.289-12.007-27.215c-9.313-8.784-14.704-11.011-28.181-11.505
		C614.78,350.247,611.228,350.618,606.081,352.597z M632.669,370.288c3.676,1.855,6.495,4.577,8.209,7.793
		c5.269,9.402,5.635,9.279-19.115,9.279c-12.13,0-22.3-0.496-22.667-0.99c-0.369-0.618,0.49-3.34,1.837-6.062
		C606.571,368.803,620.907,364.35,632.669,370.288z"/>
	<path fill="#DF3894" d="M791.1,351.978c-24.262,7.793-36.024,36.369-25.855,63.461c3.675,9.896,13.847,20.04,23.404,23.629
		c13.109,5.073,31.611,2.475,38.842-5.318c3.92-4.207,4.902-3.837,4.902,1.236c0,3.833,0.367,4.329,3.186,4.329
		c4.898,0,11.271-4.578,13.967-10.021c2.207-4.33,2.451-7.298,2.451-33.4c0-28.33,0-28.824-3.064-33.897
		c-2.818-4.948-7.961-8.535-13.477-9.525c-2.084-0.248-2.574,0.372-2.818,4.206c-0.244,2.6-0.613,4.701-0.98,4.701
		s-2.695-1.607-5.145-3.586C817.199,350.494,803.107,348.268,791.1,351.978z M820.139,372.637c2.695,1.608,6.373,5.073,8.211,7.795
		c3.063,4.576,3.43,6.187,3.43,15.586c0,9.402-0.369,11.011-3.43,15.589c-8.945,13.36-27.082,15.092-38.354,3.709
		c-10.17-10.143-10.658-26.349-1.102-37.482C796.492,368.803,809.602,366.7,820.139,372.637z"/>
	<path fill="#DF3894" d="M668.815,352.721c-0.49,0.742,27.079,66.554,34.553,82.638c1.961,4.083,1.961,4.083,9.925,3.71l7.965-0.37
		l18.133-42.558c10.046-23.38,17.89-42.926,17.645-43.421c-0.734-1.237-12.252,1.732-15.071,3.835
		c-10.169,7.794-12.374,11.381-21.319,35.01c-3.309,8.906-6.494,16.7-6.984,17.195c-0.613,0.618-2.328-2.103-3.798-6.186
		c-12.62-34.019-15.93-40.081-24.752-45.4C679.476,353.834,669.795,351.112,668.815,352.721z"/>
</g>
</svg>
