<?xml version="1.0" encoding="utf-8"?>
<!-- Generator: Adobe Illustrator 16.0.0, SVG Export Plug-In . SVG Version: 6.00 Build 0)  -->
<!DOCTYPE svg PUBLIC "-//W3C//DTD SVG 1.1//EN" "http://www.w3.org/Graphics/SVG/1.1/DTD/svg11.dtd">
<svg version="1.1" id="Layer_1" xmlns="http://www.w3.org/2000/svg" xmlns:xlink="http://www.w3.org/1999/xlink" x="0px" y="0px"
	 width="128px" height="128px" viewBox="0 0 128 128" enable-background="new 0 0 128 128" xml:space="preserve">
<path display="none" fill="#FFF1E4" d="M125.867,71.248c0,24.594-9.831,42.458-44.247,44.531
	c-57.18,16.568-77.363-9.064-77.363-33.658C3.223,50.298,25.882,55.973,47.469,39.685C93.781,4.733,125.867,46.675,125.867,71.248z"
	/>
<path fill="#313131" d="M71.684,86.023l4.021-4.811c0,0,3.962,1.646,5.232,4.409c1.795,3.909,4.021,8.418,4.021,8.418
	s-3.049,3.118-4.021,2.004c-1.211-1.379-1.836-1.601-3.222-2.806c-1.01-0.881-3.218-1.201-3.218-1.201L71.684,86.023z"/>
<path display="none" fill="#F48121" d="M25.48,49.632c-0.605,0.021-0.879,0.069-1.425,0.245c-0.971,0.315-1.844,0.969-2.445,1.831
	c-0.625,0.897-0.902,1.747-0.924,2.836c-0.067,3.19,1.981,6.412,5.835,9.182l0.928,0.667l0.609-0.179
	c2.06-0.608,4.026-1.569,5.556-2.711c1.626-1.214,2.686-2.608,3.208-4.219c0.325-1.002,0.377-1.817,0.179-2.78
	c-0.305-1.489-1.321-2.739-2.778-3.42c-0.605-0.283-1.758-0.475-2.41-0.4c-0.624,0.072-1.308,0.289-1.854,0.586
	c-0.264,0.144-0.494,0.26-0.511,0.257c-0.017-0.002-0.191-0.175-0.388-0.382C28.152,50.184,26.739,49.587,25.48,49.632z"/>
<path display="none" fill="#F48121" d="M12.081,76.813c-2.024,0.684-3.013,1.992-3.184,4.215c-0.025,0.324-0.037,0.721-0.022,0.773
	c0.005,0.021,0.058-0.064,0.117-0.193c0.178-0.39,0.504-0.799,0.665-0.84c0.069-0.018,0.069-0.016-0.03,0.154
	c-0.055,0.096-0.188,0.307-0.296,0.467C9.223,81.55,9.137,81.689,9.14,81.7c0.002,0.011,0.043-0.009,0.089-0.038
	c0.095-0.063,0.446-0.244,0.684-0.354c0.092-0.043,0.64-0.203,1.365-0.399c1.287-0.353,1.388-0.386,1.885-0.654
	c1.13-0.614,2.405-1.839,3.921-3.764c0.178-0.228,0.322-0.421,0.32-0.433c-0.007-0.026-0.032-0.025-0.991,0.059
	c-1.746,0.15-2.639,0.271-3.517,0.478C12.595,76.664,12.228,76.764,12.081,76.813z M6.966,80.713
	c-0.083,0.086-0.195,0.305-0.211,0.416c-0.023,0.159,0.02,0.268,0.127,0.319c0.486,0.235,0.722,0.411,0.995,0.737
	c0.239,0.289,0.428,0.645,0.588,1.108c0.112,0.325,0.139,0.437,0.2,0.822c0.063,0.39,0.117,0.963,0.096,0.998
	c-0.016,0.024-0.694,0.043-1.17,0.03c-1.049-0.027-1.659,0.03-2.505,0.246c-0.77,0.195-1.113,0.338-1.686,0.699
	c-1.407,0.885-2.193,2.428-2.167,4.256c0.014,0.873,0.282,1.998,0.684,2.862c0.252,0.542,0.637,1.169,0.994,1.622
	c0.34,0.429,1.627,1.902,2.096,2.396c1.273,1.344,2.304,2.211,3.347,2.82c0.768,0.447,1.424,0.676,2.085,0.719
	c0.48,0.03,0.811-0.029,1.351-0.252c0.684-0.281,0.911-0.353,1.448-0.443c0.271-0.045,0.678-0.109,0.903-0.141
	c0.239-0.033,0.582-0.104,0.829-0.169c0.385-0.103,0.44-0.12,0.628-0.235c0.457-0.273,0.824-0.646,1.276-1.277
	c0.337-0.475,0.552-0.893,0.78-1.514c0.296-0.811,0.785-2.67,0.963-3.672c0.063-0.352,0.268-1.733,0.281-1.898
	c0.008-0.092,0.038-0.303,0.089-0.632c0.219-1.414-0.019-2.987-0.638-4.216c-0.506-1.002-1.279-1.834-2.18-2.344
	c-0.677-0.384-1.404-0.617-2.08-0.662c-0.531-0.039-0.936,0.015-1.779,0.229c-0.899,0.229-1.247,0.376-2.114,0.888
	c-0.391,0.228-0.965,0.548-1.012,0.56c-0.009,0-0.016-0.036-0.015-0.084c0.004-0.131-0.027-0.685-0.055-0.944
	c-0.016-0.146-0.082-0.457-0.178-0.827c-0.132-0.514-0.171-0.635-0.286-0.879c-0.363-0.777-0.906-1.342-1.495-1.557
	C7.029,80.65,7.027,80.65,6.966,80.713z"/>
<path display="none" fill="#F48121" d="M119.684,34.84c-1.453-0.607-2.854-0.71-4.313-0.315c-0.376,0.103-0.885,0.286-1.131,0.406
	l-0.448,0.221l-1.245-0.698c-1.164-0.652-1.268-0.702-1.547-0.749c-0.771-0.13-1.57,0.09-2.199,0.605l-0.228,0.184l-4.22,7.282
	c-2.549,4.399-4.252,7.373-4.302,7.514c-0.346,0.965-0.079,2.057,0.673,2.766c0.325,0.309,14.243,8.345,14.676,8.473
	c0.99,0.297,2.066-0.02,2.73-0.802c0.098-0.112,1.82-3.074,4.355-7.481l4.195-7.294l0.049-0.287c0.131-0.805-0.08-1.605-0.578-2.209
	c-0.18-0.219-0.272-0.283-1.42-0.965l-1.229-0.729l-0.031-0.499c-0.043-0.641-0.336-1.745-0.609-2.302
	c-0.406-0.823-0.942-1.533-1.59-2.098C120.979,35.603,119.99,34.968,119.684,34.84z M120.576,36.735
	c1.129,0.976,1.806,2.488,1.808,4.036c0,0.639-0.118,0.519,1.456,1.46c1.371,0.819,1.371,0.819,1.535,1.057
	c0.238,0.344,0.3,0.57,0.271,0.97l-0.024,0.353l-4.174,7.23l-4.175,7.23l-0.293,0.198c-0.32,0.216-0.602,0.284-1.015,0.247
	l-0.252-0.022l-7.126-4.115l-7.126-4.114l-0.146-0.207c-0.237-0.342-0.318-0.615-0.291-1l0.024-0.356l4.175-7.229l4.174-7.231
	l0.293-0.198c0.334-0.224,0.561-0.281,0.978-0.249c0.289,0.023,0.29,0.023,1.685,0.8c1.602,0.894,1.438,0.85,1.99,0.532
	c1.531-0.881,3.317-0.964,4.973-0.23C119.598,36.024,120.264,36.466,120.576,36.735z M118.865,36.213
	c-1.745-0.669-3.711-0.32-5.09,0.903c-0.461,0.409-0.746,0.777-1.07,1.387c-0.393,0.737-0.52,1.188-0.574,2.02
	c-0.104,1.511,0.471,2.938,1.584,3.959c0.378,0.344,1.26,0.854,1.749,1.009c1.442,0.457,2.966,0.238,4.224-0.605
	c0.692-0.463,1.02-0.801,1.461-1.509c0.365-0.586,0.543-1.016,0.666-1.621c0.332-1.621-0.191-3.344-1.369-4.5
	C120.055,36.874,119.316,36.386,118.865,36.213z M118.273,37.851c0.125,0.472,0.658,0.55,0.992,0.145l0.15-0.184l0.264,0.256
	c0.246,0.241,0.678,0.837,0.771,1.072c0.042,0.103,0.036,0.108-0.146,0.185c-0.244,0.105-0.355,0.224-0.398,0.437
	c-0.081,0.387,0.253,0.705,0.654,0.623c0.215-0.043,0.223-0.04,0.234,0.068c0.051,0.396-0.104,1.452-0.236,1.692
	c-0.021,0.032-0.086,0.02-0.179-0.033c-0.394-0.226-0.834,0.006-0.854,0.446c-0.01,0.195,0.11,0.396,0.311,0.51l0.15,0.086
	l-0.117,0.139c-0.189,0.227-0.465,0.465-0.789,0.681l-0.305,0.201l-0.078-0.191c-0.102-0.247-0.279-0.391-0.493-0.4
	c-0.231-0.011-0.384,0.074-0.5,0.28c-0.085,0.146-0.093,0.222-0.05,0.431c0.051,0.245,0.05,0.253-0.063,0.27
	c-0.928,0.138-1.685-0.004-2.488-0.469c-0.803-0.464-1.307-1.048-1.649-1.921c-0.042-0.104-0.032-0.109,0.204-0.188
	c0.201-0.067,0.264-0.112,0.348-0.257c0.25-0.434-0.078-0.872-0.602-0.802l-0.205,0.027l0.021-0.364
	c0.024-0.388,0.094-0.746,0.193-1.024l0.063-0.17l0.149,0.086c0.199,0.114,0.433,0.121,0.597,0.014
	c0.373-0.24,0.351-0.739-0.045-0.967l-0.15-0.086l0.131-0.156c0.255-0.308,0.896-0.791,1.255-0.944
	c0.103-0.042,0.106-0.036,0.176,0.171c0.132,0.388,0.572,0.519,0.866,0.255c0.162-0.145,0.212-0.3,0.179-0.565
	c-0.022-0.196-0.021-0.203,0.089-0.217c0.252-0.037,0.981,0.036,1.313,0.131l0.354,0.099l-0.084,0.222
	C118.25,37.592,118.24,37.724,118.273,37.851z M117.873,38.563c-0.104,0.027-0.238,0.105-0.293,0.168
	c-0.163,0.187-1.037,1.727-1.086,1.916c-0.07,0.268,0.015,0.472,0.25,0.608c0.236,0.138,0.456,0.106,0.652-0.088
	c0.141-0.136,1.037-1.662,1.114-1.897c0.028-0.081,0.028-0.233,0-0.338c-0.044-0.159-0.081-0.211-0.25-0.306
	C118.098,38.531,118.031,38.519,117.873,38.563z"/>
<path display="none" fill="#F48121" d="M54.58,49.149c0,0-4.188-4.092-6.339-7.139c-2.239-3.169-3.778-4.969-4.754-8.726
	c-1.013-3.897-0.244-6.292,0-10.311c0.236-3.893,1.188-9.916,1.188-9.916l7.131,3.173c0,0-0.648,5.306-0.792,8.724
	c-0.123,2.941,0.792,8.329,0.792,8.329s8.32,5.949,13.866,9.916c0.563,0.402,1.735,1.2,1.735,1.2s0.108,0.054,0.452,0.32
	c0.922,0.531,1.488,0.326,1.891,0.781c1.922,0.953,2.234,1.138,2.828,1.375c0.266,0.188,0.375,0.094,1.313,0.484
	c0.938,0.25,0.828,0.344,0.828,0.344s0.176,0.022,0.209,0.036c1.242,0.491,0.655,0.246,2.231,1.013
	c6.108,2.974,9.618,4.648,15.054,8.727c4.904,3.679,7.367,6.165,11.488,10.69c2.813,3.095,6.734,8.326,6.734,8.326l-6.734,4.362
	c0,0-7.77-10.178-14.658-14.662c-5.534-3.607-15.054-7.13-15.054-7.13s-2.278,3.471-3.169,5.945c-2.096,5.813,0,15.848,0,15.848
	s-8.164-0.693-13.072-2.379c-4.778-1.643-11.489-5.951-11.489-5.951L54.58,49.149z"/>
<path fill="#FABFA0" d="M69.807,41.042l7.469-0.86l-0.565,4.692l-1.952,3.066c0,0,1.176,2.669,0.856,3.847
	c-0.405,1.526-2.617,2.577-4.147,2.577c-2.488,0-4.564-0.429-6.228-2.149c-1.73-1.794-2.509-4.598-0.827-6.447
	c0.745-0.819,2.997-1.37,2.997-1.37s0.602-0.593,1.151-1.207C69.204,42.475,69.807,41.042,69.807,41.042z"/>
<path fill="#FABFA0" d="M86.037,34.326c0,5.111-1.811,10.634-8.021,10.634c-6.214,0-12.434-2.881-12.434-7.993
	c0-5.109,3.102-9.589,9.313-9.589C81.109,27.377,86.037,29.216,86.037,34.326z"/>
<path fill="#505050" d="M46.984,72.981c0,0,1.787,1.019,4.829,2.686c2.736,1.5,11.293,4.116,11.293,4.116s0,0-0.924,2.381
	c-2.897,7.459-14.3,14.684-14.3,14.684s8.961-3.108,14.3-5.953c3.87-2.062,9.529-5.953,9.529-5.953l7.148,9.923
	c0,0-11.824,6.877-20.253,7.938c-6.633,0.833-10.871,1.291-17.078-1.188c-3.755-1.502-7.103-1.859-8.737-5.557
	c-1.982-4.482,1.585-7.623,3.971-11.902C39.858,78.594,46.984,72.981,46.984,72.981z"/>
<path fill="#626262" d="M51.985,75.759c0,0,5.855,2.399,7.821,2.971c2.247,0.652,9.028,1.922,9.028,1.922s-0.248,1.407-1.173,3.792
	c-2.894,7.467-14.276,14.699-14.276,14.699s9.778-3.361,15.864-5.961c4.079-1.74,10.313-4.768,10.313-4.768l3.965,10.729
	c0,0-12.026,8.678-21.02,10.327c-7.32,1.343-14,4.69-19.038-0.795c-4.824-5.251-1.94-11.405,0-18.272
	C45.457,83.361,51.985,75.759,51.985,75.759z"/>
<path fill="#414141" d="M62.591,34.728c0.977-3.235,3.063-4.503,5.921-6.312c1.573-0.997,2.536-1.512,4.342-1.973
	c2.539-0.647,4.183-0.689,6.711,0c2.604,0.709,4.261,1.429,5.922,3.55c1.236,1.578,0.828,3.091,1.976,4.735
	c1.567,2.249,4.474,1.806,5.524,4.339c0.828,1.991,0.729,3.491,0,5.522c-0.992,2.771-2.853,3.894-5.524,5.128
	c-2.813,1.297-4.979,1.838-7.896,0.787c-1.771-0.636-3.264-1.008-3.945-2.76c-0.449-1.148-0.424-1.997,0-3.155
	c0.52-1.435,1.495-1.911,2.764-2.762c1.377-0.925,3.946-1.577,3.946-1.577s0.663-1.911,0-2.762c-0.853-1.095-2.288,0.573-3.554,0
	c-1.293-0.586-2.084-1.369-2.368-2.761c-0.292-1.433,2.265-2.566,1.187-3.551c-0.798-0.727-1.894,0.636-2.766,0
	c-0.906-0.662,0.057-2.024-0.789-2.761c-1.359-1.185-4.342,1.577-4.342,1.577s-2.313,2.384-2.764,4.339
	c-0.492,2.123-0.05,3.511,0.789,5.522c0.713,1.713,2.764,3.552,2.764,3.552s-2.098,1.322-3.553,1.184
	c-1.967-0.189-2.934-1.465-3.948-3.157C61.636,39.183,61.833,37.237,62.591,34.728z"/>
<path fill="#FABFA0" d="M46.978,8.583c1.307-0.47,0.068,3.494,1.441,3.305c0.697-0.096,0.917-0.624,1.441-1.103
	c1.923-1.758,0.812-6.765,3.243-5.876c1.222,0.446,1.622,1.368,2.163,2.571c0.822,1.825,0.858,3.334,0,5.142
	c-0.97,2.042-4.685,3.306-4.685,3.306l-4.325-1.837c0,0-0.11-1.572,0-2.57C46.387,10.345,45.883,8.975,46.978,8.583z"/>
<path fill="none" stroke="#E4AB8C" stroke-width="0.5" stroke-linecap="round" d="M55.017,7.424c0,0,0.252,0.776,0.001,1.588
	c-0.233,0.757-1.589,1.896-1.589,1.896"/>
<path fill="none" stroke="#E4AB8C" stroke-width="0.5" stroke-linecap="round" d="M54.223,12.254c0,0,0.957-0.898,1.191-1.654"/>
<path fill="#FABFA0" d="M105.061,80.032l4.355-3.122c0,0,5.186,0.695,6.729,3.122c1.162,1.827,2.194,3.813,0.793,5.467
	c-1.037,1.218-2.512,1.871-3.961,1.171c-1.362-0.663-0.504-2.454-1.58-3.516c-1.18-1.159-3.959-1.563-3.959-1.563
	s0.758,1.381,0.791,2.344c0.025,0.776-0.043,1.256-0.396,1.95c-0.396,0.782-1.825-1.435-2.373-2.731
	C104.975,82.021,105.061,80.032,105.061,80.032z"/>
<path fill="none" stroke="#E4AB8C" stroke-width="0.5" stroke-linecap="round" d="M112.965,82.471c0,0,0.717,1.188,0.77,2.037
	c0.051,0.791-0.437,1.981-0.437,1.981"/>
<path fill="none" stroke="#E4AB8C" stroke-width="0.5" stroke-linecap="round" d="M114.552,82.471c0,0,0.718,1.188,0.771,2.037
	c0.049,0.791-0.437,1.981-0.437,1.981"/>
<path fill="none" stroke="#E4AB8C" stroke-width="0.5" stroke-linecap="round" d="M116.141,81.675c0,0,0.717,1.189,0.771,2.04
	c0.049,0.792-0.438,1.982-0.438,1.982"/>
<path fill="#555555" d="M79.936,89.993l4.77-1.96c0,0,3.115,3.57,4.37,6.273c1.772,3.824,1.985,10.592,1.985,10.592
	s-2.215-0.873-3.179-1.961c-1.194-1.353-0.223-3.136-1.589-4.315c-0.998-0.86-3.973-1.959-3.973-1.959L79.936,89.993z"/>
</svg>
