<?xml version="1.0" encoding="utf-8"?>
<!-- Generator: Adobe Illustrator 16.0.0, SVG Export Plug-In . SVG Version: 6.00 Build 0)  -->
<!DOCTYPE svg PUBLIC "-//W3C//DTD SVG 1.1//EN" "http://www.w3.org/Graphics/SVG/1.1/DTD/svg11.dtd">
<svg version="1.1" id="Layer_1" xmlns="http://www.w3.org/2000/svg" xmlns:xlink="http://www.w3.org/1999/xlink" x="0px" y="0px"
	 width="128px" height="128px" viewBox="0 0 128 128" enable-background="new 0 0 128 128" xml:space="preserve">
<path fill="#FFF1E4" d="M125.867,71.248c0,24.594-9.831,42.458-44.247,44.531c-57.18,16.568-77.363-9.064-77.363-33.658
	C3.223,50.298,25.882,55.973,47.469,39.685C93.781,4.733,125.867,46.675,125.867,71.248z"/>
<path display="none" fill="#313131" d="M71.683,86.024l4.022-4.81c0,0,3.962,1.647,5.232,4.409c1.795,3.909,4.022,8.418,4.022,8.418
	s-3.049,3.118-4.022,2.004c-1.21-1.379-1.835-1.599-3.22-2.806c-1.01-0.88-3.218-1.201-3.218-1.201L71.683,86.024z"/>
<path display="none" fill="#F48121" d="M25.48,49.632c-0.605,0.021-0.879,0.069-1.425,0.245c-0.971,0.315-1.844,0.969-2.445,1.831
	c-0.625,0.897-0.902,1.747-0.924,2.836c-0.067,3.19,1.981,6.412,5.835,9.182l0.928,0.667l0.609-0.179
	c2.06-0.608,4.026-1.569,5.556-2.711c1.626-1.214,2.686-2.608,3.208-4.219c0.325-1.002,0.377-1.817,0.179-2.78
	c-0.305-1.489-1.321-2.739-2.778-3.42c-0.605-0.283-1.758-0.475-2.41-0.4c-0.624,0.072-1.308,0.289-1.854,0.586
	c-0.264,0.144-0.494,0.26-0.511,0.257c-0.017-0.002-0.191-0.175-0.388-0.382C28.152,50.184,26.739,49.587,25.48,49.632z"/>
<path display="none" fill="#F48121" d="M12.081,76.813c-2.024,0.682-3.013,1.991-3.184,4.215c-0.025,0.324-0.037,0.719-0.022,0.773
	c0.005,0.021,0.058-0.065,0.117-0.193c0.178-0.39,0.504-0.799,0.665-0.841c0.069-0.017,0.069-0.015-0.03,0.155
	c-0.055,0.095-0.188,0.306-0.296,0.466c-0.108,0.162-0.194,0.301-0.191,0.311c0.002,0.011,0.043-0.008,0.089-0.038
	c0.095-0.063,0.446-0.244,0.684-0.353c0.092-0.042,0.64-0.203,1.365-0.4c1.287-0.351,1.388-0.385,1.885-0.654
	c1.13-0.615,2.405-1.839,3.921-3.764c0.178-0.227,0.322-0.42,0.32-0.431c-0.007-0.028-0.032-0.027-0.991,0.057
	c-1.746,0.151-2.639,0.272-3.517,0.478C12.595,76.664,12.228,76.763,12.081,76.813z M6.966,80.713
	c-0.083,0.086-0.195,0.304-0.211,0.416c-0.023,0.159,0.02,0.267,0.127,0.319c0.486,0.235,0.722,0.411,0.995,0.738
	c0.239,0.289,0.428,0.644,0.588,1.109c0.112,0.325,0.139,0.436,0.2,0.822c0.063,0.39,0.117,0.963,0.096,0.998
	c-0.016,0.025-0.694,0.043-1.17,0.031c-1.049-0.028-1.659,0.031-2.505,0.246c-0.77,0.196-1.113,0.338-1.686,0.7
	c-1.407,0.885-2.193,2.428-2.167,4.255c0.014,0.874,0.282,1.999,0.684,2.863c0.252,0.542,0.637,1.169,0.994,1.622
	c0.34,0.429,1.627,1.903,2.096,2.396c1.273,1.344,2.304,2.212,3.347,2.822c0.768,0.447,1.424,0.674,2.085,0.717
	c0.48,0.032,0.811-0.029,1.351-0.252c0.684-0.281,0.911-0.351,1.448-0.442c0.271-0.045,0.678-0.11,0.903-0.142
	c0.239-0.033,0.582-0.103,0.829-0.167c0.385-0.103,0.44-0.121,0.628-0.236c0.457-0.274,0.824-0.645,1.276-1.278
	c0.337-0.475,0.552-0.893,0.78-1.514c0.296-0.809,0.785-2.67,0.963-3.671c0.063-0.351,0.268-1.734,0.281-1.899
	c0.008-0.092,0.038-0.302,0.089-0.632c0.219-1.414-0.019-2.987-0.638-4.216c-0.506-1.001-1.279-1.833-2.18-2.343
	c-0.677-0.383-1.404-0.617-2.08-0.663c-0.531-0.039-0.936,0.015-1.779,0.23c-0.899,0.229-1.247,0.376-2.114,0.887
	c-0.391,0.228-0.965,0.547-1.012,0.559c-0.009,0.001-0.016-0.036-0.015-0.083c0.004-0.132-0.027-0.684-0.055-0.945
	c-0.016-0.145-0.082-0.457-0.178-0.827c-0.132-0.514-0.171-0.635-0.286-0.879c-0.363-0.777-0.906-1.342-1.495-1.557
	C7.029,80.65,7.027,80.65,6.966,80.713z"/>
<path display="none" fill="#F48121" d="M119.684,34.84c-1.453-0.607-2.855-0.71-4.313-0.315c-0.376,0.103-0.884,0.286-1.131,0.406
	l-0.448,0.221l-1.245-0.698c-1.164-0.652-1.268-0.702-1.547-0.749c-0.772-0.13-1.57,0.09-2.199,0.605l-0.228,0.184l-4.219,7.282
	c-2.55,4.399-4.252,7.373-4.301,7.514c-0.346,0.965-0.08,2.057,0.671,2.766c0.327,0.309,14.245,8.345,14.677,8.473
	c0.989,0.297,2.067-0.02,2.731-0.802c0.096-0.112,1.82-3.074,4.356-7.481l4.196-7.294l0.049-0.287
	c0.13-0.805-0.08-1.605-0.578-2.209c-0.181-0.219-0.274-0.283-1.421-0.965l-1.229-0.729l-0.033-0.499
	c-0.043-0.641-0.336-1.745-0.609-2.302c-0.406-0.823-0.942-1.533-1.59-2.098C120.978,35.603,119.99,34.968,119.684,34.84z
	 M120.576,36.735c1.129,0.976,1.806,2.488,1.808,4.036c0,0.639-0.119,0.519,1.456,1.46c1.371,0.819,1.371,0.819,1.535,1.057
	c0.238,0.344,0.3,0.57,0.271,0.97l-0.024,0.353l-4.174,7.23l-4.175,7.23l-0.293,0.198c-0.32,0.216-0.6,0.284-1.013,0.247
	l-0.252-0.022l-7.126-4.115l-7.126-4.114l-0.146-0.207c-0.238-0.342-0.319-0.615-0.291-1l0.025-0.356l4.174-7.229l4.174-7.231
	l0.293-0.198c0.334-0.224,0.56-0.281,0.977-0.249c0.289,0.023,0.29,0.023,1.684,0.8c1.601,0.894,1.438,0.85,1.991,0.532
	c1.531-0.881,3.317-0.964,4.973-0.23C119.598,36.024,120.263,36.466,120.576,36.735z M118.865,36.213
	c-1.745-0.669-3.711-0.32-5.09,0.903c-0.461,0.409-0.746,0.777-1.07,1.387c-0.392,0.737-0.519,1.188-0.574,2.02
	c-0.103,1.511,0.47,2.938,1.584,3.959c0.378,0.344,1.26,0.854,1.749,1.009c1.442,0.457,2.965,0.238,4.224-0.605
	c0.692-0.463,1.018-0.801,1.46-1.509c0.365-0.586,0.543-1.016,0.667-1.621c0.331-1.621-0.193-3.344-1.37-4.5
	C120.055,36.874,119.316,36.386,118.865,36.213z M118.273,37.851c0.125,0.472,0.659,0.55,0.993,0.145l0.151-0.184l0.262,0.256
	c0.248,0.241,0.679,0.837,0.772,1.072c0.042,0.103,0.037,0.108-0.146,0.185c-0.244,0.105-0.356,0.224-0.399,0.437
	c-0.081,0.387,0.253,0.705,0.655,0.623c0.214-0.043,0.222-0.04,0.235,0.068c0.049,0.396-0.102,1.452-0.238,1.692
	c-0.019,0.032-0.086,0.02-0.177-0.033c-0.392-0.226-0.834,0.006-0.855,0.446c-0.011,0.195,0.11,0.396,0.31,0.51l0.151,0.086
	l-0.118,0.139c-0.189,0.227-0.465,0.465-0.789,0.681l-0.304,0.201l-0.079-0.191c-0.102-0.247-0.279-0.391-0.493-0.4
	c-0.231-0.011-0.383,0.074-0.5,0.28c-0.085,0.146-0.093,0.222-0.05,0.431c0.051,0.245,0.05,0.253-0.061,0.27
	c-0.928,0.138-1.685-0.004-2.489-0.469c-0.802-0.464-1.306-1.048-1.65-1.921c-0.042-0.104-0.032-0.109,0.204-0.188
	c0.202-0.067,0.264-0.112,0.348-0.257c0.25-0.434-0.078-0.872-0.601-0.802l-0.206,0.027l0.022-0.364
	c0.025-0.388,0.093-0.746,0.194-1.024l0.063-0.17l0.15,0.086c0.199,0.114,0.433,0.121,0.596,0.014
	c0.374-0.24,0.35-0.739-0.045-0.967l-0.149-0.086l0.129-0.156c0.255-0.308,0.896-0.791,1.255-0.944
	c0.101-0.042,0.107-0.036,0.176,0.171c0.13,0.388,0.572,0.519,0.866,0.255c0.162-0.145,0.212-0.3,0.179-0.565
	c-0.024-0.196-0.021-0.203,0.088-0.217c0.251-0.037,0.982,0.036,1.313,0.131l0.354,0.099l-0.084,0.222
	C118.25,37.592,118.24,37.724,118.273,37.851z M117.873,38.563c-0.104,0.027-0.238,0.105-0.293,0.168
	c-0.163,0.187-1.037,1.727-1.086,1.916c-0.07,0.268,0.015,0.472,0.25,0.608c0.236,0.138,0.456,0.106,0.653-0.088
	c0.14-0.136,1.036-1.662,1.114-1.897c0.029-0.081,0.029-0.233,0-0.338c-0.043-0.159-0.082-0.211-0.249-0.306
	C118.098,38.531,118.031,38.519,117.873,38.563z"/>
<path display="none" fill="#505050" d="M47.882,72.244l15.888,3.572c0,0-0.664,3.967-1.588,6.348
	c-2.897,7.459-14.3,14.684-14.3,14.684s8.961-3.11,14.3-5.954c3.87-2.061,9.529-5.952,9.529-5.952l7.148,9.922
	c0,0-11.824,6.876-20.253,7.937c-6.633,0.833-10.871,1.291-17.078-1.189c-3.755-1.503-7.103-1.86-8.737-5.558
	c-1.982-4.482,1.585-7.622,3.971-11.902C39.858,78.594,47.882,72.244,47.882,72.244z"/>
<path display="none" fill="#626262" d="M53.383,73.321l16.394,3.574c0,0-1.192,5.164-2.117,7.549
	c-2.892,7.466-14.276,14.699-14.276,14.699s9.778-3.362,15.864-5.961c4.079-1.74,10.312-4.767,10.312-4.767l3.966,10.728
	c0,0-12.027,8.678-21.019,10.328c-7.32,1.342-14,4.69-19.038-0.795c-4.824-5.251-1.94-11.407,0-18.274
	C45.457,83.362,53.383,73.321,53.383,73.321z"/>
<path display="none" fill="#FABFA0" d="M69.806,41.042l7.469-0.86l-0.566,4.692l-1.952,3.066c0,0,1.174,2.669,0.857,3.847
	c-0.406,1.526-2.618,2.577-4.148,2.577c-2.49,0-4.565-0.429-6.227-2.149c-1.731-1.794-2.51-4.598-0.828-6.447
	c0.745-0.819,2.997-1.37,2.997-1.37s0.602-0.593,1.153-1.207C69.204,42.475,69.806,41.042,69.806,41.042z"/>
<path display="none" fill="#F48121" d="M54.58,49.149c0,0-4.188-4.092-6.339-7.139c-2.239-3.169-3.778-4.969-4.754-8.726
	c-1.013-3.897-0.244-6.292,0-10.311c0.236-3.893,1.188-9.916,1.188-9.916l7.131,3.173c0,0-0.648,5.306-0.792,8.724
	c-0.123,2.941,0.792,8.329,0.792,8.329s8.32,5.949,13.866,9.916c0.562,0.402,1.735,1.2,1.735,1.2s-2.306,1.455-2.86,2.131
	c-1.922,2.344,0.41,5.014,0.813,5.469c1.313,1.484,4.378,1.7,4.734,1.766c0.2,0.037,3.112,0.158,4.484-1.578
	c0.528-0.669,0.156-4.214,0.156-4.214s0.161-0.248,0.194-0.234c1.242,0.491,0.655,0.246,2.231,1.013
	c6.108,2.974,9.618,4.648,15.054,8.727c4.904,3.679,7.367,6.165,11.488,10.69c2.812,3.095,6.735,8.326,6.735,8.326l-6.735,4.363
	c0,0-7.77-10.178-14.658-14.663c-5.534-3.607-15.054-7.13-15.054-7.13s-2.278,3.471-3.169,5.945c-2.096,5.813,0,15.848,0,15.848
	s-8.164-0.695-13.072-2.38c-4.778-1.642-11.489-5.95-11.489-5.95L54.58,49.149z"/>
<path display="none" fill="#FABFA0" d="M86.037,34.326c0,5.111-1.81,10.634-8.021,10.634c-6.214,0-12.434-2.881-12.434-7.993
	c0-5.109,3.102-9.589,9.313-9.589C81.109,27.377,86.037,29.216,86.037,34.326z"/>
<path display="none" fill="#414141" d="M62.591,34.728c0.977-3.235,3.064-4.503,5.92-6.312c1.574-0.997,2.537-1.512,4.342-1.973
	c2.539-0.647,4.182-0.689,6.711,0c2.603,0.709,4.26,1.429,5.922,3.55c1.236,1.578,0.828,3.091,1.975,4.735
	c1.569,2.249,4.472,1.806,5.526,4.339c0.828,1.991,0.729,3.491,0,5.522c-0.994,2.771-2.853,3.894-5.526,5.128
	c-2.814,1.297-4.979,1.838-7.896,0.787c-1.77-0.636-3.263-1.008-3.946-2.76c-0.449-1.148-0.423-1.997,0-3.155
	c0.52-1.435,1.495-1.911,2.764-2.762c1.377-0.925,3.946-1.577,3.946-1.577s0.663-1.911,0-2.762c-0.852-1.095-2.288,0.573-3.553,0
	c-1.294-0.586-2.085-1.369-2.369-2.761c-0.292-1.433,2.265-2.566,1.186-3.551c-0.797-0.727-1.893,0.636-2.765,0
	c-0.906-0.662,0.057-2.024-0.789-2.761c-1.36-1.185-4.342,1.577-4.342,1.577s-2.311,2.384-2.764,4.339
	c-0.492,2.123-0.048,3.511,0.789,5.522c0.714,1.713,2.764,3.552,2.764,3.552s-2.098,1.322-3.553,1.184
	c-1.965-0.189-2.932-1.465-3.946-3.157C61.636,39.183,61.833,37.237,62.591,34.728z"/>
<path display="none" fill="#FABFA0" d="M46.978,8.583c1.307-0.47,0.068,3.494,1.441,3.305c0.697-0.096,0.917-0.624,1.441-1.103
	c1.923-1.758,0.812-6.765,3.243-5.876c1.222,0.446,1.622,1.368,2.163,2.571c0.822,1.825,0.858,3.334,0,5.142
	c-0.97,2.042-4.685,3.306-4.685,3.306l-4.325-1.837c0,0-0.11-1.572,0-2.57C46.387,10.345,45.883,8.975,46.978,8.583z"/>
<path display="none" fill="none" stroke="#E4AB8C" stroke-width="0.5" stroke-linecap="round" d="M55.017,7.424
	c0,0,0.252,0.776,0.001,1.588c-0.233,0.757-1.589,1.896-1.589,1.896"/>
<path display="none" fill="none" stroke="#E4AB8C" stroke-width="0.5" stroke-linecap="round" d="M54.223,12.254
	c0,0,0.957-0.898,1.191-1.654"/>
<path display="none" fill="#FABFA0" d="M105.06,80.032l4.356-3.122c0,0,5.185,0.696,6.729,3.122
	c1.162,1.827,2.194,3.813,0.793,5.467c-1.038,1.218-2.512,1.871-3.961,1.171c-1.364-0.663-0.505-2.454-1.581-3.515
	c-1.179-1.16-3.959-1.562-3.959-1.562s0.758,1.379,0.792,2.343c0.025,0.777-0.043,1.255-0.397,1.951
	c-0.395,0.782-1.825-1.435-2.373-2.732C104.975,82.021,105.06,80.032,105.06,80.032z"/>
<path display="none" fill="none" stroke="#E4AB8C" stroke-width="0.5" stroke-linecap="round" d="M112.965,82.47
	c0,0,0.717,1.189,0.769,2.038c0.05,0.791-0.436,1.981-0.436,1.981"/>
<path display="none" fill="none" stroke="#E4AB8C" stroke-width="0.5" stroke-linecap="round" d="M114.552,82.47
	c0,0,0.717,1.189,0.771,2.038c0.049,0.791-0.436,1.981-0.436,1.981"/>
<path display="none" fill="none" stroke="#E4AB8C" stroke-width="0.5" stroke-linecap="round" d="M116.141,81.675
	c0,0,0.716,1.189,0.769,2.04c0.049,0.792-0.437,1.982-0.437,1.982"/>
<path display="none" fill="#555555" d="M79.936,89.993l4.768-1.96c0,0,3.116,3.571,4.37,6.274
	c1.773,3.825,1.987,10.591,1.987,10.591s-2.216-0.873-3.179-1.96c-1.194-1.352-0.223-3.135-1.589-4.316
	c-0.998-0.86-3.973-1.959-3.973-1.959L79.936,89.993z"/>
</svg>
