<?xml version="1.0" encoding="utf-8"?>
<!-- Generator: Adobe Illustrator 16.0.0, SVG Export Plug-In . SVG Version: 6.00 Build 0)  -->
<!DOCTYPE svg PUBLIC "-//W3C//DTD SVG 1.1//EN" "http://www.w3.org/Graphics/SVG/1.1/DTD/svg11.dtd">
<svg version="1.1" id="Layer_1" xmlns="http://www.w3.org/2000/svg" xmlns:xlink="http://www.w3.org/1999/xlink" x="0px" y="0px"
	 width="128px" height="128px" viewBox="0 0 128 128" enable-background="new 0 0 128 128" xml:space="preserve">
<circle display="none" fill="none" stroke="#F5F5F5" stroke-width="16" cx="63.681" cy="63.767" r="54.069"/>
<circle display="none" fill="none" stroke="#E7E3E0" stroke-width="17" cx="64.234" cy="63.801" r="42.467"/>
<circle fill="none" stroke="#F48220" stroke-width="6" cx="64.486" cy="64.431" r="35.78"/>
<path fill="none" stroke="#F48220" stroke-width="3" stroke-linecap="round" d="M52.897,54.561l21.468,20.666l-11.08,11.71V41.473
	l11.08,13.088L52.897,75.227"/>
<path display="none" fill="#FEDE2D" d="M98.794,86.704c1.188-2.061,4.163-2.061,5.352,0l20.062,34.748
	c1.189,2.063-0.298,4.634-2.674,4.634H81.407c-2.377,0-3.864-2.571-2.675-4.634L98.794,86.704z"/>
<path display="none" fill="#676767" d="M98.807,95.198l0.965,18.842h3.282l0.965-18.842H98.807z M98.69,120.333
	c0,0.748,0.258,1.375,0.772,1.894c0.54,0.488,1.196,0.731,1.969,0.731c0.771,0,1.415-0.243,1.93-0.731
	c0.516-0.519,0.771-1.146,0.771-1.894c0-0.746-0.256-1.362-0.771-1.853c-0.515-0.491-1.158-0.735-1.93-0.735
	c-0.772,0-1.429,0.244-1.969,0.735C98.948,118.971,98.69,119.587,98.69,120.333z"/>
</svg>
