<?xml version="1.0" encoding="utf-8"?>
<!-- Generator: Adobe Illustrator 16.0.0, SVG Export Plug-In . SVG Version: 6.00 Build 0)  -->
<!DOCTYPE svg PUBLIC "-//W3C//DTD SVG 1.1//EN" "http://www.w3.org/Graphics/SVG/1.1/DTD/svg11.dtd">
<svg version="1.1" id="Layer_1" xmlns="http://www.w3.org/2000/svg" xmlns:xlink="http://www.w3.org/1999/xlink" x="0px" y="0px"
	 width="128px" height="128px" viewBox="0 0 128 128" enable-background="new 0 0 128 128" xml:space="preserve">
<rect x="-2" y="-2.495" display="none" fill="#0A0A0A" width="133.5" height="133.167"/>
<path fill="none" stroke="#F48121" stroke-width="4" stroke-linecap="round" d="M44.587,98.365V87.139c0,0-1.079-3.866,6.478-5.614
	c7.559-1.744,8.638-2.993,8.638-2.993l6.114,6.363l6.478-6.363c0,0,4.678,2.247,7.559,2.993c5.759,1.499,5.759,5.614,5.759,5.614
	v11.227"/>
<path fill="none" stroke="#F48121" stroke-width="4" d="M58.876,79.24l2.503-7.97"/>
<path fill="none" stroke="#F48121" stroke-width="4" d="M73.216,79.24l-2.731-8.195"/>
<path fill="none" stroke="#F48121" stroke-width="4" d="M73.505,58.322l-0.481,6.111c-0.304,3.866-3.649,6.777-7.521,6.547
	c-3.497-0.208-6.324-2.936-6.66-6.429l-0.582-6.099c-0.43-4.516,3.102-8.404,7.613-8.404C70.34,50.049,73.856,53.854,73.505,58.322z
	"/>
<path display="none" fill="none" stroke="#C4C4C4" stroke-width="4" d="M14.481,35.479h98.957c6.035,0,10.929,4.893,10.929,10.928
	v60.154c0,6.035-4.894,10.929-10.929,10.929H14.481c-6.035,0-10.929-4.894-10.929-10.929V46.407
	C3.553,40.372,8.446,35.479,14.481,35.479z"/>
<path display="none" fill="none" stroke="#C4C4C4" stroke-width="4" stroke-linecap="round" d="M37.249,32.747V24.55
	c0-7.544,6.116-13.66,13.661-13.66H77.01c7.546,0,13.66,6.116,13.66,13.66v8.196"/>
<path display="none" fill="none" stroke="#C4C4C4" stroke-width="4" d="M25.105,37.604c0,0.971,0,53.477,0,78.973v-39.46V37.604z"/>
<path display="none" fill="none" stroke="#C4C4C4" stroke-width="4" d="M102.815,37.604c0,0.971,0,53.477,0,78.973v-39.46V37.604z"
	/>
</svg>
