<svg width="128" height="129" viewBox="0 0 128 129" fill="none" xmlns="http://www.w3.org/2000/svg">
<path d="M63.912 98.272H63.9547C74.9914 102.372 83.4484 92.8903 83.4484 92.8903C92.1616 85.2619 89.2059 72.9011 89.2059 72.9011C100.345 61.6252 95.1514 41.226 95.1514 41.226C95.1514 41.226 103.361 34.5373 97.4322 25.6362C91.4611 16.6667 77.4943 24.8844 77.4943 24.8844C77.4943 24.8844 75.2989 18.9048 63.9034 18.9048C52.5079 18.9048 50.3125 24.8844 50.3125 24.8844C50.3125 24.8844 36.3543 16.6667 30.3831 25.6362C24.4633 34.5288 32.6725 41.2175 32.6725 41.2175C32.6725 41.2175 27.4787 61.6167 38.618 72.8926C38.618 72.8926 35.6623 85.2619 44.3756 92.8817C44.3756 92.8817 52.8325 102.364 63.8692 98.2634H63.912V98.272Z" stroke="#F48121" stroke-width="4" stroke-miterlimit="10" stroke-linecap="round" stroke-linejoin="round"/>
<path d="M53.9761 74.6858L54.7534 63.5124L55.8981 46.9658" stroke="#F48121" stroke-width="4" stroke-miterlimit="10" stroke-linecap="round" stroke-linejoin="round"/>
<path d="M38.6187 46.0538C38.6187 46.0538 47.5625 38.4853 55.8999 46.9678" stroke="#F48121" stroke-width="4" stroke-miterlimit="10" stroke-linecap="round" stroke-linejoin="round"/>
<path d="M63.8691 2.00884V2H63.878L63.8691 2.00884Z" stroke="#F48121" stroke-width="4" stroke-miterlimit="10" stroke-linecap="round" stroke-linejoin="round"/>
<path d="M73.8461 74.6858L73.0516 63.5124L71.8813 46.9658" stroke="#F48121" stroke-width="4" stroke-miterlimit="10" stroke-linecap="round" stroke-linejoin="round"/>
<path d="M89.1626 46.0538C89.1626 46.0538 80.2187 38.4853 71.8813 46.9678" stroke="#F48121" stroke-width="4" stroke-miterlimit="10" stroke-linecap="round" stroke-linejoin="round"/>
<path d="M46.1431 52.0576H46.2968" stroke="#F48121" stroke-width="4" stroke-miterlimit="10" stroke-linecap="round" stroke-linejoin="round"/>
<path d="M81.4385 52.0576H81.5922" stroke="#F48121" stroke-width="4" stroke-miterlimit="10" stroke-linecap="round" stroke-linejoin="round"/>
<path d="M63.9109 85.2644L73.8456 74.689H53.9761L63.9109 85.2644Z" stroke="#F48121" stroke-width="4" stroke-miterlimit="10" stroke-linecap="round" stroke-linejoin="round"/>
<path d="M63.9102 85.2617V98.2718" stroke="#F48121" stroke-width="4" stroke-miterlimit="10" stroke-linecap="round" stroke-linejoin="round"/>
<path d="M38.6187 72.8932C38.6187 72.8932 42.719 63.5137 54.7552 63.5137" stroke="#F48121" stroke-width="4" stroke-miterlimit="10" stroke-linecap="round" stroke-linejoin="round"/>
<path d="M89.2051 72.8932C89.171 72.8163 85.0365 63.5137 73.0601 63.5137" stroke="#F48121" stroke-width="4" stroke-miterlimit="10" stroke-linecap="round" stroke-linejoin="round"/>
</svg>
