<svg width="128" height="130" viewBox="0 0 128 130" fill="none" xmlns="http://www.w3.org/2000/svg">
<path d="M63.8691 2.00884V2H63.878L63.8691 2.00884Z" stroke="#F48121" stroke-width="4" stroke-miterlimit="10" stroke-linecap="round" stroke-linejoin="round"/>
<path d="M63.8684 2.00879L60.7419 5.95537L49.261 2.06004L50.8328 8.96228C50.8328 8.96228 36.8318 0.548045 29.7758 5.65638L38.6172 11.8325C38.6172 11.8325 15.9884 9.50045 13.6735 34.0769L18.329 33.4789C18.329 33.4789 7.83902 54.9715 15.7834 71.0482L20.2767 66.9906C20.2767 66.9906 19.6787 86.228 27.3413 97.6492L31.8516 94.3006C31.8516 94.3006 41.1714 112.675 51.0891 118.39C51.0891 118.39 55.1467 114.785 55.1467 115.229C55.1467 115.674 63.6463 127.693 63.8684 128" stroke="#C4C4C4" stroke-width="4" stroke-miterlimit="10" stroke-linecap="round" stroke-linejoin="round"/>
<path d="M63.8691 2.00884V2H63.878L63.8691 2.00884Z" stroke="#F48121" stroke-width="4" stroke-miterlimit="10" stroke-linecap="round" stroke-linejoin="round"/>
<path d="M63.8691 127.992C64.0827 127.684 72.5909 115.665 72.5909 115.221C72.5909 114.768 76.6485 118.382 76.6485 118.382C86.5662 112.667 95.886 94.292 95.886 94.292L100.396 97.6406C108.059 86.2195 107.461 66.9821 107.461 66.9821L111.954 71.0397C119.907 54.963 109.409 33.4703 109.409 33.4703L114.064 34.0683C111.749 9.50045 89.1204 11.824 89.1204 11.824L97.9617 5.64784C90.8972 0.539502 76.8963 8.95374 76.8963 8.95374L78.4681 2.0515L66.9871 5.94682L63.8691 2.00879" stroke="#C4C4C4" stroke-width="4" stroke-miterlimit="10" stroke-linecap="round" stroke-linejoin="round"/>
</svg>
