<svg width="351" height="123" viewBox="0 0 351 123" fill="none" xmlns="http://www.w3.org/2000/svg">
<g filter="url(#filter0_d_9_7382)">
<g clip-path="url(#clip0_9_7382)">
<path d="M372.717 35.8814C361.841 20.6585 342.102 18.5954 334.719 11.1676C327.336 3.73976 323.608 -5.40835 318.776 -12.1466C302.765 -34.5443 275.056 -38.1008 253.898 -21.7522C232.74 -5.40364 228.587 26.0193 244.566 48.4243C255.442 63.6472 274.751 62.4186 283.862 68.8465C292.972 75.2744 296.439 86.4634 301.23 93.1746C317.241 115.572 344.698 117.852 365.856 101.503C387.015 85.1546 388.728 58.2791 372.717 35.8814Z" fill="#F6E9FE"/>
<path d="M243.429 67.9531L243.429 67.9531C222.486 57.7999 216.66 33.3162 226.756 12.2194C236.843 -8.85944 258.927 -18.479 279.883 -8.32C281.443 -7.56265 283.055 -6.55828 284.761 -5.44789C285.186 -5.17072 285.618 -4.88681 286.056 -4.59889C287.365 -3.73873 288.727 -2.84284 290.145 -1.98451C293.934 0.309974 298.182 2.37984 303.103 2.92265C305.591 3.19708 308.374 2.81802 311.333 2.22855C312.631 1.97006 313.973 1.66877 315.345 1.36065C315.541 1.31671 315.737 1.27262 315.934 1.22851C317.514 0.874439 319.136 0.517355 320.792 0.206731C327.422 -1.03618 334.557 -1.52093 341.628 1.90955C362.602 12.1073 371.479 37.4186 361.41 58.4594C351.334 79.5158 328.566 88.3038 307.588 78.1344L307.588 78.134C305.366 77.0612 303.146 75.7155 300.803 74.2956C299.794 73.6844 298.763 73.0594 297.699 72.4365C294.183 70.3781 290.356 68.3715 285.965 67.0815C283.683 66.411 280.74 66.6019 277.463 67.1091C275.536 67.4074 273.443 67.8246 271.263 68.2591C269.739 68.5629 268.173 68.8751 266.591 69.161C258.828 70.5644 250.488 71.3772 243.429 67.9531Z" stroke="#E7BFFF"/>
<path d="M314.046 30.9409C310.85 27.7566 306.599 26.0019 302.071 26C292.74 26 285.146 33.5576 285.142 42.8469C285.141 45.8162 285.92 48.7148 287.402 51.2698L285 60L293.974 57.6573C296.447 58.9998 299.231 59.7072 302.064 59.7083H302.071H302.071C311.401 59.7083 318.996 52.1494 319 42.8605C319.002 38.3585 317.242 34.1254 314.046 30.9409ZM302.071 56.8628H302.066C299.54 56.8615 297.064 56.1865 294.904 54.9106L294.39 54.6072L289.065 55.9972L290.486 50.83L290.151 50.3002C288.743 48.0705 287.999 45.4938 288 42.848C288.003 35.127 294.315 28.8456 302.076 28.8456C305.835 28.8472 309.367 30.3056 312.024 32.9523C314.681 35.599 316.143 39.1174 316.142 42.8593C316.138 50.5806 309.826 56.8628 302.071 56.8628Z" fill="white"/>
<path d="M286 59L288.261 50.5264C286.866 48.0464 286.133 45.2329 286.133 42.3514C286.137 33.3352 293.285 26 302.067 26C306.329 26.002 310.33 27.7049 313.337 30.7958C316.346 33.8866 318.002 37.9949 318 42.3641C317.996 51.3805 310.848 58.7164 302.067 58.7164H302.06C299.394 58.7155 296.774 58.0283 294.447 56.7263L286 59Z" fill="#8614CC"/>
<path fill-rule="evenodd" clip-rule="evenodd" d="M298.322 35.7434C298.009 35.0365 297.679 35.0223 297.381 35.01C297.137 34.9994 296.858 35 296.579 35C296.301 35 295.847 35.1064 295.464 35.5311C295.081 35.9558 294 36.9826 294 39.0709C294 41.1594 295.499 43.1774 295.708 43.4609C295.917 43.7439 298.601 48.1664 302.853 49.8677C306.386 51.2817 307.105 51.0004 307.872 50.9297C308.639 50.8589 310.346 49.9031 310.695 48.9119C311.044 47.9209 311.044 47.0715 310.939 46.8939C310.835 46.717 310.556 46.6109 310.137 46.3986C309.719 46.1864 307.663 45.1594 307.279 45.0179C306.896 44.8763 306.617 44.8056 306.338 45.2306C306.059 45.6551 305.258 46.6109 305.014 46.8939C304.77 47.1776 304.526 47.2129 304.108 47.0007C303.689 46.7878 302.342 46.34 300.744 44.894C299.501 43.769 298.661 42.3796 298.417 41.9547C298.173 41.5302 298.391 41.3002 298.601 41.0886C298.789 40.8985 299.019 40.5931 299.228 40.3453C299.437 40.0974 299.507 39.9205 299.646 39.6375C299.786 39.3541 299.716 39.1062 299.611 38.894C299.507 38.6817 298.694 36.5827 298.322 35.7434Z" fill="white"/>
<path d="M314.046 30.9409C310.85 27.7566 306.599 26.002 302.071 26C292.74 26 285.146 33.5576 285.142 42.8469C285.141 45.8163 285.92 48.7148 287.402 51.2698L285 60L293.974 57.6573C296.447 58.9997 299.231 59.7072 302.064 59.7083H302.071H302.071C311.401 59.7083 318.996 52.1494 319 42.8605C319.002 38.3585 317.242 34.1255 314.046 30.9409ZM302.071 56.8628H302.066C299.54 56.8615 297.064 56.1866 294.904 54.9106L294.39 54.6072L289.065 55.9973L290.486 50.83L290.151 50.3003C288.743 48.0706 287.999 45.4938 288 42.848C288.003 35.127 294.315 28.8457 302.076 28.8457C305.835 28.8472 309.367 30.3057 312.024 32.9524C314.681 35.5991 316.143 39.1175 316.142 42.8594C316.138 50.5806 309.826 56.8628 302.071 56.8628Z" fill="white"/>
</g>
</g>
<defs>
<filter id="filter0_d_9_7382" x="-16" y="0" width="367" height="123" filterUnits="userSpaceOnUse" color-interpolation-filters="sRGB">
<feFlood flood-opacity="0" result="BackgroundImageFix"/>
<feColorMatrix in="SourceAlpha" type="matrix" values="0 0 0 0 0 0 0 0 0 0 0 0 0 0 0 0 0 0 127 0" result="hardAlpha"/>
<feOffset dy="4"/>
<feGaussianBlur stdDeviation="8"/>
<feComposite in2="hardAlpha" operator="out"/>
<feColorMatrix type="matrix" values="0 0 0 0 0.121569 0 0 0 0 0.12549 0 0 0 0 0.137255 0 0 0 0.06 0"/>
<feBlend mode="normal" in2="BackgroundImageFix" result="effect1_dropShadow_9_7382"/>
<feBlend mode="normal" in="SourceGraphic" in2="effect1_dropShadow_9_7382" result="shape"/>
</filter>
<clipPath id="clip0_9_7382">
<rect y="12" width="335" height="91" rx="20" fill="white"/>
</clipPath>
</defs>
</svg>
