<?xml version="1.0" encoding="utf-8"?>
<!-- Generator: Adobe Illustrator 16.0.0, SVG Export Plug-In . SVG Version: 6.00 Build 0)  -->
<!DOCTYPE svg PUBLIC "-//W3C//DTD SVG 1.1//EN" "http://www.w3.org/Graphics/SVG/1.1/DTD/svg11.dtd">
<svg version="1.1" id="Layer_1" xmlns="http://www.w3.org/2000/svg" xmlns:xlink="http://www.w3.org/1999/xlink" x="0px" y="0px"
	 width="512px" height="512px" viewBox="0 0 512 512" enable-background="new 0 0 512 512" xml:space="preserve">
<path fill="#F7F8F8" d="M4.063,288.021c7.434,95.343,72.597,117.948,215.351,114.897c241.166,45.826,296.885-19.555,289.451-114.897
	c-5.349-123.786-159.191-87.439-253.268-143.639C66.137,31.194-3.371,192.677,4.063,288.021z"/>
<path fill="#C4C4C4" d="M52.901,146.451c-5.332-11.197-0.496-24.593,10.759-29.803l142.577-65.986
	c10.469-4.846,22.906-0.899,28.667,9.099l109.164,189.469c6.163,10.696,2.455,24.367-8.27,30.482l-151.729,86.533
	c-11.253,6.42-25.59,1.919-31.159-9.78L52.901,146.451z"/>
<path fill="#E2E2E2" d="M60.378,140.434c-5.32-11.192-0.489-24.575,10.755-29.787l139.095-64.465
	c10.476-4.855,22.926-0.903,28.687,9.105l106.676,185.415c6.154,10.689,2.446,24.348-8.261,30.462l-148.054,84.554
	c-11.257,6.433-25.607,1.928-31.176-9.779L60.378,140.434z"/>
<path fill="#FFFFFF" d="M75.416,147.21c-5.338-11.201-0.5-24.606,10.761-29.813l121.626-56.246
	c10.468-4.84,22.898-0.895,28.658,9.094l94.092,163.183c6.167,10.698,2.459,24.377-8.274,30.488l-129.565,73.842
	c-11.251,6.407-25.579,1.915-31.15-9.775L75.416,147.21z"/>
<circle fill="none" stroke="#FEDE2D" stroke-width="3" cx="181.804" cy="159.695" r="45.82"/>
<path fill="#FEDE2D" d="M162.372,143.698c-3.031-4.792-1.358-11.151,3.639-13.832l0,0c5.034-2.698,11.297-0.526,13.577,4.707
	l11.384,26.125c1.58,3.624,0.113,7.852-3.369,9.721l0,0c-3.51,1.882-7.878,0.733-10.004-2.633L162.372,143.698z"/>
<circle fill="#FEDE2D" cx="193.966" cy="181.365" r="7.032"/>
<line fill="none" stroke="#E2E2E2" stroke-width="3" stroke-linecap="round" x1="203.717" y1="235.648" x2="275.766" y2="199.624"/>
<line fill="none" stroke="#E2E2E2" stroke-width="3" stroke-linecap="round" x1="170.635" y1="280.63" x2="287.739" y2="220.711"/>
<line fill="none" stroke="#E2E2E2" stroke-width="3" stroke-linecap="round" x1="185.546" y1="301.6" x2="299.713" y2="241.796"/>
<path fill="#EBB98F" d="M274.229,268.617c0,0-7.839-6.484-7.495-11.999c0.305-5.029,7.495-10.5,7.495-10.5l-10.498-16.502
	c0,0-1.497-1.497,0-4.496c1.497-3,7.504,4.496,7.504,4.496l14.998,15l9.001,12.002l63.005,46.509l18.001-24.008l39.006,7.508
	c0,0-15.338,22.611-27.002,34.497c-9.306,9.479-18.002,22.502-25.505,22.502c-10.498,0-23.89-16.13-37.5-28.504
	c-14.114-12.826-19.716-24.769-33.004-36.003C284.897,272.917,274.229,268.617,274.229,268.617z"/>
<path fill="#B0B0B0" d="M370.247,223.618l33.004-1.058c0,0,17.827,11.142,20.056,34.062c0.792,8.165,13.593-7.917,11.446,0
	c-2.132,7.852-5.666,11.456-10.502,18.002c-3.699,5.009-10.502,11.999-10.502,11.999l-37.5-7.499l-18.001,23.999l-12.004-9.001
	c0,0-2.372-11.821-2.999-19.498c-0.714-8.758,1.998-13.945,0-22.502c-1.136-4.875-4.5-12.002-4.5-12.002L370.247,223.618z"/>
<path fill="#EBB98F" d="M367.248,160.613h31.503l5.997,63.005h-32.999v-10.5c0,0-7.974,2.39-12.004,0
	c-2.533-1.5,1.497-21.002,1.497-21.002l-5.998-1.499c0,0,4.501-5.099,4.501-10.5C359.745,172.615,367.248,160.613,367.248,160.613z"
	/>
<path fill="#8B8A8A" d="M370.247,223.621l-27.002,45.005c0,0,1.667-9.832,0-16.504c-1.502-6-4.5-12-4.5-12L370.247,223.621z"/>
<path fill="#9C6F45" d="M382.238,153.112c4.691-0.568,7.607-0.231,12.003,1.5c8.514,3.351,9.598,10.615,14.999,18.001
	c3.742,5.114,3.194,10.968,9,13.501c4.301,1.875,7.386-0.803,12.004,0c8.522,1.482,13.262,4.509,19.499,10.502
	c5.51,5.291,4.239,12.13,10.502,16.5c5.479,3.823,10.859,0.927,16.504,4.5c4.2,2.662,6.577,4.662,8.996,9.001
	c3.726,6.67,1.964,11.877,1.507,19.503c-0.514,8.372,2.063,15.786-4.505,21c-6.42,5.101-13.428,3.151-21,0
	c-9.632-4.004-8.069-14.859-16.505-21c-2.759-2.011-4.474-2.91-7.503-4.5c-5.58-2.938-9.51-2.883-14.998-6.002
	c-5.093-2.894-7.095-5.791-12-9c-6.141-4.02-16.5-9.001-16.5-9.001l-6.002-11.999c0,0,4.161-1.136,6.002-3.001
	c2.216-2.246,3.647-4.414,2.999-7.501c-0.436-2.067-1.293-3.255-2.999-4.5c-1.497-1.09-2.681-1.168-4.5-1.5
	c-2.307-0.42-6.002,0-6.002,0v-13.501c0,0-8.465-0.955-11.999-4.5c-3.151-3.16-7.504-7.501-4.501-10.502
	C370.238,157.61,375.735,153.9,382.238,153.112z"/>
<path fill="#B0B0B0" d="M410.746,292.625l-9.001,28.504l-2.999,10.502h-22.502L410.746,292.625z"/>
<path fill="#535353" d="M241.234,340.623c22.502-10.498,153.016-8.997,157.512-8.997c4.505-0.004,1.332,18.041-4.496,27.003
	c-3.848,5.914-7.503,10.502-13.505,11.999c-6.002,1.502-93.006,0-93.006,0h-33.004c0,0-4.067,2.303-6.002,4.5
	c-2.946,3.352-3.403,6.181-4.5,10.503c-1.726,6.815,0,12.974,0,12.974s-11.094,16.278-23.712,22.284
	c-15.353,7.313-24.513,26.741-24.513,26.741h-31.197C164.812,447.63,218.733,351.129,241.234,340.623z"/>
<path fill="#F1DCCA" d="M269.729,364.631h129.013c14.911,0,27.002,12.091,27.002,27.002l0,0c0,14.911-12.091,27.002-27.002,27.002
	H269.729c-14.914,0-27.002-12.091-27.002-27.002l0,0C242.727,376.722,254.816,364.631,269.729,364.631z"/>
<path fill="#F1DCCA" d="M382.786,381.539l38.457-123.146c4.444-14.236,19.586-22.173,33.822-17.727l0,0
	c14.237,4.446,22.171,19.585,17.728,33.827l-38.457,123.146c-4.444,14.232-19.586,22.171-33.822,17.723l0,0
	C386.276,410.918,378.343,395.775,382.786,381.539z"/>
<path fill="#96663D" d="M285.459,418.635h20.277l-24.621,51.001h-17.384L285.459,418.635z"/>
<path fill="#96663D" d="M371.749,418.635h27.002l24.003,51.001h-18.001L371.749,418.635z"/>
<linearGradient id="SVGID_1_" gradientUnits="userSpaceOnUse" x1="160.4316" y1="175.772" x2="153.1599" y2="81.3005" gradientTransform="matrix(1 0 0 -1 -50 374)">
	<stop  offset="0" style="stop-color:#D3E061"/>
	<stop  offset="1" style="stop-color:#4DABB7"/>
</linearGradient>
<path fill="url(#SVGID_1_)" d="M90.121,214.167c1.828-9.921,10.926-16.663,20.985-15.888l0,0l0,0
	c9.286,0.716,16.63,8.152,16.92,17.459c0.293,9.469,0.422,21.333-0.264,30.56c-0.703,9.488-2.661,21.518-4.433,31.12
	c-1.758,9.536-10.5,16.025-20.169,15.281l0,0c-9.669-0.744-17.316-8.496-17.594-18.188c-0.279-9.763-0.375-21.947,0.383-31.431
	C86.649,234.29,88.447,223.246,90.121,214.167z"/>
<linearGradient id="SVGID_2_" gradientUnits="userSpaceOnUse" x1="219.998" y1="54.9683" x2="168.199" y2="21.9297" gradientTransform="matrix(1 0 0 -1 -50 374)">
	<stop  offset="0" style="stop-color:#D3E061"/>
	<stop  offset="1" style="stop-color:#4DABB7"/>
</linearGradient>
<path fill="url(#SVGID_2_)" d="M155.236,316.41c4.463-0.326,8.996-0.317,13.301,0.901c2.47,0.701,5.048,1.793,6.604,3.481
	c3.388,3.683,5.038,7.443,2.331,11.651c-6.992,10.872-22.521,3.887-25.629,13.98c-3.393,11.024-12.354,12.787-18.532,12.578
	c-4.154-0.14-7.649-2.742-10.108-6.094l0,0c-3.042-4.147-4.372-9.388-2.696-14.245c1.913-5.545,5.358-12.647,11.142-16.313
	C137.981,318.334,148.418,316.911,155.236,316.41z"/>
<linearGradient id="SVGID_3_" gradientUnits="userSpaceOnUse" x1="90.5225" y1="56.1904" x2="148.7683" y2="15.8063" gradientTransform="matrix(1 0 0 -1 -50 374)">
	<stop  offset="0" style="stop-color:#D1DF61"/>
	<stop  offset="1" style="stop-color:#51ACB4"/>
</linearGradient>
<path fill="url(#SVGID_3_)" d="M99.957,362.385c-7.641,9.244-25.276,7.281-39.394-4.388C46.447,346.329,29.259,326.935,36.9,317.69
	c7.638-9.245,37.215-4.836,51.332,6.833C102.349,336.192,107.597,353.141,99.957,362.385z"/>
<linearGradient id="SVGID_4_" gradientUnits="userSpaceOnUse" x1="200.125" y1="101.4766" x2="168.1922" y2="59.4239" gradientTransform="matrix(1 0 0 -1 -50 374)">
	<stop  offset="0" style="stop-color:#D1DF61"/>
	<stop  offset="1" style="stop-color:#50ADB5"/>
</linearGradient>
<path fill="url(#SVGID_4_)" d="M151.841,292.838c-17.085,7.77-32.617,22.523-32.617,22.523s3.105-34.479,13.201-41.164
	c4.15-5.463,12.448-5.658,17.573-1.768C155.121,276.321,155.991,287.376,151.841,292.838z"/>
<linearGradient id="SVGID_5_" gradientUnits="userSpaceOnUse" x1="183.9897" y1="60.4014" x2="167.7311" y2="53.4766" gradientTransform="matrix(1 0 0 -1 -50 374)">
	<stop  offset="0" style="stop-color:#D2E061"/>
	<stop  offset="1" style="stop-color:#50ACB5"/>
</linearGradient>
<path fill="url(#SVGID_5_)" d="M131.12,319.788c-6.256-0.579-13.218,1.136-13.218,1.136s6.625-9.51,10.666-9.775
	c2.115-0.9,4.559,0.418,5.401,2.402C134.813,315.531,133.233,318.887,131.12,319.788z"/>
<path fill="none" stroke="#908F8F" stroke-linecap="round" d="M106.799,230.667c0,0-1.508,46.925,0,76.93
	c1.515,30.123,7.767,76.846,7.767,76.846"/>
<path fill="none" stroke="#908F8F" stroke-linecap="round" d="M133.205,289.73c0,0-16.946,23.299-19.065,45.822
	c-1.795,19.063,0,48.707,0,48.707"/>
<path fill="none" stroke="#908F8F" stroke-linecap="round" d="M148.259,328.384c0,0-19.945,6.055-25.154,19.595
	c-7.767,20.194-7.767,36.503-7.767,36.503"/>
<path fill="none" stroke="#908F8F" stroke-linecap="round" d="M60.522,325.533c0,0,21.318,13.427,31.524,25.553
	c9.388,11.15,18.715,32.299,18.715,32.299"/>
<path fill="#465B66" d="M77.02,412.998c-4.152-14.258,6.543-28.512,21.396-28.512h28.876c14.922,0,25.626,14.38,21.348,28.673
	l-11.553,38.597c-3.225,10.776-13.142,18.158-24.389,18.158l0,0c-11.32,0-21.279-7.473-24.443-18.341L77.02,412.998z"/>
<path fill="none" stroke="#687C86" stroke-width="2" stroke-linecap="round" d="M92.04,413.099c0,0,3.299-0.531,6.513-0.645
	c17.588-0.618,4.008,16.139,18.338,18.628c12.444,2.159,15.534-2.459,15.534-2.459"/>
<path fill="none" stroke="#687C86" stroke-width="2" stroke-linecap="round" d="M93.594,431.665c0,0,3.044-0.466,6.013-0.565
	c11.072-0.379,3.7,14.346,16.929,16.557c11.486,1.924,14.336-2.186,14.336-2.186"/>
<path fill="#F4F4F4" d="M164.812,447.63h28.969l-4.457,8.914h-31.198L164.812,447.63z"/>
<path fill="#454545" d="M162.583,452.087h28.969l-4.457,17.827h-60.167c0,0,8.953-7.695,15.599-11.143
	C149.856,454.973,162.583,452.087,162.583,452.087z"/>
</svg>
