<svg width="24" height="24" viewBox="0 0 24 24" fill="none" xmlns="http://www.w3.org/2000/svg">
<path d="M12 11.5C13.933 11.5 15.5 9.933 15.5 8C15.5 6.067 13.933 4.5 12 4.5C10.067 4.5 8.5 6.067 8.5 8C8.5 9.933 10.067 11.5 12 11.5Z" stroke="#222222" stroke-linecap="round"/>
<path d="M4.84908 16.9479C5.48878 14.6034 7.91468 13.5 10.3449 13.5H13.6549C16.0852 13.5 18.5111 14.6034 19.1508 16.9479C19.2819 17.4287 19.3867 17.9489 19.4461 18.5015C19.5051 19.0507 19.0522 19.5 18.4999 19.5H5.49995C4.94767 19.5 4.49477 19.0507 4.55377 18.5015C4.61315 17.9489 4.71791 17.4287 4.84908 16.9479Z" stroke="#222222" stroke-linecap="round"/>
</svg>
