<svg width="24" height="24" viewBox="0 0 24 24" fill="none" xmlns="http://www.w3.org/2000/svg">
<path d="M6.44788 8.96942C6.76223 6.14032 9.15353 4 12 4C14.8465 4 17.2378 6.14032 17.5522 8.96942L17.804 11.2356C17.8072 11.2645 17.8088 11.279 17.8104 11.2933C17.9394 12.4169 18.3051 13.5005 18.8836 14.4725C18.8909 14.4849 18.8984 14.4973 18.9133 14.5222L19.4914 15.4856C20.0159 16.3599 20.2782 16.797 20.2216 17.1559C20.1839 17.3946 20.061 17.6117 19.8757 17.7668C19.5971 18 19.0873 18 18.0678 18H5.93227C4.91272 18 4.40295 18 4.12438 17.7668C3.93901 17.6117 3.81613 17.3946 3.77845 17.1559C3.72183 16.797 3.98411 16.3599 4.50866 15.4856L5.08669 14.5222C5.10165 14.4973 5.10913 14.4849 5.11648 14.4725C5.69492 13.5005 6.06068 12.4169 6.18963 11.2933C6.19127 11.279 6.19287 11.2645 6.19608 11.2356L6.44788 8.96942Z" stroke="#222222"/>
<path d="M9.10217 18.4059C9.2731 19.1501 9.64973 19.8077 10.1737 20.2767C10.6976 20.7458 11.3396 21 12 21C12.6604 21 13.3024 20.7458 13.8263 20.2767C14.3502 19.8077 14.7269 19.1501 14.8978 18.4059" stroke="#222222" stroke-linecap="round"/>
</svg>
