<?xml version="1.0" encoding="utf-8"?>
<!-- Generator: Adobe Illustrator 16.0.0, SVG Export Plug-In . SVG Version: 6.00 Build 0)  -->
<!DOCTYPE svg PUBLIC "-//W3C//DTD SVG 1.1//EN" "http://www.w3.org/Graphics/SVG/1.1/DTD/svg11.dtd">
<svg version="1.1" id="Layer_1" xmlns="http://www.w3.org/2000/svg" xmlns:xlink="http://www.w3.org/1999/xlink" x="0px" y="0px"
	 width="128px" height="128px" viewBox="0 0 128 128" enable-background="new 0 0 128 128" xml:space="preserve">
<rect x="-2" y="-2.495" display="none" fill="#0A0A0A" width="133.5" height="133.167"/>
<path fill="none" stroke="#C0C0C1" stroke-width="4" d="M65.916,32.8v-6.781c0-10.239,7.87-18.54,17.579-18.54h20.654
	c9.712,0,17.58,8.301,17.58,18.54v7.934c0,10.238-7.868,18.539-17.58,18.539h-7.044"/>
<path fill="none" stroke="#C0C0C1" stroke-width="4" d="M80.689,52.492L80.689,52.492c-2.688,0-5.208-0.756-7.379-2.08"/>
<path fill="none" stroke="#C0C0C1" stroke-width="4" stroke-linecap="round" d="M80.931,52.492l2.319,7.342l13.855-7.342"/>
<path display="none" fill="#F48121" d="M81.655,27.009c1.813,0,3.282,1.55,3.282,3.463c0,1.912-1.469,3.461-3.282,3.461
	c-1.816,0-3.286-1.55-3.286-3.461C78.369,28.559,79.839,27.009,81.655,27.009z"/>
<ellipse display="none" fill="#F48121" cx="94.783" cy="30.471" rx="3.284" ry="3.462"/>
<path display="none" fill="#F48121" d="M107.917,27.009c1.812,0,3.282,1.55,3.282,3.463c0,1.912-1.471,3.461-3.282,3.461
	c-1.816,0-3.287-1.55-3.287-3.461C104.63,28.559,106.101,27.009,107.917,27.009z"/>
<path fill="none" stroke="#C0C0C1" stroke-width="4" d="M32.634,33.209h31.643c4.854,0,8.79,4.15,8.79,9.271v11.123
	c0,5.12-3.936,9.27-8.79,9.27H32.634c-4.855,0-8.79-4.15-8.79-9.27V42.479C23.845,37.359,27.779,33.209,32.634,33.209z"/>
<path fill="none" stroke="#C0C0C1" stroke-width="4" d="M48.37,63.09h0.057h0.059c14.709,0,22.442,2.229,26.574,6.16
	c4.046,3.84,5.068,9.734,5.068,18.679c0,16.736-14.026,30.561-31.642,30.561c-17.616,0-31.642-13.824-31.642-30.561
	c0-8.827,1.473-15.273,5.806-19.396C27.013,64.379,34.743,62.141,48.37,63.09z"/>
<path fill="none" stroke="#C0C0C1" stroke-width="4" stroke-linecap="round" d="M18.601,72.143c0,0-4.704-0.602-8.789,3.707
	c-4.086,4.31-3.516,11.124-3.516,11.124"/>
<path fill="none" stroke="#C0C0C1" stroke-width="4" stroke-linecap="round" d="M79.242,72.235c0,0,4.817-0.745,9.188,3.586
	c4.37,4.322,4.037,11.355,4.037,11.355"/>
<line display="none" fill="none" stroke="#F48121" stroke-width="2" x1="48.455" y1="29.627" x2="48.455" y2="26.292"/>
<path display="none" fill="#F48121" d="M64.761,47.687c0,3.97-2.636,7.19-5.888,7.19H39.152c-3.251,0-5.888-3.22-5.888-7.19l0,0
	c0-3.971,2.636-7.191,5.888-7.191h19.721C62.125,40.495,64.761,43.715,64.761,47.687L64.761,47.687z"/>
<ellipse display="none" fill="#F48121" cx="48.456" cy="22.58" rx="4.132" ry="4.358"/>
<path display="none" fill="none" stroke="#F48121" stroke-width="3" stroke-linecap="round" d="M33.56,49.654
	c0,0-0.496-5.815,6.394-5.496c5.046,0.233,4.903,5.496,4.903,5.496"/>
<path display="none" fill="none" stroke="#F48121" stroke-width="3" stroke-linecap="round" d="M51.976,49.654
	c0,0-0.497-5.814,6.394-5.495c5.046,0.233,4.901,5.495,4.901,5.495"/>
<polygon display="none" fill="#F48121" points="53.849,30.95 42.976,30.95 44.702,29.627 52.051,29.627 "/>
</svg>
