<?xml version="1.0" encoding="utf-8"?>
<!-- Generator: Adobe Illustrator 16.0.0, SVG Export Plug-In . SVG Version: 6.00 Build 0)  -->
<!DOCTYPE svg PUBLIC "-//W3C//DTD SVG 1.1//EN" "http://www.w3.org/Graphics/SVG/1.1/DTD/svg11.dtd">
<svg version="1.1" id="Layer_1" xmlns="http://www.w3.org/2000/svg" xmlns:xlink="http://www.w3.org/1999/xlink" x="0px" y="0px"
	 width="128px" height="128px" viewBox="0 0 128 128" enable-background="new 0 0 128 128" xml:space="preserve">
<path fill="none" stroke="#C4C4C4" stroke-width="2" d="M106.805,51.317c0,22.166-19.07,40.256-42.753,40.256
	c-23.684,0-42.756-18.091-42.756-40.256c0-22.162,19.072-40.252,42.756-40.252C87.734,11.064,106.805,29.155,106.805,51.317z"/>
<path fill="none" stroke="#C4C4C4" stroke-width="2" d="M71.8,113.828c0,3.936-3.4,7.251-7.749,7.251
	c-4.35,0-7.751-3.315-7.751-7.251c0-3.941,3.401-7.251,7.751-7.251C68.399,106.577,71.8,109.887,71.8,113.828z"/>
<path fill="none" stroke="#C4C4C4" stroke-width="2" d="M43.901,86.823c0,0-7.145,14.309-9.708,24.149
	c-2.196,8.434-1.896,9.105-1.896,9.105s2.75,0.749,4.5,1.498c1.64,0.706,7.501,1.751,7.501,1.751l10.25,1.501
	c0,0,4.079,0.251,5.5,0.251c1.75,0,4.305-0.251,6.001-0.251c1.5,0,2.002,0.251,3.5,0.251c1.751,0,3.999-0.251,3.999-0.251
	l4.504-0.252c0,0,2.876-0.404,4.75-0.75c2.75-0.499,12-3.25,12-3.25s0.06-1.17-2.071-9.604c-2.493-9.855-9.709-24.149-9.709-24.149"
	/>
<line fill="none" stroke="#C4C4C4" stroke-width="2" x1="70.779" y1="112.772" x2="90.745" y2="107.49"/>
<line fill="none" stroke="#C4C4C4" stroke-width="2" x1="56.12" y1="112.847" x2="34.391" y2="107.563"/>
<path fill="none" stroke="#C4C4C4" stroke-width="2" d="M42.601,86.468c0,0-18.192,16.065-18.485,25.461
	c-0.293,9.396,7.914,8.015,7.914,8.015"/>
<path fill="none" stroke="#C4C4C4" stroke-width="2" d="M85.78,86.783c0,0,17.671,17.407,16.738,26.023
	c-0.933,8.618-7.929,7.932-7.929,7.932"/>
<path display="none" fill="none" stroke="#373737" stroke-width="2" d="M110.559,47.819c0-25.41-20.936-46.008-46.757-46.008
	c-25.823,0-46.757,20.598-46.757,46.008"/>
<path display="none" fill="#F48121" d="M32.671,50.69c0,18.461,6.229,31.131,6.229,31.131S26.545,69.151,26.545,50.69
	s14.002-30.875,14.002-30.875S32.671,32.229,32.671,50.69z"/>
<path display="none" fill="#F48121" d="M95.648,50.69c0,18.461-6.008,31.131-6.008,31.131s11.916-12.67,11.916-31.131
	S88.052,19.815,88.052,19.815S95.648,32.229,95.648,50.69z"/>
<path display="none" fill="#373737" d="M37.663,37.323c-0.598-5.889,4.029-11.008,9.951-11.008h32.513
	c5.875,0,10.481,5.035,9.963,10.885l-2.663,30.003c-0.459,5.164-4.78,9.119-9.961,9.119H50.657c-5.134,0-9.434-3.887-9.951-8.991
	L37.663,37.323z"/>
<path display="none" fill="#00E5FE" d="M59.352,51.144c0,0-3.023-2.743-6.753-2.743s-6.754,2.743-6.754,2.743
	s3.024-5.288,6.754-5.288S59.352,51.144,59.352,51.144z"/>
<path display="none" fill="#00E5FE" d="M81.669,51.144c0,0-3.022-2.743-6.755-2.743c-3.73,0-6.753,2.743-6.753,2.743
	s3.022-5.288,6.753-5.288C78.646,45.856,81.669,51.144,81.669,51.144z"/>
<path display="none" fill="#00E5FE" d="M73.052,61.319c0,0-0.815,8-9.25,8c-9.252,0-9.252-8-9.252-8s4.143,0,9.252,0
	C68.909,61.319,73.052,61.319,73.052,61.319z"/>
<path display="none" fill="#373737" d="M18.295,33.319L18.295,33.319c2.623,0,4.75,2.125,4.75,4.75V63.07
	c0,2.623-2.127,4.748-4.75,4.748l0,0c-2.624,0-4.751-2.125-4.751-4.748V38.068C13.544,35.444,15.671,33.319,18.295,33.319z"/>
<path display="none" fill="#373737" d="M109.809,33.319L109.809,33.319c2.621,0,4.75,2.125,4.75,4.75V63.07
	c0,2.623-2.129,4.748-4.75,4.748l0,0c-2.624,0-4.754-2.125-4.754-4.748V38.068C105.055,35.444,107.185,33.319,109.809,33.319z"/>
<ellipse display="none" fill="#373737" cx="75.301" cy="81.822" rx="4.253" ry="4"/>
<path display="none" fill="none" stroke="#373737" stroke-width="2" d="M76.969,81.975c0,0,20.814,2.496,28.193-7.34
	c3.522-4.699,4.603-10.262,4.603-10.262"/>
<path fill="#C4C4C4" d="M32.046,121.079l2.411-9.87l19.339,4.134c0,0,1.171,8.262,9.962,8.262c9.092,0,10.84-8.262,10.84-8.262
	l16.995-5.017l2.712,11.502l-7.502,2.25l-8,1.247l-7.502,0.504l-4.25,0.251h-5.751l-7.751-0.251l-7.25-0.75l-7.002-1.5
	L32.046,121.079z"/>
<path fill="none" stroke="#C4C4C4" stroke-width="2" d="M32.297,121.167c6.677,3.099,18.514,5.16,32.003,5.16
	c12.506,0,23.884-2.023,30.755-4.751"/>
<path display="none" fill="#F48121" d="M71.8,113.828c0,3.936-3.4,7.251-7.749,7.251c-4.35,0-7.75-3.315-7.75-7.251
	c0-3.941,3.4-7.251,7.75-7.251C68.399,106.577,71.8,109.887,71.8,113.828z"/>
</svg>
