<?xml version="1.0" encoding="utf-8"?>
<!-- Generator: Adobe Illustrator 16.0.0, SVG Export Plug-In . SVG Version: 6.00 Build 0)  -->
<!DOCTYPE svg PUBLIC "-//W3C//DTD SVG 1.1//EN" "http://www.w3.org/Graphics/SVG/1.1/DTD/svg11.dtd">
<svg version="1.1" id="Layer_1" xmlns="http://www.w3.org/2000/svg" xmlns:xlink="http://www.w3.org/1999/xlink" x="0px" y="0px"
	 width="128px" height="128px" viewBox="0 0 128 128" enable-background="new 0 0 128 128" xml:space="preserve">
<path fill="none" stroke="#C4C4C4" stroke-width="4" stroke-linecap="round" d="M5.682,125.977V89.539
	c0,0-0.822-13.85,10.951-18.697c11.773-4.848,26.318-2.081,31.167-8.315c4.85-6.232,6.649-11.132,6.649-11.132"/>
<path fill="none" stroke="#C4C4C4" stroke-width="4" stroke-linecap="round" d="M122.529,125.977V89.539c0,0,0-18.697-14.461-18.697
	"/>
<path fill="none" stroke="#C4C4C4" stroke-width="4" stroke-linecap="round" d="M47.425,64.609l20.148,16.859l12.329-10.681"/>
<path fill="none" stroke="#C4C4C4" stroke-width="4" d="M88.143,26.328c-0.664,6.559-3.287,13.941-7.293,19.614
	c-4.078,5.778-9.082,9.13-14.338,9.13c-5.124,0-9.962-3.521-14.041-9.58c-3.949-5.855-6.603-13.273-7.601-19.288
	c0.068-7.965,2.622-13.916,6.394-17.865c3.829-4.003,9.161-6.222,15.246-6.222c6.071,0,11.404,2.218,15.233,6.222
	C85.535,12.307,88.102,18.302,88.143,26.328z"/>
</svg>
