<?xml version="1.0" encoding="utf-8"?>
<!-- Generator: Adobe Illustrator 16.0.0, SVG Export Plug-In . SVG Version: 6.00 Build 0)  -->
<!DOCTYPE svg PUBLIC "-//W3C//DTD SVG 1.1//EN" "http://www.w3.org/Graphics/SVG/1.1/DTD/svg11.dtd">
<svg version="1.1" id="Layer_1" xmlns="http://www.w3.org/2000/svg" xmlns:xlink="http://www.w3.org/1999/xlink" x="0px" y="0px"
	 width="512px" height="512px" viewBox="0 0 512 512" enable-background="new 0 0 512 512" xml:space="preserve">
<path fill="#F48220" d="M357.031,476.436c-1.127,1.337-3.184,1.337-4.312,0l-58.292-69.14c-1.546-1.834-0.242-4.638,2.156-4.638
	h116.584c2.399,0,3.703,2.804,2.156,4.638L357.031,476.436z"/>
<path fill="#F48220" d="M371.031,409.525h-32.31v-76.225c0-5.191,4.207-9.399,9.398-9.399h13.513c5.191,0,9.398,4.208,9.398,9.399
	V409.525z"/>
<path fill="none" stroke="#F48220" stroke-width="10" d="M406.246,173.888v133.094 M277.742,474.168H130.991
	c-34.551,0-62.558-28.005-62.558-62.56V73.797c0-34.551,28.007-62.558,62.558-62.558h121.99"/>
<path fill="#F48220" d="M182.736,59.64c0,0,39.975-5.718,47.246,0.507c9.624,8.247,4.686,62.82,4.686,62.82l-51.396,1.568
	L182.736,59.64z"/>
<path fill="#F48220" d="M116.809,123.513c0,0-4.033-54.115,2.068-61.256c8.073-9.457,47.239-1.573,47.239-1.573l-0.507,63.859
	L116.809,123.513z"/>
<path fill="#F48220" d="M183.233,219.903l50.434-0.009l-0.014-78.222l-50.434,0.007L183.233,219.903z"/>
<path fill="#F48220" d="M115.495,220.421l50.433-0.01l-0.014-78.946l-50.433,0.008L115.495,220.421z"/>
<path fill="#F48220" d="M165.621,161.924c0,0,3.119,7.267,8.828,7.786c7.161,0.65,8.825-7.789,8.825-7.789l14.29,57.995
	l-50.434,0.009L165.621,161.924z"/>
<path fill="#F48220" d="M183.264,103.772c0,0-1.576-7.303-8.828-7.786c-7.786-0.517-8.825,7.789-8.825,7.789l-14.845-57.849
	l50.435-0.009L183.264,103.772z"/>
<path fill="#F48220" d="M201.445,141.679c0,0,9.368-0.908,9.493-8.159c0.132-7.789-8.252-9.702-8.252-9.702l32.665-14.689
	l0.009,50.435L201.445,141.679z"/>
<path fill="#F48220" d="M147.272,124.079c0,0-9.37,0.907-9.494,8.157c-0.132,7.79,8.253,9.703,8.253,9.703l-32.666,14.688
	l-0.01-50.435L147.272,124.079z"/>
<path fill="#F48220" d="M337.438,255.111c0,0,9.374-0.96,9.495-8.606c0.129-8.212-8.254-10.229-8.254-10.229l32.665-15.493
	l0.007,53.194L337.438,255.111z"/>
<path fill="#F48220" d="M139.883,236.549c0,0-9.368,0.957-9.495,8.607c-0.131,8.211,8.254,10.229,8.254,10.229l-32.666,15.492
	l-0.008-53.191L139.883,236.549z"/>
<path fill="#F48220" d="M381.223,211.423H93.456v25.024h287.767V211.423z"/>
<path fill="#F48220" d="M381.223,255.216H93.456v25.022h287.767V255.216z"/>
<path fill="#F48220" d="M139.883,292.853c0,0-9.368,0.96-9.495,8.607c-0.131,8.213,8.254,10.228,8.254,10.228l-32.666,15.491
	l-0.008-53.192L139.883,292.853z"/>
<path fill="#F48220" d="M381.223,267.728H93.456v25.022h287.767V267.728z"/>
<path fill="#F48220" d="M294.661,311.518H93.456v25.022h175.356L294.661,311.518z"/>
<path fill="#F48220" d="M139.883,342.901c0,0-9.368,0.961-9.495,8.608c-0.131,8.209,8.254,10.225,8.254,10.225l-32.666,15.495
	l-0.008-53.193L139.883,342.901z"/>
<path fill="#F48220" d="M290.433,314.012l-196.977,3.761v25.023h171.597L290.433,314.012z"/>
<path fill="#F48220" d="M255.184,361.564H93.456v25.021h155.147L255.184,361.564z"/>
<path fill="#F48220" d="M139.883,386.691c0,0-9.368,0.961-9.495,8.608c-0.131,8.209,8.254,10.225,8.254,10.225l-32.666,15.493
	l-0.008-53.192L139.883,386.691z"/>
<path fill="#F48220" d="M249.074,405.354H93.456v25.023h158.438L249.074,405.354z"/>
<path fill="#F48220" d="M72.882,50.588c35.2-65.068,95.628-33.074,95.628-33.074v45.875h-36.145v160.567H80.929
	C80.929,223.956,57.254,69.354,72.882,50.588z"/>
<path fill="#F48220" d="M270.223,461.659c8.459,11.991,8.459,11.991,8.459,11.991H122.925l-29.469-11.991l-16.501-18.514
	l-7.818-22.128h181.347l7.05,20.846l6.109,11.281C263.643,453.145,263.643,453.145,270.223,461.659z"/>
<path fill="none" stroke="#F48220" stroke-width="10" d="M249.851,6.669v104.663c0,34.55,28.005,62.558,62.56,62.558h98.541"/>
<path fill="none" stroke="#F48220" stroke-width="24" d="M332.327,90.884l52.114,53.622h-51.777
	c-25.919,0-46.932-21.618-46.932-48.285V38.598l46.347,52.019l0.12,0.136L332.327,90.884z"/>
<path fill="#F48220" d="M252.979,136.354l21.896,21.896l25.021,15.639h75.07v50.047l-162.651-3.126V64.413h-56.301V42.517V14.366
	h90.708v71.941L252.979,136.354z"/>
<path fill="#F48220" d="M118.479,57.245H69.136v370.521h49.343V57.245z"/>
<circle fill="none" stroke="#F48220" stroke-width="15" cx="354.818" cy="400.037" r="102.924"/>
<path fill="#F48220" d="M365.157,173.51h41.358v131.593l-41.358-14.569V173.51z"/>
</svg>
