<?xml version="1.0" encoding="utf-8"?>
<!-- Generator: Adobe Illustrator 16.0.0, SVG Export Plug-In . SVG Version: 6.00 Build 0)  -->
<!DOCTYPE svg PUBLIC "-//W3C//DTD SVG 1.1//EN" "http://www.w3.org/Graphics/SVG/1.1/DTD/svg11.dtd">
<svg version="1.1" id="Layer_1" xmlns="http://www.w3.org/2000/svg" xmlns:xlink="http://www.w3.org/1999/xlink" x="0px" y="0px"
	 width="128px" height="128px" viewBox="0 0 128 128" enable-background="new 0 0 128 128" xml:space="preserve">
<rect x="-2" y="-2.495" display="none" fill="#0A0A0A" width="133.5" height="133.167"/>
<line display="none" fill="none" stroke="#F48121" stroke-width="4" stroke-linecap="round" x1="64.342" y1="98.309" x2="64.342" y2="82.018"/>
<path display="none" fill="none" stroke="#F48121" stroke-width="4" stroke-linecap="round" d="M70.857,85.273l-6.517-6.516
	l-6.517,6.516"/>
<path fill="none" stroke="#F48121" stroke-width="4" d="M36.621,2.167h52.865c10.952,0,19.83,8.878,19.83,19.83v83.729
	c0,10.951-8.878,19.83-19.83,19.83H36.621c-10.953,0-19.83-8.879-19.83-19.83V21.997C16.791,11.045,25.668,2.167,36.621,2.167z"/>
<path fill="#F48121" d="M29.608,25.426h9.693c3.625,0,6.241,0.753,7.863,2.257c1.647,1.505,2.467,3.572,2.467,6.204
	c0,2.633-0.819,4.701-2.467,6.205c-1.622,1.504-4.238,2.257-7.863,2.257h-1.936v7.755h-7.757V25.426z M39.301,31.596h-1.936v4.582
	h1.936c0.965,0,1.695-0.198,2.187-0.598c0.495-0.4,0.741-0.964,0.741-1.693c0-0.728-0.246-1.291-0.741-1.692
	C40.996,31.795,40.266,31.596,39.301,31.596z M62.85,50.104h-9.69V25.426h9.69c2.859,0,5.308,0.495,7.351,1.481
	c2.071,0.987,3.646,2.396,4.726,4.23c1.106,1.833,1.658,4.043,1.658,6.629c0,2.561-0.552,4.771-1.658,6.627
	c-1.08,1.833-2.654,3.243-4.726,4.231C68.157,49.612,65.709,50.104,62.85,50.104z M62.498,32.125h-1.266v11.281h1.266
	c0.679,0,1.376-0.058,2.082-0.176c0.701-0.119,1.343-0.364,1.926-0.741c0.586-0.376,1.053-0.939,1.406-1.69
	c0.38-0.753,0.563-1.765,0.563-3.032c0-1.27-0.183-2.281-0.563-3.032c-0.354-0.754-0.82-1.317-1.406-1.693
	c-0.583-0.376-1.225-0.623-1.926-0.74C63.874,32.183,63.177,32.125,62.498,32.125z M80.099,25.426h16.39v6.521H87.5v3.527h8.638
	v5.993H87.5v8.637h-7.401V25.426z"/>
<path fill="#F48121" d="M65.087,105.8L49.56,91.316h31.047L65.087,105.8z"/>
<line fill="none" stroke="#F48121" stroke-width="4" stroke-linecap="round" x1="65.083" y1="66.064" x2="65.083" y2="92.506"/>
</svg>
