<?xml version="1.0" encoding="utf-8"?>
<!-- Generator: Adobe Illustrator 16.0.0, SVG Export Plug-In . SVG Version: 6.00 Build 0)  -->
<!DOCTYPE svg PUBLIC "-//W3C//DTD SVG 1.1//EN" "http://www.w3.org/Graphics/SVG/1.1/DTD/svg11.dtd">
<svg version="1.1" id="Layer_1" xmlns="http://www.w3.org/2000/svg" xmlns:xlink="http://www.w3.org/1999/xlink" x="0px" y="0px"
	 width="512px" height="512px" viewBox="0 0 512 512" enable-background="new 0 0 512 512" xml:space="preserve">
<path fill="#F48220" d="M379.767,10.514c-2.709,0.449-6.734,1.931-9.578,3.524c-2.11,1.19-10.596,9.227-30.59,28.996
	c-15.204,15.04-27.715,27.499-27.805,27.686c-0.061,0.187,29.093,29.542,64.785,65.234l64.905,64.896l1.78-1.854
	c0.972-1.025,12.884-13.32,26.474-27.327c13.588-14.007,25.71-26.811,26.953-28.458c6.63-8.761,7.048-21.183,1.077-30.566
	c-2.439-3.816-96.348-96.489-99.954-98.636C392.966,11.128,385.154,9.609,379.767,10.514z M147.13,235.571L11.589,371.097v64.771
	v64.77h64.771h64.784l135.676-135.66l135.677-135.654l-64.636-64.635c-35.558-35.551-64.771-64.636-64.92-64.636
	S221.673,161.036,147.13,235.571z"/>
</svg>
