<?xml version="1.0" encoding="utf-8"?>
<!-- Generator: Adobe Illustrator 16.0.0, SVG Export Plug-In . SVG Version: 6.00 Build 0)  -->
<!DOCTYPE svg PUBLIC "-//W3C//DTD SVG 1.1//EN" "http://www.w3.org/Graphics/SVG/1.1/DTD/svg11.dtd">
<svg version="1.1" id="Layer_1" xmlns="http://www.w3.org/2000/svg" xmlns:xlink="http://www.w3.org/1999/xlink" x="0px" y="0px"
	 width="512px" height="512px" viewBox="0 0 512 512" enable-background="new 0 0 512 512" xml:space="preserve">
<path fill="none" stroke="#F48220" stroke-width="20" d="M434.327,185.036v245.319c0,34.479-27.945,62.425-62.426,62.425H147.165
	c-34.481,0-62.427-27.946-62.427-62.425V80.764c0-34.478,27.945-62.427,62.427-62.427H275.72"/>
<path fill="#F48220" d="M169.443,255.532h199.766c5.169,0,9.363,4.194,9.363,9.363l0,0c0,5.17-4.194,9.363-9.363,9.363H169.443
	c-5.169,0-9.364-4.193-9.364-9.363l0,0C160.08,259.727,164.273,255.532,169.443,255.532z"/>
<path fill="#F48220" d="M169.443,311.715h199.766c5.169,0,9.363,4.195,9.363,9.365l0,0c0,5.17-4.194,9.363-9.363,9.363H169.443
	c-5.169,0-9.364-4.193-9.364-9.363l0,0C160.08,315.91,164.273,311.715,169.443,311.715z"/>
<path fill="#F48220" d="M169.443,361.657h199.766c5.169,0,9.363,4.195,9.363,9.363l0,0c0,5.171-4.194,9.365-9.363,9.365H169.443
	c-5.169,0-9.364-4.194-9.364-9.365l0,0C160.08,365.852,164.273,361.657,169.443,361.657z"/>
<path fill="#F48220" d="M169.443,405.356h199.766c5.169,0,9.363,4.195,9.363,9.363l0,0c0,5.17-4.194,9.364-9.363,9.364H169.443
	c-5.169,0-9.364-4.194-9.364-9.364l0,0C160.08,409.552,164.273,405.356,169.443,405.356z"/>
<path fill="none" stroke="#F48220" stroke-width="20" d="M265.833,21.984v106.998c0,35.817,29.018,64.846,64.819,64.846
	l103.675,1.626"/>
<path fill="none" stroke="#F48220" stroke-width="20" d="M359.229,93.803l66.979,69.157H359.66
	c-33.309,0-62.207-9.799-60.311-62.273V26.37l59.563,67.089l0.153,0.177L359.229,93.803z"/>
<line fill="none" stroke="#F48220" stroke-width="20" stroke-linecap="round" x1="206.899" y1="115.071" x2="206.899" y2="177.499"/>
<line fill="none" stroke="#F48220" stroke-width="20" stroke-linecap="round" x1="175.686" y1="146.286" x2="238.113" y2="146.286"/>
</svg>
