<svg width="60" height="80" viewBox="0 0 60 80" fill="none" xmlns="http://www.w3.org/2000/svg">
<path d="M58 28.7027V68C58 73.5228 53.5228 78 48 78H12C6.47715 78 2 73.5228 2 68V12C2 6.47715 6.47715 2 12 2H32.5926" stroke="#F48121" stroke-width="2.5"/>
<rect x="12" y="40" width="35" height="2.5" rx="1.25" fill="#F48121"/>
<rect x="12" y="48" width="35" height="2.5" rx="1.25" fill="#F48121"/>
<rect x="12" y="56" width="35" height="2.5" rx="1.25" fill="#F48121"/>
<rect x="12" y="64" width="35" height="2.5" rx="1.25" fill="#F48121"/>
<path d="M31 3V19C31 24.5228 35.4772 29 41 29H59" stroke="#F48121" stroke-width="2.5"/>
<path d="M46.1161 13.8839L55.9822 23.75H46C41.1675 23.75 37.25 19.8325 37.25 15V4.2135L46.0786 13.8447L46.0969 13.8647L46.1161 13.8839Z" stroke="#F48121" stroke-width="2.5"/>
<line x1="19.25" y1="16.25" x2="19.25" y2="27.75" stroke="#F48121" stroke-width="2.5" stroke-linecap="round"/>
<line x1="13.25" y1="21.75" x2="24.75" y2="21.75" stroke="#F48121" stroke-width="2.5" stroke-linecap="round"/>
</svg>
