<?xml version="1.0" encoding="utf-8"?>
<!-- Generator: Adobe Illustrator 16.0.0, SVG Export Plug-In . SVG Version: 6.00 Build 0)  -->
<!DOCTYPE svg PUBLIC "-//W3C//DTD SVG 1.1//EN" "http://www.w3.org/Graphics/SVG/1.1/DTD/svg11.dtd">
<svg version="1.1" id="Layer_1" xmlns="http://www.w3.org/2000/svg" xmlns:xlink="http://www.w3.org/1999/xlink" x="0px" y="0px" width="128px" height="128px" viewBox="0 0 128 128" enable-background="new 0 0 128 128" xml:space="preserve">
	<rect x="-5.25" y="-3.75" display="none" fill="#020202" width="139" height="137" />
	<g id="seu_x5F_historico_x5F_two" display="none">
		<path display="inline" fill="none" stroke="#737375" stroke-width="4" stroke-linecap="round" stroke-miterlimit="10" d="
		M64.435,117.84c-31.749,0-57.485-25.738-57.485-57.486c0-31.749,25.737-57.485,57.485-57.485c31.75,0,57.485,25.737,57.485,57.485" />

		<polygon display="inline" fill="#737375" stroke="#737375" stroke-width="2" stroke-linecap="round" stroke-linejoin="round" stroke-miterlimit="10" points="
		64.68,109.318 81.219,116.412 66.221,126.359 	" />
	</g>
	<g id="seu_x5F_historico_x5F_one" display="none">

		<line display="inline" fill="none" stroke="#F48121" stroke-width="4" stroke-linecap="round" stroke-miterlimit="10" x1="62.731" y1="29.662" x2="62.731" y2="72.045" />

		<line display="inline" fill="none" stroke="#F48121" stroke-width="4" stroke-linecap="round" stroke-miterlimit="10" x1="62.837" y1="72.045" x2="99.754" y2="72.045" />
	</g>
	<line id="mudanca_x5F_de_x5F_habitos_3_" display="none" fill="none" stroke="#737375" stroke-width="4" stroke-linecap="round" stroke-miterlimit="10" x1="57.949" y1="2.454" x2="57.949" y2="42.935" />
	<path id="mudanca_x5F_de_x5F_habitos_2_" display="none" fill="none" stroke="#737375" stroke-width="4" stroke-linecap="square" stroke-miterlimit="10" d="
	M85.721,117.018c-3.496,3.768-7.098,4.489-11,5.121c-7.31,1.182-16.771-4.215-16.771-4.215s-8.029,5.676-14.072,3.855
	C22.095,115.223,6.866,88.895,6.866,69.729c0-11.482,1.748-28.659,19.855-33.716c23.517-6.57,31.228,6.924,31.228,6.924
	s9.253-13.755,32.963-8.727c7.72,1.637,20.4,6.936,20.482,26.092" />
	<path id="mudanca_x5F_de_x5F_habitos_1_" display="none" fill="none" stroke="#F48121" stroke-width="3" stroke-linecap="round" stroke-miterlimit="10" d="
	M123.508,80.529c0,17.604-32.174,39.048-32.174,39.048S59.75,98.135,59.75,80.529c0-10.782,5.598-18.928,15.934-19.507
	c14.588-0.815,15.867,7.126,17.252,7.083c1.199-0.035,3.403-6.273,15.037-5.882C120.555,62.646,123.508,72.95,123.508,80.529z" />
	<path id="mudanca_x5F_de_x5F_habitos" display="none" fill="#F48121" d="M81.177,25.12c-7.761,4.13-23.228,2.328-23.228,2.328
	s4.804-13.931,10.892-18.231c12.146-8.578,24.962-3.518,24.962-3.518S88.695,21.12,81.177,25.12z" />
	<path id="como_x5F_voce_x5F_esta_x5F_se_x5F_sentindo_4_" display="none" fill="none" stroke="#737375" stroke-width="4" stroke-miterlimit="10" d="
	M54.531,20.141c7.605,0.359,14.441,3.118,14.646,14.088c0.123,6.642,0,29.725,0,29.725c0,16.774-13.601,30.374-30.376,30.374h-1.043
	c-16.775,0-30.374-13.6-30.374-30.374c0,0-0.128-21.193-0.042-25.982c0.221-12.41,6.194-16.288,13.284-17.286" />
	<path id="como_x5F_voce_x5F_esta_x5F_se_x5F_sentindo_3_" display="none" fill="none" stroke="#737375" stroke-width="3" stroke-miterlimit="10" d="
	M37.759,94.328c0,0,3.125,17.132,24.988,15.847c15.94-0.938,24.646-10.983,25.315-29.467c0.838-23.131-4.955-36.701,2.367-40.585
	c15.605-8.278,18.938,10.74,18.938,10.74" />
	<circle id="como_x5F_voce_x5F_esta_x5F_se_x5F_sentindo_2_" display="none" fill="#F48121" cx="21.221" cy="20.928" r="8.036" />
	<circle id="como_x5F_voce_x5F_esta_x5F_se_x5F_sentindo_1_" display="none" fill="#F48121" cx="53.782" cy="20.928" r="8.036" />
	<circle id="como_x5F_voce_x5F_esta_x5F_se_x5F_sentindo" display="none" fill="none" stroke="#F48121" stroke-width="4" stroke-miterlimit="10" cx="112.805" cy="59.771" r="9.554" />
	<path id="Medicamento_5_" display="none" fill="none" stroke="#737375" stroke-width="4" stroke-linecap="round" d="
	M107.859,118.443c0,0-5.608-3.239-10.705-4.498c-5.096-1.25-36.343,2.678-41.943,1.34c-5.598-1.34-13.505-4.711-21.139-9.608
	C22.285,98.114,8.923,80.111,8.923,80.111s5.097-3.762,9.776-2.676C23.378,78.52,41.341,94.38,44.348,94.38
	c3.009,0,14.547,0,14.547,0" />
	<path id="Medicamento_4_" display="none" fill="none" stroke="#737375" stroke-width="4" stroke-linecap="round" d="M89.219,98.575
	l-25.151-2.007c0,0-5.099,0.884-5.599-5.262c-0.499-6.152,4.427-5.604,13.366-6.688c8.94-1.087,18.472-2.921,25.908-2.341
	c7.434,0.584,24.274,12.379,24.274,12.379" />
	<path id="Medicamento_3_" display="none" fill="none" stroke="#F48121" stroke-width="4" d="M56.363,36.232V25.22
	c0-8.729,7.076-15.807,15.808-15.807l0,0c8.729,0,15.804,7.078,15.804,15.807v34.148c0,8.729-7.074,15.805-15.804,15.805l0,0
	c-4.586,0-8.715-1.955-11.603-5.073" />
	<line id="Medicamento_2_" display="none" fill="none" stroke="#F48121" stroke-width="4" x1="64.308" y1="44.44" x2="88.035" y2="44.44" />
	<path id="Medicamento_1_" display="none" fill="none" stroke="#F48121" stroke-width="4" d="M45.706,33.317
	c11.555,0,20.925,9.371,20.925,20.928c0,11.56-9.37,20.928-20.925,20.928c-11.561,0-20.931-9.368-20.931-20.928
	C24.775,42.688,34.145,33.317,45.706,33.317z" />
	<line id="Medicamento" display="none" fill="none" stroke="#F48121" stroke-width="4" x1="30.219" y1="38.928" x2="60.956" y2="67.953" />
	<line fill="none" stroke="#F48121" stroke-width="8" stroke-linecap="round" x1="24.504" y1="116.471" x2="24.504" y2="76.585" />
	<circle fill="none" stroke="#F48121" stroke-width="8" stroke-linecap="round" cx="24.504" cy="63.366" r="13.219" />
	<line fill="none" stroke="#F48121" stroke-width="8" stroke-linecap="round" x1="24.504" y1="50.147" x2="24.504" y2="10.196" />
	<line fill="none" stroke="#F48121" stroke-width="8" stroke-linecap="round" x1="62.671" y1="115.45" x2="62.671" y2="35.51" />
	<circle fill="none" stroke="#F48121" stroke-width="8" stroke-linecap="round" cx="62.624" cy="22.395" r="13.219" />
	<line fill="none" stroke="#F48121" stroke-width="8" stroke-linecap="round" x1="101.188" y1="89.227" x2="101.188" y2="9.176" />
	<circle fill="none" stroke="#F48121" stroke-width="8" stroke-linecap="round" cx="101.188" cy="102.231" r="13.219" />
</svg>