<svg width="20" height="20" viewBox="0 0 20 20" fill="none" xmlns="http://www.w3.org/2000/svg">
<g id="Group 6">
<path id="Vector" d="M4.43248 12.0862L3.7363 14.6852L1.19177 14.739C0.431334 13.3286 0 11.7148 0 9.99997C0 8.3417 0.403287 6.77793 1.11814 5.401H1.11869L3.38403 5.81632L4.37638 8.06807C4.16869 8.67358 4.05548 9.32359 4.05548 9.99997C4.05556 10.734 4.18853 11.4374 4.43248 12.0862Z" fill="#FBBB00"/>
<path id="Vector_2" d="M19.8255 8.13184C19.9404 8.73677 20.0003 9.3615 20.0003 9.99999C20.0003 10.7159 19.925 11.4143 19.7816 12.0879C19.2948 14.3803 18.0228 16.3819 16.2607 17.7984L16.2601 17.7979L13.4068 17.6523L13.003 15.1314C14.1722 14.4457 15.086 13.3726 15.5673 12.0879H10.22V8.13184H15.6453H19.8255Z" fill="#518EF8"/>
<path id="Vector_3" d="M16.2602 17.798L16.2608 17.7986C14.547 19.176 12.37 20.0002 10.0002 20.0002C6.19196 20.0002 2.88094 17.8717 1.19189 14.7392L4.4326 12.0864C5.2771 14.3403 7.45131 15.9447 10.0002 15.9447C11.0958 15.9447 12.1223 15.6485 13.003 15.1315L16.2602 17.798Z" fill="#28B446"/>
<path id="Vector_4" d="M16.3832 2.3021L13.1436 4.95432C12.2321 4.38454 11.1545 4.0554 10.0002 4.0554C7.39352 4.0554 5.17865 5.73343 4.37645 8.06811L1.11871 5.40104H1.11816C2.78248 2.19221 6.13526 -0.00012207 10.0002 -0.00012207C12.4266 -0.00012207 14.6513 0.864186 16.3832 2.3021Z" fill="#F14336"/>
</g>
</svg>
