<svg width="401" height="513" viewBox="0 0 401 513" fill="none" xmlns="http://www.w3.org/2000/svg">
<path d="M38.208 505.333H8.44103C8.44103 505.333 0.999023 434.635 43.17 423.475C98.484 408.835 165.962 394.945 165.962 394.945C165.962 394.945 169.683 429.674 201.931 428.434C234.18 427.194 234.18 394.945 234.18 394.945C234.18 394.945 330.852 418.829 352.01 423.472C402.864 434.635 392.941 505.333 392.941 505.333H89.062" stroke="#F48220" stroke-width="14" stroke-linecap="round"/>
<path d="M105.186 159.768C107.748 161.839 110.872 164.1 114.563 166.324C126.601 173.579 144.628 180.425 168.709 179.122C192.417 177.84 212.858 171.122 227.337 164.757C230.997 163.148 234.284 161.558 237.155 160.079C234.49 165.395 231.278 170.892 227.988 174.594C223.991 179.09 217.389 183.739 211.452 187.391C208.546 189.179 205.905 190.663 203.995 191.699C203.042 192.217 202.272 192.62 201.747 192.892C201.483 193.028 201.281 193.129 201.147 193.197L201.001 193.272L200.966 193.289L200.96 193.291V193.292H200.959L183.884 201.782L202.934 202.689L203.169 197.733C202.934 202.689 202.934 202.69 202.934 202.69H202.939H202.949L202.973 202.691L203.05 202.693C203.113 202.696 203.205 202.699 203.317 202.702C203.546 202.709 203.87 202.718 204.286 202.723C205.114 202.732 206.316 202.732 207.838 202.691C210.88 202.611 215.222 202.369 220.513 201.727C231.075 200.447 245.493 197.567 260.891 191.149C276.807 184.519 287.252 170.416 293.713 158.225V267.5C293.618 267.739 293.502 268.032 293.366 268.369C292.916 269.488 292.247 271.119 291.389 273.137C289.664 277.178 287.169 282.759 284.085 288.912C277.842 301.363 269.46 315.617 260.473 324.421C239.596 344.877 225.025 358.622 198.372 357.737C174.635 356.95 162.273 345.029 144.066 327.468C143.021 326.46 141.956 325.433 140.869 324.391C131.562 315.45 122.557 301.135 115.766 288.699C112.406 282.546 109.652 276.969 107.738 272.938C106.782 270.922 106.037 269.294 105.534 268.175C105.4 267.874 105.282 267.612 105.183 267.39V159.768H105.186Z" stroke="#F48220" stroke-width="14"/>
<path d="M291.233 253.548C311.097 253.548 327.202 237.444 327.202 217.579C327.202 197.714 311.098 181.61 291.233 181.61" stroke="#F48220" stroke-width="14"/>
<path d="M108.906 181.61C89.041 181.61 72.937 197.714 72.937 217.579C72.937 237.444 89.041 253.548 108.906 253.548" stroke="#F48220" stroke-width="14"/>
<path d="M115.108 66.26C86.951 76.018 67.976 100.52 67.976 131.997C67.976 153.103 77.065 172.086 91.542 185.245" stroke="#F48220" stroke-width="14" stroke-linecap="round"/>
<path d="M313.193 187.813C321.243 176.195 325.962 162.09 325.962 146.883C325.962 127.01 319.146 110.289 306.117 97.269" stroke="#F48220" stroke-width="14" stroke-linecap="round"/>
<path d="M306.117 97.268C307.495 91.707 308.597 85.891 308.597 79.904C308.597 40.174 276.39 7.966 236.659 7.966C220.353 7.966 209.035 11.225 196.969 20.369" stroke="#F48220" stroke-width="14" stroke-linecap="round"/>
<path d="M194.488 21.435C190.46 20.733 186.315 20.369 182.085 20.369C151.541 20.369 125.443 39.405 115.007 66.261" stroke="#F48220" stroke-width="14" stroke-linecap="round"/>
<path d="M187.923 66.624C187.923 66.624 183.325 77.424 190.767 84.866C198.208 92.308 209.371 87.346 209.371 87.346" stroke="#F48220" stroke-width="14" stroke-linecap="round"/>
<path d="M137.797 87.709C137.797 87.709 148.596 92.307 156.038 84.865C163.48 77.423 158.518 66.26 158.518 66.26" stroke="#F48220" stroke-width="14" stroke-linecap="round"/>
<path d="M158.388 135.98C158.388 135.98 162.986 125.18 155.544 117.738C148.102 110.296 136.939 115.258 136.939 115.258" stroke="#F48220" stroke-width="14" stroke-linecap="round"/>
<path d="M208.518 114.89C208.518 114.89 197.717 110.292 190.275 117.734C182.833 125.176 187.795 136.339 187.795 136.339" stroke="#F48220" stroke-width="14" stroke-linecap="round"/>
<path d="M171.411 350.947C171.411 350.947 173.4 366.623 171.411 376.34C170.01 383.2 165.371 393.215 165.371 393.215" stroke="#F48220" stroke-width="14" stroke-linecap="round"/>
<path d="M227.977 355.255C227.977 355.255 227.365 364.606 229.215 373.871C230.455 380.078 235.417 393.722 235.417 393.722" stroke="#F48220" stroke-width="14" stroke-linecap="round"/>
<path d="M25.328 119.069L53.769 153.13L24.291 152.452L55.683 188.609" stroke="#F48220" stroke-width="14" stroke-linecap="round"/>
<path d="M384.855 112.154L356.832 139.171L379.308 146.318L346.721 177.819" stroke="#F48220" stroke-width="14" stroke-linecap="round"/>
<path d="M136.862 398.656C136.862 398.656 134.352 458.191 202.883 458.196C270.213 458.203 266.449 401.148 266.449 401.148" stroke="#F48220" stroke-width="14"/>
</svg>
