<svg width="30" height="30" viewBox="0 0 30 30" fill="none" xmlns="http://www.w3.org/2000/svg">
    <path d="M17.7029 13C17.7029 12.3067 17.4895 11.7733 17.0629 11.4C16.6469 11.0267 16.0762 10.84 15.3509 10.84C14.8175 10.84 14.3589 10.9627 13.9749 11.208C13.6015 11.4427 13.2922 11.7627 13.0469 12.168L12.0069 11.512C12.2522 11.1387 12.5242 10.8133 12.8229 10.536C13.1215 10.248 13.4842 10.0293 13.9109 9.88C14.3482 9.72 14.8815 9.64 15.5109 9.64C16.1829 9.64 16.7802 9.78933 17.3029 10.088C17.8255 10.376 18.2362 10.776 18.5349 11.288C18.8442 11.7893 18.9989 12.36 18.9989 13C18.9989 13.608 18.8389 14.1627 18.5189 14.664C18.1989 15.1547 17.7829 15.5547 17.2709 15.864C16.7589 16.1627 16.2042 16.328 15.6069 16.36L15.4949 18.28H14.5349L14.2149 15.48H14.6309C15.2709 15.48 15.8202 15.3573 16.2789 15.112C16.7375 14.8667 17.0895 14.5573 17.3349 14.184C17.5802 13.8 17.7029 13.4053 17.7029 13ZM14.1669 20.36C14.1669 20.1147 14.2522 19.9067 14.4229 19.736C14.6042 19.5653 14.8122 19.48 15.0469 19.48C15.2922 19.48 15.5002 19.5653 15.6709 19.736C15.8415 19.9067 15.9269 20.1147 15.9269 20.36C15.9269 20.5947 15.8415 20.8027 15.6709 20.984C15.5002 21.1547 15.2922 21.24 15.0469 21.24C14.8122 21.24 14.6042 21.1547 14.4229 20.984C14.2522 20.8027 14.1669 20.5947 14.1669 20.36Z" fill="#F48121" />
    <circle cx="15" cy="15" r="14" stroke="#F48121" stroke-width="2" />
</svg>
