<?xml version="1.0" encoding="utf-8"?>
<!-- Generator: Adobe Illustrator 16.0.0, SVG Export Plug-In . SVG Version: 6.00 Build 0)  -->
<!DOCTYPE svg PUBLIC "-//W3C//DTD SVG 1.1//EN" "http://www.w3.org/Graphics/SVG/1.1/DTD/svg11.dtd">
<svg version="1.1" id="Layer_1" xmlns="http://www.w3.org/2000/svg" xmlns:xlink="http://www.w3.org/1999/xlink" x="0px" y="0px"
	 width="512px" height="512px" viewBox="0 0 512 512" enable-background="new 0 0 512 512" xml:space="preserve">
<path fill="#F48220" d="M198.583,8.479c-11.444,0.249-15.638,0.516-17.701,1.129c-11.476,3.406-18.794,11.111-22.139,23.299
	c-1.274,4.65-1.988,17.657-1.593,28.896l0.28,7.926l-25.522,0.341c-28.744,0.387-42.328,0.994-46.659,2.093
	c-5.028,1.274-9.556,3.898-12.84,7.44c-4.763,5.127-6.94,9.799-8.358,17.891c-0.546,3.141-1.472,20.357-1.646,30.588l-0.015,1.138
	h193.44c183.808,0,193.454-0.046,193.683-0.888c0.757-2.677,1.395-13.857,1.136-19.917c-0.879-20.872-9.101-32.196-26.97-37.156
	c-3.913-1.092-4.974-1.137-24.253-1.16c-11.09-0.009-23.513-0.069-27.607-0.137l-7.449-0.106l-0.242-16.875
	c-0.182-15.032-0.333-17.278-1.215-20.577c-3.305-12.112-10.253-19.621-21.053-22.722c-2.261-0.653-6.492-0.925-19.144-1.244
	C303.906,7.971,220.578,7.993,198.583,8.479z M332.151,39.445c1.213,0.606,2.548,1.813,3.186,2.86
	c1.001,1.699,1.091,2.479,1.198,12.756c0.137,12.53-0.015,13.242-3.397,14.82c-1.987,0.933-4.384,0.97-74.205,0.978l-72.15,0.007
	V54.637V38.399h71.625C329.846,38.399,330.042,38.399,332.151,39.445z M94.085,166.643c-0.629,3.193-0.85,302.557-0.234,308.138
	c1.107,9.981,3.382,15.655,8.358,20.858c4.998,5.232,11.232,7.994,20.47,9.055c3.497,0.424,41.896,0.531,137.118,0.409
	c125.201-0.167,132.453-0.212,135.896-1.076c5.385-1.335,8.752-2.745,12.423-5.188c5.841-3.868,9.892-10.664,11.895-19.962
	l1.046-4.854V319.514V164.997l-163.299-0.129l-163.3-0.128L94.085,166.643z M180.882,333.468v109.337h-14.259h-14.259V333.802
	c0-59.962,0.152-109.169,0.326-109.351c0.183-0.19,6.599-0.341,14.259-0.341h13.933V333.468z M240.744,333.59l0.122,109.215h-14.258
	H212.35V333.453V224.094l14.136,0.137l14.129,0.137L240.744,333.59z M300.357,333.468v109.337h-14.016h-14.016V333.468V224.11
	h14.016h14.016V333.468z M360.335,333.712v109.093h-14.259h-14.259V333.712V224.618h14.259h14.259V333.712z"/>
</svg>
