<svg width="869.99994" height="520.13854" xmlns="http://www.w3.org/2000/svg" data-name="Layer 1">

 <g>
  <title>Layer 1</title>
  <path id="svg_2" fill="#fff" d="m831.72785,356.0788a393.41394,393.41394 0 0 0 -54.82622,54.44229a394.561,394.561 0 0 0 -61.752,103.194c-1.112,2.72484 3.31272,3.911 4.4123,1.21642a392.34209,392.34209 0 0 1 115.40147,-155.61717c2.28437,-1.86015 -0.97,-5.08035 -3.23555,-3.23554z"/>
  <path id="svg_4" fill="#fff" d="m52.56673,294.44208a540.35491,540.35491 0 0 1 75.30383,74.77651a548.0761,548.0761 0 0 1 59.38606,87.89068a545.835,545.835 0 0 1 25.43041,53.8463c1.52726,3.74257 -4.55,5.37169 -6.06031,1.67075a536.35952,536.35952 0 0 0 -49.009,-92.727a539.73411,539.73411 0 0 0 -65.72875,-81.19837a538.44066,538.44066 0 0 0 -43.76626,-39.81484c-3.13759,-2.55492 1.33232,-6.97788 4.444,-4.444l0.00002,-0.00003z"/>
  <path id="svg_5" fill="#f2f2f2" d="m624.49997,519l-365,0l0,-374.5c0,-79.67773 64.82227,-144.5 144.49976,-144.5l76.00049,0c79.67749,0 144.49975,64.82227 144.49975,144.5l0,374.5z"/>
  <path id="svg_6" fill="#ccc" d="m548.49997,519l-289,0l0,-374.5a143.38177,143.38177 0 0 1 27.59571,-84.94434c0.66381,-0.90478 1.32592,-1.79785 2.00878,-2.68115a144.46633,144.46633 0 0 1 30.75415,-29.85058c0.65967,-0.48 1.322,-0.95166 1.99415,-1.42334a144.15958,144.15958 0 0 1 31.47216,-16.459c0.66089,-0.25049 1.33374,-0.50146 2.00659,-0.74219a144.01979,144.01979 0 0 1 31.1084,-7.33593c0.65772,-0.08985 1.333,-0.16016 2.0083,-0.23047a146.28769,146.28769 0 0 1 31.10547,0c0.67334,0.07031 1.34864,0.14062 2.01416,0.23144a143.995,143.995 0 0 1 31.10034,7.335c0.6731,0.24073 1.346,0.4917 2.00879,0.74268a143.79947,143.79947 0 0 1 31.10645,16.21582c0.67163,0.46143 1.344,0.93311 2.00635,1.40478a145.987,145.987 0 0 1 18.38354,15.564a144.305,144.305 0 0 1 12.72437,14.55078c0.68066,0.88037 1.34277,1.77344 2.00537,2.67676a143.38227,143.38227 0 0 1 27.59692,84.94574l0,374.5z"/>
  <circle id="svg_7" fill="#f48121" r="16" cy="335.5" cx="524.99994"/>
  <polygon id="svg_8" fill="#ffb8b8" points="594.599 507.783 582.339 507.783 576.506 460.495 594.601 460.496 594.599 507.783"/>
  <path id="svg_9" fill="#2f2e41" d="m573.58165,504.27982l23.64384,0a0,0 0 0 1 0,0l0,14.88687a0,0 0 0 1 0,0l-38.53071,0a0,0 0 0 1 0,0l0,0a14.88688,14.88688 0 0 1 14.88688,-14.88688l-0.00001,0.00001z"/>
  <polygon id="svg_10" fill="#ffb8b8" points="655.599 507.783 643.339 507.783 637.506 460.495 655.601 460.496 655.599 507.783"/>
  <path id="svg_11" fill="#2f2e41" d="m634.58165,504.27982l23.64384,0a0,0 0 0 1 0,0l0,14.88687a0,0 0 0 1 0,0l-38.53071,0a0,0 0 0 1 0,0l0,0a14.88688,14.88688 0 0 1 14.88688,-14.88688l-0.00001,0.00001z"/>
  <path id="svg_12" fill="#ffb8b8" d="m533.09755,338.66962a10.74272,10.74272 0 0 1 4.51052,-15.84307l41.67577,-114.86667l20.50713,11.19139l-47.58476,109.77071a10.80091,10.80091 0 0 1 -19.10866,9.74764z"/>
  <path id="svg_13" fill="#ffb8b8" d="m649.33641,360.25357a10.74269,10.74269 0 0 1 -2.89305,-16.21659l-12.91076,-121.50941l23.33776,1.06622l5.36567,119.52048a10.80091,10.80091 0 0 1 -12.89962,17.13934l0,-0.00004z"/>
  <circle id="svg_14" fill="#ffb8b8" r="24.56103" cy="162.12254" cx="612.1058"/>
  <path id="svg_15" fill="#f48121" d="m649.17955,332.61864l-74.04687,0l0.08911,-0.57617c0.13306,-0.86133 13.19678,-86.439 3.56177,-114.436a11.813,11.813 0 0 1 6.06933,-14.5835l0.00025,0c13.77173,-6.48535 40.20752,-14.47119 62.52,4.90918a28.23448,28.23448 0 0 1 9.45947,23.396l-7.65306,101.29049z"/>
  <path id="svg_16" fill="#f48121" d="m589.35436,258.25047l-33.33667,-6.7632l15.62622,-37.02978a13.99723,13.99723 0 0 1 27.10571,6.99755l-9.39526,36.79543z"/>
  <path id="svg_17" fill="#f48121" d="m632.0504,270.80809l-2.00415,-45.94141c-1.51977,-8.63623 3.42408,-16.80029 11.02735,-18.13476c7.60547,-1.32959 15.03174,4.66016 16.55835,13.35986l7.533,42.92774l-33.11455,7.78857z"/>
  <path id="svg_18" fill="#2f2e41" d="m646.71603,327.1186c11.91455,45.37671 13.21436,103.0694 10,166l-16,-2l-29,-120l-16,122l-18,-1c-5.37744,-66.02972 -10.61328,-122.71527 -2,-160l71,-5z"/>
  <path id="svg_19" fill="#2f2e41" d="m628.28907,181.10401c-4.582,4.88079 -13.09131,2.26067 -13.68835,-4.40717a8.05467,8.05467 0 0 1 0.01014,-1.55569c0.30826,-2.95357 2.01461,-5.63506 1.60587,-8.7536a4.59046,4.59046 0 0 0 -0.84011,-2.14892c-3.65124,-4.88933 -12.22227,2.18687 -15.6682,-2.23929c-2.113,-2.714 0.3708,-6.98713 -1.25065,-10.02051c-2.14006,-4.00358 -8.47881,-2.0286 -12.45388,-4.22116c-4.42275,-2.43948 -4.15822,-9.22524 -1.24686,-13.35269c3.55052,-5.03359 9.77572,-7.71951 15.92336,-8.10661s12.25292,1.27475 17.99229,3.51145c6.52109,2.54134 12.98768,6.05351 17.00067,11.78753c4.88021,6.97317 5.34986,16.34793 2.90917,24.50174c-1.4847,4.96005 -6.55178,11.01924 -10.29345,15.00492z"/>
  <path id="svg_21" fill="#fff" d="m468.99997,410.5l-130,0a6.46539,6.46539 0 0 1 -6.5,-6.41531l0,-290.16942a6.46539,6.46539 0 0 1 6.5,-6.41531l130,0a6.46539,6.46539 0 0 1 6.5,6.41531l0,290.16942a6.46539,6.46539 0 0 1 -6.5,6.41531z"/>
  <rect id="svg_22" fill="#ccc" height="2" width="143" y="201.38965" x="332.49994"/>
  <rect id="svg_23" fill="#ccc" height="2" width="143" y="315.5" x="332.99994"/>
  <rect id="svg_24" fill="#ccc" height="304" width="2" y="107.5" x="377.49994"/>
  <rect id="svg_25" fill="#ccc" height="304" width="2" y="107.5" x="427.49994"/>
 </g>
</svg>