<?xml version="1.0" encoding="utf-8"?>
<!-- Generator: Adobe Illustrator 16.0.0, SVG Export Plug-In . SVG Version: 6.00 Build 0)  -->
<!DOCTYPE svg PUBLIC "-//W3C//DTD SVG 1.1//EN" "http://www.w3.org/Graphics/SVG/1.1/DTD/svg11.dtd">
<svg version="1.1" id="Layer_1" xmlns="http://www.w3.org/2000/svg" xmlns:xlink="http://www.w3.org/1999/xlink" x="0px" y="0px"
	 width="512px" height="512px" viewBox="0 0 512 512" enable-background="new 0 0 512 512" xml:space="preserve">
<path fill="none" stroke="#F48220" stroke-width="18" d="M326.343,437.823c0,40.747-23.266,65.245-76.663,65.245
	c-53.395,0-81.25-24.498-81.25-65.245"/>
<path display="none" fill="none" stroke="#747476" stroke-width="8" d="M411.414,434.961l-0.372-0.021l-0.231-0.008H96.095
	c-57.209,0-83.111-71.539-39.156-108.152l16.389-13.657c18.989-15.819,29.96-39.269,29.96-63.989v-90.249
	c0-82.935,67.235-150.163,150.171-150.163c82.943,0,150.157,67.229,150.157,150.163v92.406c0,23.351,9.807,45.633,27.032,61.41
	l24.46,22.424C495.571,372.214,466.11,439.513,411.414,434.961z"/>
</svg>
