<?xml version="1.0" encoding="utf-8"?>
<!-- Generator: Adobe Illustrator 16.0.0, SVG Export Plug-In . SVG Version: 6.00 Build 0)  -->
<!DOCTYPE svg PUBLIC "-//W3C//DTD SVG 1.1//EN" "http://www.w3.org/Graphics/SVG/1.1/DTD/svg11.dtd">
<svg version="1.1" id="Layer_1" xmlns="http://www.w3.org/2000/svg" xmlns:xlink="http://www.w3.org/1999/xlink" x="0px" y="0px"
	 width="512px" height="512px" viewBox="0 0 512 512" enable-background="new 0 0 512 512" xml:space="preserve">
<path fill="none" stroke="#747476" stroke-width="18" d="M255.103,12.287c59.87,0,108.409,48.532,108.409,108.408
	c0,59.87-48.539,108.402-108.409,108.402c-59.869,0-108.401-48.532-108.401-108.402C146.701,60.819,195.233,12.287,255.103,12.287z"
	/>
<path fill="none" stroke="#747476" stroke-width="18" d="M336.174,248.698c-28.162-11.995-48.816-12.799-81.071-12.799
	c-134.318,0-243.212,114.619-243.212,256.01c0,0,108.894,0,243.212,0c42.813,0,36,0,70.948,0"/>
<path display="none" fill="#F48220" d="M333.198,236.635c-3.958,1.754-7.492,5.241-8.557,8.469
	c-0.409,1.216-1.699,8.282-2.843,15.703c-1.168,7.432-2.205,13.568-2.284,13.676c-0.851,0.797-7.759,2.828-8.396,2.47
	c-0.452-0.265-6.323-4.41-13.059-9.204c-9.977-7.113-12.897-8.861-15.754-9.445c-4.41-0.896-9.472-0.066-13.084,2.152
	c-4.729,2.91-27.053,24.92-28.594,28.188c-1.801,3.813-1.887,9.75-0.193,13.1c0.684,1.34,4.995,7.199,9.584,13.018
	c4.583,5.818,8.576,10.973,8.895,11.45c0.306,0.505-0.106,2.497-0.957,4.677l-1.494,3.824l-12.972,1.779
	c-7.134,0.984-14.447,2.101-16.253,2.498c-4.815,1.021-8.361,3.771-10.686,8.289l-1.987,3.853v18.519
	c0,18.064,0.04,18.598,1.647,21.998c1.721,3.612,5.188,7.039,8.317,8.183c1.009,0.386,8.076,1.554,15.707,2.616
	c7.631,1.063,14.533,2.074,15.336,2.246c1.022,0.211,1.88,1.406,2.89,4.012l1.436,3.719l-9.584,12.221
	c-6.449,8.237-9.863,13.18-10.441,15.171c-1.089,3.692-0.512,8.556,1.447,12.273c2.02,3.839,24.981,25.718,29.02,27.631
	c3.838,1.847,9.458,2.432,12.989,1.354c1.489-0.452,8.503-4.968,15.61-10.018l12.897-9.165l3.854,1.622
	c4.448,1.86,3.853,0.265,6.401,17.229c0.983,6.55,2.259,13.139,2.843,14.679c1.235,3.202,4.306,6.323,8.264,8.355
	c2.67,1.367,3.587,1.421,23.245,1.421H376.9l3.653-1.912c3.959-2.102,6.416-4.742,7.69-8.263c0.438-1.224,1.754-8.368,2.91-15.86
	c1.153-7.491,2.324-13.814,2.603-14.068c0.279-0.252,2.101-1.063,4.052-1.793l3.574-1.328l12.911,9.191
	c13.763,9.804,16.299,10.999,22.065,10.336c5.656-0.639,8.714-2.737,21.571-14.878c14.187-13.418,15.754-15.675,15.754-22.569
	c0-5.563-0.479-6.441-10.973-19.7c-4.676-5.924-8.661-11.145-8.847-11.608c-0.188-0.465,0.411-2.471,1.329-4.45l1.674-3.601
	l13.788-1.873c7.571-1.021,14.983-2.164,16.419-2.51c3.426-0.838,7.624-4.49,9.644-8.396c1.567-3.003,1.595-3.573,1.595-22.265
	v-19.184l-1.887-3.426c-1.767-3.188-4.41-5.66-7.837-7.346c-0.784-0.385-8.275-1.635-16.659-2.777
	c-8.382-1.143-15.423-2.283-15.646-2.523c-0.213-0.252-1.037-1.965-1.809-3.813l-1.435-3.359l9.34-11.852
	c5.142-6.521,9.776-12.857,10.321-14.079c0.544-1.222,0.981-3.905,0.981-5.951c-0.014-6.456-1.778-8.899-16.392-22.647
	c-7.2-6.774-13.79-12.66-14.639-13.071c-2.923-1.44-8.396-2.066-11.902-1.351c-2.657,0.539-5.964,2.564-16.353,9.957l-13.032,9.285
	l-3.984-1.435l-4.012-1.435l-1.195-7.705c-3.667-23.691-4.145-25.16-9.271-28.626c-4.519-3.042-6.071-3.234-26.741-3.222
	C337.21,235.088,336.572,235.135,333.198,236.635z M374.087,265.993c1.446,9.737,2.762,18.438,2.947,19.354
	c0.291,1.422,1.249,1.967,7.041,3.879c3.692,1.222,9.458,3.535,12.805,5.141c3.374,1.607,6.483,2.697,6.936,2.433
	c0.479-0.266,7.599-5.301,15.834-11.198l14.983-10.721l10.6,10.108c7.548,7.2,10.441,10.375,10.029,11.013
	c-0.305,0.505-5.619,7.305-11.781,15.145l-11.226,14.252l3.054,5.791c1.676,3.177,4.134,8.664,5.476,12.168
	c1.328,3.509,2.482,6.445,2.59,6.537c0.079,0.08,8.264,1.223,18.186,2.537c9.924,1.301,19.035,2.551,20.284,2.764l2.258,0.371
	v14.106c0,12.858-0.104,14.136-1.222,14.427c-0.664,0.174-9.644,1.435-19.938,2.789c-10.31,1.355-18.981,2.672-19.288,2.924
	c-0.308,0.252-1.636,3.254-2.977,6.668c-1.328,3.429-3.68,8.715-5.221,11.742c-1.541,3.028-2.63,5.926-2.443,6.403
	c0.198,0.491,5.365,7.253,11.503,15.037c6.124,7.784,11.133,14.425,11.133,14.771c0,0.332-4.65,5.049-10.335,10.453l-10.349,9.845
	L418.986,453.4l-15.993-11.331l-6.854,3.256c-3.772,1.792-9.563,4.09-12.858,5.113l-5.979,1.858l-0.478,2.977
	c-0.268,1.646-1.596,10.572-2.977,19.846l-2.483,16.856l-14.731,0.174l-14.719,0.186l-0.346-1.5
	c-0.198-0.838-1.476-9.231-2.843-18.69c-1.354-9.457-2.736-17.802-3.058-18.519c-0.384-0.902-2.43-1.938-6.375-3.24
	c-3.188-1.051-8.847-3.348-12.566-5.128l-6.772-3.214l-15.755,11.264l-15.754,11.278l-10.682-10.188l-10.681-10.177l11.849-15.035
	l11.836-15.038l-2.854-5.395c-1.58-2.963-4.038-8.501-5.446-12.301l-2.578-6.934l-20.369-2.764
	c-11.211-1.541-20.457-2.814-20.55-2.844c-0.1-0.025-0.172-6.455-0.172-14.268c0-7.823,0.073-14.213,0.172-14.213
	c0.094,0,8.914-1.194,19.601-2.645c10.68-1.445,19.777-2.645,20.203-2.645s1.914-3.055,3.336-6.787
	c1.406-3.73,3.893-9.283,5.539-12.354l2.976-5.58l-11.69-14.89c-6.429-8.196-11.688-15.063-11.688-15.265
	c0-0.198,4.754-4.875,10.572-10.387l10.573-10.018l15.81,11.251l15.807,11.267l6.655-3.082c3.666-1.701,9.339-3.959,12.633-5.009
	c3.826-1.223,6.15-2.351,6.457-3.095c0.278-0.665,1.62-9.086,3.014-18.717c1.383-9.639,2.645-17.894,2.791-18.354
	c0.213-0.624,3.854-0.824,15.104-0.824h14.822L374.087,265.993z M347.079,310.229c-19.222,2.936-36.888,15.314-45.842,32.106
	c-9.14,17.161-8.527,38.163,1.595,55.419c4.582,7.798,14.904,17.627,23.086,21.998c10.759,5.739,21.705,8.183,33.993,7.545
	c26.635-1.354,49.362-18.982,56.521-43.835c1.78-6.179,2.18-19.368,0.771-25.983c-2.988-14.055-10.574-25.942-22.224-34.856
	c-11.065-8.448-21.826-12.142-36.465-12.487C353.376,310.003,348.221,310.057,347.079,310.229z M367.442,324.773
	c12.515,2.496,25.358,12.115,31.164,23.379c3.613,7.041,5.129,13.19,5.103,20.828c-0.055,12.328-4.451,22.344-13.63,31.084
	c-6.218,5.926-10.733,8.715-18.385,11.356c-4.702,1.636-6.111,1.808-14.904,1.836c-9.14,0.025-10.068-0.095-15.688-2.008
	c-11.915-4.063-21.12-11.743-26.619-22.21c-4.079-7.757-5.486-14.055-5.062-22.607c1.063-22.052,18.93-40.33,41.632-42.629
	C357.028,323.207,360.563,323.419,367.442,324.773z"/>
</svg>
