<?xml version="1.0" encoding="utf-8"?>
<!-- Generator: Adobe Illustrator 16.0.0, SVG Export Plug-In . SVG Version: 6.00 Build 0)  -->
<!DOCTYPE svg PUBLIC "-//W3C//DTD SVG 1.1//EN" "http://www.w3.org/Graphics/SVG/1.1/DTD/svg11.dtd">
<svg version="1.1" id="Layer_1" xmlns="http://www.w3.org/2000/svg" xmlns:xlink="http://www.w3.org/1999/xlink" x="0px" y="0px"
	 width="512px" height="512px" viewBox="0 0 512 512" enable-background="new 0 0 512 512" xml:space="preserve">
<path display="none" fill="none" stroke="#747476" stroke-width="8" d="M255.103,12.287c59.87,0,108.409,48.532,108.409,108.408
	c0,59.87-48.539,108.402-108.409,108.402c-59.869,0-108.401-48.532-108.401-108.402C146.701,60.819,195.233,12.287,255.103,12.287z"
	/>
<path display="none" fill="none" stroke="#747476" stroke-width="8" d="M336.174,248.698
	c-28.162-11.995-48.817-12.799-81.071-12.799c-134.318,0-243.212,114.618-243.212,256.01c0,0,108.894,0,243.212,0
	c42.813,0,36,0,70.948,0"/>
<path fill="#F48220" d="M333.198,236.635c-3.958,1.754-7.492,5.241-8.556,8.469c-0.41,1.216-1.7,8.282-2.843,15.702
	c-1.168,7.432-2.205,13.569-2.284,13.676c-0.851,0.797-7.759,2.829-8.396,2.47c-0.452-0.265-6.323-4.41-13.058-9.204
	c-9.977-7.113-12.898-8.861-15.754-9.445c-4.41-0.896-9.472-0.066-13.085,2.152c-4.729,2.91-27.052,24.92-28.593,28.188
	c-1.801,3.813-1.887,9.75-0.193,13.099c0.684,1.34,4.995,7.199,9.584,13.018c4.583,5.818,8.575,10.972,8.895,11.45
	c0.305,0.505-0.106,2.497-0.957,4.677l-1.494,3.824l-12.972,1.779c-7.134,0.984-14.447,2.101-16.253,2.498
	c-4.815,1.022-8.361,3.772-10.686,8.29l-1.987,3.852v18.518c0,18.065,0.04,18.598,1.647,21.999c1.721,3.612,5.188,7.039,8.317,8.182
	c1.009,0.386,8.076,1.554,15.707,2.617c7.631,1.063,14.533,2.073,15.336,2.245c1.023,0.212,1.88,1.407,2.89,4.012l1.435,3.719
	l-9.584,12.221c-6.449,8.237-9.863,13.179-10.441,15.171c-1.089,3.692-0.512,8.555,1.447,12.273
	c2.02,3.839,24.981,25.718,29.02,27.631c3.838,1.846,9.458,2.431,12.989,1.354c1.49-0.452,8.503-4.968,15.61-10.017l12.898-9.165
	l3.853,1.622c4.449,1.86,3.853,0.264,6.402,17.228c0.983,6.55,2.259,13.139,2.843,14.679c1.235,3.202,4.305,6.323,8.263,8.355
	c2.67,1.368,3.587,1.421,23.245,1.421H376.9l3.654-1.912c3.959-2.101,6.416-4.742,7.69-8.262c0.438-1.224,1.754-8.369,2.91-15.861
	c1.154-7.491,2.325-13.814,2.603-14.068c0.279-0.252,2.1-1.063,4.052-1.793l3.574-1.328l12.911,9.191
	c13.763,9.804,16.299,10.999,22.065,10.336c5.657-0.639,8.714-2.737,21.572-14.878c14.186-13.418,15.754-15.675,15.754-22.569
	c0-5.564-0.479-6.442-10.973-19.7c-4.676-5.924-8.661-11.145-8.847-11.609c-0.187-0.465,0.411-2.47,1.329-4.45l1.674-3.6
	l13.788-1.874c7.572-1.021,14.984-2.164,16.419-2.51c3.426-0.837,7.624-4.49,9.644-8.395c1.567-3.003,1.594-3.573,1.594-22.265
	v-19.183l-1.886-3.426c-1.767-3.188-4.41-5.66-7.837-7.346c-0.784-0.385-8.276-1.635-16.659-2.777
	c-8.382-1.142-15.423-2.283-15.647-2.523c-0.213-0.252-1.037-1.965-1.808-3.813l-1.435-3.36l9.34-11.851
	c5.141-6.521,9.776-12.857,10.321-14.079c0.544-1.222,0.982-3.905,0.982-5.951c-0.014-6.456-1.779-8.9-16.392-22.648
	c-7.2-6.774-13.79-12.66-14.639-13.071c-2.923-1.44-8.396-2.066-11.902-1.35c-2.657,0.539-5.964,2.564-16.353,9.957l-13.032,9.285
	l-3.984-1.435l-4.012-1.435l-1.195-7.704c-3.667-23.692-4.145-25.16-9.271-28.627c-4.518-3.042-6.071-3.234-26.741-3.222
	C337.21,235.088,336.572,235.135,333.198,236.635z M374.087,265.993c1.446,9.737,2.762,18.438,2.947,19.354
	c0.291,1.422,1.249,1.967,7.041,3.88c3.693,1.221,9.458,3.534,12.805,5.14c3.374,1.607,6.483,2.697,6.935,2.433
	c0.479-0.266,7.599-5.301,15.834-11.199l14.984-10.72l10.599,10.108c7.548,7.201,10.442,10.375,10.03,11.013
	c-0.305,0.505-5.619,7.305-11.782,15.144l-11.225,14.253l3.054,5.791c1.675,3.176,4.133,8.663,5.475,12.168
	c1.328,3.508,2.483,6.444,2.59,6.536c0.079,0.08,8.264,1.223,18.186,2.538c9.923,1.301,19.035,2.55,20.284,2.763l2.258,0.372v14.106
	c0,12.858-0.105,14.135-1.222,14.426c-0.664,0.174-9.644,1.435-19.938,2.79c-10.309,1.355-18.981,2.671-19.288,2.923
	c-0.307,0.253-1.635,3.254-2.976,6.668c-1.328,3.429-3.68,8.715-5.221,11.742c-1.541,3.029-2.63,5.927-2.443,6.404
	c0.198,0.491,5.365,7.253,11.503,15.037c6.124,7.784,11.132,14.425,11.132,14.771c0,0.332-4.65,5.048-10.335,10.453l-10.348,9.844
	l-15.98-11.331l-15.993-11.331l-6.854,3.256c-3.773,1.792-9.564,4.09-12.859,5.113l-5.978,1.859l-0.478,2.976
	c-0.267,1.647-1.595,10.573-2.976,19.846l-2.484,16.857l-14.731,0.173l-14.719,0.186l-0.346-1.5
	c-0.198-0.838-1.475-9.232-2.842-18.691c-1.355-9.457-2.737-17.801-3.058-18.518c-0.384-0.902-2.43-1.938-6.375-3.24
	c-3.188-1.051-8.847-3.348-12.566-5.128l-6.773-3.214l-15.755,11.264l-15.754,11.278l-10.681-10.188l-10.681-10.176l11.849-15.036
	l11.836-15.037l-2.855-5.395c-1.58-2.963-4.038-8.501-5.446-12.301l-2.578-6.934l-20.369-2.763
	c-11.211-1.542-20.457-2.815-20.55-2.844c-0.1-0.026-0.172-6.455-0.172-14.267c0-7.824,0.073-14.214,0.172-14.214
	c0.094,0,8.914-1.194,19.601-2.644c10.68-1.446,19.777-2.644,20.203-2.644s1.913-3.055,3.335-6.788
	c1.407-3.73,3.893-9.283,5.539-12.353l2.976-5.58l-11.69-14.89c-6.429-8.196-11.688-15.064-11.688-15.265
	c0-0.198,4.754-4.875,10.573-10.387l10.573-10.017l15.809,11.251l15.807,11.266l6.655-3.082c3.666-1.701,9.339-3.959,12.633-5.008
	c3.826-1.223,6.15-2.351,6.457-3.095c0.278-0.665,1.62-9.086,3.014-18.717c1.383-9.639,2.644-17.893,2.791-18.353
	c0.213-0.624,3.853-0.824,15.104-0.824h14.823L374.087,265.993z M347.079,310.229c-19.222,2.935-36.888,15.314-45.842,32.106
	c-9.14,17.161-8.527,38.163,1.595,55.419c4.582,7.798,14.904,17.627,23.086,21.998c10.759,5.739,21.705,8.183,33.993,7.545
	c26.635-1.354,49.362-18.982,56.522-43.835c1.78-6.179,2.179-19.368,0.771-25.983c-2.988-14.055-10.574-25.943-22.224-34.857
	c-11.065-8.448-21.826-12.142-36.464-12.487C353.376,310.003,348.221,310.056,347.079,310.229z M367.442,324.773
	c12.515,2.497,25.359,12.115,31.164,23.379c3.614,7.041,5.129,13.191,5.103,20.829c-0.055,12.328-4.451,22.343-13.63,31.083
	c-6.218,5.926-10.733,8.715-18.385,11.357c-4.702,1.636-6.111,1.807-14.904,1.836c-9.14,0.025-10.068-0.095-15.688-2.008
	c-11.915-4.063-21.121-11.743-26.62-22.21c-4.079-7.757-5.486-14.055-5.061-22.608c1.063-22.051,18.93-40.33,41.632-42.628
	C357.028,323.207,360.563,323.419,367.442,324.773z"/>
</svg>
