<svg width="20" height="20" viewBox="0 0 11 15" fill="none" xmlns="http://www.w3.org/2000/svg">
    <path d="M7.09546 12.64C6.32836 12.2845 4.90338 11.3834 3.73916 9.25883C2.49794 6.99369 2.41726 4.53055 2.47203 3.32539C2.48726 2.99029 2.65555 2.66782 2.93996 2.42108C3.63472 1.81834 4.69737 1.94394 5.23247 2.69203L5.66009 3.28987C6.01108 3.78056 6.00407 4.44201 5.64276 4.92515C5.05416 5.71223 5.00863 6.77978 5.52809 7.61411L5.98601 8.34962C6.37189 8.96941 7.10159 9.28506 7.81752 9.14187C8.08795 9.08779 8.3663 9.18595 8.54298 9.39771L9.15378 10.1298C9.766 10.9253 9.43735 12.0875 8.49724 12.4436L8.03067 12.6204C7.68209 12.7524 7.35604 12.7607 7.09546 12.64Z" stroke="#D8D8D8" />
</svg>
    