<?xml version="1.0" encoding="utf-8"?>
<!-- Generator: Adobe Illustrator 16.0.0, SVG Export Plug-In . SVG Version: 6.00 Build 0)  -->
<!DOCTYPE svg PUBLIC "-//W3C//DTD SVG 1.1//EN" "http://www.w3.org/Graphics/SVG/1.1/DTD/svg11.dtd">
<svg version="1.1" id="Layer_1" xmlns="http://www.w3.org/2000/svg" xmlns:xlink="http://www.w3.org/1999/xlink" x="0px" y="0px"
	 width="512px" height="512px" viewBox="0 0 512 512" enable-background="new 0 0 512 512" xml:space="preserve">
<path display="none" fill="none" stroke="#747476" stroke-width="8" d="M92.644,261.403c0-12.63,10.239-22.876,22.875-22.876
	h358.385c12.63,0,22.877,10.247,22.877,22.876v211.598c0,12.631-10.247,22.877-22.877,22.877H115.52
	c-12.636,0-22.875-10.246-22.875-22.877V261.403z"/>
<path display="none" fill="none" stroke="#747476" stroke-width="8" d="M446.154,238.14l-0.704,0.57
	c13.864-8.737,13.467-27.222,7.604-39.271L353.302,26.651c-8.415-14.588-27.076-19.584-41.67-11.162L27.659,179.447
	c-14.625,8.443-19.607,27.172-11.103,41.768l76.687,131.623"/>
<line display="none" fill="none" stroke="#747476" stroke-width="8" stroke-linecap="round" x1="375.968" y1="73.61" x2="179.359" y2="191.576"/>
<path fill="#F48220" d="M221.104,298.039c-10.031,0.983-19.242,5.153-26.71,12.064c-6.45,5.986-9.786,11.377-12.191,19.762
	c-1.34,4.661-1.541,12.854-0.431,17.752c1.258,5.585,3.246,10.262,6.105,14.373c4.736,6.807,10.954,12.063,18.051,15.22
	c7.328,3.276,11.014,4.065,21.893,4.648c11.707,0.64,18.922,2.338,28.408,6.687c17.247,7.907,30.382,22.801,35.103,39.839
	c0.552,2.024,1.147,4.184,1.281,4.795c0.402,1.682,2.696,3.872,4.364,4.168c3.202,0.552,6.418-1.309,6.97-4.035
	c0.327-1.639-0.76-6.807-2.473-11.72c-1.757-5.063-7.178-15.012-10.528-19.346c-10.978-14.194-27.791-24.931-45.417-28.997
	c-5.995-1.385-9.226-1.788-17.708-2.232c-8.548-0.448-10.932-0.984-16.911-3.71c-3.954-1.803-5.07-2.563-8.489-5.75
	c-3.314-3.082-4.26-4.272-5.964-7.49c-2.704-5.094-3.754-9.114-3.754-14.311c0-5.17,1.05-9.206,3.709-14.224
	c3.619-6.836,11.236-12.928,19.048-15.235c10.879-3.219,22.719-1.236,31.55,5.257c3.128,2.31,7.253,7.104,8.944,10.395
	c7.096,13.821,2.643,30.471-10.425,38.99l-2.963,1.938l3.083,0.713c1.69,0.388,4.862,1.223,7.044,1.862l3.969,1.161l2.293-2.322
	c10.782-10.918,14.55-25.153,10.5-39.793c-1.743-6.331-5.973-13.032-11.482-18.2c-7.291-6.837-16.547-11.037-26.896-12.229
	C226.83,297.592,225.668,297.592,221.104,298.039z M338.662,319.099c-2.398,1.28-3.396,3.155-3.188,6.047
	c0.135,1.891,0.401,2.546,1.444,3.572c2.473,2.473,1.071,2.368,36.458,2.368c31.514,0,32.438-0.014,34.194-0.803
	c4.854-2.19,4.885-9.309,0.045-11.438c-1.325-0.582-4.93-0.656-34.373-0.642h-32.899L338.662,319.099z M338.497,362.14
	c-4.392,2.473-4.199,8.578,0.329,11.051c1.504,0.818,2.024,0.833,34.477,0.833c32.467,0,32.988-0.015,34.477-0.833
	c4.542-2.473,4.722-8.578,0.328-11.051c-1.37-0.791-2.249-0.806-34.805-0.806C340.763,361.334,339.882,361.349,338.497,362.14z
	 M190.007,378.997c-7.908,3.754-16.792,9.92-22.221,15.445c-5.852,5.941-11.676,14.193-14.893,21.104
	c-2.421,5.196-4.922,13.328-4.967,16.159c-0.067,4.257,4.743,6.835,8.646,4.632c1.78-1.014,2.211-1.818,3.388-6.257
	c3.09-11.587,8.943-21.222,17.998-29.635c2.501-2.34,6.404-5.467,8.667-6.956c4.677-3.053,13.009-7.029,17.671-8.415l3.142-0.924
	l-3.038-1.31c-1.668-0.716-4.684-2.309-6.695-3.53l-3.663-2.22L190.007,378.997z M339.958,404.464
	c-2.74,0.774-4.589,3.336-4.589,6.375c0,2.353,1.223,4.259,3.457,5.375c1.459,0.73,3.425,0.746,49.95,0.642
	c48.134-0.09,48.432-0.104,49.623-0.923c4.408-3.067,4.052-8.609-0.685-10.945l-1.876-0.94l-47.315,0.046
	C362.506,404.106,340.657,404.287,339.958,404.464z"/>
</svg>
