<?xml version="1.0" encoding="utf-8"?>
<!-- Generator: Adobe Illustrator 16.0.0, SVG Export Plug-In . SVG Version: 6.00 Build 0)  -->
<!DOCTYPE svg PUBLIC "-//W3C//DTD SVG 1.1//EN" "http://www.w3.org/Graphics/SVG/1.1/DTD/svg11.dtd">
<svg version="1.1" id="Layer_1" xmlns="http://www.w3.org/2000/svg" xmlns:xlink="http://www.w3.org/1999/xlink" x="0px" y="0px"
	 width="512px" height="512px" viewBox="0 0 512 512" enable-background="new 0 0 512 512" xml:space="preserve">
<path fill="none" stroke="#747476" stroke-width="18" d="M92.644,261.402c0-12.629,10.239-22.875,22.875-22.875h358.385
	c12.63,0,22.877,10.247,22.877,22.875v211.599c0,12.631-10.247,22.877-22.877,22.877H115.52c-12.636,0-22.875-10.246-22.875-22.877
	L92.644,261.402L92.644,261.402z"/>
<path fill="none" stroke="#747476" stroke-width="18" d="M446.154,238.14l-0.704,0.57c13.864-8.737,13.467-27.222,7.604-39.271
	L353.302,26.651c-8.415-14.588-27.076-19.584-41.67-11.162L27.659,179.447c-14.625,8.443-19.607,27.172-11.103,41.768
	l76.687,131.623"/>
<line fill="none" stroke="#747476" stroke-width="18" stroke-linecap="round" x1="375.968" y1="73.61" x2="179.359" y2="191.576"/>
<path display="none" fill="#F48220" d="M221.104,298.039c-10.031,0.982-19.242,5.152-26.71,12.064
	c-6.45,5.985-9.786,11.377-12.191,19.762c-1.34,4.66-1.541,12.854-0.431,17.752c1.258,5.585,3.246,10.262,6.105,14.373
	c4.736,6.807,10.954,12.063,18.051,15.22c7.328,3.276,11.014,4.065,21.893,4.647c11.707,0.641,18.922,2.338,28.408,6.688
	c17.248,7.907,30.382,22.801,35.103,39.839c0.552,2.024,1.146,4.185,1.281,4.795c0.402,1.683,2.695,3.872,4.363,4.168
	c3.202,0.553,6.418-1.309,6.971-4.035c0.327-1.639-0.76-6.807-2.474-11.72c-1.757-5.063-7.178-15.012-10.527-19.346
	c-10.978-14.194-27.791-24.932-45.417-28.997c-5.995-1.386-9.226-1.788-17.708-2.231c-8.548-0.449-10.932-0.984-16.911-3.711
	c-3.954-1.803-5.07-2.563-8.489-5.75c-3.314-3.082-4.26-4.271-5.964-7.49c-2.704-5.094-3.754-9.113-3.754-14.311
	c0-5.17,1.05-9.206,3.709-14.224c3.619-6.837,11.236-12.929,19.048-15.235c10.879-3.219,22.719-1.236,31.55,5.258
	c3.128,2.31,7.253,7.104,8.944,10.395c7.096,13.82,2.644,30.471-10.425,38.99l-2.963,1.938l3.083,0.713
	c1.69,0.389,4.862,1.223,7.044,1.862l3.969,1.161l2.293-2.322c10.782-10.918,14.55-25.152,10.5-39.793
	c-1.743-6.331-5.973-13.032-11.482-18.2c-7.291-6.837-16.546-11.036-26.896-12.229C226.83,297.592,225.668,297.592,221.104,298.039z
	 M338.662,319.1c-2.398,1.279-3.396,3.154-3.188,6.047c0.136,1.891,0.401,2.545,1.444,3.571c2.473,2.474,1.071,2.368,36.458,2.368
	c31.514,0,32.438-0.014,34.194-0.803c4.854-2.19,4.885-9.309,0.045-11.438c-1.325-0.582-4.931-0.656-34.373-0.643h-32.899
	L338.662,319.1z M338.497,362.141c-4.392,2.473-4.199,8.577,0.329,11.051c1.504,0.817,2.023,0.832,34.477,0.832
	c32.467,0,32.988-0.015,34.478-0.832c4.542-2.474,4.722-8.578,0.328-11.051c-1.37-0.791-2.249-0.807-34.806-0.807
	C340.763,361.334,339.882,361.35,338.497,362.141z M190.007,378.997c-7.908,3.754-16.792,9.92-22.221,15.444
	c-5.852,5.941-11.676,14.193-14.893,21.104c-2.421,5.196-4.922,13.328-4.967,16.159c-0.067,4.257,4.743,6.835,8.646,4.632
	c1.78-1.014,2.211-1.818,3.388-6.257c3.09-11.587,8.943-21.223,17.998-29.635c2.501-2.34,6.404-5.467,8.667-6.956
	c4.677-3.054,13.009-7.029,17.671-8.415l3.142-0.924l-3.038-1.311c-1.668-0.716-4.684-2.309-6.695-3.529l-3.663-2.221
	L190.007,378.997z M339.958,404.464c-2.74,0.774-4.589,3.336-4.589,6.375c0,2.353,1.223,4.259,3.457,5.375
	c1.459,0.729,3.425,0.746,49.95,0.642c48.134-0.09,48.432-0.104,49.623-0.922c4.407-3.067,4.052-8.609-0.686-10.945l-1.876-0.94
	l-47.314,0.046C362.506,404.105,340.657,404.287,339.958,404.464z"/>
</svg>
