<?xml version="1.0" encoding="utf-8"?>
<!-- Generator: Adobe Illustrator 16.0.0, SVG Export Plug-In . SVG Version: 6.00 Build 0)  -->
<!DOCTYPE svg PUBLIC "-//W3C//DTD SVG 1.1//EN" "http://www.w3.org/Graphics/SVG/1.1/DTD/svg11.dtd">
<svg version="1.1" id="Layer_1" xmlns="http://www.w3.org/2000/svg" xmlns:xlink="http://www.w3.org/1999/xlink" x="0px" y="0px"
	 width="512px" height="512px" viewBox="0 0 512 512" enable-background="new 0 0 512 512" xml:space="preserve">
<path fill="none" stroke="#F48220" stroke-width="10" stroke-linecap="round" d="M93.433,232.196V422.81
	c0,18.389,14.906,33.295,33.295,33.295h77.411 M93.433,105.676V41.584c0-18.389,14.906-33.295,33.295-33.295h201.86
	c9.279,0,18.14,3.873,24.44,10.686l51.711,55.903l46.027,49.515c5.726,6.16,8.908,14.259,8.908,22.668V422.81
	c0,18.389-14.905,33.295-33.294,33.295h-76.578"/>
<path fill="none" stroke="#F48220" stroke-width="10" d="M65.133,108.173h208.092c13.791,0,24.972,11.18,24.972,24.971v71.584
	c0,13.791-11.181,24.971-24.972,24.971H65.133c-13.791,0-24.971-11.18-24.971-24.971v-71.584
	C40.162,119.354,51.342,108.173,65.133,108.173z"/>
<path fill="#F48220" d="M78.105,204.729v-72.643h28.66c5.51,0,10.204,1.052,14.082,3.156c3.878,2.081,6.833,4.978,8.867,8.69
	c2.058,3.688,3.086,7.946,3.086,12.769c0,4.824-1.041,9.081-3.122,12.77c-2.081,3.689-5.096,6.563-9.044,8.62
	c-3.925,2.056-8.678,3.085-14.259,3.085H88.108v-12.308h15.784c2.956,0,5.392-0.51,7.307-1.525c1.938-1.042,3.381-2.472,4.328-4.293
	c0.969-1.844,1.454-3.961,1.454-6.349c0-2.412-0.485-4.516-1.454-6.313c-0.946-1.821-2.389-3.228-4.328-4.221
	c-1.938-1.017-4.398-1.525-7.377-1.525H93.464v60.087H78.105z M168.528,204.729h-25.751v-72.643h25.964
	c7.307,0,13.597,1.454,18.871,4.363c5.273,2.885,9.329,7.034,12.166,12.45c2.862,5.415,4.292,11.895,4.292,19.438
	c0,7.567-1.43,14.07-4.292,19.508c-2.837,5.439-6.916,9.612-12.237,12.521C182.243,203.273,175.906,204.729,168.528,204.729z
	 M158.135,191.568h9.754c4.54,0,8.359-0.804,11.457-2.412c3.122-1.631,5.462-4.15,7.023-7.555c1.585-3.429,2.377-7.851,2.377-13.266
	c0-5.368-0.792-9.754-2.377-13.16c-1.561-3.405-3.889-5.912-6.987-7.52c-3.098-1.608-6.917-2.412-11.457-2.412h-9.79V191.568z
	 M215.447,204.729v-72.643h48.098v12.663h-32.741v17.31h29.548v12.662h-29.548v30.009H215.447z"/>
<path fill="none" stroke="#F48220" stroke-width="10" d="M334.82,8.289v121.526c0,9.194,7.452,16.647,16.647,16.647h108.207"/>
<path fill="none" stroke="#F48220" stroke-width="10" stroke-linecap="round" d="M173.341,277.145h206.428"/>
<path fill="none" stroke="#F48220" stroke-width="10" stroke-linecap="round" d="M173.341,327.087h206.428"/>
<path fill="#F48220" d="M272.736,352.425c1.994-2.366,5.643-2.366,7.637,0l55.574,65.917c2.739,3.248,0.431,8.213-3.817,8.213
	h-111.15c-4.248,0-6.556-4.965-3.817-8.213L272.736,352.425z"/>
<path fill="#F48220" d="M259.907,419.479h33.295v71.584c0,9.195-7.452,16.647-16.647,16.647l0,0
	c-9.195,0-16.647-7.452-16.647-16.647V419.479z"/>
</svg>
