<?xml version="1.0" encoding="utf-8"?>
<!-- Generator: Adobe Illustrator 16.0.0, SVG Export Plug-In . SVG Version: 6.00 Build 0)  -->
<!DOCTYPE svg PUBLIC "-//W3C//DTD SVG 1.1//EN" "http://www.w3.org/Graphics/SVG/1.1/DTD/svg11.dtd">
<svg version="1.1" id="Layer_1" xmlns="http://www.w3.org/2000/svg" xmlns:xlink="http://www.w3.org/1999/xlink" x="0px" y="0px"
	 width="128px" height="128px" viewBox="0 0 128 128" enable-background="new 0 0 128 128" xml:space="preserve">
<rect x="-2" y="-2.495" display="none" fill="#0A0A0A" width="133.5" height="133.167"/>
<path display="none" fill="none" stroke="#C0C0C1" stroke-width="4" stroke-linecap="round" d="M19.688,33.375
	c0-0.241,0.007-0.482,0.021-0.722c0.071,0.004,0.143,0.008,0.214,0.008h18.016c10.377,0,18.811-8.414,18.811-18.791V3.718
	l40.935,0.639c6.842,0.107,12.332,5.684,12.332,12.526v94.636c0,6.918-5.608,12.527-12.527,12.527H32.215
	c-6.918,0-12.527-5.609-12.527-12.527V33.375z M19.923,32.662L38.804,7.647c2.419-2.64,5.853-4.117,9.431-4.06l8.515,0.131
	c0,0,0.12,6.586,0,8.719"/>
<line fill="none" stroke="#F48121" stroke-width="4" stroke-linecap="round" x1="35.403" y1="79.149" x2="94.303" y2="79.149"/>
<line fill="none" stroke="#F48121" stroke-width="4" stroke-linecap="round" x1="35.403" y1="110.578" x2="94.303" y2="110.578"/>
<line fill="none" stroke="#F48121" stroke-width="4" stroke-linecap="round" x1="35.403" y1="94.863" x2="94.303" y2="94.863"/>
<path fill="none" stroke="#F48121" stroke-width="4" stroke-linecap="round" d="M65.097,31.005L65.097,31.005
	c-2.649,0.319-4.661,2.534-4.655,5.19c0.001,1.037,0.01,2.133,0.033,3.158c0.055,2.617,0,3.896,0,6.679
	c0,2.269,0.489,3.638,1.733,5.564c1.093,1.689,2.787,2.42,4.614,3.34c1.915,0.963,2.441,1.18,4.6,1.111
	c2.072-0.066,2.138-0.292,4.026-1.111c2.049-0.892,3.972-2.062,5.177-3.897c1.205-1.834,1.726-2.792,1.726-5.007
	c0-1.67-0.055-4.062,0-6.679c0.027-1.214,0.033-2.529,0.033-3.728c0-2.338-1.743-4.301-4.062-4.62l0,0"/>
<path fill="none" stroke="#F48121" stroke-width="4" stroke-linecap="round" d="M71.838,57.683c0,0,2.038,2.498,3.878,3.877
	c2.216,1.661,4.741,1.581,6.644,1.107c2.215-0.555,3.287-1.327,4.429-3.321c2.214-3.877,1.661-8.431,1.661-14.95
	c0-2.768,1.107-5.537,3.874-5.537c3.321,0,4.209,3.217,4.209,3.217"/>
<circle fill="none" stroke="#F48121" stroke-width="4" cx="98.043" cy="46.664" r="4.698"/>
<path fill="#F48121" d="M66.073,26.904c1.992,0,3.613,1.619,3.613,3.611c0,1.996-1.621,3.613-3.613,3.613
	c-1.999,0-3.625-1.617-3.625-3.613C62.449,28.523,64.074,26.904,66.073,26.904z"/>
<path fill="#F48121" d="M75.462,26.904c1.992,0,3.613,1.619,3.613,3.611c0,1.996-1.621,3.613-3.613,3.613
	c-1.999,0-3.624-1.617-3.624-3.613C71.838,28.523,73.463,26.904,75.462,26.904z"/>
</svg>
