<?xml version="1.0" encoding="utf-8"?>
<!-- Generator: Adobe Illustrator 16.0.0, SVG Export Plug-In . SVG Version: 6.00 Build 0)  -->
<!DOCTYPE svg PUBLIC "-//W3C//DTD SVG 1.1//EN" "http://www.w3.org/Graphics/SVG/1.1/DTD/svg11.dtd">
<svg version="1.1" id="Layer_1" xmlns="http://www.w3.org/2000/svg" xmlns:xlink="http://www.w3.org/1999/xlink" x="0px" y="0px"
	 width="128px" height="128px" viewBox="0 0 128 128" enable-background="new 0 0 128 128" xml:space="preserve">
<circle display="none" fill="none" stroke="#C0C0C1" stroke-width="4" cx="100.995" cy="21.861" r="17.397"/>
<circle fill="none" stroke="#F48121" stroke-width="4" cx="100.995" cy="21.861" r="9.942"/>
<path fill="none" stroke="#F48121" stroke-width="4" stroke-linecap="round" d="M96.27,21.599c0,0,0.396-1.589,1.587-2.779
	c1.388-1.39,3.034-1.53,3.034-1.53"/>
<path display="none" fill="none" stroke="#C0C0C1" stroke-width="4" d="M87.325,33.231l-7.009,6.943
	c-4.73,4.687-1.414,12.753,5.247,12.753h31.315c6.923,0,10.106-8.613,4.852-13.117l-7.674-6.58"/>
<path display="none" fill="none" stroke="#C0C0C1" stroke-width="4" stroke-linecap="round" d="M4.761,123.272V99.765
	c0,0-2.262-8.098,13.566-11.754c15.828-3.659,18.087-6.271,18.087-6.271l12.813,13.324l13.567-13.324c0,0,9.797,4.703,15.826,6.271
	c12.058,3.134,12.058,11.754,12.058,11.754v23.508"/>
<path display="none" fill="none" stroke="#C0C0C1" stroke-width="4" d="M34.686,83.222l5.239-16.685"/>
<line display="none" fill="none" stroke="#C0C0C1" stroke-width="4" x1="61.558" y1="83.5" x2="58.277" y2="67.467"/>
<path display="none" fill="none" stroke="#C0C0C1" stroke-width="4" d="M68.24,39.713l-1.003,12.733
	c-0.766,9.686-9.144,16.978-18.842,16.4c-8.771-0.522-15.853-7.356-16.691-16.103l-1.221-12.712
	c-1.067-11.131,7.684-20.762,18.865-20.762C60.403,19.271,69.111,28.693,68.24,39.713z"/>
<path display="none" fill="none" stroke="#C0C0C1" stroke-width="4" stroke-linecap="round" d="M34.686,46.883
	c0,0,5.171,1.008,9.888-1.061C49.963,43.46,56.625,36.5,56.625,36.5s2.272,5.265,4.821,7.628c2.85,2.638,4.388,2.754,4.388,2.754"/>
<line fill="none" stroke="#F48121" stroke-width="4" stroke-linecap="round" x1="59.445" y1="108.525" x2="80.012" y2="108.525"/>
<line fill="none" stroke="#F48121" stroke-width="4" stroke-linecap="round" x1="69.998" y1="118.536" x2="69.998" y2="97.971"/>
</svg>
