<?xml version="1.0" encoding="utf-8"?>
<!-- Generator: Adobe Illustrator 16.0.0, SVG Export Plug-In . SVG Version: 6.00 Build 0)  -->
<!DOCTYPE svg PUBLIC "-//W3C//DTD SVG 1.1//EN" "http://www.w3.org/Graphics/SVG/1.1/DTD/svg11.dtd">
<svg version="1.1" id="Layer_1" xmlns="http://www.w3.org/2000/svg" xmlns:xlink="http://www.w3.org/1999/xlink" x="0px" y="0px"
	 width="128px" height="128px" viewBox="0 0 128 128" enable-background="new 0 0 128 128" xml:space="preserve">
<path display="none" fill="#C4C4C4" stroke="#C4C4C4" stroke-width="2" d="M95.166,37.57c0,16.22-13.924,29.488-31.176,29.488
	c-17.328,0-31.252-13.269-31.252-29.488c0-16.22,13.924-29.488,31.252-29.488C81.242,8.083,95.166,21.35,95.166,37.57z"/>
<path fill="none" stroke="#F48121" stroke-width="2" d="M98.947,37.066c0-19.765-15.91-35.788-35.462-35.788
	c-19.626,0-35.536,16.023-35.536,35.788"/>
<path fill="#F48121" d="M28.201,25.472L28.201,25.472c2.088,0,3.781,1.694,3.781,3.782v18.65c0,2.088-1.693,3.78-3.781,3.78l0,0
	c-2.087,0-3.78-1.692-3.78-3.78v-18.65C24.421,27.166,26.114,25.472,28.201,25.472z"/>
<path fill="#F48121" d="M98.695,25.472L98.695,25.472c2.088,0,3.781,1.694,3.781,3.782v18.65c0,2.088-1.693,3.78-3.781,3.78l0,0
	c-2.088,0-3.781-1.692-3.781-3.78v-18.65C94.914,27.166,96.607,25.472,98.695,25.472z"/>
<ellipse fill="#F48121" cx="71.519" cy="62.27" rx="4.264" ry="4.032"/>
<path fill="none" stroke="#F48121" stroke-width="2" d="M73.308,62.952c0,0,16.02,1.924,21.711-5.665
	c2.72-3.624,3.552-7.916,3.552-7.916"/>
<path display="none" fill="#C4C4C4" stroke="#C4C4C4" d="M111.045,109.955c0,10.938-17.71,17.248-43.397,17.248
	c-25.738,0-49.779,0-49.779-17.248c0-24.158,20.875-43.744,46.626-43.744C90.17,66.211,111.045,85.797,111.045,109.955z"/>
<path display="none" fill="#C4C4C4" d="M32.213,78.392l10.954-8.07l12.729-3.367l8.598-0.743l9.646,0.942l7.034,1.228l9.669,5.492
	l6.16,4.786l5.484,6.027l3.933,6.25l3.187,8.197l1.438,9.521l-0.458,4.251l-2.485,4.118l-4.678,3.581l-7.601,3.158l-7.046,1.701
	l-8.933,0.749l-11.762,0.988l-20.746-0.354l-7.326-0.623l-8.45-1.569l-7.698-3.298l-4.448-4.752l-1.547-3.703l0.359-8.396
	l1.381-6.427l45.711,1.902v5.859h5.326v5.1h6.107v-5.1h5.351v-5.859h-5.351v-5.787h-6.107v5.787l-51.896,0.455l3.997-9.984
	l4.774-7.152L32.213,78.392z"/>
<path display="none" fill="none" stroke="#F48121" stroke-width="2" d="M45.061,105.073c0,0,2.776,0.922,2.775-4.934
	c-0.617-10.477-7.475-15.719-9.868-15.719c-4.933,0-10.484,8.94-9.868,15.719c0.617,6.782,3.7,4.934,3.7,4.934"/>
<path display="none" fill="none" stroke="#F48121" stroke-width="2" stroke-linecap="round" d="M29.702,91.566
	c2.006-3.99,5.238-7.146,8.246-7.146c1.621,0,5.225,2.28,7.691,6.835"/>
<path display="none" fill="#F48121" d="M32.174,102.556h2.199c1.365,0,2.473,1.107,2.473,2.473l0,0c0,1.367-1.107,2.476-2.473,2.476
	h-2.199c-1.366,0-2.473-1.108-2.473-2.476l0,0C29.702,103.663,30.809,102.556,32.174,102.556z"/>
<path display="none" fill="#F48121" d="M42.065,102.556h2.2c1.366,0,2.472,1.107,2.472,2.473l0,0c0,1.367-1.106,2.476-2.472,2.476
	h-2.2c-1.365,0-2.473-1.108-2.473-2.476l0,0C39.592,103.663,40.7,102.556,42.065,102.556z"/>
<path display="none" fill="#F48121" d="M40.692,83.402c0,1.56-1.353,1.57-3.022,1.57c-1.669,0-3.021-0.011-3.021-1.57
	c0-1.562,1.353-2.827,3.021-2.827C39.339,80.575,40.692,81.841,40.692,83.402z"/>
<path display="none" fill="none" stroke="#F48121" stroke-width="2" d="M88.788,85.464c2.735,0,4.946,2.213,4.946,4.943
	c0,2.732-2.211,4.947-4.946,4.947c-2.731,0-4.943-2.215-4.943-4.947C83.845,87.677,86.057,85.464,88.788,85.464z"/>
<path display="none" fill="none" stroke="#F48121" stroke-width="2" stroke-linecap="round" d="M37.701,81.28
	c0,0-0.247-3.671,0.845-6.038c3.419-7.39,12.037-8.31,12.037-8.31"/>
<path display="none" fill="none" stroke="#F48121" stroke-width="2" stroke-linecap="round" d="M89.064,85.188
	c0,0-0.007-9.445-1.099-11.815c-3.084-6.66-10.99-6.66-10.99-6.66"/>
</svg>
