<?xml version="1.0" encoding="UTF-8" standalone="no"?>
<!DOCTYPE svg PUBLIC "-//W3C//DTD SVG 1.1//EN" "http://www.w3.org/Graphics/SVG/1.1/DTD/svg11.dtd">
<svg width="100%" height="100%" viewBox="0 0 161 144" version="1.1" xmlns="http://www.w3.org/2000/svg" xmlns:xlink="http://www.w3.org/1999/xlink" xml:space="preserve" xmlns:serif="http://www.serif.com/" style="fill-rule:evenodd;clip-rule:evenodd;stroke-linecap:round;">
    <g>
        <path d="M17.5,1.5L17.5,11.5" style="fill:none;fill-rule:nonzero;stroke:rgb(244,129,33);stroke-width:3px;"/>
        <path d="M32.5,15.5L21.5,15.5" style="fill:none;fill-rule:nonzero;stroke:rgb(244,129,33);stroke-width:3px;"/>
        <path d="M17.5,30.5L17.5,20.5" style="fill:none;fill-rule:nonzero;stroke:rgb(244,129,33);stroke-width:3px;"/>
        <path d="M1.5,15.5L12.5,15.5" style="fill:none;fill-rule:nonzero;stroke:rgb(244,129,33);stroke-width:3px;"/>
        <path d="M27.5,113.5L27.5,123.5" style="fill:none;fill-rule:nonzero;stroke:rgb(244,129,33);stroke-width:3px;"/>
        <path d="M42.5,127.5L31.5,127.5" style="fill:none;fill-rule:nonzero;stroke:rgb(244,129,33);stroke-width:3px;"/>
        <path d="M27.5,142.5L27.5,132.5" style="fill:none;fill-rule:nonzero;stroke:rgb(244,129,33);stroke-width:3px;"/>
        <path d="M11.5,127.5L22.5,127.5" style="fill:none;fill-rule:nonzero;stroke:rgb(244,129,33);stroke-width:3px;"/>
        <path d="M144.5,24.5L144.5,34.5" style="fill:none;fill-rule:nonzero;stroke:rgb(244,129,33);stroke-width:3px;"/>
        <path d="M159.5,38.5L148.5,38.5" style="fill:none;fill-rule:nonzero;stroke:rgb(244,129,33);stroke-width:3px;"/>
        <path d="M144.5,53.5L144.5,43.5" style="fill:none;fill-rule:nonzero;stroke:rgb(244,129,33);stroke-width:3px;"/>
        <path d="M128.5,38.5L139.5,38.5" style="fill:none;fill-rule:nonzero;stroke:rgb(244,129,33);stroke-width:3px;"/>
    </g>
    <g>
        <circle cx="57.879" cy="59.759" r="4.823" style="fill:rgb(244,129,33);"/>
        <circle cx="72.348" cy="59.759" r="4.823" style="fill:rgb(244,129,33);"/>
        <circle cx="86.813" cy="59.759" r="4.823" style="fill:rgb(244,129,33);"/>
        <circle cx="101.284" cy="59.759" r="4.823" style="fill:rgb(244,129,33);"/>
        <circle cx="57.879" cy="74.228" r="4.823" style="fill:rgb(244,129,33);"/>
        <circle cx="72.348" cy="74.228" r="4.823" style="fill:rgb(244,129,33);"/>
        <circle cx="57.879" cy="88.695" r="4.823" style="fill:rgb(244,129,33);"/>
        <circle cx="72.348" cy="88.695" r="4.823" style="fill:rgb(244,129,33);"/>
    </g>
    <path d="M96.961,81.957L97.046,92.161" style="fill:none;fill-rule:nonzero;stroke:rgb(244,129,33);stroke-width:1px;"/>
    <path d="M105.699,89.461L97.054,89.461" style="fill:none;fill-rule:nonzero;stroke:rgb(244,129,33);stroke-width:1px;"/>
</svg>
