<?xml version="1.0" encoding="utf-8"?>
<!-- Generator: Adobe Illustrator 16.0.0, SVG Export Plug-In . SVG Version: 6.00 Build 0)  -->
<!DOCTYPE svg PUBLIC "-//W3C//DTD SVG 1.1//EN" "http://www.w3.org/Graphics/SVG/1.1/DTD/svg11.dtd">
<svg version="1.1" id="Layer_1" xmlns="http://www.w3.org/2000/svg" xmlns:xlink="http://www.w3.org/1999/xlink" x="0px" y="0px"
	 width="256px" height="256px" viewBox="0 0 256 256" enable-background="new 0 0 256 256" xml:space="preserve">
<path display="none" fill="#E8E8E8" d="M20.518,212.832h215.375c8.878,0,16.072,7.193,16.072,16.072v3.214
	c0,8.878-7.194,16.073-16.072,16.073H20.518c-8.877,0-16.073-7.195-16.073-16.073v-3.214
	C4.445,220.025,11.64,212.832,20.518,212.832z"/>
<g>
	<path fill="#F48220" d="M137.848,13.53c0-4.439-3.597-8.037-8.036-8.037c-4.438,0-8.036,3.597-8.036,8.037H137.848z
		 M124.13,179.938c3.139,3.14,8.226,3.14,11.363,0l51.145-51.143c3.14-3.136,3.14-8.225,0-11.365c-3.14-3.139-8.228-3.139-11.364,0
		l-45.462,45.462L84.35,117.431c-3.136-3.139-8.225-3.139-11.364,0c-3.139,3.14-3.139,8.229,0,11.365L124.13,179.938z
		 M121.775,13.53v160.726h16.072V13.53H121.775z"/>
	<path fill="#F48220" d="M20.518,212.832h93.222c8.877,0,16.072,7.193,16.072,16.072v3.214c0,8.878-7.195,16.073-16.072,16.073
		H20.518c-8.877,0-16.073-7.195-16.073-16.073v-3.214C4.445,220.025,11.64,212.832,20.518,212.832z"/>
</g>
</svg>
