<?xml version="1.0" encoding="utf-8"?>
<!-- Generator: Adobe Illustrator 16.0.0, SVG Export Plug-In . SVG Version: 6.00 Build 0)  -->
<!DOCTYPE svg PUBLIC "-//W3C//DTD SVG 1.1//EN" "http://www.w3.org/Graphics/SVG/1.1/DTD/svg11.dtd">
<svg version="1.1" id="Layer_1" xmlns="http://www.w3.org/2000/svg" xmlns:xlink="http://www.w3.org/1999/xlink" x="0px" y="0px"
	 width="128px" height="128px" viewBox="0 0 128 128" enable-background="new 0 0 128 128" xml:space="preserve">
<path display="none" fill="#FFF1E4" d="M127.38,49.034c0,25.661-10.258,44.301-46.168,46.462
	C21.547,112.785,0.488,86.039,0.488,60.379c-1.08-33.227,22.563-27.306,45.088-44.303C93.902-20.392,127.38,23.372,127.38,49.034z"
	/>
<path fill="none" stroke="#323131" stroke-width="5" d="M59.571,110.686c0,1.711-2.708,1.744-4.333,2.146l-38.985,9.693
	c-2.271,0.565-4.458-1.2-4.458-3.602V23.687c0-1.789,1.245-3.322,2.957-3.645l38.977-7.349c2.228-0.418,4.283,1.331,4.283,3.645"/>
<path fill="none" stroke="#484848" stroke-width="3" d="M13.923,25.605c0-1.71,1.291-3.177,3.068-3.485l40.466-7.028
	c2.312-0.4,4.443,1.272,4.443,3.486v88.831c0,1.636-1.188,3.06-2.876,3.442l-40.475,9.272c-2.356,0.54-4.626-1.149-4.626-3.444
	V25.605z"/>
<path display="none" fill="none" stroke="#F48121" d="M18.667,58.594c0-1.755,1.22-3.275,2.934-3.655L53.813,47.8
	c2.349-0.518,4.576,1.26,4.576,3.655v25.402c0,1.607-1.031,3.039-2.567,3.551L23.6,91.191c-2.425,0.813-4.933-0.991-4.933-3.549
	V58.594z"/>
<path fill="#B5B5B5" d="M30.077,38.985c0.068-0.488,0.437-0.881,0.92-0.981l11.527-2.386c0.559-0.116,1.112,0.226,1.259,0.778
	c0.158,0.592-0.209,1.196-0.807,1.33l-11.489,2.562C30.693,40.465,29.965,39.793,30.077,38.985z"/>
<path fill="#F0F0F0" d="M30.691,43.435c0.085-0.628,0.557-1.134,1.177-1.265l14.513-3.058c0.723-0.153,1.438,0.29,1.625,1.003
	c0.199,0.758-0.27,1.529-1.033,1.703l-14.464,3.283C31.488,45.333,30.549,44.472,30.691,43.435z"/>
<path display="none" fill="#F48121" d="M33.165,97.643c0.019-0.635,0.434-1.188,1.037-1.383l14.108-4.58
	c0.702-0.227,1.46,0.137,1.723,0.825c0.277,0.731-0.106,1.55-0.847,1.804L35.15,99.105C34.16,99.445,33.135,98.689,33.165,97.643z"
	/>
<line fill="none" stroke="#D2D2D2" stroke-width="2" stroke-linecap="round" x1="23.671" y1="53.474" x2="23.671" y2="57.218"/>
<line fill="none" stroke="#D2D2D2" stroke-width="2" stroke-linecap="round" x1="26.717" y1="52.625" x2="26.717" y2="56.37"/>
<line fill="none" stroke="#D2D2D2" stroke-width="2" stroke-linecap="round" x1="29.72" y1="51.951" x2="29.72" y2="55.695"/>
<line fill="none" stroke="#D2D2D2" stroke-width="2" stroke-linecap="round" x1="32.708" y1="51.102" x2="32.708" y2="54.846"/>
<line fill="none" stroke="#D2D2D2" stroke-width="2" stroke-linecap="round" x1="35.703" y1="50.353" x2="35.703" y2="54.097"/>
<line fill="none" stroke="#D2D2D2" stroke-width="2" stroke-linecap="round" x1="38.699" y1="49.604" x2="38.699" y2="53.349"/>
<line fill="none" stroke="#D2D2D2" stroke-width="2" stroke-linecap="round" x1="41.694" y1="48.855" x2="41.694" y2="52.6"/>
<line fill="none" stroke="#D2D2D2" stroke-width="2" stroke-linecap="round" x1="44.69" y1="48.48" x2="44.69" y2="52.225"/>
<line fill="none" stroke="#D2D2D2" stroke-width="2" stroke-linecap="round" x1="47.685" y1="47.731" x2="47.685" y2="51.477"/>
<line fill="none" stroke="#D2D2D2" stroke-width="2" stroke-linecap="round" x1="50.679" y1="46.983" x2="50.679" y2="50.728"/>
<line fill="none" stroke="#D2D2D2" stroke-width="2" stroke-linecap="round" x1="53.687" y1="46.46" x2="53.687" y2="50.204"/>
<path display="none" fill="none" stroke="#F48121" stroke-linecap="round" d="M22.549,67.386l1.904,2.337l4.112-5.583"/>
<path fill="#434343" d="M48.801,25.993c-0.229-0.634,0.147-1.326,0.806-1.476l4.319-0.985c0.571-0.131,1.149,0.198,1.327,0.756
	l3.06,9.592c0.206,0.645-0.204,1.323-0.874,1.444l-4.006,0.725c-0.542,0.1-1.078-0.207-1.264-0.724L48.801,25.993z"/>
<path fill="#FABFA0" d="M63.132,35.471l4.501,3.557c0,0-0.289,1.951-0.563,3.182c-0.397,1.785-0.42,2.896-1.313,4.493
	c-0.584,1.047-1.875,2.433-1.875,2.433s-2.508-1.087-3.951-2.06c-4.309-2.899-7.9-10.67-7.9-10.67s-1.481-1.913-1.689-3.37
	c-0.093-0.651-0.173-1.051,0-1.685c0.129-0.473,0.114-0.925,0.562-1.123c0.701-0.309,0.562,1.872,0.562,1.872
	s1.129-3.932,3.01-2.808c2.249,1.341-0.232,2.754,0,4.493c0.139,1.037,0.564,2.621,0.564,2.621l3.951,2.995l3.198,3.183
	c0,0-0.174-2.179,0-3.556C62.374,37.603,63.132,35.471,63.132,35.471z"/>
<path fill="#323131" d="M66.461,63.475c0,0,3.948,2.496,5.647,2.572c5.897,0.266,10.432-0.42,10.432-0.42s0.081,2.794-0.034,5.789
	c-0.266,6.923-3.38,10.764-2.246,17.598c0.5,3.012,1.883,4.457,2.246,7.487c0.609,5.086-0.627,13.115-2.246,17.974
	c-1.311,3.934-1.311,6.364-1.311,6.364h-2.995c0,0-2.185-12.049-2.995-19.845c-0.363-3.502-0.75-8.985-0.75-8.985
	s-3.609-9.407-4.682-15.725C66.711,71.438,66.461,63.475,66.461,63.475z"/>
<path fill="#484848" d="M73.029,66.181c0,0,5.532-0.19,7.399-0.345c1.975-0.163,7.971-0.926,7.971-0.926s0.401,3.51,0.286,6.505
	c-0.268,6.923-3.383,10.765-2.248,17.597c0.5,3.014,1.886,4.459,2.248,7.488c0.607,5.086-1.658,7.832-2.248,12.919
	c-0.514,4.438-0.748,11.419-0.748,11.419h-3.557c0,0-2.185-12.049-2.996-19.845c-0.365-3.502-0.748-8.985-0.748-8.985
	s-3.611-9.408-4.682-15.725C72.889,71.438,73.029,66.181,73.029,66.181z"/>
<path display="none" fill="#F48121" d="M70.338,25.174c1.29-0.26,3.744-0.75,3.744-0.75s-4.119,4.079-0.188,6.481
	c3.932,2.403,8.237-6.553,8.237-6.553s3.772,0.729,5.99,2.809c4.578,4.298,4.493,17.037,4.493,17.037s-1.938,1.35-3.371,1.497
	c-1.254,0.129-3.184-0.561-3.184-0.561s1.422,6.245,2.062,10.296c0.573,3.637,1.122,9.36,1.122,9.36s-14.389,2.122-18.161,1.124
	c-2.884-0.766-6.551-3.932-6.551-3.932l2.618-21.903c0,0-1.072-0.39-2.06-1.31c-0.757-0.708-2.442-2.809-2.442-2.809
	s0.911-4.39,2.442-6.739C66.715,26.732,67.561,25.736,70.338,25.174z"/>
<path fill="#393939" d="M82.249,120.838h3.252v5.241H75.018c0,0,1.463-1.761,3.043-2.245c1.019-0.313,2.017,0.104,2.875-0.749
	C81.596,122.43,82.249,120.838,82.249,120.838z"/>
<path fill="#404040" d="M75.973,120.838h2.789v5.241h-8.984c0,0,1.254-1.761,2.607-2.245c0.871-0.313,1.729,0.104,2.463-0.749
	C75.413,122.43,75.973,120.838,75.973,120.838z"/>
<path display="none" fill="#F48121" d="M118.166,107.723c1.507,2.305,0.857,5.396-1.447,6.901c-2.305,1.508-5.396,0.856-6.9-1.448
	l-3.289-5.029l8.35-5.457L118.166,107.723z"/>
<path fill="#F0F0F0" d="M103.242,103.114c-1.508-2.306-0.859-5.396,1.445-6.901c2.308-1.507,5.396-0.859,6.903,1.446l3.286,5.03
	l-8.348,5.455L103.242,103.114z"/>
<path display="none" fill="#F48121" d="M104.928,125.366c-2.75,0.127-5.082-2.002-5.209-4.755c-0.125-2.75,2.002-5.082,4.754-5.207
	l6.002-0.278l0.457,9.964L104.928,125.366z"/>
<path fill="#F0F0F0" d="M116.479,114.854c2.752-0.125,5.088,2.004,5.211,4.754c0.129,2.752-2.002,5.084-4.752,5.209l-6.004,0.275
	l-0.457-9.963L116.479,114.854z"/>
<path display="none" fill="#F48121" d="M96.982,106.027c1.692-2.174,4.826-2.563,7-0.87c2.172,1.69,2.563,4.823,0.871,6.998
	l-3.691,4.741l-7.871-6.127L96.982,106.027z"/>
<path fill="#F0F0F0" d="M97.471,121.641c-1.691,2.172-4.824,2.563-6.998,0.871c-2.175-1.691-2.563-4.824-0.871-6.998l3.689-4.744
	l7.871,6.127L97.471,121.641z"/>
<path display="none" fill="none" stroke="#F48121" d="M27.028,68.16c0,1.227-0.821,2.593-2.567,2.854
	c-0.55,0.084-0.987-0.039-1.3-0.277c-0.315-0.238-0.537-0.625-0.607-1.12c-0.087-0.626,0.145-1.272,0.585-1.825
	c0.441-0.557,1.066-0.979,1.693-1.152l-0.102-0.361l0.102,0.361c0.646-0.183,1.193-0.068,1.572,0.207
	C26.782,67.117,27.028,67.577,27.028,68.16z"/>
<path display="none" fill="none" stroke="#F48121" d="M32.142,64.762L32.142,64.762c0.585-0.178,1.077-0.066,1.419,0.202
	c0.346,0.271,0.58,0.729,0.58,1.324c0,1.248-0.774,2.598-2.365,2.856c-0.497,0.078-0.889-0.039-1.173-0.273
	c-0.288-0.235-0.498-0.619-0.563-1.124c-0.083-0.636,0.136-1.288,0.545-1.841S31.572,64.936,32.142,64.762z"/>
<path display="none" fill="none" stroke="#F48121" d="M39.439,62.897L39.439,62.897c0.64-0.193,1.179-0.073,1.557,0.221
	c0.38,0.296,0.635,0.797,0.635,1.44c0,1.346-0.84,2.808-2.572,3.086c-0.542,0.086-0.973-0.041-1.286-0.297
	c-0.316-0.261-0.545-0.678-0.617-1.224c-0.09-0.688,0.149-1.396,0.592-1.99C38.193,63.538,38.818,63.085,39.439,62.897z"/>
<path display="none" fill="none" stroke="#F48121" d="M46.928,60.651L46.928,60.651c0.639-0.193,1.179-0.073,1.556,0.22
	c0.38,0.295,0.635,0.798,0.635,1.44c0,1.347-0.84,2.807-2.571,3.085c-0.542,0.088-0.974-0.041-1.287-0.295
	c-0.316-0.263-0.545-0.679-0.617-1.226c-0.09-0.689,0.149-1.395,0.593-1.99C45.681,61.291,46.306,60.838,46.928,60.651z"/>
<path display="none" fill="none" stroke="#F48121" d="M54.431,58.404L54.431,58.404c0.642-0.193,1.185-0.072,1.564,0.221
	c0.381,0.296,0.638,0.797,0.638,1.439c0,1.348-0.846,2.809-2.583,3.087c-0.545,0.087-0.98-0.041-1.293-0.298
	c-0.318-0.258-0.547-0.675-0.619-1.222c-0.091-0.688,0.15-1.395,0.595-1.99C53.178,59.045,53.807,58.592,54.431,58.404z"/>
<path fill="#F0F0F0" d="M27.402,39.988c0,1.586-1,3.351-3.091,3.687c-1.364,0.219-2.326-0.636-2.501-1.963
	c-0.227-1.723,1.212-3.421,2.729-3.877C26.13,37.356,27.402,38.401,27.402,39.988z"/>
<path fill="#F0F0F0" d="M29.649,47.305c0,0-0.428,0.125-4.069,1.019c-2.445,0.601-6.041,1.453-6.041,1.37
	c-0.004-3.111,2.095-6.124,4.716-6.941C27.007,41.896,29.649,44.464,29.649,47.305z"/>
<path display="none" fill="none" stroke="#F48121" d="M27.028,76.023c0,1.227-0.821,2.593-2.567,2.854
	c-0.55,0.083-0.987-0.041-1.3-0.279c-0.315-0.24-0.537-0.623-0.607-1.119c-0.087-0.627,0.145-1.272,0.585-1.826
	c0.441-0.555,1.066-0.979,1.693-1.153l-0.102-0.358l0.102,0.358c0.646-0.183,1.193-0.065,1.572,0.208
	C26.782,74.98,27.028,75.439,27.028,76.023z"/>
<path display="none" fill="none" stroke="#F48121" d="M32.142,72.625L32.142,72.625c0.585-0.18,1.077-0.066,1.419,0.2
	c0.346,0.271,0.58,0.731,0.58,1.323c0,1.25-0.774,2.6-2.365,2.855c-0.497,0.081-0.889-0.037-1.173-0.271
	c-0.288-0.235-0.498-0.621-0.563-1.125c-0.083-0.635,0.136-1.289,0.545-1.84C30.995,73.217,31.572,72.797,32.142,72.625z"/>
<path display="none" fill="none" stroke="#F48121" d="M39.439,70.761L39.439,70.761c0.64-0.194,1.179-0.071,1.557,0.222
	c0.38,0.295,0.635,0.795,0.635,1.438c0,1.349-0.84,2.808-2.572,3.085c-0.542,0.089-0.973-0.041-1.286-0.295
	c-0.316-0.26-0.545-0.677-0.617-1.225c-0.09-0.688,0.149-1.394,0.592-1.988C38.193,71.4,38.818,70.948,39.439,70.761z"/>
<path display="none" fill="none" stroke="#F48121" d="M46.928,68.514L46.928,68.514c0.639-0.193,1.179-0.072,1.556,0.221
	c0.38,0.296,0.635,0.799,0.635,1.439c0,1.348-0.84,2.809-2.571,3.086c-0.542,0.088-0.974-0.041-1.287-0.296
	c-0.316-0.26-0.545-0.677-0.617-1.223c-0.09-0.689,0.149-1.396,0.593-1.991C45.681,69.155,46.306,68.701,46.928,68.514z"/>
<path display="none" fill="none" stroke="#F48121" d="M54.431,66.268L54.431,66.268c0.642-0.192,1.185-0.072,1.564,0.223
	c0.381,0.294,0.638,0.796,0.638,1.438c0,1.346-0.846,2.809-2.583,3.086c-0.545,0.088-0.98-0.041-1.293-0.298
	c-0.318-0.258-0.547-0.676-0.619-1.222c-0.091-0.688,0.15-1.395,0.595-1.99C53.178,66.906,53.807,66.456,54.431,66.268z"/>
<path display="none" fill="none" stroke="#F48121" d="M27.028,83.512c0,1.229-0.821,2.594-2.567,2.854
	c-0.55,0.082-0.987-0.04-1.3-0.279c-0.315-0.239-0.537-0.623-0.607-1.121c-0.087-0.625,0.145-1.271,0.585-1.825
	c0.441-0.554,1.066-0.978,1.693-1.154l-0.102-0.357l0.102,0.357c0.646-0.18,1.193-0.064,1.572,0.209
	C26.782,82.469,27.028,82.928,27.028,83.512z"/>
<path display="none" fill="none" stroke="#F48121" d="M32.142,80.111L32.142,80.111c0.585-0.176,1.077-0.065,1.419,0.201
	c0.346,0.271,0.58,0.73,0.58,1.326c0,1.247-0.774,2.598-2.365,2.854c-0.497,0.08-0.889-0.038-1.173-0.271
	c-0.288-0.236-0.498-0.619-0.563-1.125c-0.083-0.637,0.136-1.289,0.545-1.842C30.995,80.705,31.572,80.285,32.142,80.111z"/>
<path display="none" fill="none" stroke="#F48121" d="M39.439,78.249L39.439,78.249c0.64-0.194,1.179-0.074,1.557,0.22
	c0.38,0.297,0.635,0.797,0.635,1.439c0,1.348-0.84,2.808-2.572,3.086c-0.542,0.088-0.973-0.041-1.286-0.296
	c-0.316-0.259-0.545-0.677-0.617-1.224c-0.09-0.688,0.149-1.396,0.592-1.988C38.193,78.891,38.818,78.436,39.439,78.249z"/>
<path display="none" fill="none" stroke="#F48121" d="M46.928,76.002L46.928,76.002c0.639-0.193,1.179-0.072,1.556,0.221
	c0.38,0.297,0.635,0.799,0.635,1.44c0,1.346-0.84,2.808-2.571,3.085c-0.542,0.087-0.974-0.041-1.287-0.297
	c-0.316-0.26-0.545-0.676-0.617-1.223c-0.09-0.688,0.149-1.396,0.593-1.99C45.681,76.643,46.306,76.189,46.928,76.002z"/>
<path display="none" fill="none" stroke="#F48121" d="M54.431,73.755L54.431,73.755c0.642-0.192,1.185-0.071,1.564,0.222
	c0.381,0.295,0.638,0.797,0.638,1.438c0,1.349-0.846,2.81-2.583,3.087c-0.545,0.087-0.98-0.041-1.293-0.298
	c-0.318-0.259-0.547-0.677-0.619-1.224c-0.091-0.688,0.15-1.395,0.595-1.987C53.178,74.396,53.807,73.943,54.431,73.755z"/>
<path fill="#FABFA0" d="M86.471,45.267c0,0,1.95,0.319,3.074,0.108c2.422-0.453,1.438-0.424,3.071-1.177
	c0,0,0.581,6.947,1.872,11.491c1.013,3.565,3.559,8.8,3.559,8.8s1.666,0.888,2.245,1.872c0.567,0.964,0.562,2.06,0.374,2.435
	c-0.238,0.476-0.672-0.28-1.123-0.563c-0.886-0.556-1.121-2.809-1.121-1.871s-0.375,2.81-0.563,1.312
	c-0.188-1.497-3.193-3.928-5.057-7.115c-2.258-3.867-3.635-6.047-5.054-10.295C87.008,48.04,86.471,45.267,86.471,45.267z"/>
<path fill="#FABFA0" d="M71.628,7.389c1.83-1.881,3.929-1.614,6.552-1.498c2.198,0.098,3.852-0.034,5.43,1.498
	c1.545,1.498,1.938,3.106,1.687,5.242c-0.377,3.183-5.804,5.804-5.804,5.804v5.054l4.773,1.477c0,0-6.353,10.231-10.205,7.322
	c-2.176-1.645-4.232-4.502-2.432-6.552c0.713-0.81,2.432-1.311,2.432-1.311l0.377-3.557c0,0-1.742,0.552-2.809-0.374
	c-2.166-1.878-1.313-3.37-1.313-7.301C70.316,11.042,70.127,8.93,71.628,7.389z"/>
<path fill="#414141" d="M80.9,4.296c0,0,0.988-2.182,2.244-2.808c2.153-1.073,5.107-0.243,5.805,2.059
	c0.488,1.616-0.104,2.938-1.311,4.12c-0.912,0.893-2.994,1.31-2.994,1.31s1.424,3.588,0.561,5.616
	c-0.945,2.221-5.057,3.557-5.057,3.557s2.996-6.365-1.496-7.114c-1.685-0.28-1.496,4.306-1.496,4.306s-1.708-1.796-2.436-3.182
	C74.109,10.992,73.6,8.977,73.6,8.977s-1.633,1.264-2.062,2.434c-0.429,1.167,0,3.182,0,3.182s-1.45-1.795-1.687-3.182
	c-0.48-2.844,1.315-4.812,3.746-6.365C76.012,3.5,80.9,4.296,80.9,4.296z"/>
</svg>
