<?xml version="1.0" encoding="utf-8"?>
<!-- Generator: Adobe Illustrator 16.0.0, SVG Export Plug-In . SVG Version: 6.00 Build 0)  -->
<!DOCTYPE svg PUBLIC "-//W3C//DTD SVG 1.1//EN" "http://www.w3.org/Graphics/SVG/1.1/DTD/svg11.dtd">
<svg version="1.1" id="Layer_1" xmlns="http://www.w3.org/2000/svg" xmlns:xlink="http://www.w3.org/1999/xlink" x="0px" y="0px"
	 width="128px" height="128px" viewBox="0 0 128 128" enable-background="new 0 0 128 128" xml:space="preserve">
<rect x="-2" y="-2.495" display="none" fill="#0A0A0A" width="133.5" height="133.167"/>
<path display="none" fill="none" stroke="#C0C0C1" stroke-width="4" d="M8.161,64.965L69.672,8.605
	c5.661-5.187,14.456-4.801,19.645,0.859l32.117,35.054c5.188,5.666,4.806,14.459-0.859,19.648l-61.508,56.355
	c-5.661,5.188-14.458,4.802-19.644-0.857L7.302,84.609C2.116,78.948,2.5,70.153,8.161,64.965z"/>
<line display="none" fill="none" stroke="#C0C0C1" stroke-width="4" x1="7.5" y1="85.875" x2="90.573" y2="9.762"/>
<line display="none" fill="none" stroke="#C0C0C1" stroke-width="4" x1="13.727" y1="90.577" x2="96.041" y2="15.158"/>
<line fill="none" stroke="#F48121" stroke-width="4" stroke-linecap="round" x1="37.715" y1="106.38" x2="66.523" y2="79.985"/>
<line fill="none" stroke="#F48121" stroke-width="4" stroke-linecap="round" x1="42.847" y1="111.982" x2="80.371" y2="77.606"/>
<path fill="none" stroke="#F48121" stroke-width="4" d="M82.099,49.956L82.099,49.956c-0.538,0.749-0.688,1.042-0.967,1.864
	L82.099,49.956z M82.099,49.956c0.979-1.366,2.921-2.403,4.882-2.489l0,0c0.275-0.011,0.544-0.027,0.748-0.043
	c0.104-0.01,0.206-0.019,0.297-0.029c0.038-0.005,0.106-0.014,0.18-0.028c0.033-0.006,0.104-0.02,0.19-0.045
	c0.039-0.013,0.114-0.036,0.205-0.077c0.062-0.025,0.267-0.119,0.478-0.31c0.214-0.199,0.328-0.405,0.36-0.462
	c0.044-0.083,0.071-0.155,0.089-0.196c0.032-0.08,0.052-0.148,0.06-0.18c0.018-0.068,0.037-0.136,0.042-0.175
	c0.02-0.089,0.04-0.195,0.057-0.297c0.034-0.212,0.077-0.485,0.117-0.776 M89.803,44.848 M82.099,49.956 M103.756,62.589
	c1.287-3.486,1.977-7.235,1.949-10.573l0,0c-0.026-3.499-0.868-6.367-2.487-8.758l0,0c-1.001-1.479-1.961-2.354-3.358-3.114
	c-2.092-1.135-4.502-1.21-6.622-0.219 M83.895,60.435L83.895,60.435c4.127,3.519,10.563,4.629,18.651,2.647l0,0l0.902-0.222
	c0.141-0.029,0.254-0.135,0.308-0.271 M83.895,60.435c-1.369-1.167-2.157-2.334-2.71-4.015c-0.523-1.581-0.52-3.231-0.053-4.601
	 M90.737,42.16c0.176-0.293,0.577-0.765,1.112-1.244c0.538-0.482,1.054-0.835,1.388-0.991 M90.737,42.16
	c-0.458,0.767-0.811,1.775-0.935,2.688 M89.803,44.848"/>
<path display="none" fill="none" stroke="#C0C0C1" stroke-width="4" d="M91.91,15.892c7.291-2.405,15.152,1.558,17.56,8.849
	l3.101,9.402"/>
<path display="none" fill="none" stroke="#C0C0C1" stroke-width="4" d="M6.296,67.052l-2.462-7.464
	c-2.404-7.292,1.558-15.154,8.849-17.56l32.05-10.573"/>
<path display="none" fill="none" stroke="#C0C0C1" stroke-width="4" d="M36.29,113.597c-0.606,0.2-1.216,0.356-1.826,0.47
	c-6.735,1.256-13.529-2.633-15.734-9.317L14.778,92.77"/>
<path display="none" fill="none" stroke="#C0C0C1" stroke-width="4" d="M121.98,62.677l2.383,7.225
	c2.403,7.296-1.556,15.157-8.851,17.562L84.708,97.624"/>
</svg>
