<?xml version="1.0" encoding="utf-8"?>
<!-- Generator: Adobe Illustrator 16.0.0, SVG Export Plug-In . SVG Version: 6.00 Build 0)  -->
<!DOCTYPE svg PUBLIC "-//W3C//DTD SVG 1.1//EN" "http://www.w3.org/Graphics/SVG/1.1/DTD/svg11.dtd">
<svg version="1.1" id="Layer_1" xmlns="http://www.w3.org/2000/svg" xmlns:xlink="http://www.w3.org/1999/xlink" x="0px" y="0px"
	 width="128px" height="128px" viewBox="0 0 128 128" enable-background="new 0 0 128 128" xml:space="preserve">
<path fill="none" stroke="#F48121" d="M106.602,96.57H79.316c-1.094,0-1.98-0.891-1.98-1.983v-9.306"/>
<path fill="none" stroke="#F48121" d="M90.156,65.918h25.902c1.098,0,1.982,0.889,1.982,1.982v17.912"/>
<rect x="-1.5" y="-3.333" display="none" stroke="#F48121" width="134.667" height="132.667"/>
<path fill="#FFFFFF" stroke="#F48121" d="M91.598,63.044c0.799-0.013,1.299,0.474,1.299,1.059v4.137
	c0,0.584-0.473,1.058-1.059,1.058h-0.482c-0.584,0-1.057-0.474-1.057-1.058v-2.719"/>
<path fill="#FFFFFF" stroke="#F48121" d="M98.059,63.044h0.481c0.584,0,1.058,0.474,1.058,1.059v4.137
	c0,0.584-0.474,1.058-1.058,1.058h-0.481c-0.584,0-1.058-0.474-1.058-1.058v-4.137C97.001,63.518,97.475,63.044,98.059,63.044z"/>
<path fill="#FFFFFF" stroke="#F48121" d="M104.757,63.044h0.481c0.585,0,1.061,0.474,1.061,1.059v4.137
	c0,0.584-0.476,1.058-1.061,1.058h-0.481c-0.583,0-1.056-0.474-1.056-1.058v-4.137C103.701,63.518,104.174,63.044,104.757,63.044z"
	/>
<path fill="#FFFFFF" stroke="#F48121" d="M111.459,63.044h0.482c0.584,0,1.057,0.474,1.057,1.059v4.137
	c0,0.584-0.473,1.058-1.057,1.058h-0.482c-0.584,0-1.057-0.474-1.057-1.058v-4.137C110.402,63.518,110.875,63.044,111.459,63.044z"
	/>
<path fill="none" stroke="#F48121" d="M85.061,74.314c0.291,0,0.525,0.234,0.525,0.526V77.6c0,0.291-0.234,0.527-0.525,0.527h-2.315
	"/>
<path fill="none" stroke="#F48121" d="M89.307,74.314h2.756c0.295,0,0.529,0.234,0.529,0.526V77.6c0,0.291-0.234,0.527-0.529,0.527
	h-2.756c-0.291,0-0.529-0.236-0.529-0.527v-2.758C88.777,74.551,89.016,74.314,89.307,74.314z"/>
<path fill="none" stroke="#F48121" d="M96.313,74.314h2.758c0.289,0,0.527,0.234,0.527,0.526V77.6c0,0.291-0.238,0.527-0.527,0.527
	h-2.758c-0.295,0-0.528-0.236-0.528-0.527v-2.758C95.782,74.551,96.018,74.314,96.313,74.314z"/>
<path fill="none" stroke="#F48121" d="M103.314,74.314h2.758c0.291,0,0.529,0.234,0.529,0.526V77.6c0,0.291-0.238,0.527-0.529,0.527
	h-2.758c-0.291,0-0.529-0.236-0.529-0.527v-2.758C102.788,74.551,103.023,74.314,103.314,74.314z"/>
<path fill="none" stroke="#F48121" d="M110.32,74.314h2.758c0.292,0,0.529,0.234,0.529,0.526V77.6c0,0.291-0.237,0.527-0.529,0.527
	h-2.758c-0.293,0-0.529-0.236-0.529-0.527v-2.758C109.791,74.551,110.027,74.314,110.32,74.314z"/>
<path fill="none" stroke="#F48121" d="M82.299,81.007h2.762c0.291,0,0.525,0.237,0.525,0.529v2.758c0,0.292-0.234,0.53-0.525,0.53
	h-2.762c-0.29,0-0.527-0.238-0.527-0.53v-2.758C81.771,81.244,82.009,81.007,82.299,81.007z"/>
<path fill="none" stroke="#F48121" d="M89.307,81.007h2.756c0.295,0,0.529,0.237,0.529,0.529v2.758c0,0.292-0.234,0.53-0.529,0.53
	h-2.756c-0.291,0-0.529-0.238-0.529-0.53v-2.758C88.777,81.244,89.016,81.007,89.307,81.007z"/>
<path fill="#F48121" stroke="#F48121" d="M96.313,81.007h2.758c0.289,0,0.527,0.237,0.527,0.529v2.758
	c0,0.292-0.238,0.53-0.527,0.53h-2.758c-0.295,0-0.528-0.238-0.528-0.53v-2.758C95.782,81.244,96.018,81.007,96.313,81.007z"/>
<path fill="none" stroke="#F48121" d="M103.314,81.007h2.758c0.291,0,0.529,0.237,0.529,0.529v2.758c0,0.292-0.238,0.53-0.529,0.53
	h-2.758c-0.291,0-0.529-0.238-0.529-0.53v-2.758C102.788,81.244,103.023,81.007,103.314,81.007z"/>
<path fill="none" stroke="#F48121" d="M109.865,84.563c-0.047-0.079-0.074-0.171-0.074-0.27v-2.758c0-0.292,0.236-0.529,0.529-0.529
	h2.758c0.292,0,0.529,0.237,0.529,0.529v2.308"/>
<path fill="none" stroke="#F48121" d="M82.299,87.709h2.762c0.291,0,0.525,0.236,0.525,0.529v2.758c0,0.292-0.234,0.527-0.525,0.527
	h-2.762c-0.29,0-0.527-0.235-0.527-0.527v-2.758C81.771,87.945,82.009,87.709,82.299,87.709z"/>
<path fill="none" stroke="#F48121" d="M89.307,87.709h2.756c0.295,0,0.529,0.236,0.529,0.529v2.758c0,0.292-0.234,0.527-0.529,0.527
	h-2.756c-0.291,0-0.529-0.235-0.529-0.527v-2.758C88.777,87.945,89.016,87.709,89.307,87.709z"/>
<path fill="none" stroke="#F48121" d="M96.313,87.709h2.758c0.289,0,0.527,0.236,0.527,0.529v2.758c0,0.292-0.238,0.527-0.527,0.527
	h-2.758c-0.295,0-0.528-0.235-0.528-0.527v-2.758C95.782,87.945,96.018,87.709,96.313,87.709z"/>
<path fill="none" stroke="#F48121" d="M105.359,91.523h-2.045c-0.291,0-0.529-0.235-0.529-0.527v-2.758
	c0.003-0.293,0.238-0.529,0.529-0.529h2.758c0.072,0,0.142,0.015,0.205,0.041"/>
<circle fill="none" stroke="#F48121" cx="113.223" cy="92.053" r="7.998"/>
<path fill="none" stroke="#F48121" stroke-linecap="round" d="M109.871,91.909l2.715,2.8l4.064-4.951"/>
<path fill="none" stroke="#F48121" d="M52.236,2.184c0.047-0.042,0.088-0.079,0.125-0.112c0.015,0.014,0.031,0.03,0.047,0.046
	c0.15,0.145,0.372,0.358,0.664,0.632c0.583,0.55,1.445,1.346,2.562,2.334c2.232,1.976,5.484,4.721,9.556,7.797
	c8.084,6.13,19.463,13.586,32.562,18.915c0.758,14.497-4.267,29.698-12.512,42.629c-8.259,12.938-19.704,23.583-31.797,28.96
	C37.933,97.001,26.02,84.883,18.129,71.451C10.262,58.056,6.407,43.376,6.958,31.815c9.313-2.687,20.673-10.137,29.707-16.913
	c4.551-3.413,8.521-6.662,11.353-9.058c1.416-1.198,2.547-2.183,3.326-2.868C51.732,2.634,52.033,2.366,52.236,2.184z"/>
<path fill="none" stroke="#F48121" d="M52.404,6.385c0.042,0.039,0.084,0.08,0.129,0.123c0.552,0.52,1.367,1.271,2.418,2.205
	c2.105,1.865,5.166,4.452,8.998,7.354c7.505,5.701,18.045,12.628,30.197,17.647c0.556,13.236-4.059,27.123-11.617,38.994
	C74.936,84.626,64.46,94.413,53.424,99.423c-14.17-5.938-25.094-17.091-32.361-29.478c-7.176-12.236-10.731-25.588-10.375-36.157
	c8.768-2.694,19.239-9.603,27.523-15.825c4.278-3.213,8.008-6.271,10.668-8.525c1.332-1.127,2.395-2.056,3.127-2.702
	C52.153,6.609,52.286,6.491,52.404,6.385z"/>
<line fill="none" stroke="#F48121" stroke-width="2" stroke-linecap="round" x1="52.66" y1="42.339" x2="52.66" y2="59.144"/>
<line fill="none" stroke="#F48121" stroke-width="2" stroke-linecap="round" x1="44.578" y1="50.791" x2="61.382" y2="50.791"/>
<rect x="74.029" y="14.928" fill="#F48121" width="1.059" height="1.321"/>
<rect x="88.307" y="14.928" fill="#F48121" width="1.061" height="1.321"/>
<ellipse fill="#F48121" cx="81.698" cy="14.928" rx="7.667" ry="2.644"/>
<ellipse fill="#F48121" cx="81.698" cy="16.25" rx="7.667" ry="2.644"/>
<rect x="74.029" y="29.205" fill="#D76A0F" width="1.059" height="1.321"/>
<rect x="88.307" y="29.205" fill="#D76A0F" width="1.061" height="1.321"/>
<ellipse fill="#F48121" cx="81.698" cy="29.205" rx="7.667" ry="2.644"/>
<ellipse fill="#F48121" cx="81.698" cy="30.526" rx="7.667" ry="2.644"/>
<line fill="none" stroke="#F48121" stroke-width="2" stroke-linecap="round" x1="81.566" y1="17.439" x2="81.566" y2="27.082"/>
<rect x="79.583" y="104.813" fill="#F48121" width="4.229" height="1.851"/>
<path fill="#F48121" d="M81.939,110.164h1.455l1.963-3.503H78.26l1.963,3.503H81.939z"/>
<path display="none" opacity="0.1" fill="#F48121" d="M90.027,65.854h0.207c0,0-0.531,3.444,1.363,3.568
	C93.36,69.537,93,65.854,93,65.854h3.953c0,0-0.609,3.444,1.346,3.444c1.842,0,1.42-3.444,1.42-3.444h4.063
	c0,0-0.453,3.678,1.219,3.6c1.609-0.075,1.405-3.6,1.405-3.6h3.923c0,0-0.328,3.6,1.372,3.553c1.77-0.049,1.425-3.553,1.425-3.553
	h2.934c1.098,0,1.98,0.889,1.98,1.982l0.045,17.78c-4.584-2.991-9.99-1.146-11.938,2.654c-1.48,2.887-0.774,6.952,0.409,8.2
	l-27.238,0.035c-1.094,0-1.98-0.891-1.98-1.983v-9.584c0,0,5.323-6.299,6.661-8.687"/>
<path display="none" opacity="0.1" fill="#F48121" d="M52.181,2.075c0.047-0.042,0.088-0.079,0.125-0.112
	c0.015,0.014,0.031,0.03,0.047,0.046c0.151,0.145,0.373,0.358,0.667,0.632c0.584,0.55,1.448,1.346,2.569,2.334
	c2.244,1.976,5.512,4.721,9.6,7.797c8.084,6.13,19.463,13.586,32.563,18.915c0.759,14.497-4.269,29.728-12.512,42.673
	c-8.261,12.938-19.704,23.583-31.847,28.96c-15.523-6.384-27.437-18.502-35.328-31.934C10.199,57.96,6.344,43.267,6.895,31.706
	c9.313-2.687,20.673-10.137,29.707-16.913c4.551-3.413,8.521-6.662,11.353-9.058c1.416-1.198,2.546-2.183,3.33-2.868
	C51.675,2.525,51.977,2.257,52.181,2.075z"/>
</svg>
