<?xml version="1.0" encoding="utf-8"?>
<!-- Generator: Adobe Illustrator 16.0.0, SVG Export Plug-In . SVG Version: 6.00 Build 0)  -->
<!DOCTYPE svg PUBLIC "-//W3C//DTD SVG 1.1//EN" "http://www.w3.org/Graphics/SVG/1.1/DTD/svg11.dtd">
<svg version="1.1" id="Layer_1" xmlns="http://www.w3.org/2000/svg" xmlns:xlink="http://www.w3.org/1999/xlink" x="0px" y="0px"
	 width="128px" height="128px" viewBox="0 0 128 128" enable-background="new 0 0 128 128" xml:space="preserve">
<path fill="#FFFFFF" stroke="#F48121" stroke-width="2" d="M84.657,63.044h0.481c0.584,0,1.057,0.474,1.057,1.059v4.137
	c0,0.584-0.473,1.058-1.057,1.058h-0.481c-0.584,0-1.058-0.474-1.058-1.058v-4.137C83.6,63.518,84.073,63.044,84.657,63.044z"/>
<path fill="none" stroke="#F48121" stroke-width="2" d="M82.299,74.314h2.762c0.291,0,0.525,0.234,0.525,0.526V77.6
	c0,0.291-0.234,0.527-0.525,0.527h-2.762c-0.29,0-0.527-0.236-0.527-0.527v-2.758C81.771,74.551,82.009,74.314,82.299,74.314z"/>
<path fill="none" stroke="#F48121" stroke-width="2" d="M82.299,81.007h2.762c0.291,0,0.525,0.237,0.525,0.529v2.758
	c0,0.292-0.234,0.53-0.525,0.53h-2.762c-0.29,0-0.527-0.238-0.527-0.53v-2.758C81.771,81.244,82.009,81.007,82.299,81.007z"/>
<path fill="none" stroke="#F48121" stroke-width="2" d="M82.299,87.709h2.762c0.291,0,0.525,0.236,0.525,0.529v2.758
	c0,0.292-0.234,0.527-0.525,0.527h-2.762c-0.29,0-0.527-0.235-0.527-0.527v-2.758C81.771,87.945,82.009,87.709,82.299,87.709z"/>
<path fill="#F1F1F1" d="M46.563,120.674c12.119,0,21.925,1.598,21.925,3.567c0,1.972-9.806,3.569-21.925,3.569
	s-21.943-1.6-21.943-3.569S34.444,120.674,46.563,120.674z"/>
<path fill="#0D0D0D" d="M32.023,8.715l-1.454-1.189l1.189,0.396V6.468l1.454,1.454c0,0,4.194-1.755,6.609-0.793
	c2.994,1.193,1.851,5.949,1.851,5.949l2.247,8.989c0,0-4.666,2.677-7.931,2.644c-3.167-0.033-7.667-2.644-7.667-2.644
	s0.151-5.133,1.189-8.196C30.23,11.749,32.023,8.715,32.023,8.715z"/>
<rect x="33.609" y="15.192" fill="#FDCFAD" width="5.023" height="11.369"/>
<path fill="#262626" d="M33.08,62.516l15.334,0.794l1.322,8.195l4.362,21.011l6.081,26.967l-4.495,0.266
	c0,0-1.596-4.948-2.775-8.063c-1.712-4.521-4.786-9.121-4.891-11.369c-0.104-2.246,0.396-4.492,0.396-4.492L35.988,68.596
	L33.08,62.516z"/>
<path fill="#FFCEAD" d="M20.918,54.849l0.265,0.132v1.982h0.793c0,0-0.272-1.181,0-1.851c0.167-0.411,0.661-0.925,0.661-0.925
	l0.925,0.661v3.437l-3.437-0.396L20.918,54.849z"/>
<path fill="#FFFFFF" d="M42.333,24.577c0,0,3.223,1.47,5.155,2.644c5.06,3.075,11.237,10.178,11.237,10.178l13.191-3.568v5.552
	l-15.042,4.494l-10.442-7.536L42.333,33.3l-0.925-4.89L42.333,24.577z"/>
<path fill="#FFFFFF" d="M24.884,26.693c0,0-2.997,1.601-3.9,2.775c-2.366,3.076-5.485,6.081-5.485,6.081s-2.947,2.891-3.172,5.289
	c-0.19,2.033,0.613,3.162,1.454,5.022c2.16,4.782,9.614,9.386,9.614,9.386l1.49-6.213c0,0-2.529-2.111-3.9-3.7
	c-1.244-1.443-2.841-3.966-2.841-3.966l7.535-5.817l0.661-4.758L24.884,26.693z"/>
<path fill="none" stroke="#4A4A4A" stroke-width="0.3" d="M37.169,67.757l12.567,28.197c0,0-0.745,2.478-0.661,4.097
	c0.154,2.975,2.16,5.315,3.304,8.064c1.909,4.578,3.834,10.574,3.834,10.574"/>
<path fill="#262626" d="M25.149,64.896l11.897,0.793l-1.322,29.074l-0.793,25.116h-4.362c0,0-0.788-5.493-1.455-10.313
	c-0.606-4.377-1.745-5.022-1.454-11.234c0.167-3.564,2.247-3.965,2.247-3.965s-3.701-10.575-4.758-16.254
	C24.091,72.432,25.149,64.896,25.149,64.896z"/>
<path fill="none" stroke="#4A4A4A" stroke-width="0.3" d="M25.678,69.125c0,0-0.029,4.934,0.661,8.725
	c1.135,6.24,4.759,16.782,4.759,16.782s-1.802,0.821-2.248,2.38c-0.528,1.852-0.484,6.9,0.661,9.649
	c1.587,3.807,1.983,11.897,1.983,11.897"/>
<path fill="#C4C4C4" d="M27.264,25.635l6.345-3.172l2.247,3.569l2.909-2.908l3.965,1.453l-1.058,4.098l-1.983-0.925l1.983,36.087
	h-9.385L27.264,25.635z"/>
<path fill="#ECB288" d="M38.632,21.67c0.132,1.057-2.116,1.189-2.512,1.189s-2.511-0.3-2.511-1.322c0-1.021,0-0.528,2.511-0.132
	C38.091,21.405,38.632,20.647,38.632,21.67z"/>
<path fill="#FFFFFF" d="M39.557,27.354c0,0,3.222,1.468,5.156,2.644c1.586,0.964,1.982,2.909,1.982,2.909l-0.396,2.643v9.518
	l2.512,10.972l1.719,12.956c0,0-4.423,1.02-7.271,0.793c-2.771-0.223-6.874-1.852-6.874-1.852V36.607l2.248-5.42L39.557,27.354z"/>
<path fill="#FFFFFF" d="M30.569,28.014l-1.058-3.569l-5.287,2.644l0.923,5.022l-0.526,3.173l0.526,9.385l-2.333,11.435L20.918,69.09
	c0,0,4.878,1.021,8.018,0.797c3.056-0.223,6.655-2.084,6.655-2.084V37.004l-3.172-9.915L30.569,28.014z"/>
<path fill="#252525" d="M42.628,58.266c0,0,0.523,1.058,2.312,0.812c1.788-0.247,1.968-2.674,1.968-2.674s-0.295,1.595-2.083,1.842
	C43.037,58.492,42.628,58.266,42.628,58.266z"/>
<path fill="#252525" d="M29.379,57.625c0,0-0.363,1.058-2.115,1.058s-2.247-2.247-2.247-2.247s0.495,1.454,2.247,1.454
	C29.016,57.889,29.379,57.625,29.379,57.625z"/>
<path fill="none" stroke="#ADADAD" stroke-width="0.1" d="M39.954,31.98l1.189,2.909l-3.04,5.419l4.362,9.253L38.104,63.31"/>
<path fill="none" stroke="#ADADAD" stroke-width="0.1" d="M31.229,30.922l-0.661,5.156l3.04,3.833l-4.362,9.65l3.701,13.482"/>
<path fill="#999595" d="M34.005,26.561l1.983-0.793l1.851,0.793l-0.926,2.644l1.322,2.907l-2.247,6.345l-1.983-6.345l1.189-2.907
	L34.005,26.561z"/>
<path fill="#FDCFAD" d="M31.765,11.624c0,0,0.875-0.481,1.322-0.926c0.529-0.523,1.058-1.586,1.058-1.586s1.441,1.966,2.776,2.644
	c1.399,0.712,3.965,0.662,3.965,0.662l0.264,1.058c0,0,1.052-0.3,1.455,0.265c0.647,0.907-0.133,2.775-0.794,3.437
	c-0.416,0.416-1.189,0.264-1.189,0.264s0.05,1.625-0.396,2.512c-0.459,0.913-0.946,1.375-1.85,1.851
	c-1.06,0.558-1.886,0.715-3.04,0.396c-1.135-0.313-1.652-0.926-2.38-1.851c-0.671-0.853-1.19-2.909-1.19-2.909
	s-0.704,0.203-1.322-0.396c-0.422-0.408-0.857-1.471-0.793-2.114c0.159-1.587,1.058-1.216,1.455-1.058
	c0.396,0.159,0.661,0.793,0.661,0.793L31.765,11.624L31.765,11.624z"/>
<path fill="none" stroke="#A37E62" stroke-width="0.1" d="M30.172,15.325c0,0,0.098-0.621,0.397-0.661
	c0.327-0.045,0.503,0.106,0.661,0.396c0.156,0.287,0,1.322,0,1.322"/>
<path fill="none" stroke="#A37E62" stroke-width="0.1" d="M30.833,14.795c0,0-0.264,0.096-0.264,0.396
	c0,0.265,0.371,0.239,0.529,0.529"/>
<path fill="none" stroke="#A37E62" stroke-width="0.1" d="M42.325,14.947c0,0-0.107-0.62-0.431-0.662
	c-0.357-0.043-0.549,0.107-0.721,0.397c-0.17,0.287,0,1.322,0,1.322"/>
<path fill="none" stroke="#A37E62" stroke-width="0.1" d="M41.605,14.419c0,0,0.289,0.095,0.289,0.396
	c0,0.265-0.404,0.238-0.576,0.528"/>
<path fill="none" stroke="#3A3838" stroke-width="0.1" stroke-linecap="round" d="M34.996,7.939c0,0,3.108-1.075,4.826-0.149
	c1.718,0.925,1.454,3.702,1.454,3.702"/>
<path fill="none" stroke="#3A3838" stroke-width="0.1" stroke-linecap="round" d="M34.667,8.384c0,0,3.108-1.074,4.827-0.149
	c1.718,0.926,1.454,3.701,1.454,3.701"/>
<path fill="none" stroke="#3A3838" stroke-width="0.1" stroke-linecap="round" d="M34.403,8.914c0,0,3.108-1.075,4.827-0.149
	c1.718,0.926,1.253,3.387,1.253,3.387"/>
<path fill="#535353" d="M30.701,119.881h4.229c0,0,2.424,2.113,3.173,2.643c0.749,0.531,0.264,2.115,0.264,2.115h-9.253
	c0,0,0.01-1.75,0.396-2.775C29.83,121.018,30.701,119.881,30.701,119.881z"/>
<path fill="#535353" fill-opacity="0.8" d="M55.817,119.613l4.098-0.131c0,0,2.115,1.719,4.494,2.248
	c2.37,0.527,0.528,2.379,0.528,2.379H55.42c0,0-0.386-1.619,0-2.645C55.739,120.622,55.817,119.613,55.817,119.613z"/>
<path fill="#808080" d="M31.891,123.053c0,0.875-0.396,1.188-0.396,1.188s0.132-0.313,0.132-1.188c0-0.738-0.925-1.586-0.925-1.586
	S31.891,122.175,31.891,123.053z"/>
<path fill="#808080" d="M57.931,122.523c0,0.877,0.265,1.453,0.265,1.453s-0.662-0.576-0.662-1.453c0-0.739-1.189-1.586-1.189-1.586
	S57.931,121.646,57.931,122.523z"/>
<path fill="#808080" d="M34.402,120.406c0,0-0.532,0.268-1.189,0.268c-0.657,0-1.189-0.268-1.189-0.268s0.532,0,1.189,0
	C33.87,120.406,34.402,120.406,34.402,120.406z"/>
<path fill="#808080" d="M34.667,120.938c0,0-0.533,0.266-1.19,0.266c-0.657,0-1.189-0.266-1.189-0.266s0.533,0,1.189,0
	C34.134,120.938,34.667,120.938,34.667,120.938z"/>
<path fill="#808080" d="M34.931,121.467c0,0-0.474,0.264-1.058,0.264c-0.583,0-1.057-0.264-1.057-0.264s0.474,0,1.057,0
	C34.457,121.467,34.931,121.467,34.931,121.467z"/>
<path fill="#C4C4C4" d="M60.443,119.881l0.661,0.396c0,0-0.397,0.176-0.661,0.266c-0.451,0.148-1.189,0.264-1.189,0.264
	s0.648-0.219,0.926-0.529C60.303,120.137,60.443,119.881,60.443,119.881z"/>
<path fill="#C4C4C4" d="M61.236,120.406l0.662,0.398c0,0-0.397,0.176-0.662,0.264c-0.451,0.15-1.189,0.267-1.189,0.267
	s0.648-0.219,0.925-0.528C61.096,120.667,61.236,120.406,61.236,120.406z"/>
<path fill="#C4C4C4" d="M62.162,120.938l0.529,0.228c0,0-0.227,0.103-0.378,0.151c-0.258,0.084-0.68,0.15-0.68,0.15
	s0.37-0.125,0.529-0.304C62.232,121.085,62.162,120.938,62.162,120.938z"/>
<path fill="#E3E1E1" d="M74.823,31.056c0,0,1.058-1.587,6.743-1.587c5.684,0,7.006,1.587,7.006,1.587v73.756H74.823V31.056z"/>
<path fill="#FDCFAD" d="M71.916,33.831c0,0,0-2.644,1.982-5.023c0.516-0.62,1.586-1.322,1.586-1.322h0.396v0.396
	c0,0-0.59,0.953-0.926,1.586c-0.399,0.755-0.729,1.152-0.925,1.984c-0.143,0.604-0.133,1.586-0.133,1.586s0.114,0.285,0.265,0.396
	c0.446,0.335,0.317-0.898,0.793-1.189c0.099-0.062,0.151-0.155,0.265-0.133c0.16,0.033,0.133,0.398,0.133,0.398
	s-0.189,0.901-0.396,1.453c-0.308,0.822-0.521,1.29-1.058,1.982c-0.629,0.811-1.981,1.719-1.981,1.719L71.916,33.831L71.916,33.831z
	"/>
<ellipse fill="#E9E9E9" cx="81.698" cy="124.11" rx="6.874" ry="1.587"/>
<line fill="none" stroke="#BCBCBC" stroke-linecap="round" x1="81.566" y1="110.23" x2="81.566" y2="123.714"/>
<rect x="76.675" y="74.413" fill="#BFBFBF" width="10.046" height="29.075"/>
<line fill="none" stroke="#000000" x1="74.823" y1="54.981" x2="79.583" y2="54.981"/>
<line fill="none" stroke="#000000" x1="74.823" y1="59.475" x2="79.583" y2="59.475"/>
<line fill="none" stroke="#000000" x1="74.823" y1="63.97" x2="79.583" y2="63.97"/>
<line fill="none" stroke="#000000" x1="74.823" y1="68.464" x2="79.583" y2="68.464"/>
<line fill="none" stroke="#000000" x1="74.823" y1="72.959" x2="79.583" y2="72.959"/>
<line fill="none" stroke="#000000" x1="74.823" y1="77.453" x2="79.583" y2="77.453"/>
<line fill="none" stroke="#000000" x1="74.823" y1="81.941" x2="79.583" y2="81.941"/>
<line fill="none" stroke="#000000" x1="74.823" y1="86.436" x2="79.583" y2="86.436"/>
<line fill="none" stroke="#000000" x1="74.823" y1="90.93" x2="79.583" y2="90.93"/>
<line fill="none" stroke="#000000" x1="74.823" y1="95.425" x2="79.583" y2="95.425"/>
<line fill="none" stroke="#FFFFFF" stroke-width="2" stroke-linecap="round" x1="84.475" y1="39.118" x2="84.475" y2="98.333"/>
</svg>
