<?xml version="1.0" encoding="utf-8"?>
<!-- Generator: Adobe Illustrator 16.0.0, SVG Export Plug-In . SVG Version: 6.00 Build 0)  -->
<!DOCTYPE svg PUBLIC "-//W3C//DTD SVG 1.1//EN" "http://www.w3.org/Graphics/SVG/1.1/DTD/svg11.dtd">
<svg version="1.1" id="Layer_1" xmlns="http://www.w3.org/2000/svg" xmlns:xlink="http://www.w3.org/1999/xlink" x="0px" y="0px"
	 width="128px" height="128px" viewBox="0 0 128 128" enable-background="new 0 0 128 128" xml:space="preserve">
<rect x="-2" y="-2.495" display="none" fill="#0A0A0A" width="133.5" height="133.167"/>
<line fill="none" stroke="#F48121" stroke-width="4" stroke-linecap="round" x1="47.574" y1="104.568" x2="80.402" y2="104.568"/>
<line fill="none" stroke="#F48121" stroke-width="4" stroke-linecap="round" x1="40.765" y1="93.222" x2="87.215" y2="93.222"/>
<path display="none" fill="none" stroke="#C4C4C4" stroke-width="4" d="M36.389,8.206h52.928c6.361,0,11.518,5.156,11.518,11.516
	v89.222c0,6.359-5.156,11.516-11.518,11.516H36.389c-6.359,0-11.516-5.156-11.516-11.516V19.722
	C24.873,13.362,30.03,8.206,36.389,8.206z"/>
<path display="none" fill="none" stroke="#C4C4C4" stroke-width="4" stroke-linecap="round" d="M24.263,105.179h-6.034
	c-7.95,0-14.396-6.446-14.396-14.396V36.391c0-7.126,5.777-12.904,12.904-12.904l0,0"/>
<path display="none" fill="none" stroke="#C4C4C4" stroke-width="4" stroke-linecap="round" d="M103.714,23.487h6.037
	c7.948,0,14.395,6.445,14.395,14.395v52.901c0,7.949-6.446,14.396-14.395,14.396h-1.496"/>
<path fill="none" stroke="#F48121" stroke-width="4" stroke-linecap="round" d="M40.216,75.666V63.205c0,0-1.203-4.303,7.209-6.246
	c8.41-1.945,9.61-3.332,9.61-3.332l6.81,7.078l7.207-7.078c0,0,5.207,2.498,8.409,3.332c6.407,1.666,6.407,6.246,6.407,6.246v12.461
	"/>
<path fill="none" stroke="#F48121" stroke-width="4" d="M56.119,54.416l2.783-8.867"/>
<line fill="none" stroke="#F48121" stroke-width="4" x1="69.027" y1="54.844" x2="67.284" y2="46.322"/>
<path fill="none" stroke="#F48121" stroke-width="4" d="M72.559,31.185l-0.534,6.766c-0.349,4.391-4.145,7.695-8.54,7.435
	c-3.976-0.238-7.187-3.335-7.563-7.298l-0.649-6.756c-0.49-5.096,3.517-9.506,8.637-9.506C68.968,21.825,72.958,26.14,72.559,31.185
	z"/>
</svg>
