<?xml version="1.0" encoding="utf-8"?>
<!-- Generator: Adobe Illustrator 16.0.0, SVG Export Plug-In . SVG Version: 6.00 Build 0)  -->
<!DOCTYPE svg PUBLIC "-//W3C//DTD SVG 1.1//EN" "http://www.w3.org/Graphics/SVG/1.1/DTD/svg11.dtd">
<svg version="1.1" id="Layer_1" xmlns="http://www.w3.org/2000/svg" xmlns:xlink="http://www.w3.org/1999/xlink" x="0px" y="0px"
	 width="128px" height="128px" viewBox="0 0 128 128" enable-background="new 0 0 128 128" xml:space="preserve">
<g id="seu_x5F_historico_x5F_two" display="none">
	<path display="inline" fill="none" stroke="#737375" stroke-width="4" stroke-linecap="round" stroke-miterlimit="10" d="
		M64.435,117.84c-31.749,0-57.485-25.738-57.485-57.486c0-31.749,25.737-57.485,57.485-57.485c31.75,0,57.485,25.737,57.485,57.485"
		/>
	
		<polygon display="inline" fill="#737375" stroke="#737375" stroke-width="2" stroke-linecap="round" stroke-linejoin="round" stroke-miterlimit="10" points="
		64.68,109.318 81.219,116.412 66.221,126.359 	"/>
</g>
<g id="seu_x5F_historico_x5F_one" display="none">
	
		<line display="inline" fill="none" stroke="#F48121" stroke-width="4" stroke-linecap="round" stroke-miterlimit="10" x1="62.731" y1="29.662" x2="62.731" y2="72.045"/>
	
		<line display="inline" fill="none" stroke="#F48121" stroke-width="4" stroke-linecap="round" stroke-miterlimit="10" x1="62.837" y1="72.045" x2="99.754" y2="72.045"/>
</g>
<path display="none" fill="none" stroke="#5B2905" stroke-width="4" stroke-linecap="round" d="M90.413,82.059v20.252"/>
<line display="none" fill="none" stroke="#5B2905" stroke-width="4" stroke-linecap="round" x1="39.784" y1="82.059" x2="39.784" y2="98.936"/>
<path display="none" fill="none" stroke="#5B2905" stroke-width="4" d="M90.413,102.311c5.59,0,10.126,4.535,10.126,10.127
	c0,5.59-4.536,10.127-10.126,10.127s-10.126-4.537-10.126-10.127C80.287,106.846,84.823,102.311,90.413,102.311z"/>
<path display="none" fill="none" stroke="#5B2905" stroke-width="4" stroke-linecap="round" d="M33.876,124.25L33.876,124.25
	c-3.263,0-5.906-2.645-5.906-5.906v-5.906c0-6.526,5.287-11.813,11.813-11.813l0,0c6.526,0,11.814,5.287,11.814,11.813v5.906
	c0,3.262-2.644,5.906-5.907,5.906l0,0"/>
<path fill="none" stroke="#C0C0C1" stroke-width="4" stroke-linecap="round" d="M12.167,125.51V97.663c0,0-2.679-9.59,16.067-13.92
	c18.75-4.333,21.427-7.428,21.427-7.428l15.177,15.781l16.064-15.781c0,0,11.603,5.571,18.744,7.428
	c14.284,3.712,14.284,13.92,14.284,13.92v27.847"/>
<path fill="none" stroke="#C0C0C1" stroke-width="4" d="M47.614,77.638l6.208-19.328"/>
<line fill="none" stroke="#C0C0C1" stroke-width="4" x1="82.647" y1="77.404" x2="77.112" y2="59.177"/>
<line display="none" fill="none" stroke="#F48121" stroke-width="4" stroke-linecap="round" x1="61.45" y1="16.804" x2="69.352" y2="16.804"/>
<line display="none" fill="none" stroke="#F48121" stroke-width="4" stroke-linecap="round" x1="65.397" y1="20.756" x2="65.397" y2="12.851"/>
<line display="none" fill="none" stroke="#F48121" stroke-width="4" stroke-linecap="round" x1="73.104" y1="107.593" x2="96.821" y2="107.593"/>
<line display="none" fill="none" stroke="#F48121" stroke-width="4" stroke-linecap="round" x1="84.965" y1="119.449" x2="84.965" y2="95.732"/>
<path fill="none" stroke="#C4C4C4" stroke-width="4" d="M87.139,37.063l-0.516-21.096C86.444,8.737,80.537,2.968,73.304,2.968l0,0
	h-7.906h-8.662c-0.806,0-1.618,0.075-2.413,0.224l0,0c-6.18,1.16-10.664,6.559-10.664,12.851v22.502"/>
<path fill="none" stroke="#C4C4C4" stroke-width="4" d="M87.139,34.592c0,8.493-1.876,15.461-5.396,20.201
	c-3.394,4.571-8.593,7.47-16.345,7.47c-7.746,0-12.946-2.899-16.339-7.47c-3.523-4.74-5.399-11.708-5.399-20.201
	c0-4.299,0.733-5.844,1.12-6.315l0.003-0.004c0.128-0.156,0.444-0.537,2.22-0.432c1.562,0.09,3.375,0.492,5.777,1.022
	c0.564,0.124,1.158,0.257,1.788,0.392c3.126,0.676,6.847,1.384,10.83,1.384c3.988,0,7.708-0.708,10.837-1.384
	c0.629-0.135,1.223-0.266,1.786-0.392c2.4-0.53,4.217-0.932,5.774-1.022c1.776-0.104,2.094,0.276,2.221,0.434l0.004,0.002
	C86.405,28.748,87.139,30.292,87.139,34.592z"/>
</svg>
