<?xml version="1.0" encoding="utf-8"?>
<!-- Generator: Adobe Illustrator 16.0.0, SVG Export Plug-In . SVG Version: 6.00 Build 0)  -->
<!DOCTYPE svg PUBLIC "-//W3C//DTD SVG 1.1//EN" "http://www.w3.org/Graphics/SVG/1.1/DTD/svg11.dtd">
<svg version="1.1" id="Layer_1" xmlns="http://www.w3.org/2000/svg" xmlns:xlink="http://www.w3.org/1999/xlink" x="0px" y="0px"
	 width="128px" height="128px" viewBox="0 0 128 128" enable-background="new 0 0 128 128" xml:space="preserve">
<path display="none" fill="none" stroke="#F48121" stroke-width="4" stroke-linecap="round" d="M48.059,75.178h26.667"/>
<path display="none" fill="none" stroke="#F48121" stroke-width="4" stroke-linecap="round" d="M48.059,75.178h26.667"/>
<path display="none" fill="none" stroke="#F48121" stroke-width="4" stroke-linecap="round" d="M74.727,54.21H48.059"/>
<path display="none" fill="none" stroke="#F48121" stroke-width="4" stroke-linecap="round" d="M74.727,54.21H48.059"/>
<path display="none" fill="none" stroke="#F48121" stroke-width="4" stroke-linecap="round" d="M97.176,47.372l-8.83,8.103
	c-0.471,0.431-1.203,0.394-1.624-0.084l-3.563-4.03"/>
<path display="none" fill="none" stroke="#F48121" stroke-width="4" stroke-linecap="round" d="M97.176,47.372l-8.83,8.103
	c-0.471,0.431-1.203,0.394-1.624-0.084l-3.563-4.03"/>
<path display="none" fill="none" stroke="#F48121" stroke-width="4" stroke-linecap="round" d="M97.176,69.024l-8.83,8.104
	c-0.471,0.431-1.203,0.393-1.624-0.085l-3.563-4.03"/>
<path display="none" fill="none" stroke="#F48121" stroke-width="4" stroke-linecap="round" d="M97.176,69.024l-8.83,8.104
	c-0.471,0.431-1.203,0.393-1.624-0.085l-3.563-4.03"/>
<path display="none" fill="#F48121" d="M17.519,71.76l1.735-1.336c1.599-1.229,3.824-1.236,5.429-0.014l0,0
	c1.511,1.149,3.583,1.218,5.167,0.172l3.396-2.242v16.752c0,4.343-3.521,7.863-7.864,7.863l0,0c-4.342,0-7.863-3.521-7.863-7.863
	V71.76z"/>
<circle display="none" fill="#F48121" cx="27.319" cy="60.135" r="3.875"/>
<circle display="none" fill="#F48121" cx="20.595" cy="48.625" r="2.849"/>
<circle display="none" fill="#F48121" cx="31.991" cy="28.341" r="2.849"/>
<circle display="none" fill="#F48121" cx="22.647" cy="24.238" r="1.938"/>
<path display="none" fill="#F48121" d="M97.872,36.546c-7.043-0.019-12.383-6.357-11.205-13.301l1.184-6.983
	c0.324-1.913,2.74-2.572,3.99-1.087l14.862,17.643c1.251,1.485,0.192,3.753-1.748,3.748L97.872,36.546z"/>
<path display="none" fill="#F48121" d="M86.053,107.177c-1.001,0-1.928-0.251-2.78-0.752c-0.853-0.499-1.529-1.177-2.03-2.028
	c-0.5-0.854-0.75-1.771-0.75-2.753c0-0.983,0.25-1.9,0.75-2.753c0.501-0.854,1.178-1.529,2.03-2.031
	c0.853-0.518,1.779-0.777,2.78-0.777c0.982,0,1.899,0.26,2.753,0.777c0.853,0.502,1.529,1.178,2.029,2.031
	c0.5,0.853,0.751,1.77,0.751,2.753c0,0.982-0.251,1.899-0.751,2.753c-0.5,0.852-1.177,1.529-2.029,2.028
	C87.972,106.926,87.054,107.177,86.053,107.177z M84.385,117.798c-0.408,0-0.751-0.139-1.029-0.417
	c-0.26-0.278-0.389-0.612-0.389-1.001s0.111-0.704,0.333-0.944l14.626-18.798c0.334-0.371,0.714-0.556,1.14-0.556
	c0.408,0,0.752,0.139,1.029,0.417c0.278,0.278,0.417,0.611,0.417,1c0,0.316-0.102,0.604-0.306,0.862L85.44,117.353
	C85.163,117.648,84.811,117.798,84.385,117.798z M86.053,104.341c0.742,0,1.372-0.261,1.891-0.779
	c0.538-0.538,0.807-1.178,0.807-1.918c0-0.742-0.269-1.382-0.807-1.92s-1.168-0.806-1.891-0.806c-0.761,0-1.408,0.268-1.946,0.806
	c-0.52,0.538-0.779,1.178-0.779,1.92c0,0.74,0.26,1.38,0.779,1.918C84.645,104.08,85.292,104.341,86.053,104.341z M97.342,117.798
	c-1.001,0-1.928-0.249-2.78-0.751c-0.834-0.5-1.502-1.168-2.002-2.002c-0.501-0.853-0.751-1.779-0.751-2.78
	c0-1.002,0.25-1.919,0.751-2.753c0.5-0.854,1.168-1.529,2.002-2.029c0.853-0.501,1.779-0.751,2.78-0.751
	c0.982,0,1.9,0.25,2.753,0.751c0.854,0.481,1.529,1.149,2.03,2.002c0.518,0.852,0.778,1.778,0.778,2.78
	c0,1.001-0.25,1.928-0.751,2.78c-0.5,0.834-1.178,1.502-2.03,2.002C99.271,117.549,98.343,117.798,97.342,117.798z M97.342,114.962
	c0.741,0,1.381-0.26,1.918-0.779c0.538-0.538,0.808-1.177,0.808-1.918s-0.27-1.372-0.808-1.892
	c-0.537-0.537-1.177-0.806-1.918-0.806s-1.382,0.269-1.919,0.806c-0.519,0.52-0.778,1.15-0.778,1.892s0.26,1.38,0.778,1.918
	C95.96,114.702,96.601,114.962,97.342,114.962z"/>
<path fill="none" stroke="#B9B9BA" stroke-width="4" stroke-linecap="round" d="M12.96,24.466L12.96,24.466
	c0-11.769,9.542-21.31,21.311-21.31h45.261c6.971,0,13.557,3.189,17.88,8.657l6.489,8.208l9.672,11.117
	c3.61,4.148,5.598,9.462,5.598,14.961v31.585 M12.96,102.072v0.91c0,12.588,10.204,22.793,22.792,22.793h2.85"/>
<path fill="none" stroke="#B9B9BA" stroke-width="4" d="M13.188,46.916v39.43c0,6.293,5.102,11.396,11.396,11.396h1.596
	c6.293,0,11.396-5.103,11.396-11.396v-39.43"/>
<path fill="none" stroke="#B9B9BA" stroke-width="4" d="M14.328,47.6H9.77c-1.259,0-2.279-1.02-2.279-2.279v-6.838
	c0-1.259,1.021-2.279,2.279-2.279h31.225c1.259,0,2.279,1.021,2.279,2.279v6.838c0,1.259-1.02,2.279-2.279,2.279h-4.559"/>
<path fill="none" stroke="#B9B9BA" stroke-width="4" d="M51.25,96.265v-6.044c0-0.63,0.511-1.14,1.14-1.14h12.995
	c0.231,0,0.509,0.094,0.894,0.355c0.289,0.196,0.544,0.417,0.842,0.674c0.127,0.109,0.262,0.226,0.41,0.349
	c0.578,0.483,1.357,0.814,2.348,0.814c0.658,0,1.233-0.147,1.719-0.422c0.353-0.198,0.674-0.441,0.949-0.658
	c0.114-0.092,0.217-0.174,0.313-0.251c0.158-0.129,0.301-0.243,0.46-0.363c0.503-0.378,0.801-0.498,1.036-0.498h45.955
	c0.63,0,1.141,0.51,1.141,1.14v6.041c0,0.608-0.532,1.268-1.356,1.443c-1.507,0.322-3.536,1.005-5.204,2.486
	c-1.709,1.518-2.958,3.802-2.958,7.123c0,3.105,1.278,5.232,2.993,6.629c1.668,1.358,3.688,1.982,5.185,2.274
	c0.812,0.159,1.341,0.809,1.341,1.416v6.773c0,0.63-0.511,1.14-1.141,1.14H74.354c-0.249,0-0.566-0.126-1.083-0.499
	c-0.169-0.12-0.324-0.241-0.496-0.375c-0.091-0.07-0.188-0.144-0.293-0.225c-0.278-0.212-0.602-0.447-0.95-0.643
	c-0.443-0.246-0.966-0.402-1.566-0.448c-0.848-0.064-1.572,0.086-2.166,0.425c-0.351,0.199-0.67,0.44-0.945,0.656
	c-0.107,0.087-0.206,0.164-0.297,0.238c-0.165,0.133-0.313,0.251-0.477,0.373c-0.504,0.375-0.808,0.497-1.046,0.497H52.39
	c-0.629,0-1.14-0.51-1.14-1.14v-6.684c0-0.625,0.558-1.284,1.39-1.412c1.506-0.229,3.529-0.757,5.233-1.989
	c1.752-1.268,3.117-3.253,3.26-6.224c0.173-3.642-1.111-6.134-2.944-7.775c-1.783-1.597-3.994-2.309-5.596-2.633
	C51.779,97.525,51.25,96.874,51.25,96.265z"/>
<circle fill="#B9B9BA" cx="69.827" cy="104.237" r="1.709"/>
<circle fill="#B9B9BA" cx="69.827" cy="98.311" r="1.709"/>
<circle fill="#B9B9BA" cx="69.827" cy="110.164" r="1.709"/>
<circle fill="#B9B9BA" cx="69.827" cy="116.089" r="1.709"/>
</svg>
