<svg width="32" height="32" viewBox="0 0 32 32" fill="none" xmlns="http://www.w3.org/2000/svg">
<path fill-rule="evenodd" clip-rule="evenodd" d="M4.59376 0.0651834C4.3407 0.180128 4.07893 0.499543 4.03314 0.74934C4.0128 0.860278 4.00467 1.94204 4.01499 3.15334C4.03307 5.2646 4.03914 5.36289 4.16283 5.52848C4.40801 5.85698 4.60797 5.95946 5.00355 5.95946C5.3992 5.95946 5.59915 5.85691 5.84427 5.52842C5.96928 5.36095 5.97328 5.28157 5.97328 2.98568C5.97328 0.689802 5.96928 0.610418 5.84427 0.442947C5.77333 0.347849 5.6417 0.215062 5.55179 0.147886C5.34471 -0.00681331 4.84702 -0.0497609 4.59376 0.0651834ZM20.6099 0.0651834C20.3568 0.180128 20.0951 0.499543 20.0493 0.74934C20.0289 0.860278 20.0208 1.94204 20.0311 3.15334C20.0492 5.2646 20.0553 5.36289 20.179 5.52848C20.4242 5.85698 20.6241 5.95946 21.0197 5.95946C21.4153 5.95946 21.6153 5.85691 21.8604 5.52842C21.9854 5.36095 21.9894 5.28157 21.9894 2.98568C21.9894 0.689802 21.9854 0.610418 21.8604 0.442947C21.7895 0.347849 21.6578 0.215062 21.5679 0.147886C21.3609 -0.00681331 20.8632 -0.0497609 20.6099 0.0651834ZM1.6207 4.07296C1.05282 4.22622 0.51753 4.65557 0.248008 5.17401C-0.00118062 5.65338 8.09284e-06 5.6058 8.09284e-06 15.006C8.09284e-06 24.5444 -0.00556001 24.3454 0.275411 24.8889C0.445895 25.2186 0.910113 25.6433 1.30007 25.8262L1.65643 25.9933L7.83453 26.0105L14.0126 26.0276V25.0245V24.0213H8.08166C3.55209 24.0213 2.13291 24.0035 2.0756 23.9461C2.01811 23.8886 2.00052 22.246 2.00052 16.9343V9.99754H13.0116H24.0227V12.0009V14.0043H25.0259H26.0289L26.0112 9.82538L25.9935 5.64643L25.8292 5.3021C25.5873 4.79493 25.2647 4.45974 24.7969 4.22923C24.4309 4.04898 24.316 4.02463 23.7115 3.99971L23.0354 3.97185L23.0114 4.71523C22.9909 5.35338 22.9645 5.50814 22.8251 5.80833C22.4839 6.54308 21.8299 6.96034 21.0197 6.96034C20.2095 6.96034 19.5555 6.54308 19.2143 5.80833C19.0752 5.50883 19.0485 5.35294 19.0282 4.723L19.0045 3.98738H13.0116H7.01877L6.99506 4.723C6.97473 5.35294 6.94801 5.50883 6.80893 5.80833C6.46772 6.54308 5.81374 6.96034 5.00355 6.96034C4.19336 6.96034 3.53939 6.54308 3.19817 5.80833C3.05909 5.50883 3.03238 5.35294 3.01204 4.723L2.98833 3.98738L2.44754 3.99157C2.15005 3.99395 1.77799 4.03058 1.6207 4.07296ZM4.00254 14.0043V16.0077H6.00456H8.00658V14.0043V12.0009H6.00456H4.00254V14.0043ZM10.0086 14.0043V16.0077H12.0106H14.0126V14.0043V12.0009H12.0106H10.0086V14.0043ZM16.0147 14.0043V16.0077H18.0167H20.0187V14.0043V12.0009H18.0167H16.0147V14.0043ZM22.9989 16.0744C19.9736 16.494 17.3989 18.6053 16.455 21.4405C16.1378 22.3932 16.0494 22.9554 16.0494 24.0213C16.0494 25.0913 16.1373 25.6473 16.4604 26.6194C17.2133 28.8853 19.1663 30.835 21.4437 31.5942C22.3958 31.9116 22.9576 32 24.0227 32C25.7343 32 27.0405 31.6084 28.4647 30.6684C30.1991 29.5235 31.4339 27.6658 31.8842 25.5238C32.0386 24.7892 32.0386 23.2533 31.8842 22.5187C31.5274 20.8217 30.7732 19.4416 29.5639 18.2733C28.4278 17.1757 27.117 16.486 25.5555 16.1638C24.9534 16.0396 23.5927 15.992 22.9989 16.0744ZM4.00254 20.0145V22.0179H6.00456H8.00658V20.0145V18.0111H6.00456H4.00254V20.0145ZM10.0086 20.0145V22.0179H12.0106H14.0126V20.0145V18.0111H12.0106H10.0086V20.0145ZM25.1703 18.14C25.9174 18.2915 26.6965 18.6061 27.3073 19.0028C27.8687 19.3675 28.6734 20.1736 29.0358 20.7345C29.6409 21.6709 30.0288 22.9548 30.0288 24.0213C30.0288 25.0877 29.6409 26.3716 29.0358 27.3081C28.6734 27.869 27.8687 28.6751 27.3073 29.0397C26.3815 29.641 25.0885 30.0314 24.0227 30.0314C22.957 30.0314 21.674 29.6433 20.7382 29.0377C20.1772 28.6748 19.3724 27.8695 19.0097 27.3081C18.4046 26.3716 18.0167 25.0877 18.0167 24.0213C18.0167 22.9548 18.4046 21.6709 19.0097 20.7345C19.1655 20.4934 19.5195 20.0694 19.7965 19.7922C21.2307 18.357 23.222 17.7448 25.1703 18.14ZM27.2134 21.8366C27.1274 21.8702 26.2202 22.7338 25.1974 23.7557L23.3377 25.6137L22.1619 24.4474C20.8994 23.1952 20.8181 23.1425 20.2826 23.2294C19.6703 23.3288 19.3093 24.0692 19.6022 24.6247C19.6541 24.7232 20.4096 25.513 21.281 26.3799C22.6571 27.7488 22.8969 27.9617 23.1059 28C23.6483 28.0996 23.6919 28.0658 26.0448 25.7219C27.243 24.5283 28.2811 23.4721 28.3517 23.3748C28.9219 22.5886 28.1068 21.4871 27.2134 21.8366Z" fill="#F48121"/>
</svg>
