<?xml version="1.0" encoding="utf-8"?>
<!-- Generator: Adobe Illustrator 16.0.0, SVG Export Plug-In . SVG Version: 6.00 Build 0)  -->
<!DOCTYPE svg PUBLIC "-//W3C//DTD SVG 1.1//EN" "http://www.w3.org/Graphics/SVG/1.1/DTD/svg11.dtd">
<svg version="1.1" id="Layer_1" xmlns="http://www.w3.org/2000/svg" xmlns:xlink="http://www.w3.org/1999/xlink" x="0px" y="0px"
	 width="512px" height="512px" viewBox="0 0 512 512" enable-background="new 0 0 512 512" xml:space="preserve">
<path fill="#FFFFFF" d="M253.579,335.238c0,47.678-126.104,62.788-173.784,62.788c-47.679,0-39.291,3.362-39.291-62.788
	c0-47.681,38.653-103.149,86.332-103.149C174.516,232.089,253.579,287.558,253.579,335.238z"/>
<path fill="#EFEFEF" d="M450.345,393.07c-33.084,13.951-198.828-5.622-235.256-44.486c-11.405,7.683,18.538-145.48,72.461-196.02
	c38.865-36.429,126.363-38.867,162.791,0C535.568,232.563,489.207,356.643,450.345,393.07z"/>
<line fill="none" stroke="#CACACA" stroke-width="6" stroke-linecap="round" x1="5.038" y1="396.579" x2="505.143" y2="399.818"/>
<path fill="#5B5B5B" d="M74.481,144.069h66.29l39.776,232.536c1.732,10.12-6.065,19.365-16.334,19.365H41.874
	c-10.526,0-18.385-9.686-16.217-19.986L74.481,144.069z"/>
<path fill="#FDFEFF" d="M76.138,144.069h294.991l45.813,232.12c2.02,10.242-5.821,19.781-16.259,19.781H136.34
	c-7.996,0-14.851-5.71-16.3-13.568L76.138,144.069z"/>
<path fill="#EDEDED" d="M135.961,264.848c-0.932-4.146,2.219-8.087,6.467-8.087h10.274c3.1,0,5.787,2.149,6.468,5.173l2.983,13.258
	c0.932,4.146-2.219,8.085-6.467,8.085h-10.276c-3.099,0-5.786-2.147-6.467-5.17L135.961,264.848z"/>
<path fill="#EDEDED" d="M169.105,264.848c-0.931-4.146,2.219-8.087,6.468-8.087h10.274c3.1,0,5.786,2.149,6.467,5.173l2.981,13.258
	c0.935,4.146-2.217,8.085-6.466,8.085h-10.275c-3.1,0-5.786-2.147-6.468-5.17L169.105,264.848z"/>
<path fill="#EDEDED" d="M202.251,264.848c-0.934-4.146,2.218-8.087,6.466-8.087h10.276c3.099,0,5.788,2.149,6.466,5.173
	l2.984,13.258c0.935,4.146-2.218,8.085-6.467,8.085H211.7c-3.099,0-5.787-2.147-6.465-5.17L202.251,264.848z"/>
<path fill="#EDEDED" d="M235.396,264.848c-0.934-4.146,2.216-8.087,6.468-8.087h10.274c3.1,0,5.787,2.149,6.466,5.173l2.984,13.258
	c0.933,4.146-2.217,8.085-6.467,8.085h-10.275c-3.1,0-5.789-2.147-6.466-5.17L235.396,264.848z"/>
<path fill="#EDEDED" d="M268.541,264.848c-0.933-4.146,2.217-8.087,6.467-8.087h10.273c3.101,0,5.788,2.149,6.467,5.173
	l2.984,13.258c0.933,4.146-2.216,8.085-6.467,8.085h-10.273c-3.101,0-5.788-2.147-6.467-5.17L268.541,264.848z"/>
<path fill="#EDEDED" d="M301.685,264.848c-0.932-4.146,2.219-8.087,6.469-8.087h10.274c3.101,0,5.787,2.149,6.466,5.173
	l2.984,13.258c0.933,4.146-2.218,8.085-6.467,8.085h-10.273c-3.103,0-5.789-2.147-6.469-5.17L301.685,264.848z"/>
<path fill="#EDEDED" d="M338.145,264.848c-0.931-4.146,2.217-8.087,6.468-8.087h10.273c3.101,0,5.787,2.149,6.467,5.173
	l2.985,13.258c0.932,4.146-2.217,8.085-6.468,8.085h-10.274c-3.1,0-5.786-2.147-6.466-5.17L338.145,264.848z"/>
<path fill="#EDEDED" d="M225.692,231.855c-1.044-4.187,2.115-8.239,6.432-8.239h12.847c3.043,0,5.694,2.072,6.435,5.021
	l3.313,13.258c1.044,4.185-2.116,8.239-6.433,8.239h-12.847c-3.041,0-5.693-2.073-6.433-5.022L225.692,231.855z"/>
<path fill="#EDEDED" d="M258.837,231.855c-1.043-4.187,2.116-8.239,6.433-8.239h12.848c3.04,0,5.695,2.072,6.432,5.021l3.315,13.258
	c1.042,4.185-2.117,8.239-6.436,8.239h-12.844c-3.044,0-5.693-2.073-6.434-5.022L258.837,231.855z"/>
<path fill="#EDEDED" d="M295.056,231.702c-0.932-4.146,2.218-8.085,6.469-8.085h10.273c3.102,0,5.787,2.149,6.466,5.174
	l2.984,13.256c0.933,4.146-2.215,8.088-6.466,8.088h-10.273c-3.101,0-5.787-2.15-6.469-5.174L295.056,231.702z"/>
<path fill="#EDEDED" d="M328.441,231.855c-1.043-4.187,2.116-8.239,6.434-8.239h12.847c3.039,0,5.694,2.072,6.432,5.021
	l3.315,13.258c1.041,4.185-2.117,8.239-6.434,8.239h-12.846c-3.043,0-5.696-2.073-6.434-5.022L328.441,231.855z"/>
<path fill="#EDEDED" d="M142.901,298.187c-1.08-4.196,2.088-8.279,6.418-8.279h10.177c3.024,0,5.666,2.047,6.42,4.977l2.556,9.943
	c1.08,4.196-2.089,8.281-6.419,8.281h-10.176c-3.025,0-5.666-2.05-6.421-4.979L142.901,298.187z"/>
<path fill="#EDEDED" d="M176.046,298.187c-1.08-4.196,2.087-8.279,6.418-8.279h10.176c3.025,0,5.666,2.047,6.418,4.977l2.559,9.943
	c1.077,4.196-2.092,8.281-6.42,8.281h-10.176c-3.025,0-5.666-2.05-6.42-4.979L176.046,298.187z"/>
<path fill="#EDEDED" d="M209.189,298.187c-1.078-4.196,2.091-8.279,6.42-8.279h10.176c3.024,0,5.666,2.047,6.419,4.977l2.558,9.943
	c1.079,4.196-2.09,8.281-6.419,8.281h-10.175c-3.026,0-5.668-2.05-6.421-4.979L209.189,298.187z"/>
<path fill="#EDEDED" d="M242.333,298.187c-1.077-4.196,2.092-8.279,6.42-8.279h10.175c3.025,0,5.668,2.047,6.421,4.977l2.56,9.943
	c1.076,4.196-2.094,8.281-6.422,8.281h-10.175c-3.026,0-5.667-2.05-6.418-4.979L242.333,298.187z"/>
<path fill="#EDEDED" d="M275.48,298.187c-1.08-4.196,2.092-8.279,6.42-8.279h10.172c3.029,0,5.67,2.047,6.423,4.977l2.555,9.943
	c1.082,4.196-2.089,8.281-6.418,8.281H284.46c-3.031,0-5.671-2.05-6.423-4.979L275.48,298.187z"/>
<path fill="#EDEDED" d="M308.626,298.187c-1.082-4.196,2.09-8.279,6.416-8.279h10.176c3.029,0,5.67,2.047,6.422,4.977l2.558,9.943
	c1.08,4.196-2.093,8.281-6.421,8.281h-10.172c-3.03,0-5.671-2.05-6.422-4.979L308.626,298.187z"/>
<path fill="#EDEDED" d="M345.085,298.187c-1.08-4.196,2.09-8.279,6.418-8.279h10.173c3.03,0,5.672,2.047,6.424,4.977l2.555,9.943
	c1.083,4.196-2.09,8.281-6.417,8.281h-10.173c-3.029,0-5.672-2.05-6.422-4.979L345.085,298.187z"/>
<path fill="#EDEDED" d="M149.53,331.33c-1.081-4.193,2.087-8.28,6.418-8.28h10.176c3.025,0,5.666,2.05,6.421,4.979l2.554,9.943
	c1.08,4.195-2.087,8.279-6.42,8.279h-10.174c-3.024,0-5.666-2.048-6.42-4.979L149.53,331.33z"/>
<path fill="#EDEDED" d="M215.817,331.33c-1.077-4.193,2.091-8.28,6.42-8.28h10.173c3.027,0,5.67,2.05,6.422,4.979l2.559,9.943
	c1.077,4.195-2.091,8.279-6.42,8.279h-10.176c-3.025,0-5.667-2.048-6.418-4.979L215.817,331.33z"/>
<path fill="#EDEDED" d="M248.962,331.33c-1.076-4.193,2.092-8.28,6.421-8.28h10.174c3.027,0,5.667,2.05,6.421,4.979l2.558,9.943
	c1.081,4.195-2.092,8.279-6.421,8.279h-10.173c-3.029,0-5.668-2.048-6.421-4.979L248.962,331.33z"/>
<path fill="#EDEDED" d="M282.11,331.33c-1.083-4.193,2.091-8.28,6.416-8.28H298.7c3.029,0,5.672,2.05,6.425,4.979l2.556,9.943
	c1.08,4.195-2.092,8.279-6.419,8.279H291.09c-3.03,0-5.672-2.048-6.425-4.979L282.11,331.33z"/>
<path fill="#EDEDED" d="M315.253,331.33c-1.08-4.193,2.092-8.28,6.421-8.28h10.172c3.029,0,5.672,2.05,6.422,4.979l2.559,9.943
	c1.08,4.195-2.092,8.279-6.421,8.279h-10.172c-3.031,0-5.671-2.048-6.422-4.979L315.253,331.33z"/>
<path fill="#EDEDED" d="M351.714,331.33c-1.081-4.193,2.091-8.28,6.418-8.28h10.173c3.03,0,5.672,2.05,6.423,4.979l2.556,9.943
	c1.081,4.195-2.09,8.279-6.419,8.279h-10.172c-3.03,0-5.67-2.048-6.423-4.979L351.714,331.33z"/>
<path fill="#EDEDED" d="M153.129,364.645c-1.21-4.233,1.969-8.449,6.373-8.449h12.728c2.96,0,5.561,1.963,6.375,4.811l2.841,9.943
	c1.211,4.233-1.969,8.448-6.373,8.448h-12.729c-2.959,0-5.56-1.961-6.375-4.811L153.129,364.645z"/>
<path fill="#EDEDED" d="M189.303,364.476c-1.08-4.193,2.087-8.28,6.418-8.28h10.174c3.027,0,5.669,2.05,6.421,4.979l2.56,9.943
	c1.077,4.195-2.091,8.28-6.421,8.28h-10.175c-3.026,0-5.667-2.049-6.422-4.979L189.303,364.476z"/>
<path fill="#EDEDED" d="M222.447,364.476c-1.078-4.193,2.091-8.28,6.42-8.28h10.175c3.026,0,5.667,2.05,6.42,4.979l2.558,9.943
	c1.08,4.195-2.09,8.28-6.419,8.28h-10.176c-3.027,0-5.667-2.049-6.421-4.979L222.447,364.476z"/>
<path fill="#EDEDED" d="M255.592,364.476c-1.078-4.193,2.092-8.28,6.422-8.28h10.174c3.027,0,5.668,2.05,6.421,4.979l2.557,9.943
	c1.081,4.195-2.093,8.28-6.419,8.28h-10.175c-3.026,0-5.668-2.049-6.421-4.979L255.592,364.476z"/>
<path fill="#EDEDED" d="M288.737,364.476c-1.08-4.193,2.091-8.28,6.419-8.28h10.173c3.03,0,5.673,2.05,6.423,4.979l2.558,9.943
	c1.08,4.195-2.091,8.28-6.42,8.28h-10.172c-3.03,0-5.672-2.049-6.423-4.979L288.737,364.476z"/>
<path fill="#EDEDED" d="M321.884,364.476c-1.081-4.193,2.09-8.28,6.42-8.28h10.172c3.029,0,5.669,2.05,6.422,4.979l2.556,9.943
	c1.083,4.195-2.092,8.28-6.417,8.28h-10.174c-3.03,0-5.671-2.049-6.422-4.979L321.884,364.476z"/>
<path fill="none" stroke="#9F9F9F" stroke-linecap="round" d="M117.57,142.411c0-8.237-6.678-14.915-14.916-14.915
	c-8.237,0-14.915,6.677-14.915,14.915"/>
<path fill="none" stroke="#9F9F9F" stroke-linecap="round" d="M137.456,142.411c0-8.237-6.677-14.915-14.916-14.915
	c-8.237,0-14.915,6.677-14.915,14.915"/>
<path fill="none" stroke="#9F9F9F" stroke-linecap="round" d="M157.344,142.411c0-8.237-6.678-14.915-14.916-14.915
	c-8.238,0-14.916,6.677-14.916,14.915"/>
<path fill="none" stroke="#9F9F9F" stroke-linecap="round" d="M177.23,142.411c0-8.237-6.676-14.915-14.915-14.915
	c-8.238,0-14.916,6.677-14.916,14.915"/>
<path fill="none" stroke="#9F9F9F" stroke-linecap="round" d="M197.117,142.411c0-8.237-6.677-14.915-14.915-14.915
	c-8.237,0-14.915,6.677-14.915,14.915"/>
<path fill="none" stroke="#9F9F9F" stroke-linecap="round" d="M217.003,142.411c0-8.237-6.678-14.915-14.915-14.915
	c-8.235,0-14.914,6.677-14.914,14.915"/>
<path fill="none" stroke="#9F9F9F" stroke-linecap="round" d="M236.892,142.411c0-8.237-6.681-14.915-14.916-14.915
	c-8.236,0-14.916,6.677-14.916,14.915"/>
<path fill="none" stroke="#9F9F9F" stroke-linecap="round" d="M256.779,142.411c0-8.237-6.679-14.915-14.916-14.915
	c-8.237,0-14.917,6.677-14.917,14.915"/>
<path fill="none" stroke="#9F9F9F" stroke-linecap="round" d="M276.664,142.411c0-8.237-6.678-14.915-14.914-14.915
	c-8.237,0-14.916,6.677-14.916,14.915"/>
<path fill="none" stroke="#9F9F9F" stroke-linecap="round" d="M296.551,142.411c0-8.237-6.679-14.915-14.915-14.915
	c-8.233,0-14.916,6.677-14.916,14.915"/>
<path fill="none" stroke="#9F9F9F" stroke-linecap="round" d="M316.438,142.411c0-8.237-6.681-14.915-14.913-14.915
	c-8.235,0-14.916,6.677-14.916,14.915"/>
<path fill="none" stroke="#9F9F9F" stroke-linecap="round" d="M336.326,142.411c0-8.237-6.683-14.915-14.915-14.915
	c-8.235,0-14.915,6.677-14.915,14.915"/>
<path fill="none" stroke="#9F9F9F" stroke-linecap="round" d="M356.212,142.411c0-8.237-6.679-14.915-14.915-14.915
	c-8.234,0-14.915,6.677-14.915,14.915"/>
<path fill="#B25A50" d="M361.975,220.923l34.867-19.13l3.191,5.813l-34.871,19.13L361.975,220.923z"/>
<path fill="#A78A71" d="M380.389,217.862l4.421-2.813c0,0-1.967-4.334-1.193-4.826c0.549-0.351,0.964-0.454,1.607-0.402
	c0.647,0.049-0.056,2.045,0.803,3.216c1.576,2.15,4.824,5.626,4.824,5.626l-4.423,2.813l-4.018-2.413L380.389,217.862z"/>
<path fill="#F9A986" d="M355.507,226.363l6.468-5.44l3.188,5.813l-8.063,2.531c0,0-3.011,1.411-3.703,0.143
	C352.696,228.141,355.507,226.363,355.507,226.363z"/>
<path fill="#A86660" d="M355.507,226.368l1.593,2.903c0,0-3.003,1.413-3.703,0.142C352.704,228.144,355.507,226.368,355.507,226.368
	z"/>
<path fill="#A78A71" d="M434.114,175.557l6.628-3.315l6.63,1.658l1.656,6.629v6.629l1.658,13.258l-8.288,8.286l-4.97-3.316v-3.313
	v-8.286h-3.314c0,0-1.552-4.988-1.657-8.286C432.329,181.564,434.114,175.557,434.114,175.557z"/>
<path fill="#76AF84" d="M432.457,376.083l9.941,1.658l-1.656,13.258h-8.285V376.083z"/>
<path fill="#76AF84" d="M473.888,374.427l9.942-4.972l4.971,13.257l-8.285,3.314L473.888,374.427z"/>
<path fill="#010101" d="M475.544,395.97l4.972-3.313l-1.657-9.944l8.286-3.314l4.971,6.629l-6.626,13.257h-11.602L475.544,395.97z"
	/>
<path fill="#010101" d="M420.856,395.97l8.285-1.657l3.315-4.971h8.285v9.941h-21.546L420.856,395.97z"/>
<path fill="#544C38" d="M424.171,273.332l16.571-3.313l9.944,53.03l-1.658,24.859l-3.314,16.574l-1.657,16.572l-14.915-1.658
	L424.171,273.332z"/>
<path fill="#8D8269" d="M429.142,279.963v-6.631l14.915-3.313l16.573-1.657c0,0,0.175,14.239,1.656,23.201
	c1.306,7.897,2.016,12.446,4.972,19.887c3.321,8.357,8.634,11.401,11.601,19.888c3.027,8.635,1.78,14.178,3.314,23.202
	c1.661,9.762,3.316,14.915,3.316,14.915l-13.26,8.286c0,0-9.243-21.282-18.229-39.775
	C443.231,315.802,429.142,279.963,429.142,279.963z"/>
<path fill="#A78A71" d="M467.258,279.963h4.972l-1.656,6.63c0,0-2.515,6.201-4.974,4.971c-2.313-1.158,0-6.63,0-6.63
	s-1.201,0.46-1.656,0c-0.455-0.459,0-1.657,0-1.657L467.258,279.963z"/>
<path fill="#282828" d="M430.799,170.584c1.828,0,3.315,1.482,3.315,3.315c0,1.832-1.487,3.314-3.315,3.314
	s-3.315-1.483-3.315-3.314C427.483,172.067,428.971,170.584,430.799,170.584z"/>
<path fill="#282828" d="M447.372,173.899c1.827,0,3.314,1.482,3.314,3.314s-1.487,3.314-3.314,3.314
	c-1.83,0-3.315-1.482-3.315-3.314S445.542,173.899,447.372,173.899z"/>
<circle fill="#282828" cx="449.645" cy="179.487" r="2.273"/>
<circle fill="#282828" cx="449.645" cy="181.76" r="2.273"/>
<path fill="#282828" d="M450.687,170.584c1.827,0,3.313,1.482,3.313,3.315c0,1.832-1.486,3.314-3.313,3.314
	c-1.829,0-3.314-1.483-3.314-3.314C447.372,172.067,448.857,170.584,450.687,170.584z"/>
<path fill="#282828" d="M434.114,163.956c1.827,0,3.314,1.482,3.314,3.314c0,1.833-1.487,3.314-3.314,3.314
	c-1.831,0-3.315-1.481-3.315-3.314C430.799,165.438,432.283,163.956,434.114,163.956z"/>
<circle fill="#282828" cx="437.429" cy="167.27" r="3.314"/>
<path fill="#282828" d="M434.114,170.584c1.827,0,3.314,1.482,3.314,3.315c0,1.832-1.487,3.314-3.314,3.314
	c-1.831,0-3.315-1.483-3.315-3.314C430.799,172.067,432.283,170.584,434.114,170.584z"/>
<circle fill="#282828" cx="437.429" cy="170.585" r="3.315"/>
<circle fill="#282828" cx="440.742" cy="170.585" r="3.315"/>
<circle fill="#282828" cx="440.742" cy="167.27" r="3.314"/>
<path fill="#282828" d="M444.057,170.584c1.827,0,3.315,1.482,3.315,3.315c0,1.832-1.488,3.314-3.315,3.314
	c-1.829,0-3.314-1.483-3.314-3.314C440.742,172.067,442.228,170.584,444.057,170.584z"/>
<circle fill="#282828" cx="437.429" cy="173.899" r="3.315"/>
<path fill="#282828" d="M444.057,163.956c1.827,0,3.315,1.482,3.315,3.314c0,1.833-1.488,3.314-3.315,3.314
	c-1.829,0-3.314-1.481-3.314-3.314C440.742,165.438,442.228,163.956,444.057,163.956z"/>
<path fill="#282828" d="M447.372,167.27c1.827,0,3.314,1.483,3.314,3.314c0,1.832-1.487,3.315-3.314,3.315
	c-1.83,0-3.315-1.483-3.315-3.315C444.057,168.753,445.542,167.27,447.372,167.27z"/>
<path fill="#282828" d="M430.799,167.27c1.828,0,3.315,1.483,3.315,3.314c0,1.832-1.487,3.315-3.315,3.315s-3.315-1.483-3.315-3.315
	C427.483,168.753,428.971,167.27,430.799,167.27z"/>
<path fill="none" stroke="#282828" stroke-width="2" stroke-linecap="round" stroke-dasharray="1,1" d="M419.196,168.927
	c0,0,2.034-1.417,4.911-1.405c2.506,0.013,4.979,1.619,4.979,1.619"/>
<path fill="none" stroke="#282828" stroke-width="2" stroke-linecap="round" stroke-dasharray="1,1" d="M422.489,178.531
	c0,0,0.193-2.469,2.04-4.683c1.598-1.923,4.415-2.813,4.415-2.813"/>
<path fill="none" stroke="#282828" stroke-width="2" stroke-linecap="round" stroke-dasharray="1,1" d="M425.804,181.845
	c0,0,0.193-2.47,2.04-4.684c1.6-1.922,4.415-2.812,4.415-2.812"/>
<path fill="none" stroke="#282828" stroke-width="2" stroke-linecap="round" stroke-dasharray="1,1" d="M424.589,161.991
	c0,0,1.688,0.664,3.791,2.527c1.828,1.62,3.419,3.949,3.419,3.949"/>
<path fill="none" stroke="#282828" stroke-width="2" stroke-linecap="round" stroke-dasharray="1,1" d="M427.483,158.113
	c0,0,1.688,0.664,3.792,2.524c1.827,1.622,3.417,3.953,3.417,3.953"/>
<path fill="none" stroke="#282828" stroke-width="2" stroke-linecap="round" stroke-dasharray="1,1" d="M437.429,157.395
	c0,0,0.882,1.576,1.337,4.351c0.395,2.415,0.147,5.227,0.147,5.227"/>
<path fill="none" stroke="#282828" stroke-width="2" stroke-linecap="round" stroke-dasharray="1,1" d="M442.588,155.623
	c0,0,0.354,1.774-0.073,4.551c-0.376,2.417-1.475,5.016-1.475,5.016"/>
<path fill="none" stroke="#282828" stroke-width="2" stroke-linecap="round" stroke-dasharray="1,1" d="M441.75,169.563
	c0,0,0.133-1.807,1.293-4.363c1.007-2.234,2.765-4.438,2.765-4.438"/>
<path fill="none" stroke="#282828" stroke-width="2" stroke-linecap="round" stroke-dasharray="1,1" d="M447.372,168.422
	c0,0,1.723-0.537,4.532-0.401c2.442,0.12,5.146,0.946,5.146,0.946"/>
<path fill="none" stroke="#282828" stroke-width="2" stroke-linecap="round" stroke-dasharray="1,1" d="M447.372,168.118
	c0,0,1.723,0.539,3.965,2.241c1.946,1.482,3.701,3.69,3.701,3.69"/>
<path fill="none" stroke="#282828" stroke-width="2" stroke-linecap="round" stroke-dasharray="1,1" d="M447.372,171.433
	c0,0,1.723,0.537,3.965,2.239c1.946,1.483,3.701,3.69,3.701,3.69"/>
<path fill="none" stroke="#282828" stroke-width="2" stroke-linecap="round" stroke-dasharray="1,1" d="M444.233,166.562
	c0,0,1.487-1.026,4.209-1.739c2.365-0.615,5.185-0.634,5.185-0.634"/>
<path fill="none" stroke="#010101" stroke-width="0.5" d="M431.652,178.687c1.192,0,2.157,0.969,2.157,2.159
	s-0.965,2.159-2.157,2.159c-1.196,0-2.16-0.97-2.16-2.159S430.456,178.687,431.652,178.687z"/>
<path fill="none" stroke="#010101" stroke-width="0.5" d="M439.544,178.687c1.195,0,2.161,0.969,2.161,2.159
	s-0.966,2.159-2.161,2.159c-1.191,0-2.159-0.97-2.159-2.159S438.353,178.687,439.544,178.687z"/>
<path fill="none" stroke="#010101" stroke-width="0.5" d="M433.81,181.151c0,0,0-0.61,1.788-0.61c1.787,0,1.787,0.61,1.787,0.61"/>
<path fill="#282828" d="M445.714,178.872l1.658,1.657l-1.658,11.601c0,0-8.418,6.788-11.6,3.314
	c-0.979-1.067-1.766-1.871-1.657-3.314c0.203-2.661,4.067,0.757,6.627,0c1.964-0.583,3.314-1.657,4.973-3.314
	C445.714,187.158,445.714,178.872,445.714,178.872z"/>
<path display="none" fill="#F48220" d="M74.481,144.069h296.648c9.71,49.187,12.176,62.975,12.176,62.975l-149.151,1.658
	l-145.838,1.657L74.481,144.069z"/>
<path display="none" fill="#F48220" d="M424.171,263.391c0-8.417-2.069-16.456-1.659-24.858c0.354-7.141-0.611-11.452,1.659-18.23
	c1.377-4.117,2.448-6.409,4.971-9.943c2.664-3.724,8.287-8.287,8.287-8.287s0.575,2.353,1.655,3.313
	c2.605,2.319,5.43-1.326,8.288-3.313c2.254-1.567,3.314-3.314,3.314-3.314s8.282,3.909,11.6,8.286
	c3.156,4.157,4.438,6.865,6.628,11.601c3.961,8.551,4.99,13.922,6.63,23.201c1.021,5.772,1.657,9.058,1.657,14.916
	c0,5.858-0.359,11.031-1.657,14.916c-1.292,3.883-2.017,6.058-3.314,9.943l-4.972-1.657v-8.286l-1.658-18.23l-4.97-6.629
	l3.313,31.49c0,0-3.957,1.528-6.629,1.655c-3.296,0.157-4.985-1.601-8.286-1.655c-6.141-0.109-8.774,5.087-14.914,4.969
	c-4.712-0.089-11.603-3.313-11.603-3.313S424.171,271.158,424.171,263.391z"/>
<path display="none" fill="#F48220" d="M390.449,217.059c0,0,10.215,5.515,17.28,7.638c4.158,1.25,10.849,2.416,10.849,2.416
	l8.046-8.843l4.163-6.253l3.067,21.528c0,0-6.248,6.881-11.656,8.037c-4.001,0.854-6.484,0.2-10.45-0.805
	c-8.92-2.257-11.14-9.117-18.887-14.073c-3.088-1.974-8.043-4.822-8.043-4.822L390.449,217.059z"/>
<path display="none" fill="#F48220" d="M182.675,331.33c-1.081-4.193,2.088-8.28,6.417-8.28h10.176c3.025,0,5.667,2.05,6.42,4.979
	l2.559,9.943c1.077,4.195-2.091,8.279-6.42,8.279h-10.176c-3.025,0-5.667-2.048-6.421-4.979L182.675,331.33z"/>
</svg>
