<?xml version="1.0" encoding="utf-8"?>
<!-- Generator: Adobe Illustrator 16.0.0, SVG Export Plug-In . SVG Version: 6.00 Build 0)  -->
<!DOCTYPE svg PUBLIC "-//W3C//DTD SVG 1.1//EN" "http://www.w3.org/Graphics/SVG/1.1/DTD/svg11.dtd">
<svg version="1.1" id="Layer_1" xmlns="http://www.w3.org/2000/svg" xmlns:xlink="http://www.w3.org/1999/xlink" x="0px" y="0px"
	 width="512px" height="512px" viewBox="0 0 512 512" enable-background="new 0 0 512 512" xml:space="preserve">
<rect x="184.178" y="281.232" fill="#C1D7F0" width="124.808" height="220.963"/>
<rect x="209.575" y="117.41" fill="#E5E5E5" width="177.775" height="385.211"/>
<polygon opacity="0.2" fill="#CCCCCC" enable-background="new    " points="119.157,76.42 39.667,507 122.74,507 "/>
<polygon fill="#C4C4C3" points="127.013,76.42 127.013,504.569 206.597,504.569 206.597,113.222 "/>
<rect x="119.157" y="76.42" fill="#565656" width="7.856" height="428.145"/>
<rect x="236.342" y="472.909" fill="#A3A2A2" width="144.954" height="32.874"/>
<rect x="250.127" y="440.033" fill="#848484" width="132.112" height="32.876"/>
<rect x="284.105" y="407.162" fill="#BFBFBF" width="98.134" height="32.871"/>
<rect x="318.113" y="374.286" fill="#C1C1C0" width="64.126" height="32.876"/>
<path fill="#565656" d="M206.597,113.757v390.812h183.059V113.757H206.597z M382.234,495.327H214.016V123h168.219V495.327
	L382.234,495.327z"/>
<g>
	<g>
		<path fill="#418A96" d="M117.042,454.177c0,0-7.935-9.255-0.489-15.136c0,0,5.438-3.292,9.873-3.025
			c0,0-6.284,10.537-4.251,11.582c2.033,1.05,6.156-12.242,6.156-12.242s12.376-1.203,16.357,0.714c0,0-10.581,8.657-8.351,9.173
			c2.228,0.517,13.656-7.981,13.656-7.981s11.519,1.959,10.905,8.985c-0.614,7.03-4.582,9.199-6.328,9.012
			c-1.744-0.188-11.95-4.084-12.17-2.654c-0.224,1.432,5.918,6.103,10.22,6.32c0,0-8.121,8.954-13.518,6.37
			c-5.398-2.585-5.858-6.682-9.223-8.219s-6.237-1.531-4.849,0.034c1.389,1.567,7.479,3.091,9.404,6.495
			c1.922,3.403,3.649,5.696-1.936,4.858c-5.584-0.84-14.661-4.926-15.059-9.604C117.042,454.177,117.042,454.177,117.042,454.177z"
			/>
		<g>
			<path fill="#418A96" d="M155.238,446.437c0,0-31.287-1.206-38.196,7.74c0,0-1.528,4.576-6.23,8.745l-0.733,1.997
				c0,0,5.421-5.718,7.361-6.063C117.442,458.855,114.406,447.772,155.238,446.437z"/>
			<path fill="#418A96" d="M110.813,462.922c0,0-6.716,4.967-7.183,13.84l1.22,0.108c0,0,2.144-9.174,6.021-12.764
				C114.747,460.521,110.813,462.922,110.813,462.922z"/>
		</g>
	</g>
	<g>
		<path fill="#6CB8C0" d="M89.299,442.534c0,0,12.622-7.065,6.732-16.661c0,0-4.713-5.89-9.762-7.406c0,0,2.692,14.308,0,14.646
			c-2.693,0.334-1.852-16.156-1.852-16.156s-13.296-6.397-18.513-5.893c0,0,8.246,13.971,5.554,13.633
			c-2.694-0.338-11.95-14.476-11.95-14.476s-13.632-2.523-15.821,5.555c-2.188,8.079,1.347,12.119,3.366,12.624
			c2.02,0.505,14.979,0.335,14.642,2.019c-0.337,1.682-9.089,4.376-13.969,2.861c0,0,5.386,13.296,12.455,12.624
			c7.067-0.675,9.256-5.05,13.632-5.388c4.375-0.334,7.573,0.842,5.385,2.019c-2.187,1.18-9.592,0.389-13.127,3.392
			c-3.534,3.006-6.396,4.857,0.168,6.204c6.564,1.344,18.345,0.505,20.701-4.545C89.299,442.534,89.299,442.534,89.299,442.534z"/>
		<g>
			<path fill="#418A96" d="M49.916,418.299c0,0,35.344,11.448,39.383,24.235c0,0-0.17,5.726,3.366,12.29v2.523
				c0,0-3.704-8.583-5.722-9.763C86.942,447.585,94.853,436.479,49.916,418.299z"/>
			<path fill="#418A96" d="M92.665,454.824c0,0,5.451,8.273,2.343,18.351l-1.402-0.376c0,0,1.361-11.1-1.489-16.68
				C89.264,450.54,92.665,454.824,92.665,454.824z"/>
		</g>
	</g>
	<g>
		<path fill="#6CB8C0" d="M109.38,432.789c0,0-16.639-9.32-8.874-21.964c0,0,6.21-7.767,12.867-9.762c0,0-3.551,18.855,0,19.3
			c3.549,0.446,2.439-21.297,2.439-21.297s17.526-8.43,24.403-7.766c0,0-10.87,18.413-7.32,17.971
			c3.549-0.445,15.751-19.08,15.751-19.08s17.97-3.326,20.854,7.321c2.885,10.65-1.774,15.976-4.437,16.639
			c-2.663,0.666-19.745,0.446-19.301,2.662c0.443,2.217,11.98,5.768,18.412,3.771c0,0-7.098,17.526-16.417,16.639
			c-9.316-0.887-12.202-6.654-17.97-7.1c-5.769-0.441-9.983,1.111-7.098,2.665c2.884,1.551,12.645,0.508,17.304,4.465
			c4.659,3.965,8.429,6.403-0.223,8.178c-8.651,1.775-24.181,0.667-27.287-5.988C109.38,432.789,109.38,432.789,109.38,432.789z"/>
		<g>
			<path fill="#418A96" d="M161.293,400.839c0,0-46.588,15.088-51.913,31.95c0,0,0.222,7.539-4.438,16.193v3.328
				c0,0,4.88-11.315,7.544-12.867C112.487,439.443,102.06,424.802,161.293,400.839z"/>
			<path fill="#418A96" d="M104.943,448.982c0,0-7.185,10.911-3.089,24.192l1.849-0.497c0,0-1.794-14.631,1.964-21.985
				C109.426,443.334,104.943,448.982,104.943,448.982z"/>
		</g>
	</g>
	<path fill="#7BA3D6" d="M141.414,469.382c0,17.999-14.594,32.594-32.596,32.594c-2.196,0-4.346-0.216-6.424-0.635
		c-14.923-2.981-26.168-16.161-26.168-31.959H141.414L141.414,469.382z"/>
	<path fill="#A4C0E5" d="M128.558,469.382c0,15.798-11.241,28.975-26.163,31.959c-14.923-2.981-26.168-16.161-26.168-31.959H128.558
		z"/>
	<path fill="#7BA3D6" d="M141.861,503.635H75.774c0-1.113,0.452-2.118,1.177-2.845c0.73-0.727,1.735-1.177,2.845-1.177h58.043
		C140.062,499.613,141.861,501.413,141.861,503.635z"/>
	<path fill="#C1D7F0" d="M100.591,499.613h4.419c-11.957-4.829-16.715-16.545-16.715-30.231H80.2
		C80.199,483.068,88.635,494.784,100.591,499.613z"/>
	<path fill="#A4C0E5" d="M110.909,503.635H75.774c0-1.113,0.452-2.118,1.177-2.845c0.73-0.727,1.735-1.177,2.845-1.177h28.369
		C110.385,499.613,110.909,501.413,110.909,503.635z"/>
	<path fill="#2B488C" d="M141.653,470.382h-66c-0.274,0-0.499-0.224-0.499-0.502l0,0c0-0.275,0.224-0.498,0.499-0.498h66
		c0.276,0,0.5,0.223,0.5,0.498l0,0C142.154,470.158,141.93,470.382,141.653,470.382z"/>
</g>
<path fill="#565656" d="M142.994,283.927h-1.952c-2.146,0-3.901,2.089-3.901,4.639v29.564c0,2.55,1.755,4.636,3.901,4.636h1.952
	c2.146,0,3.902-2.086,3.902-4.636v-29.564C146.896,286.016,145.139,283.927,142.994,283.927z"/>
<path fill="#EE985E" d="M466.306,286.486c0,0,9.284-3.039,10.889-3.076c1.608-0.037,7.403,1.784,7.52,2.23s-0.116,0.837-1.073,0.991
	c-0.957,0.155-4.172,0.037-3.934,0.403c0.235,0.368,9.546,1.325,9.816,3.156c0.27,1.83-4.427,5.712-8.64,6.331
	c-4.211,0.616-12.985-3.537-13.704-3.531C461.077,293.016,466.306,286.486,466.306,286.486z"/>
<path fill="#FAB17E" d="M369.78,223.808c0,0,8.931,10.594,20.304,6.162c0,0,2.447-5.917,2.481-10.278
	c0.003-0.539,0.011-1.059,0.019-1.552c0.06-4.913,0.228-7.667,0.228-7.667s-0.005-0.003-0.013-0.003
	c-0.517-0.217-17.384-7.14-17.371-6.567C375.719,217.189,369.78,223.808,369.78,223.808z"/>
<g>
	<path d="M326.563,502.835h-11.486c-2.409,0-5.084-2.443-5.753-6.917c-0.672-4.476-5.62-6.914-6.692-10.575s4.418-8.815,4.418-8.815
		l0.918-1.196l0.953-1.245l9.099,2.168c0,0,0.225,2.196,0.365,4.993c0.096,2.018,0.152,4.353,0.037,6.4
		c-0.268,4.882,1.349,10.139,5.629,11.089C328.333,499.688,326.563,502.835,326.563,502.835z"/>
	<path d="M406.524,502.946h-30.447c-0.291-0.059-0.514-0.124-0.646-0.195c-2.032-1.046-1.396-9.057-1.152-11.535
		c0.046-0.458,0.081-0.725,0.081-0.725s10.705-8.818,12.179-2.066c0.047,0.211,0.1,0.415,0.158,0.619v0.004
		c1.859,6.315,10.167,9.185,14.965,9.986C405.329,499.647,406.28,501.847,406.524,502.946z"/>
	<path fill="#3F403F" d="M400.387,326.879c0,0-1.625,20.283-3.536,44.671c-2.599,33.127-5.722,73.814-6.031,81.521
		c-0.534,13.385-2.678,34.796-2.678,34.796s-5.082,5.09-15.254,2.943c0,0-9.066-30.564-11.657-62.901
		c-0.04-0.53-0.079-1.066-0.12-1.599c-2.407-32.918-6.154-102.244-6.154-102.244L400.387,326.879z"/>
	<path fill="#121212" d="M400.387,326.879c0,0-1.625,20.283-3.536,44.671l-35.62,56.359c-0.04-0.53-0.079-1.066-0.12-1.599
		c-2.407-32.918-6.154-102.244-6.154-102.244L400.387,326.879z"/>
	<path fill="#3F403F" d="M392.963,329.286c0,0-29.309,73.471-48.58,107.997c-19.271,34.526-25.292,44.163-25.292,44.163
		s-11.04-4.418-12.044-7.429c0,0,7.369-66.655,20.273-82.905c7.292-9.182,15.86-36.731,16.261-46.369
		c0.402-9.633,2.609-28.706,2.609-28.706L392.963,329.286z"/>
</g>
<path fill="#EE985E" d="M376.419,211.062c1.749,4.095,15.731,12.133,15.731,12.133l1.646-6.409L376.419,211.062z"/>
<g>
	<path fill="#FAB17E" d="M395.695,216.78c0,0-23.172,0.743-23.413-13.695c-0.24-14.438-3.395-24.066,11.391-25.15
		c14.784-1.087,17.754,4.374,19.005,9.175C403.931,191.909,401.716,216.213,395.695,216.78z"/>
</g>
<path fill="#1E3E70" d="M372.302,203.584c0,0-2.518-0.663-2.518-7.103c-0.006-6.443-6.224-18.276-1.504-19.4
	c4.719-1.125,5.691-0.747,5.691-0.747s-1.047-6.744,7.643-5.846c8.687,0.898,21.196,6.369,24.266,4.495
	c3.071-1.871,3.672,14.008-4.343,13.707c-8.015-0.3-19.4-6.759-22.021-1.694c-2.624,5.064-1.275,10.907-2.624,10.907
	c-1.348,0-2.063-5.034-3.817-4.417C372.075,193.833,372.302,203.584,372.302,203.584z"/>
<path fill="#2F3652" stroke="#8E8E8E" stroke-width="4" stroke-miterlimit="10" d="M497.719,507H9.579
	c-0.392,0-0.712-0.32-0.712-0.712v-0.716c0-0.392,0.32-0.712,0.712-0.712h488.14c0.393,0,0.713,0.32,0.713,0.712v0.716
	C498.432,506.68,498.111,507,497.719,507z"/>
<g display="none">
	<path display="inline" fill="none" stroke="#F28021" stroke-width="4" stroke-miterlimit="10" d="M314.066,67.872H193.234
		c-2.576,0-4.665-2.086-4.665-4.662V30.299c0-2.574,2.089-4.662,4.665-4.662h120.832c2.576,0,4.662,2.087,4.662,4.662V63.21
		C318.729,65.786,316.639,67.872,314.066,67.872z"/>
</g>
<text transform="matrix(1 0 0 1 218.7446 59.9722)" display="none" fill="#F28021" font-family="'Comfortaa-Bold'" font-size="30">SAIR</text>
<g display="none">
	<g display="inline">
		<path fill="#F38120" d="M469.029,289.101c0.756-3.543-1.014-4.398-1.014-4.398s-35.443-11.752-38.399-13.162
			c-2.954-1.412-25.497-32.671-25.497-32.671s-8.517-12.868-17.174-11.52c-7.521,1.171-11.139,6.396-12.859,11.619
			c-2.048,6.227-0.016,13.069,5.034,17.245c11.334,9.377,34.062,27.9,39.672,30.447c12.486,5.669,47.986,7.118,47.986,7.118
			S468.435,291.886,469.029,289.101z"/>
	</g>
	<path display="inline" fill="#F38120" d="M406.574,267.584c-0.114,6.283-0.479,13.345-0.972,20.52
		c-0.03,0.424-0.06,0.849-0.091,1.272c-0.313,4.446-0.657,8.899-1.047,13.242c-0.158,1.742-0.325,3.464-0.499,5.155L403.938,308
		c-0.012,0.635-0.09,1.319-0.161,1.948c-1.598,16.266-3.276,29.118-3.588,29.315c-0.372,0.249-0.791,0.372-1.25,0.32
		c-4.266-0.536-16.996,0.43-27.416-1.838c-8.796-1.853-16.366-5.371-24.39-10.11c-1.065-0.632-3.491-2.299-3.295-3.544
		c0.195-1.369,0.552-3.349,1.01-5.836c1.58-8.655,4.309-23.539,5.239-40.96c0.182-3.247,0.444-6.449,0.787-9.6
		c0.894-8.209,2.328-16.006,4.25-22.932c3.573-12.865,8.823-22.715,15.41-26.572c0.86-0.48,5.492,2.466,9.745,5.195
		c3.929,2.519,8.063,3.215,12.087,2.862l3.538,3.916c4.286,4.984,8.852,11.616,10.098,21.048c0.092,0.694,0.173,1.438,0.241,2.221
		C406.587,257.275,406.67,262.139,406.574,267.584z"/>
	<g display="inline">
		<path fill="#EE985E" d="M325.858,316.051c0,0-0.759,9.178-1.313,10.584c-0.557,1.41-4.262,5.777-4.689,5.715
			c-0.431-0.064-0.687-0.405-0.471-1.294c0.217-0.889,1.496-3.637,1.09-3.568c-0.403,0.073-4.645,7.809-6.332,7.372
			c-1.69-0.434-3.342-5.936-2.336-9.819c1.004-3.885,7.826-9.986,8.086-10.612C322.102,309.121,325.858,316.051,325.858,316.051z"/>
		<path fill="#F38120" d="M322.715,318.38c3.244,1.041,3.764,0.805,3.764,0.805s15.788-28.745,17.387-31.375
			c1.603-2.634,33.522-32.238,33.522-32.238l-8.202-30.592c0,0-36.31,47.02-40.229,53.766c-6.48,11.148-10.274,37.042-10.274,37.042
			S320.167,317.563,322.715,318.38z"/>
	</g>
</g>
</svg>
