<?xml version="1.0" encoding="utf-8"?>
<!-- Generator: Adobe Illustrator 16.0.0, SVG Export Plug-In . SVG Version: 6.00 Build 0)  -->
<!DOCTYPE svg PUBLIC "-//W3C//DTD SVG 1.1//EN" "http://www.w3.org/Graphics/SVG/1.1/DTD/svg11.dtd">
<svg version="1.1" id="Layer_1" xmlns="http://www.w3.org/2000/svg" xmlns:xlink="http://www.w3.org/1999/xlink" x="0px" y="0px"
	 width="128px" height="128px" viewBox="0 0 128 128" enable-background="new 0 0 128 128" xml:space="preserve">
<path display="none" fill="none" stroke="#B9B9BA" stroke-width="4" d="M15.63,77.364h26.443c4.036,0,7.435,3.015,7.919,7.021
	l3.722,30.771c0.574,4.75-3.135,8.937-7.92,8.937H11.98c-4.778,0-8.484-4.174-7.922-8.919l3.65-30.77
	C8.184,80.389,11.588,77.364,15.63,77.364z"/>
<path display="none" fill="none" stroke="#B9B9BA" stroke-width="4" d="M39.555,76.226V76.11c0-5.854-4.745-10.598-10.599-10.598
	l0,0c-5.854,0-10.599,4.744-10.599,10.598v0.115"/>
<path display="none" fill="none" stroke="#B9B9BA" stroke-width="4" stroke-linecap="round" d="M42.518,32.005H11.975
	c-3.776,0-6.837,3.062-6.837,6.838v8.955c0,5.503,4.46,9.964,9.964,9.964l0,0c5.503,0,9.965-4.461,9.965-9.964v-0.339"/>
<path display="none" fill="none" stroke="#B9B9BA" stroke-width="4" stroke-linecap="round" d="M45.025,47.505v0.342
	c0,5.475-4.439,9.915-9.915,9.915l0,0c-5.477,0-9.916-4.439-9.916-9.915v-0.342"/>
<path display="none" fill="none" stroke="#B9B9BA" stroke-width="4" stroke-linecap="round" d="M65.084,47.505v0.228
	c0,5.539-4.491,10.029-10.029,10.029l0,0c-5.539,0-10.029-4.49-10.029-10.029v-0.228"/>
<path display="none" fill="none" stroke="#B9B9BA" stroke-width="4" stroke-linecap="round" d="M85.144,47.505v0.228
	c0,5.539-4.49,10.029-10.028,10.029l0,0c-5.54,0-10.031-4.49-10.031-10.029v-0.228"/>
<path display="none" fill="none" stroke="#B9B9BA" stroke-width="4" stroke-linecap="round" d="M104.975,47.505v0.342
	c0,5.475-4.44,9.915-9.916,9.915l0,0c-5.475,0-9.915-4.439-9.915-9.915v-0.342"/>
<path display="none" fill="none" stroke="#B9B9BA" stroke-width="4" stroke-linecap="round" d="M86.169,32.005h32.024
	c3.777,0,6.838,3.062,6.838,6.838v8.906c0,5.529-4.482,10.013-10.013,10.013l0,0c-5.53,0-10.016-4.483-10.016-10.013v-0.29"/>
<path display="none" fill="none" stroke="#B9B9BA" stroke-width="4" stroke-linecap="round" d="M11.292,57.876v10.827
	 M117.283,57.876v58.236c0,5.037-4.084,9.117-9.116,9.117H60.639"/>
<path display="none" fill="none" stroke="#B9B9BA" stroke-width="4" d="M104.975,124.546V85.114c0-6.295-5.104-11.397-11.396-11.397
	H83.319c-6.294,0-11.396,5.103-11.396,11.397v39.432"/>
<circle display="none" fill="none" stroke="#B9B9BA" stroke-width="4" cx="64.4" cy="21.977" r="18.69"/>
<path display="none" fill="none" stroke="#B9B9BA" stroke-width="4" stroke-linecap="round" d="M40.808,16.734H36.25
	c-8.371,0-15.157,6.787-15.157,15.157l0,0 M87.993,16.734h4.559c8.372,0,15.158,6.787,15.158,15.157l0,0"/>
<path fill="none" stroke="#F48121" stroke-width="4" stroke-linecap="round" d="M79.674,102.893h5.47"/>
<path fill="#F48121" d="M53.687,22.01L53.687,22.01c0-1.417,1.149-2.565,2.567-2.565h16.522c1.418,0,2.566,1.148,2.566,2.565l0,0
	c0,1.417-1.148,2.567-2.566,2.567H56.253C54.836,24.577,53.687,23.427,53.687,22.01z"/>
<path fill="#F48121" d="M64.594,32.917L64.594,32.917c-1.417,0-2.566-1.148-2.566-2.565V13.831c0-1.417,1.149-2.567,2.566-2.567l0,0
	c1.418,0,2.568,1.149,2.568,2.567v16.521C67.162,31.769,66.012,32.917,64.594,32.917z"/>
<path fill="#F48121" d="M22.908,101.429c-1.083,0-2.086-0.271-3.009-0.813c-0.922-0.541-1.655-1.274-2.196-2.196
	s-0.812-1.915-0.812-2.979s0.271-2.056,0.812-2.979c0.542-0.923,1.274-1.654,2.196-2.196c0.923-0.561,1.925-0.843,3.009-0.843
	c1.063,0,2.056,0.282,2.979,0.843c0.922,0.542,1.655,1.273,2.196,2.196c0.541,0.924,0.813,1.916,0.813,2.979
	s-0.271,2.057-0.813,2.979c-0.542,0.922-1.274,1.655-2.196,2.196C24.983,101.157,23.991,101.429,22.908,101.429z M21.103,112.922
	c-0.441,0-0.812-0.15-1.113-0.452c-0.281-0.3-0.42-0.66-0.42-1.083c0-0.421,0.12-0.762,0.36-1.022l15.826-20.338
	c0.361-0.402,0.772-0.604,1.234-0.604c0.441,0,0.812,0.151,1.113,0.452s0.451,0.663,0.451,1.083c0,0.341-0.11,0.652-0.331,0.933
	l-15.977,20.549C21.945,112.762,21.564,112.922,21.103,112.922z M22.908,98.359c0.802,0,1.484-0.281,2.045-0.842
	c0.583-0.581,0.873-1.274,0.873-2.076c0-0.803-0.29-1.494-0.873-2.075c-0.582-0.582-1.263-0.874-2.045-0.874
	c-0.823,0-1.524,0.292-2.105,0.874c-0.562,0.581-0.843,1.272-0.843,2.075c0,0.802,0.281,1.495,0.843,2.076
	C21.383,98.078,22.085,98.359,22.908,98.359z M35.123,112.922c-1.082,0-2.085-0.271-3.009-0.813
	c-0.901-0.541-1.624-1.264-2.166-2.166c-0.542-0.924-0.813-1.926-0.813-3.008c0-1.083,0.271-2.076,0.813-2.979
	c0.542-0.923,1.264-1.654,2.166-2.195c0.924-0.544,1.927-0.813,3.009-0.813c1.063,0,2.057,0.27,2.979,0.813
	c0.922,0.52,1.654,1.242,2.196,2.164c0.562,0.924,0.843,1.928,0.843,3.011c0,1.082-0.271,2.084-0.813,3.008
	c-0.542,0.902-1.273,1.625-2.196,2.166C37.209,112.651,36.207,112.922,35.123,112.922z M35.123,109.853
	c0.803,0,1.495-0.28,2.076-0.842c0.582-0.582,0.873-1.274,0.873-2.075c0-0.803-0.291-1.485-0.873-2.047
	c-0.582-0.581-1.273-0.873-2.076-0.873c-0.802,0-1.494,0.292-2.076,0.873c-0.562,0.562-0.842,1.244-0.842,2.047
	c0,0.801,0.281,1.493,0.842,2.075C33.629,109.572,34.321,109.853,35.123,109.853z"/>
</svg>
