<svg width="335" height="328" viewBox="0 0 335 328" fill="none" xmlns="http://www.w3.org/2000/svg">
<path d="M271 68.7L270.4 283.2C270.4 287.5 268.8 290.4 266.4 291.9L255.8 297.1C255.3 297.4 254.7 297.6 254 297.7C252.6 297.9 250.9 297.7 249.3 297.3C247.5 296.9 245.8 296.2 244.7 295.7L177.7 256.3L177 256C176.3 255.6 175.6 255.1 175 254.7C174.6 254.4 174.1 254 173.7 253.7C170 250.6 167.2 246.2 165.7 241.5C165.7 241.4 165.6 241.3 165.6 241.2C164.8 238.8 164.4 236.4 164.4 234L164.5 185.9V171.5V151.2V142.4L164.6 107.8V99L164.7 64.4L164.8 20.6C164.8 19 165 17.5 165.4 16.3C165.5 16.1 165.5 15.9 165.6 15.7C166 14.7 166.5 13.8 167.1 13.2C167.2 13.1 167.3 13 167.4 12.9C167.5 12.8 167.7 12.7 167.8 12.5C168.1 12.3 168.4 12 168.7 11.9L179.2 7.00002C181.7 5.50002 185.1 5.70002 188.8 7.90002L257.5 46.8C263.4 50.3 268.4 56.7 270.2 63.4C270.7 65.1 271 66.9 271 68.7Z" fill="black" stroke="#1A1D23" stroke-miterlimit="10" stroke-linecap="round" stroke-linejoin="round"/>
<path d="M259.9 74.6L259.3 289.1C259.3 293.9 257.2 297 254 297.7C252.6 298 251 297.9 249.3 297.3C248.5 297 247.7 296.7 246.9 296.2L177.7 256.4L176.8 255.9C176.1 255.5 175.5 255.1 174.9 254.6C174.5 254.3 174 253.9 173.6 253.6C170.1 250.5 167.2 246 165.6 241.4C165.6 241.3 165.5 241.2 165.5 241.1C164.7 238.8 164.3 236.6 164.3 234.4V197L164.4 185.8L164.5 171.5V167.3V151.2V142.4L164.6 107.8V99L164.7 64.4L164.8 20C164.8 18.6 165 17.4 165.3 16.3C165.4 16.1 165.4 15.9 165.5 15.7C165.9 14.5 166.5 13.6 167.3 12.9C167.4 12.8 167.6 12.7 167.7 12.5C170 10.7 173.4 10.7 177.2 12.9L247.2 53.2C254.5 57.2 259.9 66.8 259.9 74.6Z" fill="white" stroke="#1A1D23" stroke-miterlimit="10" stroke-linecap="round" stroke-linejoin="round"/>
<path d="M166.8 232.7C166.8 240.7 170.2 249 178.3 253.7L246.4 293.2C252.8 297 256.6 293.9 256.6 286.3L257.2 76.5C257.2 68.8 252 59.4 245.7 55.5L177.6 16C171.2 12.2 167.4 13.9 167.4 21.6L167 167.1L166.9 198.9V232.7H166.8Z" fill="white" stroke="#1A1D23" stroke-miterlimit="10" stroke-linecap="round" stroke-linejoin="round"/>
<g clip-path="url(#clip0_5304_18320)">
<path d="M189.301 50.7V57.7L188.701 57.3V51.2L186.401 56L186.201 55.9L183.801 48.4V54.5L183.201 54.2L183.301 47.2L184.101 47.7L186.301 54.8L188.501 50.3L189.301 50.7Z" fill="#3D91E3" stroke="#3D91E3" stroke-width="0.5" stroke-miterlimit="10" stroke-linecap="round" stroke-linejoin="round"/>
<path d="M195.201 50.0999C195.301 50.1999 195.401 50.1999 195.501 50.3999C195.601 50.5999 195.601 50.8999 195.501 50.9999L194.001 51.7999C193.901 51.7999 193.801 51.7999 193.701 51.7999C193.601 51.6999 193.501 51.6999 193.401 51.4999C193.301 51.2999 193.301 50.9999 193.401 50.8999L194.801 50.0999C195.001 49.9999 195.101 50.0999 195.201 50.0999Z" fill="#3D91E3" stroke="#3D91E3" stroke-width="0.5" stroke-miterlimit="10" stroke-linecap="round" stroke-linejoin="round"/>
<path d="M195.501 54.3V54.9L192.401 53.1V55.6L195.301 57.3V57.8L192.401 56.2V58.9L195.601 60.7V61.3L191.801 59.1V52.2L195.501 54.3Z" fill="#3D91E3" stroke="#3D91E3" stroke-width="0.5" stroke-miterlimit="10" stroke-linecap="round" stroke-linejoin="round"/>
<path d="M202.801 61.5999C202.801 61.7999 202.801 61.9999 202.801 62.0999C202.801 62.1999 202.801 62.2999 202.801 62.4999C202.801 62.6999 202.701 62.8999 202.701 63.0999C202.601 63.2999 202.501 63.4999 202.401 63.6999C202.301 63.8999 202.101 63.9999 201.801 64.0999C201.601 64.1999 201.301 64.1999 200.901 64.0999C200.501 63.9999 200.101 63.8999 199.601 63.5999L197.701 62.4999V55.5999L199.601 56.6999C200.101 56.9999 200.601 57.2999 200.901 57.6999C201.301 58.0999 201.601 58.3999 201.801 58.7999C202.001 59.1999 202.201 59.4999 202.401 59.8999C202.501 60.2999 202.601 60.5999 202.701 60.8999C202.801 61.0999 202.801 61.3999 202.801 61.5999ZM202.101 62.8999C202.201 62.5999 202.301 62.1999 202.301 61.6999C202.301 61.1999 202.201 60.6999 202.101 60.2999C202.001 59.8999 201.801 59.3999 201.501 59.0999C201.201 58.6999 200.901 58.3999 200.601 58.0999C200.301 57.7999 199.901 57.4999 199.501 57.2999L198.301 56.5999V62.3999L199.501 63.0999C199.901 63.2999 200.301 63.4999 200.601 63.5999C200.901 63.6999 201.201 63.6999 201.501 63.5999C201.801 63.4999 201.901 63.0999 202.101 62.8999Z" fill="#3D91E3" stroke="#3D91E3" stroke-width="0.5" stroke-miterlimit="10" stroke-linecap="round" stroke-linejoin="round"/>
<path d="M205.6 60.2V67.1L205 66.8L205.1 59.8L205.6 60.2Z" fill="#3D91E3" stroke="#3D91E3" stroke-width="0.5" stroke-miterlimit="10" stroke-linecap="round" stroke-linejoin="round"/>
<path d="M210.901 62.9999C211.301 63.1999 211.701 63.4999 212.001 63.8999C212.401 64.2999 212.701 64.6999 212.901 65.2999L212.401 65.4999C212.201 65.0999 212.001 64.6999 211.701 64.3999C211.401 64.0999 211.101 63.7999 210.801 63.6999C210.401 63.4999 210.101 63.2999 209.701 63.2999C209.401 63.2999 209.101 63.2999 208.901 63.4999C208.701 63.5999 208.501 63.8999 208.401 64.1999C208.301 64.4999 208.201 64.8999 208.201 65.2999C208.201 65.6999 208.301 66.1999 208.401 66.5999C208.501 66.9999 208.701 67.4999 208.901 67.8999C209.101 68.2999 209.401 68.6999 209.701 68.9999C210.001 69.2999 210.401 69.5999 210.801 69.7999C211.001 69.8999 211.101 69.9999 211.301 69.9999C211.501 70.0999 211.601 70.0999 211.801 70.0999C212.001 70.0999 212.101 70.0999 212.301 69.9999C212.401 69.8999 212.601 69.8999 212.701 69.6999L213.201 70.3999C212.901 70.6999 212.601 70.7999 212.201 70.7999C211.801 70.7999 211.401 70.5999 211.001 70.3999C210.501 70.0999 210.101 69.7999 209.701 69.3999C209.301 68.9999 209.001 68.5999 208.701 68.0999C208.401 67.5999 208.201 67.0999 208.101 66.5999C208.001 66.0999 207.901 65.4999 207.901 64.9999C207.901 64.4999 208.001 63.9999 208.101 63.6999C208.301 63.3999 208.501 63.0999 208.701 62.8999C209.001 62.6999 209.301 62.6999 209.701 62.6999C210.101 62.5999 210.501 62.7999 210.901 62.9999Z" fill="#3D91E3" stroke="#3D91E3" stroke-width="0.5" stroke-miterlimit="10" stroke-linecap="round" stroke-linejoin="round"/>
<path d="M220.701 70.8999C220.901 71.3999 220.901 71.9999 220.901 72.4999C220.901 72.9999 220.801 73.4999 220.701 73.7999C220.501 74.1999 220.301 74.3999 220.101 74.5999C219.801 74.7999 219.501 74.7999 219.101 74.7999C218.701 74.7999 218.301 74.5999 217.801 74.2999C217.301 73.9999 216.901 73.6999 216.501 73.2999C216.101 72.8999 215.801 72.4999 215.501 71.9999C215.201 71.4999 215.001 70.9999 214.901 70.4999C214.701 69.9999 214.701 69.3999 214.701 68.8999C214.701 68.3999 214.801 67.8999 214.901 67.5999C215.101 67.1999 215.301 66.9999 215.501 66.7999C215.801 66.5999 216.101 66.5999 216.501 66.5999C216.901 66.5999 217.301 66.7999 217.801 67.0999C218.301 67.3999 218.701 67.6999 219.101 68.0999C219.501 68.4999 219.801 68.8999 220.101 69.3999C220.401 69.8999 220.601 70.3999 220.701 70.8999ZM220.201 73.2999C220.301 72.9999 220.401 72.5999 220.401 72.1999C220.401 71.7999 220.301 71.2999 220.201 70.8999C220.101 70.4999 219.901 69.9999 219.701 69.5999C219.501 69.1999 219.201 68.7999 218.901 68.4999C218.601 68.1999 218.201 67.8999 217.801 67.6999C217.401 67.4999 217.101 67.2999 216.701 67.2999C216.401 67.2999 216.101 67.2999 215.901 67.4999C215.701 67.5999 215.501 67.8999 215.401 68.1999C215.301 68.4999 215.201 68.8999 215.201 69.2999C215.201 69.6999 215.301 70.1999 215.401 70.5999C215.501 70.9999 215.701 71.4999 215.901 71.8999C216.101 72.2999 216.401 72.6999 216.701 72.9999C217.001 73.2999 217.401 73.5999 217.801 73.7999C218.201 73.9999 218.501 74.0999 218.901 74.1999C219.201 74.1999 219.501 74.1999 219.701 73.9999C219.901 73.7999 220.101 73.5999 220.201 73.2999Z" fill="#3D91E3" stroke="#3D91E3" stroke-width="0.5" stroke-miterlimit="10" stroke-linecap="round" stroke-linejoin="round"/>
<path d="M188.301 61.9L188.201 68.8L187.501 68.4L183.901 60.2L183.801 66.3L183.301 66V59L184.001 59.4L187.701 67.6V61.6L188.301 61.9Z" fill="#3D91E3" stroke="#3D91E3" stroke-width="0.5" stroke-miterlimit="10" stroke-linecap="round" stroke-linejoin="round"/>
<path d="M193.301 64.8L195.801 73.2L195.201 72.8L194.601 70.6L191.401 68.8L190.701 70.2L190.101 69.9L192.801 64.5L193.301 64.8ZM191.501 68.3L194.301 69.9L193.001 65.3L191.501 68.3Z" fill="#3D91E3" stroke="#3D91E3" stroke-width="0.5" stroke-miterlimit="10" stroke-linecap="round" stroke-linejoin="round"/>
<path d="M205.301 71.6999V78.5999L204.701 78.2999V74.9999L201.301 73.0999V76.3999L200.801 75.9999V69.0999L201.301 69.3999V72.4999L204.701 74.3999V71.3999L205.301 71.6999Z" fill="#3D91E3" stroke="#3D91E3" stroke-width="0.5" stroke-miterlimit="10" stroke-linecap="round" stroke-linejoin="round"/>
<path d="M213.5 78.3999C213.7 78.8999 213.7 79.4999 213.7 79.9999C213.7 80.4999 213.6 80.9999 213.5 81.2999C213.3 81.6999 213.1 81.8999 212.9 82.0999C212.6 82.2999 212.3 82.2999 211.9 82.2999C211.5 82.2999 211.1 82.0999 210.6 81.7999C210.1 81.4999 209.7 81.1999 209.3 80.7999C208.9 80.3999 208.6 79.9999 208.3 79.4999C208 78.9999 207.8 78.4999 207.7 77.9999C207.6 77.4999 207.5 76.8999 207.5 76.3999C207.5 75.8999 207.6 75.3999 207.7 75.0999C207.9 74.6999 208.1 74.4999 208.3 74.2999C208.6 74.0999 208.9 74.0999 209.3 74.0999C209.7 74.0999 210.1 74.2999 210.6 74.5999C211.1 74.8999 211.5 75.1999 211.9 75.5999C212.3 75.9999 212.6 76.3999 212.9 76.8999C213.1 77.3999 213.3 77.8999 213.5 78.3999ZM212.9 80.7999C213 80.4999 213.1 80.0999 213.1 79.6999C213.1 79.2999 213 78.7999 212.9 78.3999C212.8 77.9999 212.6 77.4999 212.4 77.0999C212.2 76.6999 211.9 76.2999 211.6 75.9999C211.3 75.6999 210.9 75.3999 210.5 75.1999C210.1 74.9999 209.8 74.7999 209.4 74.7999C209.1 74.7999 208.8 74.7999 208.6 74.9999C208.4 75.0999 208.2 75.3999 208.1 75.6999C208.1 75.9999 208 76.2999 208 76.7999C208 77.1999 208.1 77.6999 208.2 78.0999C208.3 78.4999 208.5 78.9999 208.7 79.3999C208.9 79.7999 209.2 80.1999 209.5 80.4999C209.8 80.7999 210.2 81.0999 210.6 81.2999C211 81.4999 211.3 81.6999 211.7 81.6999C212 81.6999 212.3 81.6999 212.5 81.4999C212.7 81.2999 212.8 81.0999 212.9 80.7999Z" fill="#3D91E3" stroke="#3D91E3" stroke-width="0.5" stroke-miterlimit="10" stroke-linecap="round" stroke-linejoin="round"/>
<path d="M218.101 82.7001L219.801 87L219.201 86.6L217.501 82.3L216.501 81.7001V85L215.901 84.7001V77.8L217.501 78.7001C217.601 78.7001 217.701 78.8 217.801 78.9C217.901 79 218.101 79.1001 218.201 79.2001C218.401 79.3001 218.501 79.5 218.701 79.6C218.901 79.8 219.001 80.0001 219.101 80.2001C219.201 80.4001 219.301 80.6001 219.401 80.9001C219.501 81.2001 219.501 81.4001 219.501 81.7001C219.501 82.0001 219.401 82.3001 219.401 82.4001C219.301 82.6001 219.201 82.7001 219.001 82.7001C218.801 82.7001 218.701 82.8001 218.501 82.7001C218.401 82.8001 218.201 82.8001 218.101 82.7001ZM216.401 81.2001L217.601 81.9001C217.901 82.1001 218.101 82.2001 218.301 82.2001C218.501 82.2001 218.601 82.2 218.701 82.1C218.801 82 218.901 81.9 218.901 81.8C218.901 81.7 219.001 81.6001 219.001 81.4001C219.001 81.3001 219.001 81.1 218.901 81C218.901 80.8 218.801 80.7 218.701 80.5C218.601 80.3 218.501 80.1001 218.301 79.9001C218.101 79.7001 217.901 79.5001 217.601 79.4001L216.401 78.7001V81.2001Z" fill="#3D91E3" stroke="#3D91E3" stroke-width="0.5" stroke-miterlimit="10" stroke-linecap="round" stroke-linejoin="round"/>
<path d="M224.3 82.6999L226.8 91.0999L226.2 90.6999L225.5 88.4999L222.3 86.6999L221.6 88.0999L221 87.7999L223.7 82.3999L224.3 82.6999ZM222.6 86.1999L225.4 87.7999L224 83.1999L222.6 86.1999Z" fill="#3D91E3" stroke="#3D91E3" stroke-width="0.5" stroke-miterlimit="10" stroke-linecap="round" stroke-linejoin="round"/>
<path d="M230.301 66L232.001 67V69.4L230.301 68.4V66Z" fill="#3D91E3" stroke="#3D91E3" stroke-width="0.5" stroke-miterlimit="10" stroke-linecap="round" stroke-linejoin="round"/>
<path d="M233.801 70.4V72.4L232.001 71.4L230.301 70.4L228.201 69.2V67.2L230.301 68.4L232.001 69.4L233.801 70.4Z" fill="#3D91E3" stroke="#3D91E3" stroke-width="0.5" stroke-miterlimit="10" stroke-linecap="round" stroke-linejoin="round"/>
<path d="M231.001 61.7999C234.801 63.9999 237.801 69.1999 237.801 73.4999C237.801 77.7999 234.701 79.5999 231.001 77.3999C230.101 76.8999 229.201 76.0999 228.301 75.2999H226.101C226.101 75.2999 226.001 75.2999 225.901 75.2999C225.801 75.2999 225.801 75.1999 225.701 75.0999C225.601 74.8999 225.501 74.7999 225.601 74.5999L226.001 72.1999C224.801 70.0999 224.101 67.7999 224.101 65.6999C224.201 61.3999 227.301 59.6999 231.001 61.7999ZM235.301 77.0999C236.401 76.4999 237.101 75.0999 237.101 73.1999C237.101 71.2999 236.401 69.0999 235.301 67.1999C234.201 65.2999 232.701 63.5999 231.001 62.6999C229.301 61.6999 227.801 61.5999 226.701 62.2999C225.601 62.8999 224.901 64.2999 224.901 66.1999C224.901 68.0999 225.601 70.2999 226.701 72.1999C226.801 72.2999 226.801 72.4999 226.801 72.5999L226.501 74.3999H228.201C228.301 74.3999 228.301 74.3999 228.401 74.4999L228.501 74.5999C229.301 75.3999 230.101 76.1999 231.001 76.6999C232.701 77.5999 234.201 77.6999 235.301 77.0999Z" fill="#3D91E3" stroke="#3D91E3" stroke-width="0.5" stroke-miterlimit="10" stroke-linecap="round" stroke-linejoin="round"/>
<path d="M230.301 72.3999V70.3999L232.001 71.3999V73.3999L230.301 72.3999Z" fill="#3D91E3" stroke="#3D91E3" stroke-width="0.5" stroke-miterlimit="10" stroke-linecap="round" stroke-linejoin="round"/>
</g>
<path d="M198.2 30.2001C195.4 28.6001 193.2 29.9001 193.2 33.0001C193.2 36.1001 195.4 39.9001 198.1 41.6001L221.3 54.9001C224.1 56.5001 226.3 55.2001 226.3 52.1001C226.3 49.0001 225.4 46.3001 222.7 44.7001L198.2 30.2001Z" fill="black" stroke="#1A1D23" stroke-miterlimit="10" stroke-linecap="round" stroke-linejoin="round"/>
<path d="M266 102.4C264.7 103.3 263.6 105.7 263.6 107.6V129.9C263.6 131.8 264.6 132.6 266 131.7C267.3 130.8 268.4 128.4 268.4 126.5V104.2C268.3 102.3 267.3 101.4 266 102.4Z" fill="white" stroke="#1A1D23" stroke-miterlimit="10" stroke-linecap="round" stroke-linejoin="round"/>
<path d="M259.3 69.1001L270.7 63.1001" stroke="#1A1D23" stroke-miterlimit="10" stroke-linecap="round" stroke-linejoin="round"/>
<path d="M195.4 85.3999L195.3 110.9C195.3 113.4 193.5 114.5 191.3 113.2L169.1 100.4L166.7 98.9999H166.6L166.7 64.3999L166.8 64.4999L169.2 65.8999L191.4 78.6999C193.7 79.7999 195.4 82.8999 195.4 85.3999Z" fill="#A7C3DB"/>
<path d="M207.4 122.4L248.4 146.1C250.6 147.4 252.4 146.3 252.4 143.8L252.5 118.3C252.5 115.8 250.7 112.7 248.5 111.4L207.5 87.6998C205.3 86.3998 203.5 87.4998 203.5 89.9998L203.4 115.5C203.4 118 205.2 121.1 207.4 122.4Z" fill="#A7C3DB"/>
<path d="M195.4 128.9L195.3 154.4C195.3 156.9 193.5 157.9 191.3 156.7L169 143.8L166.6 142.4L166.7 107.8H166.8L169.2 109.2L191.5 122.1C193.7 123.3 195.4 126.4 195.4 128.9Z" fill="#A7C3DB"/>
<path d="M248.5 154.9L207.5 131.2C205.3 129.9 203.5 131 203.5 133.5L203.4 159C203.4 161.5 205.2 164.6 207.4 165.9L248.4 189.6C250.6 190.9 252.4 189.8 252.4 187.3L252.5 161.8C252.5 159.3 250.7 156.2 248.5 154.9Z" fill="#A7C3DB"/>
<path d="M195.4 172.4L195.3 197.9C195.3 200.4 193.5 201.4 191.3 200.2L168.8 187.2L166.5 185.9L166.6 171.6V151.3L169 152.7L191.4 165.7C193.7 166.8 195.4 169.9 195.4 172.4Z" fill="#A7C3DB"/>
<path d="M248.5 198.4L207.5 174.7C205.3 173.4 203.5 174.5 203.5 177L203.4 202.5C203.4 205 205.2 208.1 207.4 209.4L248.4 233.1C250.6 234.4 252.4 233.3 252.4 230.8L252.5 205.3C252.5 202.7 250.7 199.7 248.5 198.4Z" fill="#A7C3DB"/>
<path d="M182.9 58.8L141.9 35.1C140.6 34.4 139.4 34.3 138.6 34.8L135.2 36.8C134.4 37.3 133.8 38.3 133.8 39.8L133.7 65.3001C133.7 68.3001 135.8 71.9001 138.4 73.4001L179.4 97.1C180.7 97.9 181.9 97.9001 182.7 97.4001L186.1 95.4001C186.9 94.9001 187.5 93.9001 187.5 92.4001L187.6 66.9001C187.5 63.9001 185.4 60.3 182.9 58.8Z" fill="#F6C9C8" stroke="#1A1D23" stroke-miterlimit="10"/>
<path d="M178.4 61.8001C180.6 63.1001 182.4 66.3001 182.4 68.8001L182.3 94.8001C182.3 97.4001 180.5 98.4001 178.3 97.1001L137 73.0001C134.8 71.7001 133 68.5001 133 66.0001L133.1 40.0001C133.1 37.4001 134.9 36.4001 137.1 37.7001L178.4 61.8001Z" fill="#FCECEB" stroke="#1A1D23" stroke-miterlimit="10"/>
<path d="M192.4 70.4C191.3 71.1 190.6 72.3 190.6 73.7L190.8 98.1C190.8 101.1 192.9 104.7 195.5 106.2L236.5 129.9C237.8 130.7 239 130.7 239.8 130.2L243.2 128.2C244 127.7 244.6 126.7 244.6 125.2L244.7 99.7C244.7 96.7 242.6 93.1 240 91.6L199.6 68.5C198.3 67.8 196.5 68 195.6 68.5L192.4 70.4Z" fill="#CAEAE4" stroke="#1A1D23" stroke-miterlimit="10"/>
<path d="M239.5 102.3L239.4 127.8C239.4 130.3 237.6 131.3 235.4 130.1L194.4 106.4C192.2 105.1 190.4 102 190.4 99.5L190.5 74C190.5 71.5 191.3 70.2 193.5 71.5L220.5 86.9L234.7 95L235.4 95.4C237.7 96.7 239.5 99.8 239.5 102.3Z" fill="#6ABCBF" stroke="#1A1D23" stroke-miterlimit="10"/>
<path d="M186.1 138.8C186.9 138.3 187.5 137.3 187.5 135.8L187.6 110.3C187.6 107.3 185.5 103.7 182.9 102.2L141.9 78.5C140.6 77.8 139.4 77.7 138.6 78.2L134.7 80.6999C134 81.1999 133.6 81.9 133.6 82.8C133.6 83 133.6 83.2 133.6 83.5L133.8 108.7C133.8 111.7 135.9 115.3 138.5 116.8L179.7 140.9C180.3 141.3 181.1 141.3 181.8 141L186.1 138.8Z" fill="#CDE8F0" stroke="#1A1D23" stroke-miterlimit="10"/>
<path d="M182.4 112.5L182.3 138.3C182.3 140.9 180.5 141.9 178.3 140.6L173.7 137.9L165.4 133.1L162.8 131.6L156.9 128.2L136.9 116.6C134.7 115.3 132.9 112.2 132.9 109.6L133 83.7999C133 81.1999 134.8 80.1999 137 81.4999L178.3 105.5C180.7 106.8 182.4 110 182.4 112.5Z" fill="#70A0D4" stroke="#1A1D23" stroke-miterlimit="10"/>
<path d="M239.9 135.1L198.9 111.4C197.6 110.7 196.4 110.6 195.6 111.1L192.2 113.1C191.4 113.6 190.6 114.6 190.6 116.1L190.5 141.6C190.5 144.6 192.8 148.2 195.4 149.7L236.4 173.4C237.7 174.2 238.9 174.2 239.7 173.7L243.1 171.7C243.9 171.2 244.5 170.2 244.5 168.7L244.6 143.2C244.6 140.2 242.5 136.6 239.9 135.1Z" fill="#FBE5CA" stroke="#1A1D23" stroke-miterlimit="10"/>
<path d="M236.4 138.9C238.6 140.2 240.4 143.3 240.4 145.8L240.3 171.3C240.3 173.8 238.5 174.9 236.3 173.6L195 149.8C192.8 148.5 190.5 145 190.5 142.5V116.5C190.5 114 192.9 113.9 195.1 115.2L236.4 138.9Z" fill="#FDF3EC" stroke="#1A1D23" stroke-miterlimit="10"/>
<path d="M186.1 182.3C186.9 181.8 187.5 180.8 187.5 179.3L187.6 153.8C187.6 150.8 185.5 147.2 182.9 145.7L141.9 122C140.6 121.3 139.4 121.2 138.6 121.7L135.2 123.7C134.4 124.2 133.8 125.2 133.8 126.7L133.7 152.2C133.7 155.2 135.8 158.8 138.4 160.3L177.6 183.5C178.9 184.3 179.6 185.5 181.6 184.5L186.1 182.3Z" fill="#F2E9BD" stroke="#1A1D23" stroke-miterlimit="10"/>
<path d="M178.5 149.5C180.7 150.8 182.5 153.9 182.5 156.4L182.4 181.9C182.4 184.4 180.6 185.5 178.4 184.2L137.4 160.5C135.2 159.2 133.4 156.1 133.4 153.6L133.5 128.1C133.5 125.6 135.3 124.5 137.5 125.8L178.5 149.5Z" fill="#FAF7E7" stroke="#1A1D23" stroke-miterlimit="10"/>
<path d="M243.1 214.2C243.9 213.7 244.5 212.7 244.5 211.2L244.6 186.7C244.6 183.7 242.5 180.1 239.9 178.6L198.9 154.9C197.6 154.2 196.4 154.1 195.6 154.6L192.2 156.6C191.4 157.1 190.8 158.1 190.8 159.6L190.7 185.1C190.7 188.1 192.8 191.7 195.4 193.2L236.6 217C237.2 217.3 237.9 217.4 238.6 217.1L243.1 214.2Z" fill="#E0D9F1" stroke="#1A1D23" stroke-miterlimit="10"/>
<path d="M239.5 188.7V191.9L239.4 214.7C239.4 217.3 237.6 218.3 235.4 217L194 192.9C191.8 191.6 190 188.4 190 185.9L190.1 159.9C190.1 157.3 191.9 156.3 194.1 157.6L228.6 177.7L235.5 181.7C237.7 183 239.5 186.1 239.5 188.7Z" fill="#B6AED1" stroke="#1A1D23" stroke-miterlimit="10"/>
<path d="M173.6 245.8C169.1 243.2 166.8 238 166.9 232.8L166.5 227.3V207L168.9 208.4L191.3 221.4C193.5 222.7 195.3 225.8 195.3 228.3L195.2 253.8C195.2 256.3 193.4 257.4 191.2 256.1L173.6 245.8Z" fill="#A7C3DB"/>
<path d="M248.4 254.2L207.4 230.5C205.2 229.2 203.4 230.3 203.4 232.8L203.3 258.3C203.3 260.8 205.1 263.9 207.3 265.2L248.3 288.9C250.5 290.2 252.3 289.1 252.3 286.6L252.4 261.1C252.4 258.6 250.6 255.5 248.4 254.2Z" fill="#A7C3DB"/>
<path d="M182.4 203.2L141.4 179.5C140.1 178.8 138.9 178.7 138.1 179.2L134.7 181.2C133.9 181.7 133.3 182.7 133.3 184.2L133.2 209.7C133.2 212.7 135.3 216.3 137.9 217.8L178.9 241.5C180.2 242.3 181.4 242.3 182.2 241.8L185.6 239.8C186.4 239.3 187 238.3 187 236.8L187.1 211.3C187.1 208.3 185 204.7 182.4 203.2Z" fill="#F6C9C8" stroke="#1A1D23" stroke-miterlimit="10"/>
<path d="M178 206.2C180.2 207.5 182 210.7 182 213.2L181.9 239.2C181.9 241.8 180.1 242.8 177.9 241.5L136.6 217.3C134.4 216 132.6 212.8 132.6 210.3L132.7 184.3C132.7 181.7 134.5 180.7 136.7 182L178 206.2Z" fill="#FCECEB" stroke="#1A1D23" stroke-miterlimit="10"/>
<path d="M191.9 214.8C190.8 215.5 190.1 216.7 190.1 218.1L190.3 242.5C190.3 245.5 192.4 249.1 195 250.6L236 274.3C237.3 275.1 238.5 275.1 239.3 274.6L242.7 272.6C243.5 272.1 244.1 271.1 244.1 269.6L244.2 244.1C244.2 241.1 242.1 237.5 239.5 236L199.1 212.9C197.8 212.2 196 212.4 195.1 212.9L191.9 214.8Z" fill="#CAEAE4" stroke="#1A1D23" stroke-miterlimit="10" stroke-linecap="round" stroke-linejoin="round"/>
<path d="M235.1 239.8C237.3 241.1 239.1 244.2 239.1 246.7L239 272.2C239 274.7 237.2 275.8 235 274.5L194 250.8C191.8 249.5 190 246.4 190 243.9L190.1 218.4C190.1 215.9 190.9 214.6 193.1 215.9L235.1 239.8Z" fill="#6ABCBF" stroke="#1A1D23" stroke-miterlimit="10"/>
<path d="M144.5 50.5L170.9 65.5" stroke="#1A1D23" stroke-miterlimit="10" stroke-linecap="round" stroke-linejoin="round"/>
<path d="M144.5 94.5L170.9 109.5" stroke="#1A1D23" stroke-miterlimit="10" stroke-linecap="round" stroke-linejoin="round"/>
<path d="M144.5 137.5L170.9 152.5" stroke="#1A1D23" stroke-miterlimit="10" stroke-linecap="round" stroke-linejoin="round"/>
<path d="M200.5 103.5L226.9 118.5" stroke="#1A1D23" stroke-miterlimit="10" stroke-linecap="round" stroke-linejoin="round"/>
<path d="M199.5 145.5L225.9 160.5" stroke="#1A1D23" stroke-miterlimit="10" stroke-linecap="round" stroke-linejoin="round"/>
<path d="M199.5 188.5L225.9 203.5" stroke="#1A1D23" stroke-miterlimit="10" stroke-linecap="round" stroke-linejoin="round"/>
<path d="M144.5 196.5L170.9 211.5" stroke="#1A1D23" stroke-miterlimit="10" stroke-linecap="round" stroke-linejoin="round"/>
<path d="M199.5 246.5L225.9 261.5" stroke="#1A1D23" stroke-miterlimit="10" stroke-linecap="round" stroke-linejoin="round"/>
<path d="M177.8 74.8001C178.8 75.7001 179.2 77.2 178.9 78.1L177.9 81.1C177.6 81.9 177 82.1 176.2 81.7C176 81.6 175.8 81.5001 175.7 81.3001L173.4 79.1L171.1 78.6H171C170.8 78.5 170.6 78.1001 170.7 77.9001L171.3 77.1C170.5 76.1 170.2 74.9 170.5 74.1L171.5 71.1C171.8 70.3 172.4 70.1 173.2 70.5C173.4 70.6 173.6 70.7001 173.7 70.9001L177.8 74.8001ZM176 77.3001C176.1 77.1001 176 76.7 175.7 76.5L175.2 76L175.4 75.5C175.5 75.3 175.3 74.9 175.1 74.7L175 74.6C174.8 74.5 174.6 74.5 174.6 74.7L174.4 75.2L173.9 74.7L173.8 74.6C173.6 74.5 173.4 74.5 173.4 74.7C173.3 74.9 173.4 75.3 173.7 75.5L174.2 76L174 76.5C173.9 76.7 174 77.1001 174.3 77.3001L174.4 77.4001C174.6 77.5001 174.8 77.5001 174.8 77.3001L175 76.8001L175.5 77.3001L175.6 77.4001C175.8 77.5001 175.9 77.5001 176 77.3001Z" fill="#F5C8C7"/>
<path d="M161.5 76.2001C161.6 76.2001 161.7 76.3001 161.7 76.4001C161.9 76.5001 163.4 82.4001 163.7 82.5001C164 82.7001 165.5 78.5001 165.7 78.7001C166 78.9001 166.3 79.1001 166.6 79.3001C166.9 79.8001 167.2 80.4001 167.2 81.0001V81.8001C166.8 81.7001 166.5 82.0001 166.5 82.5001C166.5 83.2001 166.9 84.0001 167.5 84.3001C168.1 84.6001 168.5 84.4001 168.5 83.7001C168.5 83.2001 168.2 82.6001 167.8 82.2001V81.4001C167.8 81.0001 167.7 80.6001 167.6 80.2001C170.1 82.6001 172.1 86.2001 173.1 89.4001C173.8 91.7001 172.5 92.8001 170.5 91.7001L156.5 83.6001C154.6 82.5001 153.3 79.8001 154 78.3001C155 76.3001 157.1 74.7001 159.7 75.4001C159.5 75.7001 159.4 76.0001 159.4 76.5001V78.9001C158.2 78.5001 157.3 79.2001 157.3 80.5001C157.1 80.5001 157 80.7001 156.9 81.0001C156.9 81.4001 157.2 82.0001 157.6 82.2001C158 82.4001 158.3 82.2001 158.3 81.8001C158.3 81.5001 158.2 81.2001 158 80.9001C158 79.8001 158.9 79.3001 159.9 79.9001C160.9 80.5001 161.8 81.9001 161.8 83.1001C161.6 83.1001 161.5 83.3001 161.4 83.6001C161.4 84.0001 161.7 84.6001 162.1 84.8001C162.5 85.0001 162.8 84.8001 162.8 84.4001C162.8 84.1001 162.7 83.8001 162.5 83.5001C162.5 82.0001 161.4 80.1001 160.1 79.2001V76.8001C160.1 76.2001 160.4 75.8001 160.9 75.8001C161.2 76.1001 161.4 76.1001 161.5 76.2001Z" fill="#F5C8C7"/>
<path d="M163.7 64.5C165.5 65.5 166.9 67.5 167.2 69.1C167.4 69.7 167.5 70.4 167.5 71.2C167.5 71.5 167.6 71.7 167.6 72C167.8 72.2 167.9 72.9 167.8 73.6C167.7 74.2 167.4 74.6 167.2 74.5C166.8 75.5 166.2 76.3 165.4 76.6C164.9 76.8 164.3 76.7 163.7 76.4C163.1 76.1 162.5 75.4 162 74.7C161.2 73.5 160.5 72 160.2 70.6C160 70.4 159.7 69.7 159.6 68.9C159.5 68.1 159.6 67.5 159.9 67.6C159.9 67.5 159.9 67.4 159.9 67.4C159.9 66.4 160 65.7 160.2 65.2C160.4 63.7 161.9 63.5 163.7 64.5Z" fill="#F5C8C7"/>
<path d="M235.2 104L232.7 94.9999L218.5 86.8999L213.8 86.1999C211.5 85.8999 210.4 88.1999 211.2 91.2999L213.9 101C214.6 103.4 216.2 105.6 218 106.6C218.5 106.9 219 107.1 219.6 107.2L227.9 108.4L233.3 113.1C233.4 113.2 233.4 113.2 233.5 113.3C234 113.6 234.4 113.2 234.2 112.5L233.3 109.2C235.2 108.9 236 106.8 235.2 104ZM225.8 99.2999L224.6 99.0999L225.1 100.8C225.3 101.5 225 102 224.5 102C224.4 102 224.3 101.9 224.1 101.9C223.7 101.7 223.3 101.2 223.1 100.6L222.6 98.8999L221.4 98.6999C221.3 98.6999 221.2 98.5999 221 98.5999C220.6 98.3999 220.2 97.7999 220.1 97.2999C219.9 96.5999 220.2 96.0999 220.7 96.0999L221.9 96.2999L221.4 94.5999C221.2 93.8999 221.5 93.3999 222 93.3999C222.1 93.3999 222.2 93.4999 222.4 93.4999C222.8 93.6999 223.2 94.2999 223.4 94.7999L223.9 96.4999L225.1 96.6999C225.2 96.6999 225.3 96.7999 225.4 96.7999C225.8 96.9999 226.2 97.5999 226.4 98.0999C226.6 98.7999 226.3 99.2999 225.8 99.2999Z" fill="#C9E9E3"/>
<path d="M163.7 131.4L158.5 128.4L158.4 128.2C156 124.6 154.5 120.8 154.1 116.9C153.9 114.6 154.1 112.9 154.7 110.1C154.7 109.7 155.1 109.5 155.5 109.8C155.5 109.8 155.6 109.8 155.6 109.9C156 110.1 156.3 110.6 156.3 111.1L156.5 114.5C156.5 114.7 156.5 114.8 156.4 114.8C156 115 155.9 115.4 156 116.1C156.3 117.3 156.8 119.2 157.9 121.4C158 121.5 158.1 121.6 158.2 121.7C158.3 121.7 158.3 121.8 158.4 121.8C158.6 121.8 158.6 121.6 158.5 121.4C157.5 119.3 157 117.6 156.7 116.4C156.6 116 156.8 115.7 157.1 115.7H157.2C157.3 115.7 157.4 115.8 157.5 115.8C157.6 115.9 157.8 116 157.9 116.1C158.1 116.3 158.3 116.6 158.4 116.9L158.8 118.1C159.2 119.5 160 120.9 161 122.2C162.1 123.7 162.9 125.4 163.2 127L163.5 128.5C163.6 128.9 163.6 129.2 163.6 129.6C163.6 130 163.7 130.5 163.8 131C163.6 130.9 163.7 131.2 163.7 131.4Z" fill="#CDE8F0"/>
<path d="M169.8 115.5C172.1 117.2 173.5 120.7 172.9 122.9C172 126.4 168 126.5 166.2 126.3C166 126.3 165.8 126.2 165.5 126.1C165.1 125.9 164.8 125.6 164.5 125.2C162.9 122.9 159.5 117.6 159.5 113.4C159.5 110.9 161.2 109.7 163.3 110.9C163.4 111 163.6 111.1 163.7 111.2C165 112.1 166 113.6 166.5 115.1C167.2 114.6 168.2 114.6 169.3 115.3C169.5 115.3 169.7 115.4 169.8 115.5Z" fill="#CDE8F0"/>
<path d="M178 126.7C177.9 129.8 177.7 131.6 177.1 133.3C176.3 135.3 175 136.5 173.4 137L166 132.7C166 132.6 166.1 132.5 166.1 132.5C166.3 132.2 166.4 131.9 166.6 131.6C166.7 131.3 166.7 131 166.9 130.8L167.4 129.8C167.9 128.8 169 128.4 170.2 128.6C171.3 128.8 172.2 128.6 172.9 128L173.5 127.5C173.7 127.4 173.9 127.4 174.1 127.5C174.2 127.5 174.2 127.5 174.3 127.6C174.5 127.7 174.7 127.9 174.9 128.1L175 128.3C175.3 128.7 175.4 129.2 175.2 129.5C174.7 130.2 173.9 131 172.6 131.5C172.4 131.5 172.4 131.7 172.6 132C172.7 132.1 172.7 132.2 172.8 132.3C172.9 132.3 173 132.4 173 132.3C174.4 131.9 175.2 130.9 175.7 130.2C175.9 129.8 175.9 129.2 175.6 128.6C175.5 128.4 175.5 128.3 175.6 128.2L176.5 125.6C176.6 125.3 176.9 125.3 177.3 125.5C177.3 125.5 177.4 125.5 177.4 125.6C177.8 125.7 178 126.3 178 126.7Z" fill="#CDE8F0"/>
<path d="M235 182.7L228.1 178.7L223.9 181.1L219 183.9C217.8 184.6 217.1 186.1 217.1 188C217.1 190 217.8 192.2 219 194.3C220.2 196.4 221.8 198.1 223.5 199.1C225.2 200.1 226.8 200.2 228 199.5L233 196.7L237.9 193.9C238.4 193.6 238.7 193.3 239 192.8V189.6C239 187.1 237.2 184 235 182.7ZM228.6 183.6L229.4 183.1C229.6 183 229.8 183 230 183.2C230.2 183.3 230.4 183.5 230.6 183.8C230.9 184.4 230.9 185 230.6 185.2L229.8 185.7C229.6 185.8 229.4 185.8 229.2 185.6C229 185.5 228.8 185.3 228.6 185C228.3 184.4 228.3 183.8 228.6 183.6ZM226.8 197.5C225.9 198 224.7 197.9 223.5 197.2C222.2 196.5 221 195.2 220.2 193.7C219.3 192.2 218.8 190.5 218.8 189.1C218.8 187.7 219.3 186.6 220.2 186.1L224.5 183.6L231.2 195.1L226.8 197.5ZM233.4 184.2C233.2 184.3 232.9 184.3 232.6 184.1C232.3 183.9 232 183.6 231.8 183.2C231.6 182.8 231.5 182.4 231.5 182.1C231.5 181.7 231.6 181.5 231.8 181.3C232 181.2 232.3 181.2 232.6 181.4C232.9 181.6 233.2 181.9 233.4 182.3C233.6 182.7 233.7 183.1 233.7 183.5C233.7 183.8 233.6 184.1 233.4 184.2Z" fill="#E0D9F1"/>
<path d="M153 154.1C148.4 145.9 142 139.2 135.5 135.1C128.8 131.2 122.5 130.4 117.7 133.1L110.7 137L103.9 124.7C99.3003 116.5 92.9003 109.8 86.4003 105.7C79.7003 101.8 73.4002 101 68.6003 103.7L57.5003 110C52.8003 112.7 49.9003 118.4 49.8003 126.1C49.7003 133.8 52.2003 142.7 56.8003 150.9L98.1003 225.1L141.3 201.2L152.4 194.9C157.1 192.2 160 186.5 160.1 178.8C160.1 171.3 157.6 162.4 153 154.1Z" fill="#C65C5C" stroke="#1A1D23" stroke-miterlimit="10"/>
<path d="M123.5 143.7C129.9 147.4 135.9 154 140.4 161.9C144.8 169.8 147.2 178.2 147.1 185.7C147 193 143.2 200.5 138.6 203.1L98.0001 225.4L58.1001 154.8L56.2001 151.6C51.8001 143.7 49.4001 135.3 49.5001 127.8C49.6001 120.5 52.3001 114.9 56.8001 112.4C61.3001 109.9 67.5001 110.6 73.9001 114.3C80.3001 118 86.3001 124.6 90.8001 132.5L98.5001 146L106.4 141.6C111 139.2 117.1 139.8 123.5 143.7Z" fill="#E07777" stroke="#1A1D23" stroke-miterlimit="10"/>
<path opacity="0.5" d="M62.9002 232.5C42.9002 187.5 58.5002 163.8 69.1002 154.3C61.9002 150.8 54.9002 150.1 49.1002 153C35.1002 160.1 34.2002 185.3 46.6002 209.6C51.2002 218.4 56.8002 226.8 62.9002 232.5Z" fill="#A7C3DB"/>
<path d="M99.4001 244.9C100.8 244.1 102.3 243.2 103.5 242.2C115.8 231.4 116.1 205 103.3 179.7C90.5001 154.5 69.0001 139.1 53.0001 142.7C51.4001 143.1 39.2001 148.7 39.2001 148.7C39.2001 148.7 23.8001 172.6 37.5001 213C47.0001 241 84.2001 250.6 90.2001 249.4C90.4001 249.3 96.6001 246.3 99.4001 244.9ZM95.4001 236.9C91.8001 238.7 87.8001 239.2 83.6001 238.4C71.6001 236.3 57.9001 224.5 49.2001 207.2C40.4001 189.9 38.9001 172 44.3001 161C46.2001 157.1 49.0001 154.1 52.5001 152.3C66.2001 145.4 80.5001 161.7 92.4001 185C104.1 208.4 109 230 95.4001 236.9Z" fill="#A9CFD8" stroke="#1A1D23" stroke-miterlimit="10"/>
<path d="M90.3001 249.2C91.7001 248.4 93.2001 247.5 94.4001 246.5C106.7 235.7 107 209.3 94.2001 184C81.4001 158.7 60.0001 143.4 43.9001 147C42.3001 147.4 40.7001 147.9 39.2001 148.7C23.0001 157 21.1001 186.2 35.3001 214C49.4001 241.6 74.0001 257.5 90.3001 249.2ZM87.6001 241.4C84.0001 243.2 78.6001 243.5 74.4001 242.6C62.4001 240.5 48.7001 228.7 40.0001 211.4C31.2001 194.1 29.7001 176.2 35.1001 165.2C37.0001 161.3 39.6001 157.3 43.2001 155.5C56.9001 148.6 77.8001 162.8 89.6001 186.2C101.4 209.7 101.3 234.5 87.6001 241.4Z" fill="#8FC3E3"/>
<path d="M90.3001 249.2C91.7001 248.4 93.2001 247.5 94.4001 246.5C106.7 235.7 107 209.3 94.2001 184C81.4001 158.7 60.0001 143.4 43.9001 147C42.3001 147.4 40.7001 147.9 39.2001 148.7C23.0001 157 21.1001 186.2 35.3001 214C49.4001 241.6 74.0001 257.5 90.3001 249.2ZM87.1001 242C83.5001 243.8 78.6001 243.5 74.4001 242.7C62.4001 240.6 48.7001 228.8 40.0001 211.5C31.2001 194.2 29.7001 175.2 35.1001 164.2C37.0001 160.3 39.8001 157.3 43.3001 155.5C56.2001 149.2 76.7001 162.9 88.6001 186.3C100.3 209.7 100.8 235 87.1001 242Z" fill="white" stroke="#1A1D23" stroke-miterlimit="10"/>
<path d="M112.7 261.1L113.8 260.1L118.7 255.5L119.9 254.3L107.1 239.7C107 239.5 106.8 239.3 106.7 239.2C106.2 238.8 105.6 238.4 105 238.3C104.7 238.2 104.3 238.2 104 238.2C102.9 238.2 101.8 238.6 100.9 239.3C99.7003 240.1 98.9003 241.3 98.6003 242.5C98.4003 243.2 98.5003 243.8 98.6003 244.4C98.7003 244.7 98.9003 245.1 99.0003 245.4C99.0003 245.5 99.1003 245.5 99.1003 245.5L99.3003 245.7C99.3003 245.7 99.3003 245.8 99.4003 245.8L112.7 261.1Z" fill="#CDE8F0" stroke="#1A1D23" stroke-miterlimit="10"/>
<path d="M106.553 239.824L106.581 239.881L106.624 239.93L119.115 254.178L118.63 254.663L105.133 238.78C105.501 238.916 105.889 239.174 106.266 239.473C106.312 239.52 106.367 239.576 106.42 239.638C106.484 239.712 106.529 239.777 106.553 239.824Z" fill="black" stroke="#1A1D23"/>
<path d="M120.394 250.989L120.402 250.99L120.411 250.992C121.431 251.178 122.432 251.639 123.147 252.354C123.278 252.485 123.39 252.618 123.516 252.77L123.521 252.776C123.64 252.919 123.774 253.079 123.934 253.241L162.282 297.336L152.99 304.808L152.987 304.81L149.565 307.512L111.2 263.398V263.1L110.907 263.1L110.662 262.855C110.659 262.85 110.655 262.841 110.648 262.826C110.646 262.824 110.645 262.822 110.644 262.82C110.62 262.77 110.57 262.671 110.478 262.571C110.153 262.159 109.979 261.656 109.779 261.055C109.233 259.034 109.779 256.604 111.389 254.615L111.395 254.607L111.4 254.6C111.971 253.84 112.63 253.181 113.478 252.616L113.478 252.616L113.486 252.61C115.69 251.077 118.25 250.522 120.394 250.989Z" fill="black" stroke="#1A1D23"/>
<path d="M149.7 308.2L153.4 306.2L150.6 300.5L111 255.2C109.3 257.3 108.7 259.9 109.3 262.1C109.5 262.7 109.7 263.3 110.1 263.8C110.2 263.9 110.2 264 110.3 264.1L110.6 264.4C110.6 264.5 110.7 264.5 110.7 264.5C110.7 264.6 110.8 264.6 110.8 264.6L149.7 308.2Z" fill="#CDE8F0" stroke="#1A1D23" stroke-miterlimit="10"/>
<path d="M160.7 308.9C164.6 306.2 166 301.4 163.9 298.2C163.6 297.9 163.4 297.6 163.1 297.3C162.3 296.5 161.2 296 160.1 295.8C157.8 295.3 155.2 295.9 152.8 297.5C149.5 299.8 148 303.4 148.8 306.4C149 307 149.2 307.6 149.6 308.1C149.7 308.2 149.7 308.3 149.8 308.4L150.1 308.8C150.1 308.9 150.2 308.9 150.2 308.9C152.6 311.4 157.1 311.4 160.7 308.9Z" fill="#CDE8F0" stroke="#1A1D23" stroke-miterlimit="10"/>
<path d="M272 259V260.1C271.8 264.3 269.2 268 265.3 270.9C256 277.7 238.8 279.8 225.6 272.7C222.8 271.2 220.2 269.2 218.3 266.5C216.9 264.4 215.9 261.9 215.9 259.4C215.9 259.2 215.9 259 215.9 258.8C216.1 251.2 220.9 245 227.1 241.5H259.7H260.6C266.8 244.9 271.6 251.2 271.8 258.8C272 258.8 272 258.9 272 259Z" fill="#70A0D4" stroke="#1A1D23" stroke-miterlimit="10"/>
<path d="M271.6 258L271.1 296.7C271.1 302.4 268.9 308 264.4 312.3V269.5C263.6 262.7 260.5 258.1 255.7 255.4L259 241.4H259.9C266.1 244.8 271.4 251.4 271.6 258.9C271.6 258.8 271.6 258.2 271.6 258Z" fill="#417BAF"/>
<path d="M272 258.2V296.7C272 302.4 269.8 308 265.3 312.3C264.1 313.5 262.8 314.5 261.3 315.5C247.3 324.4 224 320.7 217.6 304.5C216.6 302 216.1 299.3 216.1 296.7V258.2C216.1 258.4 216.1 258.6 216.1 258.7C216.2 261 217.1 263.3 218.4 265.3C220.3 268.1 222.9 270 225.7 271.5C238.6 278.5 256 276.6 265.4 269.7C269.4 266.8 272 263 272.1 258.6C272 258.6 272 258.4 272 258.2Z" fill="#70A0D4" stroke="#1A1D23" stroke-miterlimit="10"/>
<path d="M243.9 285C243.9 291.8 243.9 299.4 243.9 306.2C235.6 306.2 225.3 303.6 219.6 297.1C217.5 294.8 216.1 291.9 216.1 288.6C216.1 281.8 216.1 275 216.1 268.2C218.5 279.6 233.2 284.5 243.9 285Z" fill="#FFE1CC" stroke="#1A1D23" stroke-miterlimit="10" stroke-linecap="round" stroke-linejoin="round"/>
<path d="M260.8 249C260.8 250 260.8 250.9 260.4 252.1C259.5 254.5 258 256 255.9 257.3C247 262.9 232.5 260.4 228.5 253.7C227.3 251.6 227.5 249.9 227.5 248.5L227.4 239.4C227.4 238.5 227.5 238.4 227.5 237.5L227.4 236.8C227.4 239.5 228.8 241.5 230.8 243C237.1 248.2 249.3 248.5 256 244.1C259.2 242.1 260.9 239.3 260.9 236.6C260.9 237.5 260.9 238.3 260.9 239.1V249" fill="#E5AB8F"/>
<path d="M260.8 249C260.8 250 260.8 250.9 260.4 252.1C259.5 254.5 258 256 255.9 257.3C247 262.9 232.5 260.4 228.5 253.7C227.3 251.6 227.5 249.9 227.5 248.5L227.4 239.4C227.4 238.5 227.5 238.4 227.5 237.5L227.4 236.8C227.4 239.5 228.8 241.5 230.8 243C237.1 248.2 249.3 248.5 256 244.1C259.2 242.1 260.9 239.3 260.9 236.6C260.9 237.5 260.9 238.3 260.9 239.1V249" stroke="#1A1D23" stroke-miterlimit="10"/>
<path d="M255.9 244.1C249.2 248.5 237 248.3 230.7 243C228.8 241.4 227.3 239.4 227.3 236.8C227.3 235.5 227.7 234.1 228.3 232.9C229.2 231.2 230.6 230 232.2 229.1C239.9 224.3 251.5 225.3 257.4 230.2C262.6 234.5 261.6 240.5 255.9 244.1Z" fill="#FFE1CC" stroke="#1A1D23" stroke-miterlimit="10" stroke-linecap="round" stroke-linejoin="round"/>
<path d="M228.9 243.4V251.5" stroke="#FFE1CC" stroke-miterlimit="10" stroke-linecap="round" stroke-linejoin="round"/>
<path d="M230.6 246.1V254.2" stroke="#FFE1CC" stroke-miterlimit="10" stroke-linecap="round" stroke-linejoin="round"/>
<path d="M234.3 248.5V256.6" stroke="#FFE1CC" stroke-miterlimit="10" stroke-linecap="round" stroke-linejoin="round"/>
<path d="M238 249.3V257.4" stroke="#FFE1CC" stroke-miterlimit="10" stroke-linecap="round" stroke-linejoin="round"/>
<path d="M241.7 250.1V258.2" stroke="#FFE1CC" stroke-miterlimit="10" stroke-linecap="round" stroke-linejoin="round"/>
<path d="M246.1 250.1V258.2" stroke="#FFE1CC" stroke-miterlimit="10" stroke-linecap="round" stroke-linejoin="round"/>
<path d="M250.5 249.3V257.4" stroke="#FFE1CC" stroke-miterlimit="10" stroke-linecap="round" stroke-linejoin="round"/>
<path d="M254.2 247.7V255.8" stroke="#FFE1CC" stroke-miterlimit="10" stroke-linecap="round" stroke-linejoin="round"/>
<path d="M257.1 245.3V253.4" stroke="#FFE1CC" stroke-miterlimit="10" stroke-linecap="round" stroke-linejoin="round"/>
<path d="M259.2 243V251.1" stroke="#FFE1CC" stroke-miterlimit="10" stroke-linecap="round" stroke-linejoin="round"/>
<path d="M264.3 271L264.4 312.3C268.9 307.9 271.1 302.3 271.1 296.7V264.1C271.1 264.2 268.8 269 264.3 271Z" fill="#417BAF"/>
<path d="M217.4 279.5C217.4 279.5 224.7 289.5 238.4 290.5" stroke="#1A1D23" stroke-miterlimit="10" stroke-linecap="round" stroke-linejoin="round"/>
<path d="M217.4 286.5C217.4 286.5 224.7 296.5 238.4 297.5" stroke="#1A1D23" stroke-miterlimit="10" stroke-linecap="round" stroke-linejoin="round"/>
<defs>
<clipPath id="clip0_5304_18320">
<rect width="55.1" height="44.3" fill="white" transform="translate(183 47)"/>
</clipPath>
</defs>
</svg>
