<svg width="335" height="328" viewBox="0 0 335 328" fill="none" xmlns="http://www.w3.org/2000/svg">
<path d="M300.5 68.5C302.3 71.4 302.1 73.6999 302.2 76.6999L302.6 95.0999C302.6 97.8999 302 99.7999 300.4 101.1L300 101.6L299.2 102.1C299 102.2 299 102.2 299 102.2L287.6 110.3L280.5 98.9999L280.6 109.4C280.7 112 280 113.1 278.6 114.4L265.6 123.5L254.7 106.7L253.8 106.4C248.6 103.7 244.4 96.8999 244.3 90.9999L244.4 90.0999L232.2 70.4L231 69.8C225.8 67.1 221.6 60.2999 221.4 54.2999V53L211.5 36.9999L223.4 29.5999L224 29.2C224 29.2 224.2 29.0999 224.3 28.9999L224.5 28.8999C226.5 27.8999 229 28.0999 231.6 29.2999L239.7 33.4999L233.6 23.7L240.6 19.5999L248.3 15.3999C250.1 14.6999 252.4 14.8999 254.6 16.0999L270.1 24.5999C275.3 27.2999 279.5 34.0999 279.6 39.9999L279.9 54.2999L290.5 60.7C292.8 62.1 298.7 65.5999 300.5 68.5Z" fill="#417BAF" stroke="#1A1D23" stroke-miterlimit="10"/>
<path d="M231.5 29L231 44.3L218.2 36.9C213.3 34.3 209.3 36.7 209.5 42.3L209.2 60.2C209.4 65.8 213.6 72.6 218.6 75.3L234.4 84.7L233.9 99C234.1 104.6 238.3 111.4 243.3 114.1L260.1 124C260.1 124 260.2 124 260.2 124.1C261.8 125 263.8 124.8 265.4 123.8L266.1 123.3C267.7 122.3 268.7 120.6 268.6 118.7L268.1 102.4L281.9 110.8C283.4 111.7 285.3 111.7 286.8 110.8L288.2 109.9C289.5 109.1 290.4 107.7 290.5 106.1C290.5 105.9 290.5 105.6 290.5 105.4L290.8 83.5C290.6 77.9 288.4 74.1 283.4 71.4L266.4 61.5L266.1 47.7C265.9 42.1 263.3 37.2 258.4 34.5L240 23.7C235.2 21 231.4 23.4 231.5 29Z" fill="#70A0D4" stroke="#1A1D23" stroke-miterlimit="10"/>
<path d="M238 68.7L237.4 283.2C237.4 287.5 235.8 290.4 233.4 291.9L222.8 297.1C222.3 297.4 221.7 297.6 221 297.7C219.6 297.9 217.9 297.7 216.3 297.3C214.5 296.9 212.8 296.2 211.7 295.7L144.7 256.3L144 256C143.3 255.6 142.6 255.1 142 254.7C141.6 254.4 141.1 254 140.7 253.7C137 250.6 134.2 246.2 132.7 241.5C132.7 241.4 132.6 241.3 132.6 241.2C131.8 238.8 131.4 236.4 131.4 234L131.5 185.9V171.5V151.2V142.4L131.6 107.8V99L131.7 64.4L131.8 20.6C131.8 19 132 17.5 132.4 16.3C132.5 16.1 132.5 15.9 132.6 15.7C133 14.7 133.5 13.8 134.1 13.2C134.2 13.1 134.3 13 134.4 12.9C134.5 12.8 134.7 12.7 134.8 12.5C135.1 12.3 135.4 12 135.7 11.9L146.2 7.00002C148.7 5.50002 152.1 5.70002 155.8 7.90002L224.5 46.8C230.4 50.3 235.4 56.7 237.2 63.4C237.7 65.1 238 66.9 238 68.7Z" fill="black" stroke="#1A1D23" stroke-miterlimit="10" stroke-linecap="round" stroke-linejoin="round"/>
<path d="M226.9 74.6L226.3 289.1C226.3 293.9 224.2 297 221 297.7C219.6 298 218 297.9 216.3 297.3C215.5 297 214.7 296.7 213.9 296.2L144.7 256.4L143.8 255.9C143.1 255.5 142.5 255.1 141.9 254.6C141.5 254.3 141 253.9 140.6 253.6C137.1 250.5 134.2 246 132.6 241.4C132.6 241.3 132.5 241.2 132.5 241.1C131.7 238.8 131.3 236.6 131.3 234.4V197L131.4 185.8L131.5 171.5V167.3V151.2V142.4L131.6 107.8V99L131.7 64.4L131.8 20C131.8 18.6 132 17.4 132.3 16.3C132.4 16.1 132.4 15.9 132.5 15.7C132.9 14.5 133.5 13.6 134.3 12.9C134.4 12.8 134.6 12.7 134.7 12.5C137 10.7 140.4 10.7 144.2 12.9L214.2 53.2C221.5 57.2 226.9 66.8 226.9 74.6Z" fill="white" stroke="#1A1D23" stroke-miterlimit="10" stroke-linecap="round" stroke-linejoin="round"/>
<path d="M133.8 232.7C133.8 240.7 137.2 249 145.3 253.7L213.4 293.2C219.8 297 223.6 293.9 223.6 286.3L224.2 76.5C224.2 68.8 219 59.4 212.7 55.5L144.6 16C138.2 12.2 134.4 13.9 134.4 21.6L134 167.1L133.9 198.9V232.7H133.8Z" fill="white" stroke="#1A1D23" stroke-miterlimit="10" stroke-linecap="round" stroke-linejoin="round"/>
<g clip-path="url(#clip0_5304_19267)">
<path d="M156.3 50.7V57.7L155.7 57.3V51.2L153.4 56L153.2 55.9L150.8 48.4V54.5L150.2 54.2L150.3 47.2L151.1 47.7L153.3 54.8L155.5 50.3L156.3 50.7Z" fill="#3D91E3" stroke="#3D91E3" stroke-width="0.5" stroke-miterlimit="10" stroke-linecap="round" stroke-linejoin="round"/>
<path d="M162.2 50.0999C162.3 50.1999 162.4 50.1999 162.5 50.3999C162.6 50.5999 162.6 50.8999 162.5 50.9999L161 51.7999C160.9 51.7999 160.8 51.7999 160.7 51.7999C160.6 51.6999 160.5 51.6999 160.4 51.4999C160.3 51.2999 160.3 50.9999 160.4 50.8999L161.8 50.0999C162 49.9999 162.1 50.0999 162.2 50.0999Z" fill="#3D91E3" stroke="#3D91E3" stroke-width="0.5" stroke-miterlimit="10" stroke-linecap="round" stroke-linejoin="round"/>
<path d="M162.5 54.3V54.9L159.4 53.1V55.6L162.3 57.3V57.8L159.4 56.2V58.9L162.6 60.7V61.3L158.8 59.1V52.2L162.5 54.3Z" fill="#3D91E3" stroke="#3D91E3" stroke-width="0.5" stroke-miterlimit="10" stroke-linecap="round" stroke-linejoin="round"/>
<path d="M169.8 61.5999C169.8 61.7999 169.8 61.9999 169.8 62.0999C169.8 62.1999 169.8 62.2999 169.8 62.4999C169.8 62.6999 169.7 62.8999 169.7 63.0999C169.6 63.2999 169.5 63.4999 169.4 63.6999C169.3 63.8999 169.1 63.9999 168.8 64.0999C168.6 64.1999 168.3 64.1999 167.9 64.0999C167.5 63.9999 167.1 63.8999 166.6 63.5999L164.7 62.4999V55.5999L166.6 56.6999C167.1 56.9999 167.6 57.2999 167.9 57.6999C168.3 58.0999 168.6 58.3999 168.8 58.7999C169 59.1999 169.2 59.4999 169.4 59.8999C169.5 60.2999 169.6 60.5999 169.7 60.8999C169.8 61.0999 169.8 61.3999 169.8 61.5999ZM169.1 62.8999C169.2 62.5999 169.3 62.1999 169.3 61.6999C169.3 61.1999 169.2 60.6999 169.1 60.2999C169 59.8999 168.8 59.3999 168.5 59.0999C168.2 58.6999 167.9 58.3999 167.6 58.0999C167.3 57.7999 166.9 57.4999 166.5 57.2999L165.3 56.5999V62.3999L166.5 63.0999C166.9 63.2999 167.3 63.4999 167.6 63.5999C167.9 63.6999 168.2 63.6999 168.5 63.5999C168.8 63.4999 168.9 63.0999 169.1 62.8999Z" fill="#3D91E3" stroke="#3D91E3" stroke-width="0.5" stroke-miterlimit="10" stroke-linecap="round" stroke-linejoin="round"/>
<path d="M172.6 60.2V67.1L172 66.8L172.1 59.8L172.6 60.2Z" fill="#3D91E3" stroke="#3D91E3" stroke-width="0.5" stroke-miterlimit="10" stroke-linecap="round" stroke-linejoin="round"/>
<path d="M177.9 62.9999C178.3 63.1999 178.7 63.4999 179 63.8999C179.4 64.2999 179.7 64.6999 179.9 65.2999L179.4 65.4999C179.2 65.0999 179 64.6999 178.7 64.3999C178.4 64.0999 178.1 63.7999 177.8 63.6999C177.4 63.4999 177.1 63.2999 176.7 63.2999C176.4 63.2999 176.1 63.2999 175.9 63.4999C175.7 63.5999 175.5 63.8999 175.4 64.1999C175.3 64.4999 175.2 64.8999 175.2 65.2999C175.2 65.6999 175.3 66.1999 175.4 66.5999C175.5 66.9999 175.7 67.4999 175.9 67.8999C176.1 68.2999 176.4 68.6999 176.7 68.9999C177 69.2999 177.4 69.5999 177.8 69.7999C178 69.8999 178.1 69.9999 178.3 69.9999C178.5 70.0999 178.6 70.0999 178.8 70.0999C179 70.0999 179.1 70.0999 179.3 69.9999C179.4 69.8999 179.6 69.8999 179.7 69.6999L180.2 70.3999C179.9 70.6999 179.6 70.7999 179.2 70.7999C178.8 70.7999 178.4 70.5999 178 70.3999C177.5 70.0999 177.1 69.7999 176.7 69.3999C176.3 68.9999 176 68.5999 175.7 68.0999C175.4 67.5999 175.2 67.0999 175.1 66.5999C175 66.0999 174.9 65.4999 174.9 64.9999C174.9 64.4999 175 63.9999 175.1 63.6999C175.3 63.3999 175.5 63.0999 175.7 62.8999C176 62.6999 176.3 62.6999 176.7 62.6999C177.1 62.5999 177.5 62.7999 177.9 62.9999Z" fill="#3D91E3" stroke="#3D91E3" stroke-width="0.5" stroke-miterlimit="10" stroke-linecap="round" stroke-linejoin="round"/>
<path d="M187.7 70.8999C187.9 71.3999 187.9 71.9999 187.9 72.4999C187.9 72.9999 187.8 73.4999 187.7 73.7999C187.5 74.1999 187.3 74.3999 187.1 74.5999C186.8 74.7999 186.5 74.7999 186.1 74.7999C185.7 74.7999 185.3 74.5999 184.8 74.2999C184.3 73.9999 183.9 73.6999 183.5 73.2999C183.1 72.8999 182.8 72.4999 182.5 71.9999C182.2 71.4999 182 70.9999 181.9 70.4999C181.7 69.9999 181.7 69.3999 181.7 68.8999C181.7 68.3999 181.8 67.8999 181.9 67.5999C182.1 67.1999 182.3 66.9999 182.5 66.7999C182.8 66.5999 183.1 66.5999 183.5 66.5999C183.9 66.5999 184.3 66.7999 184.8 67.0999C185.3 67.3999 185.7 67.6999 186.1 68.0999C186.5 68.4999 186.8 68.8999 187.1 69.3999C187.4 69.8999 187.6 70.3999 187.7 70.8999ZM187.2 73.2999C187.3 72.9999 187.4 72.5999 187.4 72.1999C187.4 71.7999 187.3 71.2999 187.2 70.8999C187.1 70.4999 186.9 69.9999 186.7 69.5999C186.5 69.1999 186.2 68.7999 185.9 68.4999C185.6 68.1999 185.2 67.8999 184.8 67.6999C184.4 67.4999 184.1 67.2999 183.7 67.2999C183.4 67.2999 183.1 67.2999 182.9 67.4999C182.7 67.5999 182.5 67.8999 182.4 68.1999C182.3 68.4999 182.2 68.8999 182.2 69.2999C182.2 69.6999 182.3 70.1999 182.4 70.5999C182.5 70.9999 182.7 71.4999 182.9 71.8999C183.1 72.2999 183.4 72.6999 183.7 72.9999C184 73.2999 184.4 73.5999 184.8 73.7999C185.2 73.9999 185.5 74.0999 185.9 74.1999C186.2 74.1999 186.5 74.1999 186.7 73.9999C186.9 73.7999 187.1 73.5999 187.2 73.2999Z" fill="#3D91E3" stroke="#3D91E3" stroke-width="0.5" stroke-miterlimit="10" stroke-linecap="round" stroke-linejoin="round"/>
<path d="M155.3 61.9L155.2 68.8L154.5 68.4L150.9 60.2L150.8 66.3L150.3 66V59L151 59.4L154.7 67.6V61.6L155.3 61.9Z" fill="#3D91E3" stroke="#3D91E3" stroke-width="0.5" stroke-miterlimit="10" stroke-linecap="round" stroke-linejoin="round"/>
<path d="M160.3 64.8L162.8 73.2L162.2 72.8L161.6 70.6L158.4 68.8L157.7 70.2L157.1 69.9L159.8 64.5L160.3 64.8ZM158.5 68.3L161.3 69.9L160 65.3L158.5 68.3Z" fill="#3D91E3" stroke="#3D91E3" stroke-width="0.5" stroke-miterlimit="10" stroke-linecap="round" stroke-linejoin="round"/>
<path d="M172.3 71.6999V78.5999L171.7 78.2999V74.9999L168.3 73.0999V76.3999L167.8 75.9999V69.0999L168.3 69.3999V72.4999L171.7 74.3999V71.3999L172.3 71.6999Z" fill="#3D91E3" stroke="#3D91E3" stroke-width="0.5" stroke-miterlimit="10" stroke-linecap="round" stroke-linejoin="round"/>
<path d="M180.5 78.3999C180.7 78.8999 180.7 79.4999 180.7 79.9999C180.7 80.4999 180.6 80.9999 180.5 81.2999C180.3 81.6999 180.1 81.8999 179.9 82.0999C179.6 82.2999 179.3 82.2999 178.9 82.2999C178.5 82.2999 178.1 82.0999 177.6 81.7999C177.1 81.4999 176.7 81.1999 176.3 80.7999C175.9 80.3999 175.6 79.9999 175.3 79.4999C175 78.9999 174.8 78.4999 174.7 77.9999C174.6 77.4999 174.5 76.8999 174.5 76.3999C174.5 75.8999 174.6 75.3999 174.7 75.0999C174.9 74.6999 175.1 74.4999 175.3 74.2999C175.6 74.0999 175.9 74.0999 176.3 74.0999C176.7 74.0999 177.1 74.2999 177.6 74.5999C178.1 74.8999 178.5 75.1999 178.9 75.5999C179.3 75.9999 179.6 76.3999 179.9 76.8999C180.1 77.3999 180.3 77.8999 180.5 78.3999ZM179.9 80.7999C180 80.4999 180.1 80.0999 180.1 79.6999C180.1 79.2999 180 78.7999 179.9 78.3999C179.8 77.9999 179.6 77.4999 179.4 77.0999C179.2 76.6999 178.9 76.2999 178.6 75.9999C178.3 75.6999 177.9 75.3999 177.5 75.1999C177.1 74.9999 176.8 74.7999 176.4 74.7999C176.1 74.7999 175.8 74.7999 175.6 74.9999C175.4 75.0999 175.2 75.3999 175.1 75.6999C175.1 75.9999 175 76.2999 175 76.7999C175 77.1999 175.1 77.6999 175.2 78.0999C175.3 78.4999 175.5 78.9999 175.7 79.3999C175.9 79.7999 176.2 80.1999 176.5 80.4999C176.8 80.7999 177.2 81.0999 177.6 81.2999C178 81.4999 178.3 81.6999 178.7 81.6999C179 81.6999 179.3 81.6999 179.5 81.4999C179.7 81.2999 179.8 81.0999 179.9 80.7999Z" fill="#3D91E3" stroke="#3D91E3" stroke-width="0.5" stroke-miterlimit="10" stroke-linecap="round" stroke-linejoin="round"/>
<path d="M185.1 82.7001L186.8 87L186.2 86.6L184.5 82.3L183.5 81.7001V85L182.9 84.7001V77.8L184.5 78.7001C184.6 78.7001 184.7 78.8 184.8 78.9C184.9 79 185.1 79.1001 185.2 79.2001C185.4 79.3001 185.5 79.5 185.7 79.6C185.9 79.8 186 80.0001 186.1 80.2001C186.2 80.4001 186.3 80.6001 186.4 80.9001C186.5 81.2001 186.5 81.4001 186.5 81.7001C186.5 82.0001 186.4 82.3001 186.4 82.4001C186.3 82.6001 186.2 82.7001 186 82.7001C185.8 82.7001 185.7 82.8001 185.5 82.7001C185.4 82.8001 185.2 82.8001 185.1 82.7001ZM183.4 81.2001L184.6 81.9001C184.9 82.1001 185.1 82.2001 185.3 82.2001C185.5 82.2001 185.6 82.2 185.7 82.1C185.8 82 185.9 81.9 185.9 81.8C185.9 81.7 186 81.6001 186 81.4001C186 81.3001 186 81.1 185.9 81C185.9 80.8 185.8 80.7 185.7 80.5C185.6 80.3 185.5 80.1001 185.3 79.9001C185.1 79.7001 184.9 79.5001 184.6 79.4001L183.4 78.7001V81.2001Z" fill="#3D91E3" stroke="#3D91E3" stroke-width="0.5" stroke-miterlimit="10" stroke-linecap="round" stroke-linejoin="round"/>
<path d="M191.3 82.6999L193.8 91.0999L193.2 90.6999L192.5 88.4999L189.3 86.6999L188.6 88.0999L188 87.7999L190.7 82.3999L191.3 82.6999ZM189.6 86.1999L192.4 87.7999L191 83.1999L189.6 86.1999Z" fill="#3D91E3" stroke="#3D91E3" stroke-width="0.5" stroke-miterlimit="10" stroke-linecap="round" stroke-linejoin="round"/>
<path d="M197.3 66L199 67V69.4L197.3 68.4V66Z" fill="#3D91E3" stroke="#3D91E3" stroke-width="0.5" stroke-miterlimit="10" stroke-linecap="round" stroke-linejoin="round"/>
<path d="M200.8 70.4V72.4L199 71.4L197.3 70.4L195.2 69.2V67.2L197.3 68.4L199 69.4L200.8 70.4Z" fill="#3D91E3" stroke="#3D91E3" stroke-width="0.5" stroke-miterlimit="10" stroke-linecap="round" stroke-linejoin="round"/>
<path d="M198 61.7999C201.8 63.9999 204.8 69.1999 204.8 73.4999C204.8 77.7999 201.7 79.5999 198 77.3999C197.1 76.8999 196.2 76.0999 195.3 75.2999H193.1C193.1 75.2999 193 75.2999 192.9 75.2999C192.8 75.2999 192.8 75.1999 192.7 75.0999C192.6 74.8999 192.5 74.7999 192.6 74.5999L193 72.1999C191.8 70.0999 191.1 67.7999 191.1 65.6999C191.2 61.3999 194.3 59.6999 198 61.7999ZM202.3 77.0999C203.4 76.4999 204.1 75.0999 204.1 73.1999C204.1 71.2999 203.4 69.0999 202.3 67.1999C201.2 65.2999 199.7 63.5999 198 62.6999C196.3 61.6999 194.8 61.5999 193.7 62.2999C192.6 62.8999 191.9 64.2999 191.9 66.1999C191.9 68.0999 192.6 70.2999 193.7 72.1999C193.8 72.2999 193.8 72.4999 193.8 72.5999L193.5 74.3999H195.2C195.3 74.3999 195.3 74.3999 195.4 74.4999L195.5 74.5999C196.3 75.3999 197.1 76.1999 198 76.6999C199.7 77.5999 201.2 77.6999 202.3 77.0999Z" fill="#3D91E3" stroke="#3D91E3" stroke-width="0.5" stroke-miterlimit="10" stroke-linecap="round" stroke-linejoin="round"/>
<path d="M197.3 72.3999V70.3999L199 71.3999V73.3999L197.3 72.3999Z" fill="#3D91E3" stroke="#3D91E3" stroke-width="0.5" stroke-miterlimit="10" stroke-linecap="round" stroke-linejoin="round"/>
</g>
<path d="M165.2 30.2001C162.4 28.6001 160.2 29.9001 160.2 33.0001C160.2 36.1001 162.4 39.9001 165.1 41.6001L188.3 54.9001C191.1 56.5001 193.3 55.2001 193.3 52.1001C193.3 49.0001 192.4 46.3001 189.7 44.7001L165.2 30.2001Z" fill="black" stroke="#1A1D23" stroke-miterlimit="10" stroke-linecap="round" stroke-linejoin="round"/>
<path d="M233 102.4C231.7 103.3 230.6 105.7 230.6 107.6V129.9C230.6 131.8 231.6 132.6 233 131.7C234.3 130.8 235.4 128.4 235.4 126.5V104.2C235.3 102.3 234.3 101.4 233 102.4Z" fill="white" stroke="#1A1D23" stroke-miterlimit="10" stroke-linecap="round" stroke-linejoin="round"/>
<path d="M226.3 69.1001L237.7 63.1001" stroke="#1A1D23" stroke-miterlimit="10" stroke-linecap="round" stroke-linejoin="round"/>
<path d="M162.4 85.3999L162.3 110.9C162.3 113.4 160.5 114.5 158.3 113.2L136.1 100.4L133.7 98.9999H133.6L133.7 64.3999L133.8 64.4999L136.2 65.8999L158.4 78.6999C160.7 79.7999 162.4 82.8999 162.4 85.3999Z" fill="#A7C3DB"/>
<path d="M174.399 122.4L215.399 146.1C217.599 147.4 219.399 146.3 219.399 143.8L219.499 118.3C219.499 115.8 217.699 112.7 215.499 111.4L174.499 87.6998C172.299 86.3998 170.499 87.4998 170.499 89.9998L170.399 115.5C170.399 118 172.199 121.1 174.399 122.4Z" fill="#A7C3DB"/>
<path d="M162.4 128.9L162.3 154.4C162.3 156.9 160.5 157.9 158.3 156.7L136 143.8L133.6 142.4L133.7 107.8H133.8L136.2 109.2L158.5 122.1C160.7 123.3 162.4 126.4 162.4 128.9Z" fill="#A7C3DB"/>
<path d="M215.499 154.9L174.499 131.2C172.299 129.9 170.499 131 170.499 133.5L170.399 159C170.399 161.5 172.199 164.6 174.399 165.9L215.399 189.6C217.599 190.9 219.399 189.8 219.399 187.3L219.499 161.8C219.499 159.3 217.699 156.2 215.499 154.9Z" fill="#A7C3DB"/>
<path d="M162.4 172.4L162.3 197.9C162.3 200.4 160.5 201.4 158.3 200.2L135.8 187.2L133.5 185.9L133.6 171.6V151.3L136 152.7L158.4 165.7C160.7 166.8 162.4 169.9 162.4 172.4Z" fill="#A7C3DB"/>
<path d="M215.499 198.4L174.499 174.7C172.299 173.4 170.499 174.5 170.499 177L170.399 202.5C170.399 205 172.199 208.1 174.399 209.4L215.399 233.1C217.599 234.4 219.399 233.3 219.399 230.8L219.499 205.3C219.499 202.7 217.699 199.7 215.499 198.4Z" fill="#A7C3DB"/>
<path d="M149.9 58.8L108.9 35.1C107.6 34.4 106.4 34.3 105.6 34.8L102.2 36.8C101.4 37.3 100.8 38.3 100.8 39.8L100.7 65.3001C100.7 68.3001 102.8 71.9001 105.4 73.4001L146.4 97.1C147.7 97.9 148.9 97.9001 149.7 97.4001L153.1 95.4001C153.9 94.9001 154.5 93.9001 154.5 92.4001L154.6 66.9001C154.5 63.9001 152.4 60.3 149.9 58.8Z" fill="#F6C9C8" stroke="#1A1D23" stroke-miterlimit="10"/>
<path d="M145.4 61.8001C147.6 63.1001 149.4 66.3001 149.4 68.8001L149.3 94.8001C149.3 97.4001 147.5 98.4001 145.3 97.1001L104 73.0001C101.8 71.7001 99.9995 68.5001 99.9995 66.0001L100.1 40.0001C100.1 37.4001 101.9 36.4001 104.1 37.7001L145.4 61.8001Z" fill="#FCECEB" stroke="#1A1D23" stroke-miterlimit="10"/>
<path d="M159.4 70.4C158.3 71.1 157.6 72.3 157.6 73.7L157.8 98.1C157.8 101.1 159.9 104.7 162.5 106.2L203.5 129.9C204.8 130.7 206 130.7 206.8 130.2L210.2 128.2C211 127.7 211.6 126.7 211.6 125.2L211.7 99.7C211.7 96.7 209.6 93.1 207 91.6L166.6 68.5C165.3 67.8 163.5 68 162.6 68.5L159.4 70.4Z" fill="#CAEAE4" stroke="#1A1D23" stroke-miterlimit="10"/>
<path d="M206.499 102.3L206.399 127.8C206.399 130.3 204.599 131.3 202.399 130.1L161.399 106.4C159.199 105.1 157.399 102 157.399 99.5L157.499 74C157.499 71.5 158.299 70.2 160.499 71.5L187.499 86.9L201.699 95L202.399 95.4C204.699 96.7 206.499 99.8 206.499 102.3Z" fill="#6ABCBF" stroke="#1A1D23" stroke-miterlimit="10"/>
<path d="M153.1 138.8C153.9 138.3 154.5 137.3 154.5 135.8L154.6 110.3C154.6 107.3 152.5 103.7 149.9 102.2L108.9 78.5C107.6 77.8 106.4 77.7 105.6 78.2L101.7 80.6999C101 81.1999 100.6 81.9 100.6 82.8C100.6 83 100.6 83.2 100.6 83.5L100.8 108.7C100.8 111.7 102.9 115.3 105.5 116.8L146.7 140.9C147.3 141.3 148.1 141.3 148.8 141L153.1 138.8Z" fill="#CDE8F0" stroke="#1A1D23" stroke-miterlimit="10"/>
<path d="M149.399 112.5L149.299 138.3C149.299 140.9 147.499 141.9 145.299 140.6L140.699 137.9L132.399 133.1L129.799 131.6L123.899 128.2L103.899 116.6C101.699 115.3 99.8994 112.2 99.8994 109.6L99.9994 83.7999C99.9994 81.1999 101.799 80.1999 103.999 81.4999L145.299 105.5C147.699 106.8 149.399 110 149.399 112.5Z" fill="#70A0D4" stroke="#1A1D23" stroke-miterlimit="10"/>
<path d="M206.9 135.1L165.9 111.4C164.6 110.7 163.4 110.6 162.6 111.1L159.2 113.1C158.4 113.6 157.6 114.6 157.6 116.1L157.5 141.6C157.5 144.6 159.8 148.2 162.4 149.7L203.4 173.4C204.7 174.2 205.9 174.2 206.7 173.7L210.1 171.7C210.9 171.2 211.5 170.2 211.5 168.7L211.6 143.2C211.6 140.2 209.5 136.6 206.9 135.1Z" fill="#FBE5CA" stroke="#1A1D23" stroke-miterlimit="10"/>
<path d="M203.4 138.9C205.6 140.2 207.4 143.3 207.4 145.8L207.3 171.3C207.3 173.8 205.5 174.9 203.3 173.6L162 149.8C159.8 148.5 157.5 145 157.5 142.5V116.5C157.5 114 159.9 113.9 162.1 115.2L203.4 138.9Z" fill="#FDF3EC" stroke="#1A1D23" stroke-miterlimit="10"/>
<path d="M153.099 182.3C153.899 181.8 154.499 180.8 154.499 179.3L154.599 153.8C154.599 150.8 152.499 147.2 149.899 145.7L108.899 122C107.599 121.3 106.399 121.2 105.599 121.7L102.199 123.7C101.399 124.2 100.799 125.2 100.799 126.7L100.699 152.2C100.699 155.2 102.799 158.8 105.399 160.3L144.599 183.5C145.899 184.3 146.599 185.5 148.599 184.5L153.099 182.3Z" fill="#F2E9BD" stroke="#1A1D23" stroke-miterlimit="10"/>
<path d="M145.499 149.5C147.699 150.8 149.499 153.9 149.499 156.4L149.399 181.9C149.399 184.4 147.599 185.5 145.399 184.2L104.399 160.5C102.199 159.2 100.399 156.1 100.399 153.6L100.499 128.1C100.499 125.6 102.299 124.5 104.499 125.8L145.499 149.5Z" fill="#FAF7E7" stroke="#1A1D23" stroke-miterlimit="10"/>
<path d="M210.1 214.2C210.9 213.7 211.5 212.7 211.5 211.2L211.6 186.7C211.6 183.7 209.5 180.1 206.9 178.6L165.9 154.9C164.6 154.2 163.4 154.1 162.6 154.6L159.2 156.6C158.4 157.1 157.8 158.1 157.8 159.6L157.7 185.1C157.7 188.1 159.8 191.7 162.4 193.2L203.6 217C204.2 217.3 204.9 217.4 205.6 217.1L210.1 214.2Z" fill="#E0D9F1" stroke="#1A1D23" stroke-miterlimit="10"/>
<path d="M206.5 188.7V191.9L206.4 214.7C206.4 217.3 204.6 218.3 202.4 217L161 192.9C158.8 191.6 157 188.4 157 185.9L157.1 159.9C157.1 157.3 158.9 156.3 161.1 157.6L195.6 177.7L202.5 181.7C204.7 183 206.5 186.1 206.5 188.7Z" fill="#B6AED1" stroke="#1A1D23" stroke-miterlimit="10"/>
<path d="M140.6 245.8C136.1 243.2 133.8 238 133.9 232.8L133.5 227.3V207L135.9 208.4L158.3 221.4C160.5 222.7 162.3 225.8 162.3 228.3L162.2 253.8C162.2 256.3 160.4 257.4 158.2 256.1L140.6 245.8Z" fill="#A7C3DB"/>
<path d="M215.4 254.2L174.4 230.5C172.2 229.2 170.4 230.3 170.4 232.8L170.3 258.3C170.3 260.8 172.1 263.9 174.3 265.2L215.3 288.9C217.5 290.2 219.3 289.1 219.3 286.6L219.4 261.1C219.4 258.6 217.6 255.5 215.4 254.2Z" fill="#A7C3DB"/>
<path d="M149.4 203.2L108.4 179.5C107.1 178.8 105.9 178.7 105.1 179.2L101.7 181.2C100.9 181.7 100.3 182.7 100.3 184.2L100.2 209.7C100.2 212.7 102.3 216.3 104.9 217.8L145.9 241.5C147.2 242.3 148.4 242.3 149.2 241.8L152.6 239.8C153.4 239.3 154 238.3 154 236.8L154.1 211.3C154.1 208.3 152 204.7 149.4 203.2Z" fill="#F6C9C8" stroke="#1A1D23" stroke-miterlimit="10"/>
<path d="M145 206.2C147.2 207.5 149 210.7 149 213.2L148.9 239.2C148.9 241.8 147.1 242.8 144.9 241.5L103.6 217.3C101.4 216 99.5996 212.8 99.5996 210.3L99.6996 184.3C99.6996 181.7 101.5 180.7 103.7 182L145 206.2Z" fill="#FCECEB" stroke="#1A1D23" stroke-miterlimit="10"/>
<path d="M158.9 214.8C157.8 215.5 157.1 216.7 157.1 218.1L157.3 242.5C157.3 245.5 159.4 249.1 162 250.6L203 274.3C204.3 275.1 205.5 275.1 206.3 274.6L209.7 272.6C210.5 272.1 211.1 271.1 211.1 269.6L211.2 244.1C211.2 241.1 209.1 237.5 206.5 236L166.1 212.9C164.8 212.2 163 212.4 162.1 212.9L158.9 214.8Z" fill="#CAEAE4" stroke="#1A1D23" stroke-miterlimit="10" stroke-linecap="round" stroke-linejoin="round"/>
<path d="M202.1 239.8C204.3 241.1 206.1 244.2 206.1 246.7L206 272.2C206 274.7 204.2 275.8 202 274.5L161 250.8C158.8 249.5 157 246.4 157 243.9L157.1 218.4C157.1 215.9 157.9 214.6 160.1 215.9L202.1 239.8Z" fill="#6ABCBF" stroke="#1A1D23" stroke-miterlimit="10"/>
<path d="M111.5 50.5L137.9 65.5" stroke="#1A1D23" stroke-miterlimit="10" stroke-linecap="round" stroke-linejoin="round"/>
<path d="M111.5 94.5L137.9 109.5" stroke="#1A1D23" stroke-miterlimit="10" stroke-linecap="round" stroke-linejoin="round"/>
<path d="M111.5 137.5L137.9 152.5" stroke="#1A1D23" stroke-miterlimit="10" stroke-linecap="round" stroke-linejoin="round"/>
<path d="M167.5 103.5L193.9 118.5" stroke="#1A1D23" stroke-miterlimit="10" stroke-linecap="round" stroke-linejoin="round"/>
<path d="M166.5 145.5L192.9 160.5" stroke="#1A1D23" stroke-miterlimit="10" stroke-linecap="round" stroke-linejoin="round"/>
<path d="M166.5 188.5L192.9 203.5" stroke="#1A1D23" stroke-miterlimit="10" stroke-linecap="round" stroke-linejoin="round"/>
<path d="M111.5 196.5L137.9 211.5" stroke="#1A1D23" stroke-miterlimit="10" stroke-linecap="round" stroke-linejoin="round"/>
<path d="M166.5 246.5L192.9 261.5" stroke="#1A1D23" stroke-miterlimit="10" stroke-linecap="round" stroke-linejoin="round"/>
<path d="M144.8 74.8001C145.8 75.7001 146.2 77.2 145.9 78.1L144.9 81.1C144.6 81.9 144 82.1 143.2 81.7C143 81.6 142.8 81.5001 142.7 81.3001L140.4 79.1L138.1 78.6H138C137.8 78.5 137.6 78.1001 137.7 77.9001L138.3 77.1C137.5 76.1 137.2 74.9 137.5 74.1L138.5 71.1C138.8 70.3 139.4 70.1 140.2 70.5C140.4 70.6 140.6 70.7001 140.7 70.9001L144.8 74.8001ZM143 77.3001C143.1 77.1001 143 76.7 142.7 76.5L142.2 76L142.4 75.5C142.5 75.3 142.3 74.9 142.1 74.7L142 74.6C141.8 74.5 141.6 74.5 141.6 74.7L141.4 75.2L140.9 74.7L140.8 74.6C140.6 74.5 140.4 74.5 140.4 74.7C140.3 74.9 140.4 75.3 140.7 75.5L141.2 76L141 76.5C140.9 76.7 141 77.1001 141.3 77.3001L141.4 77.4001C141.6 77.5001 141.8 77.5001 141.8 77.3001L142 76.8001L142.5 77.3001L142.6 77.4001C142.8 77.5001 142.9 77.5001 143 77.3001Z" fill="#F5C8C7"/>
<path d="M128.5 76.2001C128.6 76.2001 128.7 76.3001 128.7 76.4001C128.9 76.5001 130.4 82.4001 130.7 82.5001C131 82.7001 132.5 78.5001 132.7 78.7001C133 78.9001 133.3 79.1001 133.6 79.3001C133.9 79.8001 134.2 80.4001 134.2 81.0001V81.8001C133.8 81.7001 133.5 82.0001 133.5 82.5001C133.5 83.2001 133.9 84.0001 134.5 84.3001C135.1 84.6001 135.5 84.4001 135.5 83.7001C135.5 83.2001 135.2 82.6001 134.8 82.2001V81.4001C134.8 81.0001 134.7 80.6001 134.6 80.2001C137.1 82.6001 139.1 86.2001 140.1 89.4001C140.8 91.7001 139.5 92.8001 137.5 91.7001L123.5 83.6001C121.6 82.5001 120.3 79.8001 121 78.3001C122 76.3001 124.1 74.7001 126.7 75.4001C126.5 75.7001 126.4 76.0001 126.4 76.5001V78.9001C125.2 78.5001 124.3 79.2001 124.3 80.5001C124.1 80.5001 124 80.7001 123.9 81.0001C123.9 81.4001 124.2 82.0001 124.6 82.2001C125 82.4001 125.3 82.2001 125.3 81.8001C125.3 81.5001 125.2 81.2001 125 80.9001C125 79.8001 125.9 79.3001 126.9 79.9001C127.9 80.5001 128.8 81.9001 128.8 83.1001C128.6 83.1001 128.5 83.3001 128.4 83.6001C128.4 84.0001 128.7 84.6001 129.1 84.8001C129.5 85.0001 129.8 84.8001 129.8 84.4001C129.8 84.1001 129.7 83.8001 129.5 83.5001C129.5 82.0001 128.4 80.1001 127.1 79.2001V76.8001C127.1 76.2001 127.4 75.8001 127.9 75.8001C128.2 76.1001 128.4 76.1001 128.5 76.2001Z" fill="#F5C8C7"/>
<path d="M130.7 64.5C132.5 65.5 133.9 67.5 134.2 69.1C134.4 69.7 134.5 70.4 134.5 71.2C134.5 71.5 134.6 71.7 134.6 72C134.8 72.2 134.9 72.9 134.8 73.6C134.7 74.2 134.4 74.6 134.2 74.5C133.8 75.5 133.2 76.3 132.4 76.6C131.9 76.8 131.3 76.7 130.7 76.4C130.1 76.1 129.5 75.4 129 74.7C128.2 73.5 127.5 72 127.2 70.6C127 70.4 126.7 69.7 126.6 68.9C126.5 68.1 126.6 67.5 126.9 67.6C126.9 67.5 126.9 67.4 126.9 67.4C126.9 66.4 127 65.7 127.2 65.2C127.4 63.7 128.9 63.5 130.7 64.5Z" fill="#F5C8C7"/>
<path d="M202.2 104L199.7 94.9999L185.5 86.8999L180.8 86.1999C178.5 85.8999 177.4 88.1999 178.2 91.2999L180.9 101C181.6 103.4 183.2 105.6 185 106.6C185.5 106.9 186 107.1 186.6 107.2L194.9 108.4L200.3 113.1C200.4 113.2 200.4 113.2 200.5 113.3C201 113.6 201.4 113.2 201.2 112.5L200.3 109.2C202.2 108.9 203 106.8 202.2 104ZM192.8 99.2999L191.6 99.0999L192.1 100.8C192.3 101.5 192 102 191.5 102C191.4 102 191.3 101.9 191.1 101.9C190.7 101.7 190.3 101.2 190.1 100.6L189.6 98.8999L188.4 98.6999C188.3 98.6999 188.2 98.5999 188 98.5999C187.6 98.3999 187.2 97.7999 187.1 97.2999C186.9 96.5999 187.2 96.0999 187.7 96.0999L188.9 96.2999L188.4 94.5999C188.2 93.8999 188.5 93.3999 189 93.3999C189.1 93.3999 189.2 93.4999 189.4 93.4999C189.8 93.6999 190.2 94.2999 190.4 94.7999L190.9 96.4999L192.1 96.6999C192.2 96.6999 192.3 96.7999 192.4 96.7999C192.8 96.9999 193.2 97.5999 193.4 98.0999C193.6 98.7999 193.3 99.2999 192.8 99.2999Z" fill="#C9E9E3"/>
<path d="M130.699 131.4L125.499 128.4L125.399 128.2C122.999 124.6 121.499 120.8 121.099 116.9C120.899 114.6 121.099 112.9 121.699 110.1C121.699 109.7 122.099 109.5 122.499 109.8C122.499 109.8 122.599 109.8 122.599 109.9C122.999 110.1 123.299 110.6 123.299 111.1L123.499 114.5C123.499 114.7 123.499 114.8 123.399 114.8C122.999 115 122.899 115.4 122.999 116.1C123.299 117.3 123.799 119.2 124.899 121.4C124.999 121.5 125.099 121.6 125.199 121.7C125.299 121.7 125.299 121.8 125.399 121.8C125.599 121.8 125.599 121.6 125.499 121.4C124.499 119.3 123.999 117.6 123.699 116.4C123.599 116 123.799 115.7 124.099 115.7H124.199C124.299 115.7 124.399 115.8 124.499 115.8C124.599 115.9 124.799 116 124.899 116.1C125.099 116.3 125.299 116.6 125.399 116.9L125.799 118.1C126.199 119.5 126.999 120.9 127.999 122.2C129.099 123.7 129.899 125.4 130.199 127L130.499 128.5C130.599 128.9 130.599 129.2 130.599 129.6C130.599 130 130.699 130.5 130.799 131C130.599 130.9 130.699 131.2 130.699 131.4Z" fill="#CDE8F0"/>
<path d="M136.8 115.5C139.1 117.2 140.5 120.7 139.9 122.9C139 126.4 135 126.5 133.2 126.3C133 126.3 132.8 126.2 132.5 126.1C132.1 125.9 131.8 125.6 131.5 125.2C129.9 122.9 126.5 117.6 126.5 113.4C126.5 110.9 128.2 109.7 130.3 110.9C130.4 111 130.6 111.1 130.7 111.2C132 112.1 133 113.6 133.5 115.1C134.2 114.6 135.2 114.6 136.3 115.3C136.5 115.3 136.7 115.4 136.8 115.5Z" fill="#CDE8F0"/>
<path d="M145 126.7C144.9 129.8 144.7 131.6 144.1 133.3C143.3 135.3 142 136.5 140.4 137L133 132.7C133 132.6 133.1 132.5 133.1 132.5C133.3 132.2 133.4 131.9 133.6 131.6C133.7 131.3 133.7 131 133.9 130.8L134.4 129.8C134.9 128.8 136 128.4 137.2 128.6C138.3 128.8 139.2 128.6 139.9 128L140.5 127.5C140.7 127.4 140.9 127.4 141.1 127.5C141.2 127.5 141.2 127.5 141.3 127.6C141.5 127.7 141.7 127.9 141.9 128.1L142 128.3C142.3 128.7 142.4 129.2 142.2 129.5C141.7 130.2 140.9 131 139.6 131.5C139.4 131.5 139.4 131.7 139.6 132C139.7 132.1 139.7 132.2 139.8 132.3C139.9 132.3 140 132.4 140 132.3C141.4 131.9 142.2 130.9 142.7 130.2C142.9 129.8 142.9 129.2 142.6 128.6C142.5 128.4 142.5 128.3 142.6 128.2L143.5 125.6C143.6 125.3 143.9 125.3 144.3 125.5C144.3 125.5 144.4 125.5 144.4 125.6C144.8 125.7 145 126.3 145 126.7Z" fill="#CDE8F0"/>
<path d="M202 182.7L195.1 178.7L190.9 181.1L186 183.9C184.8 184.6 184.1 186.1 184.1 188C184.1 190 184.8 192.2 186 194.3C187.2 196.4 188.8 198.1 190.5 199.1C192.2 200.1 193.8 200.2 195 199.5L200 196.7L204.9 193.9C205.4 193.6 205.7 193.3 206 192.8V189.6C206 187.1 204.2 184 202 182.7ZM195.6 183.6L196.4 183.1C196.6 183 196.8 183 197 183.2C197.2 183.3 197.4 183.5 197.6 183.8C197.9 184.4 197.9 185 197.6 185.2L196.8 185.7C196.6 185.8 196.4 185.8 196.2 185.6C196 185.5 195.8 185.3 195.6 185C195.3 184.4 195.3 183.8 195.6 183.6ZM193.8 197.5C192.9 198 191.7 197.9 190.5 197.2C189.2 196.5 188 195.2 187.2 193.7C186.3 192.2 185.8 190.5 185.8 189.1C185.8 187.7 186.3 186.6 187.2 186.1L191.5 183.6L198.2 195.1L193.8 197.5ZM200.4 184.2C200.2 184.3 199.9 184.3 199.6 184.1C199.3 183.9 199 183.6 198.8 183.2C198.6 182.8 198.5 182.4 198.5 182.1C198.5 181.7 198.6 181.5 198.8 181.3C199 181.2 199.3 181.2 199.6 181.4C199.9 181.6 200.2 181.9 200.4 182.3C200.6 182.7 200.7 183.1 200.7 183.5C200.7 183.8 200.6 184.1 200.4 184.2Z" fill="#E0D9F1"/>
<path d="M121.9 118.9L121.5 119.7C121.2 120.2 120.9 120.8 120.5 121.2C120.4 119.6 121.1 118.2 121.7 116.7C121.7 116.9 121.6 117.1 121.6 117.1C121.6 117.1 120.6 119.8 120.5 120.2C120.5 120.6 120.5 120.6 120.5 120.6C120.5 120.6 121.3 119.6 121.9 118.9Z" fill="#CFBCAC"/>
<path d="M81.2 96.9001L83.8 102.2C84.1 102.9 83.9 103.8 83.2 104.1L80.5 105.5L81.2 96.9001Z" fill="#F6C9C8" stroke="#1A1D23" stroke-miterlimit="10" stroke-linecap="round" stroke-linejoin="round"/>
<path d="M52.4998 170.5C54.4998 155.1 53.3998 127 53.3998 127C43.9998 126.9 43.1998 138.9 41.9998 141.1C41.0998 142.8 38.1998 158.3 36.5998 166.9C35.8998 170.4 37.2998 173.9 39.9998 176.1L60.9998 192.6C60.9998 192.6 67.9998 197 70.9998 188.2L52.4998 170.5Z" fill="#E07777" stroke="#1A1D23" stroke-miterlimit="10" stroke-linecap="round" stroke-linejoin="round"/>
<path d="M55.7 302.4C55 304.7 53.9 306.8 54 308.7C54.1 310.6 54.2 311.7 55.6 312.4C57 313.1 59.8 314.4 61.9 311.8C63.9 309.2 65.4 307.3 66.5 305.9C67.6 304.5 72.2 298.3 72.9 297.1C73.6 295.9 72.3 294.2 72.3 294.2L66.1 295.1C66.1 295.1 62.3 297.3 61.9 297.5C61.5 297.7 55.7 302.4 55.7 302.4Z" fill="#1A1D23" stroke="#1A1D23" stroke-miterlimit="10" stroke-linejoin="round"/>
<path d="M54.5996 309.3C54.0996 311.5 54.3996 312.7 54.4996 313.1C54.5996 313.5 56.0996 314.8 58.3996 314.8C60.6996 314.8 63.2996 312.9 64.0996 311.7C64.9996 310.5 65.9996 308 65.9996 308L66.6996 306.6C66.6996 306.6 68.5996 304.7 70.0996 303.3C71.5996 301.9 73.5996 298.7 74.4996 297.5C75.3996 296.3 74.3996 294.8 74.3996 294.8L68.7996 296.7L54.5996 309.3Z" fill="#1A1D23" stroke="#1A1D23" stroke-miterlimit="10" stroke-linejoin="round"/>
<path d="M53.8999 300.4C55.4999 303.3 54.9999 306.8 55.3999 307.5C55.7999 308.2 58.3999 308.6 60.3999 307.8C62.3999 307 63.8999 303.8 64.5999 303C65.2999 302.2 66.1999 300.5 66.1999 299.9C66.1999 299.3 64.1999 297.4 63.8999 296.6C63.6999 295.8 63.0999 291.7 63.0999 291.7L53.8999 300.4Z" fill="#F6C9C8"/>
<path d="M53.3997 164.6C50.6997 174.5 48.4997 176.8 48.0997 187.8C47.5997 198.8 53.4997 211.6 53.5997 214.5C53.6997 217.4 52.7997 231.1 52.5997 236.5C52.3997 241.9 50.7997 251.8 49.8997 263.5C49.0997 274.3 47.2997 301.8 48.3997 303.4C49.4997 305 60.1997 303.5 61.7997 302.2C63.3997 300.9 69.0997 294.9 69.0997 294.9C69.0997 294.9 66.3997 251.8 67.5997 244.6C68.7997 237.4 69.9997 219 69.8997 210.8C69.7997 202.7 69.9997 176.1 69.3997 174.4C68.5997 172.8 53.3997 164.6 53.3997 164.6Z" fill="#CDE8F0" stroke="#1A1D23" stroke-miterlimit="10"/>
<path d="M79.6996 307.5C79.6996 307.5 85.4996 307.1 86.8996 307C88.2996 306.8 95.5996 305.7 97.6996 307.7C99.7996 309.7 99.7996 311.6 98.9996 313.2C98.1996 314.8 94.2996 317.5 91.5996 318C88.8996 318.5 85.7996 318.7 83.5996 319.4C81.3996 320.1 75.2996 321.2 73.9996 321.3C72.6996 321.3 69.6996 320.4 69.0996 317.9C69.0996 317.9 69.3996 313 69.9996 311.8C70.5996 310.6 74.5996 308 74.5996 308L79.6996 307.5Z" fill="#1A1D23" stroke="#1A1D23" stroke-miterlimit="10" stroke-linejoin="round"/>
<path d="M70.8999 316.6C70.8999 316.6 69.3999 316.9 69.0999 317.8C68.7999 318.7 68.5999 319.3 68.8999 320.2C69.1999 321.1 69.8999 322.9 72.5999 323C75.2999 323.1 78.9999 322 80.5999 321.2C82.1999 320.4 83.7999 319.9 83.7999 319.9C83.7999 319.9 90.2999 319 92.4999 318C94.7999 317.1 96.0999 316.5 97.8999 314.8C99.6999 313.1 99.3999 313 99.4999 312.6C99.5999 312.2 99.3999 310.5 98.9999 309.7C98.6999 308.9 70.8999 316.6 70.8999 316.6Z" fill="#1A1D23" stroke="#1A1D23" stroke-miterlimit="10" stroke-linejoin="round"/>
<path d="M70.9996 303.7C71.6996 308 70.9996 312.4 70.5996 314.4C70.1996 316.4 74.5996 317.4 78.8996 316.6C83.1996 315.8 85.3996 313.4 85.5996 312.1C85.8996 310.8 86.3996 308.8 84.4996 307.8C82.5996 306.8 81.2996 307.2 80.6996 305.9C80.0996 304.6 79.6996 300 79.6996 300L70.9996 303.7Z" fill="#F6C9C8"/>
<path d="M85 170C88.9 184.8 91.5 187.5 92.5 210.5C93.3 228.6 91.5 237.5 92.5 256.5C93 266.8 94.9 303.3 94.5 305.5C93.3 312.8 70.8 312.3 66.3 311.7C64.2 310.6 63.6 309 63.6 308C63.6 307.1 64.5 249.3 65.5 241.5C66.5 233.6 66.5 222.5 66.5 222.5C66.5 222.5 66.7 213.1 65.5 211.5C64.3 209.9 57.6 205.8 56.5 196.5" fill="#CDE8F0"/>
<path d="M85 170C88.9 184.8 91.5 187.5 92.5 210.5C93.3 228.6 91.5 237.5 92.5 256.5C93 266.8 94.9 303.3 94.5 305.5C93.3 312.8 70.8 312.3 66.3 311.7C64.2 310.6 63.6 309 63.6 308C63.6 307.1 64.5 249.3 65.5 241.5C66.5 233.6 66.5 222.5 66.5 222.5C66.5 222.5 66.7 213.1 65.5 211.5C64.3 209.9 57.6 205.8 56.5 196.5" stroke="#1A1D23" stroke-miterlimit="10"/>
<path d="M90.4999 183.5C88.4999 178.5 85.2999 157.7 86.4999 152.5C86.7999 151.1 88.5999 145.9 88.4999 143.5C88.0999 137.3 89.6999 133.5 87.4999 131.7C84.3999 129.2 79.7999 128.8 75.9999 126.1C70.8999 122.5 58.8999 117.9 53.9999 118.4C48.9999 118.9 44.4999 119.8 42.6999 124.5C40.7999 129.6 40.8999 138.6 45.3999 147.1C53.9999 163 46.7999 179.3 48.4999 184.5C50.1999 189.7 65.2999 188.5 71.4999 188.5C81.2999 188.5 90.4999 183.5 90.4999 183.5Z" fill="#E07777" stroke="#1A1D23" stroke-miterlimit="10" stroke-linecap="round" stroke-linejoin="round"/>
<path d="M82.6997 150.3C87.1997 155.7 93.1997 161.5 97.9997 163.4C102.8 165.2 108.1 167.2 109.5 166.4C110.9 165.6 112.5 163.7 112.6 161.6C112.7 159.5 110.3 155.8 107.3 154C104.3 152.3 101.3 149.3 99.1997 146.7C97.1997 144.1 95.4997 142 94.6997 141.6C93.9997 141.2 86.8997 142.2 85.9997 143.6C85.1997 145.1 82.6997 150.3 82.6997 150.3Z" fill="#F6C9C8"/>
<path d="M114.5 118.5L115.5 113.3C115.5 113.3 116.5 109.5 116.6 108.1C116.6 107.7 116.6 107.4 116.5 107.2C116.3 106.6 115.7 106.4 115.1 106.7C114.3 107.1 113.2 110.7 113 111.6C112.8 112.5 112 116.4 112 116.4L110.8 117.3C110.8 117.3 108.7 121.3 108.6 122.1C108.5 122.5 108.7 123.6 108.9 125C109.2 126.5 109.6 128.2 109.8 128.9C110.2 130.3 109.6 132 108.7 137.4C107.8 142.8 106.2 147 105.8 147.9C105.5 148.5 105.1 150.1 104.3 151.8C103.9 152.7 103.4 153.7 102.8 154.5C102.8 154.5 105 160 110.5 164.1C110.8 164.3 111 164.5 111.3 164.6C115 159.2 115.5 150.5 115.9 144.2C116.2 137.9 116.8 134.1 116.9 133.2C117.1 132.3 117.4 131 117.9 130.1C118.2 129.5 119.2 128 120.1 126.8C120.7 125.9 121.3 125.2 121.5 124.8C122.1 123.9 122.4 123.1 122.4 123.1C122.4 123.1 124 120.5 124.1 120.3C124.2 120.1 124.2 119.4 124 118.9C123.8 118.4 122.5 118 122.3 118.2C122.2 118.3 122 118.5 121.8 118.8C121.2 119.5 120.5 120.5 120.5 120.5C120.5 120.5 120.5 120.5 120.5 120.1C120.5 119.7 121.6 117 121.6 117C121.6 117 121.6 116.8 121.7 116.6C121.7 116.2 121.6 115.5 121.1 115.2C120.3 114.7 119.4 115.1 119.4 115.1C119.4 115.1 119.4 115.1 119.4 115C119.4 114.7 119.5 114 119.4 113.5C119.2 112.9 117.8 112.6 117.5 112.8C117.1 113 116.7 113.9 116.2 115L114.5 118.5Z" fill="#F6C9C8" stroke="#1A1D23" stroke-miterlimit="10" stroke-linecap="round" stroke-linejoin="round"/>
<path d="M85.5 130.5C90.5 133.5 98 143.8 98 143.8L104 150L108.9 135.2L118 137C118 137 117 167 111 170C105 173 94 164 94 164C92 163.7 81.4 153.2 79.5 149.5" fill="#E07777"/>
<path d="M85.5 130.5C90.5 133.5 98 143.8 98 143.8L104 150L108.9 135.2L118 137C118 137 117 167 111 170C105 173 94 164 94 164C92 163.7 81.4 153.2 79.5 149.5" stroke="#1A1D23" stroke-miterlimit="10"/>
<path d="M56 108.1C58.2 114.9 57.5 117.7 57.1 118.8C56.7 119.9 55.4 120.6 53.2 121.3C51 122 50.4 122 50.7 122.7C51.1 123.4 53.6 125.3 62.2 126.3C70.8 127.3 74.7 126.6 74.7 126.6C74.7 126.6 74.1 123.2 73.9 119.3C73.7 115.5 74.1 114 74.7 113.7C75.3 113.3 79.2 114.4 80.4 113.6C81.6 112.8 81.8 105.5 81.8 103.2C81.8 100.9 81.3 95.9001 81.2 94.3001C81.1 92.7001 80.2 87.2 77.6 86.2C74.9 85.2 64.6 91.5 62.4 94.2C60.3 96.9 56 108.1 56 108.1Z" fill="#F6C9C8" stroke="#1A1D23" stroke-miterlimit="10" stroke-linecap="round" stroke-linejoin="round"/>
<path d="M44.9998 104.4C43.7998 119 41.2998 122.8 41.2998 122.8C25.4998 159.1 68.4998 154.5 66.4998 153.5C57.9998 149.3 60.4998 140.5 60.4998 140.5C62.8998 151.4 85.4998 148.5 85.4998 148.5C74.5998 138.8 71.4998 109.5 71.4998 109.5C71.4998 109.5 70.4998 100.5 72.4998 98.5C73.4998 97.5 74.9998 97.6 75.4998 97.7C76.6998 97.9 77.4998 101.5 77.4998 101.5L79.4998 97.5C79.8998 95.8 82.3998 93.6 81.4998 86.5C80.5998 79.4 69.4998 77.5 69.4998 77.5C69.4998 77.5 61.3998 76.3 54.4998 81.5C54.4998 81.5 46.4998 86.2 44.9998 104.4Z" fill="#BC6F51" stroke="#1A1D23" stroke-miterlimit="10"/>
<path d="M48.5 119.5C48.5 119.5 39.7 140.5 52.1 152.5" stroke="#1A1D23" stroke-miterlimit="10" stroke-linecap="round" stroke-linejoin="round"/>
<path d="M52.4996 129.5C52.4996 129.5 49.6996 146.6 59.0996 153.6" stroke="#1A1D23" stroke-miterlimit="10" stroke-linecap="round" stroke-linejoin="round"/>
<path d="M119.5 114.5L117.5 119.5" stroke="#1A1D23" stroke-miterlimit="10" stroke-linecap="round" stroke-linejoin="round"/>
<path d="M75.5 99.5C75.5 99.5 73.5 99.5 73.5 102.5" stroke="#1A1D23" stroke-miterlimit="10" stroke-linecap="round" stroke-linejoin="round"/>
<path d="M74 100.8C74 100.8 75.5 101.5 75.5 102.5L74 100.8Z" fill="#FFC197"/>
<path d="M74 100.8C74 100.8 75.5 101.5 75.5 102.5" stroke="#1A1D23" stroke-miterlimit="10" stroke-linecap="round" stroke-linejoin="round"/>
<defs>
<clipPath id="clip0_5304_19267">
<rect width="55.1" height="44.3" fill="white" transform="translate(150 47)"/>
</clipPath>
</defs>
</svg>
