<?xml version="1.0" encoding="utf-8"?>
<!-- Generator: Adobe Illustrator 16.0.0, SVG Export Plug-In . SVG Version: 6.00 Build 0)  -->
<!DOCTYPE svg PUBLIC "-//W3C//DTD SVG 1.1//EN" "http://www.w3.org/Graphics/SVG/1.1/DTD/svg11.dtd">
<svg version="1.1" id="Layer_1" xmlns="http://www.w3.org/2000/svg" xmlns:xlink="http://www.w3.org/1999/xlink" x="0px" y="0px"
	 width="128px" height="128px" viewBox="0 0 128 128" enable-background="new 0 0 128 128" xml:space="preserve">
<path display="none" fill="none" stroke="#B9B9BA" stroke-width="4" stroke-linecap="round" d="M12.338,94.576
	c0,0,15.323-11.592,30.974-10.021c6.571,0.66,10.673,4.586,13.424,7.596c6.471,7.085,21.485-0.331,26.586,7.794
	c1.669,2.661-1.309,6.273-7.073,6.941c-4.518,0.524-5.828-1.243-22.001,0c-5.816,0.447-9.954-3.209-9.954-3.209"/>
<path display="none" fill="none" stroke="#B9B9BA" stroke-width="4" d="M93.929,86.521L93.929,86.521
	c-3.087-3.203-7.945-3.927-11.832-1.761l-19.14,10.668"/>
<path display="none" fill="none" stroke="#B9B9BA" stroke-width="4" d="M105.585,90.189L105.585,90.189
	c-3.067-4.311-8.998-5.413-13.411-2.494l-13.369,8.844"/>
<path display="none" fill="none" stroke="#B9B9BA" stroke-width="4" stroke-linecap="round" d="M23.471,119.787L23.471,119.787
	c6.586-4.647,15.177-5.353,22.433-1.844l10.505,5.082c7.345,3.553,16.021,2.961,22.816-1.557l34.372-22.854
	c2.749-1.829,3.508-5.531,1.7-8.293l0,0c-1.806-2.758-5.496-3.546-8.271-1.765L81.03,105.25"/>
<path display="none" fill="none" stroke="#B9B9BA" stroke-width="4" d="M45.797,50.438l16.35-9.974
	c0.379-0.231,0.859-0.225,1.231,0.019l16.159,10.561c0.717,0.467,0.692,1.523-0.044,1.957L63.4,62.517
	c-0.368,0.218-0.828,0.213-1.191-0.01L45.793,52.406C45.06,51.955,45.062,50.888,45.797,50.438z"/>
<path display="none" fill="none" stroke="#B9B9BA" stroke-width="4" stroke-linecap="round" d="M44.981,70.331l16.44,11.818
	c0.815,0.586,1.916,0.578,2.722-0.021l15.902-11.798"/>
<path display="none" fill="none" stroke="#B9B9BA" stroke-width="4" stroke-linecap="round" d="M44.981,51.415v18.916"/>
<path display="none" fill="none" stroke="#B9B9BA" stroke-width="4" stroke-linecap="round" d="M44.981,51.415v18.916"/>
<path display="none" fill="none" stroke="#B9B9BA" stroke-width="4" stroke-linecap="round" d="M80.045,52.107v18.109"/>
<path display="none" fill="none" stroke="#B9B9BA" stroke-width="4" stroke-linecap="round" d="M80.045,52.107v18.109"/>
<path display="none" fill="none" stroke="#B9B9BA" stroke-width="4" stroke-linecap="round" d="M62.744,62.718v18.916"/>
<path display="none" fill="none" stroke="#B9B9BA" stroke-width="4" stroke-linecap="round" d="M62.744,62.718v18.916"/>
<path display="none" fill="none" stroke="#B9B9BA" stroke-width="4" d="M45.797,13.991l16.35-9.975
	c0.379-0.232,0.859-0.224,1.231,0.019l16.159,10.56c0.717,0.467,0.692,1.524-0.044,1.958L63.4,26.069
	c-0.368,0.218-0.828,0.214-1.191-0.01L45.793,15.958C45.06,15.507,45.062,14.44,45.797,13.991z"/>
<path display="none" fill="none" stroke="#B9B9BA" stroke-width="4" stroke-linecap="round" d="M44.981,14.967v7.381"/>
<path display="none" fill="none" stroke="#B9B9BA" stroke-width="4" stroke-linecap="round" d="M44.981,14.967v7.381"/>
<path display="none" fill="none" stroke="#B9B9BA" stroke-width="4" stroke-linecap="round" d="M80.274,14.967v7.612"/>
<path display="none" fill="none" stroke="#B9B9BA" stroke-width="4" stroke-linecap="round" d="M80.274,14.967v7.612"/>
<path display="none" fill="none" stroke="#B9B9BA" stroke-width="4" stroke-linecap="round" d="M62.744,26.271v8.073"/>
<path display="none" fill="none" stroke="#B9B9BA" stroke-width="4" stroke-linecap="round" d="M62.744,26.271v8.073"/>
<path display="none" fill="none" stroke="#B9B9BA" stroke-width="4" d="M16.27,32.906l16.349-9.974
	c0.38-0.232,0.859-0.225,1.232,0.019l16.16,10.56c0.716,0.467,0.692,1.523-0.044,1.958l-16.094,9.515
	c-0.368,0.218-0.827,0.214-1.191-0.01L16.267,34.874C15.533,34.423,15.535,33.356,16.27,32.906z"/>
<path display="none" fill="none" stroke="#B9B9BA" stroke-width="4" stroke-linecap="round" d="M15.454,52.799l17.763,11.648"/>
<path display="none" fill="none" stroke="#B9B9BA" stroke-width="4" stroke-linecap="round" d="M15.454,33.883v18.916"/>
<path display="none" fill="none" stroke="#B9B9BA" stroke-width="4" stroke-linecap="round" d="M15.454,33.883v18.916"/>
<path display="none" fill="none" stroke="#B9B9BA" stroke-width="4" stroke-linecap="round" d="M33.217,45.186v18.917"/>
<path display="none" fill="none" stroke="#B9B9BA" stroke-width="4" stroke-linecap="round" d="M33.217,45.186v18.917"/>
<path fill="#F48121" d="M57.208,51.72L57.208,51.72c0-0.71,0.575-1.285,1.285-1.285h8.271c0.71,0,1.285,0.575,1.285,1.285l0,0
	c0,0.709-0.575,1.285-1.285,1.285h-8.271C57.783,53.005,57.208,52.43,57.208,51.72z"/>
<path fill="#F48121" d="M62.668,57.182L62.668,57.182c-0.709,0-1.285-0.576-1.285-1.285v-8.272c0-0.709,0.575-1.286,1.285-1.286l0,0
	c0.709,0,1.285,0.576,1.285,1.286v8.272C63.954,56.606,63.378,57.182,62.668,57.182z"/>
<path fill="#F48121" d="M27.68,33.958L27.68,33.958c0-0.709,0.575-1.285,1.285-1.285h8.272c0.71,0,1.285,0.575,1.285,1.285l0,0
	c0,0.709-0.575,1.285-1.285,1.285h-8.272C28.255,35.243,27.68,34.667,27.68,33.958z"/>
<path fill="#F48121" d="M33.142,39.419L33.142,39.419c-0.709,0-1.285-0.576-1.285-1.285v-8.272c0-0.709,0.575-1.284,1.285-1.284l0,0
	c0.709,0,1.285,0.575,1.285,1.284v8.272C34.427,38.844,33.851,39.419,33.142,39.419z"/>
<path fill="#F48121" d="M57.208,14.811L57.208,14.811c0-0.709,0.575-1.285,1.285-1.285h8.271c0.71,0,1.285,0.575,1.285,1.285l0,0
	c0,0.71-0.575,1.286-1.285,1.286h-8.271C57.783,16.097,57.208,15.521,57.208,14.811z"/>
<path fill="#F48121" d="M62.668,20.273L62.668,20.273c-0.709,0-1.285-0.576-1.285-1.285v-8.271c0-0.71,0.575-1.285,1.285-1.285l0,0
	c0.709,0,1.285,0.575,1.285,1.285v8.271C63.954,19.697,63.378,20.273,62.668,20.273z"/>
<path fill="#F48121" d="M75.177,35.625c-1.467-0.902-1.462-3.037,0.008-3.934l16.329-9.962c0.771-0.47,1.743-0.447,2.491,0.057
	l16.08,10.841c1.414,0.953,1.341,3.058-0.136,3.91l-15.98,9.229c-0.734,0.425-1.641,0.412-2.363-0.032L75.177,35.625z"/>
<path fill="#F48121" d="M93.857,49.46c0.016-0.392,0.232-0.748,0.572-0.946l15.395-8.958c0.788-0.459,1.771,0.135,1.733,1.046
	L111,53.705c-0.017,0.397-0.237,0.757-0.582,0.954l-15.41,8.757c-0.788,0.449-1.763-0.147-1.723-1.053L93.857,49.46z"/>
<path fill="#F48121" d="M90.979,48.945c0.014-0.401-0.18-0.78-0.513-1.002L74.802,37.5c-0.767-0.511-1.793,0.039-1.793,0.96v3.478
	c0,0.374,0.18,0.724,0.484,0.94l8.926,6.348c0.608,0.433,0.97,1.133,0.97,1.879v7.876c0,0.389,0.196,0.75,0.521,0.964l4.804,3.15
	c0.751,0.492,1.753-0.025,1.785-0.923L90.979,48.945z"/>
</svg>
