<?xml version="1.0" encoding="utf-8"?>
<!-- Generator: Adobe Illustrator 16.0.0, SVG Export Plug-In . SVG Version: 6.00 Build 0)  -->
<!DOCTYPE svg PUBLIC "-//W3C//DTD SVG 1.1//EN" "http://www.w3.org/Graphics/SVG/1.1/DTD/svg11.dtd">
<svg version="1.1" id="Layer_1" xmlns="http://www.w3.org/2000/svg" xmlns:xlink="http://www.w3.org/1999/xlink" x="0px" y="0px"
	 width="512px" height="512px" viewBox="0 0 512 512" enable-background="new 0 0 512 512" xml:space="preserve">
<circle fill="#F7F7F7" cx="190.8" cy="102.603" r="86.162"/>
<circle fill="#EFEFEF" cx="190.799" cy="102.603" r="69.143"/>
<circle fill="#FFFFFF" cx="190.798" cy="102.603" r="49.678"/>
<path display="none" fill="none" stroke="#F28121" stroke-width="4" stroke-linecap="round" d="M180.162,93.127l21.275,20.308
	l-10.98,11.507V80.265l10.98,12.862l-21.275,20.308"/>
<path fill="#111111" d="M366.027,206.122h93.464c16.133,0,29.207,13.076,29.207,29.208v221.976
	c0,16.134-13.074,29.209-29.207,29.209h-93.464c-16.133,0-29.208-13.075-29.208-29.209V235.33
	C336.819,219.198,349.895,206.122,366.027,206.122z"/>
<path fill="#111111" d="M208.307,358.001h251.185c16.133,0,29.207,13.075,29.207,29.207v70.098
	c0,16.134-13.074,29.209-29.207,29.209H208.307c-16.131,0-29.208-13.075-29.208-29.209v-70.098
	C179.099,371.076,192.175,358.001,208.307,358.001z"/>
<path fill="#484747" d="M208.307,404.732h251.185c16.133,0,29.207,13.075,29.207,29.208v23.365
	c0,16.134-13.074,29.209-29.207,29.209H208.307c-16.131,0-29.208-13.075-29.208-29.209V433.94
	C179.099,417.808,192.175,404.732,208.307,404.732z"/>
<path fill="#4A4848" d="M465.332,206.122L465.332,206.122c12.905,0,23.366,10.46,23.366,23.366v233.66
	c0,12.904-10.461,23.366-23.366,23.366l0,0c-12.904,0-23.365-10.462-23.365-23.366v-233.66
	C441.967,216.583,452.428,206.122,465.332,206.122z"/>
<path fill="#6C6D6D" d="M366.027,317.11h93.464c16.133,0,29.207,13.075,29.207,29.207v113.909c0,16.134-13.074,29.209-29.207,29.209
	h-93.464c-16.133,0-29.208-13.075-29.208-29.209V346.317C336.819,330.186,349.895,317.11,366.027,317.11z"/>
<path fill="#EFEEEE" d="M138.208,413.494l18.985,13.145l-16.064,27.746c0,0-10.488,10.416-16.064,5.842
	c-4.065-3.337-1.46-14.604-1.46-14.604L138.208,413.494z"/>
<path fill="#AB4C9D" d="M103.16,457.306c4.062-2.156,6.363-3.342,10.223-5.841c4.788-3.097,11.683-8.762,11.683-8.762v4.381
	c0,0,0.28,3.017,1.46,4.381c1.902,2.201,4.396,1.366,7.302,1.461c3.467,0.11,8.763-1.461,8.763-1.461s0.236,7.125,0,11.684
	c-0.269,5.157-1.461,13.143-1.461,13.143s-17.806,0.333-29.208,0c-10.277-0.302-16.332,1.112-26.287-1.46
	c-3.492-0.901-8.762-2.921-8.762-2.921s4.289-3.78,7.302-5.841C90.914,461.457,95.946,461.134,103.16,457.306z"/>
<path fill="#010101" d="M76.873,471.91c0,0,7.056,2.083,11.683,2.921c6.757,1.225,10.658,1.46,17.525,1.46
	c14.604,0,35.049,0,35.049,0s0.566,1.932,0,2.92c-0.633,1.107-2.921,1.461-2.921,1.461s-33.588,1.461-51.112,0
	c-4.329-0.359-10.223-4.381-10.223-4.381V471.91z"/>
<path fill="#EFEEEE" d="M228.752,444.162l23.366-1.459v42.35h-16.064L228.752,444.162z"/>
<path fill="#AB4C9D" d="M192.243,496.736c3.958-3.218,11.683-5.842,11.683-5.842s10.873-4.979,17.524-8.762
	c2.891-1.644,4.77-2.225,7.302-4.382c1.228-1.043,2.92-2.92,2.92-2.92v-4.382l1.46-1.461l2.921,2.922l7.301,5.841
	c0,0,1.748-0.958,2.921-1.46c1.657-0.711,2.596-1.714,4.381-1.46c1.261,0.183,2.921,1.46,2.921,1.46s1.227,8.876,1.46,14.604
	c0.163,3.99,0,10.223,0,10.223h-67.177C187.862,501.117,190.364,498.26,192.243,496.736z"/>
<path fill="#010101" d="M187.862,501.117h67.177v2.921c0,1.612-1.307,2.921-2.92,2.921h-61.336c-1.612,0-2.92-1.309-2.92-2.921
	V501.117z"/>
<path fill="#A4A4A4" d="M152.813,328.794v90.543c0,3.225-2.616,5.841-5.841,5.841l0,0c-3.227,0-5.842-2.616-5.842-5.841v-90.543
	c0-3.227,2.615-5.843,5.842-5.843l0,0C150.197,322.951,152.813,325.567,152.813,328.794z"/>
<path fill="#625C5C" d="M184.94,320.031c0,0,8.7-4.15,14.604-5.842c9.385-2.687,24.826-2.92,24.826-2.92l27.747-2.922
	c0,0,18.808-3.229,30.668-1.461c18.163,2.705,32.858,4.725,42.351,20.446c5.722,9.481,7.508,16.8,5.841,27.747
	c-4.726,31.056-49.388-9.854-80.32-4.382c-17.052,3.019-42.351,13.145-42.351,13.145s-10.335,17.136-17.525,27.747
	c-9.149,13.503-24.826,33.588-24.826,33.588l-30.668-18.983c0,0,15.796-32.672,27.747-52.575
	C171.096,340.191,184.94,320.031,184.94,320.031z"/>
<path fill="#757575" d="M206.847,352.159c0.003-13.143,2.37-20.349,5.84-23.365c3.676-3.198,7.062-2.833,11.683-4.382
	c11.673-3.91,18.477-5.579,30.669-7.302c12.435-1.757,19.598-2.356,32.128-1.46c20.006,1.432,49.649,13.144,49.649,13.144
	l1.461,23.365h5.841v20.446c0,0-34.828,0.911-56.951-1.461c-11.472-1.229-29.208-4.381-29.208-4.381
	c-0.57,8.557-0.893,13.349-1.46,21.904c-0.57,8.558,0,43.812,0,43.812l-40.892,1.461
	C215.607,433.94,206.842,365.302,206.847,352.159z"/>
<path fill="#7E7E7E" d="M25.949,318.11h171.155c4.573,0,8.282,3.925,8.282,8.762l0,0c0,4.838-3.708,8.763-8.282,8.763H25.949
	c-4.574,0-8.282-3.925-8.282-8.763l0,0C17.667,322.035,21.375,318.11,25.949,318.11z"/>
<path fill="#383938" d="M355.805,317.11L355.805,317.11c10.484,0,18.984,8.5,18.984,18.984v134.354
	c0,10.485-8.5,18.986-18.984,18.986l0,0c-10.485,0-18.985-8.501-18.985-18.986V336.095
	C336.819,325.61,345.319,317.11,355.805,317.11z"/>
<path display="none" fill="#F48220" d="M300.484,324.172c1.998-0.496,5.813-1.328,7.969-2.078c3.196-1.112,3.984-1.203,6.781-2.297
	c3.4-1.33,3.188-1.328,5.081-2.137c4.143-1.916,2.852-1.25,6.268-2.958c2.448-1.109,6.167-3.375,6.167-3.375
	s12.879-8.479,15.729-11.332c4.381-4.381,5.211-4.799,7.521-7.195c1.777-1.707,2.461-1.875,4.896-4.824
	c1.03-1.244,2.752-2.468,3.667-3.795c1.188-1.164,3.05-3.342,3.05-3.342l2.052,6.924c0,0,0.469,2.009,1.253,3.016
	c0.497,0.636,0.939,0.97,1.576,1.467c0.925,0.53,2.138,0.826,2.138,0.826s-0.156,4.464-1.306,6.516
	c-0.575,0.507-5.93,3.735-10.223,5.841c-5.434,2.427-8.353,2.656-13.635,4.267c-5.351,1.874-10.381,5.341-10.381,5.341
	s-8.399,6.069-12.491,9.377c-1.115,1.588-4.261,7.317-4.261,7.317s-7.29,0.652-11.803-0.016c-5.351-0.793-17.111-6.229-17.111-6.229
	S298.038,324.779,300.484,324.172z"/>
<path display="none" fill="#F48220" d="M285.707,247.013c0,0,0.059-2.233,1.46-7.302c1.44-5.216,1.632-8.483,4.381-13.144
	c1.854-3.146,3.121-4.867,5.841-7.301c3.43-3.065,5.888-4.319,10.224-5.842c2.219-0.778,5.842-1.46,5.842-1.46l21.904-2.921
	l16.065-1.46c0,0,9.007-1.098,14.604,0c4.78,0.937,7.642,1.66,11.683,4.381c3.343,2.251,4.677,4.24,7.303,7.302
	c4.84,5.646,10.331,13.43,10.331,14.891c0,0-3.652,0.974-6.072,2.977c-1.79,1.282-1.608,1.008-4.275,2.761
	c-1.273,0.838-3.076,2.02-4.418,2.887c-1.519,0.981-2.834,1.818-4.329,2.771c-1.947,1.241-3.856,2.43-5.531,3.482
	c-1.705,1.073-3.399,2.193-4.54,2.906c-1.467,0.913-4.428,2.403-4.833,5.06c-0.349,2.283,2.013,9.483,2.013,9.483l3.636,12.266
	c0,0-2.981,3.373-5.293,5.626c-9.254,9.026-19.867,19.056-24.763,21.982c-8.375,5.518-6.906,4.611-16.622,9.174
	c-4.284,1.906-7.347,3.531-15.961,5.719c-2.876,0.934-12.709,2.5-12.709,2.5s-2.106-2.116-7.399-6.64
	c-4.29-3.668-10.223-10.224-10.223-10.224s7.655-2.709,11.684-5.841c2.547-1.979,5.841-5.842,5.841-5.842s0.62-5.64,1.46-7.301
	c1.477-2.919,0.824-6.214,0.824-6.214c-1.004-4.752-0.937-6.928-0.937-6.928c-0.51-3.431-0.973-7.1-1.806-10.469
	c-1.73-5.787-1.891-5.858-3.09-9.543C286.939,251.869,285.707,247.013,285.707,247.013z"/>
<path fill="#A96D4C" d="M374.789,292.284l26.288-13.145c0,0,1.294,7.491,1.459,16.064c0.063,3.421,1.204,11.398,0,14.604
	c-2.419,6.452-9.549,5.061-16.063,7.302c-7.194,2.476-11.544,2.795-18.985,4.381c-5.688,1.213-8.88,1.894-14.604,2.921
	c-3.414,0.61-8.762,1.46-8.762,1.46s-1.044,2.624-1.46,4.381c-1.044,4.444,1.626,7.419,0,11.684c-0.451,1.192-1.46,2.921-1.46,2.921
	v4.381c0,0,4.381,0.183,4.381,1.46c0,1.278-1.461,2.921-1.461,2.921s-1.46,1.461-7.302,1.461c-3.827,0-16.064-7.302-16.064-7.302
	s-0.989-7.229,0-11.684c1.106-4.979,5.842-11.683,5.842-11.683s10.855-9.238,18.985-13.143c6.503-3.121,11.004-2.756,17.524-5.842
	c4.155-1.968,10.223-5.841,10.223-5.841L374.789,292.284z"/>
<path fill="#A96D4C" d="M339.74,160.851c1.461,21.905-16.064,32.128-26.286,35.049c-12.101,0-20.446-21.186-20.446-36.51
	c0-15.324,0-27.747,24.827-26.287C336.819,131.643,339.74,145.526,339.74,160.851z"/>
<path fill="#A96D4C" d="M317.835,187.137l18.984-26.286c0,0,0-2.921,2.921-4.381c1.443-0.722,5.562,0.898,7.302,4.381
	c1.911,3.82,0,5.841-1.46,8.762c-1.142,2.282-2.434,2.921-2.921,4.381c-1.46,4.381,0,13.143,1.46,21.906
	c0.885,5.306,7.303,11.683,7.303,11.683s-4.223,5.629-8.763,7.301c-3.747,1.381-10.223,1.46-10.223,1.46s-1.764,18.313-5.842,29.208
	c-2.681,7.165-8.762,17.524-8.762,17.524s3.583-16.475,4.381-26.287c0.695-8.525,0-17.523-1.461-20.445
	c-1.711-3.421-7.301-4.381-7.301-4.381s1.659-0.854,2.92-2.921c0.89-1.46,2.921-4.729,2.921-8.762
	C319.295,194.439,317.835,187.137,317.835,187.137z"/>
<path fill="#3F3232" d="M298.854,128.722c2.295-3.316-0.246-6.569,1.459-10.223c1.207-2.584,1.954-4.346,4.382-5.841
	c2-1.233,3.488-1.519,5.842-1.461c3.068,0.078,5.116,0.763,7.302,2.921c1.813,1.791,2.449,3.334,2.92,5.842v4.381
	c0,0,0.665-1.925,1.461-2.921c1.591-1.991,3.334-2.45,5.842-2.92c1.683-0.315,2.689-0.267,4.381,0
	c1.783,0.281,2.746,0.696,4.381,1.46c3.306,1.548,5.53,2.646,7.302,5.841c1.406,2.544,1.909,4.43,1.461,7.302
	c-0.394,2.52-2.921,5.841-2.921,5.841s4.561,0.492,7.302,1.461c2.404,0.849,3.796,1.396,5.841,2.921
	c2.927,2.183,4.345,3.97,5.843,7.301c1.65,3.68,2.381,6.298,1.46,10.223c-0.585,2.483-0.904,4.282-2.922,5.841
	c-1.861,1.436-3.979,0.023-5.841,1.46c-2.017,1.559-3.805,3.448-2.92,5.842c0.712,1.929,3.257,1.198,4.38,2.921
	c1.558,2.389,1.582,4.929,0,7.302c-1.416,2.121-3.302,2.681-5.841,2.92c-2.342,0.222-3.957-0.057-5.842-1.46
	c-1.651-1.228-2.61-3.512-2.923-5.842c-0.383-2.826,1.463-7.301,1.463-7.301s2.364-3.352,2.918-5.842
	c0.493-2.227,1.135-3.861,0.003-5.841c-1.265-2.216-3.312-3.237-5.845-2.921c-2.042,0.255-4.382,2.921-4.382,2.921
	s-0.489-2.86-1.459-4.381c-0.868-1.361-1.512-2.138-2.922-2.921c-2.492-1.384-4.455-0.212-7.302,0
	c-3.456,0.258-5.316,1.891-8.762,1.46c-3.046-0.382-4.78-1.168-7.302-2.92c-4.422-3.071-7.303-11.683-7.303-11.683
	s-2.78,3.481-4.381,5.841c-1.864,2.752-2.921,7.302-2.921,7.302s-5.978,2.299-8.759,0c-2.564-2.119-3.956-4.003-4.381-7.302
	c-0.46-3.577,0.704-5.916,2.92-8.762c1.75-2.25,3.24-3.211,5.842-4.381c2.65-1.192,7.302-1.46,7.302-1.46
	S297.935,130.048,298.854,128.722z"/>
<g>
	<path display="none" fill="none" stroke="#F48220" stroke-width="5" stroke-linecap="round" d="M63.489,222.455
		c7.446-12.078,23.61-17.524,42.351-17.524s34.905,5.446,42.351,17.524"/>
	<path fill="none" stroke="#E8E8E8" stroke-width="5" stroke-linecap="round" d="M72.251,229.757
		c5.906-6.901,18.725-11.683,33.588-11.683c14.864,0,27.683,4.782,33.588,11.683"/>
	<path fill="none" stroke="#F7F7F7" stroke-width="5" stroke-linecap="round" d="M80.625,238.519
		c5.522-5.294,14.757-8.762,25.214-8.762c10.458,0,19.693,3.468,25.214,8.762"/>
	<path fill="none" stroke="#F4F4F4" stroke-width="5" stroke-linecap="round" d="M89.776,247.282
		c2.824-3.451,8.957-5.841,16.064-5.841c7.108,0,13.241,2.39,16.064,5.841"/>
</g>
<path fill="none" stroke="#010101" stroke-width="4" d="M179.099,291.861c11.651,0,14.604,5.526,26.287,17.21
	c11.682,11.683,26.29,16.243,52.573,16.801c29.074,0.62,47.573-0.524,73.019-14.603c18.705-10.349,40.789-36.508,40.789-36.508"/>
<circle fill="none" stroke="#423832" cx="317.835" cy="166.692" r="8.762"/>
<circle fill="none" stroke="#423832" cx="294.47" cy="166.692" r="8.762"/>
<line fill="none" stroke="#423832" x1="301.771" y1="166.692" x2="310.533" y2="166.692"/>
<line fill="none" stroke="#423832" stroke-linecap="round" x1="325.952" y1="163.333" x2="337.84" y2="158.577"/>
<path fill="none" stroke="#913F1F" stroke-width="0.5" stroke-linecap="round" d="M306.152,169.612l-1.461,7.302l5.842-1.461"/>
<path fill="none" stroke="#913F1F" stroke-width="0.5" stroke-linecap="round" d="M305.262,181.897c0,0,0.891,2.319,3.811,2.319
	c2.921,0,7.302-4.382,7.302-4.382"/>
<path fill="none" stroke="#913F1F" stroke-width="0.5" stroke-linecap="round" d="M325.14,349.238c0,0-2.921-7.302,0-7.302"/>
<path fill="none" stroke="#913F1F" stroke-width="0.5" stroke-linecap="round" d="M329.82,350.728c0,0-2.922-7.302,0-7.302"/>
<path fill="none" stroke="#913F1F" stroke-width="0.5" stroke-linecap="round" d="M335.661,353.648c0,0-2.92-7.302,0-7.302"/>
<path fill="#3D3C3C" d="M252.118,188.598c0,0-0.18-0.92,0-1.461c0.256-0.766,1.46-1.46,1.46-1.46h11.354c0,0,1.467-0.322,3.249,1.46
	c1.142,1.141,2.922,5.842,2.922,5.842l5.84,13.144l7.303,13.144c0,0,1.461,2.92-1.46,4.381c-2.921,1.459-4.382,1.459-4.382,1.459
	l-14.604-14.603L252.118,188.598z"/>
<path fill="#A96D4C" d="M266.722,216.344c-1.56-4.053-5.591-6.051-4.381-10.222c0.575-1.974,1.739-2.697,2.92-4.381
	c0,0,2.431-3.764,4.381-5.841c0.555-0.588,0.771-1.046,1.462-1.461c1.468-0.88,2.669,0,4.381,0c1.14,0,1.934-0.566,2.92,0
	c1.107,0.633,1.712,1.67,1.461,2.92c-0.354,1.769-2.722,0.75-4.381,1.46c-1.17,0.502-2.02,0.56-2.922,1.461
	c-0.901,0.901-1.276,1.658-1.459,2.92c-0.08,0.565,0,1.461,0,1.461s1.809,0.248,2.92,0c1.247-0.277,1.78-0.89,2.92-1.461
	c1.143-0.57,1.713-1.864,2.922-1.459c1.209,0.403,1.187,1.675,1.46,2.92c0.248,1.113-0.245,1.806,0,2.921
	c0.279,1.245,1.127,1.69,1.461,2.92c0.451,1.651,0.675,2.808,0,4.381c-0.634,1.483-2.285,1.438-2.921,2.921
	c-0.673,1.573-0.058,2.671,0,4.381c0.156,4.595,0.479,7.19,1.46,11.683c1.155,5.285,2.798,7.969,4.382,13.144
	c1.215,3.97,1.908,6.303,3.141,10.268c1.287,3.48,1.856,5.211,2.7,8.717c0.946,3.919,1.158,6.201,1.46,10.224
	c0.346,4.548,2.043,7.603,0,11.683c-1.443,2.886-2.676,5.208-5.841,5.841c-4.033,0.807-5.979-2.812-8.763-5.841
	c-4.153-4.524-4.324-8.651-5.842-14.604c-2.116-8.305-1.175-13.337-1.459-21.905c-0.283-8.552,1.677-13.517,0-21.905
	C270.042,224.183,268.667,221.393,266.722,216.344z"/>
<path fill="#945B39" d="M342.664,172.534c0,0-9.444,21.567-18.988,23.366c-2.801,0.527-4.381-4.382-4.381-4.382s1.457,0,5.842-1.459
	C329.519,188.598,342.664,172.534,342.664,172.534z"/>
<path fill="#7D7D7D" d="M361.432,259.984c-0.739-2.493,0.259-5.174,2.456-6.578l25.693-16.447c3.443-2.2,8.021-0.286,8.865,3.708
	l7.468,35.193c0.581,2.75-0.874,5.522-3.472,6.605l-24.573,10.24c-3.205,1.335-6.862-0.405-7.846-3.734L361.432,259.984z"/>
<path fill="#515151" d="M367.256,258.278c-0.735-2.373,0.108-4.954,2.108-6.428l22.38-16.544c3.559-2.629,8.63-0.507,9.259,3.872
	l5.355,37.519c0.337,2.358-0.794,4.687-2.855,5.882l-17.997,10.419c-3.244,1.876-7.391,0.257-8.506-3.326L367.256,258.278z"/>
<path fill="#B0B0B0" d="M127.996,409.827c2.385-4.373,7.93-5.882,12.199-3.32l21.723,13.035c3.926,2.355,5.376,7.339,3.33,11.432
	l-0.777,1.559c-2.329,4.654-8.177,6.266-12.562,3.458l-21.423-13.71c-3.876-2.479-5.173-7.537-2.969-11.577L127.996,409.827z"/>
<path fill="#B0B0B0" d="M211.066,435.076c0.554-4.364,4.261-7.645,8.663-7.662l32.327-0.108c5.151-0.017,9.205,4.392,8.756,9.524
	l-0.233,2.703c-0.4,4.607-4.307,8.109-8.928,8.005l-32.327-0.74c-5.197-0.113-9.147-4.703-8.494-9.856L211.066,435.076z"/>
<circle display="none" fill="none" stroke="#F28121" stroke-width="10" cx="190.798" cy="102.603" r="49.678"/>
<path fill="#C4C4C4" d="M178.654,284.982c1.613,0,2.92,1.306,2.92,2.921v8.762c0,1.612-1.307,2.922-2.92,2.922h-2.921v-14.604
	H178.654z"/>
<g>
	<path fill="#697884" d="M82.172,281.795c-1.148-11.152,8.633-19.645,19.843-19.645l0,0c11.863,0,21.859,9.439,20.479,21.221
		c-0.322,2.753-0.762,5.428-1.363,7.785c-1.255,4.936-3.729,9.047-5.998,12.018c-2.81,3.674-7.386,5.244-12.015,5.244l0,0
		c-5.429,0-10.701-2.189-13.667-6.736c-1.851-2.838-3.846-6.437-5.331-10.525C83.119,288.398,82.515,285.127,82.172,281.795z"/>
	<path fill="#E4E4E4" d="M88.878,281.844c-1.735-7.459,5.383-13.287,13.042-13.287l0,0c8.216,0,15.523,6.617,13.621,14.61
		c-0.121,0.503-0.252,0.989-0.398,1.454c-0.804,2.561-2.344,4.719-3.813,6.333c-2.133,2.346-5.316,3.226-8.486,3.226l0,0
		c-3.789,0-7.535-1.291-9.848-4.291c-1.139-1.472-2.31-3.263-3.209-5.268C89.405,283.77,89.108,282.829,88.878,281.844z"/>
	<path fill="#010101" d="M99.736,275.252l-1.648,1.668H94.98l-1.648-1.668H99.736z M99.736,286.35h-6.404l1.648-1.647h3.107
		L99.736,286.35z M93.015,279.867v-4.297l1.648,1.649v2.235l-1.029,1.046L93.015,279.867z M100.038,281.737v4.297l-1.648-1.647
		v-2.238l1.03-1.029L100.038,281.737z M98.294,279.979l0.824,0.822l-0.824,0.824h-3.52l-0.824-0.824l0.824-0.822H98.294z"/>
	<path fill="#010101" d="M101.711,286.35v-1.647h1.651v1.647H101.711z"/>
	<path fill="#010101" d="M111.743,275.252l-1.648,1.668h-3.107l-1.648-1.668H111.743z M111.743,286.35h-6.404l1.648-1.647h3.107
		L111.743,286.35z M106.668,282.148v2.238l-1.648,1.647v-4.297l0.62-0.618L106.668,282.148z M105.02,279.867v-4.297l1.648,1.649
		v2.235l-1.029,1.046L105.02,279.867z M112.044,281.737v4.297l-1.648-1.647v-2.238l1.029-1.029L112.044,281.737z M110.396,279.455
		v-2.235l1.648-1.649v4.297l-0.62,0.634L110.396,279.455z M110.299,279.979l0.826,0.822l-0.826,0.824h-3.52l-0.824-0.824
		l0.824-0.822H110.299z"/>
	<path fill="#FFFFFF" d="M102.591,296.317L102.591,296.317c1.475,0,2.67,1.196,2.67,2.669l0,0c0,1.473-1.196,2.669-2.67,2.669l0,0
		c-1.473,0-2.667-1.196-2.667-2.669l0,0C99.924,297.514,101.118,296.317,102.591,296.317z"/>
	<path fill="#FFFFFF" d="M110.715,297.612c1.058,0.61,1.058,2.136,0,2.747l-0.313,0.181c-1.058,0.61-2.379-0.151-2.379-1.374v-0.361
		c0-1.221,1.321-1.982,2.379-1.373L110.715,297.612z"/>
	<path fill="#FFFFFF" d="M94.474,300.359c-1.058-0.611-1.058-2.137,0-2.747l0.313-0.181c1.058-0.612,2.38,0.152,2.38,1.373v0.361
		c0,1.223-1.322,1.984-2.38,1.374L94.474,300.359z"/>
	<ellipse fill="#2E2E2E" cx="102.396" cy="305.773" rx="4.759" ry="0.793"/>
	<path fill="#F0EFEF" d="M99.924,305.57h5.338V315c0,1.476-1.196,2.67-2.669,2.67l0,0c-1.473,0-2.669-1.194-2.669-2.67V305.57z"/>
	<path fill="#F15D45" d="M102.594,312.688L102.594,312.688c0.688,0,1.246,0.559,1.246,1.246v0.711c0,0.688-0.558,1.247-1.246,1.247
		l0,0c-0.688,0-1.246-0.56-1.246-1.247v-0.711C101.349,313.246,101.907,312.688,102.594,312.688z"/>
</g>
<path fill="#808C96" fill-opacity="0.4" d="M140.954,256.076h25.513c4.938,0,8.942,4.002,8.942,8.941v44.054
	c0,4.939-4.005,8.941-8.942,8.941h-25.513c-4.939,0-8.942-4.002-8.942-8.941v-44.054
	C132.012,260.078,136.015,256.076,140.954,256.076z"/>
<path fill="#D3D3D3" d="M138.98,256.076h25.513c4.938,0,8.942,4.002,8.942,8.941v44.054c0,4.939-4.005,8.941-8.942,8.941H138.98
	c-4.938,0-8.941-4.002-8.941-8.941v-44.054C130.039,260.078,134.042,256.076,138.98,256.076z"/>
<path fill="#697884" d="M138.98,256.076h25.513c4.938,0,8.942,4.002,8.942,8.941v40.503c0,4.938-4.005,8.942-8.942,8.942H138.98
	c-4.938,0-8.941-4.005-8.941-8.942v-40.503C130.039,260.078,134.042,256.076,138.98,256.076z"/>
<path fill="#E4E4E4" d="M147.923,298.341h7.154c0.988,0,1.788,0.801,1.788,1.788v7.153c0,0.989-0.8,1.789-1.788,1.789h-7.154
	c-0.989,0-1.789-0.8-1.789-1.789v-7.153C146.134,299.142,146.934,298.341,147.923,298.341z"/>
<path fill="#E4E4E4" d="M141.111,264.754h21.646c1.975,0,3.576,1.603,3.576,3.577v23.223c0,1.978-1.601,3.577-3.576,3.577h-21.646
	c-1.975,0-3.576-1.6-3.576-3.577v-23.223C137.535,266.356,139.136,264.754,141.111,264.754z"/>
<path fill="#010101" d="M150.754,272.775v2.818l-1.081-1.084v-1.465l0.678-0.678L150.754,272.775z M149.673,271.277v-1.466
	l1.081-1.084v2.818l-0.403,0.418L149.673,271.277z"/>
<path fill="#010101" d="M156.856,268.521l-1.082,1.09h-2.038l-1.081-1.09H156.856z M156.856,275.801h-4.2l1.081-1.081h2.038
	L156.856,275.801z M153.527,273.045v1.465l-1.081,1.084v-2.818l0.405-0.408L153.527,273.045z M155.972,271.277v-1.466l1.081-1.084
	v2.818l-0.405,0.418L155.972,271.277z M155.91,271.619l0.539,0.541l-0.539,0.542h-2.309l-0.542-0.542l0.542-0.541H155.91z"/>
<path fill="#010101" d="M162.677,268.521l-1.083,1.09h-2.038l-1.081-1.09H162.677z M162.677,275.801h-4.202l1.081-1.081h2.038
	L162.677,275.801z M159.349,273.045v1.465l-1.082,1.084v-2.818l0.407-0.408L159.349,273.045z M158.267,271.546v-2.818l1.082,1.084
	v1.466l-0.675,0.687L158.267,271.546z M162.876,272.775v2.818l-1.083-1.084v-1.465l0.676-0.678L162.876,272.775z M161.793,271.277
	v-1.466l1.083-1.084v2.818l-0.407,0.418L161.793,271.277z"/>
<path fill="#010101" d="M158.299,278.564l-0.821,0.827h-1.546l-0.821-0.827H158.299z M158.299,284.087h-3.188l0.821-0.821h1.546
	L158.299,284.087z M155.775,281.993v1.116l-0.821,0.819v-2.139l0.308-0.309L155.775,281.993z M154.954,280.858v-2.138l0.821,0.821
	v1.11l-0.513,0.521L154.954,280.858z M158.451,281.79v2.139l-0.823-0.819v-1.116l0.514-0.512L158.451,281.79z M157.628,280.652
	v-1.11l0.823-0.821v2.138l-0.309,0.315L157.628,280.652z M157.581,280.915l0.411,0.408l-0.411,0.41h-1.751l-0.41-0.41l0.41-0.408
	H157.581z"/>
<path fill="#010101" d="M162.716,278.564l-0.821,0.827h-1.545l-0.823-0.827H162.716z M162.716,284.087h-3.189l0.823-0.821h1.545
	L162.716,284.087z M160.19,281.993v1.116l-0.821,0.819v-2.139l0.309-0.309L160.19,281.993z M159.369,280.858v-2.138l0.821,0.821
	v1.11l-0.512,0.521L159.369,280.858z M162.866,281.79v2.139l-0.821-0.819v-1.116l0.514-0.512L162.866,281.79z M162.045,280.652
	v-1.11l0.821-0.821v2.138l-0.307,0.315L162.045,280.652z"/>
<path fill="#010101" d="M159.63,287.96l-0.596,0.603h-1.125l-0.597-0.603H159.63z M159.74,290.305v1.557l-0.597-0.598v-0.809
	l0.373-0.372L159.74,290.305z M159.143,289.479v-0.809l0.597-0.598v1.556l-0.224,0.229L159.143,289.479z"/>
<path fill="#010101" d="M162.841,287.96l-0.597,0.603h-1.125l-0.595-0.603H162.841z M162.841,291.977h-2.317l0.595-0.597h1.125
	L162.841,291.977z M161.004,290.455v0.809l-0.594,0.598v-1.557l0.224-0.222L161.004,290.455z M162.353,289.479v-0.809l0.597-0.598
	v1.556l-0.224,0.229L162.353,289.479z M162.319,289.669l0.299,0.299l-0.299,0.298h-1.273l-0.299-0.298l0.299-0.299H162.319z"/>
<line fill="none" stroke="#E61E25" stroke-linecap="round" x1="141.192" y1="268.409" x2="141.192" y2="271.751"/>
<line fill="none" stroke="#ED2224" stroke-linecap="round" x1="141.192" y1="274.724" x2="141.192" y2="278.062"/>
<line fill="none" stroke="#FEE600" stroke-linecap="round" x1="141.192" y1="280.643" x2="141.192" y2="283.979"/>
<line fill="none" stroke="#51B848" stroke-linecap="round" x1="141.192" y1="286.951" x2="141.192" y2="290.293"/>
<path fill="#010101" d="M152.342,288.032c-0.241,0.021-0.47,0.119-0.646,0.291c-0.105,0.099-0.175,0.193-0.238,0.321
	c-0.092,0.186-0.121,0.335-0.113,0.602c0.003,0.161,0.012,0.242,0.04,0.355c0.06,0.239,0.176,0.461,0.384,0.736
	c0.257,0.342,0.664,0.749,1.191,1.195c0.209,0.177,0.543,0.443,0.552,0.443c0.01,0,0.342-0.267,0.552-0.443
	c0.578-0.488,1.004-0.922,1.261-1.285c0.201-0.286,0.311-0.542,0.344-0.795c0.012-0.093,0.018-0.324,0.009-0.416
	c-0.022-0.271-0.143-0.518-0.342-0.711c-0.19-0.184-0.417-0.278-0.685-0.294c-0.25-0.013-0.503,0.074-0.73,0.254
	c-0.136,0.107-0.297,0.285-0.381,0.423l-0.026,0.039l-0.043-0.062c-0.157-0.237-0.374-0.436-0.594-0.545
	C152.703,288.056,152.527,288.02,152.342,288.032z"/>
<path fill="#989798" d="M151.354,300.146c-0.106,0.025-0.167,0.058-0.267,0.144c-0.057,0.051-0.1,0.105-0.128,0.161l-0.045,0.088
	v1.519v1.519l0.04,0.076c0.22,0.434,0.869,0.434,1.089,0l0.04-0.076v-1.519v-1.519l-0.045-0.088
	c-0.047-0.096-0.175-0.22-0.274-0.265C151.643,300.129,151.495,300.115,151.354,300.146z M149.585,301.244
	c-0.241,0.044-0.737,0.458-1.046,0.878c-0.335,0.455-0.548,0.994-0.606,1.538c-0.021,0.207-0.01,0.633,0.024,0.825
	c0.032,0.188,0.101,0.437,0.168,0.604c0.077,0.194,0.276,0.562,0.395,0.727c0.563,0.78,1.446,1.293,2.48,1.442
	c0.125,0.018,0.262,0.024,0.5,0.024c0.435,0,0.702-0.037,1.09-0.153c0.777-0.229,1.443-0.694,1.89-1.313
	c0.119-0.165,0.317-0.532,0.395-0.727c0.066-0.167,0.136-0.416,0.167-0.604c0.033-0.192,0.045-0.618,0.024-0.825
	c-0.068-0.637-0.339-1.25-0.779-1.756c-0.213-0.241-0.594-0.557-0.767-0.626c-0.288-0.118-0.619,0-0.767,0.274
	c-0.045,0.084-0.049,0.104-0.047,0.224c0,0.197,0.037,0.271,0.194,0.406c0.44,0.381,0.587,0.544,0.737,0.821
	c0.173,0.321,0.244,0.602,0.244,0.96c0,0.392-0.073,0.685-0.259,1.018c-0.296,0.532-0.761,0.9-1.378,1.091
	c-0.277,0.086-0.417,0.104-0.746,0.104c-0.328,0-0.468-0.019-0.746-0.104c-0.627-0.193-1.099-0.573-1.399-1.13
	c-0.164-0.3-0.237-0.607-0.237-0.974c0-0.454,0.133-0.85,0.414-1.23c0.094-0.129,0.344-0.372,0.547-0.53
	c0.167-0.136,0.234-0.276,0.218-0.473C150.27,301.409,149.94,301.181,149.585,301.244z"/>
<g>
	<path fill="#D3D3D3" d="M55.07,274.902h17.449c2.627,0,4.759,2.132,4.759,4.76v33.312c0,2.627-2.131,4.759-4.759,4.759H55.07
		c-2.627,0-4.759-2.132-4.759-4.759v-33.312C50.311,277.034,52.443,274.902,55.07,274.902z"/>
	<path fill="#697884" d="M53.484,274.902h17.449c2.627,0,4.759,2.132,4.759,4.76v33.312c0,2.627-2.131,4.759-4.759,4.759H53.484
		c-2.627,0-4.759-2.132-4.759-4.759v-33.312C48.725,277.034,50.856,274.902,53.484,274.902z"/>
	<path fill="#E4E4E4" d="M59.829,306.629h4.759c0.876,0,1.586,0.709,1.586,1.586v4.759c0,0.876-0.709,1.586-1.586,1.586h-4.759
		c-0.876,0-1.586-0.71-1.586-1.586v-4.759C58.243,307.338,58.952,306.629,59.829,306.629z"/>
	<path fill="#989798" d="M62.112,308.226c-0.071,0.017-0.112,0.038-0.177,0.095c-0.037,0.033-0.068,0.07-0.086,0.107l-0.03,0.06
		v1.011v1.01l0.026,0.049c0.149,0.29,0.576,0.29,0.725,0l0.026-0.049v-1.01v-1.011l-0.029-0.06
		c-0.033-0.063-0.118-0.145-0.183-0.176C62.304,308.215,62.204,308.205,62.112,308.226z M60.937,308.957
		c-0.163,0.029-0.491,0.305-0.699,0.584c-0.222,0.301-0.362,0.66-0.401,1.021c-0.015,0.137-0.006,0.422,0.014,0.551
		c0.021,0.125,0.068,0.288,0.113,0.4c0.051,0.131,0.184,0.373,0.262,0.482c0.375,0.52,0.963,0.861,1.649,0.961
		c0.085,0.012,0.175,0.017,0.333,0.017c0.288,0,0.468-0.024,0.725-0.103c0.518-0.153,0.96-0.461,1.258-0.875
		c0.078-0.109,0.211-0.352,0.262-0.482c0.045-0.112,0.091-0.275,0.113-0.4c0.02-0.129,0.029-0.414,0.014-0.551
		c-0.045-0.422-0.225-0.831-0.519-1.168c-0.14-0.16-0.394-0.368-0.508-0.414c-0.192-0.081-0.412,0-0.511,0.182
		c-0.029,0.055-0.031,0.068-0.031,0.149c0,0.13,0.025,0.18,0.128,0.27c0.296,0.254,0.391,0.36,0.491,0.547
		c0.115,0.212,0.163,0.399,0.163,0.64c0,0.26-0.049,0.452-0.172,0.676c-0.198,0.354-0.508,0.6-0.917,0.725
		c-0.186,0.056-0.276,0.071-0.496,0.071c-0.22,0-0.31-0.016-0.496-0.071c-0.418-0.129-0.731-0.381-0.929-0.75
		c-0.11-0.201-0.16-0.406-0.16-0.65c0-0.303,0.088-0.564,0.274-0.818c0.063-0.085,0.229-0.248,0.365-0.353
		c0.112-0.09,0.155-0.183,0.144-0.313C61.39,309.066,61.17,308.915,60.937,308.957z"/>
	<path fill="#E4E4E4" d="M56.656,281.248H67.76c1.752,0,3.172,1.42,3.172,3.172v15.863c0,1.752-1.42,3.173-3.172,3.173H56.656
		c-1.752,0-3.172-1.421-3.172-3.173V284.42C53.484,282.668,54.904,281.248,56.656,281.248z"/>
	<path fill="#010101" d="M60.681,286.007l-0.987,0.951h-1.86l-0.987-0.951H60.681z M60.681,292.352h-3.834l0.987-0.941h1.86
		L60.681,292.352z M56.656,288.645v-2.457l0.987,0.943v1.277l-0.618,0.598L56.656,288.645z M60.86,289.714v2.456l-0.985-0.943
		v-1.275l0.616-0.591L60.86,289.714z M59.875,288.408v-1.277l0.985-0.943v2.457l-0.369,0.361L59.875,288.408z M59.818,288.709
		l0.494,0.471l-0.494,0.471h-2.108l-0.492-0.471l0.492-0.471H59.818z"/>
	<path fill="#010101" d="M65.994,286.007l-0.988,0.951h-1.86l-0.987-0.951H65.994z M65.994,292.352h-3.835l0.987-0.941h1.86
		L65.994,292.352z M62.955,289.951v1.275l-0.985,0.943v-2.456l0.369-0.354L62.955,289.951z M61.97,288.645v-2.457l0.985,0.943v1.277
		l-0.617,0.598L61.97,288.645z M66.174,289.714v2.456l-0.987-0.943v-1.275l0.618-0.591L66.174,289.714z M65.187,288.408v-1.277
		l0.987-0.943v2.457l-0.369,0.361L65.187,288.408z M65.13,288.709l0.493,0.471l-0.493,0.471h-2.107l-0.494-0.471l0.494-0.471H65.13z
		"/>
	<path fill="#010101" d="M64.024,295.524l-0.672,0.714h-1.266l-0.671-0.714H64.024z M64.148,298.305v1.842l-0.672-0.706v-0.958
		l0.418-0.442L64.148,298.305z M63.476,297.326v-0.959l0.672-0.707v1.842l-0.254,0.273L63.476,297.326z"/>
	<path fill="#010101" d="M67.638,295.524l-0.672,0.714H65.7l-0.672-0.714H67.638z M67.638,300.283h-2.61l0.672-0.707h1.266
		L67.638,300.283z M64.9,297.502v-1.842l0.671,0.707v0.959l-0.42,0.449L64.9,297.502z M67.76,298.305v1.842l-0.671-0.706v-0.958
		l0.418-0.442L67.76,298.305z M67.049,297.551l0.336,0.354l-0.336,0.353h-1.433l-0.334-0.353l0.334-0.354H67.049z"/>
	<path fill="#010101" d="M57.388,297.112c-0.177,0.016-0.344,0.098-0.473,0.231c-0.079,0.083-0.128,0.157-0.175,0.26
		c-0.068,0.152-0.088,0.27-0.083,0.484c0.003,0.132,0.009,0.195,0.031,0.285c0.043,0.193,0.127,0.372,0.279,0.594
		c0.189,0.273,0.486,0.601,0.874,0.961c0.152,0.142,0.395,0.355,0.403,0.355s0.251-0.214,0.403-0.355
		c0.424-0.395,0.732-0.741,0.921-1.034c0.147-0.23,0.228-0.435,0.252-0.64c0.009-0.074,0.013-0.26,0.006-0.333
		c-0.019-0.218-0.105-0.417-0.251-0.571c-0.139-0.146-0.307-0.227-0.502-0.237c-0.181-0.011-0.365,0.061-0.533,0.204
		c-0.099,0.086-0.217,0.229-0.279,0.34l-0.017,0.032l-0.033-0.052c-0.114-0.189-0.275-0.35-0.434-0.436
		C57.651,297.133,57.522,297.102,57.388,297.112z"/>
</g>
</svg>
