<?xml version="1.0" encoding="utf-8"?>
<!-- Generator: Adobe Illustrator 16.0.0, SVG Export Plug-In . SVG Version: 6.00 Build 0)  -->
<!DOCTYPE svg PUBLIC "-//W3C//DTD SVG 1.1//EN" "http://www.w3.org/Graphics/SVG/1.1/DTD/svg11.dtd">
<svg version="1.1" id="Layer_1" xmlns="http://www.w3.org/2000/svg" xmlns:xlink="http://www.w3.org/1999/xlink" x="0px" y="0px"
	 width="128px" height="128px" viewBox="0 0 128 128" enable-background="new 0 0 128 128" xml:space="preserve">
<path fill="none" stroke="#B9B9BA" stroke-width="4" d="M68.715,5.409l5.92,4.589c1.711,1.325,3.794,2.084,5.955,2.168l7.485,0.289
	c3.68,0.143,6.797,2.758,7.575,6.357l1.585,7.32c0.458,2.115,1.566,4.034,3.168,5.489l5.55,5.033
	c2.727,2.475,3.433,6.481,1.716,9.738l-3.491,6.628c-1.01,1.915-1.393,4.095-1.102,6.241l1.016,7.421
	c0.498,3.65-1.535,7.172-4.944,8.565l-6.936,2.832c-2.003,0.817-3.7,2.242-4.854,4.073l-3.993,6.337
	c-1.964,3.115-5.786,4.506-9.292,3.382l-7.134-2.288c-2.062-0.66-4.277-0.66-6.339,0l-7.133,2.288
	c-3.506,1.124-7.328-0.267-9.292-3.382l-3.995-6.337c-1.153-1.831-2.851-3.256-4.854-4.073l-6.935-2.832
	c-3.408-1.394-5.443-4.915-4.944-8.565l1.014-7.421c0.293-2.146-0.091-4.326-1.1-6.241l-3.491-6.628
	c-1.717-3.257-1.01-7.263,1.716-9.738l5.548-5.033c1.603-1.455,2.711-3.374,3.168-5.489l1.585-7.32
	c0.78-3.599,3.896-6.214,7.575-6.357l7.486-0.289c2.163-0.084,4.245-0.843,5.956-2.168l5.92-4.589
	C61.734,3.153,65.803,3.153,68.715,5.409z"/>
<circle fill="#B9B9BA" cx="43.824" cy="26.172" r="1.844"/>
<path fill="none" stroke="#B9B9BA" stroke-width="4" stroke-linecap="round" d="M39.162,80.588l-18.764,32.646
	c-0.508,0.882,0.298,1.944,1.286,1.69l11.004-2.813c0.613-0.153,1.237,0.211,1.4,0.823l2.821,10.637
	c0.264,0.997,1.603,1.172,2.115,0.278l19.211-33.577"/>
<path fill="none" stroke="#B9B9BA" stroke-width="4" stroke-linecap="round" d="M69.766,90.502l19.963,32.555
	c0.544,0.888,1.893,0.657,2.11-0.362l2.242-10.551c0.132-0.62,0.741-1.019,1.364-0.889l11.248,2.341
	c1.007,0.211,1.765-0.903,1.197-1.761L87.98,81.623"/>
<path display="none" fill="none" stroke="#F48121" stroke-width="4" stroke-linecap="round" d="M51.257,22.036
	c3.837-1.784,8.116-2.781,12.626-2.781c16.557,0,29.976,13.42,29.976,29.974c0,16.554-13.419,29.975-29.976,29.975
	c-16.554,0-29.974-13.421-29.974-29.975c0-5.803,1.649-11.22,4.504-15.81"/>
<path display="none" fill="#F48121" d="M55.425,50.722c-1.51,0-2.91-0.377-4.196-1.132c-1.287-0.756-2.308-1.777-3.064-3.064
	c-0.755-1.287-1.132-2.672-1.132-4.154c0-1.483,0.377-2.868,1.132-4.155c0.756-1.288,1.777-2.308,3.064-3.064
	c1.287-0.783,2.686-1.175,4.196-1.175c1.483,0,2.868,0.393,4.155,1.175c1.286,0.756,2.308,1.776,3.063,3.064
	c0.756,1.287,1.134,2.672,1.134,4.155c0,1.482-0.378,2.867-1.134,4.154c-0.755,1.287-1.776,2.308-3.063,3.064
	C58.32,50.344,56.936,50.722,55.425,50.722z M52.907,66.753c-0.615,0-1.133-0.211-1.552-0.63c-0.392-0.422-0.587-0.923-0.587-1.513
	c0-0.587,0.167-1.062,0.503-1.424l22.075-28.368c0.504-0.561,1.077-0.841,1.721-0.841c0.614,0,1.133,0.21,1.553,0.631
	c0.42,0.418,0.63,0.922,0.63,1.51c0,0.475-0.154,0.908-0.463,1.301L54.502,66.08C54.083,66.528,53.551,66.753,52.907,66.753z
	 M55.425,46.441c1.12,0,2.07-0.391,2.854-1.174c0.811-0.812,1.216-1.777,1.216-2.896c0-1.119-0.405-2.085-1.216-2.896
	c-0.812-0.811-1.763-1.216-2.854-1.216c-1.147,0-2.126,0.406-2.937,1.216c-0.783,0.811-1.175,1.777-1.175,2.896
	c0,1.118,0.392,2.083,1.175,2.896C53.299,46.051,54.278,46.441,55.425,46.441z M72.465,66.753c-1.512,0-2.91-0.379-4.197-1.134
	c-1.26-0.756-2.267-1.764-3.022-3.022c-0.756-1.286-1.133-2.684-1.133-4.196c0-1.51,0.377-2.895,1.133-4.154
	c0.756-1.287,1.763-2.308,3.022-3.063c1.287-0.755,2.686-1.133,4.197-1.133c1.482,0,2.867,0.377,4.154,1.133
	c1.286,0.728,2.308,1.735,3.063,3.021c0.783,1.288,1.175,2.686,1.175,4.196c0,1.512-0.377,2.91-1.134,4.196
	c-0.754,1.259-1.775,2.267-3.062,3.022C75.374,66.374,73.975,66.753,72.465,66.753z M72.465,62.471c1.118,0,2.083-0.392,2.895-1.174
	c0.813-0.812,1.218-1.777,1.218-2.897c0-1.118-0.405-2.07-1.218-2.853c-0.812-0.811-1.776-1.216-2.895-1.216
	c-1.119,0-2.085,0.406-2.896,1.216c-0.783,0.782-1.176,1.734-1.176,2.853c0,1.12,0.393,2.085,1.176,2.897
	C70.38,62.079,71.346,62.471,72.465,62.471z"/>
</svg>
