<?xml version="1.0" encoding="utf-8"?>
<!-- Generator: Adobe Illustrator 16.0.0, SVG Export Plug-In . SVG Version: 6.00 Build 0)  -->
<!DOCTYPE svg PUBLIC "-//W3C//DTD SVG 1.1//EN" "http://www.w3.org/Graphics/SVG/1.1/DTD/svg11.dtd">
<svg version="1.1" id="Layer_1" xmlns="http://www.w3.org/2000/svg" xmlns:xlink="http://www.w3.org/1999/xlink" x="0px" y="0px"
	 width="128px" height="128px" viewBox="0 0 128 128" enable-background="new 0 0 128 128" xml:space="preserve">
<path fill="none" stroke="#B9B9BA" stroke-width="4" d="M114.426,71.325v-5.878c0-6.86-5.555-12.415-12.414-12.415l0,0
	c-6.854,0-12.415,5.555-12.415,12.415V92.03c0,9.07-4.659,17.504-12.343,22.327l-1.225,0.772
	c-17.74,11.137-40.624-2.553-39.199-23.448l0,0"/>
<path fill="none" stroke="#B9B9BA" stroke-width="4" d="M44.328,85.675c-0.216,3.743-3.423,6.601-7.164,6.385
	c-3.741-0.215-6.6-3.422-6.383-7.164"/>
<path fill="none" stroke="#B9B9BA" stroke-width="4" d="M16.82,19.758C9.325,26.466,3.25,37.405,3.25,48.256
	c0,20.236,16.403,36.64,36.64,36.64c20.234,0,36.641-16.403,36.641-36.64c0-10.851-6.075-21.79-13.57-28.498"/>
<path display="none" fill="none" stroke="#F48121" stroke-width="4" stroke-linecap="round" d="M113.17,95.752
	c-6.745,0-12.214-5.468-12.214-12.213c0-6.746,5.469-12.214,12.214-12.214c6.746,0,12.213,5.468,12.213,12.214"/>
<path display="none" fill="#F48121" d="M14.106,16.498c0,3.609,2.926,6.534,6.535,6.534c3.608,0,7.036-7.639,4.323-10.354
	C22.25,9.964,14.106,12.89,14.106,16.498z"/>
<path display="none" fill="#F48121" d="M65.674,16.26c0,3.431-2.682,6.212-5.995,6.212c-3.309,0-6.455-7.265-3.966-9.845
	C58.205,10.045,65.674,12.827,65.674,16.26z"/>
<circle display="none" fill="#F48121" cx="113.17" cy="83.539" r="6.786"/>
</svg>
