<?xml version="1.0" encoding="utf-8"?>
<!-- Generator: Adobe Illustrator 16.0.0, SVG Export Plug-In . SVG Version: 6.00 Build 0)  -->
<!DOCTYPE svg PUBLIC "-//W3C//DTD SVG 1.1//EN" "http://www.w3.org/Graphics/SVG/1.1/DTD/svg11.dtd">
<svg version="1.1" id="Layer_1" xmlns="http://www.w3.org/2000/svg" xmlns:xlink="http://www.w3.org/1999/xlink" x="0px" y="0px"
	 width="128px" height="128px" viewBox="0 0 128 128" enable-background="new 0 0 128 128" xml:space="preserve">
<circle display="none" fill="none" stroke="#B9B9BA" stroke-width="4" cx="60.898" cy="15.416" r="12.083"/>
<path display="none" fill="none" stroke="#B9B9BA" stroke-width="4" stroke-linecap="round" d="M45.793,57.708v15.646
	c0,3.514-3.362,6.048-6.74,5.087l0,0c-2.269-0.649-3.833-2.727-3.833-5.087V55.122c0-14.617,11.481-26.66,26.083-27.354l0,0
	c3.718-0.177,7.464,0.348,10.792,2.012c3.484,1.74,7.596,4.261,8.437,6.782"/>
<line display="none" fill="none" stroke="#B9B9BA" stroke-width="4" stroke-linecap="round" x1="45.793" y1="87.915" x2="45.793" y2="124.166"/>
<line display="none" fill="none" stroke="#B9B9BA" stroke-width="4" stroke-linecap="round" x1="60.898" y1="92.5" x2="60.898" y2="124.166"/>
<line display="none" fill="none" stroke="#B9B9BA" stroke-width="4" stroke-linecap="round" x1="76.002" y1="92.5" x2="76.002" y2="124.166"/>
<path fill="none" stroke="#F48121" stroke-width="4" stroke-linecap="round" d="M92.615,53.176L79.158,68.28l-7.688-8.391"/>
<path fill="none" stroke="#F48121" stroke-width="4" d="M78.067,37.785c1.281-0.655,2.799-0.661,4.087-0.018l15.076,7.539
	c1.533,0.767,2.504,2.336,2.504,4.053v6.409c0,7.611-3.023,14.912-8.405,20.292l-7.982,7.982c-1.78,1.783-4.679,1.768-6.439-0.031
	l-7.814-7.977c-5.253-5.363-8.195-12.575-8.195-20.083v-6.627c0-1.702,0.953-3.262,2.47-4.035L78.067,37.785z"/>
</svg>
