<?xml version="1.0" encoding="utf-8"?>
<!-- Generator: Adobe Illustrator 16.0.0, SVG Export Plug-In . SVG Version: 6.00 Build 0)  -->
<!DOCTYPE svg PUBLIC "-//W3C//DTD SVG 1.1//EN" "http://www.w3.org/Graphics/SVG/1.1/DTD/svg11.dtd">
<svg version="1.1" id="Layer_1" xmlns="http://www.w3.org/2000/svg" xmlns:xlink="http://www.w3.org/1999/xlink" x="0px" y="0px"
	 width="128px" height="128px" viewBox="0 0 128 128" enable-background="new 0 0 128 128" xml:space="preserve">
<path fill="none" stroke="#B9B9BA" stroke-width="4" stroke-linecap="round" d="M8.231,84.233c0,0,17.251-1.18,27.729,1.631
	c8.809,2.363,12.457,7.205,21.205,9.785c11.188,3.305,27.272,2.982,37.067,2.369c4.403-0.279,8.138,3.461,7.646,7.848l0,0
	c-0.381,3.471-3.315,6.096-6.807,6.096H58.796"/>
<path fill="none" stroke="#B9B9BA" stroke-width="4" stroke-linecap="round" d="M102.831,102.173l15.209-9.693
	c3.407-2.168,4.399-6.686,2.228-10.09l0,0c-2.212-3.459-6.844-4.414-10.242-2.113L84.892,97.282"/>
<path fill="none" stroke="#B9B9BA" stroke-width="4" stroke-linecap="round" d="M104.467,82.601L104.467,82.601
	c-2.04-2.414-5.563-2.92-8.201-1.178L71.774,97.585"/>
<path fill="none" stroke="#B9B9BA" stroke-width="4" stroke-linecap="round" d="M91.418,84.233L91.418,84.233
	c-2.804-2.822-7.238-3.199-10.478-0.887L63.688,95.649"/>
<path fill="none" stroke="#B9B9BA" stroke-width="4" stroke-linecap="round" d="M6.601,110.329c0,0,3.262,0,13.049,0
	c11.125,0,13.049,9.787,29.359,13.051c19.19,3.84,35.883-11.418,35.883-11.418"/>
<path display="none" fill="none" stroke="#F48121" stroke-width="4" d="M83.232,47.061L83.232,47.061
	c2.399,4.372,0.801,9.856-3.569,12.252L54.771,72.968c-4.37,2.395-9.858,0.797-12.255-3.574l0,0
	c-2.396-4.371-0.797-9.857,3.574-12.255l24.887-13.65C75.349,41.088,80.834,42.691,83.232,47.061z"/>
<path display="none" fill="none" stroke="#F48121" stroke-width="4" d="M58.796,49.979l8.365,15.023"/>
<circle display="none" fill="none" stroke="#F48121" stroke-width="4" cx="34.413" cy="22.251" r="16.311"/>
<line display="none" fill="#5D5D5D" stroke="#F48121" stroke-width="4" stroke-linecap="round" x1="34.329" y1="18.989" x2="34.329" y2="32.038"/>
<circle display="none" fill="none" stroke="#F48121" stroke-width="4" cx="34.272" cy="13.859" r="0.214"/>
<path display="none" fill="none" stroke="#F48121" stroke-width="4" stroke-linecap="round" d="M97.941,40.193
	c15.056-6.241,19.573-18.932,19.573-24.963c0-6.031-4.719-10.921-10.538-10.921c-5.822,0-9.035,4.89-9.035,10.921"/>
<path display="none" fill="none" stroke="#F48121" stroke-width="4" stroke-linecap="round" d="M97.941,15.23
	c0-6.031-3.211-10.921-9.034-10.921c-5.82,0-10.539,4.89-10.539,10.921c0,6.031,4.519,17.163,19.573,24.963"/>
<path display="none" fill="none" stroke="#F48121" stroke-width="4" stroke-linecap="round" d="M80.999,23.251h7.953
	c0.127,0,0.237-0.071,0.291-0.181l2.861-5.715c0.122-0.249,0.478-0.237,0.591,0.018l4.363,10.184
	c0.105,0.244,0.443,0.269,0.579,0.039l4.26-7.097c0.135-0.222,0.459-0.209,0.574,0.022l1.273,2.549
	c0.054,0.11,0.167,0.181,0.294,0.181h3.688"/>
</svg>
