<?xml version="1.0" encoding="utf-8"?>
<!-- Generator: Adobe Illustrator 16.0.0, SVG Export Plug-In . SVG Version: 6.00 Build 0)  -->
<!DOCTYPE svg PUBLIC "-//W3C//DTD SVG 1.1//EN" "http://www.w3.org/Graphics/SVG/1.1/DTD/svg11.dtd">
<svg version="1.1" id="Layer_1" xmlns="http://www.w3.org/2000/svg" xmlns:xlink="http://www.w3.org/1999/xlink" x="0px" y="0px"
	 width="512px" height="512px" viewBox="0 0 512 512" enable-background="new 0 0 512 512" xml:space="preserve">
<path fill="#F7F7F7" d="M451.225,265.131c0,96.354-78.102,174.467-174.444,174.467c-96.344,0-201.283,5.99-251.977-105.875
	C0.947,265.131-0.544,208.486,53.132,174.189c36.132-23.087,64.113-22.362,86.478-41.752c34.292-29.732,5.964-79.032,76.04-104.382
	C451.225-34.572,451.225,218.618,451.225,265.131z"/>
<line fill="none" stroke="#D7D6D6" stroke-width="8" stroke-linecap="round" x1="372.914" y1="246.179" x2="372.914" y2="273.817"/>
<line fill="none" stroke="#D7D6D6" stroke-width="8" stroke-linecap="round" x1="359.095" y1="259.998" x2="386.733" y2="259.998"/>
<line fill="none" stroke="#D7D6D6" stroke-width="8" stroke-linecap="round" x1="197.867" y1="20.459" x2="197.867" y2="48.099"/>
<line fill="none" stroke="#D7D6D6" stroke-width="8" stroke-linecap="round" x1="184.047" y1="34.279" x2="211.687" y2="34.279"/>
<line fill="none" stroke="#D7D6D6" stroke-width="8" stroke-linecap="round" x1="202.473" y1="384.374" x2="202.473" y2="412.013"/>
<line fill="none" stroke="#D7D6D6" stroke-width="8" stroke-linecap="round" x1="188.654" y1="398.193" x2="216.293" y2="398.193"/>
<circle fill="none" stroke="#D7D6D6" stroke-width="8" cx="346.427" cy="63.07" r="10.365"/>
<circle fill="none" stroke="#D7D6D6" stroke-width="8" cx="97.675" cy="408.558" r="10.365"/>
<rect x="221.16" y="261.33" fill="#2DA9E1" width="42.044" height="43.793"/>
<path fill="none" stroke="#F4C217" stroke-width="8" stroke-linecap="round" d="M326.265,124.535c0,0,41.418-3.592,41.649,0
	c4.986,77.232-39.155,77.233-39.155,77.233"/>
<path fill="none" stroke="#F8DE01" stroke-width="8" stroke-linecap="round" d="M161.599,124.535c0,0-41.418-3.592-41.65,0
	c-4.987,77.232,39.156,77.233,39.156,77.233"/>
<path fill="#F4C217" d="M156.345,118.926c0-20.037,16.242-36.279,36.278-36.279h102.619c20.037,0,36.281,16.242,36.281,36.279
	v63.572c0,48.374-39.217,87.587-87.589,87.587l0,0c-48.374,0-87.589-39.214-87.589-87.587V118.926z"/>
<path fill="#F8DE01" d="M156.345,117.231c0-19.1,15.484-34.584,34.583-34.584h97.251c19.101,0,34.585,15.484,34.585,34.584v60.888
	c0,45.955-37.255,83.209-83.211,83.209l0,0c-45.955,0-83.208-37.254-83.208-83.209V117.231z"/>
<path fill="#FBE854" d="M156.422,175.072c0-51.045,41.38-92.425,92.425-92.425l0,0h1.463c0,0,10.546,36.687-12.742,74.705
	c-23.289,38.019-57.417,37.871-81.146,37.279c-0.172-0.004,0-0.444,0-0.444V175.072z"/>
<line fill="none" stroke="#F8DD01" stroke-width="10" stroke-linecap="round" x1="223.918" y1="285.396" x2="260.446" y2="285.396"/>
<path fill="#C29B2E" d="M216.781,305.123h54.304c14.029,0,25.401,11.372,25.401,25.401l0,0c0,14.028-11.372,25.4-25.401,25.4
	h-54.304c-14.028,0-25.401-11.372-25.401-25.4l0,0C191.38,316.495,202.752,305.123,216.781,305.123z"/>
<path fill="#E3CD1F" d="M214.153,305.123h49.051c12.575,0,22.771,10.196,22.771,22.773l0,0c0,12.576-10.196,22.774-22.771,22.774
	h-49.051c-12.577,0-22.773-10.198-22.773-22.774l0,0C191.38,315.319,201.576,305.123,214.153,305.123z"/>
<path fill="#F4C217" d="M182.62,324.393h122.622c8.71,0,15.768,7.059,15.768,15.766l0,0c0,8.709-7.058,15.767-15.768,15.767H182.62
	c-8.708,0-15.766-7.058-15.766-15.767l0,0C166.854,331.451,173.912,324.393,182.62,324.393z"/>
<path fill="#F8DE01" d="M179.992,324.393h119.122c7.254,0,13.138,5.882,13.138,13.138l0,0c0,7.257-5.884,13.141-13.138,13.141
	H179.992c-7.256,0-13.138-5.884-13.138-13.141l0,0C166.854,330.274,172.736,324.393,179.992,324.393z"/>
<path fill="#FEF6A6" d="M242.187,138.704l12.313,25.208l26.222,3.262l-18.979,18.684l4.202,28.172l-23.757-13.048L218.72,214.03
	l4.925-28.172l-18.251-18.684l25.784-3.262L242.187,138.704z"/>
<ellipse fill="none" stroke="#49AF48" cx="128.769" cy="109.092" rx="78.129" ry="76.848"/>
<ellipse fill="#55B948" cx="128.769" cy="109.092" rx="70.25" ry="69.098"/>
<path fill="none" stroke="#FFFFFF" stroke-width="12" stroke-linecap="round" d="M91.54,105.371l28.295,25.318l46.163-43.194"/>
<path fill="#D7D6D6" d="M105.353,225.449l18.81,18.426l-23.033-6.258L105.353,225.449z"/>
<path fill="#D7D6D6" d="M89.614,255.392l36.852,4.146l-32.29,9.674L89.614,255.392z"/>
<path fill="#D7D6D6" d="M108.04,281.879l20.729-10.364l-14.807,20.729L108.04,281.879z"/>
<path fill="#4254A5" d="M303.816,439.652l7.266-46.749l195.421-33.865L303.816,439.652z"/>
<path fill="#494949" d="M303.816,439.652l7.266-46.749l195.421-33.865L303.816,439.652z"/>
<path fill="#4254A5" d="M303.816,439.652l38.299-27.64l14.676,20.446L303.816,439.652z"/>
<path fill="#7C7C7C" d="M303.816,439.652l38.299-27.64l14.676,20.446L303.816,439.652z"/>
<path fill="#E1E1E1" d="M260.055,365.003l47.676,30.888l198.772-36.853L260.055,365.003z"/>
<path fill="#E8E8E8" d="M387.943,485.717l-47.274-73.38l165.834-53.299L387.943,485.717z"/>
<path fill="none" stroke="#D7D6D6" stroke-width="2" stroke-dasharray="4,4" d="M81.108,267.821c0,0-125.851,71.887-37.103,178.381
	c76.031,91.237,245.457,0,245.457,0"/>
</svg>
