<?xml version="1.0" encoding="utf-8"?>
<!-- Generator: Adobe Illustrator 16.0.0, SVG Export Plug-In . SVG Version: 6.00 Build 0)  -->
<!DOCTYPE svg PUBLIC "-//W3C//DTD SVG 1.1//EN" "http://www.w3.org/Graphics/SVG/1.1/DTD/svg11.dtd">
<svg version="1.1" id="Layer_1" xmlns="http://www.w3.org/2000/svg" xmlns:xlink="http://www.w3.org/1999/xlink" x="0px" y="0px"
	 width="128px" height="128px" viewBox="0 0 128 128" enable-background="new 0 0 128 128" xml:space="preserve">
<rect x="-2" y="-2.495" display="none" fill="#0A0A0A" width="133.5" height="133.167"/>
<g>
	<path fill="none" stroke="#F38121" stroke-width="10" stroke-miterlimit="10" d="M120.448,110.15c0,2.165-1.907,3.924-4.255,3.924
		H51.646c-2.35,0-4.256-1.759-4.256-3.924V60.75c0-2.166,1.907-3.925,4.256-3.925h64.548c2.348,0,4.255,1.76,4.255,3.925V110.15z"/>
	<line fill="none" stroke="#F38121" stroke-width="6" stroke-miterlimit="10" x1="51.5" y1="92.889" x2="116.083" y2="92.889"/>
	<line fill="none" stroke="#F38121" stroke-width="6" stroke-miterlimit="10" x1="83.918" y1="92.325" x2="83.918" y2="114.92"/>
	<path fill="#F38121" d="M90.997,44.74l-44.623,0.072c0,0-3.902-0.353-7.292,3.777c-4.189,5.107-3.724,16.623-3.724,16.623H17.453
		c0,0,5.507-8.386,5.764-24.288c0.283-17.509-5.261-29.653-5.261-29.653h64.851c0,0,8.19,5.365,8.19,27.676
		C90.997,40.821,90.997,44.74,90.997,44.74z"/>
	<ellipse fill="none" stroke="#F38121" stroke-width="7" stroke-miterlimit="10" cx="17.453" cy="38.246" rx="9.505" ry="23.651"/>
	<path fill="none" stroke="#F38121" stroke-width="4" stroke-linecap="round" stroke-miterlimit="10" d="M24.839,71.253
		c0,0,1.613,4.637-1.589,9.956c-3.337,5.541-9.495-1.801-15.708,5.189c-2.574,2.892-5.224,8.753-3.318,15.107
		c2.827,9.42,17.959,9.722,22.098,2.115c1.766-3.243-0.141-9.317,2.967-10.444c4.425-1.612,5.823,0.316,5.823,0.316"/>
</g>
</svg>
