<?xml version="1.0" encoding="utf-8"?>
<!-- Generator: Adobe Illustrator 16.0.0, SVG Export Plug-In . SVG Version: 6.00 Build 0)  -->
<!DOCTYPE svg PUBLIC "-//W3C//DTD SVG 1.1//EN" "http://www.w3.org/Graphics/SVG/1.1/DTD/svg11.dtd">
<svg version="1.1" id="Layer_1" xmlns="http://www.w3.org/2000/svg" xmlns:xlink="http://www.w3.org/1999/xlink" x="0px" y="0px"
	 width="128px" height="128px" viewBox="0 0 128 128" enable-background="new 0 0 128 128" xml:space="preserve">
<rect x="-2" y="-2.495" display="none" fill="#0A0A0A" width="133.5" height="133.167"/>
<g>
	<path fill="none" stroke="#F48121" stroke-width="12" stroke-miterlimit="10" d="M102.325,33.586
		c0,7.926-2.189,29.855-11.13,45.497c-6.634,11.611-18.768,18.911-27.072,18.911c-9.585,0-23.407-10.104-30.48-24.182
		c-7.313-14.551-7.722-33.206-7.722-40.227c0-13.811,18.008-26.007,37.501-26.007C82.914,7.579,102.325,19.775,102.325,33.586z"/>
	<path fill="none" stroke="#F48121" stroke-width="4" stroke-miterlimit="10" d="M74.747,122.911c0,0.957-1.332,1.733-2.975,1.733
		H56.475c-1.643,0-2.975-0.776-2.975-1.733V95.232c0-0.956,1.332-1.732,2.975-1.732h15.297c1.643,0,2.975,0.776,2.975,1.732V122.911
		z"/>
	<path fill="#F48121" d="M55.146,47.85c0-4.958,8.977-17.64,8.977-17.64s8.978,12.682,8.978,17.64s-4.02,8.978-8.978,8.978
		C59.166,56.827,55.146,52.808,55.146,47.85z"/>
	<path fill="#F48121" d="M82.446,92H44.824L31.403,53.618c0,0-9.204,15.646,32.951,15.968c38.388,0.293,31.193-15.089,31.193-15.089
		L82.446,92z"/>
</g>
</svg>
