<?xml version="1.0" encoding="utf-8"?>
<!-- Generator: Adobe Illustrator 16.0.0, SVG Export Plug-In . SVG Version: 6.00 Build 0)  -->
<!DOCTYPE svg PUBLIC "-//W3C//DTD SVG 1.1//EN" "http://www.w3.org/Graphics/SVG/1.1/DTD/svg11.dtd">
<svg version="1.1" id="Layer_1" xmlns="http://www.w3.org/2000/svg" xmlns:xlink="http://www.w3.org/1999/xlink" x="0px" y="0px"
	 width="128px" height="128px" viewBox="0 0 128 128" enable-background="new 0 0 128 128" xml:space="preserve">
<rect x="-2" y="-2.495" display="none" fill="#0A0A0A" width="133.5" height="133.167"/>
<g>
	<path fill="#F48121" d="M118.565,98.166H34.887c0,0-8.736-15.127-8.736-33.185c0-19.701,8.736-35.59,8.736-35.59l83.678-0.173
		V49.27c0,0-10.742,2.636-20.006,2.459c-7.855-0.15-22.865-4.221-22.865-4.221S38.816,33.209,38.849,64.635
		c0.03,28.378,36.845,15.414,36.845,15.414s13.368-3.812,22.689-3.869c9.206-0.061,20.182,3.43,20.182,3.43V98.166z"/>
	<path fill="#F48121" d="M118.565,98.166L118.565,98.166V79.609c0,0,1.423-4.222,1.541-13.896
		c0.088-7.213-1.541-16.444-1.541-16.444V29.218l0,0c0,0,7.785,8.704,7.785,36.407C126.351,92.625,118.565,98.166,118.565,98.166z"
		/>
	<path fill="#F48121" d="M22.047,98.166h3.518c0,0-8.267-11.785-8.091-34.475c0.155-19.969,8.091-34.473,8.091-34.473h-3.518
		c0,0,0.698,0.862-5.101,9.056c-3.952,5.584-15.126,8.355-15.126,26.384c0,10.799,7.036,17.326,13.543,23.307
		C22.499,94.521,22.047,98.166,22.047,98.166z"/>
	<g>
		<path fill="#F48121" d="M47.942,60.242c0-2.612,0.53-3.51,2.49-5.102c1.918-1.592,2.816-2.204,5.551-2.204h3.102
			c2.735,0,3.633,0.612,5.552,2.204c1.959,1.592,2.489,2.49,2.489,5.102v7.388c0,2.572-0.653,3.552-2.694,5.266
			s-2.858,2.042-5.347,2.042h-3.102c-2.491,0-3.307-0.328-5.347-2.042c-2.041-1.714-2.694-2.693-2.694-5.266V60.242z M51.861,67.63
			c0,0.815,0.285,1.348,1.428,2.328c0.857,0.733,1.47,1.06,2.694,1.06h3.102c1.225,0,1.837-0.326,2.694-1.06
			c1.143-0.98,1.428-1.513,1.428-2.328v-7.388c0-0.815-0.286-1.347-1.428-2.326c-0.857-0.736-1.47-1.062-2.694-1.062h-3.102
			c-1.225,0-1.837,0.326-2.694,1.062c-1.143,0.979-1.428,1.51-1.428,2.326V67.63z"/>
	</g>
	<g>
		<path fill="#F48121" d="M70.285,73.352h4.838c0.365,0,0.704,0.198,0.704,0.703c0,0.507-0.339,0.704-0.704,0.704h-6.244v-4.586
			c0-1.054,0.535-1.59,1.589-1.59h3.952v-3.36h-4.838c-0.366,0-0.703-0.197-0.703-0.703c0-0.507,0.337-0.703,0.703-0.703h4.67
			c0.463,0,0.787,0.07,1.139,0.394c0.394,0.366,0.437,0.745,0.437,1.252v2.883c0,0.506-0.043,0.888-0.437,1.253
			c-0.352,0.322-0.676,0.393-1.139,0.393h-3.967V73.352z"/>
	</g>
</g>
</svg>
