<?xml version="1.0" encoding="utf-8"?>
<!-- Generator: Adobe Illustrator 16.0.0, SVG Export Plug-In . SVG Version: 6.00 Build 0)  -->
<!DOCTYPE svg PUBLIC "-//W3C//DTD SVG 1.1//EN" "http://www.w3.org/Graphics/SVG/1.1/DTD/svg11.dtd">
<svg version="1.1" id="Layer_1" xmlns="http://www.w3.org/2000/svg" xmlns:xlink="http://www.w3.org/1999/xlink" x="0px" y="0px"
	 width="128px" height="128px" viewBox="0 0 128 128" enable-background="new 0 0 128 128" xml:space="preserve">
<rect x="-2" y="-2.495" display="none" fill="#0A0A0A" width="133.5" height="133.167"/>
<g>
	<path fill="#F48121" d="M60.609,105.447c-10.55,0-19.104-7.59-19.104-16.951V18.699c0-9.362,8.553-16.952,19.104-16.952v20.069
		L52.5,21.651v4.018l8.109,0.053v9.965L52.5,35.637l0.031,5.949l8.078-0.032v8.067l-8.109,0.03l-0.094,5.918l8.203,0.093v7.892
		l-8.056,0.041l-0.042,5.855l8.098,0.042l-0.135,9.998l-8.004,0.031l0.062,6.042h7.912L60.609,105.447z"/>
	<path fill="none" stroke="#F48121" stroke-width="8" stroke-miterlimit="10" d="M70.472,103.068v12.093
		c0,4.319-3.103,7.821-6.93,7.821l0,0c-3.827,0-6.931-3.502-6.931-7.821v-12.093"/>
	<path fill="#F48121" d="M66.478,105.447c10.505,0,19.02-7.59,19.02-16.951V18.699c0-9.362-8.515-16.952-19.02-16.952v20.069
		l8.072-0.165v4.018l-8.072,0.053v9.965l8.072-0.051l-0.029,5.949l-8.043-0.032v8.067l8.072,0.03l0.094,5.918l-8.166,0.093v7.892
		l8.021,0.041l0.04,5.855l-8.062,0.042l0.135,9.998l7.968,0.031l-0.06,6.042h-7.878L66.478,105.447z"/>
	<rect x="59.154" y="1.748" fill="#F48121" width="8.722" height="13.977"/>
</g>
</svg>
