<svg width="725" height="725" viewBox="0 0 725 725" fill="none" xmlns="http://www.w3.org/2000/svg">
<path d="M317.042 652.789L317.022 660.951C317.052 685.759 337.23 705.937 362.028 705.936C386.846 705.936 407.031 685.773 407.033 660.931L407.033 652.81C407.035 640.205 407.523 627.976 408.25 615.936L315.828 615.936C316.553 627.968 317.039 640.191 317.042 652.789Z" fill="#F48121"/>
<path d="M376.208 237.806C376.207 229.541 369.475 222.808 361.21 222.808C352.861 222.828 346.201 229.556 346.222 237.795L346.222 252.812L376.208 252.807L376.208 237.806Z" fill="#F48121"/>
<path d="M258.113 132.806L464.649 132.806C457.075 80.3357 411.183 40.0554 355.582 42.9616C307.219 45.4718 266.973 84.1222 258.113 132.806V132.806Z" fill="#F48121"/>
<path d="M346.208 387.81C346.208 396.076 352.94 402.808 361.206 402.808C369.492 402.808 376.205 396.096 376.205 387.81L376.205 282.803L346.216 282.808L346.208 387.81Z" fill="#F48121"/>
<path d="M256.209 387.8C256.209 405.449 260.663 422.893 269.105 438.254C291.613 479.286 306.833 530.924 313.196 585.939L410.886 585.939C417.25 530.917 430.804 479.285 453.311 438.254C461.763 422.882 466.218 405.44 466.196 387.81L466.206 162.804L256.209 162.804L256.209 387.8ZM361.208 192.81C386.026 192.81 406.203 212.988 406.203 237.806L406.203 387.81C406.202 412.603 386.025 432.805 361.207 432.805C336.389 432.805 316.212 412.628 316.212 387.81L316.212 267.865C316.212 267.847 316.202 267.832 316.202 267.814C316.202 267.795 316.212 267.78 316.212 267.762V237.806C316.202 213.806 337.167 192.8 361.208 192.81Z" fill="#F48121"/>
</svg>
