<svg xmlns="http://www.w3.org/2000/svg" version="1.1" xmlns:xlink="http://www.w3.org/1999/xlink" xmlns:svgjs="http://svgjs.com/svgjs" width="512" height="512" x="0" y="0" viewBox="0 0 512 512" style="enable-background:new 0 0 512 512" xml:space="preserve" class=""><g><path xmlns="http://www.w3.org/2000/svg" d="m18.924 429.443-5.786 5.757c-17.52 17.563-17.52 46.099.015 63.633 17.549 17.549 46.08 17.565 63.647 0l5.742-5.742c8.915-8.912 17.908-17.214 26.935-25.214l-65.352-65.352c-7.996 9.021-16.295 18.008-25.201 26.918z" fill="#000000" data-original="#000000" class=""></path><path xmlns="http://www.w3.org/2000/svg" d="m354.196 177.838c5.844-5.845 5.844-15.366 0-21.211-5.918-5.889-15.385-5.841-21.196 0l-10.618 10.618 21.207 21.2z" fill="#000000" data-original="#000000" class=""></path><path xmlns="http://www.w3.org/2000/svg" d="m344.938 20.089 146.043 146.043c31.747-42.458 27.779-103.391-13.592-140.652-35.973-32.423-91.761-33.551-132.451-5.391z" fill="#000000" data-original="#000000" class=""></path><path xmlns="http://www.w3.org/2000/svg" d="m226.916 262.696c-5.845 5.845-5.845 15.366 0 21.211 5.859 5.859 15.352 5.859 21.211 0l74.251-74.251-21.209-21.202z" fill="#000000" data-original="#000000" class=""></path><path xmlns="http://www.w3.org/2000/svg" d="m163.283 199.049c-12.48 12.48-21.665 27.964-26.558 44.795-13.098 44.93-38.85 92.206-73.252 135.607l69.077 69.077c43.407-34.406 89.5-61.332 134.429-74.43 16.846-4.893 32.329-14.077 44.78-26.558l159.111-159.097-148.491-148.491zm212.124-63.633c17.549 17.549 17.549 46.084 0 63.633l-106.07 106.069c-17.532 17.531-46.084 17.549-63.633 0s-17.549-46.084 0-63.633l84.814-84.814c.013-.013.016-.031.029-.044s.031-.016.044-.029l21.182-21.182c16.964-16.978 46.642-17.007 63.634 0z" fill="#000000" data-original="#000000" class=""></path></g></svg>