<?xml version="1.0" encoding="utf-8"?>
<!-- Generator: Adobe Illustrator 16.0.0, SVG Export Plug-In . SVG Version: 6.00 Build 0)  -->
<!DOCTYPE svg PUBLIC "-//W3C//DTD SVG 1.1//EN" "http://www.w3.org/Graphics/SVG/1.1/DTD/svg11.dtd">
<svg version="1.1" id="Layer_1" xmlns="http://www.w3.org/2000/svg" xmlns:xlink="http://www.w3.org/1999/xlink" x="0px" y="0px"
	 width="512px" height="512px" viewBox="0 0 512 512" enable-background="new 0 0 512 512" xml:space="preserve">
<g>
	<path fill="none" stroke="#737476" stroke-width="10" stroke-linecap="round" d="M122.425,491.133V66.129
		c0-16.187,12.055-29.31,26.923-29.31h215.388c14.868,0,26.923,13.123,26.923,29.31v216.347"/>
	<path fill="none" stroke="#737476" stroke-width="10" d="M176.272,234.014h26.924c3.72,0,6.73,3.012,6.73,6.731v13.462
		c0,3.721-3.01,6.73-6.73,6.73h-26.924c-3.72,0-6.731-3.01-6.731-6.73v-13.462C169.541,237.025,172.552,234.014,176.272,234.014z"/>
	<path fill="none" stroke="#737476" stroke-width="10" d="M41.655,343.054h26.923c7.44,0,13.462,6.021,13.462,13.462V396.9
		c0,7.441-6.022,13.462-13.462,13.462H41.655"/>
	<path fill="none" stroke="#737476" stroke-width="10" d="M243.581,234.014h26.923c3.721,0,6.73,3.012,6.73,6.731v13.462
		c0,3.721-3.01,6.73-6.73,6.73h-26.923c-3.721,0-6.731-3.01-6.731-6.73v-13.462C236.85,237.025,239.86,234.014,243.581,234.014z"/>
	<path fill="none" stroke="#737476" stroke-width="10" d="M310.889,234.014h26.924c3.721,0,6.731,3.012,6.731,6.731v13.462
		c0,3.721-3.011,6.73-6.731,6.73h-26.924c-3.72,0-6.73-3.01-6.73-6.73v-13.462C304.158,237.025,307.169,234.014,310.889,234.014z"/>
	<path fill="none" stroke="#737476" stroke-width="10" d="M35.885,271.127h86.54v38.272h-86.54c-7.973,0-14.423-8.559-14.423-19.138
		C21.462,279.686,27.913,271.127,35.885,271.127z"/>
	<path fill="none" stroke="#737476" stroke-width="10" d="M41.655,309.399v184.85"/>
	<path fill="none" stroke="#737476" stroke-width="10" d="M329.667,460.21v-80.771c0-14.869-11.392-26.924-25.442-26.924h-89.048
		c-14.051,0-25.443,12.055-25.443,26.924v80.771"/>
	<path fill="none" stroke="#737476" stroke-width="10" d="M362.868,500.595v-13.462c0-14.868-11.944-26.923-26.675-26.923H189.484
		c-14.73,0-26.674,12.055-26.674,26.923v13.462"/>
	<line fill="none" stroke="#737476" stroke-width="10" x1="260.773" y1="352.516" x2="260.773" y2="460.21"/>
	<line fill="none" stroke="#737476" stroke-width="10" stroke-linecap="round" x1="8" y1="497.864" x2="398.392" y2="497.864"/>
	<path fill="none" stroke="#737476" stroke-width="10" d="M176.272,284.014h26.924c3.72,0,6.73,3.012,6.73,6.731v13.462
		c0,3.721-3.01,6.73-6.73,6.73h-26.924c-3.72,0-6.731-3.01-6.731-6.73v-13.462C169.541,287.025,172.552,284.014,176.272,284.014z"/>
	<path fill="none" stroke="#737476" stroke-width="10" d="M243.581,284.014h26.923c3.721,0,6.73,3.012,6.73,6.731v13.462
		c0,3.721-3.01,6.73-6.73,6.73h-26.923c-3.721,0-6.731-3.01-6.731-6.73v-13.462C236.85,287.025,239.86,284.014,243.581,284.014z"/>
	<path fill="none" stroke="#737476" stroke-width="10" d="M310.889,284.014h26.924c3.721,0,6.731,3.012,6.731,6.731v13.462
		c0,3.721-3.011,6.73-6.731,6.73h-26.924c-3.72,0-6.73-3.01-6.73-6.73v-13.462C304.158,287.025,307.169,284.014,310.889,284.014z"/>
</g>
<g display="none">
	<path display="inline" fill="none" stroke="#F28121" stroke-width="10" d="M506.084,376.538c0,8.886-2.707,21.151-7.389,34.929
		c-4.652,13.658-11.095,28.277-18.142,41.714c-7.046,13.474-14.631,25.528-21.507,34.113c-3.444,4.299-6.56,7.547-9.202,9.638
		c-1.313,1.05-2.379,1.707-3.194,2.077c-0.789,0.38-1.144,0.394-1.144,0.394l0,0l0,0c0,0-0.355-0.014-1.144-0.394
		c-0.815-0.37-1.881-1.027-3.194-2.077c-2.643-2.091-5.759-5.339-9.203-9.638c-6.875-8.585-14.461-20.64-21.507-34.113
		c-7.046-13.437-13.488-28.056-18.143-41.714c-4.68-13.777-7.388-26.043-7.388-34.929c0-36.692,27.568-65.601,60.578-65.601
		S506.084,339.846,506.084,376.538z"/>
	<path display="inline" fill="none" stroke="#F38120" stroke-width="10" d="M176.272,31.75L176.272,31.75
		c0-12.069,12.055-21.854,26.924-21.854h107.693c14.869,0,26.924,9.785,26.924,21.854l0,0"/>
	<path display="inline" fill="#F48220" d="M445.507,344.592c14.867,0,26.925,12.055,26.925,26.924
		c0,14.868-12.058,26.924-26.925,26.924c-14.868,0-26.923-12.056-26.923-26.924C418.584,356.646,430.639,344.592,445.507,344.592z"
		/>
	<circle display="inline" fill="none" stroke="#F28121" stroke-width="10" cx="257.042" cy="138.051" r="60.578"/>
	
		<line display="inline" fill="none" stroke="#F48220" stroke-width="10" stroke-linecap="round" x1="257.042" y1="111.128" x2="257.042" y2="164.975"/>
	
		<line display="inline" fill="none" stroke="#F48220" stroke-width="10" stroke-linecap="round" x1="230.119" y1="138.051" x2="283.966" y2="138.051"/>
</g>
</svg>
