<svg width="20" height="20" viewBox="0 0 20 20" fill="none" xmlns="http://www.w3.org/2000/svg">
<g id="Group">
<g id="Group_2">
<path id="Vector" d="M4.85999 2.81V0.75" stroke="black" stroke-width="1.5" stroke-linecap="round" stroke-linejoin="round"/>
<path id="Vector_2" d="M15.14 2.81V0.75" stroke="black" stroke-width="1.5" stroke-linecap="round" stroke-linejoin="round"/>
<g id="Group_3">
<path id="Vector_3" d="M16.05 1.78H3.95C2.18 1.78 0.75 3.21 0.75 4.98V16.06C0.75 17.83 2.18 19.26 3.95 19.26H16.06C17.83 19.26 19.26 17.83 19.26 16.06V4.98C19.25 3.21 17.82 1.78 16.05 1.78Z" stroke="black" stroke-width="1.5" stroke-linecap="round" stroke-linejoin="round"/>
<path id="Vector_4" d="M0.75 5.89999H19.25" stroke="black" stroke-width="1.5" stroke-linecap="round" stroke-linejoin="round"/>
</g>
</g>
<g id="Group_4">
<path id="Vector_5" d="M16 10C16.5523 10 17 9.55228 17 9C17 8.44772 16.5523 8 16 8C15.4477 8 15 8.44772 15 9C15 9.55228 15.4477 10 16 10Z" fill="black"/>
</g>
<g id="Group_5">
<path id="Vector_6" d="M12 10C12.5523 10 13 9.55228 13 9C13 8.44772 12.5523 8 12 8C11.4477 8 11 8.44772 11 9C11 9.55228 11.4477 10 12 10Z" fill="black"/>
</g>
<g id="Group_6">
<path id="Vector_7" d="M8 10C8.55228 10 9 9.55228 9 9C9 8.44772 8.55228 8 8 8C7.44772 8 7 8.44772 7 9C7 9.55228 7.44772 10 8 10Z" fill="black"/>
</g>
<g id="Group_7">
<path id="Vector_8" d="M4 10C4.55228 10 5 9.55228 5 9C5 8.44772 4.55228 8 4 8C3.44772 8 3 8.44772 3 9C3 9.55228 3.44772 10 4 10Z" fill="black"/>
</g>
<g id="Group_8">
<path id="Vector_9" d="M16 13.49C16.5523 13.49 17 13.0423 17 12.49C17 11.9377 16.5523 11.49 16 11.49C15.4477 11.49 15 11.9377 15 12.49C15 13.0423 15.4477 13.49 16 13.49Z" fill="black"/>
</g>
<g id="Group_9">
<path id="Vector_10" d="M12 13.49C12.5523 13.49 13 13.0423 13 12.49C13 11.9377 12.5523 11.49 12 11.49C11.4477 11.49 11 11.9377 11 12.49C11 13.0423 11.4477 13.49 12 13.49Z" fill="black"/>
</g>
<g id="Group_10">
<path id="Vector_11" d="M8 13.49C8.55228 13.49 9 13.0423 9 12.49C9 11.9377 8.55228 11.49 8 11.49C7.44772 11.49 7 11.9377 7 12.49C7 13.0423 7.44772 13.49 8 13.49Z" fill="black"/>
</g>
<g id="Group_11">
<path id="Vector_12" d="M4 13.49C4.55228 13.49 5 13.0423 5 12.49C5 11.9377 4.55228 11.49 4 11.49C3.44772 11.49 3 11.9377 3 12.49C3 13.0423 3.44772 13.49 4 13.49Z" fill="black"/>
</g>
<g id="Group_12">
<path id="Vector_13" d="M12 16.97C12.5523 16.97 13 16.5223 13 15.97C13 15.4177 12.5523 14.97 12 14.97C11.4477 14.97 11 15.4177 11 15.97C11 16.5223 11.4477 16.97 12 16.97Z" fill="black"/>
</g>
<g id="Group_13">
<path id="Vector_14" d="M8 16.97C8.55228 16.97 9 16.5223 9 15.97C9 15.4177 8.55228 14.97 8 14.97C7.44772 14.97 7 15.4177 7 15.97C7 16.5223 7.44772 16.97 8 16.97Z" fill="black"/>
</g>
<g id="Group_14">
<path id="Vector_15" d="M4 16.97C4.55228 16.97 5 16.5223 5 15.97C5 15.4177 4.55228 14.97 4 14.97C3.44772 14.97 3 15.4177 3 15.97C3 16.5223 3.44772 16.97 4 16.97Z" fill="black"/>
</g>
</g>
</svg>
