<svg width="20" height="20" viewBox="0 0 20 20" fill="none" xmlns="http://www.w3.org/2000/svg">
<g id="Group">
<path id="Vector" d="M12.78 19.25H7.21997V13.3C7.21997 12.75 7.66997 12.3 8.21997 12.3H11.78C12.33 12.3 12.78 12.75 12.78 13.3V19.25V19.25Z" stroke="black" stroke-width="1.5" stroke-linecap="round" stroke-linejoin="round"/>
<path id="Vector_2" d="M19.25 9.39V16.1C19.25 17.84 17.91 19.25 16.25 19.25H3.75C2.09 19.25 0.75 17.84 0.75 16.1V9.39C0.75 8.45 1.14 7.57 1.83 6.97L8.08 1.48C9.19 0.499995 10.81 0.499995 11.92 1.48L18.17 6.97C18.86 7.57 19.25 8.45 19.25 9.39Z" stroke="black" stroke-width="1.5" stroke-linecap="round" stroke-linejoin="round"/>
</g>
</svg>
