<svg width="24" height="24" viewBox="0 0 24 24" fill="none" xmlns="http://www.w3.org/2000/svg">
<g id="List">
<path id="Vector" d="M17.1401 1.96002H6.86005C5.32005 1.96002 4.06006 3.21001 4.06006 4.76001V19.15C4.06006 20.7 5.32005 21.96 6.86005 21.96H17.1401C18.6901 21.96 19.9401 20.7 19.9401 19.15V4.76001C19.9401 3.21001 18.6901 1.96002 17.1401 1.96002ZM7.89008 16.39H16.11C16.53 16.39 16.86 16.73 16.86 17.14C16.86 17.55 16.53 17.89 16.11 17.89H7.89008C7.48008 17.89 7.14008 17.55 7.14008 17.14C7.14008 16.73 7.48008 16.39 7.89008 16.39ZM7.14008 12C7.14008 11.59 7.48008 11.25 7.89008 11.25H16.11C16.53 11.25 16.86 11.59 16.86 12C16.86 12.42 16.53 12.75 16.11 12.75H7.89008C7.48008 12.75 7.14008 12.42 7.14008 12ZM16.11 7.61002H7.89008C7.48008 7.61002 7.14008 7.28002 7.14008 6.86002C7.14008 6.45002 7.48008 6.11002 7.89008 6.11002H16.11C16.53 6.11002 16.86 6.45002 16.86 6.86002C16.86 7.28002 16.53 7.61002 16.11 7.61002Z" fill="black"/>
</g>
</svg>
