<svg width="264" height="254" viewBox="0 0 264 254" fill="none" xmlns="http://www.w3.org/2000/svg">
<path d="M4.41514 110.322C4.41514 87.8504 22.6316 69.6328 45.1027 69.6328H55.8541C69.4015 69.6328 81.7034 61.7273 87.3333 49.407C91.2309 40.8782 99.7467 35.4041 109.122 35.4041H168.007C175.985 35.4041 182.964 40.8024 184.962 48.5305C188.186 60.9558 199.397 69.6328 212.232 69.6328H225.254C244.224 69.6328 259.595 85.01 259.595 103.976V201.76C259.595 228.229 238.139 249.687 211.67 249.687H52.3406C25.8713 249.687 4.41406 228.229 4.41406 201.76V110.322H4.41514Z" stroke="#F48220" stroke-width="8"/>
<path d="M224.019 93.9258C231.111 93.9258 236.855 99.6717 236.855 106.763C236.855 113.851 231.111 119.599 224.019 119.599C216.928 119.599 211.184 113.851 211.184 106.763C211.184 99.6717 216.928 93.9258 224.019 93.9258Z" stroke="#F48121" stroke-width="5"/>
<path d="M35.0859 45.2053H55.1105" stroke="#F48220" stroke-width="8" stroke-linecap="round"/>
<path d="M27.7218 27.6977L22.2617 16.7754" stroke="#F48220" stroke-width="8" stroke-linecap="round"/>
<path d="M44.8828 19.6396V4.73096" stroke="#F48220" stroke-width="8" stroke-linecap="round"/>
<path d="M63.168 28.0463L68.627 17.124" stroke="#F48220" stroke-width="8" stroke-linecap="round"/>
<path d="M194.253 150.216C194.253 183.181 167.529 209.904 134.565 209.904C101.6 209.904 74.877 183.181 74.877 150.216C74.877 117.251 101.6 90.5281 134.565 90.5281C167.529 90.5281 194.253 117.251 194.253 150.216Z" stroke="#F28121" stroke-width="8"/>
<path d="M96.2227 150.216C96.2227 129.041 113.39 111.873 134.564 111.873" stroke="#F28121" stroke-width="8" stroke-linecap="round"/>
<path d="M22.3618 76.979L48.8722 67.7815L91.6136 104.572L78.6289 126.213L73.7596 154.887L78.6289 170.577L93.7777 194.923L27.7721 242.534L14.7874 233.337L4.50781 211.154V143.526L8.29502 98.6202L22.3618 76.979Z" fill="#F28121"/>
<path d="M88.3671 196.005L135.978 208.449L260.415 174.905L255.004 227.385L233.904 247.403H36.4283L16.4102 221.975L88.3671 196.005Z" fill="#F28121"/>
<path d="M101.892 36.4019L180.341 38.566V89.4228L110.548 92.6689L92.6944 105.113L54.8223 89.4228L52.1172 74.2739L67.807 66.6995L101.892 36.4019Z" fill="#F28121"/>
<path d="M191.163 116.474L222.542 118.638L256.086 116.474V193.3L192.786 196.005L175.473 198.17L196.032 159.756L191.163 116.474Z" fill="#F28121"/>
<rect x="234.445" y="82.9304" width="21.6412" height="35.708" fill="#F28121"/>
<path d="M179.26 47.2224L208.475 71.5687L214.427 122.426L180.342 116.474L179.26 47.2224Z" fill="#F28121"/>
<path d="M160.865 81.8484H191.163V96.9972L193.868 125.131L160.865 96.9972L153.832 88.3407L160.865 81.8484Z" fill="#F28121"/>
<path d="M204.146 73.1919H248.511V95.9151L221.459 95.3741L211.18 101.866L204.146 73.1919Z" fill="#F28121"/>
</svg>
