<?xml version="1.0" encoding="utf-8"?>
<!-- Generator: Adobe Illustrator 16.0.0, SVG Export Plug-In . SVG Version: 6.00 Build 0)  -->
<!DOCTYPE svg PUBLIC "-//W3C//DTD SVG 1.1//EN" "http://www.w3.org/Graphics/SVG/1.1/DTD/svg11.dtd">
<svg version="1.1" id="Layer_1" xmlns="http://www.w3.org/2000/svg" xmlns:xlink="http://www.w3.org/1999/xlink" x="0px" y="0px"
	 width="256px" height="256px" viewBox="0 0 256 256" enable-background="new 0 0 256 256" xml:space="preserve">
<path fill="#F28121" stroke="#F48220" stroke-width="8" d="M10.415,113.314c0-20.767,16.835-37.603,37.602-37.603h9.936
	c12.52,0,23.889-7.306,29.092-18.692c3.602-7.882,11.472-12.941,20.136-12.941h54.42c7.373,0,13.822,4.989,15.669,12.131
	c2.979,11.483,13.34,19.502,25.202,19.502h12.034c17.532,0,31.737,14.211,31.737,31.739v90.368
	c0,24.462-19.829,44.293-44.291,44.293H54.706c-24.462,0-44.292-19.831-44.292-44.293V113.314z"/>
<path fill="#FFFFFF" d="M213.366,95.851c7.831,0,14.173,6.345,14.173,14.174c0,7.826-6.342,14.173-14.173,14.173
	c-7.829,0-14.172-6.347-14.172-14.173C199.194,102.196,205.537,95.851,213.366,95.851z"/>
<line fill="none" stroke="#F48220" stroke-width="8" stroke-linecap="round" x1="38.76" y1="53.136" x2="57.266" y2="53.136"/>
<line fill="none" stroke="#F48220" stroke-width="8" stroke-linecap="round" x1="31.955" y1="36.956" x2="26.909" y2="26.862"/>
<line fill="none" stroke="#F48220" stroke-width="8" stroke-linecap="round" x1="47.814" y1="29.509" x2="47.814" y2="15.731"/>
<line fill="none" stroke="#F48220" stroke-width="8" stroke-linecap="round" x1="64.713" y1="37.278" x2="69.758" y2="27.184"/>
<circle fill="#FFFFFF" cx="130.693" cy="150.183" r="58.858"/>
<path fill="none" stroke="#F28121" stroke-width="8" stroke-linecap="round" d="M95.259,150.183
	c0-19.569,15.865-35.435,35.434-35.435"/>
</svg>
