<svg class="svg-icon" style="width: 1em; height: 1em;vertical-align: middle;fill: currentColor;overflow: hidden;" viewBox="0 0 1024 1024" version="1.1" xmlns="http://www.w3.org/2000/svg"><path d="M101.54 373.43c-20.87 0-37.78-16.92-37.78-37.78v-83.42c0-103.91 84.54-188.45 188.45-188.45h83.42c20.87 0 37.78 16.92 37.78 37.78s-16.92 37.78-37.78 37.78h-83.42c-62.25 0-112.89 50.64-112.89 112.89v83.42c0 20.87-16.92 37.78-37.78 37.78zM771.91 960.21h-83.87c-20.87 0-37.78-16.91-37.78-37.78s16.92-37.78 37.78-37.78h83.87c62.25 0 112.89-50.64 112.89-112.89v-83.37c0-20.87 16.91-37.78 37.78-37.78s37.78 16.92 37.78 37.78v83.37c-0.01 103.91-84.54 188.45-188.45 188.45zM335.47 960.21H252.1c-103.91 0-188.45-84.54-188.45-188.45v-83.37c0-20.87 16.92-37.78 37.78-37.78s37.78 16.92 37.78 37.78v83.37c0 62.25 50.64 112.89 112.89 112.89h83.37c20.87 0 37.78 16.91 37.78 37.78s-16.92 37.78-37.78 37.78zM922.57 373.61c-20.87 0-37.78-16.92-37.78-37.78v-83.37c0-62.25-50.64-112.89-112.89-112.89h-83.87c-20.87 0-37.78-16.92-37.78-37.78s16.92-37.78 37.78-37.78h83.87c103.91 0 188.45 84.54 188.45 188.45v83.37c0 20.86-16.91 37.78-37.78 37.78z" fill="#7F8693" /></svg>