<?xml version="1.0" encoding="utf-8"?>
<!-- Generator: Adobe Illustrator 16.0.0, SVG Export Plug-In . SVG Version: 6.00 Build 0)  -->
<!DOCTYPE svg PUBLIC "-//W3C//DTD SVG 1.1//EN" "http://www.w3.org/Graphics/SVG/1.1/DTD/svg11.dtd">
<svg version="1.1" id="Layer_1" xmlns="http://www.w3.org/2000/svg" xmlns:xlink="http://www.w3.org/1999/xlink" x="0px" y="0px"
	 width="512px" height="512px" viewBox="0 0 512 512" enable-background="new 0 0 512 512" xml:space="preserve">
<circle fill="#A91F23" cx="120.041" cy="170.661" r="18"/>
<circle fill="#A91F23" cx="120.041" cy="170.661" r="18"/>
<circle fill="#FBE200" stroke="#B6AF33" stroke-width="2" cx="120.041" cy="170.661" r="18"/>
<circle fill="#A91F23" cx="102.589" cy="153.207" r="18.001"/>
<circle fill="#A91F23" cx="102.589" cy="153.207" r="18.001"/>
<circle fill="#FBE200" stroke="#B6AF33" stroke-width="2" cx="102.589" cy="153.207" r="18.001"/>
<circle fill="#A91F23" cx="234.592" cy="105.205" r="18"/>
<circle fill="#A91F23" cx="234.592" cy="105.205" r="18"/>
<circle fill="#FBE200" stroke="#B6AF33" stroke-width="2" cx="234.592" cy="105.205" r="18"/>
<circle fill="#A91F23" cx="245.502" cy="87.75" r="18"/>
<circle fill="#A91F23" cx="245.502" cy="87.75" r="18"/>
<circle fill="#FBE200" stroke="#B6AF33" stroke-width="2" cx="245.502" cy="87.75" r="18"/>
<circle fill="#A91F23" cx="241.134" cy="65.931" r="18.001"/>
<circle fill="#A91F23" cx="241.134" cy="65.931" r="18.001"/>
<circle fill="#FBE200" stroke="#B6AF33" stroke-width="2" cx="241.134" cy="65.931" r="18.001"/>
<circle fill="#A91F23" cx="226.953" cy="47.385" r="18.001"/>
<circle fill="#A91F23" cx="226.953" cy="47.385" r="18.001"/>
<circle fill="#FBE200" stroke="#B6AF33" stroke-width="2" cx="226.953" cy="47.385" r="18.001"/>
<circle fill="#A91F23" cx="217.134" cy="29.929" r="18"/>
<circle fill="#A91F23" cx="217.134" cy="29.929" r="18"/>
<circle fill="#FBE200" stroke="#B6AF33" stroke-width="2" cx="217.134" cy="29.929" r="18"/>
<circle fill="#A91F23" cx="194.223" cy="40.839" r="18"/>
<circle fill="#A91F23" cx="194.223" cy="40.839" r="18"/>
<circle fill="#FBE200" stroke="#B6AF33" stroke-width="2" cx="194.223" cy="40.839" r="18"/>
<circle fill="#A91F23" cx="168.042" cy="37.567" r="18"/>
<circle fill="#A91F23" cx="168.042" cy="37.567" r="18"/>
<circle fill="#FBE200" stroke="#B6AF33" stroke-width="2" cx="168.042" cy="37.567" r="18"/>
<circle fill="#A91F23" cx="156.042" cy="23.384" r="18"/>
<circle fill="#A91F23" cx="156.042" cy="23.384" r="18"/>
<circle fill="#FBE200" stroke="#B6AF33" stroke-width="2" cx="156.042" cy="23.384" r="18"/>
<circle fill="#A91F23" cx="126.59" cy="37.567" r="18"/>
<circle fill="#A91F23" cx="126.59" cy="37.567" r="18"/>
<circle fill="#FBE200" stroke="#B6AF33" stroke-width="2" cx="126.59" cy="37.567" r="18"/>
<circle fill="#A91F23" cx="102.589" cy="40.839" r="18"/>
<circle fill="#A91F23" cx="102.589" cy="40.839" r="18"/>
<circle fill="#FBE200" stroke="#B6AF33" stroke-width="2" cx="102.589" cy="40.839" r="18"/>
<circle fill="#A91F23" cx="102.589" cy="70.295" r="18"/>
<circle fill="#A91F23" cx="102.589" cy="70.295" r="18"/>
<circle fill="#FBE200" stroke="#B6AF33" stroke-width="2" cx="102.589" cy="70.295" r="18"/>
<circle fill="#A91F23" cx="84.04" cy="91.023" r="18"/>
<circle fill="#A91F23" cx="84.04" cy="91.023" r="18"/>
<circle fill="#FBE200" stroke="#B6AF33" stroke-width="2" cx="84.04" cy="91.023" r="18"/>
<circle fill="#A91F23" cx="96.041" cy="118.296" r="18"/>
<circle fill="#A91F23" cx="96.041" cy="118.296" r="18"/>
<circle fill="#FBE200" stroke="#B6AF33" stroke-width="2" cx="96.041" cy="118.296" r="18"/>
<circle fill="#A91F23" cx="85.131" cy="135.752" r="18.001"/>
<circle fill="#A91F23" cx="85.131" cy="135.752" r="18.001"/>
<circle fill="#FBE200" stroke="#B6AF33" stroke-width="2" cx="85.131" cy="135.752" r="18.001"/>
<path fill="#FBE200" d="M103.134,41.93l26.183-8.181l33.819-5.455l23.455,10.363l20.183,3.273l25.091,6.547l13.638,20.183
	l-2.728,34.911l-26.183,18l-58.365,4.908l-18.546,10.91l-2.182,34.91l-30.001-8.183l-19.091-22.365L80.77,90.478L103.134,41.93z"/>
<path fill="#F8A388" d="M128.227,181.026c0.474-7.239-0.207-11.407,1.09-18.545c1.195-6.564,4.91-16.365,4.91-16.365
	s-3.995-5.109-6-8.728c-2.455-4.429-4.316-6.971-4.91-12c-0.553-4.697-1.019-8.087,1.637-12c1.7-2.506,3.119-3.979,6-4.91
	c2.432-0.787,4.14-0.863,6.545,0c2.698,0.968,4.161,2.352,5.455,4.91c0.888,1.752,0.728,2.979,1.091,4.908
	c0.596,3.169-1.271,5.987,1.09,8.183c1.046,0.974,1.849,1.746,3.273,1.637c1.238-0.095,1.802-0.808,2.728-1.637
	c4.201-3.763-2.728-14.183-2.728-14.183s-1.187-10.921,2.728-15.818c4.126-5.16,9.306-4.892,15.818-6
	c5.671-0.965,8.993-0.425,14.728,0c6.67,0.495,10.438,1.041,16.91,2.728c7.503,1.956,11.921,3.063,18.546,7.09
	c4.918,2.991,11.455,9.274,11.455,9.274s2.179,17.001,1.091,27.818c-0.961,9.563-2.212,14.953-5.455,24
	c-3.214,8.969-6.976,13.143-10.91,21.82c-2.957,6.521-3.818,14.728-7.091,16.908c-3.272,2.182-13.637,1.092-13.637,1.092
	l8.728,38.184l0.545,7.635l-1.636,6l-2.728,4.364l-3.274,3.274l-3.818,2.182l-6,1.635h-8.728l-9.818-1.09l-9.818-3.817l-9.274-5.456
	l-7.091-5.456l-6.545-6l-8.183-9.818v-10.91C124.954,221.937,127.181,197.02,128.227,181.026z"/>
<path fill="#F3F3F3" d="M124.957,232.301c0,0,26.728,32.962,52.911,31.091c26.183-1.868,22.91-25.091,22.91-25.091
	s9.836,39.442,15.273,64.911c5.164,24.188,9.075,37.625,12,62.183c3.229,27.096,2.251,42.54,2.728,69.823
	c0.387,22.15,0,56.727,0,56.727s-15.273,9.739-34.91,9.82c-19.636,0.074-35.456-9.82-35.456-9.82s-1.584-23.412-8.727-53.455
	c-6.832-28.737-20.811-71.578-22.911-88.366c-1.09-8.727-1.684-19.416-2.18-32.727C125.176,279.343,124.957,232.301,124.957,232.301
	z"/>
<path display="none" fill="#F47A20" d="M57.315,255.21c7.546-7.661,13.293-10.461,22.91-15.273
	c8.919-4.463,14.692-5.149,24.001-8.728c9.009-3.463,20.727-9.818,20.727-9.818V232.3v21.82l1.091,36.547l1.092,32.181
	c0,0-22.11,8.521-35.456,15.272c-11.561,5.851-19.025,8.133-29.455,15.819c-5.953,4.386-8.736,7.662-13.092,13.638
	c-2.974,4.083-6,11.453-6,11.453s-1.385-6.972-2.181-11.453c-2.444-13.763-4.364-21.484-4.91-35.457
	c-0.76-19.461-2.12-31.47,4.91-49.638C45.433,270.9,48.6,264.06,57.315,255.21z"/>
<path fill="#F8A388" d="M50.221,365.395c2.932-4.02,5.011-5.968,8.728-9.271c6.092-5.42,10.348-7.457,17.455-11.455
	c9.557-5.374,15.56-7.127,25.636-11.455c9.742-4.186,15.636-5.568,25.092-10.365c8.178-4.146,20.182-12,20.182-12
	c8.095-3.834,12.634-5.982,20.728-9.819c8.095-3.834,6.75-3.509,8.183-7.09c2.182-5.456,1.849-7.589,6.545-10.362
	c3.25-1.921,5.55-2.109,9.272-2.729c5.044-0.841,7.988-0.299,13.092,0c4.062,0.238,6.327,0.577,10.363,1.09
	c4.274,0.542,10.911,1.639,10.911,1.639v7.091l-13.092,0.542c0,0-4.083,7.37-6.545,10.91c-3.405,4.903-7.147,6.185-12.546,8.729
	c-6.542,3.087-13.637,1.091-13.637,1.091l-46.911,58.911c0,0-5.398,6.754-8.728,10.909c-3.87,4.836-6.107,7.505-10.363,12.001
	c-4.661,4.924-7.488,7.486-12.546,12.003c-2.93,2.612-4.244,4.561-7.636,6.542c-4.954,2.894-8.492,3.096-14.182,3.823
	c-5.282,0.666-8.495,1.385-13.638,0c-4.974-1.348-7.543-3.194-11.455-6.549c-3.561-3.054-5.252-5.231-7.636-9.271
	c-2.331-3.954-3.551-6.394-4.364-10.909c-0.716-3.986-0.773-6.391,0-10.368C44.276,373.141,46.683,370.248,50.221,365.395z"/>
<path display="none" fill="#F47A20" d="M76.411,416.669l4.91-1.09c4.26-1.067-2.08,0.519,2.183-0.546
	c4.26-1.063,15.197-6.813,16.908-8.184c-2.769,2.771,2.728-2.181,0,0c0,0,8.997-7.578,13.092-12c3.078-3.318,5.28-5.798,8.183-9.271
	c2.622-3.144,4.979-6.161,7.636-9.275c1.666-1.951,4.365-5.454,4.365-5.454s3.353,13.013,5.455,21.271
	c2.509,9.87,2.728,6.549,7.636,25.64c4.91,19.092,7.321,28.476,10.365,47.459c1.631,10.171,2.75,15.933,3.817,26.182
	c0.467,4.469,1.637,11.451,1.637,11.451s-17.464-4.844-27.82-4.361c-9.186,0.423-13.72,5.083-22.91,5.455
	c-8.157,0.331-12.567-2.994-20.728-2.726c-8.476,0.273-21.273,4.361-21.273,4.361l2.183-17.456c0,0,2.934-20.225,3.817-33.271
	C76.872,439.973,76.411,416.669,76.411,416.669z"/>
<path fill="#EB967A" d="M140.228,182.117c14.728,13.092,28.365,19.092,52.911,19.092l3.818,19.091c0,0-27.35-6.664-40.364-18
	C148.941,195.634,140.228,182.117,140.228,182.117z"/>
<path fill="#010101" d="M225.943,269.598c-0.091-9.113,7.779-16.272,16.844-15.322l14.987,1.572
	c8.54,0.896,14.659,8.662,13.53,17.172l-6.229,47.021c-1.091,8.232-8.563,14.08-16.815,13.159l-13.25-1.482
	c-8.899-0.992-15.032-9.405-13.256-18.183l3.758-18.578c0.173-0.853,0.272-1.719,0.296-2.589l0.268-9.37L225.943,269.598z"/>
<path fill="#F8A388" d="M225.87,292.302c0,0-0.25,3.468,0.545,5.456c0.681,1.7,1.393,2.562,2.727,3.819
	c2.361,2.222,4.507,2.41,7.636,3.271c3.312,0.912,5.299,0.899,8.728,1.091c2.766,0.154,4.346,0.354,7.091,0
	c1.948-0.25,3.366,0.125,4.909-1.091c2.236-1.758,1.638-7.09,1.638-7.09s-1.426-5.268-1.638-8.729c-0.104-1.698-1.09-2.181,0-4.361
	c1.092-2.182,3.273,0,3.273,0l3.273,8.181c0,0,1.16,7.222,1.636,11.454c0.363,3.239,1.639,9.82,1.639,9.82s5.866,4.489,9.816,7.087
	c6.135,4.047,10.336,5.077,16.364,9.278c4.726,3.289,7.13,5.476,11.453,9.271c3.512,3.084,6.048,4.359,8.729,8.185
	c2.907,4.145,3.89,7.04,4.909,11.997c1.116,5.425,1.436,8.836,0,14.184c-1.108,4.139-2.246,6.456-4.909,9.819
	c-1.496,1.89-2.485,2.857-4.362,4.364c-2.681,2.146-4.386,3.26-7.639,4.362c-3.652,1.239-5.962,1.165-9.819,1.091
	c-4.762-0.09-7.722-0.081-12.001-2.181c-4.063-1.997-5.791-4.189-8.726-7.637c-4.508-5.3-5.317-9.482-8.184-15.822
	c-2.36-5.226-3.454-8.258-5.454-13.633c-1.572-4.233-3.817-10.91-3.817-10.91l-3.817-10.909l-2.729-5.455
	c0,0-2.615-1.133-4.363-1.636c-3.91-1.129-6.381-0.259-10.364-1.09c-2.377-0.502-3.992-0.274-6-1.64
	c-1.625-1.102-2.209-2.169-3.274-3.819c-1.607-2.49-2.203-4.17-2.727-7.09c-0.488-2.724-0.251-4.331,0-7.091
	c0.296-3.244,0.058-5.333,1.637-8.181C223.149,294.686,225.87,292.302,225.87,292.302z"/>
<path display="none" fill="#F47A20" d="M196.958,221.391c0,0,62.73,14.728,69.821,19.636c7.09,4.91,7.893,6.8,12,12
	c4.326,5.476,6.06,9.081,9.271,15.274c2.901,5.586,4.001,8.971,6.548,14.727c0,0,6.36,13.475,9.819,22.364
	c2.05,5.277,3.254,8.224,4.907,13.636c2.172,7.121,2.792,11.273,4.365,18.549c1.376,6.369,3.271,16.362,3.271,16.362
	s-0.566-1.147-2.181-3.271c-1.46-1.921-3.716-4.877-5.455-6.545c-2.284-2.196-3.054-3.392-5.455-5.455
	c-3.905-3.366-6.06-4.794-10.362-7.637c-5.403-3.574-9.816-5.24-15.273-8.728c-4.486-2.87-10.91-8.182-10.91-8.182l-1.636-7.639
	l-1.638-13.636l-2.727-7.09l1.09-11.456c0,0,0.902-6.857,0.546-8.184c0-1.09-1.091-3.271-2.726-3.819
	c-1.638-0.543-14.184-2.181-14.184-2.181s-1.092,0-4.909-0.546c-3.818-0.544-8.183-1.09-9.273-0.544
	c-0.809,0.405-3.272,0.544-3.818,5.454l-0.546,7.093l-1.09,12.001l-11.455-1.639l-3.818-0.545l-0.545-2.184l-1.637-7.091
	l-4.909-20.181L196.958,221.391z"/>
<path display="none" fill="#F47A20" d="M213.32,291.209l12.545-0.542v1.635l-2.726,2.727l-1.637,2.729l-0.545,3.271l-0.545,4.91
	v3.819v2.181l0.545,2.184l1.09,2.726l1.092,2.181l1.09,1.639c0,0-0.177,2.199,0.545,3.271c0.337,0.501,0.616,0.724,1.091,1.09
	c0.752,0.588,1.242,0.903,2.182,1.091c0.94,0.193,19.638,2.188,19.638,2.188l2.182,4.361l7.091,19.636l9.272,23.455l3.82,6.545
	c0,0-4.338,65.517,1.09,106.916c0.757,5.762,2.182,14.726,2.182,14.726s-8.646,2.294-14.182,1.636
	c-5.151-0.61-7.365-4.117-12.545-4.361c-5.266-0.251-13.093,3.271-13.093,3.271s-1.809-5.613-2.728-9.271
	c-5.546-22.112,0-35.572,0-58.368c0-11.292,0.248-17.62,0-28.908c-0.224-10.233-0.306-15.98-1.091-26.185
	c-0.625-8.115-1.117-12.655-2.182-20.726c-1.214-9.203-1.901-14.375-3.818-23.456c-1.132-5.359-2.057-8.297-3.272-13.639
	c-2.367-10.386-3.82-16.361-5.455-26.729C214.531,294.516,213.32,291.209,213.32,291.209z"/>
<circle fill="#5E5F5F" cx="246.047" cy="274.847" r="5.455"/>
<circle fill="#5E5F5F" cx="246.047" cy="274.847" r="5.455"/>
<circle fill="#5E5F5F" cx="246.051" cy="274.847" r="3.271"/>
<circle fill="#FFFFFF" cx="246.051" cy="274.847" r="3.271"/>
<path fill="#393737" d="M247.918,276.293c-1.186,1.173-2.959,0.437-2.959,0.437s1.102,0.099,2.096-0.888
	c0.996-0.982,1.204-1.787,1.204-1.787S248.913,275.306,247.918,276.293z"/>
<path fill="#8C8C8C" d="M247.918,276.293c-1.186,1.173-2.959,0.437-2.959,0.437s1.102,0.099,2.096-0.888
	c0.996-0.982,1.204-1.787,1.204-1.787S248.913,275.306,247.918,276.293z"/>
<path fill="#FEE600" d="M242.971,262.213c-0.212,0.213-0.209,0.33,0.027,1.282c0.104,0.423,0.31,1.271,0.456,1.887
	c0.228,0.959,0.288,1.141,0.421,1.275c0.219,0.218,0.507,0.215,0.729-0.009c0.215-0.214,0.212-0.359-0.028-1.36
	c-0.779-3.256-0.712-3.025-0.903-3.15C243.454,261.993,243.16,262.025,242.971,262.213z M249.337,262.324
	c-0.228,0.098-0.328,0.302-0.563,1.139c-0.131,0.471-0.368,1.315-0.525,1.877s-0.286,1.074-0.286,1.138
	c0,0.494,0.636,0.72,0.972,0.345c0.046-0.052,0.201-0.51,0.344-1.018c0.144-0.509,0.385-1.363,0.537-1.899
	c0.152-0.534,0.276-1.033,0.276-1.105C250.093,262.498,249.623,262.202,249.337,262.324z M237.479,265.016
	c-0.127,0.126-0.164,0.214-0.164,0.391c0,0.214,0.049,0.278,0.965,1.277c1.558,1.7,1.9,2.035,2.079,2.035
	c0.445,0,0.734-0.452,0.526-0.822c-0.081-0.146-2.448-2.707-2.685-2.905C237.967,264.794,237.691,264.803,237.479,265.016z
	 M254.493,265.629c-0.313,0.196-2.875,2.828-2.897,2.977c-0.033,0.213,0.052,0.465,0.193,0.574c0.162,0.124,0.479,0.125,0.663,0
	c0.285-0.192,2.854-2.82,2.887-2.953c0.05-0.207-0.07-0.499-0.253-0.606C254.876,265.496,254.702,265.499,254.493,265.629z
	 M256.762,270.455c-0.292,0.085-1.124,0.322-1.849,0.526c-1.422,0.399-1.569,0.477-1.569,0.819c0,0.325,0.25,0.615,0.53,0.615
	c0.073,0,2.16-0.574,3.494-0.963c0.518-0.151,0.684-0.298,0.684-0.607c0-0.182-0.035-0.267-0.164-0.395
	C257.68,270.243,257.484,270.243,256.762,270.455z M253.876,275.62c-0.321,0.177-0.409,0.595-0.181,0.859
	c0.1,0.117,0.25,0.179,0.687,0.285c2.633,0.638,3.402,0.807,3.528,0.773c0.174-0.042,0.422-0.325,0.422-0.48
	c0-0.196-0.172-0.481-0.326-0.545c-0.208-0.083-3.828-0.96-3.952-0.956C254.017,275.557,253.938,275.586,253.876,275.62z
	 M251.823,279.588c-0.141,0.142-0.165,0.203-0.15,0.405c0.018,0.233,0.049,0.269,1.419,1.547c1.464,1.367,1.654,1.522,1.866,1.522
	c0.41,0.001,0.686-0.43,0.508-0.795c-0.034-0.07-0.727-0.741-1.54-1.487c-1.426-1.313-1.485-1.359-1.707-1.359
	C252.04,279.421,251.954,279.457,251.823,279.588z"/>
<path fill="#697884" d="M399.207,342.133c-2.206-21.448,16.604-37.779,38.161-37.779l0,0c22.814,0,42.04,18.155,39.386,40.813
	c-0.619,5.293-1.467,10.438-2.622,14.971c-2.413,9.49-7.171,17.398-11.535,23.112c-5.404,7.066-14.205,10.084-23.107,10.084l0,0
	c-10.441,0-20.58-4.209-26.285-12.954c-3.56-5.457-7.397-12.378-10.252-20.242C401.028,354.833,399.866,348.54,399.207,342.133z"/>
<path fill="#E4E4E4" d="M412.105,342.229c-3.337-14.346,10.353-25.553,25.081-25.553l0,0c15.802,0,29.855,12.724,26.196,28.097
	c-0.232,0.968-0.485,1.903-0.766,2.797c-1.546,4.925-4.507,9.075-7.331,12.18c-4.103,4.51-10.225,6.202-16.321,6.202l0,0
	c-7.287,0-14.49-2.481-18.938-8.252c-2.19-2.83-4.443-6.274-6.174-10.13C413.118,345.932,412.546,344.123,412.105,342.229z"/>
<path fill="#010101" d="M432.986,329.552l-3.17,3.205h-5.977l-3.169-3.205H432.986z M432.986,350.895h-12.315l3.169-3.17h5.977
	L432.986,350.895z M420.059,338.426v-8.264l3.171,3.173v4.3l-1.979,2.01L420.059,338.426z M433.567,342.022v8.265l-3.17-3.17v-4.303
	l1.98-1.98L433.567,342.022z M430.213,338.642l1.585,1.581l-1.585,1.585h-6.77l-1.585-1.585l1.585-1.581H430.213z"/>
<path fill="#010101" d="M436.785,350.895v-3.17h3.176v3.17H436.785z"/>
<path fill="#010101" d="M456.078,329.552l-3.17,3.205h-5.977l-3.17-3.205H456.078z M456.078,350.895h-12.316l3.17-3.17h5.977
	L456.078,350.895z M446.318,342.814v4.303l-3.17,3.17v-8.265l1.191-1.188L446.318,342.814z M443.148,338.426v-8.264l3.17,3.173v4.3
	l-1.979,2.01L443.148,338.426z M456.656,342.022v8.265l-3.17-3.17v-4.303l1.978-1.98L456.656,342.022z M453.486,337.635v-4.3
	l3.17-3.173v8.264l-1.192,1.219L453.486,337.635z M453.301,338.642l1.589,1.581l-1.589,1.585h-6.769l-1.584-1.585l1.584-1.581
	H453.301z"/>
<path fill="#FFFFFF" d="M438.477,370.063L438.477,370.063c2.836,0,5.137,2.3,5.137,5.134l0,0c0,2.833-2.301,5.133-5.137,5.133l0,0
	c-2.833,0-5.131-2.3-5.131-5.133l0,0C433.346,372.362,435.644,370.063,438.477,370.063z"/>
<path fill="#FFFFFF" d="M454.1,372.553c2.035,1.174,2.035,4.108,0,5.282l-0.602,0.349c-2.034,1.174-4.576-0.291-4.576-2.643v-0.693
	c0-2.348,2.542-3.814,4.576-2.644L454.1,372.553z"/>
<path fill="#FFFFFF" d="M422.865,377.835c-2.034-1.174-2.034-4.108,0-5.282l0.603-0.349c2.035-1.177,4.576,0.296,4.576,2.644v0.693
	c0,2.352-2.541,3.816-4.576,2.643L422.865,377.835z"/>
<ellipse fill="#2E2E2E" cx="438.102" cy="388.248" rx="9.152" ry="1.525"/>
<path fill="#F0EFEF" d="M433.346,387.857h10.268v18.135c0,2.839-2.301,5.136-5.134,5.136l0,0c-2.833,0-5.134-2.297-5.134-5.136
	V387.857z"/>
<path fill="#F15D45" d="M438.482,401.547L438.482,401.547c1.323,0,2.396,1.072,2.396,2.396v1.367c0,1.323-1.073,2.398-2.396,2.398
	l0,0c-1.322,0-2.395-1.075-2.395-2.398v-1.367C436.088,402.619,437.16,401.547,438.482,401.547z"/>
<path fill="none" stroke="#7C8F9E" stroke-width="6" d="M435.19,466.994c0,0,14.804-0.93,14.804-11.779
	c0-14.134-8.073-19.854-26.244-18.171c-22.498,2.083-47.178,9.078-47.178,9.078"/>
<path fill="none" stroke="#7C8F9E" stroke-width="6" stroke-linecap="round" d="M377.76,418.725c0,0,27.611-11.589,28.941,3.046
	c1.346,14.804-28.268,9.741-28.268,9.741"/>
<path fill="#8D9EAE" d="M367.215,447.468h62.452c5.057,0,9.153,4.097,9.153,9.153v30.822c0,5.053-4.097,9.152-9.153,9.152h-62.452
	c-5.054,0-9.153-4.1-9.153-9.152v-30.822C358.062,451.564,362.161,447.468,367.215,447.468z"/>
<path fill="#A8B9CA" d="M364.164,447.468h68.554c3.37,0,6.103,2.732,6.103,6.103v33.558c0,3.369-2.732,6.101-6.103,6.101h-68.554
	c-3.367,0-6.103-2.731-6.103-6.101V453.57C358.062,450.2,360.797,447.468,364.164,447.468z"/>
<path fill="#8C9FAE" d="M364.164,447.468h68.554c3.37,0,6.103,2.732,6.103,6.103v29.521c0,3.369-2.732,6.102-6.103,6.102h-68.554
	c-3.367,0-6.103-2.732-6.103-6.102V453.57C358.062,450.2,360.797,447.468,364.164,447.468z"/>
<path fill="#BACBDB" d="M358.062,450.52c0-1.687,1.365-3.052,3.052-3.052h74.947c1.564,0,2.869,1.184,2.965,2.748
	c0.452,7.489,0.881,27.95-7.608,31.237c-6.729,2.603-14.617,2.386-15.415,2.355c-0.046,0-0.09,0-0.138,0h-54.751
	c-1.687,0-3.052-1.367-3.052-3.051V450.52z"/>
<path fill="#A8B9CA" d="M358.062,457.604c0-3.366,2.732-6.102,6.103-6.102h62.526c2.783,0,5.209,1.883,5.637,4.631
	c0.859,5.49,1.503,14.538-2.258,19.596c-5.226,7.031-13.445,7.967-14.657,8.068c-0.102,0.009-0.2,0.012-0.305,0.012h-50.943
	c-3.37,0-6.103-2.734-6.103-6.101V457.604z"/>
<path fill="#808C96" fill-opacity="0.4" d="M325.541,396.994h43.52c8.423,0,15.254,6.829,15.254,15.254v75.147
	c0,8.426-6.831,15.254-15.254,15.254h-43.52c-8.425,0-15.254-6.828-15.254-15.254v-75.147
	C310.287,403.823,317.116,396.994,325.541,396.994z"/>
<path fill="#D3D3D3" d="M322.174,396.994h43.521c8.422,0,15.253,6.829,15.253,15.254v75.147c0,8.426-6.831,15.254-15.253,15.254
	h-43.521c-8.425,0-15.252-6.828-15.252-15.254v-75.147C306.922,403.823,313.749,396.994,322.174,396.994z"/>
<path fill="#697884" d="M322.174,396.994h43.521c8.422,0,15.253,6.829,15.253,15.254v69.091c0,8.423-6.831,15.254-15.253,15.254
	h-43.521c-8.425,0-15.252-6.831-15.252-15.254v-69.091C306.922,403.823,313.749,396.994,322.174,396.994z"/>
<path fill="#E4E4E4" d="M337.428,469.091h12.203c1.687,0,3.051,1.365,3.051,3.051v12.203c0,1.687-1.364,3.051-3.051,3.051h-12.203
	c-1.686,0-3.05-1.364-3.05-3.051v-12.203C334.378,470.456,335.742,469.091,337.428,469.091z"/>
<path fill="#E4E4E4" d="M325.81,411.798h36.924c3.37,0,6.102,2.732,6.102,6.103v39.614c0,3.372-2.731,6.101-6.102,6.101H325.81
	c-3.37,0-6.103-2.729-6.103-6.101V417.9C319.707,414.53,322.439,411.798,325.81,411.798z"/>
<path fill="#010101" d="M342.257,425.479v4.809l-1.844-1.847v-2.5l1.155-1.155L342.257,425.479z M340.413,422.926v-2.503
	l1.844-1.848v4.81l-0.688,0.712L340.413,422.926z"/>
<path fill="#010101" d="M352.667,418.225l-1.845,1.859h-3.477l-1.844-1.859H352.667z M352.667,430.642h-7.165l1.844-1.844h3.477
	L352.667,430.642z M346.988,425.94v2.5l-1.845,1.847v-4.809l0.691-0.693L346.988,425.94z M351.159,422.926v-2.503l1.844-1.848v4.81
	l-0.691,0.712L351.159,422.926z M351.052,423.51l0.921,0.924l-0.921,0.923h-3.938l-0.924-0.923l0.924-0.924H351.052z"/>
<path fill="#010101" d="M362.597,418.225l-1.848,1.859h-3.476l-1.845-1.859H362.597z M362.597,430.642h-7.168l1.845-1.844h3.476
	L362.597,430.642z M356.918,425.94v2.5l-1.844,1.847v-4.809l0.693-0.693L356.918,425.94z M355.074,423.385v-4.81l1.844,1.848v2.503
	l-1.15,1.171L355.074,423.385z M362.936,425.479v4.809l-1.847-1.847v-2.5l1.153-1.155L362.936,425.479z M361.089,422.926v-2.503
	l1.847-1.848v4.81l-0.693,0.712L361.089,422.926z"/>
<path fill="#010101" d="M355.127,435.354l-1.4,1.412h-2.636l-1.4-1.412H355.127z M355.127,444.775h-5.437l1.4-1.4h2.636
	L355.127,444.775z M350.822,441.206v1.901l-1.4,1.4v-3.65l0.525-0.524L350.822,441.206z M349.422,439.271v-3.647l1.4,1.4v1.895
	l-0.875,0.888L349.422,439.271z M355.387,440.857v3.65l-1.403-1.4v-1.901l0.876-0.873L355.387,440.857z M353.983,438.918v-1.895
	l1.403-1.4v3.647l-0.527,0.535L353.983,438.918z M353.903,439.365l0.699,0.696l-0.699,0.701h-2.988l-0.7-0.701l0.7-0.696H353.903z"
	/>
<path fill="#010101" d="M362.661,435.354l-1.399,1.412h-2.637l-1.403-1.412H362.661z M362.661,444.775h-5.439l1.403-1.4h2.637
	L362.661,444.775z M358.354,441.206v1.901l-1.399,1.4v-3.65l0.527-0.524L358.354,441.206z M356.954,439.271v-3.647l1.399,1.4v1.895
	l-0.872,0.888L356.954,439.271z M362.918,440.857v3.65l-1.4-1.4v-1.901l0.877-0.873L362.918,440.857z M361.518,438.918v-1.895
	l1.4-1.4v3.647l-0.523,0.535L361.518,438.918z"/>
<path fill="#010101" d="M357.398,451.384l-1.017,1.027h-1.918l-1.02-1.027H357.398z M357.585,455.385v2.654l-1.019-1.019v-1.38
	l0.638-0.639L357.585,455.385z M356.566,453.976v-1.38l1.019-1.02v2.655l-0.381,0.39L356.566,453.976z"/>
<path fill="#010101" d="M362.877,451.384l-1.02,1.027h-1.918l-1.016-1.027H362.877z M362.877,458.235h-3.953l1.016-1.02h1.918
	L362.877,458.235z M359.742,455.641v1.38l-1.013,1.019v-2.654l0.381-0.383L359.742,455.641z M362.042,453.976v-1.38l1.019-1.02
	v2.655l-0.381,0.39L362.042,453.976z M361.986,454.297l0.509,0.513l-0.509,0.506h-2.172l-0.51-0.506l0.51-0.513H361.986z"/>
<line fill="none" stroke="#E61E25" stroke-linecap="round" x1="325.946" y1="418.034" x2="325.946" y2="423.733"/>
<line fill="none" stroke="#ED2224" stroke-linecap="round" x1="325.946" y1="428.804" x2="325.946" y2="434.5"/>
<line fill="none" stroke="#FEE600" stroke-linecap="round" x1="325.946" y1="438.899" x2="325.946" y2="444.594"/>
<line fill="none" stroke="#51B848" stroke-linecap="round" x1="325.946" y1="449.664" x2="325.946" y2="455.363"/>
<path fill="#010101" d="M344.966,451.509c-0.411,0.032-0.802,0.202-1.104,0.494c-0.178,0.17-0.297,0.33-0.404,0.549
	c-0.158,0.314-0.206,0.571-0.194,1.024c0.007,0.277,0.021,0.413,0.069,0.607c0.102,0.408,0.301,0.787,0.655,1.257
	c0.438,0.581,1.133,1.275,2.032,2.038c0.357,0.301,0.926,0.757,0.94,0.757c0.019,0,0.585-0.456,0.942-0.757
	c0.985-0.834,1.712-1.573,2.15-2.193c0.343-0.488,0.53-0.923,0.587-1.354c0.021-0.158,0.029-0.552,0.015-0.71
	c-0.038-0.461-0.244-0.885-0.583-1.212c-0.325-0.313-0.713-0.477-1.168-0.5c-0.427-0.024-0.858,0.125-1.245,0.431
	c-0.232,0.183-0.507,0.486-0.649,0.722l-0.046,0.065l-0.073-0.104c-0.269-0.405-0.638-0.744-1.014-0.93
	C345.582,451.548,345.281,451.484,344.966,451.509z"/>
<path fill="#989798" d="M343.282,472.169c-0.183,0.045-0.286,0.098-0.455,0.244c-0.097,0.087-0.171,0.183-0.219,0.277l-0.077,0.149
	v2.592v2.588l0.068,0.132c0.375,0.739,1.484,0.739,1.859,0l0.068-0.132v-2.588v-2.592l-0.077-0.149
	c-0.08-0.164-0.298-0.375-0.468-0.452C343.773,472.142,343.521,472.119,343.282,472.169z M340.265,474.047
	c-0.411,0.073-1.258,0.779-1.784,1.495c-0.573,0.774-0.937,1.695-1.034,2.624c-0.036,0.353-0.019,1.079,0.041,1.406
	c0.054,0.322,0.173,0.744,0.286,1.03c0.131,0.332,0.471,0.957,0.674,1.24c0.959,1.328,2.467,2.204,4.23,2.46
	c0.214,0.03,0.446,0.042,0.852,0.042c0.742,0,1.198-0.065,1.859-0.262c1.325-0.394,2.46-1.187,3.223-2.24
	c0.203-0.283,0.543-0.908,0.674-1.24c0.113-0.286,0.232-0.708,0.286-1.03c0.057-0.327,0.077-1.054,0.042-1.406
	c-0.117-1.087-0.578-2.133-1.329-2.996c-0.363-0.412-1.013-0.948-1.308-1.067c-0.492-0.202-1.055,0-1.309,0.468
	c-0.077,0.143-0.083,0.176-0.08,0.381c0,0.337,0.063,0.463,0.33,0.694c0.752,0.649,1.002,0.927,1.259,1.4
	c0.294,0.549,0.416,1.025,0.416,1.639c0,0.667-0.125,1.168-0.44,1.734c-0.506,0.907-1.299,1.537-2.351,1.861
	c-0.474,0.146-0.712,0.18-1.272,0.18s-0.799-0.033-1.272-0.18c-1.069-0.33-1.873-0.979-2.386-1.928
	c-0.28-0.512-0.405-1.036-0.405-1.662c0-0.774,0.227-1.447,0.706-2.097c0.161-0.222,0.587-0.635,0.933-0.906
	c0.286-0.229,0.399-0.471,0.372-0.805C341.433,474.326,340.869,473.936,340.265,474.047z"/>
<path fill="#D3D3D3" d="M343.529,292.151h33.559c5.052,0,9.151,4.098,9.151,9.151v64.065c0,5.052-4.1,9.151-9.151,9.151h-33.559
	c-5.052,0-9.151-4.1-9.151-9.151v-64.065C334.378,296.249,338.478,292.151,343.529,292.151z"/>
<path fill="#697884" d="M340.479,292.151h33.558c5.054,0,9.152,4.098,9.152,9.151v64.065c0,5.052-4.099,9.151-9.152,9.151h-33.558
	c-5.053,0-9.151-4.1-9.151-9.151v-64.065C331.327,296.249,335.426,292.151,340.479,292.151z"/>
<path fill="#E4E4E4" d="M352.682,353.164h9.152c1.687,0,3.051,1.365,3.051,3.051v9.153c0,1.686-1.364,3.05-3.051,3.05h-9.152
	c-1.686,0-3.051-1.364-3.051-3.05v-9.153C349.631,354.529,350.996,353.164,352.682,353.164z"/>
<path fill="#989798" d="M357.073,356.236c-0.138,0.033-0.215,0.075-0.34,0.182c-0.072,0.065-0.131,0.138-0.167,0.208l-0.056,0.113
	v1.942v1.943l0.05,0.095c0.286,0.558,1.107,0.558,1.394,0l0.052-0.095v-1.943v-1.942l-0.058-0.113
	c-0.062-0.122-0.226-0.28-0.351-0.339C357.442,356.215,357.249,356.197,357.073,356.236z M354.812,357.643
	c-0.313,0.057-0.944,0.587-1.344,1.123c-0.426,0.578-0.696,1.269-0.771,1.966c-0.029,0.263-0.013,0.812,0.026,1.059
	c0.043,0.241,0.132,0.553,0.218,0.771c0.099,0.25,0.355,0.715,0.504,0.926c0.721,0.999,1.853,1.657,3.173,1.848
	c0.163,0.023,0.337,0.033,0.641,0.033c0.554,0,0.9-0.049,1.395-0.197c0.994-0.295,1.847-0.888,2.419-1.684
	c0.149-0.211,0.405-0.676,0.503-0.926c0.087-0.219,0.177-0.53,0.218-0.771c0.039-0.247,0.057-0.796,0.026-1.059
	c-0.086-0.813-0.432-1.6-0.997-2.245c-0.269-0.311-0.757-0.71-0.979-0.799c-0.369-0.155-0.791,0-0.982,0.351
	c-0.056,0.104-0.06,0.132-0.06,0.287c0,0.25,0.048,0.345,0.248,0.518c0.568,0.489,0.75,0.694,0.943,1.053
	c0.222,0.407,0.313,0.769,0.313,1.229c0,0.501-0.095,0.87-0.331,1.299c-0.382,0.679-0.978,1.153-1.764,1.395
	c-0.357,0.107-0.53,0.137-0.953,0.137s-0.597-0.029-0.954-0.137c-0.805-0.247-1.405-0.732-1.787-1.442
	c-0.211-0.387-0.307-0.78-0.307-1.251c0-0.581,0.17-1.085,0.526-1.573c0.123-0.164,0.441-0.477,0.704-0.679
	c0.214-0.173,0.298-0.353,0.277-0.603C355.685,357.854,355.262,357.563,354.812,357.643z"/>
<path fill="#E4E4E4" d="M346.58,304.354h21.354c3.37,0,6.102,2.732,6.102,6.101v30.508c0,3.369-2.731,6.102-6.102,6.102H346.58
	c-3.369,0-6.102-2.732-6.102-6.102v-30.508C340.479,307.086,343.211,304.354,346.58,304.354z"/>
<path fill="#010101" d="M354.32,313.505l-1.897,1.829h-3.578l-1.898-1.829H354.32z M354.32,325.708h-7.374l1.898-1.812h3.578
	L354.32,325.708z M346.58,318.579v-4.725l1.897,1.814v2.454l-1.188,1.149L346.58,318.579z M354.666,320.635v4.726l-1.895-1.815
	v-2.455l1.186-1.135L354.666,320.635z M352.771,318.123v-2.454l1.895-1.814v4.725l-0.709,0.693L352.771,318.123z M352.661,318.701
	l0.95,0.906l-0.95,0.905h-4.056l-0.946-0.905l0.946-0.906H352.661z"/>
<path fill="#010101" d="M364.539,313.505l-1.9,1.829h-3.578l-1.898-1.829H364.539z M364.539,325.708h-7.377l1.898-1.812h3.578
	L364.539,325.708z M358.693,321.09v2.455l-1.895,1.815v-4.726l0.709-0.68L358.693,321.09z M356.799,318.579v-4.725l1.895,1.814
	v2.454l-1.186,1.149L356.799,318.579z M364.885,320.635v4.726l-1.898-1.815v-2.455l1.189-1.135L364.885,320.635z M362.986,318.123
	v-2.454l1.898-1.814v4.725l-0.709,0.693L362.986,318.123z M362.877,318.701l0.946,0.906l-0.946,0.905h-4.053l-0.95-0.905l0.95-0.906
	H362.877z"/>
<path fill="#010101" d="M360.749,331.81l-1.293,1.374h-2.434l-1.29-1.374H360.749z M360.988,337.157v3.543l-1.293-1.359v-1.844
	l0.804-0.85L360.988,337.157z M359.695,335.274v-1.844l1.293-1.359v3.542l-0.489,0.524L359.695,335.274z"/>
<path fill="#010101" d="M367.7,331.81l-1.294,1.374h-2.434l-1.293-1.374H367.7z M367.7,340.962h-5.021l1.293-1.359h2.434
	L367.7,340.962z M362.436,335.613v-3.542l1.29,1.359v1.844l-0.808,0.863L362.436,335.613z M367.935,337.157v3.543l-1.29-1.359
	v-1.844l0.805-0.85L367.935,337.157z M366.567,335.707l0.647,0.678l-0.647,0.68h-2.756l-0.644-0.68l0.644-0.678H366.567z"/>
<path fill="#010101" d="M347.986,334.863c-0.34,0.029-0.662,0.188-0.909,0.444c-0.151,0.161-0.247,0.304-0.336,0.5
	c-0.131,0.292-0.17,0.519-0.161,0.933c0.006,0.254,0.018,0.376,0.06,0.548c0.083,0.373,0.244,0.716,0.537,1.142
	c0.363,0.526,0.935,1.155,1.679,1.847c0.293,0.274,0.76,0.686,0.775,0.686c0.015,0,0.483-0.411,0.774-0.686
	c0.816-0.757,1.409-1.424,1.772-1.986c0.283-0.444,0.438-0.838,0.486-1.231c0.018-0.143,0.023-0.5,0.012-0.641
	c-0.036-0.42-0.203-0.801-0.483-1.099c-0.268-0.28-0.589-0.436-0.965-0.456c-0.348-0.021-0.703,0.116-1.024,0.393
	c-0.191,0.165-0.418,0.438-0.536,0.653l-0.033,0.063l-0.063-0.098c-0.22-0.367-0.53-0.674-0.835-0.841
	C348.492,334.902,348.245,334.843,347.986,334.863z"/>
</svg>
