<?xml version="1.0" encoding="utf-8"?>
<!-- Generator: Adobe Illustrator 16.0.0, SVG Export Plug-In . SVG Version: 6.00 Build 0)  -->
<!DOCTYPE svg PUBLIC "-//W3C//DTD SVG 1.1//EN" "http://www.w3.org/Graphics/SVG/1.1/DTD/svg11.dtd">
<svg version="1.1" id="Layer_1" xmlns="http://www.w3.org/2000/svg" xmlns:xlink="http://www.w3.org/1999/xlink" x="0px" y="0px"
	 width="512px" height="512px" viewBox="0 0 512 512" enable-background="new 0 0 512 512" xml:space="preserve">
<path fill="none" stroke="#F48220" stroke-width="8" stroke-linecap="round" d="M96.208,504.333H66.441
	c0,0-7.442-70.698,34.729-81.858c55.314-14.64,122.792-28.53,122.792-28.53s3.721,34.729,35.969,33.489
	c32.249-1.24,32.249-33.489,32.249-33.489s96.672,23.884,117.83,28.527c50.854,11.163,40.931,81.861,40.931,81.861H147.062"/>
<path fill="none" stroke="#F48220" stroke-width="8" d="M163.186,158.768c2.562,2.071,5.686,4.332,9.377,6.556
	c12.038,7.255,30.065,14.101,54.146,12.798c23.708-1.282,44.149-8,58.628-14.365c3.66-1.609,6.947-3.199,9.818-4.678
	c-2.665,5.316-5.877,10.813-9.167,14.515c-3.997,4.496-10.599,9.145-16.536,12.797c-2.906,1.788-5.547,3.272-7.457,4.308
	c-0.953,0.518-1.723,0.921-2.248,1.193c-0.264,0.136-0.466,0.237-0.6,0.305l-0.146,0.075l-0.035,0.017l-0.006,0.002v0.001l0,0
	h-0.001l-17.075,8.49l19.05,0.907l0.235-4.956c-0.235,4.956-0.235,4.957-0.235,4.957h0.005h0.01l0.024,0.001l0.077,0.002
	c0.063,0.003,0.155,0.006,0.267,0.009c0.229,0.007,0.553,0.016,0.969,0.021c0.828,0.009,2.03,0.009,3.552-0.032
	c3.042-0.08,7.384-0.322,12.675-0.964c10.562-1.28,24.98-4.16,40.378-10.578c15.916-6.63,26.361-20.733,32.822-32.924V266.5
	c-0.095,0.239-0.211,0.532-0.347,0.869c-0.45,1.119-1.119,2.75-1.977,4.768c-1.725,4.041-4.22,9.622-7.304,15.775
	c-6.243,12.451-14.625,26.705-23.612,35.509c-20.877,20.456-35.448,34.201-62.101,33.316c-23.737-0.787-36.099-12.708-54.306-30.269
	c-1.045-1.008-2.11-2.035-3.197-3.077c-9.307-8.941-18.312-23.256-25.103-35.692c-3.36-6.153-6.114-11.73-8.028-15.761
	c-0.956-2.016-1.701-3.644-2.204-4.763c-0.134-0.301-0.252-0.563-0.351-0.785V158.768z"/>
<path fill="none" stroke="#F48220" stroke-width="8" d="M349.233,252.548c19.864,0,35.969-16.104,35.969-35.969
	s-16.104-35.969-35.969-35.969"/>
<path fill="none" stroke="#F48220" stroke-width="8" d="M166.906,180.61c-19.865,0-35.969,16.104-35.969,35.969
	s16.104,35.969,35.969,35.969"/>
<path fill="none" stroke="#F48220" stroke-width="8" stroke-linecap="round" d="M173.108,65.26
	c-28.157,9.758-47.132,34.26-47.132,65.737c0,21.106,9.089,40.089,23.566,53.248"/>
<path fill="none" stroke="#F48220" stroke-width="8" stroke-linecap="round" d="M371.193,186.813
	c8.05-11.618,12.769-25.723,12.769-40.93c0-19.873-6.816-36.594-19.845-49.614"/>
<path fill="none" stroke="#F48220" stroke-width="8" stroke-linecap="round" d="M364.117,96.268
	c1.378-5.561,2.48-11.377,2.48-17.364c0-39.73-32.207-71.938-71.938-71.938c-16.306,0-27.624,3.259-39.69,12.403"/>
<path fill="none" stroke="#F48220" stroke-width="8" stroke-linecap="round" d="M252.488,20.435
	c-4.028-0.702-8.173-1.066-12.403-1.066c-30.544,0-56.642,19.036-67.078,45.892"/>
<path fill="none" stroke="#F48220" stroke-width="8" stroke-linecap="round" d="M245.923,65.624c0,0-4.598,10.8,2.844,18.242
	c7.441,7.442,18.604,2.48,18.604,2.48"/>
<path fill="none" stroke="#F48220" stroke-width="8" stroke-linecap="round" d="M195.797,86.709c0,0,10.799,4.598,18.241-2.844
	s2.48-18.605,2.48-18.605"/>
<path fill="none" stroke="#F48220" stroke-width="8" stroke-linecap="round" d="M216.388,134.98c0,0,4.598-10.8-2.844-18.242
	s-18.605-2.48-18.605-2.48"/>
<path fill="none" stroke="#F48220" stroke-width="8" stroke-linecap="round" d="M266.518,113.89c0,0-10.801-4.598-18.243,2.844
	c-7.442,7.442-2.48,18.605-2.48,18.605"/>
<path fill="none" stroke="#F48220" stroke-width="8" stroke-linecap="round" d="M229.411,349.947c0,0,1.989,15.676,0,25.393
	c-1.401,6.86-6.04,16.875-6.04,16.875"/>
<path fill="none" stroke="#F48220" stroke-width="8" stroke-linecap="round" d="M285.977,354.255c0,0-0.612,9.351,1.238,18.616
	c1.24,6.207,6.202,19.851,6.202,19.851"/>
<path fill="none" stroke="#F48220" stroke-width="8" stroke-linecap="round" d="M83.328,118.069l28.441,34.061l-29.478-0.678
	l31.392,36.157"/>
<path fill="none" stroke="#F48220" stroke-width="8" stroke-linecap="round" d="M442.855,111.154l-28.023,27.017l22.476,7.147
	l-32.587,31.501"/>
<path fill="none" stroke="#F48220" stroke-width="8" d="M194.862,397.656c0,0-2.51,59.535,66.021,59.54
	c67.33,0.007,63.566-57.048,63.566-57.048"/>
</svg>
