<?xml version="1.0" encoding="utf-8"?>
<!-- Generator: Adobe Illustrator 16.0.0, SVG Export Plug-In . SVG Version: 6.00 Build 0)  -->
<!DOCTYPE svg PUBLIC "-//W3C//DTD SVG 1.1//EN" "http://www.w3.org/Graphics/SVG/1.1/DTD/svg11.dtd">
<svg version="1.1" id="Layer_1" xmlns="http://www.w3.org/2000/svg" xmlns:xlink="http://www.w3.org/1999/xlink" x="0px" y="0px"
	 width="512px" height="512px" viewBox="0 0 512 512" enable-background="new 0 0 512 512" xml:space="preserve">
<ellipse fill="#D7D6D6" cx="244.715" cy="453.692" rx="238.495" ry="13.184"/>
<line fill="none" stroke="#F1F0F1" stroke-width="6" stroke-linecap="round" x1="99.333" y1="73.786" x2="118.731" y2="93.185"/>
<line fill="none" stroke="#F1F0F1" stroke-width="6" stroke-linecap="round" x1="98.274" y1="93.185" x2="117.672" y2="73.786"/>
<line fill="none" stroke="#F1F0F1" stroke-width="6" stroke-linecap="round" x1="372.948" y1="380.645" x2="392.347" y2="400.043"/>
<line fill="none" stroke="#F1F0F1" stroke-width="6" stroke-linecap="round" x1="371.89" y1="400.043" x2="391.288" y2="380.645"/>
<circle fill="#FFFFFF" cx="283.668" cy="228.494" r="6.393"/>
<circle fill="#FFFFFF" cx="268.324" cy="238.723" r="6.393"/>
<circle fill="none" stroke="#F1F0F1" stroke-width="6" cx="48.409" cy="195.251" r="8.95"/>
<circle fill="none" stroke="#F1F0F1" stroke-width="6" cx="296.453" cy="62.279" r="8.95"/>
<path fill="#451F13" d="M290.061,170.255c0,0.456-0.008,1.357-0.008,1.357s-8.897,8.644-16.297,9.495
	c-6.535,0.751-16.305-4.069-16.305-4.069s-15.592-0.814-25.522,0c-9.794,0.803-14.982,3.873-24.811,4.069
	c-11.195,0.225-17.16-4.2-28.357-4.069c-8.378,0.099-13.445,5.586-21.268,2.713c-4.962-1.823-10.627-8.139-10.627-8.139
	s-0.006-0.901-0.006-1.357c0-54.69,32.057-99.026,71.6-99.026C258.004,71.229,290.061,115.565,290.061,170.255z"/>
<path fill="#C45B2F" d="M197.943,197.678c0,0-8.207-5.276-12.198-9.929c-4.541-5.295-8.61-15.603-8.61-15.603l-2.154-2.837
	c0,0-2.08,1.49-3.587,1.418c-2.799-0.131-3.045-3.2-4.305-5.674c-1.804-3.542-2.743-6.007-2.152-9.929
	c0.352-2.341,0.576-3.894,2.152-5.674c0.923-1.042,1.486-1.916,2.871-2.128c1.141-0.175,2.869,0.709,2.869,0.709
	s-0.915-10.436,0-17.021c0.871-6.257,4.307-15.603,4.307-15.603s3.812,2.792,6.458,4.255c5.955,3.294,9.695,5.21,16.503,5.674
	c4.786,0.326,7.529-0.337,12.199-1.418c8.423-1.949,20.091-9.22,20.091-9.22s6.23,8.2,11.481,12.057
	c5.735,4.211,16.506,7.801,16.506,7.801v14.894c0,0,1.523-1.738,2.867-2.128c1.079-0.311,1.808-0.351,2.872,0
	c1.503,0.496,2.127,1.452,2.869,2.837c1.179,2.203,0.387,3.919,0,6.383c-0.313,1.993-0.759,3.062-1.436,4.964
	c0,0-1.074,4.312-2.87,6.383c-1.166,1.346-1.825,2.508-3.588,2.837c-1.403,0.261-3.586-0.709-3.586-0.709s-0.445,1.295-0.72,2.128
	c-0.904,2.75-0.969,4.447-2.151,7.092c-1.792,4.006-3.587,5.674-6.458,8.511c-2.386,2.358-2.974,3.765-5.741,5.674
	c-2.263,1.561-6.458,4.255-6.458,4.255v12.057c0,0,1.879,1.615,2.871,2.837c1.414,1.742,2.229,2.823,2.871,4.964
	c0.795,2.655,0.614,4.39,0,7.092c-0.771,3.386-1.789,5.38-4.305,7.801c-3.059,2.942-5.895,3.274-10.046,4.255
	c-4.097,0.968-6.55,0.751-10.763,0.709c-3.654-0.037-5.783,0.16-9.329-0.709c-2.929-0.719-4.716-1.109-7.176-2.837
	c-2.429-1.706-3.586-3.095-5.023-5.674c-1.411-2.533-1.812-4.22-2.153-7.092c-0.229-1.925,0-4.965,0-4.965s0.347-2.873,1.436-4.255
	c0.859-1.094,3.586-2.128,3.586-2.128V197.678z"/>
<path fill="#C45B2F" d="M120.585,303.676c0,0,11.925,2.894,19.235,5.729c7.199,2.792,12.566,2.906,17.815,8.593
	c4.746,5.14,7.125,16.469,7.125,16.469s-2.38,4.715-3.562,7.877c-2.019,5.396-2.082,8.75-3.563,14.321
	c-1.569,5.9-1.272,9.727-4.275,15.038c-2.342,4.141-3.693,7-7.837,9.308c-2.774,1.545-4.671,1.942-7.837,2.147
	c-5.187,0.337-8.137-1.321-12.825-3.579c-6.941-3.344-9.428-7.514-14.962-12.888c-8.942-8.686-13.399-14.204-20.663-24.348
	c-4.825-6.738-6.877-10.958-11.4-17.9c-3.845-5.908-9.974-15.038-9.974-15.038s-14.231-3.271-23.512-3.581
	c0,0-16.39,0.714-28.502,2.861c-8.55,0.72-12.827,0.72-12.11-2.861c0.809-4.048,5.399-3.608,9.262-5.013
	c4.517-1.641,7.358-1.458,12.112-2.149c4.987-0.722,9.977-0.714,12.825-1.431s2.606-0.313,4.275-1.432c0,0,1.422-1.678,1.422-2.866
	c0-1.185-0.478-2.15-1.422-2.862c-2.111-1.593-3.775-2.864-6.416-2.864c-4.274,0-7.125-1.431-7.125-5.012s14.36,1.509,24.937,1.431
	c4.174-0.032,7.838,0.717,12.826,0c3.406-0.489,4.274-0.717,8.552,0c2.53,0.425,3.928,1.948,4.987,4.298
	c1.034,2.292,0,6.442,0,6.442l37.05,28.644L120.585,303.676z"/>
<path fill="#C45B2F" d="M314.546,312.766c0,0-6.181,2.402-10.079,4.101c-10.097,4.395-19.041,3.608-25.109,12.86
	c-3.064,4.677-4.64,13.575-4.64,13.575s0.294,5.571,1.418,8.575c1.918,5.127,1.818,5.938,3.222,11.228
	c1.493,5.606,1.209,9.242,4.061,14.289c2.223,3.931,3.506,6.647,7.446,8.84c2.632,1.469,4.433,1.848,7.442,2.043
	c4.924,0.314,7.726-1.259,12.176-3.401c6.593-3.177,8.955-7.142,14.212-12.246c8.493-8.246,12.724-13.495,19.623-23.13
	c4.582-6.397,6.53-10.408,10.828-17.006c3.65-5.608,9.472-14.286,9.472-14.286s13.516-3.106,22.33-3.401
	c0,0,15.563,0.682,27.07,2.72c8.116,0.682,12.176,0.682,11.497-2.72c-0.767-3.844-5.127-3.427-8.795-4.763
	c-4.291-1.556-6.99-1.383-11.503-2.04c-4.734-0.687-9.474-0.679-12.181-1.36c-2.705-0.68-2.476-0.298-4.061-1.359
	c0,0-1.349-1.593-1.349-2.722c0-1.128,0.452-2.045,1.349-2.722c2.008-1.511,3.586-2.72,6.093-2.72c4.061,0,6.768-1.36,6.768-4.763
	c0-3.4-13.638,1.437-23.684,1.361c-3.966-0.029-7.441,0.68-12.182,0c-3.233-0.465-4.056-0.682-8.121,0
	c-2.402,0.402-3.73,1.851-4.734,4.08c-0.984,2.181,0,6.124,0,6.124l-35.186,27.212L314.546,312.766z"/>
<path display="none" fill="#F47A20" d="M156.398,329.961c-1.744-1.081-2.923-1.283-4.793-2.107
	c-6.709-2.967-11.024-3.606-17.122-7.731c-5.061-3.426-7.709-5.804-11.642-10.541c-1.736-2.085-4.109-5.621-4.109-5.621
	s1.708-6.843,2.74-11.242c1.41-6.019,1.98-9.444,3.423-15.458c1.257-5.234,2.215-8.104,3.425-13.35
	c1.195-5.185,1.5-8.176,2.739-13.351c1.595-6.663,2.225-10.531,4.795-16.865c1.608-3.964,2.874-6.02,4.793-9.836
	c2.085-4.146,2.505-7.012,5.479-10.54c1.86-2.206,3.037-3.425,5.479-4.919c2.905-1.778,4.866-2.34,8.218-2.811
	c4.536-0.636,7.181,0.356,11.642,1.406c4.7,1.105,7.079,2.624,11.644,4.215c2.402,0.839,4.16,3.707,6.164,2.109
	c0.761-0.608,1.369-2.109,1.369-2.109s1.403-2.084,2.739-2.811c2.128-1.155,6.165,0,6.165,0s-3.074,3.98-3.425,7.027
	c-0.318,2.779,0.247,4.476,1.37,7.026c1.949,4.425,4.721,6.162,8.904,8.432c4.129,2.241,6.974,2.698,11.642,2.811
	c5.191,0.126,8.528-0.124,13.013-2.811c4.585-2.746,8.06-5.162,8.903-10.54c0.767-4.883-4.109-11.945-4.109-11.945
	s2.566-0.448,4.109,0c3.296,0.958,2.147,6.213,5.479,7.027c2.717,0.663,4.276-0.993,6.849-2.108
	c4.784-2.074,6.007-6.125,10.957-7.73c5.102-1.652,8.732-2.038,13.699,0c4.23,1.735,5.767,4.341,8.905,7.73
	c5.464,5.905,7.082,10.456,10.955,17.565c4.613,8.467,6.855,13.443,10.271,22.485c3.641,9.631,5.823,15.115,7.537,25.297
	c2.317,13.792,0,35.835,0,35.835s-11.053,5.639-17.809,9.837c-5.773,3.588-10.28,4.337-14.384,9.839
	c-3.803,5.099-5.477,15.458-5.477,15.458l-4.11-25.297c0,0-4.807,20.903-4.11,34.432c0.489,9.459,2.063,14.65,4.11,23.891
	c3.679,16.584,13.016,41.456,13.016,41.456s-25.196-12.431-42.464-12.646c-14.793-0.19-22.381,10.878-36.982,8.431
	c-8.529-1.429-11.983-7.237-20.546-8.431c-13.112-1.836-32.874,8.431-32.874,8.431s10.371-23.901,14.383-40.051
	c2.019-8.139,3.592-12.701,4.108-21.081c0.646-10.464-2.739-26.703-2.739-26.703l-4.793,6.325c0,0-1.485-2.712-2.74-4.215
	C159.588,332.254,158.511,331.265,156.398,329.961z"/>
<path fill="#66230F" d="M77.816,296.259c0,0-7.441-3.411-16.621-3.411c-9.18,0-16.622,3.411-16.622,3.411s7.441-5.114,16.622-5.114
	C70.375,291.145,77.816,296.259,77.816,296.259z"/>
<path fill="#66230F" d="M359.104,306.487c0,0,6.867-5.114,15.343-5.114s15.343,5.114,15.343,5.114s-6.867-7.671-15.343-7.671
	S359.104,306.487,359.104,306.487z"/>
<path fill="#9A4121" d="M198.003,196.53c0,0,4.613,4.563,7.961,5.914c2.725,1.099,4.367,2.229,7.237,2.534
	c4.231,0.45,6.751,0.435,10.855-0.845c4.274-1.332,12.304-7.603,12.304-7.603v14.36c0,0-15.885,2.696-23.884-0.844
	c-3.544-1.569-5.559-2.561-8.684-5.068C200.988,202.727,198.003,196.53,198.003,196.53z"/>
<path fill="#535353" d="M121.288,183.947l8.803-5.318l7.644,19.283l-3.667,2.216L121.288,183.947z"/>
<path fill="#535353" d="M121.288,183.947l8.803-5.318l7.644,19.283l-3.667,2.216L121.288,183.947z"/>
<path fill="#535353" d="M108.502,203.562l3.715-9.589l17.837,10.585l-1.547,3.996L108.502,203.562z"/>
<path fill="#535353" d="M108.502,203.562l3.715-9.589l17.837,10.585l-1.547,3.996L108.502,203.562z"/>
<line fill="none" stroke="#E81D25" stroke-width="10" stroke-linecap="round" x1="400.147" y1="137.499" x2="453.436" y2="169.086"/>
<line fill="none" stroke="#E81D25" stroke-width="10" stroke-linecap="round" x1="411.857" y1="180.038" x2="442.721" y2="125.149"/>
<path fill="#E6E6E5" d="M422.229,93.375l-33.955,9.289l-23.271-6.181c-33.288-8.839-33.123-8.917-40.635,18.785l-1.269,4.675
	l-8.795,2.53c-10.811,3.113-12.581,4.041-14.898,7.806c-2.782,4.525-2.283,9.447,2.919,28.932
	c2.609,9.771,4.747,18.605,4.747,19.634c0.005,1.029-1.938,9.121-4.317,17.981c-4.835,18.014-4.817,20.993,0.157,25.658
	c3.406,3.191,5.264,4.068,11.654,5.49c2.949,0.657,5.722,1.652,6.161,2.211c0.441,0.56,2.821,8.802,5.289,18.315
	c4.115,15.844,4.771,17.582,7.841,20.724c5.846,5.988,6.068,5.964,45.702-4.715l35.218-9.493l22.862,6.152
	c23.566,6.338,26.073,6.633,30.854,3.588c3.391-2.157,5.047-5.539,8.118-16.566l2.906-10.443l8.783-2.529
	c10.803-3.115,12.571-4.043,14.889-7.807c2.781-4.525,2.282-9.446-2.92-28.931c-2.609-9.771-4.747-18.606-4.747-19.635
	c-0.005-1.029,1.938-9.121,4.318-17.981c3.808-14.193,4.207-16.549,3.341-19.783c-1.187-4.435-6.051-9.007-10.945-10.29
	c-1.923-0.504-4.93-1.276-6.678-1.714c-1.748-0.439-3.531-1.411-3.955-2.162c-0.425-0.749-2.832-9.081-5.345-18.514
	c-4.854-18.208-6.136-20.698-11.909-23.173c-1.646-0.705-4.157-1.25-5.581-1.21C457.344,84.055,440.897,88.268,422.229,93.375z
	 M456.588,103.453c1.246,0.904,3.034,2.677,3.97,3.939c1.936,2.604,27.712,98.25,27.712,102.823c0,4.235-2.537,8.99-5.911,11.083
	c-1.61,0.998-31.167,9.421-65.684,18.719c-48.321,13.016-63.484,16.768-65.922,16.309c-3.756-0.71-8.823-4.926-10.238-8.523
	c-0.56-1.416-6.718-24.033-13.69-50.259c-13.542-50.937-13.829-52.624-9.858-58.226c1.078-1.521,3.226-3.294,4.774-3.938
	c1.546-0.644,30.543-8.682,64.438-17.862C450.566,100.078,451.641,99.864,456.588,103.453z M358.042,109.14
	c2.051,0.615,1.666,0.891-3.254,2.327c-16.432,4.798-16.821,4.849-14.321,1.801C344.12,108.827,351.345,107.128,358.042,109.14z
	 M371.195,194.343c-8.351,1.649-13.745,8.711-16.422,21.484c-1.748,8.359-1.898,26.134-0.22,26.111
	c3.676-0.05,108.06-29.032,109.596-30.429c2.354-2.142,2.354-7.092-0.003-9.235c-5.064-4.606-18.579-5.556-32.863-2.309
	c-10.491,2.385-16.722,2.004-30.477-1.863C384.146,193.422,379.102,192.781,371.195,194.343z M463.157,242.727
	c0,1.01-3.641,4.322-6.22,5.655c-2.248,1.164-8.775,1.251-12.387,0.167c-2.05-0.615-1.666-0.891,3.254-2.331
	c3.071-0.898,7.467-2.196,9.77-2.883C462.703,241.803,463.157,241.753,463.157,242.727z"/>
</svg>
