<?xml version="1.0" encoding="utf-8"?>
<!-- Generator: Adobe Illustrator 16.0.0, SVG Export Plug-In . SVG Version: 6.00 Build 0)  -->
<!DOCTYPE svg PUBLIC "-//W3C//DTD SVG 1.1//EN" "http://www.w3.org/Graphics/SVG/1.1/DTD/svg11.dtd">
<svg version="1.1" id="Layer_1" xmlns="http://www.w3.org/2000/svg" xmlns:xlink="http://www.w3.org/1999/xlink" x="0px" y="0px"
	 width="128px" height="128px" viewBox="0 0 128 128" enable-background="new 0 0 128 128" xml:space="preserve">
<rect x="-2" y="-2.495" display="none" fill="#0A0A0A" width="133.5" height="133.167"/>
<path fill="none" stroke="#F48121" stroke-width="4" d="M101.88,103.875v3.442c0,8.596-6.968,15.563-15.563,15.563H27.521
	c-8.596,0-15.564-6.968-15.564-15.563V28.546c0-8.594,6.968-15.564,15.564-15.564h13.896"/>
<path fill="none" stroke="#F48121" stroke-width="4" d="M69.094,12.982h17.223c8.596,0,15.563,6.97,15.563,15.564v33.016"/>
<path fill="none" stroke="#F48121" stroke-width="4" d="M50.74,4.245h9.384c4.774,0,8.646,3.871,8.646,8.646v3.357
	c0,4.773-3.872,8.646-8.646,8.646H50.74c-4.776,0-8.647-3.873-8.647-8.646v-3.357C42.093,8.116,45.964,4.245,50.74,4.245z"/>
<path display="none" fill="#F48121" d="M27.279,42.438c-0.732-0.615-1.822-0.518-2.437,0.214c-0.613,0.731-0.517,1.822,0.214,2.435
	L27.279,42.438z M41.796,41.381c0.672-0.679,0.665-1.773-0.014-2.445c-0.679-0.67-1.773-0.665-2.445,0.014L41.796,41.381z
	 M32.094,48.73l-1.111,1.326l1.221,1.023l1.12-1.133L32.094,48.73z M25.057,45.087l5.926,4.969l2.223-2.651l-5.926-4.967
	L25.057,45.087z M33.323,49.946l8.473-8.565l-2.459-2.432l-8.473,8.565L33.323,49.946z"/>
<path display="none" fill="#F48121" d="M86.991,50.124c0.912,0,1.724-0.802,1.798-1.792c0.081-0.988-0.602-1.791-1.517-1.791
	L86.991,50.124z M55.331,46.542c-0.917,0-1.722,0.802-1.802,1.791c-0.078,0.989,0.603,1.792,1.518,1.792L55.331,46.542z
	 M55.047,50.124h31.944l0.281-3.582H55.331L55.047,50.124z"/>
<path display="none" fill="#F48121" d="M27.279,63.629c-0.732-0.615-1.822-0.519-2.437,0.214c-0.613,0.731-0.517,1.822,0.214,2.436
	L27.279,63.629z M41.796,62.571c0.672-0.679,0.665-1.773-0.014-2.445c-0.679-0.671-1.773-0.666-2.445,0.013L41.796,62.571z
	 M32.094,69.921l-1.111,1.327l1.221,1.021l1.12-1.132L32.094,69.921z M25.057,66.278l5.926,4.97l2.223-2.654l-5.926-4.965
	L25.057,66.278z M33.323,71.137l8.473-8.565l-2.459-2.432l-8.473,8.565L33.323,71.137z"/>
<path display="none" fill="#F48121" d="M55.331,73.423c-0.917,0-1.722,0.805-1.802,1.794c-0.078,0.99,0.603,1.79,1.518,1.79
	L55.331,73.423z M55.047,77.007h6.023l0.053-3.584h-6.022L55.047,77.007z"/>
<path display="none" fill="#F48121" d="M27.279,84.819c-0.732-0.614-1.822-0.521-2.437,0.216c-0.613,0.73-0.517,1.821,0.214,2.433
	L27.279,84.819z M41.796,83.762c0.672-0.679,0.665-1.772-0.014-2.445c-0.679-0.672-1.773-0.665-2.445,0.015L41.796,83.762z
	 M32.094,91.111l-1.111,1.327l1.221,1.021l1.12-1.131L32.094,91.111z M25.057,87.468l5.926,4.971l2.223-2.654l-5.926-4.965
	L25.057,87.468z M33.323,92.328l8.473-8.566l-2.459-2.431l-8.473,8.564L33.323,92.328z"/>
<path display="none" fill="#F48121" d="M55.331,97.894c-0.917,0-1.722,0.8-1.802,1.793c-0.078,0.987,0.603,1.79,1.518,1.79
	L55.331,97.894z M55.05,101.477h18.769l0.166-3.583H55.216L55.05,101.477z"/>
<path display="none" fill="none" stroke="#F48121" stroke-width="4" d="M89.019,65.667L89.019,65.667v0.002l0,0l1.232,1.31
	l1.257-1.284l0,0l0,0l0.003-0.002l0,0l0.003-0.006l0.044-0.044c0.049-0.042,0.115-0.107,0.217-0.195
	c0.196-0.176,0.5-0.432,0.898-0.734c0.805-0.604,1.986-1.38,3.492-2.048c2.985-1.33,7.229-2.233,12.331-0.52
	c4.09,1.371,6.705,3.607,8.326,6.328c1.645,2.756,2.351,6.146,2.351,9.926c0,8.23-4.351,12.611-11.335,19.641l-0.02,0.013
	c-3.099,3.121-7.678,6.526-11.552,9.185c-1.922,1.319-3.647,2.441-4.891,3.231c-0.446,0.284-0.831,0.523-1.139,0.717
	c-0.334-0.19-0.749-0.433-1.239-0.717c-1.317-0.773-3.142-1.871-5.167-3.178c-4.091-2.631-8.896-6.026-12.089-9.238
	c-6.947-6.99-11.13-11.604-11.353-19.7c-0.104-3.813,0.437-6.888,1.702-9.487c1.26-2.593,3.301-4.848,6.419-6.919
	c5.167-3.439,10.173-2.598,14.05-0.794c1.952,0.907,3.58,2.047,4.722,2.965c0.571,0.458,1.013,0.856,1.311,1.135
	c0.149,0.141,0.26,0.249,0.331,0.321l0.078,0.078L89.019,65.667L89.019,65.667z"/>
</svg>
