<?xml version="1.0" encoding="utf-8"?>
<!-- Generator: Adobe Illustrator 16.0.0, SVG Export Plug-In . SVG Version: 6.00 Build 0)  -->
<!DOCTYPE svg PUBLIC "-//W3C//DTD SVG 1.1//EN" "http://www.w3.org/Graphics/SVG/1.1/DTD/svg11.dtd">
<svg version="1.1" id="Layer_1" xmlns="http://www.w3.org/2000/svg" xmlns:xlink="http://www.w3.org/1999/xlink" x="0px" y="0px"
	 width="128px" height="128px" viewBox="0 0 128 128" enable-background="new 0 0 128 128" xml:space="preserve">
<line display="none" fill="none" stroke="#F48121" stroke-width="3" x1="24.478" y1="35.338" x2="24.478" y2="49.181"/>
<circle display="none" fill="none" stroke="#F48121" stroke-width="4" cx="24.38" cy="22.56" r="12.802"/>
<circle display="none" fill="none" stroke="#F48121" stroke-width="4" cx="24.437" cy="61.943" r="12.802"/>
<path display="none" fill="none" stroke="#F48121" stroke-width="4" d="M11.578,105.842c0-7.075,5.731-12.807,12.801-12.807
	c7.071,0,12.803,5.731,12.803,12.807c0,7.068-5.731,12.8-12.803,12.8C17.31,118.642,11.578,112.91,11.578,105.842z"/>
<path fill="#F48121" stroke="#F48121" stroke-width="2" d="M51.093,18.31h63.239c1.663,0,3.011,1.531,3.011,3.42l0,0
	c0,1.888-1.348,3.42-3.011,3.42H51.093c-1.664,0-3.01-1.532-3.01-3.42l0,0C48.083,19.84,49.429,18.31,51.093,18.31z"/>
<path fill="#F48121" stroke="#F48121" stroke-width="2" d="M51.093,103.817h63.239c1.663,0,3.011,1.528,3.011,3.419l0,0
	c0,1.892-1.348,3.42-3.011,3.42H51.093c-1.664,0-3.01-1.528-3.01-3.42l0,0C48.083,105.346,49.429,103.817,51.093,103.817z"/>
<path fill="#F48121" stroke="#F48121" stroke-width="2" d="M51.093,59.353H90.24c1.666,0,3.011,1.531,3.011,3.42l0,0
	c0,1.89-1.345,3.421-3.011,3.421H51.093c-1.664,0-3.01-1.531-3.01-3.421l0,0C48.083,60.884,49.429,59.353,51.093,59.353z"/>
<line display="none" fill="none" stroke="#F48121" stroke-width="3" x1="24.437" y1="74.324" x2="24.437" y2="93.029"/>
</svg>
