<?xml version="1.0" encoding="utf-8"?>
<!-- Generator: Adobe Illustrator 16.0.0, SVG Export Plug-In . SVG Version: 6.00 Build 0)  -->
<!DOCTYPE svg PUBLIC "-//W3C//DTD SVG 1.1//EN" "http://www.w3.org/Graphics/SVG/1.1/DTD/svg11.dtd">
<svg version="1.1" id="Layer_1" xmlns="http://www.w3.org/2000/svg" xmlns:xlink="http://www.w3.org/1999/xlink" x="0px" y="0px"
	 width="128px" height="128px" viewBox="0 0 128 128" enable-background="new 0 0 128 128" xml:space="preserve">
<rect x="-2" y="-2.495" display="none" fill="#0A0A0A" width="133.5" height="133.167"/>
<g>
	<path fill="none" stroke="#F28121" stroke-width="4" stroke-linecap="round" d="M44.896,95.502"/>
	<path fill="none" stroke="#F28121" stroke-width="4" stroke-linecap="round" d="M44.896,42V10.161c0-4.011,3.252-7.263,7.263-7.263
		h54.476c4.012,0,7.264,3.252,7.264,7.263v85.341c0,4.01-3.252,7.262-7.264,7.262H52.159c-2.801,0-5.231-1.586-6.443-3.906"/>
	<path fill="none" stroke="#F28121" stroke-width="4" d="M84.12,13.429h17.794c1.002,0,1.815,0.813,1.815,1.815V33.04
		c0,1.003-0.813,1.815-1.815,1.815H84.12c-1.003,0-1.817-0.813-1.817-1.815V15.245C82.303,14.242,83.117,13.429,84.12,13.429z"/>
	<line fill="none" stroke="#F28121" stroke-width="4" x1="82.667" y1="22.146" x2="103.003" y2="22.146"/>
	<line fill="none" stroke="#F28121" stroke-width="4" x1="93.198" y1="21.782" x2="93.198" y2="34.855"/>
	<line fill="none" stroke="#F28121" stroke-width="4" stroke-linecap="round" x1="100.461" y1="50.471" x2="100.461" y2="86.423"/>
	<line fill="none" stroke="#F28121" stroke-width="4" stroke-linecap="round" x1="91.746" y1="50.471" x2="91.746" y2="59.55"/>
	<line fill="none" stroke="#F28121" stroke-width="4" stroke-linecap="round" x1="83.394" y1="50.471" x2="83.394" y2="72.985"/>
	<path fill="#F28121" d="M55.79,2.897h12.349v35.259c0,0-0.702-1.957-5.215-3.875c-2.424-1.031-7.134,0.178-7.134,0.178V2.897z"/>
	<path fill="#F28121" d="M68.139,102.583H55.79V83.5c0,0,0.518-2.397,0.502-3.208C56.083,69.834,56.455,69.26,58,66.251
		c1.397-2.72,6.417-10.126,6.417-10.126l3.722-5.833V102.583z"/>
</g>
<path display="none" fill="none" stroke="#B9B9BA" stroke-width="4" stroke-linecap="round" d="M37.956,97.465l4.601-1.738
	c7.064-2.669,11.741-9.433,11.741-16.985V73.4c0-3.493,1.007-6.911,2.901-9.845l9.581-14.844c2.307-3.573,1.578-8.307-1.698-11.02
	l0,0c-3.763-3.118-9.381-2.377-12.208,1.607L40.665,56.507c-1.054,1.486-2.542,2.605-4.26,3.207l0,0
	c-2.873,1.005-5.021,3.427-5.674,6.399l-0.946,4.296"/>
<path display="none" fill="none" stroke="#B9B9BA" stroke-width="4" stroke-linecap="round" d="M60.688,106.886l-0.958,1.598
	c-0.677,1.129-1.035,2.421-1.035,3.737v5.069c0,4.012-3.252,7.264-7.263,7.264H23.833c-4.011,0-7.263-3.252-7.263-7.264V64.75
	c0-3.691,1.406-7.244,3.93-9.936l19.708-21.013"/>
</svg>
