<?xml version="1.0" encoding="utf-8"?>
<!-- Generator: Adobe Illustrator 16.0.0, SVG Export Plug-In . SVG Version: 6.00 Build 0)  -->
<!DOCTYPE svg PUBLIC "-//W3C//DTD SVG 1.1//EN" "http://www.w3.org/Graphics/SVG/1.1/DTD/svg11.dtd">
<svg version="1.1" id="Layer_1" xmlns="http://www.w3.org/2000/svg" xmlns:xlink="http://www.w3.org/1999/xlink" x="0px" y="0px"
	 width="128px" height="128px" viewBox="0 0 128 128" enable-background="new 0 0 128 128" xml:space="preserve">
<rect x="-2" y="-2.495" display="none" fill="#0A0A0A" width="133.5" height="133.167"/>
<g display="none">
	<path display="inline" fill="none" stroke="#C0C0C1" stroke-width="4" stroke-linecap="round" d="M40.335,99.979H24.157
		c-10.211,0-18.49-8.275-18.49-18.488V28.325c0-10.211,8.279-18.49,18.49-18.49h80.894c10.213,0,18.49,8.279,18.49,18.49v53.163
		c0,10.213-8.277,18.49-18.49,18.49H71.537"/>
	<path display="inline" fill="none" stroke="#C0C0C1" stroke-width="4" stroke-linecap="round" d="M40.335,99.979v20.804
		l31.202-20.804"/>
	<path display="inline" fill="#F48121" d="M30.434,44.569c5.227,0,9.468,4.241,9.468,9.467c0,5.227-4.241,9.477-9.468,9.477
		c-5.226,0-9.467-4.25-9.467-9.477C20.967,48.81,25.208,44.569,30.434,44.569z"/>
	<path display="inline" fill="#F48121" d="M64.811,44.569c5.229,0,9.467,4.241,9.467,9.467c0,5.227-4.238,9.477-9.467,9.477
		c-5.239,0-9.475-4.25-9.475-9.477C55.336,48.81,59.571,44.569,64.811,44.569z"/>
	<path display="inline" fill="#F48121" d="M99.18,44.569c5.228,0,9.467,4.241,9.467,9.467c0,5.227-4.239,9.477-9.467,9.477
		c-5.227,0-9.468-4.25-9.468-9.477C89.712,48.81,93.953,44.569,99.18,44.569z"/>
</g>
<path fill="none" stroke="#B9B9BA" stroke-width="4" d="M100.351,114.145h4.439c4.904,0,8.88-3.974,8.88-8.877V12.481
	c0-4.905-3.976-8.88-8.88-8.88H34.648c-4.905,0-8.879,3.975-8.879,8.88v6.659"/>
<path fill="none" stroke="#B9B9BA" stroke-width="4" d="M93.692,124.801H23.549c-3.678,0-6.66-2.981-6.66-6.659V25.355
	c0-3.678,2.981-6.659,6.66-6.659h51.103c1.787,0,3.498,0.717,4.75,1.99l10.263,10.44l0.002,0.002l8.779,8.951
	c1.221,1.246,1.904,2.92,1.904,4.663v73.399C100.351,121.819,97.369,124.801,93.692,124.801z"/>
<path fill="none" stroke="#B9B9BA" stroke-width="4" d="M75.934,20.028v24.417h23.974"/>
<path display="none" fill="#F28121" d="M38.041,68.968v3.003h-12.43v-2.546l5.808-6.153c0.542-0.625,0.975-1.178,1.297-1.656
	c0.33-0.477,0.568-0.91,0.716-1.297c0.148-0.396,0.223-0.757,0.223-1.087c0-0.536-0.086-0.989-0.26-1.36
	c-0.164-0.37-0.407-0.655-0.729-0.853s-0.712-0.295-1.173-0.295c-0.494,0-0.918,0.126-1.273,0.382
	c-0.354,0.256-0.626,0.61-0.815,1.063c-0.189,0.444-0.284,0.951-0.284,1.519h-3.88c0-1.094,0.264-2.091,0.791-2.99
	c0.527-0.906,1.265-1.626,2.212-2.163c0.947-0.543,2.055-0.814,3.323-0.814c1.302,0,2.393,0.206,3.275,0.617
	c0.881,0.412,1.549,1.001,2.001,1.767c0.453,0.767,0.68,1.689,0.68,2.768c0,0.61-0.099,1.199-0.297,1.768
	c-0.19,0.568-0.466,1.132-0.828,1.693c-0.363,0.559-0.799,1.131-1.31,1.717c-0.51,0.576-1.087,1.187-1.729,1.83l-2.719,3.088H38.041
	z"/>
<path display="none" fill="#F28121" d="M59.776,67.979l4.002-14h4.486l-6.166,17.992H59.17L59.776,67.979z M56.131,53.979l3.99,14
	l0.63,3.991h-2.965l-6.129-17.992H56.131z"/>
<path display="none" fill="#F28121" d="M74.047,53.979v17.992h-4.018V53.979H74.047z"/>
<path display="none" fill="#F28121" d="M84.992,57.403l-4.645,14.567h-4.3l6.659-17.992h2.719L84.992,57.403z M88.848,71.971
	L84.19,57.403l-0.482-3.424h2.756l6.684,17.992H88.848z M88.65,65.273v3.114h-9.377v-3.114H88.65z"/>
<path display="none" fill="#F28121" d="M44.814,60.191v-3.622c0-0.255-0.039-0.474-0.116-0.655
	c-0.079-0.182-0.201-0.325-0.367-0.429c-0.167-0.104-0.383-0.156-0.647-0.156c-0.224,0-0.419,0.039-0.586,0.117
	c-0.161,0.078-0.286,0.189-0.375,0.336c-0.083,0.145-0.124,0.325-0.124,0.539h-2.436c0-0.38,0.086-0.734,0.258-1.062
	c0.171-0.328,0.416-0.616,0.733-0.867c0.322-0.249,0.707-0.442,1.155-0.577c0.448-0.14,0.95-0.21,1.505-0.21
	c0.662,0,1.25,0.112,1.764,0.336c0.521,0.218,0.932,0.548,1.233,0.99c0.301,0.438,0.452,0.989,0.452,1.655v3.536
	c0,0.509,0.029,0.91,0.085,1.201c0.063,0.285,0.151,0.536,0.267,0.75v0.132h-2.458c-0.115-0.244-0.2-0.546-0.258-0.905
	C44.843,60.934,44.814,60.564,44.814,60.191z M45.119,57.053l0.015,1.342h-1.21c-0.27,0-0.504,0.034-0.703,0.102
	c-0.192,0.068-0.348,0.161-0.467,0.281c-0.12,0.114-0.208,0.249-0.266,0.405c-0.051,0.151-0.077,0.317-0.077,0.5
	c0,0.172,0.042,0.328,0.125,0.468c0.084,0.135,0.198,0.243,0.344,0.321s0.314,0.117,0.507,0.117c0.317,0,0.587-0.063,0.812-0.188
	c0.228-0.124,0.405-0.276,0.53-0.453c0.124-0.182,0.187-0.351,0.187-0.507l0.585,1.014c-0.093,0.209-0.207,0.425-0.343,0.647
	c-0.136,0.219-0.308,0.425-0.515,0.617c-0.209,0.187-0.461,0.341-0.757,0.459c-0.292,0.121-0.644,0.18-1.053,0.18
	c-0.532,0-1.013-0.106-1.444-0.32c-0.432-0.218-0.778-0.518-1.039-0.898c-0.254-0.379-0.382-0.817-0.382-1.311
	c0-0.442,0.081-0.836,0.242-1.179c0.161-0.342,0.403-0.634,0.726-0.873c0.328-0.239,0.738-0.419,1.232-0.539
	c0.495-0.125,1.071-0.187,1.732-0.187H45.119z"/>
<path display="none" fill="none" stroke="#F28121" stroke-width="4" d="M28.877,84.845h59.931c1.228,0,2.222,0.994,2.222,2.22
	v20.865c0,1.229-0.994,2.22-2.222,2.22H28.877c-1.227,0-2.22-0.991-2.22-2.22V87.064C26.657,85.839,27.65,84.845,28.877,84.845z"/>
<line display="none" fill="none" stroke="#F28121" stroke-width="4" stroke-linecap="round" x1="36.868" y1="92.835" x2="36.868" y2="102.159"/>
<line display="none" fill="none" stroke="#F28121" stroke-width="4" stroke-linecap="round" x1="45.746" y1="92.835" x2="45.746" y2="102.159"/>
<line display="none" fill="none" stroke="#F28121" stroke-width="4" stroke-linecap="round" x1="54.626" y1="92.835" x2="54.626" y2="102.159"/>
<line display="none" fill="none" stroke="#F28121" stroke-width="4" stroke-linecap="round" x1="63.502" y1="92.835" x2="63.502" y2="102.159"/>
<line display="none" fill="none" stroke="#F28121" stroke-width="4" stroke-linecap="round" x1="72.383" y1="92.835" x2="72.383" y2="102.159"/>
<line display="none" fill="none" stroke="#F28121" stroke-width="4" stroke-linecap="round" x1="81.262" y1="92.835" x2="81.262" y2="102.159"/>
</svg>
