<?xml version="1.0" encoding="utf-8"?>
<!-- Generator: Adobe Illustrator 16.0.0, SVG Export Plug-In . SVG Version: 6.00 Build 0)  -->
<!DOCTYPE svg PUBLIC "-//W3C//DTD SVG 1.1//EN" "http://www.w3.org/Graphics/SVG/1.1/DTD/svg11.dtd">
<svg version="1.1" id="Layer_1" xmlns="http://www.w3.org/2000/svg" xmlns:xlink="http://www.w3.org/1999/xlink" x="0px" y="0px"
	 width="128px" height="128px" viewBox="0 0 128 128" enable-background="new 0 0 128 128" xml:space="preserve">
<g id="seu_x5F_historico_x5F_two" display="none">
	<path display="inline" fill="none" stroke="#737375" stroke-width="4" stroke-linecap="round" stroke-miterlimit="10" d="
		M64.435,117.84c-31.749,0-57.485-25.738-57.485-57.486c0-31.749,25.737-57.485,57.485-57.485c31.75,0,57.485,25.737,57.485,57.485"
		/>
	
		<polygon display="inline" fill="#737375" stroke="#737375" stroke-width="2" stroke-linecap="round" stroke-linejoin="round" stroke-miterlimit="10" points="
		64.68,109.318 81.219,116.412 66.221,126.359 	"/>
</g>
<g id="seu_x5F_historico_x5F_one" display="none">
	
		<line display="inline" fill="none" stroke="#F48121" stroke-width="4" stroke-linecap="round" stroke-miterlimit="10" x1="62.731" y1="29.662" x2="62.731" y2="72.045"/>
	
		<line display="inline" fill="none" stroke="#F48121" stroke-width="4" stroke-linecap="round" stroke-miterlimit="10" x1="62.837" y1="72.045" x2="99.754" y2="72.045"/>
</g>
<line id="mudanca_x5F_de_x5F_habitos_3_" display="none" fill="none" stroke="#737375" stroke-width="4" stroke-linecap="round" stroke-miterlimit="10" x1="57.949" y1="2.454" x2="57.949" y2="42.935"/>
<path id="mudanca_x5F_de_x5F_habitos_2_" display="none" fill="none" stroke="#737375" stroke-width="4" stroke-linecap="square" stroke-miterlimit="10" d="
	M85.721,117.018c-3.497,3.766-7.098,4.489-11,5.121c-7.31,1.182-16.771-4.215-16.771-4.215s-8.029,5.675-14.072,3.855
	c-21.783-6.556-37.012-32.884-37.012-52.05c0-11.484,1.748-28.659,19.855-33.718c23.517-6.57,31.228,6.924,31.228,6.924
	s9.253-13.755,32.963-8.727c7.72,1.637,20.4,6.936,20.482,26.092"/>
<path id="mudanca_x5F_de_x5F_habitos_1_" display="none" fill="none" stroke="#F48121" stroke-width="3" stroke-linecap="round" stroke-miterlimit="10" d="
	M123.508,80.53c0,17.604-32.174,39.047-32.174,39.047S59.75,98.135,59.75,80.53c0-10.783,5.597-18.929,15.934-19.508
	c14.587-0.815,15.867,7.126,17.252,7.084c1.199-0.035,3.403-6.274,15.037-5.883C120.554,62.646,123.508,72.95,123.508,80.53z"/>
<path id="mudanca_x5F_de_x5F_habitos" display="none" fill="#F48121" d="M81.177,25.12c-7.761,4.13-23.228,2.328-23.228,2.328
	s4.804-13.931,10.892-18.231c12.145-8.578,24.962-3.518,24.962-3.518S88.695,21.12,81.177,25.12z"/>
<path id="como_x5F_voce_x5F_esta_x5F_se_x5F_sentindo_4_" display="none" fill="none" stroke="#737375" stroke-width="4" stroke-miterlimit="10" d="
	M54.531,20.141c7.605,0.359,14.442,3.118,14.647,14.088c0.123,6.642,0,29.725,0,29.725c0,16.774-13.601,30.374-30.376,30.374h-1.043
	c-16.775,0-30.374-13.6-30.374-30.374c0,0-0.128-21.193-0.042-25.982c0.221-12.41,6.194-16.288,13.284-17.286"/>
<path id="como_x5F_voce_x5F_esta_x5F_se_x5F_sentindo_3_" display="none" fill="none" stroke="#737375" stroke-width="3" stroke-miterlimit="10" d="
	M37.759,94.328c0,0,3.125,17.132,24.988,15.847c15.94-0.938,24.646-10.983,25.316-29.467c0.837-23.131-4.956-36.701,2.367-40.585
	c15.606-8.278,18.938,10.74,18.938,10.74"/>
<circle id="como_x5F_voce_x5F_esta_x5F_se_x5F_sentindo_2_" display="none" fill="#F48121" cx="21.221" cy="20.928" r="8.036"/>
<circle id="como_x5F_voce_x5F_esta_x5F_se_x5F_sentindo_1_" display="none" fill="#F48121" cx="53.782" cy="20.928" r="8.036"/>
<circle id="como_x5F_voce_x5F_esta_x5F_se_x5F_sentindo" display="none" fill="none" stroke="#F48121" stroke-width="4" stroke-miterlimit="10" cx="112.805" cy="59.771" r="9.554"/>
<path id="Medicamento_5_" display="none" fill="none" stroke="#737375" stroke-width="4" stroke-linecap="round" d="
	M107.859,118.444c0,0-5.608-3.24-10.705-4.498c-5.095-1.25-36.343,2.677-41.943,1.339c-5.598-1.339-13.505-4.711-21.139-9.608
	C22.285,98.114,8.923,80.111,8.923,80.111s5.097-3.762,9.776-2.676c4.679,1.084,22.642,16.945,25.649,16.945
	c3.009,0,14.547,0,14.547,0"/>
<path id="Medicamento_4_" display="none" fill="none" stroke="#737375" stroke-width="4" stroke-linecap="round" d="M89.219,98.575
	l-25.151-2.007c0,0-5.099,0.884-5.599-5.261c-0.499-6.152,4.427-5.604,13.366-6.688c8.94-1.087,18.472-2.921,25.908-2.339
	c7.434,0.583,24.274,12.377,24.274,12.377"/>
<path id="Medicamento_3_" fill="none" stroke="#F48121" stroke-width="4" d="M56.363,36.232V25.22
	c0-8.729,7.076-15.807,15.808-15.807l0,0c8.729,0,15.803,7.078,15.803,15.807v34.148c0,8.73-7.074,15.805-15.803,15.805l0,0
	c-4.586,0-8.715-1.955-11.603-5.073"/>
<line id="Medicamento_2_" fill="none" stroke="#F48121" stroke-width="4" x1="64.308" y1="44.44" x2="88.035" y2="44.44"/>
<path id="Medicamento_1_" fill="none" stroke="#F48121" stroke-width="4" d="M45.706,33.317c11.555,0,20.925,9.371,20.925,20.928
	c0,11.559-9.37,20.928-20.925,20.928c-11.561,0-20.931-9.369-20.931-20.928C24.775,42.688,34.145,33.317,45.706,33.317z"/>
<line id="Medicamento" fill="none" stroke="#F48121" stroke-width="4" x1="30.219" y1="38.928" x2="60.956" y2="67.953"/>
</svg>
