<?xml version="1.0" encoding="utf-8"?>
<!-- Generator: Adobe Illustrator 16.0.0, SVG Export Plug-In . SVG Version: 6.00 Build 0)  -->
<!DOCTYPE svg PUBLIC "-//W3C//DTD SVG 1.1//EN" "http://www.w3.org/Graphics/SVG/1.1/DTD/svg11.dtd">
<svg version="1.1" id="Layer_1" xmlns="http://www.w3.org/2000/svg" xmlns:xlink="http://www.w3.org/1999/xlink" x="0px" y="0px"
	 width="128px" height="128px" viewBox="0 0 128 128" enable-background="new 0 0 128 128" xml:space="preserve">
<rect x="-2" y="-2.495" display="none" fill="#0A0A0A" width="133.5" height="133.167"/>
<path display="none" fill="none" stroke="#C0C0C1" stroke-width="4" d="M71.5,103.465l-40.517,10.531
	c-2.669,0.716-5.411-0.866-6.125-3.535L3.787,31.823c-0.714-2.667,0.87-5.409,3.536-6.124l39.275-10.524
	c2.67-0.714,5.411,0.87,6.127,3.536l5.752,21.468"/>
<line display="none" fill="none" stroke="#C0C0C1" stroke-width="0.5" stroke-linecap="round" x1="30.033" y1="29.393" x2="45.292" y2="83.884"/>
<path display="none" fill="none" stroke="#ACACAC" stroke-width="4" d="M87.086,101.076c0.029,0.255,0.045,0.514,0.045,0.776l0,0
	c0,3.682-2.985,6.668-6.668,6.668H77.13c-3.683,0-6.668-2.986-6.668-6.668l0,0c0-0.356,0.028-0.706,0.082-1.047"/>
<path display="none" fill="none" stroke="#ACACAC" stroke-width="4" d="M72.129,30.175c0-3.682,2.985-6.667,6.668-6.667l0,0
	c3.682,0,6.667,2.985,6.667,6.667"/>
<path display="none" fill="none" stroke="#F48121" stroke-width="4" d="M67.128,98.519"/>
<path display="none" fill="none" stroke="#F48121" stroke-width="4" d="M78.797,108.521"/>
<path display="none" fill="none" stroke="#F48121" stroke-width="4" d="M90.465,98.519"/>
<path fill="none" stroke="#F48121" stroke-width="4" stroke-linecap="round" d="M94.033,25.479l2.513,0.69
	c12.482,3.427,19.824,16.326,16.396,28.81l0,0"/>
<path fill="none" stroke="#F48121" stroke-width="4" stroke-linecap="round" d="M98.447,15.173l3.23,0.887
	c16.054,4.408,25.495,20.996,21.087,37.051l0,0"/>
<path fill="#F48121" d="M19.72,38.988c5.434,5.272,5.434,5.272,5.434,5.272s-5.153,4.333-9.722-0.236
	c-4.674-4.673-0.333-9.611-0.333-9.611S15.054,34.459,19.72,38.988z"/>
<path fill="#F48121" d="M21.051,39.157c-5.434-5.272-5.434-5.272-5.434-5.272s5.153-4.333,9.722,0.236
	c4.674,4.674,0.333,9.611,0.333,9.611S25.718,43.686,21.051,39.157z"/>
<path fill="#F48121" d="M41.511,31.305c5.434,5.272,5.434,5.272,5.434,5.272s-5.153,4.333-9.722-0.236
	c-4.674-4.673-0.333-9.611-0.333-9.611S36.844,26.776,41.511,31.305z"/>
<path fill="#F48121" d="M42.842,31.473c-5.434-5.272-5.434-5.272-5.434-5.272s5.153-4.333,9.722,0.236
	c4.674,4.674,0.333,9.611,0.333,9.611S47.508,36.002,42.842,31.473z"/>
<path fill="#F48121" d="M25.156,58.63c5.434,5.273,5.434,5.273,5.434,5.273s-5.153,4.333-9.722-0.237
	c-4.674-4.674-0.333-9.611-0.333-9.611S20.49,54.101,25.156,58.63z"/>
<path fill="#F48121" d="M26.487,58.799c-5.434-5.272-5.434-5.272-5.434-5.272s5.152-4.333,9.722,0.236
	c4.673,4.674,0.333,9.611,0.333,9.611S31.154,63.328,26.487,58.799z"/>
<path fill="#F48121" d="M47.74,50.607c5.434,5.272,5.434,5.272,5.434,5.272s-5.153,4.333-9.722-0.236
	c-4.674-4.674-0.333-9.611-0.333-9.611S43.073,46.078,47.74,50.607z"/>
<path fill="#F48121" d="M49.071,50.775c-5.434-5.272-5.434-5.272-5.434-5.272s5.153-4.333,9.722,0.236
	c4.674,4.674,0.334,9.611,0.334,9.611S53.738,55.305,49.071,50.775z"/>
<path fill="#F48121" d="M31.355,78.088c5.434,5.272,5.434,5.272,5.434,5.272s-5.153,4.332-9.722-0.237
	c-4.674-4.674-0.333-9.61-0.333-9.61S26.689,73.559,31.355,78.088z"/>
<path fill="#F48121" d="M32.687,78.256c-5.434-5.272-5.434-5.272-5.434-5.272s5.153-4.333,9.722,0.235
	c4.674,4.674,0.333,9.611,0.333,9.611S37.353,82.784,32.687,78.256z"/>
<path fill="#F48121" d="M53.373,70.177c0,0-1.999,6.597-2.721,6.266c-0.553-0.253-1.049-0.712-1.566-1.229
	c-4.674-4.673-0.333-9.611-0.333-9.611S48.706,65.647,53.373,70.177z"/>
<path fill="#F48121" d="M53.179,68.866c-3.909-3.793-3.909-3.793-3.909-3.793s1.746-1.469,4.106-1.795
	C55.07,63.045,53.632,69.307,53.179,68.866z"/>
<path fill="#F48121" d="M38.229,96.334c5.434,5.272,5.434,5.272,5.434,5.272s-5.152,4.333-9.722-0.237
	c-4.674-4.674-0.333-9.61-0.333-9.61S33.562,91.805,38.229,96.334z"/>
<path fill="#F48121" d="M39.666,96.502c-5.434-5.272-5.434-5.272-5.434-5.272s4.528-3.809,8.859-0.521
	c0.289,0.219,0.639,0.419,0.863,0.756c0.352,0.53-0.102,2.664,0.171,3.73c0.425,1.658,1.867,2.75,1.373,3.888
	c-0.531,1.223-1.21,1.994-1.21,1.994S44.333,101.031,39.666,96.502z"/>
<path display="none" fill="none" stroke="#ACACAC" stroke-width="4" d="M103.937,99.775l-0.064-0.007H103.8H51.709
	c-9.024,0-13.11-11.284-6.179-17.06l2.715-2.263c3.249-2.709,5.131-6.723,5.131-10.955V54.554c0-13.464,10.913-24.379,24.379-24.379
	c13.465,0,24.378,10.915,24.378,24.379V69.85c0,3.998,1.681,7.813,4.627,10.516l4.05,3.711
	C117.174,89.91,112.538,100.491,103.937,99.775z"/>
</svg>
