<svg width="384" height="512" viewBox="0 0 384 512" fill="none" xmlns="http://www.w3.org/2000/svg">
<path d="M272 32H237.248C230.656 13.376 212.864 0 192 0C171.136 0 153.344 13.376 146.72 32H112C103.168 32 96 39.168 96 48V112C96 120.832 103.168 128 112 128H272C280.832 128 288 120.832 288 112V48C288 39.168 280.832 32 272 32Z" fill="black"/>
<path d="M315.104 320L270.976 437.632C268.64 443.872 262.656 448 256 448C255.776 448 255.552 448 255.328 448C248.448 447.712 242.496 443.04 240.608 436.416L189.472 257.376L142.848 373.92C140.704 379.296 135.808 383.072 130.08 383.872C124.32 384.64 118.656 382.208 115.2 377.6L72 320H0V480C0 497.952 14.048 512 32 512H352C369.952 512 384 497.952 384 480V320H315.104Z" fill="black"/>
<path d="M352 64H320V112C320 138.464 298.464 160 272 160H112C85.536 160 64 138.464 64 112V64H32C14.368 64 0 78.368 0 96V288H80C85.024 288 89.792 290.368 92.8 294.4L123.712 335.616L177.12 202.048C179.68 195.712 186.144 191.616 192.8 192C199.648 192.352 205.472 197.024 207.392 203.584L258.048 380.928L289.024 298.368C291.36 292.128 297.344 288 304 288H384V96C384 78.048 369.952 64 352 64Z" fill="black"/>
</svg>
