<svg width="27" height="38" viewBox="0 0 27 38" fill="none" xmlns="http://www.w3.org/2000/svg">
    <circle cx="8.14272" cy="3.57143" r="3.57143" fill="#F48121" />
    <circle cx="20.6427" cy="3.57143" r="3.57143" fill="#F48121" />
    <path d="M26 35.7145V21.6431C26 20.5385 25.1046 19.6431 24 19.6431H3C1.89543 19.6431 1 20.5385 1 21.6431V35.7145" stroke="#F48121" stroke-width="2" stroke-linecap="round" />
    <rect x="2.78613" y="8.92871" width="10.7143" height="16.0714" rx="2" fill="#F48121" />
    <rect x="4.57129" y="10.7144" width="7.14286" height="26.7857" rx="1" fill="#F48121" />
    <path d="M15 11C15 9.89543 15.8954 9 17 9H24C25.1046 9 26 9.89543 26 11V16C26 17.1046 25.1046 18 24 18H20.5H17C15.8954 18 15 17.1046 15 16V11Z" fill="#F48121" />
    <rect x="15" y="16" width="11" height="4" fill="#F48121" />
</svg>