<?xml version="1.0" encoding="utf-8"?>
<!-- Generator: Adobe Illustrator 16.0.0, SVG Export Plug-In . SVG Version: 6.00 Build 0)  -->
<!DOCTYPE svg PUBLIC "-//W3C//DTD SVG 1.1//EN" "http://www.w3.org/Graphics/SVG/1.1/DTD/svg11.dtd">
<svg version="1.1" id="Layer_1" xmlns="http://www.w3.org/2000/svg" xmlns:xlink="http://www.w3.org/1999/xlink" x="0px" y="0px"
	 width="128px" height="128px" viewBox="0 0 128 128" enable-background="new 0 0 128 128" xml:space="preserve">
<path fill="none" stroke="#C4C4C4" stroke-width="4" d="M123.193,64.001c0,34.165-26.525,61.574-58.897,61.574
	c-5.64,0-10.729-0.363-15.489-1.718c-2.033-0.584-5.114-1.975-7.899-3.359c-1.343-0.668-2.544-1.3-3.408-1.762
	c-0.43-0.229-0.779-0.416-1.015-0.545l-0.251-0.139l-0.228-0.15c-0.216-0.139-0.53-0.342-0.917-0.588
	c-0.776-0.514-1.845-1.221-3.014-2.013c-2.408-1.646-5.001-3.52-6.434-4.819C13.24,99.21,5.37,82.581,5.37,64.001
	c0-34.172,26.529-61.575,58.926-61.575C96.668,2.426,123.193,29.83,123.193,64.001z"/>
</svg>
