<?xml version="1.0" encoding="utf-8"?>
<!-- Generator: Adobe Illustrator 16.0.0, SVG Export Plug-In . SVG Version: 6.00 Build 0)  -->
<!DOCTYPE svg PUBLIC "-//W3C//DTD SVG 1.1//EN" "http://www.w3.org/Graphics/SVG/1.1/DTD/svg11.dtd">
<svg version="1.1" id="Layer_1" xmlns="http://www.w3.org/2000/svg" xmlns:xlink="http://www.w3.org/1999/xlink" x="0px" y="0px"
	 width="512px" height="512px" viewBox="0 0 512 512" enable-background="new 0 0 512 512" xml:space="preserve">
<path fill="#D7D6D6" d="M242.952,419.854c123.773,0,224.107,5.548,224.107,12.39s-100.334,12.388-224.107,12.388
	c-123.772,0-224.111-5.546-224.111-12.388S119.18,419.854,242.952,419.854z"/>
<path fill="#ECECEC" d="M387.015,326.104c3.332-1.328,7.085-1.099,10.228,0.629l51.709,28.371
	c8.925,4.896,8.096,17.979-1.375,21.713l-45.294,17.851c-3.371,1.327-7.164,1.063-10.32-0.722l-50.605-28.613
	c-8.781-4.964-7.903-17.889,1.467-21.619L387.015,326.104z"/>
<path fill="#ECECEC" d="M338.35,330.523l120.314,17.347l-3.65,20.851l-120.688-15.207L338.35,330.523z"/>
<path fill="#FBFEFF" d="M390.865,304.111c3.329-1.328,7.079-1.1,10.227,0.627l51.706,28.371c8.923,4.899,8.096,17.979-1.374,21.711
	l-45.295,17.854c-3.368,1.326-7.161,1.063-10.316-0.72l-50.608-28.619c-8.778-4.962-7.903-17.882,1.469-21.616L390.865,304.111z"/>
<path fill="#AFAFB3" d="M451.438,385.189l12.839,1.92l-0.38,5.162l-13.073,1.311L451.438,385.189z"/>
<path fill="#AFAFB3" d="M432.764,383.173l-12.813-2.241l0.381-5.164l13.049-0.985L432.764,383.173z"/>
<path fill="#AFAFB3" d="M435.185,372.316l28.708,19.955l-15.231,8.615l-28.709-19.955L435.185,372.316z"/>
<path fill="#FCFDFD" d="M435.566,367.152l28.707,19.957l-15.231,8.613l-28.707-19.957L435.566,367.152z"/>
<path fill="#ECECEC" d="M412.972,355.882c-0.58,3.347-6.768,5.056-13.806,3.821c-7.04-1.23-12.276-4.941-11.689-8.285
	c0.584-3.346,0.613-3.507,0.613-3.507l25.497,4.465C413.587,352.376,413.276,354.148,412.972,355.882z"/>
<path fill="#ECECEC" d="M441.484,343.135c-0.583,3.344-6.768,5.055-13.809,3.823c-7.044-1.233-12.273-4.944-11.69-8.289
	c0.588-3.344,0.613-3.506,0.613-3.506l25.499,4.465C442.099,339.628,441.788,341.402,441.484,343.135z"/>
<path fill="#352E30" d="M351.971,334.383c-3.313-2.099-2.855-7.063,0.779-8.521l42.2-16.939c1.325-0.529,2.808-0.445,4.063,0.223
	l17.763,9.517c3.49,1.872,3.343,6.932-0.254,8.598L375.1,346.421c-1.483,0.687-3.211,0.572-4.592-0.302L351.971,334.383z"/>
<path fill="#FDFBFA" d="M163.015,223.886l8.737-16.503l110.988-45.625l92.866,97.074v36.566l-103.546,52.315l-109.045-57.493
	V223.886z"/>
<path fill="#D0D1D1" d="M171.752,207.707l100.311,103.545v35.92l-108.4-55.98V223.24L171.752,207.707z"/>
<path fill="#F3F3F4" d="M272.384,311.252l103.223-51.449v37.213l-103.546,50.156L272.384,311.252z"/>
<path fill="#352E30" d="M277.303,278.551l-64.089-64.089l64.813-25.598l61.896,62.459L277.303,278.551z"/>
<path fill="none" stroke="#010101" stroke-width="5" d="M35.528,315.807c0,0-21.611,16.12-21.537,30.797
	c0.048,9.604,2.864,15.687,9.401,22.72c7.749,8.34,16.883,5.817,26.897,11.231c15.056,8.133,19.137,19.94,34.994,26.375
	c18.395,7.467,31.388,8.934,50.662,4.178c15.461-3.815,21.289-12.959,35.776-19.567c10.668-4.866,16.224-11.396,27.943-10.985
	c10.777,0.371,14.808,8.637,25.331,10.985c12.189,2.724,31.979,0,31.979,0"/>
<path fill="#3B3C3F" d="M298.591,361.598c27.338,3.375,47.509,22.24,45.056,42.141c-2.461,19.896-26.615,33.286-53.953,29.909
	c-27.342-3.377-47.511-22.243-45.054-42.141C247.095,371.611,271.251,358.219,298.591,361.598z"/>
<ellipse transform="matrix(-0.9925 -0.1226 0.1226 -0.9925 542.3021 829.4203)" fill="#484B51" cx="296.668" cy="398.026" rx="47.165" ry="34.326"/>
<path fill="#5C5F67" d="M324.655,374.171c14.663,8.302,21.652,23.681,15.609,34.354c-6.04,10.672-22.823,12.593-37.488,4.291
	c-14.667-8.301-21.653-23.684-15.613-34.354C293.203,367.79,309.991,365.868,324.655,374.171z"/>
<path fill="#FBFCFC" d="M117.418,231.773c3.867-2.291,8.689-2.232,12.499,0.152l78.337,49.039
	c7.455,4.664,7.536,15.491,0.153,20.271l-84.847,54.9c-3.619,2.344-8.215,2.566-12.044,0.586l-90.23-46.641
	c-8.386-4.337-8.727-16.201-0.605-21.012L117.418,231.773z"/>
<path fill="#DBDADA" d="M106.665,331.061c-28.953-17.559-27.283-60.11,2.953-75.352l7.539-3.8c13.04-6.57,28.528-6.053,41.101,1.371
	c28.296,16.713,28.045,57.737-0.453,74.101l-7.322,4.204C136.872,339.398,120.087,339.199,106.665,331.061z"/>
<path fill="#F1F0F1" d="M113.51,337.516c0.999-7.09,5.316-13.279,11.627-16.67l57.681-30.96
	c14.812-7.948,35.906-6.218,39.349,10.233c1.223,5.846,1.558,13.061,0,19.064c-0.786,3.028-2.64,5.53-4.283,7.262
	c-1.851,1.947-4.257,3.225-6.701,4.345l-66.051,30.288C128.984,368.482,111.035,355.109,113.51,337.516z"/>
<path fill="#9F9FA0" d="M13.444,295.127c4-6.499,12.509-8.523,19.004-4.523l76.823,47.283c1.344,0.827,3.106,0.129,3.518-1.395
	c0.459-1.707,2.553-2.323,3.857-1.135c3.514,3.203,9.289,8.504,11.51,10.726c4.968,4.964,5.721,12.793,2.04,18.774
	c-4.503,7.313-14.121,9.658-21.438,5.156L17.966,314.13C11.469,310.132,9.444,301.624,13.444,295.127z"/>
<path fill="#F1F0F1" d="M59.885,299.488c-7.655-5.088-6.994-16.539,1.198-20.711l73.696-37.536c3.68-1.875,8.065-1.727,11.61,0.39
	l60.543,36.135c7.819,4.668,7.808,15.998-0.022,20.647l-71.998,42.767c-3.969,2.357-8.94,2.231-12.786-0.324L59.885,299.488z"/>
<circle fill="none" stroke="#EA0606" stroke-width="10" cx="414.117" cy="143.737" r="84.102"/>
<line fill="none" stroke="#F1F0F1" stroke-width="6" stroke-linecap="round" x1="108.743" y1="135.327" x2="126.971" y2="153.554"/>
<line fill="none" stroke="#F1F0F1" stroke-width="6" stroke-linecap="round" x1="107.748" y1="153.554" x2="125.977" y2="135.327"/>
<line fill="none" stroke="#F1F0F1" stroke-width="6" stroke-linecap="round" x1="421.12" y1="265.083" x2="439.348" y2="283.311"/>
<line fill="none" stroke="#F1F0F1" stroke-width="6" stroke-linecap="round" x1="420.123" y1="283.311" x2="438.353" y2="265.083"/>
<circle fill="none" stroke="#F1F0F1" stroke-width="6" cx="72.906" cy="203.809" r="8.411"/>
<circle fill="none" stroke="#F1F0F1" stroke-width="6" cx="233.9" cy="124.514" r="8.41"/>
<path display="none" fill="none" stroke="#F08022" stroke-width="5" d="M277.303,278.551l-64.089-64.089l64.813-25.598
	l61.896,62.459L277.303,278.551z"/>
<g display="none">
	
		<ellipse transform="matrix(-0.985 -0.1724 0.1724 -0.985 735.4713 763.576)" display="inline" fill="#F48220" cx="400.896" cy="349.849" rx="12.943" ry="6.148"/>
	<path display="inline" fill="#F48220" d="M430.469,331.021c7.039,1.229,12.271,4.94,11.688,8.287
		c-0.583,3.342-6.77,5.057-13.81,3.823c-7.041-1.231-12.273-4.944-11.69-8.289C417.243,331.501,423.427,329.787,430.469,331.021z"/>
	<path display="inline" fill="none" stroke="#F28121" stroke-width="8" stroke-linecap="round" d="M273.703,255.696
		c0,0-1.305-10.671,9.367-16.989c10.672-6.317,20.693,0,20.693,0"/>
	<circle display="inline" fill="#F48220" cx="279.557" cy="220.629" r="6.007"/>
	<circle display="inline" fill="#F48220" cx="265.139" cy="230.24" r="6.008"/>
</g>
<line fill="none" stroke="#EA0606" stroke-width="18" stroke-linecap="round" x1="381.008" y1="111.005" x2="449.811" y2="181.406"/>
<line fill="none" stroke="#EA0606" stroke-width="18" stroke-linecap="round" x1="381.271" y1="182.471" x2="451.136" y2="111.002"/>
</svg>
