<?xml version="1.0" encoding="utf-8"?>
<!-- Generator: Adobe Illustrator 16.0.0, SVG Export Plug-In . SVG Version: 6.00 Build 0)  -->
<!DOCTYPE svg PUBLIC "-//W3C//DTD SVG 1.1//EN" "http://www.w3.org/Graphics/SVG/1.1/DTD/svg11.dtd">
<svg version="1.1" id="Layer_1" xmlns="http://www.w3.org/2000/svg" xmlns:xlink="http://www.w3.org/1999/xlink" x="0px" y="0px"
	 width="512px" height="512px" viewBox="0 0 512 512" enable-background="new 0 0 512 512" xml:space="preserve">
<circle fill="none" stroke="#EA0606" stroke-width="11" cx="191.642" cy="75.731" r="63.124"/>
<line fill="none" stroke="#EA0606" stroke-width="10" stroke-linecap="round" x1="166.27" y1="47.303" x2="219.511" y2="100.546"/>
<line fill="none" stroke="#EA0606" stroke-width="10" stroke-linecap="round" x1="164.736" y1="100.546" x2="217.978" y2="47.303"/>
<path fill="#F7F7F7" d="M473.004,378.566c-40.875,77.546-96.126,98.011-223.482,62.253
	C20.979,429.974-11.885,353.601,19.807,262.601c37.287-119.138,155.947,5.059,243.084-52.731
	C444.763,89.246,534.137,262.601,473.004,378.566z"/>
<ellipse fill="#D6D6D6" cx="256.64" cy="489.473" rx="248.746" ry="13.75"/>
<path d="M357.488,475.901c-0.212-2.526-1.93-4.678-4.349-5.439l-7.281-2.3c-3.902-1.233-7.919,1.558-8.124,5.646l-0.769,15.352
	c-0.177,3.57,2.669,6.563,6.243,6.563h9.138c3.656,0,6.531-3.125,6.228-6.768L357.488,475.901z"/>
<path d="M321.64,471.973h-18.075c0,0-4.313,5.145-7.747,7.558c-6.301,4.425-14.46,1.62-18.591,5.937c-4.132,4.318,0,10.256,0,10.256
	h37.699c0,0,3.69-0.049,5.165-1.618c1.339-1.429,1.549-4.858,1.549-4.858V471.973z"/>
<path fill="#878787" d="M357.888,280.728c0,0-8.124-25-27.498-21.249c-19.375,3.75-16.25,28.076-16.25,28.076l23.474,186.918h20.274
	V280.728z"/>
<path fill="#6D6D6D" d="M327.889,285.762c0,0,5.001-20.659-13.75-25.033c-18.75-4.376-24.48-1.25-24.48-1.25
	s-3.634,22.99-4.712,37.845c-2.684,36.91,1.918,57.763,5.235,94.619c2.909,32.334,9.95,82.53,9.95,82.53h24.613
	c0,0-1.98-40.448-4.712-66.233c-1.701-16.052-4.725-24.865-5.236-41C313.771,335.022,327.889,285.762,327.889,285.762z"/>
<path fill="#FFCDB4" d="M430.306,149.618c-0.799-0.215-2.116,0-2.116,0l-6.348,9.607c0,0-4.096,1.74-6.878,2.135
	c-2.455,0.35-4.438,1.596-6.349,0c-1.663-1.387-1.488-3.163-1.587-5.337c-0.12-2.575,3.996-5.545,1.587-6.405
	c-1.743-0.622-2.771,0.995-4.232,2.135c-3.293,2.565-4.763,9.607-4.763,9.607v9.607l-4.231,10.675l10.051,5.337l7.937-10.675
	c0,0,9.445-5.572,13.227-11.208c1.813-2.701,3.703-7.472,3.703-7.472S433.301,150.424,430.306,149.618z"/>
<path fill="#FFCDB4" d="M207.88,150.864c0.744-0.208,1.971,0,1.971,0l5.91,9.287c0,0,3.814,1.682,6.404,2.063
	c2.286,0.337,4.134,1.542,5.912,0c1.548-1.34,1.384-3.057,1.478-5.158c0.111-2.491-3.721-5.362-1.478-6.192
	c1.621-0.601,2.58,0.961,3.941,2.063c3.063,2.479,4.433,9.287,4.433,9.287v9.288l3.94,10.318l-9.357,5.16l-7.389-10.318
	c0,0-8.794-5.388-12.315-10.835c-1.689-2.612-3.449-7.224-3.449-7.224S205.093,151.643,207.88,150.864z"/>
<path fill="#FAC7AE" d="M328.704,147.237l-19.564-2.757l1.631,15.992c0,0,5.545,7.759,10.869,8.383
	c5.316,0.623,12.5-5.625,12.5-5.625L328.704,147.237z"/>
<path fill="#FFCDB4" d="M296.788,137.939c0,8.583,14.512,7.771,22.05,7.771c7.541,0,11.552-12.139,11.552-20.722
	c0-8.583-8.735-21.757-16.277-21.757C306.574,103.231,295.211,105.821,296.788,137.939z"/>
<path fill="#4B4A4A" d="M317.448,130.959c0,13.218-5.841,19.771,8.443,19.771c14.285,0,34.309-9.675,34.309-22.893
	c0-13.218,4.224-29.863-27.447-41.102c-13.194-4.682-19.002,8.845-31.67,3.122c-0.687,5.182-4.007,9.692,0,17.69
	c7.979,3.932,12.197,8.103,14.387,11.966c1.258,2.217,5.672-1.041,5.672,5.203C321.142,132.538,317.448,129.387,317.448,130.959z"/>
<path display="none" fill="#F48121" d="M328.919,157.384c-3.495-0.187-5.465,0-8.966,0c-6.594,0-10.353-0.909-16.88,0
	c-3.763,0.524-6.123,0.36-9.496,2.1c-5.199,2.684-6.18,6.749-9.495,11.554c-3.862,5.599-4.729,9.529-8.44,15.229
	c-3.205,4.921-4.565,8.18-8.967,12.077c-2.095,1.854-3.01,3.984-5.803,4.201c-3.923,0.305-4.773-3.896-7.386-6.826
	c-5.938-6.66-11.079-19.955-11.079-19.955s-7.925-1.161-12.131,1.051c-3.872,2.036-7.385,8.402-7.385,8.402
	s4.875,13.273,9.494,21.004c3.918,6.558,5.725,10.863,11.605,15.754c4.53,3.768,7.294,7.05,13.189,7.352
	c5.01,0.256,7.642-1.974,12.131-4.201c5.426-2.689,8.195-4.85,12.661-8.928c4.744-4.329,10.552-12.602,10.552-12.602
	s1.033,9.587,1.054,15.754c0.043,12.819-3.162,19.78-4.221,32.558c-0.609,7.368-2.139,11.589-1.055,18.903
	c1.122,7.576,2.356,12.171,6.858,18.379c7.281,10.049,15.527,14.619,27.956,15.23c8.735,0.429,13.994-1.533,21.628-5.778
	c5.874-3.265,11.08-7.876,13.188-11.026c2.11-3.15,2.754-21.079,3.693-34.658c0.666-9.625,1.056-24.681,1.056-24.681
	s5.696,2.02,9.495,2.1c5.095,0.109,8.057-0.975,12.658-3.15c4.654-2.199,6.91-4.252,10.552-7.877
	c3.641-3.625,4.676-5.583,7.502-9.87c2.986-4.53,4.15-8.535,5.624-13.75c1.012-3.575,3.126-11.039,3.126-11.039
	s-4.376-3.961-6.876-5.211c-4.031-2.017-8.748-3.125-8.748-3.125l-4.849,8.335l-6.331,12.077l-5.273,6.828
	c0,0-3.525,2.142-5.804,1.575c-2.124-0.529-2.728-1.05-4.22-3.676c-1.493-2.625-1.578-7.783-3.165-12.602
	c-1.953-5.937-3.041-9.384-6.33-14.705c-2.462-3.982-3.813-6.415-7.385-9.452c-3.091-2.626-5.182-3.78-8.968-5.251
	C338.261,157.376,334.738,157.692,328.919,157.384z"/>
<linearGradient id="SVGID_1_" gradientUnits="userSpaceOnUse" x1="179.4277" y1="84.5171" x2="173.5756" y2="8.4939" gradientTransform="matrix(1 0 0 -1 -41.6602 349.04)">
	<stop  offset="0" style="stop-color:#D4EA5A"/>
	<stop  offset="1" style="stop-color:#4DABB7"/>
</linearGradient>
<path fill="url(#SVGID_1_)" d="M121.422,277.35c1.471-7.983,8.793-13.408,16.888-12.786l0,0l0,0
	c7.471,0.576,13.382,6.561,13.615,14.049c0.236,7.623,0.34,17.168-0.211,24.595c-0.566,7.635-2.143,17.313-3.567,25.04
	c-1.415,7.676-8.45,12.898-16.23,12.298l0,0c-7.782-0.598-13.934-6.836-14.158-14.636c-0.225-7.856-0.302-17.66,0.307-25.292
	C118.629,293.541,120.076,284.655,121.422,277.35z"/>
<linearGradient id="SVGID_2_" gradientUnits="userSpaceOnUse" x1="227.3628" y1="-12.6978" x2="185.6784" y2="-39.2846" gradientTransform="matrix(1 0 0 -1 -41.6602 349.04)">
	<stop  offset="0" style="stop-color:#D4EA5A"/>
	<stop  offset="1" style="stop-color:#4DABB7"/>
</linearGradient>
<path fill="url(#SVGID_2_)" d="M177.341,359.441c1.254-0.039,2.503,0,3.745,0.186c2.458,0.369,6.708,1.306,8.754,3.529
	c2.726,2.966,4.053,5.99,1.876,9.375c-5.627,8.751-18.125,3.126-20.625,11.25c-2.729,8.873-9.941,10.291-14.915,10.125
	c-3.342-0.113-6.156-2.207-8.133-4.905l0,0c-2.448-3.337-3.518-7.551-2.168-11.465c1.539-4.463,4.309-10.176,8.965-13.129
	C161.232,360.357,172.822,359.588,177.341,359.441z"/>
<linearGradient id="SVGID_3_" gradientUnits="userSpaceOnUse" x1="123.1704" y1="-11.7129" x2="170.0445" y2="-44.2122" gradientTransform="matrix(1 0 0 -1 -41.6602 349.04)">
	<stop  offset="0" style="stop-color:#D2E95B"/>
	<stop  offset="1" style="stop-color:#50ACB5"/>
</linearGradient>
<path fill="url(#SVGID_3_)" d="M129.338,396.626c-6.149,7.438-20.342,5.859-31.702-3.533c-11.36-9.388-25.192-24.997-19.043-32.436
	c6.148-7.438,29.949-3.89,41.309,5.499C131.262,375.544,135.487,389.188,129.338,396.626z"/>
<linearGradient id="SVGID_4_" gradientUnits="userSpaceOnUse" x1="211.3677" y1="24.7256" x2="185.6716" y2="-9.113" gradientTransform="matrix(1 0 0 -1 -41.6602 349.04)">
	<stop  offset="0" style="stop-color:#D2E95B"/>
	<stop  offset="1" style="stop-color:#50ADB5"/>
</linearGradient>
<path fill="url(#SVGID_4_)" d="M171.091,340.657c-13.75,6.25-26.247,18.127-26.247,18.127s2.498-27.746,10.622-33.127
	c3.34-4.396,10.018-4.552,14.141-1.421C173.729,327.366,174.431,336.26,171.091,340.657z"/>
<linearGradient id="SVGID_5_" gradientUnits="userSpaceOnUse" x1="198.3838" y1="-8.3232" x2="185.3012" y2="-13.8952" gradientTransform="matrix(1 0 0 -1 -41.6602 349.04)">
	<stop  offset="0" style="stop-color:#D3E95B"/>
	<stop  offset="1" style="stop-color:#4FACB5"/>
</linearGradient>
<path fill="url(#SVGID_5_)" d="M154.415,362.344c-5.034-0.464-10.637,0.913-10.637,0.913s5.33-7.65,8.584-7.865
	c1.7-0.724,3.666,0.339,4.345,1.934C157.388,358.919,156.115,361.621,154.415,362.344z"/>
<path fill="none" stroke="#8F8F8F" stroke-linecap="round" d="M134.841,290.629c0,0-1.215,37.761,0,61.903
	c1.219,24.245,6.25,61.845,6.25,61.845"/>
<path fill="none" stroke="#8F8F8F" stroke-linecap="round" d="M156.091,338.157c0,0-13.636,18.75-15.343,36.874
	c-1.444,15.343,0,39.196,0,39.196"/>
<path fill="none" stroke="#8F8F8F" stroke-linecap="round" d="M168.208,369.266c0,0-16.05,4.87-20.242,15.766
	c-6.25,16.25-6.25,29.374-6.25,29.374"/>
<path fill="none" stroke="#8F8F8F" stroke-linecap="round" d="M97.599,366.97c0,0,17.155,10.807,25.367,20.562
	c7.556,8.977,15.063,25.994,15.063,25.994"/>
<path fill="#455A65" d="M118.586,421.222c-0.333-3.659,2.55-6.816,6.225-6.816h31.124c3.742,0,6.646,3.27,6.206,6.985l-5.995,50.734
	c-0.744,6.291-6.077,11.029-12.414,11.029h-8.1c-6.465,0-11.864-4.929-12.449-11.366L118.586,421.222z"/>
<path fill="none" stroke="#687B85" stroke-width="3" stroke-linecap="round" d="M122.966,437.433c0,0,2.654-0.422,5.242-0.516
	c14.154-0.5,3.226,12.989,14.759,14.988c10.013,1.74,12.499-1.978,12.499-1.978"/>
<path fill="none" stroke="#687B85" stroke-width="3" stroke-linecap="round" d="M124.216,452.377c0,0,2.45-0.377,4.839-0.457
	c8.912-0.306,2.978,11.545,13.623,13.325c9.244,1.545,11.539-1.761,11.539-1.761"/>
</svg>
