<?xml version="1.0" encoding="utf-8"?>
<!-- Generator: Adobe Illustrator 16.0.0, SVG Export Plug-In . SVG Version: 6.00 Build 0)  -->
<!DOCTYPE svg PUBLIC "-//W3C//DTD SVG 1.1//EN" "http://www.w3.org/Graphics/SVG/1.1/DTD/svg11.dtd">
<svg version="1.1" id="Layer_1" xmlns="http://www.w3.org/2000/svg" xmlns:xlink="http://www.w3.org/1999/xlink" x="0px" y="0px"
	 width="128px" height="128px" viewBox="0 0 128 128" enable-background="new 0 0 128 128" xml:space="preserve">
<rect x="-2" y="-2.495" display="none" fill="#0A0A0A" width="133.5" height="133.167"/>
<path display="none" fill="none" stroke="#C0C0C1" stroke-width="4" stroke-linecap="round" d="M40.335,99.979H24.157
	c-10.211,0-18.49-8.277-18.49-18.49V28.325c0-10.211,8.279-18.49,18.49-18.49h80.894c10.213,0,18.49,8.279,18.49,18.49v53.163
	c0,10.213-8.277,18.49-18.49,18.49H71.537"/>
<path display="none" fill="none" stroke="#C0C0C1" stroke-width="4" stroke-linecap="round" d="M40.335,99.979v20.802l31.202-20.802
	"/>
<path fill="#F48121" d="M30.434,44.569c5.227,0,9.468,4.241,9.468,9.467c0,5.227-4.241,9.477-9.468,9.477
	c-5.226,0-9.467-4.25-9.467-9.477C20.967,48.81,25.208,44.569,30.434,44.569z"/>
<path fill="#F48121" d="M64.811,44.569c5.227,0,9.467,4.241,9.467,9.467c0,5.227-4.24,9.477-9.467,9.477
	c-5.239,0-9.475-4.25-9.475-9.477C55.336,48.81,59.571,44.569,64.811,44.569z"/>
<path fill="#F48121" d="M99.179,44.569c5.227,0,9.467,4.241,9.467,9.467c0,5.227-4.24,9.477-9.467,9.477
	c-5.226,0-9.467-4.25-9.467-9.477C89.712,48.81,93.953,44.569,99.179,44.569z"/>
</svg>
