<?xml version="1.0" encoding="utf-8"?>
<!-- Generator: Adobe Illustrator 16.0.0, SVG Export Plug-In . SVG Version: 6.00 Build 0)  -->
<!DOCTYPE svg PUBLIC "-//W3C//DTD SVG 1.1//EN" "http://www.w3.org/Graphics/SVG/1.1/DTD/svg11.dtd">
<svg version="1.1" id="Layer_1" xmlns="http://www.w3.org/2000/svg" xmlns:xlink="http://www.w3.org/1999/xlink" x="0px" y="0px"
	 width="128px" height="128px" viewBox="0 0 128 128" enable-background="new 0 0 128 128" xml:space="preserve">
<rect x="-2" y="-2.495" display="none" fill="#0A0A0A" width="133.5" height="133.167"/>
<line display="none" fill="none" stroke="#F48121" stroke-width="4" stroke-linecap="round" x1="43.524" y1="32.426" x2="104.025" y2="32.426"/>
<line display="none" fill="none" stroke="#F48121" stroke-width="4" stroke-linecap="round" x1="43.524" y1="44.708" x2="104.025" y2="44.708"/>
<line display="none" fill="none" stroke="#F48121" stroke-width="4" stroke-linecap="round" x1="43.524" y1="56.99" x2="72.875" y2="56.99"/>
<line display="none" fill="none" stroke="#F48121" stroke-width="4" stroke-linecap="round" x1="43.524" y1="69.273" x2="72.875" y2="69.273"/>
<line display="none" fill="none" stroke="#F48121" stroke-width="4" stroke-linecap="round" x1="43.524" y1="81.556" x2="72.875" y2="81.556"/>
<line display="none" fill="none" stroke="#F48121" stroke-width="4" stroke-linecap="round" x1="81.088" y1="91.442" x2="92.811" y2="97.288"/>
<path display="none" fill="none" stroke="#F48121" stroke-width="4" stroke-linecap="round" d="M97.109,59.674l17.367,8.81
	l-8.684,18.813"/>
<path fill="none" stroke="#C0C0C1" stroke-width="4" d="M74.186,124.951h34.752c9.045,0,16.377-7.332,16.377-16.376v-89.25
	c0-9.044-7.332-16.375-16.377-16.375H39.43c-9.044,0-16.376,7.332-16.376,16.375V63.95v47.083"/>
<path fill="none" stroke="#C0C0C1" stroke-width="4" d="M3.404,111.032L3.404,111.032c0,7.687,6.231,13.919,13.919,13.919h57.923"/>
<line fill="none" stroke="#C0C0C1" stroke-width="4" x1="1.688" y1="111.441" x2="101.125" y2="111.441"/>
<path fill="none" stroke="#C0C0C1" stroke-width="4" d="M99.113,111.032c0,0,0.051,5.772,2.047,9.007
	c2.865,4.641,10.541,4.641,10.541,4.641"/>
<path display="none" fill="none" stroke="#F48121" stroke-width="4" d="M103.383,53.14l6.596,3.289
	c1.416,0.706,1.992,2.427,1.287,3.843L92.857,97.195c-0.215,0.431-0.535,0.8-0.93,1.074l-5.885,4.088
	c-1.805,1.252-4.291,0.091-4.488-2.098l-0.67-7.457c-0.049-0.527,0.053-1.06,0.289-1.535l18.367-36.841
	C100.246,53.009,101.967,52.434,103.383,53.14z"/>
</svg>
