<?xml version="1.0" encoding="utf-8"?>
<!-- Generator: Adobe Illustrator 16.0.0, SVG Export Plug-In . SVG Version: 6.00 Build 0)  -->
<!DOCTYPE svg PUBLIC "-//W3C//DTD SVG 1.1//EN" "http://www.w3.org/Graphics/SVG/1.1/DTD/svg11.dtd">
<svg version="1.1" id="Layer_1" xmlns="http://www.w3.org/2000/svg" xmlns:xlink="http://www.w3.org/1999/xlink" x="0px" y="0px"
	 width="128px" height="128px" viewBox="0 0 128 128" enable-background="new 0 0 128 128" xml:space="preserve">
<rect x="-2" y="-2.495" display="none" fill="#0A0A0A" width="133.5" height="133.167"/>
<path display="none" fill="none" stroke="#C0C0C1" stroke-width="4" d="M36,2.667h65.782c6.919,0,12.529,5.61,12.529,12.53v97.106
	c0,6.919-5.61,12.53-12.529,12.53H36c-6.919,0-12.53-5.611-12.53-12.53V15.197C23.47,8.277,29.081,2.667,36,2.667z"/>
<path display="none" fill="#C0C0C1" d="M80.087,31.833c1.729,0,3.133-1.402,3.133-3.132c0-1.73-1.404-3.133-3.133-3.133V31.833z
	 M57.927,25.568c-1.73,0-3.132,1.402-3.132,3.133c0,1.73,1.402,3.132,3.132,3.132V25.568z M57.927,31.833h22.16v-6.265h-22.16
	V31.833z"/>
<path fill="#F48121" d="M100.479,51.788c1.731,0,3.134-1.402,3.134-3.132c0-1.73-1.402-3.133-3.134-3.133V51.788z M36,45.522
	c-1.729,0-3.133,1.402-3.133,3.133c0,1.73,1.403,3.132,3.133,3.132V45.522z M36,51.788h64.479v-6.265H36V51.788z"/>
<path fill="#F48121" d="M100.479,67.436c1.731,0,3.134-1.396,3.134-3.118c0-1.73-1.402-3.133-3.134-3.133V67.436z M36,61.185
	c-1.729,0-3.133,1.402-3.133,3.133c0,1.721,1.403,3.118,3.133,3.118V61.185z M36,67.436h64.479v-6.25H36V67.436z"/>
<path fill="#F48121" d="M100.479,98.758c1.731,0,3.134-1.401,3.134-3.133c0-1.729-1.402-3.133-3.134-3.133V98.758z M36,92.492
	c-1.729,0-3.133,1.404-3.133,3.133c0,1.731,1.403,3.133,3.133,3.133V92.492z M36,98.758h64.479v-6.266H36V98.758z"/>
<path fill="#F48121" d="M100.541,83.694c1.731,0,3.134-1.403,3.134-3.132c0-1.73-1.402-3.131-3.134-3.131V83.694z M35.984,77.432
	c-1.729,0-3.133,1.4-3.133,3.131c0,1.729,1.403,3.132,3.133,3.132V77.432z M35.984,83.694h64.557v-6.263H35.984V83.694z"/>
</svg>
