<?xml version="1.0" encoding="utf-8"?>
<!-- Generator: Adobe Illustrator 16.0.0, SVG Export Plug-In . SVG Version: 6.00 Build 0)  -->
<!DOCTYPE svg PUBLIC "-//W3C//DTD SVG 1.1//EN" "http://www.w3.org/Graphics/SVG/1.1/DTD/svg11.dtd">
<svg version="1.1" id="Layer_1" xmlns="http://www.w3.org/2000/svg" xmlns:xlink="http://www.w3.org/1999/xlink" x="0px" y="0px"
	 width="128px" height="128px" viewBox="0 0 128 128" enable-background="new 0 0 128 128" xml:space="preserve">
<rect x="-2" y="-2.495" display="none" fill="#0A0A0A" width="133.5" height="133.167"/>
<line display="none" fill="none" stroke="#F48121" stroke-width="4" stroke-linecap="round" x1="64.342" y1="98.309" x2="64.342" y2="82.018"/>
<path display="none" fill="none" stroke="#F48121" stroke-width="4" stroke-linecap="round" d="M70.857,85.273l-6.517-6.516
	l-6.517,6.516"/>
<path fill="none" stroke="#C0C0C1" stroke-width="4" d="M77.06,12.187h21.457c6.998,0,12.672,5.674,12.672,12.671v87.485
	c0,6.998-5.674,12.672-12.672,12.672H31.931c-6.999,0-12.673-5.674-12.673-12.672V24.858c0-6.998,5.674-12.671,12.673-12.671h20.59"
	/>
<path fill="none" stroke="#C0C0C1" stroke-width="4" d="M58.888,3h12.703c3.499,0,6.336,2.837,6.336,6.336v6.335
	c0,3.499-2.837,6.336-6.336,6.336H58.888c-3.517,0-6.367-2.837-6.367-6.336V9.336C52.521,5.837,55.371,3,58.888,3z"/>
<path display="none" fill="#F48121" d="M31.773,41.987c-1.339-1.123-3.339-0.947-4.464,0.393c-1.123,1.341-0.947,3.34,0.393,4.464
	L31.773,41.987z M50.614,41.996c1.238-1.244,1.225-3.249-0.024-4.48c-1.25-1.229-3.26-1.219-4.497,0.024L50.614,41.996z
	 M37.39,50.832l-2.034,2.427l2.236,1.875l2.051-2.074L37.39,50.832z M27.701,46.844l7.655,6.415l4.07-4.855l-7.653-6.416
	L27.701,46.844z M39.643,53.06l10.971-11.064l-4.521-4.456L35.139,48.603L39.643,53.06z"/>
<path display="none" fill="#F48121" d="M97.806,51.165c1.748,0,3.168-1.419,3.168-3.168c0-1.75-1.42-3.167-3.168-3.167V51.165z
	 M57.876,44.829c-1.758,0-3.183,1.417-3.183,3.167c0,1.749,1.425,3.168,3.183,3.168V44.829z M57.876,51.165h39.929v-6.335H57.876
	V51.165z"/>
<path display="none" fill="#F48121" d="M31.773,69.356c-1.339-1.122-3.339-0.95-4.464,0.393c-1.123,1.344-0.947,3.342,0.393,4.461
	L31.773,69.356z M50.614,69.365c1.238-1.243,1.225-3.248-0.024-4.479c-1.25-1.231-3.26-1.219-4.497,0.024L50.614,69.365z
	 M37.39,78.201l-2.034,2.426l2.236,1.875l2.051-2.072L37.39,78.201z M27.701,74.21l7.655,6.417l4.07-4.854l-7.653-6.416
	L27.701,74.21z M39.643,80.43l10.971-11.064l-4.521-4.455L35.139,75.975L39.643,80.43z"/>
<path display="none" fill="#F48121" d="M97.806,79.426c1.748,0,3.168-1.415,3.168-3.167c0-1.751-1.42-3.168-3.168-3.168V79.426z
	 M57.876,73.091c-1.758,0-3.183,1.417-3.183,3.168c0,1.752,1.425,3.167,3.183,3.167V73.091z M57.876,79.426h39.929v-6.335H57.876
	V79.426z"/>
<path display="none" fill="#F48121" d="M31.773,96.727c-1.339-1.126-3.339-0.947-4.464,0.394c-1.123,1.34-0.947,3.338,0.393,4.463
	L31.773,96.727z M50.614,96.735c1.238-1.243,1.225-3.25-0.024-4.479c-1.25-1.231-3.26-1.222-4.497,0.022L50.614,96.735z
	 M37.39,105.568L35.356,108l2.236,1.872l2.051-2.072L37.39,105.568z M27.701,101.583L35.356,108l4.07-4.857l-7.653-6.416
	L27.701,101.583z M39.643,107.8l10.971-11.064l-4.521-4.457l-10.954,11.063L39.643,107.8z"/>
<path display="none" fill="#F48121" d="M97.806,105.148c1.748,0,3.168-1.418,3.168-3.168c0-1.749-1.42-3.168-3.168-3.168V105.148z
	 M57.876,98.813c-1.758,0-3.183,1.419-3.183,3.168c0,1.75,1.425,3.168,3.183,3.168V98.813z M57.876,105.148h39.929v-6.336H57.876
	V105.148z"/>
</svg>
