<?xml version="1.0" encoding="utf-8"?>
<!-- Generator: Adobe Illustrator 16.0.0, SVG Export Plug-In . SVG Version: 6.00 Build 0)  -->
<!DOCTYPE svg PUBLIC "-//W3C//DTD SVG 1.1//EN" "http://www.w3.org/Graphics/SVG/1.1/DTD/svg11.dtd">
<svg version="1.1" id="Layer_1" xmlns="http://www.w3.org/2000/svg" xmlns:xlink="http://www.w3.org/1999/xlink" x="0px" y="0px"
	 width="128px" height="128px" viewBox="0 0 128 128" enable-background="new 0 0 128 128" xml:space="preserve">
<rect x="-2" y="-2.495" display="none" fill="#0A0A0A" width="133.5" height="133.167"/>
<g display="none">
	<path display="inline" fill="none" stroke="#C0C0C1" stroke-width="4" stroke-linecap="round" d="M40.335,99.979H24.157
		c-10.211,0-18.49-8.276-18.49-18.489V28.325c0-10.211,8.279-18.49,18.49-18.49h80.894c10.213,0,18.49,8.279,18.49,18.49v53.163
		c0,10.213-8.277,18.49-18.49,18.49H71.537"/>
	<path display="inline" fill="none" stroke="#C0C0C1" stroke-width="4" stroke-linecap="round" d="M40.335,99.979v20.803
		l31.202-20.803"/>
	<path display="inline" fill="#F48121" d="M30.434,44.569c5.227,0,9.468,4.241,9.468,9.467c0,5.227-4.241,9.477-9.468,9.477
		c-5.226,0-9.467-4.25-9.467-9.477C20.967,48.81,25.208,44.569,30.434,44.569z"/>
	<path display="inline" fill="#F48121" d="M64.811,44.569c5.228,0,9.467,4.241,9.467,9.467c0,5.227-4.239,9.477-9.467,9.477
		c-5.239,0-9.475-4.25-9.475-9.477C55.336,48.81,59.571,44.569,64.811,44.569z"/>
	<path display="inline" fill="#F48121" d="M99.18,44.569c5.227,0,9.467,4.241,9.467,9.467c0,5.227-4.24,9.477-9.467,9.477
		s-9.468-4.25-9.468-9.477C89.712,48.81,93.953,44.569,99.18,44.569z"/>
</g>
<path display="none" fill="none" stroke="#B9B9BA" stroke-width="4" d="M8.499,84.143h75.093c0.886,0,1.699,0.485,2.12,1.267
	l19.337,35.877c0.865,1.605-0.298,3.553-2.122,3.553H27.369c-0.895,0-1.717-0.495-2.133-1.288L6.365,87.674
	C5.521,86.069,6.685,84.143,8.499,84.143z"/>
<path display="none" fill="none" stroke="#B9B9BA" stroke-width="4" stroke-linecap="round" d="M101.521,83.875h16.061
	c1.912,0,3.206,1.946,2.47,3.709l-14.781,35.381"/>
<path display="none" fill="none" stroke="#B9B9BA" stroke-width="4" stroke-linecap="round" d="M93.488,29.097v-8.943
	c0-2.958-2.396-5.354-5.354-5.354H26.555c-2.958,0-5.354,2.397-5.354,5.354v63.989"/>
<path display="none" fill="none" stroke="#B9B9BA" stroke-width="4" stroke-linecap="round" d="M93.488,86.5v-9.916"/>
<path display="none" fill="none" stroke="#B9B9BA" stroke-width="4" stroke-linecap="round" d="M101.521,31.386v-3.199
	c0-2.958-2.396-5.355-5.355-5.355h-2.677"/>
<path display="none" fill="none" stroke="#B9B9BA" stroke-width="4" stroke-linecap="round" d="M101.521,114.665V77.417"/>
<path display="none" fill="none" stroke="#BABABA" stroke-width="2" d="M123.583,56.276v-2.16c0-2.521-2.041-4.563-4.563-4.563l0,0
	c-2.519,0-4.561,2.042-4.561,4.563v9.769c0,3.334-1.797,6.433-4.621,8.207l-0.449,0.281c-6.521,4.094-14.848-0.938-14.323-8.617l0,0
	"/>
<path display="none" fill="none" stroke="#BABABA" stroke-width="4" d="M97.822,61.55c-0.08,1.376-1.258,2.426-2.634,2.348
	c-1.374-0.079-2.424-1.259-2.345-2.634"/>
<path display="none" fill="none" stroke="#BABABA" stroke-width="4" d="M106.717,39.587"/>
<path display="none" fill="none" stroke="#BABABA" stroke-width="2" d="M85.595,39.587c-9.657,10.811,0.682,22.325,10.597,21.677
	C105,60.688,114.125,53,105.563,39.531"/>
<g>
	<path fill="#F48220" d="M32.444,29.098h12.97c1.566,0,2.836,1.27,2.836,2.836l0,0c0,1.567-1.27,2.838-2.836,2.838h-12.97
		c-1.567,0-2.836-1.271-2.836-2.838l0,0C29.608,30.368,30.877,29.098,32.444,29.098z"/>
	<path fill="#F48220" d="M36.092,38.418V25.45c0-1.566,1.27-2.836,2.838-2.836l0,0c1.566,0,2.836,1.27,2.836,2.836v12.969
		c0,1.566-1.27,2.836-2.836,2.836l0,0C37.362,41.256,36.092,39.985,36.092,38.418z"/>
	<path fill="none" stroke="#F48220" stroke-width="4" d="M61.412,21.595l0.086,4.859c0.055,3.042,2.536,5.48,5.578,5.48l0,0
		c3.082,0,5.58-2.498,5.58-5.579V8.054c0-3.077-2.494-5.571-5.57-5.571l0,0c-3.045,0-5.526,2.444-5.571,5.489l-0.103,5.844"/>
	<path fill="#F48220" d="M83.777,37.906c0,1.598,1.352,2.893,2.949,2.893c1.597,0,3.114-3.382,1.913-4.584
		C87.439,35.014,83.777,36.31,83.777,37.906z"/>
	<path fill="#F48220" d="M107.219,38.216c0,1.621-1.266,2.935-2.832,2.935c-1.563,0-3.05-3.432-1.873-4.651
		C103.689,35.28,107.219,36.594,107.219,38.216z"/>
	<circle fill="#F48220" cx="123.583" cy="59.165" r="3.418"/>
	<line fill="none" stroke="#F28121" stroke-width="4" stroke-linecap="round" x1="29.608" y1="52.572" x2="62.716" y2="52.572"/>
	<line fill="none" stroke="#F28121" stroke-width="4" stroke-linecap="round" x1="29.608" y1="59.335" x2="69.314" y2="59.335"/>
	<line fill="none" stroke="#F28121" stroke-width="4" stroke-linecap="round" x1="29.608" y1="65.854" x2="74.856" y2="65.854"/>
	<line fill="none" stroke="#F28121" stroke-width="4" stroke-linecap="round" x1="29.608" y1="71.885" x2="50.819" y2="71.885"/>
</g>
</svg>
