<?xml version="1.0" encoding="utf-8"?>
<!-- Generator: Adobe Illustrator 16.0.0, SVG Export Plug-In . SVG Version: 6.00 Build 0)  -->
<!DOCTYPE svg PUBLIC "-//W3C//DTD SVG 1.1//EN" "http://www.w3.org/Graphics/SVG/1.1/DTD/svg11.dtd">
<svg version="1.1" id="Layer_1" xmlns="http://www.w3.org/2000/svg" xmlns:xlink="http://www.w3.org/1999/xlink" x="0px" y="0px"
	 width="128px" height="128px" viewBox="0 0 128 128" enable-background="new 0 0 128 128" xml:space="preserve">
<rect x="-2" y="-2.495" display="none" fill="#0A0A0A" width="133.5" height="133.167"/>
<line fill="none" stroke="#C0C0C1" stroke-width="4" stroke-linecap="round" x1="66.141" y1="3.32" x2="66.141" y2="35.155"/>
<line fill="none" stroke="#C0C0C1" stroke-width="4" stroke-linecap="round" x1="90.437" y1="3.32" x2="90.437" y2="35.155"/>
<path fill="none" stroke="#C0C0C1" stroke-width="4" stroke-linecap="round" d="M9.595,70.765v49.429
	c0,2.313,1.875,4.189,4.189,4.189H119.34c2.313,0,4.188-1.876,4.188-4.189V21.332c0-2.313-1.875-4.189-4.188-4.189H66.56"/>
<circle fill="#C0C0C1" cx="57.767" cy="97.992" r="7.121"/>
<circle fill="#C0C0C1" cx="82.06" cy="97.992" r="7.121"/>
<circle fill="#C0C0C1" cx="103.841" cy="97.992" r="7.121"/>
<circle fill="#C0C0C1" cx="103.841" cy="76.21" r="7.121"/>
<circle fill="#C0C0C1" cx="103.841" cy="53.586" r="7.121"/>
<circle fill="#C0C0C1" cx="82.06" cy="53.586" r="7.121"/>
<circle display="none" fill="#F48121" cx="82.06" cy="76.21" r="7.121"/>
<circle fill="#C0C0C1" cx="35.984" cy="76.21" r="7.121"/>
<circle fill="#C0C0C1" cx="57.767" cy="76.21" r="7.121"/>
<circle fill="#C0C0C1" cx="35.984" cy="97.992" r="7.121"/>
<path display="none" fill="none" stroke="#F48121" stroke-width="4" stroke-linecap="round" d="M3.73,38.506
	c0,14.112,11.628,25.554,25.971,25.554c14.344,0,25.971-11.441,25.971-25.554c0-14.112-11.627-25.552-25.971-25.552"/>
<path display="none" fill="none" stroke="#F48121" stroke-width="4" stroke-linecap="round" d="M19.229,41.857l9.634,7.959
	L45.2,28.873"/>
<path display="none" fill="#F48121" d="M14.262,15.134c-0.532-0.29-0.59-1.032-0.108-1.401L28.553,2.704
	c0.527-0.404,1.293-0.062,1.344,0.601l1.531,19.7c0.052,0.662-0.652,1.118-1.236,0.8L14.262,15.134z"/>
</svg>
