<?xml version="1.0" encoding="utf-8"?>
<!-- Generator: Adobe Illustrator 16.0.0, SVG Export Plug-In . SVG Version: 6.00 Build 0)  -->
<!DOCTYPE svg PUBLIC "-//W3C//DTD SVG 1.1//EN" "http://www.w3.org/Graphics/SVG/1.1/DTD/svg11.dtd">
<svg version="1.1" id="Layer_1" xmlns="http://www.w3.org/2000/svg" xmlns:xlink="http://www.w3.org/1999/xlink" x="0px" y="0px"
	 width="128px" height="128px" viewBox="0 0 128 128" enable-background="new 0 0 128 128" xml:space="preserve">
<rect x="-2" y="-2.495" display="none" fill="#0A0A0A" width="133.5" height="133.167"/>
<line fill="none" stroke="#C0C0C1" stroke-width="4" stroke-linecap="round" x1="66.141" y1="3.32" x2="66.141" y2="35.155"/>
<line fill="none" stroke="#C0C0C1" stroke-width="4" stroke-linecap="round" x1="90.438" y1="3.32" x2="90.438" y2="35.155"/>
<path fill="none" stroke="#C0C0C1" stroke-width="4" stroke-linecap="round" d="M9.595,70.766v49.428
	c0,2.313,1.875,4.189,4.189,4.189H119.34c2.313,0,4.188-1.876,4.188-4.189V21.332c0-2.313-1.875-4.189-4.188-4.189H66.561"/>
<circle fill="#C0C0C1" cx="57.767" cy="97.992" r="7.121"/>
<circle fill="#C0C0C1" cx="82.061" cy="97.992" r="7.121"/>
<circle display="none" fill="#F48121" cx="103.841" cy="97.992" r="7.121"/>
<circle fill="#C0C0C1" cx="103.841" cy="76.21" r="7.121"/>
<circle fill="#C0C0C1" cx="103.841" cy="53.586" r="7.121"/>
<circle fill="#C0C0C1" cx="82.061" cy="53.586" r="7.121"/>
<circle fill="#C0C0C1" cx="82.061" cy="76.21" r="7.121"/>
<circle fill="#C0C0C1" cx="35.984" cy="76.21" r="7.121"/>
<circle fill="#C0C0C1" cx="57.767" cy="76.21" r="7.121"/>
<circle fill="#C0C0C1" cx="35.984" cy="97.992" r="7.121"/>
<circle display="none" fill="none" stroke="#F48121" stroke-width="4" cx="31.511" cy="35.078" r="26.456"/>
<line display="none" fill="none" stroke="#F48121" stroke-width="4" stroke-linecap="round" x1="20.021" y1="23.39" x2="43.121" y2="46.489"/>
<line display="none" fill="none" stroke="#F48121" stroke-width="4" stroke-linecap="round" x1="19.446" y1="46.489" x2="42.544" y2="23.39"/>
</svg>
