<?xml version="1.0" encoding="utf-8"?>
<!-- Generator: Adobe Illustrator 16.0.0, SVG Export Plug-In . SVG Version: 6.00 Build 0)  -->
<!DOCTYPE svg PUBLIC "-//W3C//DTD SVG 1.1//EN" "http://www.w3.org/Graphics/SVG/1.1/DTD/svg11.dtd">
<svg version="1.1" id="Layer_1" xmlns="http://www.w3.org/2000/svg" xmlns:xlink="http://www.w3.org/1999/xlink" x="0px" y="0px"
	 width="128px" height="128px" viewBox="0 0 128 128" enable-background="new 0 0 128 128" xml:space="preserve">
<rect x="-2" y="-2.495" display="none" fill="#0A0A0A" width="133.5" height="133.167"/>
<path fill="none" stroke="#C0C0C1" stroke-width="4" d="M111.85,50.998h10.151c1.051,0,1.903,0.853,1.903,1.903v31.086
	c0,1.051-0.853,1.903-1.903,1.903H111.85c-1.051,0-1.903-0.853-1.903-1.903V52.901C109.946,51.851,110.799,50.998,111.85,50.998z"/>
<path fill="none" stroke="#C0C0C1" stroke-width="4" stroke-linecap="round" d="M109.63,57.659c0,0-4.282,0.939-6.027,0
	c-4.124-2.221-8.514-8.702-11.737-12.054c-3.223-3.352-5.823-5.104-9.516-7.931 M41.747,61.783c0,0-3.497,2.44-6.344,0
	s0-6.345,0-6.345s21.253-19.984,23.791-21.888c2.537-1.903,8.247-1.974,11.419-1.269"/>
<path display="none" fill="none" stroke="#F48121" stroke-width="4" d="M50.481,67.81l-9.921,9.865
	c-0.044,0.044-0.083,0.084-0.12,0.118c-0.566-0.496-1.569-1.348-2.667-2.277c-0.386-0.327-0.783-0.664-1.177-1
	c-1.819-1.545-3.527-3.013-3.978-3.479l-0.065-0.067c-0.069-0.071-0.067-0.185,0.003-0.255l54.72-54.072
	c2.03-2.007,5.305-1.988,7.312,0.044c2.004,2.026,1.989,5.292-0.031,7.302L60.58,57.769"/>
<path fill="none" stroke="#C0C0C1" stroke-width="4" d="M70.295,70.03l-6.894,7.514c-2.114,2.304-5.693,2.465-8.006,0.361l0,0
	c-2.351-2.139-2.489-5.789-0.308-8.099l1.885-1.997"/>
<path fill="none" stroke="#C0C0C1" stroke-width="4" d="M54.369,74.592l-2.44,2.319c-2.172,2.063-5.592,2.02-7.71-0.099l0,0"/>
<path display="none" fill="none" stroke="#F48121" stroke-width="4" d="M33.653,81.614L33.653,81.614l0.266-0.702l3.776-4.255
	l-4.499-3.717L7.805,98.402c0.259,0.035,0.54,0.069,0.84,0.104c1.756,0.199,4.168,0.358,6.801,0.197
	c5.314-0.327,11.262-1.933,14.729-6.804c1.731-2.434,2.605-5.015,3.043-7.001c0.219-0.989,0.328-1.823,0.381-2.404
	c0.027-0.291,0.041-0.518,0.046-0.668c0.004-0.075,0.005-0.133,0.006-0.167C33.653,81.641,33.653,81.615,33.653,81.614
	L33.653,81.614z"/>
<path fill="none" stroke="#C0C0C1" stroke-width="4" d="M71.882,48.46c0,0,3.489,3.172-3.172,7.613
	c-3.052,2.033-4.985,1.816-7.613,1.903c-2.617,0.087-5.393,0-9.199,0c-3.807,0.001-10.469,0-9.517,5.393
	c0.952,5.394,7.613,4.441,11.103,4.441c3.488,0,6.104,0.103,14.274,1.586c9.492,1.723,13.19,8.564,22.839,8.564
	c6.979,0,18.397,0,18.397,0"/>
<path display="none" fill="none" stroke="#F48121" stroke-width="4" stroke-dasharray="8,8" d="M7.805,109.999h117.368"/>
</svg>
