<?xml version="1.0" encoding="utf-8"?>
<!-- Generator: Adobe Illustrator 16.0.0, SVG Export Plug-In . SVG Version: 6.00 Build 0)  -->
<!DOCTYPE svg PUBLIC "-//W3C//DTD SVG 1.1//EN" "http://www.w3.org/Graphics/SVG/1.1/DTD/svg11.dtd">
<svg version="1.1" id="Layer_1" xmlns="http://www.w3.org/2000/svg" xmlns:xlink="http://www.w3.org/1999/xlink" x="0px" y="0px"
	 width="128px" height="128px" viewBox="0 0 128 128" enable-background="new 0 0 128 128" xml:space="preserve">
<line fill="none" stroke="#C0C0C1" stroke-width="4" stroke-linecap="round" x1="39.213" y1="2.5" x2="39.213" y2="26.285"/>
<line fill="none" stroke="#C0C0C1" stroke-width="4" stroke-linecap="round" x1="64.729" y1="2.5" x2="64.729" y2="26.285"/>
<line fill="none" stroke="#C0C0C1" stroke-width="4" stroke-linecap="round" x1="90.247" y1="2.5" x2="90.247" y2="26.285"/>
<path fill="none" stroke="#C0C0C1" stroke-width="4" stroke-linecap="round" d="M122.188,65.426V27.607
	c0-8.304-6.731-15.037-15.037-15.037H24.222c-8.304,0-15.036,6.732-15.036,15.037v75.638c0,8.305,6.732,15.037,15.036,15.037h41.464
	"/>
<circle display="none" fill="#F48121" cx="34.702" cy="49.022" r="7.291"/>
<circle display="none" fill="#F48121" cx="56.573" cy="49.022" r="7.291"/>
<circle display="none" fill="#F48121" cx="78.446" cy="49.022" r="7.291"/>
<circle display="none" fill="#F48121" cx="100.317" cy="49.022" r="7.291"/>
<circle display="none" fill="#F48121" cx="34.702" cy="70.894" r="7.29"/>
<circle display="none" fill="#F48121" cx="56.573" cy="70.894" r="7.29"/>
<path display="none" fill="#F48121" d="M34.702,85.474c4.026,0,7.291,3.264,7.291,7.293c0,4.023-3.265,7.289-7.291,7.289
	c-4.026,0-7.29-3.266-7.29-7.289C27.412,88.737,30.676,85.474,34.702,85.474z"/>
<path display="none" fill="#F48121" d="M56.573,85.474c4.026,0,7.291,3.264,7.291,7.293c0,4.023-3.264,7.289-7.291,7.289
	s-7.291-3.266-7.291-7.289C49.282,88.737,52.546,85.474,56.573,85.474z"/>
<path fill="none" stroke="#C0C0C1" stroke-width="4" stroke-linecap="round" d="M122.188,92.767
	c0-14.094-11.425-25.518-25.516-25.518c-14.09,0-25.516,11.424-25.516,25.518c0,14.09,11.426,25.516,25.516,25.516"/>
<line display="none" fill="none" stroke="#F48121" stroke-width="4" stroke-linecap="round" x1="94.544" y1="83.322" x2="94.657" y2="95.666"/>
<line display="none" fill="none" stroke="#F48121" stroke-width="4" stroke-linecap="round" x1="106.243" y1="95.666" x2="94.669" y2="95.666"/>
<path fill="#C4C4C4" d="M110.863,114.021c1.909,1.042,2.117,3.703,0.388,5.03l-8.371,6.408c-1.891,1.451-4.64,0.223-4.823-2.152
	l-0.891-11.451c-0.186-2.378,2.34-4.017,4.434-2.878L110.863,114.021z"/>
</svg>
