<?xml version="1.0" encoding="utf-8"?>
<!-- Generator: Adobe Illustrator 16.0.0, SVG Export Plug-In . SVG Version: 6.00 Build 0)  -->
<!DOCTYPE svg PUBLIC "-//W3C//DTD SVG 1.1//EN" "http://www.w3.org/Graphics/SVG/1.1/DTD/svg11.dtd">
<svg version="1.1" id="Layer_1" xmlns="http://www.w3.org/2000/svg" xmlns:xlink="http://www.w3.org/1999/xlink" x="0px" y="0px"
	 width="128px" height="128px" viewBox="0 0 128 128" enable-background="new 0 0 128 128" xml:space="preserve">
<rect x="-2" y="-2.495" display="none" fill="#0A0A0A" width="133.5" height="133.167"/>
<path display="none" fill="none" stroke="#F48121" stroke-width="4" stroke-linecap="round" d="M7.84,113.431v-22.59
	c0,0-2.171-7.782,13.036-11.295c15.209-3.515,17.381-6.023,17.381-6.023l12.313,12.8l9.06-8.896"/>
<line display="none" fill="none" stroke="#F48121" stroke-width="4" x1="38.523" y1="72.999" x2="40.351" y2="59.061"/>
<line display="none" fill="none" stroke="#F48121" stroke-width="4" x1="62.005" y1="67.809" x2="60.323" y2="59.591"/>
<path display="none" fill="none" stroke="#F48121" stroke-width="4" d="M31.48,33.549c-1.086-11.332,7.822-21.136,19.206-21.136
	c11.253,0,20.118,9.592,19.231,20.812l-0.964,12.234c-0.783,9.895-9.339,17.343-19.248,16.753
	c-8.96-0.534-16.196-7.513-17.054-16.448L31.48,33.549z"/>
<path display="none" fill="none" stroke="#F48121" stroke-width="4" stroke-linecap="round" d="M36.239,35.04
	c0,0,4.969,0.968,9.501-1.019c5.178-2.271,11.581-8.958,11.581-8.958s2.181,5.061,4.632,7.33c2.738,2.536,4.219,2.648,4.219,2.648"
	/>
<line fill="none" stroke="#F48121" stroke-width="4" stroke-linecap="round" x1="29.291" y1="77.396" x2="29.291" y2="91.872"/>
<path fill="none" stroke="#F48121" stroke-width="4" stroke-linecap="round" d="M24.125,113.431L24.125,113.431
	c-2.756,0-4.988-2.233-4.988-4.99v-4.988c0-5.508,4.467-9.978,9.977-9.978l0,0c5.509,0,9.976,4.47,9.976,9.978v4.988
	c0,2.757-2.233,4.99-4.988,4.99l0,0"/>
<line display="none" fill="none" stroke="#F48121" stroke-width="4" stroke-linecap="round" x1="74.935" y1="54.103" x2="74.935" y2="68.391"/>
<line display="none" fill="none" stroke="#F48121" stroke-width="4" stroke-linecap="round" x1="88.538" y1="54.103" x2="88.538" y2="68.391"/>
<line display="none" fill="none" stroke="#F48121" stroke-width="4" stroke-linecap="round" x1="102.148" y1="54.103" x2="102.148" y2="68.391"/>
<path display="none" fill="none" stroke="#F48121" stroke-width="4" stroke-linecap="round" d="M119.978,88.455V76.307
	c0-8.855-7.181-16.035-16.034-16.035H75.76c-8.854,0-16.033,7.18-16.033,16.035v24.296c0,8.854,7.179,16.034,16.033,16.034h14.094"
	/>
<circle fill="#F48121" cx="73.331" cy="79.709" r="3.888"/>
<circle fill="#F48121" cx="84.993" cy="79.709" r="3.888"/>
<circle fill="#F48121" cx="96.655" cy="79.709" r="3.888"/>
<circle fill="#F48121" cx="108.315" cy="79.709" r="3.888"/>
<circle fill="#F48121" cx="73.331" cy="91.371" r="3.886"/>
<circle fill="#F48121" cx="84.993" cy="91.371" r="3.886"/>
<circle fill="#F48121" cx="73.331" cy="103.033" r="3.886"/>
<circle fill="#F48121" cx="84.993" cy="103.033" r="3.886"/>
<circle display="none" fill="none" stroke="#F48121" stroke-width="4" cx="106.371" cy="103.032" r="12.001"/>
<line fill="none" stroke="#F48121" stroke-width="4" stroke-linecap="round" x1="106.031" y1="98.012" x2="106.031" y2="104.523"/>
<line fill="none" stroke="#F48121" stroke-width="4" stroke-linecap="round" x1="110.601" y1="104.637" x2="106.031" y2="104.637"/>
</svg>
