<svg width="87" height="87" viewBox="0 0 87 87" fill="none" xmlns="http://www.w3.org/2000/svg">
<path d="M68.9993 40.3319C68.9993 40.3319 68.9978 40.2974 68.9632 40.2989L43.9612 17.3429L40.8269 14.4651C36.9721 10.9258 31.9788 9.09652 26.7615 9.31911C21.5441 9.54169 16.7247 11.7896 13.1854 15.6444C9.64608 19.4991 7.81683 24.4925 8.03941 29.7098C8.26347 34.9617 10.5114 39.7811 14.3662 43.3204L17.4644 46.1651C17.4644 46.1651 17.4644 46.1651 17.4989 46.1636L42.5024 69.1542L45.6367 72.032C49.4915 75.5713 54.4833 77.366 59.7007 77.1434C64.918 76.9208 69.7389 74.7075 73.2782 70.8527C76.8175 66.9979 78.6468 62.0046 78.4227 56.7527C78.2001 51.5353 75.9522 46.716 72.0975 43.1766L68.9993 40.3319ZM58.2615 45.8438C56.7414 47.5355 54.1154 47.6476 52.4222 46.0929C50.765 44.5713 50.653 41.9454 52.1731 40.2537C53.7292 38.595 56.3552 38.483 58.0124 40.0045C59.7056 41.5592 59.8176 44.1851 58.2615 45.8438ZM45.7605 34.3658C44.2404 36.0576 41.6144 36.1696 39.9212 34.6149C38.264 33.0933 38.152 30.4674 39.6721 28.7756C41.2282 27.117 43.8542 27.0049 45.5114 28.5265C47.2046 30.0812 47.3166 32.7071 45.7605 34.3658ZM45.961 46.3686C44.4064 48.0618 41.815 48.1724 40.1217 46.6177C38.4646 45.0961 38.3525 42.4702 39.8726 40.7784C41.4288 39.1198 44.0202 39.0092 45.7119 40.5293C47.4051 42.084 47.5172 44.7099 45.961 46.3686ZM28.1941 41.2767C29.7502 39.618 32.3762 39.506 34.0333 41.0276C35.7266 42.5822 35.8386 45.2081 34.2825 46.8668C32.7624 48.5586 30.1364 48.6706 28.4432 47.1159C26.786 45.5944 26.674 42.9684 28.1941 41.2767ZM40.9442 58.594C39.287 57.0724 39.175 54.4464 40.6951 52.7547C42.2512 51.096 44.8772 50.984 46.5344 52.5056C48.2276 54.0602 48.3396 56.6862 46.7835 58.3448C45.2634 60.0366 42.6374 60.1486 40.9442 58.594ZM17.8724 39.5017C15.0263 36.8885 13.3873 33.3585 13.2222 29.4887C13.0586 25.6534 14.391 21.9967 17.0042 19.1506C19.5842 16.3406 23.1473 14.6655 26.9826 14.5019C30.8178 14.3383 34.5107 15.7038 37.3207 18.2838L38.5456 19.4085L19.0958 40.5918L17.8724 39.5017ZM69.4595 67.3465C66.8794 70.1565 63.3148 71.797 59.4796 71.9606C55.6443 72.1242 51.953 70.7933 49.1429 68.2132L47.9181 67.0886L67.3664 45.8707L68.5912 46.9954C71.4373 49.6085 73.0763 53.1385 73.2399 56.9738C73.405 60.8436 72.0726 64.5004 69.4595 67.3465Z" fill="#D4F0CC"/>
</svg>
