<svg width="94" height="94" viewBox="0 0 94 94" fill="none" xmlns="http://www.w3.org/2000/svg">
<path d="M69.502 25.0195L66.3372 24.1715C66.0299 24.0891 65.7062 24.0683 65.3967 24.1171C65.8612 21.2776 64.1412 18.4785 61.3144 17.7211L48.6551 14.329C45.8897 13.588 43.0868 15.0764 42.0018 17.6508L37.9152 16.5558C33.1526 15.2797 28.2826 18.0913 27.0065 22.8539L16.4269 62.3375C15.1507 67.1001 17.9624 71.9701 22.725 73.2462L54.3119 81.7099C59.0745 82.986 63.9445 80.1744 65.2206 75.4118L75.8002 35.9282C77.0763 31.1656 74.2647 26.2956 69.502 25.0195ZM26.7387 61.7085C27.0762 60.4487 28.3701 59.6757 29.6606 60.0215L54.9178 66.7891C56.2084 67.1349 56.9424 68.4513 56.6048 69.7111C56.2673 70.9709 54.9734 71.7439 53.6829 71.3981L28.4257 64.6305C27.1352 64.2847 26.4011 62.9683 26.7387 61.7085ZM56.2187 61.9344L30.9615 55.1667C29.671 54.8209 28.9369 53.5045 29.2745 52.2447C29.6203 50.9542 30.9059 50.2119 32.1964 50.5577L57.4536 57.3254C58.7442 57.6712 59.4864 58.9568 59.1407 60.2474C58.8031 61.5071 57.5092 62.2801 56.2187 61.9344ZM43.9051 38.4473L46.3325 39.0977L46.9829 36.6703C47.3205 35.4105 48.6451 34.6457 49.9049 34.9833C51.1647 35.3208 51.9295 36.6455 51.5919 37.9053L50.9415 40.3327L53.3689 40.9831C54.6594 41.3289 55.3934 42.6453 55.0559 43.9051C54.7101 45.1956 53.4244 45.9379 52.1339 45.5921L49.7065 44.9416L49.0561 47.369C48.7103 48.6596 47.3939 49.3936 46.1341 49.056C44.8743 48.7185 44.1013 47.4246 44.4471 46.1341L45.0975 43.7067L42.6701 43.0562C41.3796 42.7105 40.6373 41.4248 40.9831 40.1343C41.3207 38.8745 42.6146 38.1015 43.9051 38.4473ZM46.36 19.576C46.4835 19.1151 46.9592 18.8145 47.4201 18.938L60.0794 22.33C60.5403 22.4535 60.802 22.9518 60.6785 23.4127L59.8305 26.5775C59.707 27.0384 59.2313 27.3391 58.7704 27.2156L46.1111 23.8235C45.6502 23.7 45.3885 23.2018 45.512 22.7409L46.36 19.576Z" fill="#F3D8EF"/>
</svg>
