<svg width="104" height="54" viewBox="0 0 104 54" fill="none" xmlns="http://www.w3.org/2000/svg">
<path d="M58.5001 18.8666C58.5001 18.1866 58.3876 17.5066 58.2751 16.8266C58.1626 14.56 57.8251 12.86 57.2626 11.3866C56.2501 7.30663 51.5251 4.1333 45.7876 4.1333C40.0501 4.1333 35.2126 7.30663 34.2001 11.3866C33.6376 13.0866 33.3001 15.24 33.1876 18.0733C33.1876 18.3 33.1876 18.5266 33.1876 18.7533C32.2876 18.98 31.9501 20.7933 32.2876 22.9466C32.6251 24.9866 33.5251 26.5733 34.3126 26.6866C35.5501 30.0866 37.6876 33.3733 40.2751 35.4133C41.9626 36.7733 43.8751 37.5666 45.7876 37.5666C47.8126 37.5666 49.6126 36.7733 51.3001 35.4133C53.8876 33.3733 56.0251 30.0866 57.2626 26.5733C58.0501 26.3466 58.8376 24.8733 59.1751 22.9466C59.6251 20.9066 59.2876 19.0933 58.5001 18.8666Z" fill="#C9E2F8"/>
<path d="M76.9501 59.1C73.6876 51.7333 67.1626 44.7066 58.9501 42.1C59.4001 43.0066 59.6251 44.0266 59.6251 45.0466V47.4266C60.9751 47.88 61.8751 49.1266 61.8751 50.6C61.8751 52.5266 60.4126 54 58.5001 54C56.5876 54 55.1251 52.5266 55.1251 50.6C55.1251 49.1266 56.0251 47.88 57.3751 47.4266V45.0466C57.3751 43.46 56.5876 42.1 55.4626 41.3066C54.4501 41.1933 53.5501 41.08 52.5376 40.9666C51.7501 40.9666 47.0251 55.36 46.1251 55.1333C45.4501 55.36 40.2751 40.9666 39.7126 40.9666C38.9251 40.8533 38.1376 40.9666 37.3501 40.9666C35.8876 41.76 34.8751 43.2333 34.8751 45.0466V51.8466C39.1501 52.1866 42.6376 55.7 42.7501 60.0066C43.4251 60.3466 43.8751 61.14 43.8751 61.9333C43.8751 63.18 42.8626 64.2 41.6251 64.2C40.3876 64.2 39.3751 63.18 39.3751 61.9333C39.3751 61.14 39.8251 60.3466 40.5001 60.0066C40.3876 56.72 37.6876 54 34.3126 54C30.9376 54 28.2376 56.72 28.1251 60.0066C28.8001 60.3466 29.2501 61.14 29.2501 61.9333C29.2501 63.18 28.2376 64.2 27.0001 64.2C25.7626 64.2 24.7501 63.18 24.7501 61.9333C24.7501 61.14 25.2001 60.3466 25.8751 60.0066C25.9876 56.04 28.8001 52.7533 32.6251 51.96V45.0466C32.6251 43.8 32.9626 42.5533 33.5251 41.5333C25.0876 43.8 18.5626 51.62 15.1876 59.1C12.9376 64.3133 17.2126 69.8666 23.4001 69.8666H68.6251C75.0376 69.8666 79.3126 64.3133 76.9501 59.1Z" fill="#C9E2F8"/>
<g clip-path="url(#clip0_4701_10683)">
<path d="M78.3676 5.77098L91.5902 10.1176C94.8026 11.1737 96.1448 14.573 95.0965 17.8092L91.7998 27.9869C90.7364 31.2701 87.6775 33.1707 84.465 32.1147L77.0688 29.6833L69.6652 32.024C68.7998 32.3104 67.9892 31.473 68.2778 30.5819L70.3085 27.3572C67.667 25.9699 66.7942 22.9844 67.7361 20.0765L71.0328 9.89874C72.081 6.6625 75.1551 4.71496 78.3676 5.77098ZM77.7711 19.2755L79.4937 19.8417L78.9316 21.5771C78.6885 22.3276 79.0962 23.1362 79.8412 23.3811C80.5861 23.626 81.3888 23.2152 81.6319 22.4648L82.194 20.7294L83.9166 21.2957C84.6615 21.5406 85.4643 21.1298 85.7073 20.3794C85.9504 19.6289 85.5427 18.8203 84.7978 18.5754L83.0751 18.0091L83.6372 16.2737C83.8803 15.5233 83.4726 14.7146 82.7277 14.4697C81.9827 14.2249 81.18 14.6356 80.9369 15.3861L80.3748 17.1214L78.6522 16.5552C77.9073 16.3103 77.1045 16.721 76.8615 17.4715C76.6184 18.2219 77.0261 19.0306 77.7711 19.2755Z" fill="#C9E2F8"/>
</g>
<defs>
<clipPath id="clip0_4701_10683">
<rect width="39.2066" height="29.5807" fill="white" transform="matrix(-0.949987 -0.312288 -0.30815 0.951338 103.548 13.0107)"/>
</clipPath>
</defs>
</svg>
