<svg width="103" height="103" viewBox="0 0 103 103" fill="none" xmlns="http://www.w3.org/2000/svg">
<path d="M71.2705 49.621C71.1234 49.433 70.9582 49.2877 70.7626 49.1548L59.3772 39.3384L51.898 20.9269L53.2652 20.3715C54.5412 19.8532 55.1365 18.4433 54.6182 17.1672C54.1121 15.9216 52.6899 15.2959 51.4139 15.8142L26.4399 25.9593C25.1639 26.4777 24.5809 27.9179 25.0869 29.1636C25.6053 30.4396 27.0152 31.035 28.2912 30.5166L29.6584 29.9612L37.1376 48.3727L35.8233 63.348C35.7758 63.5797 35.7587 63.799 35.7844 64.0364L34.7511 75.7827C34.4007 79.7124 36.0953 83.4484 39.2683 85.7699C42.3805 88.116 46.445 88.624 50.1212 87.1306L77.1004 76.1709C80.7767 74.6776 83.3355 71.479 83.9299 67.6272C84.5851 63.7507 83.1942 59.8912 80.215 57.3495L71.2705 49.621ZM79.0783 66.8371C78.7184 69.0009 77.3151 70.7744 75.2492 71.6136L48.2699 82.5733C46.2039 83.4126 43.9614 83.1201 42.1945 81.8203C40.3726 80.4721 39.4422 78.4431 39.6436 76.2376L40.5789 65.5575L68.895 54.0548L77.0134 61.057C78.6957 62.4973 79.4439 64.6003 79.0783 66.8371Z" fill="#F3E7AF"/>
</svg>
