<svg width="84" height="64" viewBox="0 0 84 64" fill="none" xmlns="http://www.w3.org/2000/svg">
<path d="M60.8776 16.7655C61.8134 10.1109 57.0303 3.87219 50.2717 3.87219C46.6325 3.87219 43.5131 5.63983 41.5375 8.44725C39.5619 5.74381 36.4426 3.87219 32.8033 3.87219C26.1487 3.87219 21.3657 10.1109 22.1975 16.7655C23.5492 27.0594 34.259 34.2339 39.146 37.0414C40.6017 37.8732 42.3694 37.8732 43.929 37.0414C48.816 34.2339 59.5258 26.9554 60.8776 16.7655Z" fill="#C2EBE4"/>
<path d="M37.0663 49.3108C37.0663 48.479 36.8583 47.6471 36.5464 46.8153L35.4026 43.488C34.2588 40.0567 31.6594 37.2493 28.2281 35.4816C25.3167 34.0259 22.8212 31.9464 21.2615 29.2429L19.9098 26.9554C19.5979 26.3315 18.974 25.9156 18.2461 25.8116C17.5183 25.6037 16.7904 25.7077 16.1666 26.0196L15.8546 26.2276C14.9188 26.7474 14.5029 27.7872 14.9188 28.723C15.9586 31.2185 17.8302 34.7538 21.1575 38.0811C21.5734 38.497 21.4695 39.0169 21.0536 39.3289C20.6376 39.6408 20.0138 39.6408 19.7018 39.3289C16.1666 35.7936 14.191 32.0504 13.0472 29.4509C12.5273 28.0992 12.8392 26.6435 13.775 25.6037C13.983 25.2917 14.087 24.9798 13.983 24.5639L12.4233 16.4536C12.2154 15.4138 11.2796 14.6859 10.1358 14.7899C8.88806 14.7899 7.95225 15.8297 7.95225 16.9735C7.2244 24.8758 7.32838 29.5549 8.47214 34.8578C10.6557 43.9039 15.6467 50.6625 23.2371 55.3416L27.8122 59.0848C28.9559 60.0206 30.6196 60.1246 31.9713 59.3967L37.6901 56.0694C38.106 55.8614 38.314 55.3416 38.418 54.8217C38.6259 53.9898 38.418 53.054 38.106 52.3262C37.4822 51.3904 37.1702 50.3506 37.0663 49.3108Z" fill="#C2EBE4"/>
<path d="M45.2807 52.4302C44.8647 53.158 44.7608 54.0938 44.9687 54.9257C45.0727 55.4456 45.2807 55.8615 45.6966 56.1734L51.4154 59.5007C52.6631 60.2286 54.4308 60.1246 55.5745 59.1888L60.1496 55.4456C67.74 50.6626 72.731 43.9039 74.9146 34.9618C76.0583 29.6589 76.1623 24.8759 75.4344 17.0775C75.4344 15.9337 74.4986 14.9979 73.2509 14.8939C72.1071 14.8939 71.1713 15.6218 70.9634 16.5576L69.2997 24.5639C69.1957 24.8759 69.2997 25.2918 69.5077 25.6037C70.4435 26.6435 70.7554 28.0992 70.2355 29.4509C69.0918 32.0504 67.1162 35.8976 63.5809 39.3289C63.165 39.7448 62.5411 39.7448 62.2292 39.3289C61.7093 39.017 61.7093 38.3931 62.1252 38.0811C65.4525 34.7538 67.3241 31.2186 68.3639 28.7231C68.7798 27.7873 68.3639 26.7475 67.4281 26.2276L67.1162 26.0196C66.4923 25.7077 65.7644 25.6037 65.0366 25.8117C64.3087 26.0196 63.7888 26.4355 63.3729 26.9554L62.0212 29.243C60.3576 31.9464 57.966 34.026 55.0546 35.4817C51.6234 37.1453 49.0239 40.0567 47.8801 43.488L46.7364 46.8153C46.4244 47.6472 46.3204 48.479 46.2165 49.3108C46.0085 50.3506 45.8006 51.3904 45.2807 52.4302Z" fill="#C2EBE4"/>
</svg>
