<svg width="105" height="105" viewBox="0 0 105 105" fill="none" xmlns="http://www.w3.org/2000/svg">
<path d="M62.4417 26.7799L56.088 29.5551L55.6123 28.4659C52.8107 22.0517 45.3338 19.1207 38.9499 21.9091C32.566 24.6975 29.635 32.1744 32.4366 38.5886L32.9124 39.6778L26.5587 42.4529C19.7814 45.4131 16.663 53.3682 19.6232 60.1455L29.7459 83.3212C32.7193 90.1287 40.6612 93.2169 47.4384 90.2567L83.3215 74.5837C90.0987 71.6235 93.2304 63.6987 90.257 56.8912L80.1343 33.7154C77.1741 26.9382 69.219 23.8198 62.4417 26.7799ZM49.6986 63.5098C48.4581 64.0516 46.9933 63.5025 46.4383 62.2317C45.8965 60.9913 46.4758 59.5133 47.7163 58.9714L51.6798 57.2403L49.8958 53.1558C49.3539 51.9153 49.9333 50.4373 51.1738 49.8955C52.4143 49.3537 53.8923 49.933 54.4341 51.1735L56.2181 55.258L60.1816 53.5269C61.4221 52.985 62.9001 53.5644 63.4419 54.8049C63.9969 56.0756 63.4043 57.5234 62.1638 58.0652L58.2004 59.7964L59.9844 63.8809C60.5394 65.1516 59.9468 66.5993 58.7064 67.1412C57.4659 67.683 56.0011 67.1338 55.4461 65.8631L53.662 61.7786L49.6986 63.5098ZM36.975 36.6063C35.2702 32.7034 37.0292 28.1522 40.9321 26.4474C44.8351 24.7427 49.3692 26.5452 51.074 30.4482L51.5497 31.5374L37.4507 37.6955L36.975 36.6063V36.6063Z" fill="#BAE7E8"/>
</svg>
