<svg width="75" height="64" viewBox="0 0 75 64" fill="none" xmlns="http://www.w3.org/2000/svg">
<path d="M48.1784 1.67689L9.30627 16.4498C2.56712 19.0109 -0.884289 26.6937 1.67684 33.4329L9.73139 54.627C12.3296 61.4638 19.9753 64.8175 26.7145 62.2564L51.5224 52.8285L67.5365 57.0258C69.4098 57.5434 71.0525 55.6896 70.3473 53.8339L67.5635 46.5087C73.0524 43.305 75.5174 36.5559 73.2161 30.5004L65.1615 9.30632C62.6004 2.56718 54.9176 -0.884235 48.1784 1.67689ZM44.9876 32.3981L41.3738 33.7715L42.7472 37.3852C43.3411 38.9479 42.5539 40.7001 40.9912 41.294C39.4285 41.8879 37.6763 41.1007 37.0824 39.538L35.709 35.9243L32.0953 37.2976C30.5326 37.8915 28.7804 37.1044 28.1865 35.5417C27.5926 33.979 28.3798 32.2267 29.9425 31.6329L33.5562 30.2595L32.1829 26.6458C31.589 25.0831 32.3761 23.3308 33.9388 22.7369C35.5015 22.1431 37.2538 22.9302 37.8476 24.4929L39.221 28.1067L42.8347 26.7333C44.3974 26.1394 46.1497 26.9266 46.7436 28.4893C47.3374 30.052 46.5503 31.8042 44.9876 32.3981Z" fill="#C0EAF7"/>
</svg>
