<svg width="91" height="58" viewBox="0 0 91 58" fill="none" xmlns="http://www.w3.org/2000/svg">
<g clip-path="url(#clip0_4701_10638)">
<path d="M65.9299 23.5924C67.6373 17.0929 63.6165 10.3377 56.9042 9.54751C53.2899 9.12202 49.9853 10.5128 47.695 13.07C46.0491 10.1541 43.1699 7.93064 39.5556 7.50515C32.9466 6.7271 27.467 12.3638 27.5151 19.0701C27.654 29.4514 37.4515 37.8289 41.9768 41.1884C43.3252 42.1847 45.0808 42.3914 46.727 41.7476C51.9087 39.5308 63.396 33.5544 65.9299 23.5924Z" fill="#C2EBE4"/>
<path d="M38.477 53.1305C38.5743 52.3044 38.465 51.4539 38.2525 50.5914L37.5056 47.1531C36.7708 43.6116 34.5174 40.5196 31.3163 38.3629C28.5951 36.5767 26.3599 34.2197 25.127 31.3524L24.052 28.9225C23.8151 28.2665 23.2442 27.7805 22.5335 27.5921C21.8349 27.3005 21.0999 27.3186 20.4438 27.5555L20.1097 27.7256C19.1195 28.1325 18.5849 29.1165 18.8886 30.0945C19.6295 32.6945 21.0749 36.4243 23.9904 40.1178C24.3548 40.5795 24.1908 41.0837 23.7412 41.3449C23.2917 41.606 22.6721 41.5331 22.3988 41.1868C19.3011 37.2625 17.7767 33.3139 16.9447 30.5986C16.5864 29.1953 17.0664 27.7861 18.1174 26.8628C18.3604 26.5773 18.5001 26.2797 18.4455 25.8545L17.8447 17.6174C17.7598 16.5605 16.9155 15.7282 15.7674 15.6977C14.5282 15.5518 13.4772 16.4751 13.3435 17.611C11.6967 25.3741 11.2529 30.0332 11.7689 35.4335C12.8798 44.6728 17.0463 51.9686 24.0376 57.503L28.1437 61.7555C29.1702 62.8186 30.8103 63.1164 32.2378 62.5516L38.3064 59.9157C38.7438 59.7578 39.0111 59.2658 39.1752 58.7616C39.479 57.9598 39.3818 57.0061 39.1571 56.2468C38.647 55.2444 38.4587 54.1753 38.477 53.1305Z" fill="#C2EBE4"/>
<path d="M46.2705 57.1889C45.7723 57.8631 45.5597 58.7804 45.6689 59.6308C45.7114 60.1593 45.8693 60.5967 46.2459 60.9551L51.5365 64.9282C52.6906 65.797 54.4583 65.9004 55.7036 65.1047L60.6849 61.922C68.7825 58.0593 74.5295 51.9306 77.7435 43.305C79.4994 38.1722 80.1619 33.4342 80.3508 25.6042C80.4846 24.4682 79.6646 23.4294 78.4376 23.1803C77.3016 23.0466 76.2872 23.66 75.9712 24.5651L73.3829 32.322C73.2432 32.6197 73.2978 33.0449 73.4678 33.379C74.2757 34.521 74.4153 36.0032 73.7409 37.2849C72.3011 39.7328 69.8892 43.3227 65.977 46.3171C65.5153 46.6815 64.8957 46.6086 64.6345 46.159C64.1547 45.7885 64.2276 45.1689 64.6772 44.9077C68.3707 41.9922 70.6428 38.7 71.9672 36.3432C72.4897 35.4625 72.1982 34.3812 71.3296 33.7554L71.0441 33.5124C70.461 33.1297 69.7503 32.9413 69.0031 33.0628C68.2559 33.1842 67.691 33.5365 67.2171 34.0042L65.6072 36.118C63.6389 38.6084 61.0207 40.3941 57.959 41.4994C54.3568 42.7505 51.4347 45.338 49.8976 48.612L48.3727 51.7828C47.9656 52.5724 47.7651 53.3864 47.5646 54.2004C47.2365 55.2087 46.9084 56.217 46.2705 57.1889Z" fill="#C2EBE4"/>
</g>
<defs>
<clipPath id="clip0_4701_10638">
<rect width="83.1829" height="62.3872" fill="white" transform="translate(7.71387 0.510986) rotate(6.71423)"/>
</clipPath>
</defs>
</svg>
