<svg width="82" height="82" viewBox="0 0 82 82" fill="none" xmlns="http://www.w3.org/2000/svg">
<path d="M69.4951 12.505C65.8735 8.88337 61.0218 6.86754 55.7943 6.83337C50.6352 6.86754 45.7835 8.88337 42.1618 12.505L27.3335 27.3334L12.5052 42.1617C8.84933 45.8175 6.8335 50.6692 6.8335 55.8284C6.8335 60.9875 8.84933 65.8392 12.5052 69.495C16.1268 73.1167 20.9785 75.1325 26.206 75.1667C31.3652 75.1325 36.2168 73.1167 39.8385 69.495L54.6668 54.6667L69.4951 39.8725C73.151 36.2167 75.1668 31.365 75.1668 26.1717C75.1668 21.0125 73.151 16.1609 69.4951 12.505ZM36.2168 65.8734C33.5518 68.5384 29.9985 70.0417 26.206 70.0417C22.3793 70.0417 18.7918 68.5384 16.1268 65.8734C13.4277 63.2084 11.9585 59.6209 11.9585 55.8284C11.9585 52.0359 13.4277 48.4825 16.1268 45.7834L29.1443 32.7659L49.2343 52.8559L36.2168 65.8734ZM65.8735 36.2509L52.856 49.2342L32.766 29.1442L45.7835 16.1267C48.4485 13.4959 52.0018 11.9925 55.7943 11.9584C59.621 11.9925 63.2085 13.4959 65.8735 16.1267C68.5727 18.8259 70.0418 22.3792 70.0418 26.1717C70.0418 29.9984 68.5727 33.5517 65.8735 36.2509Z" fill="#FFCCCC"/>
<path d="M69.4951 12.505C65.8735 8.88337 61.0218 6.86754 55.7943 6.83337C50.6352 6.86754 45.7835 8.88337 42.1618 12.505L27.3335 27.3334L12.5052 42.1617C8.84933 45.8175 6.8335 50.6692 6.8335 55.8284C6.8335 60.9875 8.84933 65.8392 12.5052 69.495C16.1268 73.1167 20.9785 75.1325 26.206 75.1667C31.3652 75.1325 36.2168 73.1167 39.8385 69.495L54.6668 54.6667L69.4951 39.8725C73.151 36.2167 75.1668 31.365 75.1668 26.1717C75.1668 21.0125 73.151 16.1609 69.4951 12.505ZM55.8968 21.1492C55.2477 21.7984 54.3593 22.1742 53.4368 22.1742C52.4802 22.1742 51.5577 21.7984 50.9427 21.1492C50.2593 20.5 49.9177 19.5775 49.9177 18.6892C49.9177 17.7325 50.2593 16.8442 50.9427 16.195C52.241 14.8967 54.5985 14.8967 55.8968 16.195C56.546 16.8442 56.956 17.7325 56.956 18.6892C56.956 19.5775 56.546 20.5 55.8968 21.1492ZM41.6835 26.7867L44.1435 24.2925C45.1685 23.3017 46.7743 23.3017 47.7652 24.2925C48.7902 25.3175 48.7902 26.9234 47.7652 27.9142L45.3052 30.4084C44.7927 30.9209 44.1435 31.16 43.4943 31.16C42.811 31.16 42.1618 30.9209 41.6835 30.4084C40.6585 29.4175 40.6585 27.7775 41.6835 26.7867ZM36.2168 65.8734C33.5518 68.5384 29.9985 70.0417 26.206 70.0417C22.3793 70.0417 18.7918 68.5384 16.1268 65.8734C13.4277 63.2084 11.9585 59.6209 11.9585 55.8284C11.9585 52.0359 13.4277 48.4825 16.1268 45.7834L29.1443 32.7659L49.2343 52.8559L36.2168 65.8734Z" fill="#FFCCCC"/>
</svg>
