<svg width="90" height="57" viewBox="0 0 90 57" fill="none" xmlns="http://www.w3.org/2000/svg">
<g id="Medico na Hora-02" clip-path="url(#clip0_4701_10692)">
<path id="Vector" d="M52.6335 -13.8342L17.9551 -0.655178C11.9431 1.62964 8.86402 8.48359 11.1488 14.4957L18.3344 33.4032C20.6523 39.5025 27.4732 42.4944 33.4853 40.2096L55.6167 31.7988L69.9031 35.5433C71.5743 36.005 73.0398 34.3512 72.4107 32.6957L69.9272 26.1608C74.824 23.3027 77.023 17.2818 74.97 11.8796L67.7844 -7.02793C65.4996 -13.04 58.6456 -16.1191 52.6335 -13.8342ZM49.7869 13.5726L46.5631 14.7978L47.7882 18.0216C48.3181 19.4157 47.6158 20.9789 46.2217 21.5087C44.8276 22.0385 43.2644 21.3363 42.7346 19.9422L41.5094 16.7183L38.2856 17.9435C36.8914 18.4733 35.3283 17.7711 34.7984 16.377C34.2686 14.9829 34.9709 13.4197 36.365 12.8899L39.5889 11.6647L38.3637 8.44082C37.8339 7.04671 38.5361 5.48353 39.9302 4.95371C41.3243 4.4239 42.8875 5.12614 43.4173 6.52025L44.6425 9.74412L47.8664 8.51893C49.2605 7.98912 50.8236 8.69136 51.3535 10.0855C51.8833 11.4796 51.181 13.0428 49.7869 13.5726Z" fill="#C0EAF7"/>
</g>
<defs>
<clipPath id="clip0_4701_10692">
<rect width="74.5693" height="55.927" fill="white" transform="translate(0.214844 4.09241) rotate(-20.8086)"/>
</clipPath>
</defs>
</svg>
