<?xml version="1.0" encoding="utf-8"?>
<!-- Generator: Adobe Illustrator 16.0.0, SVG Export Plug-In . SVG Version: 6.00 Build 0)  -->
<!DOCTYPE svg PUBLIC "-//W3C//DTD SVG 1.1//EN" "http://www.w3.org/Graphics/SVG/1.1/DTD/svg11.dtd">
<svg version="1.1" id="Layer_1" xmlns="http://www.w3.org/2000/svg" xmlns:xlink="http://www.w3.org/1999/xlink" x="0px" y="0px"
	 width="512px" height="512px" viewBox="0 0 512 512" enable-background="new 0 0 512 512" xml:space="preserve">
<circle fill="#FFF1A6" stroke="#F9E375" stroke-width="20" cx="257.304" cy="256.013" r="240"/>
<path fill="#FFD703" d="M240.587,102.632c7.872-13.641,27.561-13.641,35.428,0l128.354,222.305
	c7.882,13.635-1.968,30.688-17.711,30.688H129.954c-15.749,0-25.593-17.053-17.716-30.688L240.587,102.632z"/>
<path fill="#514405" d="M249.096,179.186h18.416l-3.686,92.057h-11.044L249.096,179.186z M248.177,300.711
	c0-2.826,0.984-5.215,2.947-7.182c2.088-1.969,4.48-2.947,7.183-2.947c2.822,0,5.215,0.979,7.178,2.947
	c1.963,1.967,2.946,4.355,2.946,7.182c0,2.697-0.983,5.096-2.946,7.174c-1.963,1.967-4.355,2.955-7.178,2.955
	c-2.702,0-5.095-0.988-7.183-2.955C249.161,305.807,248.177,303.408,248.177,300.711z"/>
</svg>
