<?xml version="1.0" encoding="utf-8"?>
<!-- Generator: Adobe Illustrator 16.0.0, SVG Export Plug-In . SVG Version: 6.00 Build 0)  -->
<!DOCTYPE svg PUBLIC "-//W3C//DTD SVG 1.1//EN" "http://www.w3.org/Graphics/SVG/1.1/DTD/svg11.dtd">
<svg version="1.1" id="Layer_1" xmlns="http://www.w3.org/2000/svg" xmlns:xlink="http://www.w3.org/1999/xlink" x="0px" y="0px"
	 width="512px" height="512px" viewBox="0 0 512 512" enable-background="new 0 0 512 512" xml:space="preserve">
<path display="none" fill="#F7F7F7" d="M445.18,251.438c-48.383-115.167-128.692-23.943-212.155-26.847
	c-134.528-4.68-242.97,26.847-220.51,124c24.814,107.332,144.79,35.498,236.163,69.321
	C432.697,486.03,467.184,333.569,445.18,251.438z"/>
<ellipse display="none" fill="#D6D6D6" cx="267.533" cy="488.382" rx="232.792" ry="12.868"/>
<circle display="none" fill="none" stroke="#37CF1F" stroke-width="11" cx="130.666" cy="108.195" r="59.075"/>
<linearGradient id="SVGID_1_" gradientUnits="userSpaceOnUse" x1="183.9063" y1="58.4834" x2="178.4292" y2="-12.6645" gradientTransform="matrix(1 0 0 -1 -41.6602 348.04)">
	<stop  offset="0" style="stop-color:#D4EA5A"/>
	<stop  offset="1" style="stop-color:#4DABB7"/>
</linearGradient>
<path display="none" fill="url(#SVGID_1_)" d="M126.95,301.562c1.376-7.471,8.229-12.55,15.804-11.967l0,0l0,0
	c6.993,0.54,12.524,6.14,12.742,13.149c0.221,7.133,0.319,16.066-0.197,23.017c-0.53,7.145-2.005,16.202-3.338,23.436
	c-1.325,7.182-7.908,12.068-15.19,11.508l0,0c-7.282-0.56-13.04-6.396-13.25-13.697c-0.211-7.353-0.282-16.528,0.287-23.67
	C124.336,316.715,125.689,308.399,126.95,301.562z"/>
<linearGradient id="SVGID_2_" gradientUnits="userSpaceOnUse" x1="228.7671" y1="-32.4976" x2="189.7553" y2="-57.3798" gradientTransform="matrix(1 0 0 -1 -41.6602 348.04)">
	<stop  offset="0" style="stop-color:#D4EA5A"/>
	<stop  offset="1" style="stop-color:#4DABB7"/>
</linearGradient>
<path display="none" fill="url(#SVGID_2_)" d="M179.282,378.388c1.174-0.036,2.343,0,3.505,0.174c2.3,0.346,6.278,1.223,8.193,3.304
	c2.552,2.774,3.793,5.605,1.756,8.774c-5.266,8.188-16.962,2.925-19.301,10.528c-2.555,8.302-9.304,9.63-13.958,9.475
	c-3.128-0.104-5.761-2.065-7.612-4.59l0,0c-2.292-3.124-3.293-7.068-2.029-10.73c1.439-4.176,4.033-9.522,8.391-12.286
	C164.206,379.245,175.052,378.524,179.282,378.388z"/>
<linearGradient id="SVGID_3_" gradientUnits="userSpaceOnUse" x1="131.2559" y1="-31.5767" x2="175.1242" y2="-61.9917" gradientTransform="matrix(1 0 0 -1 -41.6602 348.04)">
	<stop  offset="0" style="stop-color:#D2E95B"/>
	<stop  offset="1" style="stop-color:#50ACB5"/>
</linearGradient>
<path display="none" fill="url(#SVGID_3_)" d="M134.357,413.188c-5.755,6.961-19.037,5.481-29.669-3.307
	c-10.631-8.786-23.576-23.394-17.821-30.355c5.753-6.961,28.028-3.641,38.659,5.147
	C136.158,393.459,140.112,406.227,134.357,413.188z"/>
<linearGradient id="SVGID_4_" gradientUnits="userSpaceOnUse" x1="213.7979" y1="2.5259" x2="189.7489" y2="-29.1436" gradientTransform="matrix(1 0 0 -1 -41.6602 348.04)">
	<stop  offset="0" style="stop-color:#D2E95B"/>
	<stop  offset="1" style="stop-color:#50ADB5"/>
</linearGradient>
<path display="none" fill="url(#SVGID_4_)" d="M173.433,360.81c-12.868,5.849-24.564,16.965-24.564,16.965
	s2.337-25.968,9.941-31.003c3.125-4.116,9.375-4.261,13.234-1.33C175.902,348.371,176.558,356.693,173.433,360.81z"/>
<linearGradient id="SVGID_5_" gradientUnits="userSpaceOnUse" x1="201.6465" y1="-28.4033" x2="189.4031" y2="-33.6179" gradientTransform="matrix(1 0 0 -1 -41.6602 348.04)">
	<stop  offset="0" style="stop-color:#D3E95B"/>
	<stop  offset="1" style="stop-color:#4FACB5"/>
</linearGradient>
<path display="none" fill="url(#SVGID_5_)" d="M157.826,381.104c-4.71-0.435-9.955,0.855-9.955,0.855s4.988-7.161,8.035-7.361
	c1.59-0.677,3.431,0.317,4.065,1.81C160.608,377.899,159.417,380.428,157.826,381.104z"/>
<path display="none" fill="none" stroke="#8F8F8F" stroke-linecap="round" d="M139.507,313.988c0,0-1.137,35.339,0,57.935
	c1.141,22.688,5.85,57.876,5.85,57.876"/>
<path display="none" fill="none" stroke="#8F8F8F" stroke-linecap="round" d="M159.395,358.47c0,0-12.762,17.547-14.359,34.51
	c-1.351,14.356,0,36.682,0,36.682"/>
<path display="none" fill="none" stroke="#8F8F8F" stroke-linecap="round" d="M170.735,387.581c0,0-15.021,4.56-18.943,14.756
	c-5.85,15.208-5.85,27.491-5.85,27.491"/>
<path display="none" fill="none" stroke="#8F8F8F" stroke-linecap="round" d="M104.654,385.434c0,0,16.055,10.114,23.742,19.244
	c7.07,8.399,14.095,24.325,14.095,24.325"/>
<path display="none" fill="#455A65" d="M124.295,436.207c-0.312-3.425,2.387-6.379,5.826-6.379h29.126
	c3.502,0,6.22,3.06,5.808,6.537l-5.61,47.479c-0.696,5.889-5.688,10.323-11.618,10.323h-7.58c-6.05,0-11.102-4.613-11.65-10.638
	L124.295,436.207z"/>
<path display="none" fill="none" stroke="#687B85" stroke-width="3" stroke-linecap="round" d="M128.396,451.378
	c0,0,2.483-0.396,4.904-0.482c13.246-0.468,3.02,12.155,13.812,14.026c9.371,1.629,11.698-1.851,11.698-1.851"/>
<path display="none" fill="none" stroke="#687B85" stroke-width="3" stroke-linecap="round" d="M129.565,465.362
	c0,0,2.292-0.352,4.528-0.428c8.339-0.284,2.786,10.806,12.749,12.472c8.651,1.445,10.798-1.647,10.798-1.647"/>
<path display="none" fill="#EDAE81" d="M324.854,398.124l9-9.176l9,9.176c0,0,2.23,6.035,2.7,10.092
	c0.832,7.196,0.313,11.787-2.7,18.351c-1.819,3.961-6.299,9.175-6.299,9.175s-0.677-10.129-1.801-16.516
	c-0.83-4.706-0.638-7.635-2.7-11.928C330.072,403.179,324.854,398.124,324.854,398.124z"/>
<path display="none" fill="#C4C4C4" d="M341.808,396.189c0,0,3.236-0.498,5.218,0c1.979,0.5,6.955,5.41,6.955,5.41
	s0.267,4.41,0,7.213c-0.486,5.103-2.089,7.702-3.478,12.623c-2.294,8.123-3.617,11.535-5.219,19.836
	c-0.868,4.509-2.408,8.052-5.216,7.214c-2.188-0.655-1.885-3.172-2.606-5.41c-1.193-3.688-0.871-9.918-0.871-9.918
	s4.565-3.607,5.217-9.018C342.678,416.927,341.808,396.189,341.808,396.189z"/>
<path display="none" fill="#EDAE81" d="M398.549,416.878l5.809-11.385l11.388,5.808c0,0,3.963,4.963,5.646,8.62
	c2.983,6.484,3.882,10.946,3,18.029c-0.535,4.276-3.231,10.55-3.231,10.55s-3.724-9.279-6.737-14.916
	c-2.224-4.153-2.929-6.957-6.205-10.341C405.072,419.995,398.549,416.878,398.549,416.878z"/>
<path display="none" fill="#C4C4C4" d="M413.467,410.139c0,0,3.046-1.516,5.156-1.674c2.114-0.159,8.553,2.927,8.553,2.927
	s1.628,4.119,2.229,6.877c1.1,5.023,0.319,8.016,0.47,13.152c0.244,8.482-0.009,12.159,0.976,20.587
	c0.534,4.577,0.107,8.452-2.927,8.552c-2.367,0.077-2.846-2.419-4.252-4.321c-2.32-3.135-3.929-9.179-3.929-9.179
	s3.398-4.902,2.37-10.27C420.739,429.631,413.467,410.139,413.467,410.139z"/>
<path display="none" fill="#363636" d="M418.623,183.76c-16.276,25.088-37.395,36.736-57.868,36.736s-37.07-13.64-37.07-30.465
	s62.71-53.761,83.184-53.761S424.952,174.002,418.623,183.76z"/>
<path display="none" fill="#DFA479" d="M324.984,146.534c-0.183-0.905,14.559-0.905,14.559-0.905s0.457,9.135,1.818,13.584
	c1.25,4.088,4.549,8.149,4.549,8.149s-7.179,6.215-12.737,6.339c-4.949,0.111-11.829-4.527-11.829-4.527s2.909-6.454,3.641-10.867
	C325.733,153.771,325.167,147.44,324.984,146.534z"/>
<path display="none" fill="#EAAD80" d="M229.208,67.077c0.315-0.158,0.901,0,0.901,0l0.902,0.906l1.801,5.439h0.901l-0.901-9.972
	v-1.813c0,0,0-1.813,0.901-2.72c0.9-0.906,1.8,0.907,1.8,0.907l1.803,11.786h0.901V58.917c0,0,0-0.906,0.901-1.813
	c0.9-0.907,1.803,0.907,1.803,0.907l0.9,11.785h0.9V55.291c0,0,1.017-0.906,1.802-0.906c0.787,0,1.803,0.906,1.803,0.906l1.8,20.852
	c0,0,1.279-2.133,1.803-3.626c0.596-1.702,0.901-4.533,0.901-4.533s0.811-1.736,1.802-1.813c0.785-0.061,1.802,0.907,1.802,0.907
	s0.515,6.112,0,9.972c-0.635,4.773-2.702,11.787-2.702,11.787l-10.811,1.813c0,0-6.21-5.511-8.11-9.066
	c-2.426-4.54-3.604-12.692-3.604-12.692S228.58,67.393,229.208,67.077z"/>
<path display="none" fill="#EAAD80" d="M440.397,81.77c-0.302-0.152-0.859,0-0.859,0l-0.86,0.87l-1.722,5.219h-0.859l0.859-9.568
	v-1.74c0,0,0-1.74-0.859-2.61c-0.858-0.87-1.72,0.87-1.72,0.87l-1.721,11.308h-0.859V73.941c0,0,0-0.87-0.861-1.74
	c-0.858-0.87-1.72,0.87-1.72,0.87l-0.859,11.308h-0.858V70.461c0,0-0.97-0.87-1.722-0.87c-0.751,0-1.72,0.87-1.72,0.87l-1.72,20.007
	c0,0-1.221-2.047-1.72-3.479c-0.57-1.634-0.86-4.35-0.86-4.35s-0.772-1.666-1.721-1.74c-0.749-0.058-1.718,0.87-1.718,0.87
	s-0.494,5.865,0,9.568c0.604,4.58,3.438,11.308,3.438,11.308l11.179,0.87c0,0,4.209-4.417,6.021-7.829
	c2.315-4.356,3.441-12.178,3.441-12.178S440.998,82.074,440.397,81.77z"/>
<path display="none" fill="#EAAD80" d="M351.738,134.44c0,9.553-18.956,18.208-26.87,18.208s-8.062-8.655-8.062-18.208
	c0-9.554-1.645-17.298,6.27-17.298C353.53,109.858,351.738,124.886,351.738,134.44z"/>
<path display="none" fill="#363636" d="M308.755,110.234c0.551-3.556,1.885-5.581,4.535-8.053c2.075-1.936,3.636-2.701,6.351-3.579
	c2.046-0.663,3.287-0.845,5.442-0.894c2.504-0.058,4.107-0.21,6.349,0.894c2.239,1.105,2.271,3.416,4.535,4.474
	c1.318,0.617,2.171,0.812,3.629,0.895c2.572,0.146,3.77-1.79,6.349-1.79c2.577,0,4.072,0.593,6.347,1.79
	c2.003,1.051,2.957,1.974,4.535,3.579c2.88,2.924,3.567,5.317,5.443,8.947c2.093,4.047,1.68,7.173,4.535,10.737
	c2.024,2.527,3.43,3.928,6.35,5.369c2.613,1.289,4.373,1.325,7.256,1.789c5.593,0.901,9.217,1.991,14.513,0
	c1.481-0.555,3.629-1.789,3.629-1.789s-1.641,2.196-2.722,3.578c-1.386,1.771-2.097,2.824-3.628,4.475
	c-1.015,1.093-1.68,1.616-2.722,2.684c-2.611,2.675-3.66,4.558-6.349,7.158c-2.333,2.254-3.694,3.492-6.35,5.368
	c-1.037,0.734-1.629,1.137-2.721,1.789c-2.031,1.214-3.244,1.792-5.442,2.684c-2.073,0.842-3.266,1.271-5.442,1.79
	c-2.436,0.581-3.851,0.735-6.351,0.895c-2.119,0.137-3.332,0.263-5.439,0c-2.559-0.319-3.969-0.816-6.352-1.79
	c-1.462-0.598-3.626-1.79-3.626-1.79s-0.615-2.168-0.909-3.579c-0.468-2.256-0.904-7.158-0.904-8.053c0-1.747,0-4.473,0-4.473
	s2.138-1.254,3.625-1.79c1.373-0.494,2.397-0.121,3.631-0.894c1.741-1.095,2.442-2.281,2.719-4.475
	c0.176-1.386,0.361-3.848-0.904-4.474c-1.004-0.494-1.712-0.476-2.722,0c-1.153,0.544-1.471,2.425-2.724,2.684
	c-0.692,0.145-1.812,0-1.812,0s0.718-3.251,0.905-5.368c0.219-2.436,0.945-4.001,0-6.263c-0.487-1.165-0.781-1.942-1.814-2.684
	c-0.902-0.65-1.604-0.81-2.721-0.895c-1.456-0.111-2.244,0.43-3.626,0.895c-2.251,0.755-3.179,1.976-5.442,2.684
	c-2.055,0.643-3.289,0.914-5.442,0.895c-2.92-0.024-4.6-0.592-7.256-1.789c-2.772-1.25-4.829-1.87-6.351-4.474
	C308.234,114.952,308.323,113.019,308.755,110.234z"/>
<path display="none" fill="#747474" d="M314.405,264.949h24.725h24.726c0,0,0.861,16.471,0,26.965
	c-0.875,10.641-2.836,16.42-4.497,26.965c-1.876,11.916-5.934,18.584-4.494,30.562c0.427,3.553,0.48,5.659,1.799,8.988
	c2.927,7.385,8.561,8.977,14.384,14.38c13.383,12.421,36.863,28.763,36.863,28.763s-0.752,7.95-2.699,12.584
	c-1.77,4.222-6.291,9.888-6.291,9.888s-25.075-10.978-39.562-20.673c-15.316-10.252-32.365-24.269-35.963-30.562
	c-3.596-6.291-5.356-27.813-7.191-45.84C313.748,302.863,314.405,264.949,314.405,264.949z"/>
<path display="none" fill="#686868" d="M293.991,264.949h28.907h9.937c0,0-5.082,28.08-14.454,43.221
	c-5.787,9.35-14.543,11.202-18.065,21.611c-1.042,3.071-1.739,4.862-1.808,8.104c-0.077,3.585,1.808,9.004,1.808,9.004
	s8.156,8.335,13.549,13.506c9.899,9.497,26.196,23.412,26.196,23.412s-3.379,7.951-7.226,11.705
	c-3.286,3.208-9.937,6.305-9.937,6.305S295.25,383.35,281.345,367.6c-8.346-9.452-16.192-13.831-18.971-26.112
	c-1.551-6.861,0-18.009,0-18.009L293.991,264.949z"/>
<path fill="#F48121" d="M240.628,90.112l12.625-1.804c0,0,13.147,25.87,25.256,39.684c7.06,8.056,10.953,12.962,19.843,18.94
	c9.558,6.426,27.059,11.725,27.059,11.725s-1.06,5.162,0.902,7.215c1.538,1.61,3.185,1.724,5.41,1.803
	c3.467,0.125,6.025-0.841,8.118-3.607c1.145-1.512,1.806-4.51,1.806-4.51s4.29,1.991,7.215,2.706
	c3.439,0.841,5.483,1.094,9.021,0.902c5.12-0.279,7.949-1.507,12.626-3.608c9.34-4.194,12.785-9.719,19.843-17.136
	c12.797-13.446,26.156-39.684,26.156-39.684l17.138,0.902c0,0-6.002,20.799-11.725,33.371c-5.884,12.922-9.612,20.139-18.041,31.567
	c-8.282,11.231-15.447,15.408-24.351,26.155c-4.001,4.83-9.924,12.627-9.924,12.627s-0.651,7.139-0.9,11.725
	c-0.613,11.254-0.609,17.607,0,28.86c0.554,10.253,2.706,26.156,2.706,26.156s-17.806,7.057-29.764,7.215
	c-12.646,0.165-20.093-1.905-31.569-7.215c-7.184-3.325-17.136-10.823-17.136-10.823s2.079-15.957,3.607-26.155
	c1.32-8.819,3.184-13.641,3.608-22.547c0.539-11.308-2.708-28.862-2.708-28.862s-14.054-11.832-21.646-20.744
	c-6.72-7.885-10.049-12.736-15.333-21.646c-6.352-10.705-9.437-17.105-13.531-28.861C243.71,105.187,240.628,90.112,240.628,90.112z
	"/>
<circle display="none" fill="none" stroke="#37CF1F" stroke-width="2" cx="228.929" cy="184.233" r="5.849"/>
<path display="none" fill="none" stroke="#37CF1F" stroke-width="2" d="M379.834,73.686c0,3.643-2.704,6.435-5.848,6.435
	c-3.145,0-5.85-2.792-5.85-6.435s2.705-6.434,5.85-6.434C377.13,67.252,379.834,70.042,379.834,73.686z"/>
<circle display="none" fill="none" stroke="#37CF1F" stroke-width="2" cx="476.344" cy="145.044" r="6.434"/>
<circle display="none" fill="#37CF1F" cx="218.401" cy="259.101" r="4.68"/>
<circle display="none" fill="#37CF1F" cx="407.91" cy="268.459" r="4.679"/>
<line display="none" fill="none" stroke="#37CF1F" stroke-width="2" stroke-linecap="round" x1="492.026" y1="238.361" x2="492.026" y2="229.855"/>
<line display="none" fill="none" stroke="#37CF1F" stroke-width="2" stroke-linecap="round" x1="492.026" y1="252.822" x2="492.026" y2="244.315"/>
<line display="none" fill="none" stroke="#37CF1F" stroke-width="2" stroke-linecap="round" x1="486.604" y1="240.701" x2="478.098" y2="240.701"/>
<line display="none" fill="none" stroke="#37CF1F" stroke-width="2" stroke-linecap="round" x1="504.68" y1="240.701" x2="496.174" y2="240.701"/>
<line display="none" fill="none" stroke="#37CF1F" stroke-width="2" stroke-linecap="round" x1="66.218" y1="202.097" x2="66.218" y2="193.591"/>
<line display="none" fill="none" stroke="#37CF1F" stroke-width="2" stroke-linecap="round" x1="66.218" y1="216.559" x2="66.218" y2="208.052"/>
<line display="none" fill="none" stroke="#37CF1F" stroke-width="2" stroke-linecap="round" x1="60.795" y1="204.437" x2="52.289" y2="204.437"/>
<line display="none" fill="none" stroke="#37CF1F" stroke-width="2" stroke-linecap="round" x1="78.871" y1="204.437" x2="70.365" y2="204.437"/>
<path display="none" fill="none" stroke="#37CF1F" stroke-width="10" stroke-linecap="round" d="M96.357,119.168l29.926,21.073
	l33.042-56.611"/>
</svg>
