<?xml version="1.0" encoding="utf-8"?>
<!-- Generator: Adobe Illustrator 16.0.0, SVG Export Plug-In . SVG Version: 6.00 Build 0)  -->
<!DOCTYPE svg PUBLIC "-//W3C//DTD SVG 1.1//EN" "http://www.w3.org/Graphics/SVG/1.1/DTD/svg11.dtd">
<svg version="1.1" id="Layer_1" xmlns="http://www.w3.org/2000/svg" xmlns:xlink="http://www.w3.org/1999/xlink" x="0px" y="0px"
	 width="128px" height="128px" viewBox="0 0 128 128" enable-background="new 0 0 128 128" xml:space="preserve">
<path display="none" fill="none" stroke="#F48121" stroke-width="4" d="M40.991,16.157h3.881c6.252,0,11.32,5.068,11.32,11.321
	v4.527c0,6.252-5.068,11.32-11.32,11.32h-3.881c-6.253,0-11.32-5.068-11.32-11.32v-4.527C29.67,21.225,34.738,16.157,40.991,16.157z
	"/>
<path display="none" fill="none" stroke="#F48121" stroke-width="4" d="M96.945,44.942L96.945,44.942
	c-6.253,0-11.321-5.068-11.321-11.319V26.83c0-6.43,5.213-11.643,11.644-11.643h2.748c6.856,0,12.229,5.896,11.594,12.722
	l-0.939,10.094c-0.278,3.004-2.4,5.516-5.316,6.292l0,0"/>
<path display="none" fill="none" stroke="#F48121" stroke-width="4" d="M51.34,41.062v5.499c0,4.465-3.62,8.085-8.085,8.085l0,0
	c-4.465,0-8.086-3.62-8.086-8.085v-4.529"/>
<path display="none" fill="none" stroke="#F48121" stroke-width="4" d="M35.168,46.657L22.16,50.071
	c-2.971,0.781-4.983,3.542-4.816,6.609l0.683,12.521 M51.34,46.535l11.729,2.673c3.115,0.709,5.245,3.586,5.016,6.771l-0.183,2.549"
	/>
<path display="none" fill="none" stroke="#F48121" stroke-width="4" d="M83.361,58.528l14.511-14.464
	c2.024-2.017,5.3-2.013,7.319,0.007l0,0c2.023,2.022,2.023,5.302,0,7.324L89.327,67.26"/>
<path display="none" fill="none" stroke="#F48121" stroke-width="4" d="M106.646,43.649L106.646,43.649
	c2.323,0,4.205,1.882,4.205,4.205v34.284c0,3.572-2.896,6.47-6.468,6.47H82.713"/>
<path fill="none" stroke="#F48121" stroke-width="4" d="M83.037,99.926h24.113c7.073,0,12.838-5.683,12.936-12.755
	c0.22-15.589,0.445-31.73,0.469-33.496c0.031-2.264,0.001-2.415-1.513-2.342c-2.25-0.013-6.166-0.013-6.166-0.013"/>
<rect x="8.97" y="69.201" fill="none" stroke="#F48121" stroke-width="4" width="79.565" height="9.702"/>
<path fill="none" stroke="#F48121" stroke-width="4" d="M23.416,119.655l5.154-9.702H65.7l5.155,9.702H23.416z"/>
<rect x="12.852" y="79.551" fill="none" stroke="#F48121" stroke-width="4" width="69.861" height="40.104"/>
<line fill="none" stroke="#F48121" stroke-width="4" x1="12.852" y1="87.959" x2="23.849" y2="87.959"/>
<line fill="none" stroke="#F48121" stroke-width="4" x1="29.023" y1="87.959" x2="82.713" y2="87.959"/>
<path fill="none" stroke="#F48121" stroke-width="4" d="M99.495,119.01l-2.187-18.76h10.017l1.876,18.76H99.495z"/>
<line fill="none" stroke="#F48121" stroke-width="4" x1="8.97" y1="122.326" x2="120.559" y2="122.326"/>
<path fill="none" stroke="#F48121" stroke-width="4" d="M65.096,19.681h-2.759c-1.786,0-3.234-1.448-3.234-3.234V5.603
	c0-1.787,1.449-3.234,3.234-3.234h16.172c1.786,0,3.234,1.447,3.234,3.234v10.844c0,1.787-1.448,3.234-3.234,3.234h-6.755"/>
<path fill="none" stroke="#F48121" stroke-width="3" d="M65.763,19.681v3.996l5.993-3.996"/>
<path display="none" fill="none" stroke="#F48121" stroke-width="4" d="M83.361,58.528H59.724c-2.844,0-5.149,2.305-5.149,5.149l0,0
	c0,2.864,2.336,5.178,5.2,5.148l25.007-0.245c1.813-0.018,3.574-0.592,5.047-1.644l0,0"/>
<circle display="none" fill="#F48121" cx="65.115" cy="11.045" r="1.332"/>
<circle display="none" fill="#F48121" cx="70.442" cy="11.044" r="1.331"/>
<circle display="none" fill="#F48121" cx="75.769" cy="11.044" r="1.331"/>
</svg>
