<?xml version="1.0" encoding="utf-8"?>
<!-- Generator: Adobe Illustrator 16.0.0, SVG Export Plug-In . SVG Version: 6.00 Build 0)  -->
<!DOCTYPE svg PUBLIC "-//W3C//DTD SVG 1.1//EN" "http://www.w3.org/Graphics/SVG/1.1/DTD/svg11.dtd">
<svg version="1.1" id="Layer_1" xmlns="http://www.w3.org/2000/svg" xmlns:xlink="http://www.w3.org/1999/xlink" x="0px" y="0px"
	 width="128px" height="128px" viewBox="0 0 128 128" enable-background="new 0 0 128 128" xml:space="preserve">
<path fill="none" stroke="#C4C4C4" stroke-width="4" d="M9.28,18.205c0.164-1.259,0.308-2.349,0.437-3.229L64.136,2.615
	l54.416,12.361c0.123,0.89,0.276,1.979,0.442,3.244c0.473,3.665,1.047,8.779,1.429,14.557c0.765,11.683,0.714,25.582-2.18,35.765
	c-4.708,16.552-8.394,26.106-20.046,37.765c-5.635,5.635-14.938,10.655-23.193,14.346c-4.061,1.82-7.756,3.259-10.429,4.246
	c-1.183,0.433-2.165,0.771-2.887,1.022c-0.682-0.303-1.591-0.72-2.678-1.233c-2.514-1.191-5.978-2.914-9.792-5.021
	c-7.73-4.287-16.433-9.939-21.619-15.811C17.525,92.434,14.265,83.797,10.02,68.563C7.177,58.354,7.131,44.44,7.881,32.757
	C8.257,26.979,8.817,21.87,9.28,18.205z"/>
<path fill="none" stroke="#C4C4C4" stroke-width="4" d="M45.631,44.62h36.868c3.635,0,6.579,2.945,6.579,6.579v36.844
	c0,3.637-2.944,6.579-6.579,6.579H45.631c-3.635,0-6.58-2.942-6.58-6.579V51.199C39.051,47.565,41.996,44.62,45.631,44.62z"/>
<path fill="none" stroke="#C4C4C4" stroke-width="4" d="M77.234,46.178c0-5.813,0-15.791-13.16-15.791
	c-13.181,0-13.181,9.977-13.181,15.791"/>
</svg>
